%TF.GenerationSoftware,KiCad,Pcbnew,9.0.2*%
%TF.CreationDate,2026-05-12T23:08:37-04:00*%
%TF.ProjectId,Santas Microfactory - Backplane,53616e74-6173-4204-9d69-63726f666163,rev?*%
%TF.SameCoordinates,Original*%
%TF.FileFunction,Copper,L1,Top*%
%TF.FilePolarity,Positive*%
%FSLAX46Y46*%
G04 Gerber Fmt 4.6, Leading zero omitted, Abs format (unit mm)*
G04 Created by KiCad (PCBNEW 9.0.2) date 2026-05-12 23:08:37*
%MOMM*%
%LPD*%
G01*
G04 APERTURE LIST*
%TA.AperFunction,ComponentPad*%
%ADD10C,0.800000*%
%TD*%
%TA.AperFunction,ComponentPad*%
%ADD11C,6.400000*%
%TD*%
%TA.AperFunction,ComponentPad*%
%ADD12C,2.350000*%
%TD*%
%TA.AperFunction,ComponentPad*%
%ADD13C,1.200000*%
%TD*%
%TA.AperFunction,Conductor*%
%ADD14C,0.300000*%
%TD*%
G04 APERTURE END LIST*
D10*
%TO.P,H5,1*%
%TO.N,N/C*%
X149400000Y-56600000D03*
X148697056Y-58297056D03*
X148697056Y-54902944D03*
X147000000Y-59000000D03*
D11*
X147000000Y-56600000D03*
D10*
X147000000Y-54200000D03*
X145302944Y-58297056D03*
X145302944Y-54902944D03*
X144600000Y-56600000D03*
%TD*%
%TO.P,H1,1*%
%TO.N,N/C*%
X55400000Y-56600000D03*
X54697056Y-58297056D03*
X54697056Y-54902944D03*
X53000000Y-59000000D03*
D11*
X53000000Y-56600000D03*
D10*
X53000000Y-54200000D03*
X51302944Y-58297056D03*
X51302944Y-54902944D03*
X50600000Y-56600000D03*
%TD*%
%TO.P,H6,1*%
%TO.N,N/C*%
X144600000Y-121500000D03*
X145302944Y-119802944D03*
X145302944Y-123197056D03*
X147000000Y-119100000D03*
D11*
X147000000Y-121500000D03*
D10*
X147000000Y-123900000D03*
X148697056Y-119802944D03*
X148697056Y-123197056D03*
X149400000Y-121500000D03*
%TD*%
%TO.P,H3,1*%
%TO.N,N/C*%
X50600000Y-121500000D03*
X51302944Y-119802944D03*
X51302944Y-123197056D03*
X53000000Y-119100000D03*
D11*
X53000000Y-121500000D03*
D10*
X53000000Y-123900000D03*
X54697056Y-119802944D03*
X54697056Y-123197056D03*
X55400000Y-121500000D03*
%TD*%
D12*
%TO.P,CN2,*%
%TO.N,*%
X129850000Y-63000000D03*
X56700000Y-63000000D03*
D13*
%TO.P,CN2,1,A1*%
%TO.N,A1*%
X141500000Y-64250000D03*
%TO.P,CN2,2,A2*%
%TO.N,A2*%
X140500000Y-66250000D03*
%TO.P,CN2,3,A3*%
%TO.N,A3*%
X139500000Y-64250000D03*
%TO.P,CN2,4,A4*%
%TO.N,A4*%
X138500000Y-66250000D03*
%TO.P,CN2,5,A5*%
%TO.N,A5*%
X137500000Y-64250000D03*
%TO.P,CN2,6,A6*%
%TO.N,A6*%
X136500000Y-66250000D03*
%TO.P,CN2,7,A7*%
%TO.N,A7*%
X135500000Y-64250000D03*
%TO.P,CN2,8,A8*%
%TO.N,A8*%
X134500000Y-66250000D03*
%TO.P,CN2,9,A9*%
%TO.N,A9*%
X133500000Y-64250000D03*
%TO.P,CN2,10,A10*%
%TO.N,A10*%
X132500000Y-66250000D03*
%TO.P,CN2,11,A11*%
%TO.N,A11*%
X131500000Y-64250000D03*
%TO.P,CN2,12,A12*%
%TO.N,A12*%
X128500000Y-66250000D03*
%TO.P,CN2,13,A13*%
%TO.N,A13*%
X127500000Y-64250000D03*
%TO.P,CN2,14,A14*%
%TO.N,A14*%
X126500000Y-66250000D03*
%TO.P,CN2,15,A15*%
%TO.N,A15*%
X125500000Y-64250000D03*
%TO.P,CN2,16,A16*%
%TO.N,A16*%
X124500000Y-66250000D03*
%TO.P,CN2,17,A17*%
%TO.N,A17*%
X123500000Y-64250000D03*
%TO.P,CN2,18,A18*%
%TO.N,A18*%
X122500000Y-66250000D03*
%TO.P,CN2,19,A19*%
%TO.N,A19*%
X121500000Y-64250000D03*
%TO.P,CN2,20,A20*%
%TO.N,A20*%
X120500000Y-66250000D03*
%TO.P,CN2,21,A21*%
%TO.N,A21*%
X119500000Y-64250000D03*
%TO.P,CN2,22,A22*%
%TO.N,A22*%
X118500000Y-66250000D03*
%TO.P,CN2,23,A23*%
%TO.N,A23*%
X117500000Y-64250000D03*
%TO.P,CN2,24,A24*%
%TO.N,A24*%
X116500000Y-66250000D03*
%TO.P,CN2,25,A25*%
%TO.N,A25*%
X115500000Y-64250000D03*
%TO.P,CN2,26,A26*%
%TO.N,A26*%
X114500000Y-66250000D03*
%TO.P,CN2,27,A27*%
%TO.N,A27*%
X113500000Y-64250000D03*
%TO.P,CN2,28,A28*%
%TO.N,A28*%
X112500000Y-66250000D03*
%TO.P,CN2,29,A29*%
%TO.N,A29*%
X111500000Y-64250000D03*
%TO.P,CN2,30,A30*%
%TO.N,A30*%
X110500000Y-66250000D03*
%TO.P,CN2,31,A31*%
%TO.N,A31*%
X109500000Y-64250000D03*
%TO.P,CN2,32,A32*%
%TO.N,A32*%
X108500000Y-66250000D03*
%TO.P,CN2,33,A33*%
%TO.N,A33*%
X107500000Y-64250000D03*
%TO.P,CN2,34,A34*%
%TO.N,A34*%
X106500000Y-66250000D03*
%TO.P,CN2,35,A35*%
%TO.N,A35*%
X105500000Y-64250000D03*
%TO.P,CN2,36,A36*%
%TO.N,A36*%
X104500000Y-66250000D03*
%TO.P,CN2,37,A37*%
%TO.N,A37*%
X103500000Y-64250000D03*
%TO.P,CN2,38,A38*%
%TO.N,A38*%
X102500000Y-66250000D03*
%TO.P,CN2,39,A39*%
%TO.N,A39*%
X101500000Y-64250000D03*
%TO.P,CN2,40,A40*%
%TO.N,A40*%
X100500000Y-66250000D03*
%TO.P,CN2,41,A41*%
%TO.N,A41*%
X99500000Y-64250000D03*
%TO.P,CN2,42,A42*%
%TO.N,A42*%
X98500000Y-66250000D03*
%TO.P,CN2,43,A43*%
%TO.N,A43*%
X97500000Y-64250000D03*
%TO.P,CN2,44,A44*%
%TO.N,A44*%
X96500000Y-66250000D03*
%TO.P,CN2,45,A45*%
%TO.N,A45*%
X95500000Y-64250000D03*
%TO.P,CN2,46,A46*%
%TO.N,A46*%
X94500000Y-66250000D03*
%TO.P,CN2,47,A47*%
%TO.N,A47*%
X93500000Y-64250000D03*
%TO.P,CN2,48,A48*%
%TO.N,A48*%
X92500000Y-66250000D03*
%TO.P,CN2,49,A49*%
%TO.N,A49*%
X91500000Y-64250000D03*
%TO.P,CN2,50,A50*%
%TO.N,A50*%
X90500000Y-66250000D03*
%TO.P,CN2,51,A51*%
%TO.N,A51*%
X89500000Y-64250000D03*
%TO.P,CN2,52,A52*%
%TO.N,A52*%
X88500000Y-66250000D03*
%TO.P,CN2,53,A53*%
%TO.N,A53*%
X87500000Y-64250000D03*
%TO.P,CN2,54,A54*%
%TO.N,A54*%
X86500000Y-66250000D03*
%TO.P,CN2,55,A55*%
%TO.N,A55*%
X85500000Y-64250000D03*
%TO.P,CN2,56,A56*%
%TO.N,A56*%
X84500000Y-66250000D03*
%TO.P,CN2,57,A57*%
%TO.N,A57*%
X83500000Y-64250000D03*
%TO.P,CN2,58,A58*%
%TO.N,A58*%
X82500000Y-66250000D03*
%TO.P,CN2,59,A59*%
%TO.N,A59*%
X81500000Y-64250000D03*
%TO.P,CN2,60,A60*%
%TO.N,A60*%
X80500000Y-66250000D03*
%TO.P,CN2,61,A61*%
%TO.N,A61*%
X79500000Y-64250000D03*
%TO.P,CN2,62,A62*%
%TO.N,A62*%
X78500000Y-66250000D03*
%TO.P,CN2,63,A63*%
%TO.N,A63*%
X77500000Y-64250000D03*
%TO.P,CN2,64,A64*%
%TO.N,A64*%
X76500000Y-66250000D03*
%TO.P,CN2,65,A65*%
%TO.N,A65*%
X75500000Y-64250000D03*
%TO.P,CN2,66,A66*%
%TO.N,A66*%
X74500000Y-66250000D03*
%TO.P,CN2,67,A67*%
%TO.N,A67*%
X73500000Y-64250000D03*
%TO.P,CN2,68,A68*%
%TO.N,A68*%
X72500000Y-66250000D03*
%TO.P,CN2,69,A69*%
%TO.N,A69*%
X71500000Y-64250000D03*
%TO.P,CN2,70,A70*%
%TO.N,A70*%
X70500000Y-66250000D03*
%TO.P,CN2,71,A71*%
%TO.N,A71*%
X69500000Y-64250000D03*
%TO.P,CN2,72,A72*%
%TO.N,A72*%
X68500000Y-66250000D03*
%TO.P,CN2,73,A73*%
%TO.N,A73*%
X67500000Y-64250000D03*
%TO.P,CN2,74,A74*%
%TO.N,A74*%
X66500000Y-66250000D03*
%TO.P,CN2,75,A75*%
%TO.N,A75*%
X65500000Y-64250000D03*
%TO.P,CN2,76,A76*%
%TO.N,A76*%
X64500000Y-66250000D03*
%TO.P,CN2,77,A77*%
%TO.N,A77*%
X63500000Y-64250000D03*
%TO.P,CN2,78,A78*%
%TO.N,A78*%
X62500000Y-66250000D03*
%TO.P,CN2,79,A79*%
%TO.N,A79*%
X61500000Y-64250000D03*
%TO.P,CN2,80,A80*%
%TO.N,A80*%
X60500000Y-66250000D03*
%TO.P,CN2,81,A81*%
%TO.N,A81*%
X59500000Y-64250000D03*
%TO.P,CN2,82,A82*%
%TO.N,A82*%
X58500000Y-66250000D03*
%TO.P,CN2,83,B1*%
%TO.N,B1*%
X141500000Y-61750000D03*
%TO.P,CN2,84,B2*%
%TO.N,B2*%
X140500000Y-59750000D03*
%TO.P,CN2,85,B3*%
%TO.N,B3*%
X139500000Y-61750000D03*
%TO.P,CN2,86,B4*%
%TO.N,B4*%
X138500000Y-59750000D03*
%TO.P,CN2,87,B5*%
%TO.N,B5*%
X137500000Y-61750000D03*
%TO.P,CN2,88,B6*%
%TO.N,B6*%
X136500000Y-59750000D03*
%TO.P,CN2,89,B7*%
%TO.N,B7*%
X135500000Y-61750000D03*
%TO.P,CN2,90,B8*%
%TO.N,B8*%
X134500000Y-59750000D03*
%TO.P,CN2,91,B9*%
%TO.N,B9*%
X133500000Y-61750000D03*
%TO.P,CN2,92,B10*%
%TO.N,B10*%
X132500000Y-59750000D03*
%TO.P,CN2,93,B11*%
%TO.N,B11*%
X131500000Y-61750000D03*
%TO.P,CN2,94,B12*%
%TO.N,B12*%
X128500000Y-59750000D03*
%TO.P,CN2,95,B13*%
%TO.N,B13*%
X127500000Y-61750000D03*
%TO.P,CN2,96,B14*%
%TO.N,B14*%
X126500000Y-59750000D03*
%TO.P,CN2,97,B15*%
%TO.N,B15*%
X125500000Y-61750000D03*
%TO.P,CN2,98,B16*%
%TO.N,B16*%
X124500000Y-59750000D03*
%TO.P,CN2,99,B17*%
%TO.N,B17*%
X123500000Y-61750000D03*
%TO.P,CN2,100,B18*%
%TO.N,B18*%
X122500000Y-59750000D03*
%TO.P,CN2,101,B19*%
%TO.N,B19*%
X121500000Y-61750000D03*
%TO.P,CN2,102,B20*%
%TO.N,B20*%
X120500000Y-59750000D03*
%TO.P,CN2,103,B21*%
%TO.N,B21*%
X119500000Y-61750000D03*
%TO.P,CN2,104,B22*%
%TO.N,B22*%
X118500000Y-59750000D03*
%TO.P,CN2,105,B23*%
%TO.N,B23*%
X117500000Y-61750000D03*
%TO.P,CN2,106,B24*%
%TO.N,B24*%
X116500000Y-59750000D03*
%TO.P,CN2,107,B25*%
%TO.N,B25*%
X115500000Y-61750000D03*
%TO.P,CN2,108,B26*%
%TO.N,B26*%
X114500000Y-59750000D03*
%TO.P,CN2,109,B27*%
%TO.N,B27*%
X113500000Y-61750000D03*
%TO.P,CN2,110,B28*%
%TO.N,B28*%
X112500000Y-59750000D03*
%TO.P,CN2,111,B29*%
%TO.N,B29*%
X111500000Y-61750000D03*
%TO.P,CN2,112,B30*%
%TO.N,B30*%
X110500000Y-59750000D03*
%TO.P,CN2,113,B31*%
%TO.N,B31*%
X109500000Y-61750000D03*
%TO.P,CN2,114,B32*%
%TO.N,B32*%
X108500000Y-59750000D03*
%TO.P,CN2,115,B33*%
%TO.N,B33*%
X107500000Y-61750000D03*
%TO.P,CN2,116,B34*%
%TO.N,B34*%
X106500000Y-59750000D03*
%TO.P,CN2,117,B35*%
%TO.N,B35*%
X105500000Y-61750000D03*
%TO.P,CN2,118,B36*%
%TO.N,B36*%
X104500000Y-59750000D03*
%TO.P,CN2,119,B37*%
%TO.N,B37*%
X103500000Y-61750000D03*
%TO.P,CN2,120,B38*%
%TO.N,B38*%
X102500000Y-59750000D03*
%TO.P,CN2,121,B39*%
%TO.N,B39*%
X101500000Y-61750000D03*
%TO.P,CN2,122,B40*%
%TO.N,B40*%
X100500000Y-59750000D03*
%TO.P,CN2,123,B41*%
%TO.N,B41*%
X99500000Y-61750000D03*
%TO.P,CN2,124,B42*%
%TO.N,B42*%
X98500000Y-59750000D03*
%TO.P,CN2,125,B43*%
%TO.N,B43*%
X97500000Y-61750000D03*
%TO.P,CN2,126,B44*%
%TO.N,B44*%
X96500000Y-59750000D03*
%TO.P,CN2,127,B45*%
%TO.N,B45*%
X95500000Y-61750000D03*
%TO.P,CN2,128,B46*%
%TO.N,B46*%
X94500000Y-59750000D03*
%TO.P,CN2,129,B47*%
%TO.N,B47*%
X93500000Y-61750000D03*
%TO.P,CN2,130,B48*%
%TO.N,B48*%
X92500000Y-59750000D03*
%TO.P,CN2,131,B49*%
%TO.N,B49*%
X91500000Y-61750000D03*
%TO.P,CN2,132,B50*%
%TO.N,B50*%
X90500000Y-59750000D03*
%TO.P,CN2,133,B51*%
%TO.N,B51*%
X89500000Y-61750000D03*
%TO.P,CN2,134,B52*%
%TO.N,B52*%
X88500000Y-59750000D03*
%TO.P,CN2,135,B53*%
%TO.N,B53*%
X87500000Y-61750000D03*
%TO.P,CN2,136,B54*%
%TO.N,B54*%
X86500000Y-59750000D03*
%TO.P,CN2,137,B55*%
%TO.N,B55*%
X85500000Y-61750000D03*
%TO.P,CN2,138,B56*%
%TO.N,B56*%
X84500000Y-59750000D03*
%TO.P,CN2,139,B57*%
%TO.N,B57*%
X83500000Y-61750000D03*
%TO.P,CN2,140,B58*%
%TO.N,B58*%
X82500000Y-59750000D03*
%TO.P,CN2,141,B59*%
%TO.N,B59*%
X81500000Y-61750000D03*
%TO.P,CN2,142,B60*%
%TO.N,B60*%
X80500000Y-59750000D03*
%TO.P,CN2,143,B61*%
%TO.N,B61*%
X79500000Y-61750000D03*
%TO.P,CN2,144,B62*%
%TO.N,B62*%
X78500000Y-59750000D03*
%TO.P,CN2,145,B63*%
%TO.N,B63*%
X77500000Y-61750000D03*
%TO.P,CN2,146,B64*%
%TO.N,B64*%
X76500000Y-59750000D03*
%TO.P,CN2,147,B65*%
%TO.N,B65*%
X75500000Y-61750000D03*
%TO.P,CN2,148,B66*%
%TO.N,B66*%
X74500000Y-59750000D03*
%TO.P,CN2,149,B67*%
%TO.N,B67*%
X73500000Y-61750000D03*
%TO.P,CN2,150,B68*%
%TO.N,B68*%
X72500000Y-59750000D03*
%TO.P,CN2,151,B69*%
%TO.N,B69*%
X71500000Y-61750000D03*
%TO.P,CN2,152,B70*%
%TO.N,B70*%
X70500000Y-59750000D03*
%TO.P,CN2,153,B71*%
%TO.N,B71*%
X69500000Y-61750000D03*
%TO.P,CN2,154,B72*%
%TO.N,B72*%
X68500000Y-59750000D03*
%TO.P,CN2,155,B73*%
%TO.N,B73*%
X67500000Y-61750000D03*
%TO.P,CN2,156,B74*%
%TO.N,B74*%
X66500000Y-59750000D03*
%TO.P,CN2,157,B75*%
%TO.N,B75*%
X65500000Y-61750000D03*
%TO.P,CN2,158,B76*%
%TO.N,B76*%
X64500000Y-59750000D03*
%TO.P,CN2,159,B77*%
%TO.N,B77*%
X63500000Y-61750000D03*
%TO.P,CN2,160,B78*%
%TO.N,B78*%
X62500000Y-59750000D03*
%TO.P,CN2,161,B79*%
%TO.N,B79*%
X61500000Y-61750000D03*
%TO.P,CN2,162,B80*%
%TO.N,B80*%
X60500000Y-59750000D03*
%TO.P,CN2,163,B81*%
%TO.N,B81*%
X59500000Y-61750000D03*
%TO.P,CN2,164,B82*%
%TO.N,B82*%
X58500000Y-59750000D03*
%TD*%
D12*
%TO.P,CN6,*%
%TO.N,*%
X129850000Y-115000000D03*
X56700000Y-115000000D03*
D13*
%TO.P,CN6,1,A1*%
%TO.N,A1*%
X141500000Y-116250000D03*
%TO.P,CN6,2,A2*%
%TO.N,A2*%
X140500000Y-118250000D03*
%TO.P,CN6,3,A3*%
%TO.N,A3*%
X139500000Y-116250000D03*
%TO.P,CN6,4,A4*%
%TO.N,A4*%
X138500000Y-118250000D03*
%TO.P,CN6,5,A5*%
%TO.N,A5*%
X137500000Y-116250000D03*
%TO.P,CN6,6,A6*%
%TO.N,A6*%
X136500000Y-118250000D03*
%TO.P,CN6,7,A7*%
%TO.N,A7*%
X135500000Y-116250000D03*
%TO.P,CN6,8,A8*%
%TO.N,A8*%
X134500000Y-118250000D03*
%TO.P,CN6,9,A9*%
%TO.N,A9*%
X133500000Y-116250000D03*
%TO.P,CN6,10,A10*%
%TO.N,A10*%
X132500000Y-118250000D03*
%TO.P,CN6,11,A11*%
%TO.N,A11*%
X131500000Y-116250000D03*
%TO.P,CN6,12,A12*%
%TO.N,A12*%
X128500000Y-118250000D03*
%TO.P,CN6,13,A13*%
%TO.N,A13*%
X127500000Y-116250000D03*
%TO.P,CN6,14,A14*%
%TO.N,A14*%
X126500000Y-118250000D03*
%TO.P,CN6,15,A15*%
%TO.N,A15*%
X125500000Y-116250000D03*
%TO.P,CN6,16,A16*%
%TO.N,A16*%
X124500000Y-118250000D03*
%TO.P,CN6,17,A17*%
%TO.N,A17*%
X123500000Y-116250000D03*
%TO.P,CN6,18,A18*%
%TO.N,A18*%
X122500000Y-118250000D03*
%TO.P,CN6,19,A19*%
%TO.N,A19*%
X121500000Y-116250000D03*
%TO.P,CN6,20,A20*%
%TO.N,A20*%
X120500000Y-118250000D03*
%TO.P,CN6,21,A21*%
%TO.N,A21*%
X119500000Y-116250000D03*
%TO.P,CN6,22,A22*%
%TO.N,A22*%
X118500000Y-118250000D03*
%TO.P,CN6,23,A23*%
%TO.N,A23*%
X117500000Y-116250000D03*
%TO.P,CN6,24,A24*%
%TO.N,A24*%
X116500000Y-118250000D03*
%TO.P,CN6,25,A25*%
%TO.N,A25*%
X115500000Y-116250000D03*
%TO.P,CN6,26,A26*%
%TO.N,A26*%
X114500000Y-118250000D03*
%TO.P,CN6,27,A27*%
%TO.N,A27*%
X113500000Y-116250000D03*
%TO.P,CN6,28,A28*%
%TO.N,A28*%
X112500000Y-118250000D03*
%TO.P,CN6,29,A29*%
%TO.N,A29*%
X111500000Y-116250000D03*
%TO.P,CN6,30,A30*%
%TO.N,A30*%
X110500000Y-118250000D03*
%TO.P,CN6,31,A31*%
%TO.N,A31*%
X109500000Y-116250000D03*
%TO.P,CN6,32,A32*%
%TO.N,A32*%
X108500000Y-118250000D03*
%TO.P,CN6,33,A33*%
%TO.N,A33*%
X107500000Y-116250000D03*
%TO.P,CN6,34,A34*%
%TO.N,A34*%
X106500000Y-118250000D03*
%TO.P,CN6,35,A35*%
%TO.N,A35*%
X105500000Y-116250000D03*
%TO.P,CN6,36,A36*%
%TO.N,A36*%
X104500000Y-118250000D03*
%TO.P,CN6,37,A37*%
%TO.N,A37*%
X103500000Y-116250000D03*
%TO.P,CN6,38,A38*%
%TO.N,A38*%
X102500000Y-118250000D03*
%TO.P,CN6,39,A39*%
%TO.N,A39*%
X101500000Y-116250000D03*
%TO.P,CN6,40,A40*%
%TO.N,A40*%
X100500000Y-118250000D03*
%TO.P,CN6,41,A41*%
%TO.N,A41*%
X99500000Y-116250000D03*
%TO.P,CN6,42,A42*%
%TO.N,A42*%
X98500000Y-118250000D03*
%TO.P,CN6,43,A43*%
%TO.N,A43*%
X97500000Y-116250000D03*
%TO.P,CN6,44,A44*%
%TO.N,A44*%
X96500000Y-118250000D03*
%TO.P,CN6,45,A45*%
%TO.N,A45*%
X95500000Y-116250000D03*
%TO.P,CN6,46,A46*%
%TO.N,A46*%
X94500000Y-118250000D03*
%TO.P,CN6,47,A47*%
%TO.N,A47*%
X93500000Y-116250000D03*
%TO.P,CN6,48,A48*%
%TO.N,A48*%
X92500000Y-118250000D03*
%TO.P,CN6,49,A49*%
%TO.N,A49*%
X91500000Y-116250000D03*
%TO.P,CN6,50,A50*%
%TO.N,A50*%
X90500000Y-118250000D03*
%TO.P,CN6,51,A51*%
%TO.N,A51*%
X89500000Y-116250000D03*
%TO.P,CN6,52,A52*%
%TO.N,A52*%
X88500000Y-118250000D03*
%TO.P,CN6,53,A53*%
%TO.N,A53*%
X87500000Y-116250000D03*
%TO.P,CN6,54,A54*%
%TO.N,A54*%
X86500000Y-118250000D03*
%TO.P,CN6,55,A55*%
%TO.N,A55*%
X85500000Y-116250000D03*
%TO.P,CN6,56,A56*%
%TO.N,A56*%
X84500000Y-118250000D03*
%TO.P,CN6,57,A57*%
%TO.N,A57*%
X83500000Y-116250000D03*
%TO.P,CN6,58,A58*%
%TO.N,A58*%
X82500000Y-118250000D03*
%TO.P,CN6,59,A59*%
%TO.N,A59*%
X81500000Y-116250000D03*
%TO.P,CN6,60,A60*%
%TO.N,A60*%
X80500000Y-118250000D03*
%TO.P,CN6,61,A61*%
%TO.N,A61*%
X79500000Y-116250000D03*
%TO.P,CN6,62,A62*%
%TO.N,A62*%
X78500000Y-118250000D03*
%TO.P,CN6,63,A63*%
%TO.N,A63*%
X77500000Y-116250000D03*
%TO.P,CN6,64,A64*%
%TO.N,A64*%
X76500000Y-118250000D03*
%TO.P,CN6,65,A65*%
%TO.N,A65*%
X75500000Y-116250000D03*
%TO.P,CN6,66,A66*%
%TO.N,A66*%
X74500000Y-118250000D03*
%TO.P,CN6,67,A67*%
%TO.N,A67*%
X73500000Y-116250000D03*
%TO.P,CN6,68,A68*%
%TO.N,A68*%
X72500000Y-118250000D03*
%TO.P,CN6,69,A69*%
%TO.N,A69*%
X71500000Y-116250000D03*
%TO.P,CN6,70,A70*%
%TO.N,A70*%
X70500000Y-118250000D03*
%TO.P,CN6,71,A71*%
%TO.N,A71*%
X69500000Y-116250000D03*
%TO.P,CN6,72,A72*%
%TO.N,A72*%
X68500000Y-118250000D03*
%TO.P,CN6,73,A73*%
%TO.N,A73*%
X67500000Y-116250000D03*
%TO.P,CN6,74,A74*%
%TO.N,A74*%
X66500000Y-118250000D03*
%TO.P,CN6,75,A75*%
%TO.N,A75*%
X65500000Y-116250000D03*
%TO.P,CN6,76,A76*%
%TO.N,A76*%
X64500000Y-118250000D03*
%TO.P,CN6,77,A77*%
%TO.N,A77*%
X63500000Y-116250000D03*
%TO.P,CN6,78,A78*%
%TO.N,A78*%
X62500000Y-118250000D03*
%TO.P,CN6,79,A79*%
%TO.N,A79*%
X61500000Y-116250000D03*
%TO.P,CN6,80,A80*%
%TO.N,A80*%
X60500000Y-118250000D03*
%TO.P,CN6,81,A81*%
%TO.N,A81*%
X59500000Y-116250000D03*
%TO.P,CN6,82,A82*%
%TO.N,A82*%
X58500000Y-118250000D03*
%TO.P,CN6,83,B1*%
%TO.N,B1*%
X141500000Y-113750000D03*
%TO.P,CN6,84,B2*%
%TO.N,B2*%
X140500000Y-111750000D03*
%TO.P,CN6,85,B3*%
%TO.N,B3*%
X139500000Y-113750000D03*
%TO.P,CN6,86,B4*%
%TO.N,B4*%
X138500000Y-111750000D03*
%TO.P,CN6,87,B5*%
%TO.N,B5*%
X137500000Y-113750000D03*
%TO.P,CN6,88,B6*%
%TO.N,B6*%
X136500000Y-111750000D03*
%TO.P,CN6,89,B7*%
%TO.N,B7*%
X135500000Y-113750000D03*
%TO.P,CN6,90,B8*%
%TO.N,B8*%
X134500000Y-111750000D03*
%TO.P,CN6,91,B9*%
%TO.N,B9*%
X133500000Y-113750000D03*
%TO.P,CN6,92,B10*%
%TO.N,B10*%
X132500000Y-111750000D03*
%TO.P,CN6,93,B11*%
%TO.N,B11*%
X131500000Y-113750000D03*
%TO.P,CN6,94,B12*%
%TO.N,B12*%
X128500000Y-111750000D03*
%TO.P,CN6,95,B13*%
%TO.N,B13*%
X127500000Y-113750000D03*
%TO.P,CN6,96,B14*%
%TO.N,B14*%
X126500000Y-111750000D03*
%TO.P,CN6,97,B15*%
%TO.N,B15*%
X125500000Y-113750000D03*
%TO.P,CN6,98,B16*%
%TO.N,B16*%
X124500000Y-111750000D03*
%TO.P,CN6,99,B17*%
%TO.N,B17*%
X123500000Y-113750000D03*
%TO.P,CN6,100,B18*%
%TO.N,B18*%
X122500000Y-111750000D03*
%TO.P,CN6,101,B19*%
%TO.N,B19*%
X121500000Y-113750000D03*
%TO.P,CN6,102,B20*%
%TO.N,B20*%
X120500000Y-111750000D03*
%TO.P,CN6,103,B21*%
%TO.N,B21*%
X119500000Y-113750000D03*
%TO.P,CN6,104,B22*%
%TO.N,B22*%
X118500000Y-111750000D03*
%TO.P,CN6,105,B23*%
%TO.N,B23*%
X117500000Y-113750000D03*
%TO.P,CN6,106,B24*%
%TO.N,B24*%
X116500000Y-111750000D03*
%TO.P,CN6,107,B25*%
%TO.N,B25*%
X115500000Y-113750000D03*
%TO.P,CN6,108,B26*%
%TO.N,B26*%
X114500000Y-111750000D03*
%TO.P,CN6,109,B27*%
%TO.N,B27*%
X113500000Y-113750000D03*
%TO.P,CN6,110,B28*%
%TO.N,B28*%
X112500000Y-111750000D03*
%TO.P,CN6,111,B29*%
%TO.N,B29*%
X111500000Y-113750000D03*
%TO.P,CN6,112,B30*%
%TO.N,B30*%
X110500000Y-111750000D03*
%TO.P,CN6,113,B31*%
%TO.N,B31*%
X109500000Y-113750000D03*
%TO.P,CN6,114,B32*%
%TO.N,B32*%
X108500000Y-111750000D03*
%TO.P,CN6,115,B33*%
%TO.N,B33*%
X107500000Y-113750000D03*
%TO.P,CN6,116,B34*%
%TO.N,B34*%
X106500000Y-111750000D03*
%TO.P,CN6,117,B35*%
%TO.N,B35*%
X105500000Y-113750000D03*
%TO.P,CN6,118,B36*%
%TO.N,B36*%
X104500000Y-111750000D03*
%TO.P,CN6,119,B37*%
%TO.N,B37*%
X103500000Y-113750000D03*
%TO.P,CN6,120,B38*%
%TO.N,B38*%
X102500000Y-111750000D03*
%TO.P,CN6,121,B39*%
%TO.N,B39*%
X101500000Y-113750000D03*
%TO.P,CN6,122,B40*%
%TO.N,B40*%
X100500000Y-111750000D03*
%TO.P,CN6,123,B41*%
%TO.N,B41*%
X99500000Y-113750000D03*
%TO.P,CN6,124,B42*%
%TO.N,B42*%
X98500000Y-111750000D03*
%TO.P,CN6,125,B43*%
%TO.N,B43*%
X97500000Y-113750000D03*
%TO.P,CN6,126,B44*%
%TO.N,B44*%
X96500000Y-111750000D03*
%TO.P,CN6,127,B45*%
%TO.N,B45*%
X95500000Y-113750000D03*
%TO.P,CN6,128,B46*%
%TO.N,B46*%
X94500000Y-111750000D03*
%TO.P,CN6,129,B47*%
%TO.N,B47*%
X93500000Y-113750000D03*
%TO.P,CN6,130,B48*%
%TO.N,B48*%
X92500000Y-111750000D03*
%TO.P,CN6,131,B49*%
%TO.N,B49*%
X91500000Y-113750000D03*
%TO.P,CN6,132,B50*%
%TO.N,B50*%
X90500000Y-111750000D03*
%TO.P,CN6,133,B51*%
%TO.N,B51*%
X89500000Y-113750000D03*
%TO.P,CN6,134,B52*%
%TO.N,B52*%
X88500000Y-111750000D03*
%TO.P,CN6,135,B53*%
%TO.N,B53*%
X87500000Y-113750000D03*
%TO.P,CN6,136,B54*%
%TO.N,B54*%
X86500000Y-111750000D03*
%TO.P,CN6,137,B55*%
%TO.N,B55*%
X85500000Y-113750000D03*
%TO.P,CN6,138,B56*%
%TO.N,B56*%
X84500000Y-111750000D03*
%TO.P,CN6,139,B57*%
%TO.N,B57*%
X83500000Y-113750000D03*
%TO.P,CN6,140,B58*%
%TO.N,B58*%
X82500000Y-111750000D03*
%TO.P,CN6,141,B59*%
%TO.N,B59*%
X81500000Y-113750000D03*
%TO.P,CN6,142,B60*%
%TO.N,B60*%
X80500000Y-111750000D03*
%TO.P,CN6,143,B61*%
%TO.N,B61*%
X79500000Y-113750000D03*
%TO.P,CN6,144,B62*%
%TO.N,B62*%
X78500000Y-111750000D03*
%TO.P,CN6,145,B63*%
%TO.N,B63*%
X77500000Y-113750000D03*
%TO.P,CN6,146,B64*%
%TO.N,B64*%
X76500000Y-111750000D03*
%TO.P,CN6,147,B65*%
%TO.N,B65*%
X75500000Y-113750000D03*
%TO.P,CN6,148,B66*%
%TO.N,B66*%
X74500000Y-111750000D03*
%TO.P,CN6,149,B67*%
%TO.N,B67*%
X73500000Y-113750000D03*
%TO.P,CN6,150,B68*%
%TO.N,B68*%
X72500000Y-111750000D03*
%TO.P,CN6,151,B69*%
%TO.N,B69*%
X71500000Y-113750000D03*
%TO.P,CN6,152,B70*%
%TO.N,B70*%
X70500000Y-111750000D03*
%TO.P,CN6,153,B71*%
%TO.N,B71*%
X69500000Y-113750000D03*
%TO.P,CN6,154,B72*%
%TO.N,B72*%
X68500000Y-111750000D03*
%TO.P,CN6,155,B73*%
%TO.N,B73*%
X67500000Y-113750000D03*
%TO.P,CN6,156,B74*%
%TO.N,B74*%
X66500000Y-111750000D03*
%TO.P,CN6,157,B75*%
%TO.N,B75*%
X65500000Y-113750000D03*
%TO.P,CN6,158,B76*%
%TO.N,B76*%
X64500000Y-111750000D03*
%TO.P,CN6,159,B77*%
%TO.N,B77*%
X63500000Y-113750000D03*
%TO.P,CN6,160,B78*%
%TO.N,B78*%
X62500000Y-111750000D03*
%TO.P,CN6,161,B79*%
%TO.N,B79*%
X61500000Y-113750000D03*
%TO.P,CN6,162,B80*%
%TO.N,B80*%
X60500000Y-111750000D03*
%TO.P,CN6,163,B81*%
%TO.N,B81*%
X59500000Y-113750000D03*
%TO.P,CN6,164,B82*%
%TO.N,B82*%
X58500000Y-111750000D03*
%TD*%
D12*
%TO.P,CN7,*%
%TO.N,*%
X129850000Y-128000000D03*
X56700000Y-128000000D03*
D13*
%TO.P,CN7,1,A1*%
%TO.N,A1*%
X141500000Y-129250000D03*
%TO.P,CN7,2,A2*%
%TO.N,A2*%
X140500000Y-131250000D03*
%TO.P,CN7,3,A3*%
%TO.N,A3*%
X139500000Y-129250000D03*
%TO.P,CN7,4,A4*%
%TO.N,A4*%
X138500000Y-131250000D03*
%TO.P,CN7,5,A5*%
%TO.N,A5*%
X137500000Y-129250000D03*
%TO.P,CN7,6,A6*%
%TO.N,A6*%
X136500000Y-131250000D03*
%TO.P,CN7,7,A7*%
%TO.N,A7*%
X135500000Y-129250000D03*
%TO.P,CN7,8,A8*%
%TO.N,A8*%
X134500000Y-131250000D03*
%TO.P,CN7,9,A9*%
%TO.N,A9*%
X133500000Y-129250000D03*
%TO.P,CN7,10,A10*%
%TO.N,A10*%
X132500000Y-131250000D03*
%TO.P,CN7,11,A11*%
%TO.N,A11*%
X131500000Y-129250000D03*
%TO.P,CN7,12,A12*%
%TO.N,A12*%
X128500000Y-131250000D03*
%TO.P,CN7,13,A13*%
%TO.N,A13*%
X127500000Y-129250000D03*
%TO.P,CN7,14,A14*%
%TO.N,A14*%
X126500000Y-131250000D03*
%TO.P,CN7,15,A15*%
%TO.N,A15*%
X125500000Y-129250000D03*
%TO.P,CN7,16,A16*%
%TO.N,A16*%
X124500000Y-131250000D03*
%TO.P,CN7,17,A17*%
%TO.N,A17*%
X123500000Y-129250000D03*
%TO.P,CN7,18,A18*%
%TO.N,A18*%
X122500000Y-131250000D03*
%TO.P,CN7,19,A19*%
%TO.N,A19*%
X121500000Y-129250000D03*
%TO.P,CN7,20,A20*%
%TO.N,A20*%
X120500000Y-131250000D03*
%TO.P,CN7,21,A21*%
%TO.N,A21*%
X119500000Y-129250000D03*
%TO.P,CN7,22,A22*%
%TO.N,A22*%
X118500000Y-131250000D03*
%TO.P,CN7,23,A23*%
%TO.N,A23*%
X117500000Y-129250000D03*
%TO.P,CN7,24,A24*%
%TO.N,A24*%
X116500000Y-131250000D03*
%TO.P,CN7,25,A25*%
%TO.N,A25*%
X115500000Y-129250000D03*
%TO.P,CN7,26,A26*%
%TO.N,A26*%
X114500000Y-131250000D03*
%TO.P,CN7,27,A27*%
%TO.N,A27*%
X113500000Y-129250000D03*
%TO.P,CN7,28,A28*%
%TO.N,A28*%
X112500000Y-131250000D03*
%TO.P,CN7,29,A29*%
%TO.N,A29*%
X111500000Y-129250000D03*
%TO.P,CN7,30,A30*%
%TO.N,A30*%
X110500000Y-131250000D03*
%TO.P,CN7,31,A31*%
%TO.N,A31*%
X109500000Y-129250000D03*
%TO.P,CN7,32,A32*%
%TO.N,A32*%
X108500000Y-131250000D03*
%TO.P,CN7,33,A33*%
%TO.N,A33*%
X107500000Y-129250000D03*
%TO.P,CN7,34,A34*%
%TO.N,A34*%
X106500000Y-131250000D03*
%TO.P,CN7,35,A35*%
%TO.N,A35*%
X105500000Y-129250000D03*
%TO.P,CN7,36,A36*%
%TO.N,A36*%
X104500000Y-131250000D03*
%TO.P,CN7,37,A37*%
%TO.N,A37*%
X103500000Y-129250000D03*
%TO.P,CN7,38,A38*%
%TO.N,A38*%
X102500000Y-131250000D03*
%TO.P,CN7,39,A39*%
%TO.N,A39*%
X101500000Y-129250000D03*
%TO.P,CN7,40,A40*%
%TO.N,A40*%
X100500000Y-131250000D03*
%TO.P,CN7,41,A41*%
%TO.N,A41*%
X99500000Y-129250000D03*
%TO.P,CN7,42,A42*%
%TO.N,A42*%
X98500000Y-131250000D03*
%TO.P,CN7,43,A43*%
%TO.N,A43*%
X97500000Y-129250000D03*
%TO.P,CN7,44,A44*%
%TO.N,A44*%
X96500000Y-131250000D03*
%TO.P,CN7,45,A45*%
%TO.N,A45*%
X95500000Y-129250000D03*
%TO.P,CN7,46,A46*%
%TO.N,A46*%
X94500000Y-131250000D03*
%TO.P,CN7,47,A47*%
%TO.N,A47*%
X93500000Y-129250000D03*
%TO.P,CN7,48,A48*%
%TO.N,A48*%
X92500000Y-131250000D03*
%TO.P,CN7,49,A49*%
%TO.N,A49*%
X91500000Y-129250000D03*
%TO.P,CN7,50,A50*%
%TO.N,A50*%
X90500000Y-131250000D03*
%TO.P,CN7,51,A51*%
%TO.N,A51*%
X89500000Y-129250000D03*
%TO.P,CN7,52,A52*%
%TO.N,A52*%
X88500000Y-131250000D03*
%TO.P,CN7,53,A53*%
%TO.N,A53*%
X87500000Y-129250000D03*
%TO.P,CN7,54,A54*%
%TO.N,A54*%
X86500000Y-131250000D03*
%TO.P,CN7,55,A55*%
%TO.N,A55*%
X85500000Y-129250000D03*
%TO.P,CN7,56,A56*%
%TO.N,A56*%
X84500000Y-131250000D03*
%TO.P,CN7,57,A57*%
%TO.N,A57*%
X83500000Y-129250000D03*
%TO.P,CN7,58,A58*%
%TO.N,A58*%
X82500000Y-131250000D03*
%TO.P,CN7,59,A59*%
%TO.N,A59*%
X81500000Y-129250000D03*
%TO.P,CN7,60,A60*%
%TO.N,A60*%
X80500000Y-131250000D03*
%TO.P,CN7,61,A61*%
%TO.N,A61*%
X79500000Y-129250000D03*
%TO.P,CN7,62,A62*%
%TO.N,A62*%
X78500000Y-131250000D03*
%TO.P,CN7,63,A63*%
%TO.N,A63*%
X77500000Y-129250000D03*
%TO.P,CN7,64,A64*%
%TO.N,A64*%
X76500000Y-131250000D03*
%TO.P,CN7,65,A65*%
%TO.N,A65*%
X75500000Y-129250000D03*
%TO.P,CN7,66,A66*%
%TO.N,A66*%
X74500000Y-131250000D03*
%TO.P,CN7,67,A67*%
%TO.N,A67*%
X73500000Y-129250000D03*
%TO.P,CN7,68,A68*%
%TO.N,A68*%
X72500000Y-131250000D03*
%TO.P,CN7,69,A69*%
%TO.N,A69*%
X71500000Y-129250000D03*
%TO.P,CN7,70,A70*%
%TO.N,A70*%
X70500000Y-131250000D03*
%TO.P,CN7,71,A71*%
%TO.N,A71*%
X69500000Y-129250000D03*
%TO.P,CN7,72,A72*%
%TO.N,A72*%
X68500000Y-131250000D03*
%TO.P,CN7,73,A73*%
%TO.N,A73*%
X67500000Y-129250000D03*
%TO.P,CN7,74,A74*%
%TO.N,A74*%
X66500000Y-131250000D03*
%TO.P,CN7,75,A75*%
%TO.N,A75*%
X65500000Y-129250000D03*
%TO.P,CN7,76,A76*%
%TO.N,A76*%
X64500000Y-131250000D03*
%TO.P,CN7,77,A77*%
%TO.N,A77*%
X63500000Y-129250000D03*
%TO.P,CN7,78,A78*%
%TO.N,A78*%
X62500000Y-131250000D03*
%TO.P,CN7,79,A79*%
%TO.N,A79*%
X61500000Y-129250000D03*
%TO.P,CN7,80,A80*%
%TO.N,A80*%
X60500000Y-131250000D03*
%TO.P,CN7,81,A81*%
%TO.N,A81*%
X59500000Y-129250000D03*
%TO.P,CN7,82,A82*%
%TO.N,A82*%
X58500000Y-131250000D03*
%TO.P,CN7,83,B1*%
%TO.N,B1*%
X141500000Y-126750000D03*
%TO.P,CN7,84,B2*%
%TO.N,B2*%
X140500000Y-124750000D03*
%TO.P,CN7,85,B3*%
%TO.N,B3*%
X139500000Y-126750000D03*
%TO.P,CN7,86,B4*%
%TO.N,B4*%
X138500000Y-124750000D03*
%TO.P,CN7,87,B5*%
%TO.N,B5*%
X137500000Y-126750000D03*
%TO.P,CN7,88,B6*%
%TO.N,B6*%
X136500000Y-124750000D03*
%TO.P,CN7,89,B7*%
%TO.N,B7*%
X135500000Y-126750000D03*
%TO.P,CN7,90,B8*%
%TO.N,B8*%
X134500000Y-124750000D03*
%TO.P,CN7,91,B9*%
%TO.N,B9*%
X133500000Y-126750000D03*
%TO.P,CN7,92,B10*%
%TO.N,B10*%
X132500000Y-124750000D03*
%TO.P,CN7,93,B11*%
%TO.N,B11*%
X131500000Y-126750000D03*
%TO.P,CN7,94,B12*%
%TO.N,B12*%
X128500000Y-124750000D03*
%TO.P,CN7,95,B13*%
%TO.N,B13*%
X127500000Y-126750000D03*
%TO.P,CN7,96,B14*%
%TO.N,B14*%
X126500000Y-124750000D03*
%TO.P,CN7,97,B15*%
%TO.N,B15*%
X125500000Y-126750000D03*
%TO.P,CN7,98,B16*%
%TO.N,B16*%
X124500000Y-124750000D03*
%TO.P,CN7,99,B17*%
%TO.N,B17*%
X123500000Y-126750000D03*
%TO.P,CN7,100,B18*%
%TO.N,B18*%
X122500000Y-124750000D03*
%TO.P,CN7,101,B19*%
%TO.N,B19*%
X121500000Y-126750000D03*
%TO.P,CN7,102,B20*%
%TO.N,B20*%
X120500000Y-124750000D03*
%TO.P,CN7,103,B21*%
%TO.N,B21*%
X119500000Y-126750000D03*
%TO.P,CN7,104,B22*%
%TO.N,B22*%
X118500000Y-124750000D03*
%TO.P,CN7,105,B23*%
%TO.N,B23*%
X117500000Y-126750000D03*
%TO.P,CN7,106,B24*%
%TO.N,B24*%
X116500000Y-124750000D03*
%TO.P,CN7,107,B25*%
%TO.N,B25*%
X115500000Y-126750000D03*
%TO.P,CN7,108,B26*%
%TO.N,B26*%
X114500000Y-124750000D03*
%TO.P,CN7,109,B27*%
%TO.N,B27*%
X113500000Y-126750000D03*
%TO.P,CN7,110,B28*%
%TO.N,B28*%
X112500000Y-124750000D03*
%TO.P,CN7,111,B29*%
%TO.N,B29*%
X111500000Y-126750000D03*
%TO.P,CN7,112,B30*%
%TO.N,B30*%
X110500000Y-124750000D03*
%TO.P,CN7,113,B31*%
%TO.N,B31*%
X109500000Y-126750000D03*
%TO.P,CN7,114,B32*%
%TO.N,B32*%
X108500000Y-124750000D03*
%TO.P,CN7,115,B33*%
%TO.N,B33*%
X107500000Y-126750000D03*
%TO.P,CN7,116,B34*%
%TO.N,B34*%
X106500000Y-124750000D03*
%TO.P,CN7,117,B35*%
%TO.N,B35*%
X105500000Y-126750000D03*
%TO.P,CN7,118,B36*%
%TO.N,B36*%
X104500000Y-124750000D03*
%TO.P,CN7,119,B37*%
%TO.N,B37*%
X103500000Y-126750000D03*
%TO.P,CN7,120,B38*%
%TO.N,B38*%
X102500000Y-124750000D03*
%TO.P,CN7,121,B39*%
%TO.N,B39*%
X101500000Y-126750000D03*
%TO.P,CN7,122,B40*%
%TO.N,B40*%
X100500000Y-124750000D03*
%TO.P,CN7,123,B41*%
%TO.N,B41*%
X99500000Y-126750000D03*
%TO.P,CN7,124,B42*%
%TO.N,B42*%
X98500000Y-124750000D03*
%TO.P,CN7,125,B43*%
%TO.N,B43*%
X97500000Y-126750000D03*
%TO.P,CN7,126,B44*%
%TO.N,B44*%
X96500000Y-124750000D03*
%TO.P,CN7,127,B45*%
%TO.N,B45*%
X95500000Y-126750000D03*
%TO.P,CN7,128,B46*%
%TO.N,B46*%
X94500000Y-124750000D03*
%TO.P,CN7,129,B47*%
%TO.N,B47*%
X93500000Y-126750000D03*
%TO.P,CN7,130,B48*%
%TO.N,B48*%
X92500000Y-124750000D03*
%TO.P,CN7,131,B49*%
%TO.N,B49*%
X91500000Y-126750000D03*
%TO.P,CN7,132,B50*%
%TO.N,B50*%
X90500000Y-124750000D03*
%TO.P,CN7,133,B51*%
%TO.N,B51*%
X89500000Y-126750000D03*
%TO.P,CN7,134,B52*%
%TO.N,B52*%
X88500000Y-124750000D03*
%TO.P,CN7,135,B53*%
%TO.N,B53*%
X87500000Y-126750000D03*
%TO.P,CN7,136,B54*%
%TO.N,B54*%
X86500000Y-124750000D03*
%TO.P,CN7,137,B55*%
%TO.N,B55*%
X85500000Y-126750000D03*
%TO.P,CN7,138,B56*%
%TO.N,B56*%
X84500000Y-124750000D03*
%TO.P,CN7,139,B57*%
%TO.N,B57*%
X83500000Y-126750000D03*
%TO.P,CN7,140,B58*%
%TO.N,B58*%
X82500000Y-124750000D03*
%TO.P,CN7,141,B59*%
%TO.N,B59*%
X81500000Y-126750000D03*
%TO.P,CN7,142,B60*%
%TO.N,B60*%
X80500000Y-124750000D03*
%TO.P,CN7,143,B61*%
%TO.N,B61*%
X79500000Y-126750000D03*
%TO.P,CN7,144,B62*%
%TO.N,B62*%
X78500000Y-124750000D03*
%TO.P,CN7,145,B63*%
%TO.N,B63*%
X77500000Y-126750000D03*
%TO.P,CN7,146,B64*%
%TO.N,B64*%
X76500000Y-124750000D03*
%TO.P,CN7,147,B65*%
%TO.N,B65*%
X75500000Y-126750000D03*
%TO.P,CN7,148,B66*%
%TO.N,B66*%
X74500000Y-124750000D03*
%TO.P,CN7,149,B67*%
%TO.N,B67*%
X73500000Y-126750000D03*
%TO.P,CN7,150,B68*%
%TO.N,B68*%
X72500000Y-124750000D03*
%TO.P,CN7,151,B69*%
%TO.N,B69*%
X71500000Y-126750000D03*
%TO.P,CN7,152,B70*%
%TO.N,B70*%
X70500000Y-124750000D03*
%TO.P,CN7,153,B71*%
%TO.N,B71*%
X69500000Y-126750000D03*
%TO.P,CN7,154,B72*%
%TO.N,B72*%
X68500000Y-124750000D03*
%TO.P,CN7,155,B73*%
%TO.N,B73*%
X67500000Y-126750000D03*
%TO.P,CN7,156,B74*%
%TO.N,B74*%
X66500000Y-124750000D03*
%TO.P,CN7,157,B75*%
%TO.N,B75*%
X65500000Y-126750000D03*
%TO.P,CN7,158,B76*%
%TO.N,B76*%
X64500000Y-124750000D03*
%TO.P,CN7,159,B77*%
%TO.N,B77*%
X63500000Y-126750000D03*
%TO.P,CN7,160,B78*%
%TO.N,B78*%
X62500000Y-124750000D03*
%TO.P,CN7,161,B79*%
%TO.N,B79*%
X61500000Y-126750000D03*
%TO.P,CN7,162,B80*%
%TO.N,B80*%
X60500000Y-124750000D03*
%TO.P,CN7,163,B81*%
%TO.N,B81*%
X59500000Y-126750000D03*
%TO.P,CN7,164,B82*%
%TO.N,B82*%
X58500000Y-124750000D03*
%TD*%
D12*
%TO.P,CN5,*%
%TO.N,*%
X129850000Y-102000000D03*
X56700000Y-102000000D03*
D13*
%TO.P,CN5,1,A1*%
%TO.N,A1*%
X141500000Y-103250000D03*
%TO.P,CN5,2,A2*%
%TO.N,A2*%
X140500000Y-105250000D03*
%TO.P,CN5,3,A3*%
%TO.N,A3*%
X139500000Y-103250000D03*
%TO.P,CN5,4,A4*%
%TO.N,A4*%
X138500000Y-105250000D03*
%TO.P,CN5,5,A5*%
%TO.N,A5*%
X137500000Y-103250000D03*
%TO.P,CN5,6,A6*%
%TO.N,A6*%
X136500000Y-105250000D03*
%TO.P,CN5,7,A7*%
%TO.N,A7*%
X135500000Y-103250000D03*
%TO.P,CN5,8,A8*%
%TO.N,A8*%
X134500000Y-105250000D03*
%TO.P,CN5,9,A9*%
%TO.N,A9*%
X133500000Y-103250000D03*
%TO.P,CN5,10,A10*%
%TO.N,A10*%
X132500000Y-105250000D03*
%TO.P,CN5,11,A11*%
%TO.N,A11*%
X131500000Y-103250000D03*
%TO.P,CN5,12,A12*%
%TO.N,A12*%
X128500000Y-105250000D03*
%TO.P,CN5,13,A13*%
%TO.N,A13*%
X127500000Y-103250000D03*
%TO.P,CN5,14,A14*%
%TO.N,A14*%
X126500000Y-105250000D03*
%TO.P,CN5,15,A15*%
%TO.N,A15*%
X125500000Y-103250000D03*
%TO.P,CN5,16,A16*%
%TO.N,A16*%
X124500000Y-105250000D03*
%TO.P,CN5,17,A17*%
%TO.N,A17*%
X123500000Y-103250000D03*
%TO.P,CN5,18,A18*%
%TO.N,A18*%
X122500000Y-105250000D03*
%TO.P,CN5,19,A19*%
%TO.N,A19*%
X121500000Y-103250000D03*
%TO.P,CN5,20,A20*%
%TO.N,A20*%
X120500000Y-105250000D03*
%TO.P,CN5,21,A21*%
%TO.N,A21*%
X119500000Y-103250000D03*
%TO.P,CN5,22,A22*%
%TO.N,A22*%
X118500000Y-105250000D03*
%TO.P,CN5,23,A23*%
%TO.N,A23*%
X117500000Y-103250000D03*
%TO.P,CN5,24,A24*%
%TO.N,A24*%
X116500000Y-105250000D03*
%TO.P,CN5,25,A25*%
%TO.N,A25*%
X115500000Y-103250000D03*
%TO.P,CN5,26,A26*%
%TO.N,A26*%
X114500000Y-105250000D03*
%TO.P,CN5,27,A27*%
%TO.N,A27*%
X113500000Y-103250000D03*
%TO.P,CN5,28,A28*%
%TO.N,A28*%
X112500000Y-105250000D03*
%TO.P,CN5,29,A29*%
%TO.N,A29*%
X111500000Y-103250000D03*
%TO.P,CN5,30,A30*%
%TO.N,A30*%
X110500000Y-105250000D03*
%TO.P,CN5,31,A31*%
%TO.N,A31*%
X109500000Y-103250000D03*
%TO.P,CN5,32,A32*%
%TO.N,A32*%
X108500000Y-105250000D03*
%TO.P,CN5,33,A33*%
%TO.N,A33*%
X107500000Y-103250000D03*
%TO.P,CN5,34,A34*%
%TO.N,A34*%
X106500000Y-105250000D03*
%TO.P,CN5,35,A35*%
%TO.N,A35*%
X105500000Y-103250000D03*
%TO.P,CN5,36,A36*%
%TO.N,A36*%
X104500000Y-105250000D03*
%TO.P,CN5,37,A37*%
%TO.N,A37*%
X103500000Y-103250000D03*
%TO.P,CN5,38,A38*%
%TO.N,A38*%
X102500000Y-105250000D03*
%TO.P,CN5,39,A39*%
%TO.N,A39*%
X101500000Y-103250000D03*
%TO.P,CN5,40,A40*%
%TO.N,A40*%
X100500000Y-105250000D03*
%TO.P,CN5,41,A41*%
%TO.N,A41*%
X99500000Y-103250000D03*
%TO.P,CN5,42,A42*%
%TO.N,A42*%
X98500000Y-105250000D03*
%TO.P,CN5,43,A43*%
%TO.N,A43*%
X97500000Y-103250000D03*
%TO.P,CN5,44,A44*%
%TO.N,A44*%
X96500000Y-105250000D03*
%TO.P,CN5,45,A45*%
%TO.N,A45*%
X95500000Y-103250000D03*
%TO.P,CN5,46,A46*%
%TO.N,A46*%
X94500000Y-105250000D03*
%TO.P,CN5,47,A47*%
%TO.N,A47*%
X93500000Y-103250000D03*
%TO.P,CN5,48,A48*%
%TO.N,A48*%
X92500000Y-105250000D03*
%TO.P,CN5,49,A49*%
%TO.N,A49*%
X91500000Y-103250000D03*
%TO.P,CN5,50,A50*%
%TO.N,A50*%
X90500000Y-105250000D03*
%TO.P,CN5,51,A51*%
%TO.N,A51*%
X89500000Y-103250000D03*
%TO.P,CN5,52,A52*%
%TO.N,A52*%
X88500000Y-105250000D03*
%TO.P,CN5,53,A53*%
%TO.N,A53*%
X87500000Y-103250000D03*
%TO.P,CN5,54,A54*%
%TO.N,A54*%
X86500000Y-105250000D03*
%TO.P,CN5,55,A55*%
%TO.N,A55*%
X85500000Y-103250000D03*
%TO.P,CN5,56,A56*%
%TO.N,A56*%
X84500000Y-105250000D03*
%TO.P,CN5,57,A57*%
%TO.N,A57*%
X83500000Y-103250000D03*
%TO.P,CN5,58,A58*%
%TO.N,A58*%
X82500000Y-105250000D03*
%TO.P,CN5,59,A59*%
%TO.N,A59*%
X81500000Y-103250000D03*
%TO.P,CN5,60,A60*%
%TO.N,A60*%
X80500000Y-105250000D03*
%TO.P,CN5,61,A61*%
%TO.N,A61*%
X79500000Y-103250000D03*
%TO.P,CN5,62,A62*%
%TO.N,A62*%
X78500000Y-105250000D03*
%TO.P,CN5,63,A63*%
%TO.N,A63*%
X77500000Y-103250000D03*
%TO.P,CN5,64,A64*%
%TO.N,A64*%
X76500000Y-105250000D03*
%TO.P,CN5,65,A65*%
%TO.N,A65*%
X75500000Y-103250000D03*
%TO.P,CN5,66,A66*%
%TO.N,A66*%
X74500000Y-105250000D03*
%TO.P,CN5,67,A67*%
%TO.N,A67*%
X73500000Y-103250000D03*
%TO.P,CN5,68,A68*%
%TO.N,A68*%
X72500000Y-105250000D03*
%TO.P,CN5,69,A69*%
%TO.N,A69*%
X71500000Y-103250000D03*
%TO.P,CN5,70,A70*%
%TO.N,A70*%
X70500000Y-105250000D03*
%TO.P,CN5,71,A71*%
%TO.N,A71*%
X69500000Y-103250000D03*
%TO.P,CN5,72,A72*%
%TO.N,A72*%
X68500000Y-105250000D03*
%TO.P,CN5,73,A73*%
%TO.N,A73*%
X67500000Y-103250000D03*
%TO.P,CN5,74,A74*%
%TO.N,A74*%
X66500000Y-105250000D03*
%TO.P,CN5,75,A75*%
%TO.N,A75*%
X65500000Y-103250000D03*
%TO.P,CN5,76,A76*%
%TO.N,A76*%
X64500000Y-105250000D03*
%TO.P,CN5,77,A77*%
%TO.N,A77*%
X63500000Y-103250000D03*
%TO.P,CN5,78,A78*%
%TO.N,A78*%
X62500000Y-105250000D03*
%TO.P,CN5,79,A79*%
%TO.N,A79*%
X61500000Y-103250000D03*
%TO.P,CN5,80,A80*%
%TO.N,A80*%
X60500000Y-105250000D03*
%TO.P,CN5,81,A81*%
%TO.N,A81*%
X59500000Y-103250000D03*
%TO.P,CN5,82,A82*%
%TO.N,A82*%
X58500000Y-105250000D03*
%TO.P,CN5,83,B1*%
%TO.N,B1*%
X141500000Y-100750000D03*
%TO.P,CN5,84,B2*%
%TO.N,B2*%
X140500000Y-98750000D03*
%TO.P,CN5,85,B3*%
%TO.N,B3*%
X139500000Y-100750000D03*
%TO.P,CN5,86,B4*%
%TO.N,B4*%
X138500000Y-98750000D03*
%TO.P,CN5,87,B5*%
%TO.N,B5*%
X137500000Y-100750000D03*
%TO.P,CN5,88,B6*%
%TO.N,B6*%
X136500000Y-98750000D03*
%TO.P,CN5,89,B7*%
%TO.N,B7*%
X135500000Y-100750000D03*
%TO.P,CN5,90,B8*%
%TO.N,B8*%
X134500000Y-98750000D03*
%TO.P,CN5,91,B9*%
%TO.N,B9*%
X133500000Y-100750000D03*
%TO.P,CN5,92,B10*%
%TO.N,B10*%
X132500000Y-98750000D03*
%TO.P,CN5,93,B11*%
%TO.N,B11*%
X131500000Y-100750000D03*
%TO.P,CN5,94,B12*%
%TO.N,B12*%
X128500000Y-98750000D03*
%TO.P,CN5,95,B13*%
%TO.N,B13*%
X127500000Y-100750000D03*
%TO.P,CN5,96,B14*%
%TO.N,B14*%
X126500000Y-98750000D03*
%TO.P,CN5,97,B15*%
%TO.N,B15*%
X125500000Y-100750000D03*
%TO.P,CN5,98,B16*%
%TO.N,B16*%
X124500000Y-98750000D03*
%TO.P,CN5,99,B17*%
%TO.N,B17*%
X123500000Y-100750000D03*
%TO.P,CN5,100,B18*%
%TO.N,B18*%
X122500000Y-98750000D03*
%TO.P,CN5,101,B19*%
%TO.N,B19*%
X121500000Y-100750000D03*
%TO.P,CN5,102,B20*%
%TO.N,B20*%
X120500000Y-98750000D03*
%TO.P,CN5,103,B21*%
%TO.N,B21*%
X119500000Y-100750000D03*
%TO.P,CN5,104,B22*%
%TO.N,B22*%
X118500000Y-98750000D03*
%TO.P,CN5,105,B23*%
%TO.N,B23*%
X117500000Y-100750000D03*
%TO.P,CN5,106,B24*%
%TO.N,B24*%
X116500000Y-98750000D03*
%TO.P,CN5,107,B25*%
%TO.N,B25*%
X115500000Y-100750000D03*
%TO.P,CN5,108,B26*%
%TO.N,B26*%
X114500000Y-98750000D03*
%TO.P,CN5,109,B27*%
%TO.N,B27*%
X113500000Y-100750000D03*
%TO.P,CN5,110,B28*%
%TO.N,B28*%
X112500000Y-98750000D03*
%TO.P,CN5,111,B29*%
%TO.N,B29*%
X111500000Y-100750000D03*
%TO.P,CN5,112,B30*%
%TO.N,B30*%
X110500000Y-98750000D03*
%TO.P,CN5,113,B31*%
%TO.N,B31*%
X109500000Y-100750000D03*
%TO.P,CN5,114,B32*%
%TO.N,B32*%
X108500000Y-98750000D03*
%TO.P,CN5,115,B33*%
%TO.N,B33*%
X107500000Y-100750000D03*
%TO.P,CN5,116,B34*%
%TO.N,B34*%
X106500000Y-98750000D03*
%TO.P,CN5,117,B35*%
%TO.N,B35*%
X105500000Y-100750000D03*
%TO.P,CN5,118,B36*%
%TO.N,B36*%
X104500000Y-98750000D03*
%TO.P,CN5,119,B37*%
%TO.N,B37*%
X103500000Y-100750000D03*
%TO.P,CN5,120,B38*%
%TO.N,B38*%
X102500000Y-98750000D03*
%TO.P,CN5,121,B39*%
%TO.N,B39*%
X101500000Y-100750000D03*
%TO.P,CN5,122,B40*%
%TO.N,B40*%
X100500000Y-98750000D03*
%TO.P,CN5,123,B41*%
%TO.N,B41*%
X99500000Y-100750000D03*
%TO.P,CN5,124,B42*%
%TO.N,B42*%
X98500000Y-98750000D03*
%TO.P,CN5,125,B43*%
%TO.N,B43*%
X97500000Y-100750000D03*
%TO.P,CN5,126,B44*%
%TO.N,B44*%
X96500000Y-98750000D03*
%TO.P,CN5,127,B45*%
%TO.N,B45*%
X95500000Y-100750000D03*
%TO.P,CN5,128,B46*%
%TO.N,B46*%
X94500000Y-98750000D03*
%TO.P,CN5,129,B47*%
%TO.N,B47*%
X93500000Y-100750000D03*
%TO.P,CN5,130,B48*%
%TO.N,B48*%
X92500000Y-98750000D03*
%TO.P,CN5,131,B49*%
%TO.N,B49*%
X91500000Y-100750000D03*
%TO.P,CN5,132,B50*%
%TO.N,B50*%
X90500000Y-98750000D03*
%TO.P,CN5,133,B51*%
%TO.N,B51*%
X89500000Y-100750000D03*
%TO.P,CN5,134,B52*%
%TO.N,B52*%
X88500000Y-98750000D03*
%TO.P,CN5,135,B53*%
%TO.N,B53*%
X87500000Y-100750000D03*
%TO.P,CN5,136,B54*%
%TO.N,B54*%
X86500000Y-98750000D03*
%TO.P,CN5,137,B55*%
%TO.N,B55*%
X85500000Y-100750000D03*
%TO.P,CN5,138,B56*%
%TO.N,B56*%
X84500000Y-98750000D03*
%TO.P,CN5,139,B57*%
%TO.N,B57*%
X83500000Y-100750000D03*
%TO.P,CN5,140,B58*%
%TO.N,B58*%
X82500000Y-98750000D03*
%TO.P,CN5,141,B59*%
%TO.N,B59*%
X81500000Y-100750000D03*
%TO.P,CN5,142,B60*%
%TO.N,B60*%
X80500000Y-98750000D03*
%TO.P,CN5,143,B61*%
%TO.N,B61*%
X79500000Y-100750000D03*
%TO.P,CN5,144,B62*%
%TO.N,B62*%
X78500000Y-98750000D03*
%TO.P,CN5,145,B63*%
%TO.N,B63*%
X77500000Y-100750000D03*
%TO.P,CN5,146,B64*%
%TO.N,B64*%
X76500000Y-98750000D03*
%TO.P,CN5,147,B65*%
%TO.N,B65*%
X75500000Y-100750000D03*
%TO.P,CN5,148,B66*%
%TO.N,B66*%
X74500000Y-98750000D03*
%TO.P,CN5,149,B67*%
%TO.N,B67*%
X73500000Y-100750000D03*
%TO.P,CN5,150,B68*%
%TO.N,B68*%
X72500000Y-98750000D03*
%TO.P,CN5,151,B69*%
%TO.N,B69*%
X71500000Y-100750000D03*
%TO.P,CN5,152,B70*%
%TO.N,B70*%
X70500000Y-98750000D03*
%TO.P,CN5,153,B71*%
%TO.N,B71*%
X69500000Y-100750000D03*
%TO.P,CN5,154,B72*%
%TO.N,B72*%
X68500000Y-98750000D03*
%TO.P,CN5,155,B73*%
%TO.N,B73*%
X67500000Y-100750000D03*
%TO.P,CN5,156,B74*%
%TO.N,B74*%
X66500000Y-98750000D03*
%TO.P,CN5,157,B75*%
%TO.N,B75*%
X65500000Y-100750000D03*
%TO.P,CN5,158,B76*%
%TO.N,B76*%
X64500000Y-98750000D03*
%TO.P,CN5,159,B77*%
%TO.N,B77*%
X63500000Y-100750000D03*
%TO.P,CN5,160,B78*%
%TO.N,B78*%
X62500000Y-98750000D03*
%TO.P,CN5,161,B79*%
%TO.N,B79*%
X61500000Y-100750000D03*
%TO.P,CN5,162,B80*%
%TO.N,B80*%
X60500000Y-98750000D03*
%TO.P,CN5,163,B81*%
%TO.N,B81*%
X59500000Y-100750000D03*
%TO.P,CN5,164,B82*%
%TO.N,B82*%
X58500000Y-98750000D03*
%TD*%
D12*
%TO.P,CN1,*%
%TO.N,*%
X129850000Y-50000000D03*
X56700000Y-50000000D03*
D13*
%TO.P,CN1,1,A1*%
%TO.N,A1*%
X141500000Y-51250000D03*
%TO.P,CN1,2,A2*%
%TO.N,A2*%
X140500000Y-53250000D03*
%TO.P,CN1,3,A3*%
%TO.N,A3*%
X139500000Y-51250000D03*
%TO.P,CN1,4,A4*%
%TO.N,A4*%
X138500000Y-53250000D03*
%TO.P,CN1,5,A5*%
%TO.N,A5*%
X137500000Y-51250000D03*
%TO.P,CN1,6,A6*%
%TO.N,A6*%
X136500000Y-53250000D03*
%TO.P,CN1,7,A7*%
%TO.N,A7*%
X135500000Y-51250000D03*
%TO.P,CN1,8,A8*%
%TO.N,A8*%
X134500000Y-53250000D03*
%TO.P,CN1,9,A9*%
%TO.N,A9*%
X133500000Y-51250000D03*
%TO.P,CN1,10,A10*%
%TO.N,A10*%
X132500000Y-53250000D03*
%TO.P,CN1,11,A11*%
%TO.N,A11*%
X131500000Y-51250000D03*
%TO.P,CN1,12,A12*%
%TO.N,A12*%
X128500000Y-53250000D03*
%TO.P,CN1,13,A13*%
%TO.N,A13*%
X127500000Y-51250000D03*
%TO.P,CN1,14,A14*%
%TO.N,A14*%
X126500000Y-53250000D03*
%TO.P,CN1,15,A15*%
%TO.N,A15*%
X125500000Y-51250000D03*
%TO.P,CN1,16,A16*%
%TO.N,A16*%
X124500000Y-53250000D03*
%TO.P,CN1,17,A17*%
%TO.N,A17*%
X123500000Y-51250000D03*
%TO.P,CN1,18,A18*%
%TO.N,A18*%
X122500000Y-53250000D03*
%TO.P,CN1,19,A19*%
%TO.N,A19*%
X121500000Y-51250000D03*
%TO.P,CN1,20,A20*%
%TO.N,A20*%
X120500000Y-53250000D03*
%TO.P,CN1,21,A21*%
%TO.N,A21*%
X119500000Y-51250000D03*
%TO.P,CN1,22,A22*%
%TO.N,A22*%
X118500000Y-53250000D03*
%TO.P,CN1,23,A23*%
%TO.N,A23*%
X117500000Y-51250000D03*
%TO.P,CN1,24,A24*%
%TO.N,A24*%
X116500000Y-53250000D03*
%TO.P,CN1,25,A25*%
%TO.N,A25*%
X115500000Y-51250000D03*
%TO.P,CN1,26,A26*%
%TO.N,A26*%
X114500000Y-53250000D03*
%TO.P,CN1,27,A27*%
%TO.N,A27*%
X113500000Y-51250000D03*
%TO.P,CN1,28,A28*%
%TO.N,A28*%
X112500000Y-53250000D03*
%TO.P,CN1,29,A29*%
%TO.N,A29*%
X111500000Y-51250000D03*
%TO.P,CN1,30,A30*%
%TO.N,A30*%
X110500000Y-53250000D03*
%TO.P,CN1,31,A31*%
%TO.N,A31*%
X109500000Y-51250000D03*
%TO.P,CN1,32,A32*%
%TO.N,A32*%
X108500000Y-53250000D03*
%TO.P,CN1,33,A33*%
%TO.N,A33*%
X107500000Y-51250000D03*
%TO.P,CN1,34,A34*%
%TO.N,A34*%
X106500000Y-53250000D03*
%TO.P,CN1,35,A35*%
%TO.N,A35*%
X105500000Y-51250000D03*
%TO.P,CN1,36,A36*%
%TO.N,A36*%
X104500000Y-53250000D03*
%TO.P,CN1,37,A37*%
%TO.N,A37*%
X103500000Y-51250000D03*
%TO.P,CN1,38,A38*%
%TO.N,A38*%
X102500000Y-53250000D03*
%TO.P,CN1,39,A39*%
%TO.N,A39*%
X101500000Y-51250000D03*
%TO.P,CN1,40,A40*%
%TO.N,A40*%
X100500000Y-53250000D03*
%TO.P,CN1,41,A41*%
%TO.N,A41*%
X99500000Y-51250000D03*
%TO.P,CN1,42,A42*%
%TO.N,A42*%
X98500000Y-53250000D03*
%TO.P,CN1,43,A43*%
%TO.N,A43*%
X97500000Y-51250000D03*
%TO.P,CN1,44,A44*%
%TO.N,A44*%
X96500000Y-53250000D03*
%TO.P,CN1,45,A45*%
%TO.N,A45*%
X95500000Y-51250000D03*
%TO.P,CN1,46,A46*%
%TO.N,A46*%
X94500000Y-53250000D03*
%TO.P,CN1,47,A47*%
%TO.N,A47*%
X93500000Y-51250000D03*
%TO.P,CN1,48,A48*%
%TO.N,A48*%
X92500000Y-53250000D03*
%TO.P,CN1,49,A49*%
%TO.N,A49*%
X91500000Y-51250000D03*
%TO.P,CN1,50,A50*%
%TO.N,A50*%
X90500000Y-53250000D03*
%TO.P,CN1,51,A51*%
%TO.N,A51*%
X89500000Y-51250000D03*
%TO.P,CN1,52,A52*%
%TO.N,A52*%
X88500000Y-53250000D03*
%TO.P,CN1,53,A53*%
%TO.N,A53*%
X87500000Y-51250000D03*
%TO.P,CN1,54,A54*%
%TO.N,A54*%
X86500000Y-53250000D03*
%TO.P,CN1,55,A55*%
%TO.N,A55*%
X85500000Y-51250000D03*
%TO.P,CN1,56,A56*%
%TO.N,A56*%
X84500000Y-53250000D03*
%TO.P,CN1,57,A57*%
%TO.N,A57*%
X83500000Y-51250000D03*
%TO.P,CN1,58,A58*%
%TO.N,A58*%
X82500000Y-53250000D03*
%TO.P,CN1,59,A59*%
%TO.N,A59*%
X81500000Y-51250000D03*
%TO.P,CN1,60,A60*%
%TO.N,A60*%
X80500000Y-53250000D03*
%TO.P,CN1,61,A61*%
%TO.N,A61*%
X79500000Y-51250000D03*
%TO.P,CN1,62,A62*%
%TO.N,A62*%
X78500000Y-53250000D03*
%TO.P,CN1,63,A63*%
%TO.N,A63*%
X77500000Y-51250000D03*
%TO.P,CN1,64,A64*%
%TO.N,A64*%
X76500000Y-53250000D03*
%TO.P,CN1,65,A65*%
%TO.N,A65*%
X75500000Y-51250000D03*
%TO.P,CN1,66,A66*%
%TO.N,A66*%
X74500000Y-53250000D03*
%TO.P,CN1,67,A67*%
%TO.N,A67*%
X73500000Y-51250000D03*
%TO.P,CN1,68,A68*%
%TO.N,A68*%
X72500000Y-53250000D03*
%TO.P,CN1,69,A69*%
%TO.N,A69*%
X71500000Y-51250000D03*
%TO.P,CN1,70,A70*%
%TO.N,A70*%
X70500000Y-53250000D03*
%TO.P,CN1,71,A71*%
%TO.N,A71*%
X69500000Y-51250000D03*
%TO.P,CN1,72,A72*%
%TO.N,A72*%
X68500000Y-53250000D03*
%TO.P,CN1,73,A73*%
%TO.N,A73*%
X67500000Y-51250000D03*
%TO.P,CN1,74,A74*%
%TO.N,A74*%
X66500000Y-53250000D03*
%TO.P,CN1,75,A75*%
%TO.N,A75*%
X65500000Y-51250000D03*
%TO.P,CN1,76,A76*%
%TO.N,A76*%
X64500000Y-53250000D03*
%TO.P,CN1,77,A77*%
%TO.N,A77*%
X63500000Y-51250000D03*
%TO.P,CN1,78,A78*%
%TO.N,A78*%
X62500000Y-53250000D03*
%TO.P,CN1,79,A79*%
%TO.N,A79*%
X61500000Y-51250000D03*
%TO.P,CN1,80,A80*%
%TO.N,A80*%
X60500000Y-53250000D03*
%TO.P,CN1,81,A81*%
%TO.N,A81*%
X59500000Y-51250000D03*
%TO.P,CN1,82,A82*%
%TO.N,A82*%
X58500000Y-53250000D03*
%TO.P,CN1,83,B1*%
%TO.N,B1*%
X141500000Y-48750000D03*
%TO.P,CN1,84,B2*%
%TO.N,B2*%
X140500000Y-46750000D03*
%TO.P,CN1,85,B3*%
%TO.N,B3*%
X139500000Y-48750000D03*
%TO.P,CN1,86,B4*%
%TO.N,B4*%
X138500000Y-46750000D03*
%TO.P,CN1,87,B5*%
%TO.N,B5*%
X137500000Y-48750000D03*
%TO.P,CN1,88,B6*%
%TO.N,B6*%
X136500000Y-46750000D03*
%TO.P,CN1,89,B7*%
%TO.N,B7*%
X135500000Y-48750000D03*
%TO.P,CN1,90,B8*%
%TO.N,B8*%
X134500000Y-46750000D03*
%TO.P,CN1,91,B9*%
%TO.N,B9*%
X133500000Y-48750000D03*
%TO.P,CN1,92,B10*%
%TO.N,B10*%
X132500000Y-46750000D03*
%TO.P,CN1,93,B11*%
%TO.N,B11*%
X131500000Y-48750000D03*
%TO.P,CN1,94,B12*%
%TO.N,B12*%
X128500000Y-46750000D03*
%TO.P,CN1,95,B13*%
%TO.N,B13*%
X127500000Y-48750000D03*
%TO.P,CN1,96,B14*%
%TO.N,B14*%
X126500000Y-46750000D03*
%TO.P,CN1,97,B15*%
%TO.N,B15*%
X125500000Y-48750000D03*
%TO.P,CN1,98,B16*%
%TO.N,B16*%
X124500000Y-46750000D03*
%TO.P,CN1,99,B17*%
%TO.N,B17*%
X123500000Y-48750000D03*
%TO.P,CN1,100,B18*%
%TO.N,B18*%
X122500000Y-46750000D03*
%TO.P,CN1,101,B19*%
%TO.N,B19*%
X121500000Y-48750000D03*
%TO.P,CN1,102,B20*%
%TO.N,B20*%
X120500000Y-46750000D03*
%TO.P,CN1,103,B21*%
%TO.N,B21*%
X119500000Y-48750000D03*
%TO.P,CN1,104,B22*%
%TO.N,B22*%
X118500000Y-46750000D03*
%TO.P,CN1,105,B23*%
%TO.N,B23*%
X117500000Y-48750000D03*
%TO.P,CN1,106,B24*%
%TO.N,B24*%
X116500000Y-46750000D03*
%TO.P,CN1,107,B25*%
%TO.N,B25*%
X115500000Y-48750000D03*
%TO.P,CN1,108,B26*%
%TO.N,B26*%
X114500000Y-46750000D03*
%TO.P,CN1,109,B27*%
%TO.N,B27*%
X113500000Y-48750000D03*
%TO.P,CN1,110,B28*%
%TO.N,B28*%
X112500000Y-46750000D03*
%TO.P,CN1,111,B29*%
%TO.N,B29*%
X111500000Y-48750000D03*
%TO.P,CN1,112,B30*%
%TO.N,B30*%
X110500000Y-46750000D03*
%TO.P,CN1,113,B31*%
%TO.N,B31*%
X109500000Y-48750000D03*
%TO.P,CN1,114,B32*%
%TO.N,B32*%
X108500000Y-46750000D03*
%TO.P,CN1,115,B33*%
%TO.N,B33*%
X107500000Y-48750000D03*
%TO.P,CN1,116,B34*%
%TO.N,B34*%
X106500000Y-46750000D03*
%TO.P,CN1,117,B35*%
%TO.N,B35*%
X105500000Y-48750000D03*
%TO.P,CN1,118,B36*%
%TO.N,B36*%
X104500000Y-46750000D03*
%TO.P,CN1,119,B37*%
%TO.N,B37*%
X103500000Y-48750000D03*
%TO.P,CN1,120,B38*%
%TO.N,B38*%
X102500000Y-46750000D03*
%TO.P,CN1,121,B39*%
%TO.N,B39*%
X101500000Y-48750000D03*
%TO.P,CN1,122,B40*%
%TO.N,B40*%
X100500000Y-46750000D03*
%TO.P,CN1,123,B41*%
%TO.N,B41*%
X99500000Y-48750000D03*
%TO.P,CN1,124,B42*%
%TO.N,B42*%
X98500000Y-46750000D03*
%TO.P,CN1,125,B43*%
%TO.N,B43*%
X97500000Y-48750000D03*
%TO.P,CN1,126,B44*%
%TO.N,B44*%
X96500000Y-46750000D03*
%TO.P,CN1,127,B45*%
%TO.N,B45*%
X95500000Y-48750000D03*
%TO.P,CN1,128,B46*%
%TO.N,B46*%
X94500000Y-46750000D03*
%TO.P,CN1,129,B47*%
%TO.N,B47*%
X93500000Y-48750000D03*
%TO.P,CN1,130,B48*%
%TO.N,B48*%
X92500000Y-46750000D03*
%TO.P,CN1,131,B49*%
%TO.N,B49*%
X91500000Y-48750000D03*
%TO.P,CN1,132,B50*%
%TO.N,B50*%
X90500000Y-46750000D03*
%TO.P,CN1,133,B51*%
%TO.N,B51*%
X89500000Y-48750000D03*
%TO.P,CN1,134,B52*%
%TO.N,B52*%
X88500000Y-46750000D03*
%TO.P,CN1,135,B53*%
%TO.N,B53*%
X87500000Y-48750000D03*
%TO.P,CN1,136,B54*%
%TO.N,B54*%
X86500000Y-46750000D03*
%TO.P,CN1,137,B55*%
%TO.N,B55*%
X85500000Y-48750000D03*
%TO.P,CN1,138,B56*%
%TO.N,B56*%
X84500000Y-46750000D03*
%TO.P,CN1,139,B57*%
%TO.N,B57*%
X83500000Y-48750000D03*
%TO.P,CN1,140,B58*%
%TO.N,B58*%
X82500000Y-46750000D03*
%TO.P,CN1,141,B59*%
%TO.N,B59*%
X81500000Y-48750000D03*
%TO.P,CN1,142,B60*%
%TO.N,B60*%
X80500000Y-46750000D03*
%TO.P,CN1,143,B61*%
%TO.N,B61*%
X79500000Y-48750000D03*
%TO.P,CN1,144,B62*%
%TO.N,B62*%
X78500000Y-46750000D03*
%TO.P,CN1,145,B63*%
%TO.N,B63*%
X77500000Y-48750000D03*
%TO.P,CN1,146,B64*%
%TO.N,B64*%
X76500000Y-46750000D03*
%TO.P,CN1,147,B65*%
%TO.N,B65*%
X75500000Y-48750000D03*
%TO.P,CN1,148,B66*%
%TO.N,B66*%
X74500000Y-46750000D03*
%TO.P,CN1,149,B67*%
%TO.N,B67*%
X73500000Y-48750000D03*
%TO.P,CN1,150,B68*%
%TO.N,B68*%
X72500000Y-46750000D03*
%TO.P,CN1,151,B69*%
%TO.N,B69*%
X71500000Y-48750000D03*
%TO.P,CN1,152,B70*%
%TO.N,B70*%
X70500000Y-46750000D03*
%TO.P,CN1,153,B71*%
%TO.N,B71*%
X69500000Y-48750000D03*
%TO.P,CN1,154,B72*%
%TO.N,B72*%
X68500000Y-46750000D03*
%TO.P,CN1,155,B73*%
%TO.N,B73*%
X67500000Y-48750000D03*
%TO.P,CN1,156,B74*%
%TO.N,B74*%
X66500000Y-46750000D03*
%TO.P,CN1,157,B75*%
%TO.N,B75*%
X65500000Y-48750000D03*
%TO.P,CN1,158,B76*%
%TO.N,B76*%
X64500000Y-46750000D03*
%TO.P,CN1,159,B77*%
%TO.N,B77*%
X63500000Y-48750000D03*
%TO.P,CN1,160,B78*%
%TO.N,B78*%
X62500000Y-46750000D03*
%TO.P,CN1,161,B79*%
%TO.N,B79*%
X61500000Y-48750000D03*
%TO.P,CN1,162,B80*%
%TO.N,B80*%
X60500000Y-46750000D03*
%TO.P,CN1,163,B81*%
%TO.N,B81*%
X59500000Y-48750000D03*
%TO.P,CN1,164,B82*%
%TO.N,B82*%
X58500000Y-46750000D03*
%TD*%
D10*
%TO.P,H4,1*%
%TO.N,N/C*%
X144600000Y-95552944D03*
X145302944Y-93855888D03*
X145302944Y-97250000D03*
X147000000Y-93152944D03*
D11*
X147000000Y-95552944D03*
D10*
X147000000Y-97952944D03*
X148697056Y-93855888D03*
X148697056Y-97250000D03*
X149400000Y-95552944D03*
%TD*%
D12*
%TO.P,CN4,*%
%TO.N,*%
X129850000Y-89000000D03*
X56700000Y-89000000D03*
D13*
%TO.P,CN4,1,A1*%
%TO.N,A1*%
X141500000Y-90250000D03*
%TO.P,CN4,2,A2*%
%TO.N,A2*%
X140500000Y-92250000D03*
%TO.P,CN4,3,A3*%
%TO.N,A3*%
X139500000Y-90250000D03*
%TO.P,CN4,4,A4*%
%TO.N,A4*%
X138500000Y-92250000D03*
%TO.P,CN4,5,A5*%
%TO.N,A5*%
X137500000Y-90250000D03*
%TO.P,CN4,6,A6*%
%TO.N,A6*%
X136500000Y-92250000D03*
%TO.P,CN4,7,A7*%
%TO.N,A7*%
X135500000Y-90250000D03*
%TO.P,CN4,8,A8*%
%TO.N,A8*%
X134500000Y-92250000D03*
%TO.P,CN4,9,A9*%
%TO.N,A9*%
X133500000Y-90250000D03*
%TO.P,CN4,10,A10*%
%TO.N,A10*%
X132500000Y-92250000D03*
%TO.P,CN4,11,A11*%
%TO.N,A11*%
X131500000Y-90250000D03*
%TO.P,CN4,12,A12*%
%TO.N,A12*%
X128500000Y-92250000D03*
%TO.P,CN4,13,A13*%
%TO.N,A13*%
X127500000Y-90250000D03*
%TO.P,CN4,14,A14*%
%TO.N,A14*%
X126500000Y-92250000D03*
%TO.P,CN4,15,A15*%
%TO.N,A15*%
X125500000Y-90250000D03*
%TO.P,CN4,16,A16*%
%TO.N,A16*%
X124500000Y-92250000D03*
%TO.P,CN4,17,A17*%
%TO.N,A17*%
X123500000Y-90250000D03*
%TO.P,CN4,18,A18*%
%TO.N,A18*%
X122500000Y-92250000D03*
%TO.P,CN4,19,A19*%
%TO.N,A19*%
X121500000Y-90250000D03*
%TO.P,CN4,20,A20*%
%TO.N,A20*%
X120500000Y-92250000D03*
%TO.P,CN4,21,A21*%
%TO.N,A21*%
X119500000Y-90250000D03*
%TO.P,CN4,22,A22*%
%TO.N,A22*%
X118500000Y-92250000D03*
%TO.P,CN4,23,A23*%
%TO.N,A23*%
X117500000Y-90250000D03*
%TO.P,CN4,24,A24*%
%TO.N,A24*%
X116500000Y-92250000D03*
%TO.P,CN4,25,A25*%
%TO.N,A25*%
X115500000Y-90250000D03*
%TO.P,CN4,26,A26*%
%TO.N,A26*%
X114500000Y-92250000D03*
%TO.P,CN4,27,A27*%
%TO.N,A27*%
X113500000Y-90250000D03*
%TO.P,CN4,28,A28*%
%TO.N,A28*%
X112500000Y-92250000D03*
%TO.P,CN4,29,A29*%
%TO.N,A29*%
X111500000Y-90250000D03*
%TO.P,CN4,30,A30*%
%TO.N,A30*%
X110500000Y-92250000D03*
%TO.P,CN4,31,A31*%
%TO.N,A31*%
X109500000Y-90250000D03*
%TO.P,CN4,32,A32*%
%TO.N,A32*%
X108500000Y-92250000D03*
%TO.P,CN4,33,A33*%
%TO.N,A33*%
X107500000Y-90250000D03*
%TO.P,CN4,34,A34*%
%TO.N,A34*%
X106500000Y-92250000D03*
%TO.P,CN4,35,A35*%
%TO.N,A35*%
X105500000Y-90250000D03*
%TO.P,CN4,36,A36*%
%TO.N,A36*%
X104500000Y-92250000D03*
%TO.P,CN4,37,A37*%
%TO.N,A37*%
X103500000Y-90250000D03*
%TO.P,CN4,38,A38*%
%TO.N,A38*%
X102500000Y-92250000D03*
%TO.P,CN4,39,A39*%
%TO.N,A39*%
X101500000Y-90250000D03*
%TO.P,CN4,40,A40*%
%TO.N,A40*%
X100500000Y-92250000D03*
%TO.P,CN4,41,A41*%
%TO.N,A41*%
X99500000Y-90250000D03*
%TO.P,CN4,42,A42*%
%TO.N,A42*%
X98500000Y-92250000D03*
%TO.P,CN4,43,A43*%
%TO.N,A43*%
X97500000Y-90250000D03*
%TO.P,CN4,44,A44*%
%TO.N,A44*%
X96500000Y-92250000D03*
%TO.P,CN4,45,A45*%
%TO.N,A45*%
X95500000Y-90250000D03*
%TO.P,CN4,46,A46*%
%TO.N,A46*%
X94500000Y-92250000D03*
%TO.P,CN4,47,A47*%
%TO.N,A47*%
X93500000Y-90250000D03*
%TO.P,CN4,48,A48*%
%TO.N,A48*%
X92500000Y-92250000D03*
%TO.P,CN4,49,A49*%
%TO.N,A49*%
X91500000Y-90250000D03*
%TO.P,CN4,50,A50*%
%TO.N,A50*%
X90500000Y-92250000D03*
%TO.P,CN4,51,A51*%
%TO.N,A51*%
X89500000Y-90250000D03*
%TO.P,CN4,52,A52*%
%TO.N,A52*%
X88500000Y-92250000D03*
%TO.P,CN4,53,A53*%
%TO.N,A53*%
X87500000Y-90250000D03*
%TO.P,CN4,54,A54*%
%TO.N,A54*%
X86500000Y-92250000D03*
%TO.P,CN4,55,A55*%
%TO.N,A55*%
X85500000Y-90250000D03*
%TO.P,CN4,56,A56*%
%TO.N,A56*%
X84500000Y-92250000D03*
%TO.P,CN4,57,A57*%
%TO.N,A57*%
X83500000Y-90250000D03*
%TO.P,CN4,58,A58*%
%TO.N,A58*%
X82500000Y-92250000D03*
%TO.P,CN4,59,A59*%
%TO.N,A59*%
X81500000Y-90250000D03*
%TO.P,CN4,60,A60*%
%TO.N,A60*%
X80500000Y-92250000D03*
%TO.P,CN4,61,A61*%
%TO.N,A61*%
X79500000Y-90250000D03*
%TO.P,CN4,62,A62*%
%TO.N,A62*%
X78500000Y-92250000D03*
%TO.P,CN4,63,A63*%
%TO.N,A63*%
X77500000Y-90250000D03*
%TO.P,CN4,64,A64*%
%TO.N,A64*%
X76500000Y-92250000D03*
%TO.P,CN4,65,A65*%
%TO.N,A65*%
X75500000Y-90250000D03*
%TO.P,CN4,66,A66*%
%TO.N,A66*%
X74500000Y-92250000D03*
%TO.P,CN4,67,A67*%
%TO.N,A67*%
X73500000Y-90250000D03*
%TO.P,CN4,68,A68*%
%TO.N,A68*%
X72500000Y-92250000D03*
%TO.P,CN4,69,A69*%
%TO.N,A69*%
X71500000Y-90250000D03*
%TO.P,CN4,70,A70*%
%TO.N,A70*%
X70500000Y-92250000D03*
%TO.P,CN4,71,A71*%
%TO.N,A71*%
X69500000Y-90250000D03*
%TO.P,CN4,72,A72*%
%TO.N,A72*%
X68500000Y-92250000D03*
%TO.P,CN4,73,A73*%
%TO.N,A73*%
X67500000Y-90250000D03*
%TO.P,CN4,74,A74*%
%TO.N,A74*%
X66500000Y-92250000D03*
%TO.P,CN4,75,A75*%
%TO.N,A75*%
X65500000Y-90250000D03*
%TO.P,CN4,76,A76*%
%TO.N,A76*%
X64500000Y-92250000D03*
%TO.P,CN4,77,A77*%
%TO.N,A77*%
X63500000Y-90250000D03*
%TO.P,CN4,78,A78*%
%TO.N,A78*%
X62500000Y-92250000D03*
%TO.P,CN4,79,A79*%
%TO.N,A79*%
X61500000Y-90250000D03*
%TO.P,CN4,80,A80*%
%TO.N,A80*%
X60500000Y-92250000D03*
%TO.P,CN4,81,A81*%
%TO.N,A81*%
X59500000Y-90250000D03*
%TO.P,CN4,82,A82*%
%TO.N,A82*%
X58500000Y-92250000D03*
%TO.P,CN4,83,B1*%
%TO.N,B1*%
X141500000Y-87750000D03*
%TO.P,CN4,84,B2*%
%TO.N,B2*%
X140500000Y-85750000D03*
%TO.P,CN4,85,B3*%
%TO.N,B3*%
X139500000Y-87750000D03*
%TO.P,CN4,86,B4*%
%TO.N,B4*%
X138500000Y-85750000D03*
%TO.P,CN4,87,B5*%
%TO.N,B5*%
X137500000Y-87750000D03*
%TO.P,CN4,88,B6*%
%TO.N,B6*%
X136500000Y-85750000D03*
%TO.P,CN4,89,B7*%
%TO.N,B7*%
X135500000Y-87750000D03*
%TO.P,CN4,90,B8*%
%TO.N,B8*%
X134500000Y-85750000D03*
%TO.P,CN4,91,B9*%
%TO.N,B9*%
X133500000Y-87750000D03*
%TO.P,CN4,92,B10*%
%TO.N,B10*%
X132500000Y-85750000D03*
%TO.P,CN4,93,B11*%
%TO.N,B11*%
X131500000Y-87750000D03*
%TO.P,CN4,94,B12*%
%TO.N,B12*%
X128500000Y-85750000D03*
%TO.P,CN4,95,B13*%
%TO.N,B13*%
X127500000Y-87750000D03*
%TO.P,CN4,96,B14*%
%TO.N,B14*%
X126500000Y-85750000D03*
%TO.P,CN4,97,B15*%
%TO.N,B15*%
X125500000Y-87750000D03*
%TO.P,CN4,98,B16*%
%TO.N,B16*%
X124500000Y-85750000D03*
%TO.P,CN4,99,B17*%
%TO.N,B17*%
X123500000Y-87750000D03*
%TO.P,CN4,100,B18*%
%TO.N,B18*%
X122500000Y-85750000D03*
%TO.P,CN4,101,B19*%
%TO.N,B19*%
X121500000Y-87750000D03*
%TO.P,CN4,102,B20*%
%TO.N,B20*%
X120500000Y-85750000D03*
%TO.P,CN4,103,B21*%
%TO.N,B21*%
X119500000Y-87750000D03*
%TO.P,CN4,104,B22*%
%TO.N,B22*%
X118500000Y-85750000D03*
%TO.P,CN4,105,B23*%
%TO.N,B23*%
X117500000Y-87750000D03*
%TO.P,CN4,106,B24*%
%TO.N,B24*%
X116500000Y-85750000D03*
%TO.P,CN4,107,B25*%
%TO.N,B25*%
X115500000Y-87750000D03*
%TO.P,CN4,108,B26*%
%TO.N,B26*%
X114500000Y-85750000D03*
%TO.P,CN4,109,B27*%
%TO.N,B27*%
X113500000Y-87750000D03*
%TO.P,CN4,110,B28*%
%TO.N,B28*%
X112500000Y-85750000D03*
%TO.P,CN4,111,B29*%
%TO.N,B29*%
X111500000Y-87750000D03*
%TO.P,CN4,112,B30*%
%TO.N,B30*%
X110500000Y-85750000D03*
%TO.P,CN4,113,B31*%
%TO.N,B31*%
X109500000Y-87750000D03*
%TO.P,CN4,114,B32*%
%TO.N,B32*%
X108500000Y-85750000D03*
%TO.P,CN4,115,B33*%
%TO.N,B33*%
X107500000Y-87750000D03*
%TO.P,CN4,116,B34*%
%TO.N,B34*%
X106500000Y-85750000D03*
%TO.P,CN4,117,B35*%
%TO.N,B35*%
X105500000Y-87750000D03*
%TO.P,CN4,118,B36*%
%TO.N,B36*%
X104500000Y-85750000D03*
%TO.P,CN4,119,B37*%
%TO.N,B37*%
X103500000Y-87750000D03*
%TO.P,CN4,120,B38*%
%TO.N,B38*%
X102500000Y-85750000D03*
%TO.P,CN4,121,B39*%
%TO.N,B39*%
X101500000Y-87750000D03*
%TO.P,CN4,122,B40*%
%TO.N,B40*%
X100500000Y-85750000D03*
%TO.P,CN4,123,B41*%
%TO.N,B41*%
X99500000Y-87750000D03*
%TO.P,CN4,124,B42*%
%TO.N,B42*%
X98500000Y-85750000D03*
%TO.P,CN4,125,B43*%
%TO.N,B43*%
X97500000Y-87750000D03*
%TO.P,CN4,126,B44*%
%TO.N,B44*%
X96500000Y-85750000D03*
%TO.P,CN4,127,B45*%
%TO.N,B45*%
X95500000Y-87750000D03*
%TO.P,CN4,128,B46*%
%TO.N,B46*%
X94500000Y-85750000D03*
%TO.P,CN4,129,B47*%
%TO.N,B47*%
X93500000Y-87750000D03*
%TO.P,CN4,130,B48*%
%TO.N,B48*%
X92500000Y-85750000D03*
%TO.P,CN4,131,B49*%
%TO.N,B49*%
X91500000Y-87750000D03*
%TO.P,CN4,132,B50*%
%TO.N,B50*%
X90500000Y-85750000D03*
%TO.P,CN4,133,B51*%
%TO.N,B51*%
X89500000Y-87750000D03*
%TO.P,CN4,134,B52*%
%TO.N,B52*%
X88500000Y-85750000D03*
%TO.P,CN4,135,B53*%
%TO.N,B53*%
X87500000Y-87750000D03*
%TO.P,CN4,136,B54*%
%TO.N,B54*%
X86500000Y-85750000D03*
%TO.P,CN4,137,B55*%
%TO.N,B55*%
X85500000Y-87750000D03*
%TO.P,CN4,138,B56*%
%TO.N,B56*%
X84500000Y-85750000D03*
%TO.P,CN4,139,B57*%
%TO.N,B57*%
X83500000Y-87750000D03*
%TO.P,CN4,140,B58*%
%TO.N,B58*%
X82500000Y-85750000D03*
%TO.P,CN4,141,B59*%
%TO.N,B59*%
X81500000Y-87750000D03*
%TO.P,CN4,142,B60*%
%TO.N,B60*%
X80500000Y-85750000D03*
%TO.P,CN4,143,B61*%
%TO.N,B61*%
X79500000Y-87750000D03*
%TO.P,CN4,144,B62*%
%TO.N,B62*%
X78500000Y-85750000D03*
%TO.P,CN4,145,B63*%
%TO.N,B63*%
X77500000Y-87750000D03*
%TO.P,CN4,146,B64*%
%TO.N,B64*%
X76500000Y-85750000D03*
%TO.P,CN4,147,B65*%
%TO.N,B65*%
X75500000Y-87750000D03*
%TO.P,CN4,148,B66*%
%TO.N,B66*%
X74500000Y-85750000D03*
%TO.P,CN4,149,B67*%
%TO.N,B67*%
X73500000Y-87750000D03*
%TO.P,CN4,150,B68*%
%TO.N,B68*%
X72500000Y-85750000D03*
%TO.P,CN4,151,B69*%
%TO.N,B69*%
X71500000Y-87750000D03*
%TO.P,CN4,152,B70*%
%TO.N,B70*%
X70500000Y-85750000D03*
%TO.P,CN4,153,B71*%
%TO.N,B71*%
X69500000Y-87750000D03*
%TO.P,CN4,154,B72*%
%TO.N,B72*%
X68500000Y-85750000D03*
%TO.P,CN4,155,B73*%
%TO.N,B73*%
X67500000Y-87750000D03*
%TO.P,CN4,156,B74*%
%TO.N,B74*%
X66500000Y-85750000D03*
%TO.P,CN4,157,B75*%
%TO.N,B75*%
X65500000Y-87750000D03*
%TO.P,CN4,158,B76*%
%TO.N,B76*%
X64500000Y-85750000D03*
%TO.P,CN4,159,B77*%
%TO.N,B77*%
X63500000Y-87750000D03*
%TO.P,CN4,160,B78*%
%TO.N,B78*%
X62500000Y-85750000D03*
%TO.P,CN4,161,B79*%
%TO.N,B79*%
X61500000Y-87750000D03*
%TO.P,CN4,162,B80*%
%TO.N,B80*%
X60500000Y-85750000D03*
%TO.P,CN4,163,B81*%
%TO.N,B81*%
X59500000Y-87750000D03*
%TO.P,CN4,164,B82*%
%TO.N,B82*%
X58500000Y-85750000D03*
%TD*%
D10*
%TO.P,H2,1*%
%TO.N,N/C*%
X50600000Y-95552944D03*
X51302944Y-93855888D03*
X51302944Y-97250000D03*
X53000000Y-93152944D03*
D11*
X53000000Y-95552944D03*
D10*
X53000000Y-97952944D03*
X54697056Y-93855888D03*
X54697056Y-97250000D03*
X55400000Y-95552944D03*
%TD*%
D12*
%TO.P,CN3,*%
%TO.N,*%
X129850000Y-76000000D03*
X56700000Y-76000000D03*
D13*
%TO.P,CN3,1,A1*%
%TO.N,A1*%
X141500000Y-77250000D03*
%TO.P,CN3,2,A2*%
%TO.N,A2*%
X140500000Y-79250000D03*
%TO.P,CN3,3,A3*%
%TO.N,A3*%
X139500000Y-77250000D03*
%TO.P,CN3,4,A4*%
%TO.N,A4*%
X138500000Y-79250000D03*
%TO.P,CN3,5,A5*%
%TO.N,A5*%
X137500000Y-77250000D03*
%TO.P,CN3,6,A6*%
%TO.N,A6*%
X136500000Y-79250000D03*
%TO.P,CN3,7,A7*%
%TO.N,A7*%
X135500000Y-77250000D03*
%TO.P,CN3,8,A8*%
%TO.N,A8*%
X134500000Y-79250000D03*
%TO.P,CN3,9,A9*%
%TO.N,A9*%
X133500000Y-77250000D03*
%TO.P,CN3,10,A10*%
%TO.N,A10*%
X132500000Y-79250000D03*
%TO.P,CN3,11,A11*%
%TO.N,A11*%
X131500000Y-77250000D03*
%TO.P,CN3,12,A12*%
%TO.N,A12*%
X128500000Y-79250000D03*
%TO.P,CN3,13,A13*%
%TO.N,A13*%
X127500000Y-77250000D03*
%TO.P,CN3,14,A14*%
%TO.N,A14*%
X126500000Y-79250000D03*
%TO.P,CN3,15,A15*%
%TO.N,A15*%
X125500000Y-77250000D03*
%TO.P,CN3,16,A16*%
%TO.N,A16*%
X124500000Y-79250000D03*
%TO.P,CN3,17,A17*%
%TO.N,A17*%
X123500000Y-77250000D03*
%TO.P,CN3,18,A18*%
%TO.N,A18*%
X122500000Y-79250000D03*
%TO.P,CN3,19,A19*%
%TO.N,A19*%
X121500000Y-77250000D03*
%TO.P,CN3,20,A20*%
%TO.N,A20*%
X120500000Y-79250000D03*
%TO.P,CN3,21,A21*%
%TO.N,A21*%
X119500000Y-77250000D03*
%TO.P,CN3,22,A22*%
%TO.N,A22*%
X118500000Y-79250000D03*
%TO.P,CN3,23,A23*%
%TO.N,A23*%
X117500000Y-77250000D03*
%TO.P,CN3,24,A24*%
%TO.N,A24*%
X116500000Y-79250000D03*
%TO.P,CN3,25,A25*%
%TO.N,A25*%
X115500000Y-77250000D03*
%TO.P,CN3,26,A26*%
%TO.N,A26*%
X114500000Y-79250000D03*
%TO.P,CN3,27,A27*%
%TO.N,A27*%
X113500000Y-77250000D03*
%TO.P,CN3,28,A28*%
%TO.N,A28*%
X112500000Y-79250000D03*
%TO.P,CN3,29,A29*%
%TO.N,A29*%
X111500000Y-77250000D03*
%TO.P,CN3,30,A30*%
%TO.N,A30*%
X110500000Y-79250000D03*
%TO.P,CN3,31,A31*%
%TO.N,A31*%
X109500000Y-77250000D03*
%TO.P,CN3,32,A32*%
%TO.N,A32*%
X108500000Y-79250000D03*
%TO.P,CN3,33,A33*%
%TO.N,A33*%
X107500000Y-77250000D03*
%TO.P,CN3,34,A34*%
%TO.N,A34*%
X106500000Y-79250000D03*
%TO.P,CN3,35,A35*%
%TO.N,A35*%
X105500000Y-77250000D03*
%TO.P,CN3,36,A36*%
%TO.N,A36*%
X104500000Y-79250000D03*
%TO.P,CN3,37,A37*%
%TO.N,A37*%
X103500000Y-77250000D03*
%TO.P,CN3,38,A38*%
%TO.N,A38*%
X102500000Y-79250000D03*
%TO.P,CN3,39,A39*%
%TO.N,A39*%
X101500000Y-77250000D03*
%TO.P,CN3,40,A40*%
%TO.N,A40*%
X100500000Y-79250000D03*
%TO.P,CN3,41,A41*%
%TO.N,A41*%
X99500000Y-77250000D03*
%TO.P,CN3,42,A42*%
%TO.N,A42*%
X98500000Y-79250000D03*
%TO.P,CN3,43,A43*%
%TO.N,A43*%
X97500000Y-77250000D03*
%TO.P,CN3,44,A44*%
%TO.N,A44*%
X96500000Y-79250000D03*
%TO.P,CN3,45,A45*%
%TO.N,A45*%
X95500000Y-77250000D03*
%TO.P,CN3,46,A46*%
%TO.N,A46*%
X94500000Y-79250000D03*
%TO.P,CN3,47,A47*%
%TO.N,A47*%
X93500000Y-77250000D03*
%TO.P,CN3,48,A48*%
%TO.N,A48*%
X92500000Y-79250000D03*
%TO.P,CN3,49,A49*%
%TO.N,A49*%
X91500000Y-77250000D03*
%TO.P,CN3,50,A50*%
%TO.N,A50*%
X90500000Y-79250000D03*
%TO.P,CN3,51,A51*%
%TO.N,A51*%
X89500000Y-77250000D03*
%TO.P,CN3,52,A52*%
%TO.N,A52*%
X88500000Y-79250000D03*
%TO.P,CN3,53,A53*%
%TO.N,A53*%
X87500000Y-77250000D03*
%TO.P,CN3,54,A54*%
%TO.N,A54*%
X86500000Y-79250000D03*
%TO.P,CN3,55,A55*%
%TO.N,A55*%
X85500000Y-77250000D03*
%TO.P,CN3,56,A56*%
%TO.N,A56*%
X84500000Y-79250000D03*
%TO.P,CN3,57,A57*%
%TO.N,A57*%
X83500000Y-77250000D03*
%TO.P,CN3,58,A58*%
%TO.N,A58*%
X82500000Y-79250000D03*
%TO.P,CN3,59,A59*%
%TO.N,A59*%
X81500000Y-77250000D03*
%TO.P,CN3,60,A60*%
%TO.N,A60*%
X80500000Y-79250000D03*
%TO.P,CN3,61,A61*%
%TO.N,A61*%
X79500000Y-77250000D03*
%TO.P,CN3,62,A62*%
%TO.N,A62*%
X78500000Y-79250000D03*
%TO.P,CN3,63,A63*%
%TO.N,A63*%
X77500000Y-77250000D03*
%TO.P,CN3,64,A64*%
%TO.N,A64*%
X76500000Y-79250000D03*
%TO.P,CN3,65,A65*%
%TO.N,A65*%
X75500000Y-77250000D03*
%TO.P,CN3,66,A66*%
%TO.N,A66*%
X74500000Y-79250000D03*
%TO.P,CN3,67,A67*%
%TO.N,A67*%
X73500000Y-77250000D03*
%TO.P,CN3,68,A68*%
%TO.N,A68*%
X72500000Y-79250000D03*
%TO.P,CN3,69,A69*%
%TO.N,A69*%
X71500000Y-77250000D03*
%TO.P,CN3,70,A70*%
%TO.N,A70*%
X70500000Y-79250000D03*
%TO.P,CN3,71,A71*%
%TO.N,A71*%
X69500000Y-77250000D03*
%TO.P,CN3,72,A72*%
%TO.N,A72*%
X68500000Y-79250000D03*
%TO.P,CN3,73,A73*%
%TO.N,A73*%
X67500000Y-77250000D03*
%TO.P,CN3,74,A74*%
%TO.N,A74*%
X66500000Y-79250000D03*
%TO.P,CN3,75,A75*%
%TO.N,A75*%
X65500000Y-77250000D03*
%TO.P,CN3,76,A76*%
%TO.N,A76*%
X64500000Y-79250000D03*
%TO.P,CN3,77,A77*%
%TO.N,A77*%
X63500000Y-77250000D03*
%TO.P,CN3,78,A78*%
%TO.N,A78*%
X62500000Y-79250000D03*
%TO.P,CN3,79,A79*%
%TO.N,A79*%
X61500000Y-77250000D03*
%TO.P,CN3,80,A80*%
%TO.N,A80*%
X60500000Y-79250000D03*
%TO.P,CN3,81,A81*%
%TO.N,A81*%
X59500000Y-77250000D03*
%TO.P,CN3,82,A82*%
%TO.N,A82*%
X58500000Y-79250000D03*
%TO.P,CN3,83,B1*%
%TO.N,B1*%
X141500000Y-74750000D03*
%TO.P,CN3,84,B2*%
%TO.N,B2*%
X140500000Y-72750000D03*
%TO.P,CN3,85,B3*%
%TO.N,B3*%
X139500000Y-74750000D03*
%TO.P,CN3,86,B4*%
%TO.N,B4*%
X138500000Y-72750000D03*
%TO.P,CN3,87,B5*%
%TO.N,B5*%
X137500000Y-74750000D03*
%TO.P,CN3,88,B6*%
%TO.N,B6*%
X136500000Y-72750000D03*
%TO.P,CN3,89,B7*%
%TO.N,B7*%
X135500000Y-74750000D03*
%TO.P,CN3,90,B8*%
%TO.N,B8*%
X134500000Y-72750000D03*
%TO.P,CN3,91,B9*%
%TO.N,B9*%
X133500000Y-74750000D03*
%TO.P,CN3,92,B10*%
%TO.N,B10*%
X132500000Y-72750000D03*
%TO.P,CN3,93,B11*%
%TO.N,B11*%
X131500000Y-74750000D03*
%TO.P,CN3,94,B12*%
%TO.N,B12*%
X128500000Y-72750000D03*
%TO.P,CN3,95,B13*%
%TO.N,B13*%
X127500000Y-74750000D03*
%TO.P,CN3,96,B14*%
%TO.N,B14*%
X126500000Y-72750000D03*
%TO.P,CN3,97,B15*%
%TO.N,B15*%
X125500000Y-74750000D03*
%TO.P,CN3,98,B16*%
%TO.N,B16*%
X124500000Y-72750000D03*
%TO.P,CN3,99,B17*%
%TO.N,B17*%
X123500000Y-74750000D03*
%TO.P,CN3,100,B18*%
%TO.N,B18*%
X122500000Y-72750000D03*
%TO.P,CN3,101,B19*%
%TO.N,B19*%
X121500000Y-74750000D03*
%TO.P,CN3,102,B20*%
%TO.N,B20*%
X120500000Y-72750000D03*
%TO.P,CN3,103,B21*%
%TO.N,B21*%
X119500000Y-74750000D03*
%TO.P,CN3,104,B22*%
%TO.N,B22*%
X118500000Y-72750000D03*
%TO.P,CN3,105,B23*%
%TO.N,B23*%
X117500000Y-74750000D03*
%TO.P,CN3,106,B24*%
%TO.N,B24*%
X116500000Y-72750000D03*
%TO.P,CN3,107,B25*%
%TO.N,B25*%
X115500000Y-74750000D03*
%TO.P,CN3,108,B26*%
%TO.N,B26*%
X114500000Y-72750000D03*
%TO.P,CN3,109,B27*%
%TO.N,B27*%
X113500000Y-74750000D03*
%TO.P,CN3,110,B28*%
%TO.N,B28*%
X112500000Y-72750000D03*
%TO.P,CN3,111,B29*%
%TO.N,B29*%
X111500000Y-74750000D03*
%TO.P,CN3,112,B30*%
%TO.N,B30*%
X110500000Y-72750000D03*
%TO.P,CN3,113,B31*%
%TO.N,B31*%
X109500000Y-74750000D03*
%TO.P,CN3,114,B32*%
%TO.N,B32*%
X108500000Y-72750000D03*
%TO.P,CN3,115,B33*%
%TO.N,B33*%
X107500000Y-74750000D03*
%TO.P,CN3,116,B34*%
%TO.N,B34*%
X106500000Y-72750000D03*
%TO.P,CN3,117,B35*%
%TO.N,B35*%
X105500000Y-74750000D03*
%TO.P,CN3,118,B36*%
%TO.N,B36*%
X104500000Y-72750000D03*
%TO.P,CN3,119,B37*%
%TO.N,B37*%
X103500000Y-74750000D03*
%TO.P,CN3,120,B38*%
%TO.N,B38*%
X102500000Y-72750000D03*
%TO.P,CN3,121,B39*%
%TO.N,B39*%
X101500000Y-74750000D03*
%TO.P,CN3,122,B40*%
%TO.N,B40*%
X100500000Y-72750000D03*
%TO.P,CN3,123,B41*%
%TO.N,B41*%
X99500000Y-74750000D03*
%TO.P,CN3,124,B42*%
%TO.N,B42*%
X98500000Y-72750000D03*
%TO.P,CN3,125,B43*%
%TO.N,B43*%
X97500000Y-74750000D03*
%TO.P,CN3,126,B44*%
%TO.N,B44*%
X96500000Y-72750000D03*
%TO.P,CN3,127,B45*%
%TO.N,B45*%
X95500000Y-74750000D03*
%TO.P,CN3,128,B46*%
%TO.N,B46*%
X94500000Y-72750000D03*
%TO.P,CN3,129,B47*%
%TO.N,B47*%
X93500000Y-74750000D03*
%TO.P,CN3,130,B48*%
%TO.N,B48*%
X92500000Y-72750000D03*
%TO.P,CN3,131,B49*%
%TO.N,B49*%
X91500000Y-74750000D03*
%TO.P,CN3,132,B50*%
%TO.N,B50*%
X90500000Y-72750000D03*
%TO.P,CN3,133,B51*%
%TO.N,B51*%
X89500000Y-74750000D03*
%TO.P,CN3,134,B52*%
%TO.N,B52*%
X88500000Y-72750000D03*
%TO.P,CN3,135,B53*%
%TO.N,B53*%
X87500000Y-74750000D03*
%TO.P,CN3,136,B54*%
%TO.N,B54*%
X86500000Y-72750000D03*
%TO.P,CN3,137,B55*%
%TO.N,B55*%
X85500000Y-74750000D03*
%TO.P,CN3,138,B56*%
%TO.N,B56*%
X84500000Y-72750000D03*
%TO.P,CN3,139,B57*%
%TO.N,B57*%
X83500000Y-74750000D03*
%TO.P,CN3,140,B58*%
%TO.N,B58*%
X82500000Y-72750000D03*
%TO.P,CN3,141,B59*%
%TO.N,B59*%
X81500000Y-74750000D03*
%TO.P,CN3,142,B60*%
%TO.N,B60*%
X80500000Y-72750000D03*
%TO.P,CN3,143,B61*%
%TO.N,B61*%
X79500000Y-74750000D03*
%TO.P,CN3,144,B62*%
%TO.N,B62*%
X78500000Y-72750000D03*
%TO.P,CN3,145,B63*%
%TO.N,B63*%
X77500000Y-74750000D03*
%TO.P,CN3,146,B64*%
%TO.N,B64*%
X76500000Y-72750000D03*
%TO.P,CN3,147,B65*%
%TO.N,B65*%
X75500000Y-74750000D03*
%TO.P,CN3,148,B66*%
%TO.N,B66*%
X74500000Y-72750000D03*
%TO.P,CN3,149,B67*%
%TO.N,B67*%
X73500000Y-74750000D03*
%TO.P,CN3,150,B68*%
%TO.N,B68*%
X72500000Y-72750000D03*
%TO.P,CN3,151,B69*%
%TO.N,B69*%
X71500000Y-74750000D03*
%TO.P,CN3,152,B70*%
%TO.N,B70*%
X70500000Y-72750000D03*
%TO.P,CN3,153,B71*%
%TO.N,B71*%
X69500000Y-74750000D03*
%TO.P,CN3,154,B72*%
%TO.N,B72*%
X68500000Y-72750000D03*
%TO.P,CN3,155,B73*%
%TO.N,B73*%
X67500000Y-74750000D03*
%TO.P,CN3,156,B74*%
%TO.N,B74*%
X66500000Y-72750000D03*
%TO.P,CN3,157,B75*%
%TO.N,B75*%
X65500000Y-74750000D03*
%TO.P,CN3,158,B76*%
%TO.N,B76*%
X64500000Y-72750000D03*
%TO.P,CN3,159,B77*%
%TO.N,B77*%
X63500000Y-74750000D03*
%TO.P,CN3,160,B78*%
%TO.N,B78*%
X62500000Y-72750000D03*
%TO.P,CN3,161,B79*%
%TO.N,B79*%
X61500000Y-74750000D03*
%TO.P,CN3,162,B80*%
%TO.N,B80*%
X60500000Y-72750000D03*
%TO.P,CN3,163,B81*%
%TO.N,B81*%
X59500000Y-74750000D03*
%TO.P,CN3,164,B82*%
%TO.N,B82*%
X58500000Y-72750000D03*
%TD*%
D14*
%TO.N,A32*%
X108549000Y-61327541D02*
X108549000Y-66172459D01*
X109549000Y-86126541D02*
X108598000Y-87077541D01*
X109500000Y-60376541D02*
X108549000Y-61327541D01*
X109500000Y-67045918D02*
X109500000Y-73299000D01*
X109549000Y-118873459D02*
X109549000Y-125126541D01*
X108598000Y-92172459D02*
X109549000Y-93123459D01*
X108549000Y-53172459D02*
X109500000Y-54123459D01*
X109549000Y-79873459D02*
X109549000Y-86126541D01*
X109549000Y-112126541D02*
X108598000Y-113077541D01*
X109549000Y-125126541D02*
X108598000Y-126077541D01*
X109549000Y-93123459D02*
X109549000Y-99376541D01*
X108598000Y-104922459D02*
X109549000Y-105873459D01*
X108598000Y-117922459D02*
X109549000Y-118873459D01*
X108598000Y-87077541D02*
X108598000Y-91922459D01*
X108598000Y-126077541D02*
X108598000Y-130922459D01*
X109500000Y-73299000D02*
X108549000Y-74250000D01*
X108598000Y-78922459D02*
X109549000Y-79873459D01*
X109549000Y-99376541D02*
X108598000Y-100327541D01*
X108598000Y-113077541D02*
X108598000Y-117922459D01*
X109500000Y-54123459D02*
X109500000Y-60376541D01*
X109549000Y-105873459D02*
X109549000Y-112126541D01*
X108598000Y-100327541D02*
X108598000Y-105172459D01*
X108549000Y-74250000D02*
X108549000Y-79094918D01*
X108549000Y-66094918D02*
X109500000Y-67045918D01*
%TO.N,A48*%
X92549000Y-74250000D02*
X92549000Y-79094918D01*
X93500000Y-54123459D02*
X93500000Y-60376541D01*
X93549000Y-118873459D02*
X93549000Y-125126541D01*
X92549000Y-53172459D02*
X93500000Y-54123459D01*
X93500000Y-67045918D02*
X93500000Y-73299000D01*
X93549000Y-79873459D02*
X93549000Y-86126541D01*
X93500000Y-73299000D02*
X92549000Y-74250000D01*
X93549000Y-93123459D02*
X93549000Y-99376541D01*
X93549000Y-105873459D02*
X93549000Y-112126541D01*
X92598000Y-92172459D02*
X93549000Y-93123459D01*
X93549000Y-99376541D02*
X92598000Y-100327541D01*
X92598000Y-113077541D02*
X92598000Y-117922459D01*
X92598000Y-78922459D02*
X93549000Y-79873459D01*
X93500000Y-60376541D02*
X92549000Y-61327541D01*
X92598000Y-100327541D02*
X92598000Y-105172459D01*
X92598000Y-117922459D02*
X93549000Y-118873459D01*
X92598000Y-104922459D02*
X93549000Y-105873459D01*
X93549000Y-86126541D02*
X92598000Y-87077541D01*
X93549000Y-112126541D02*
X92598000Y-113077541D01*
X92549000Y-61327541D02*
X92549000Y-66172459D01*
X92598000Y-126077541D02*
X92598000Y-130922459D01*
X92549000Y-66094918D02*
X93500000Y-67045918D01*
X93549000Y-125126541D02*
X92598000Y-126077541D01*
X92598000Y-87077541D02*
X92598000Y-91922459D01*
%TO.N,A68*%
X73500000Y-54123459D02*
X73500000Y-60376541D01*
X73549000Y-105873459D02*
X73549000Y-112126541D01*
X73500000Y-67045918D02*
X73500000Y-73299000D01*
X73549000Y-112126541D02*
X72598000Y-113077541D01*
X73549000Y-86126541D02*
X72598000Y-87077541D01*
X72549000Y-53172459D02*
X73500000Y-54123459D01*
X72549000Y-66094918D02*
X73500000Y-67045918D01*
X73500000Y-73299000D02*
X72549000Y-74250000D01*
X72598000Y-113077541D02*
X72598000Y-117922459D01*
X72549000Y-61327541D02*
X72549000Y-66172459D01*
X72598000Y-92172459D02*
X73549000Y-93123459D01*
X72598000Y-100327541D02*
X72598000Y-105172459D01*
X73549000Y-79873459D02*
X73549000Y-86126541D01*
X72598000Y-126077541D02*
X72598000Y-130922459D01*
X72598000Y-104922459D02*
X73549000Y-105873459D01*
X72549000Y-74250000D02*
X72549000Y-79094918D01*
X73549000Y-99376541D02*
X72598000Y-100327541D01*
X72598000Y-87077541D02*
X72598000Y-91922459D01*
X73500000Y-60376541D02*
X72549000Y-61327541D01*
X73549000Y-93123459D02*
X73549000Y-99376541D01*
X72598000Y-117922459D02*
X73549000Y-118873459D01*
X72598000Y-78922459D02*
X73549000Y-79873459D01*
X73549000Y-125126541D02*
X72598000Y-126077541D01*
X73549000Y-118873459D02*
X73549000Y-125126541D01*
%TO.N,A80*%
X61500000Y-118951000D02*
X61500000Y-125204082D01*
X61451000Y-54201000D02*
X61451000Y-60454082D01*
X61500000Y-105951000D02*
X61500000Y-112204082D01*
X61500000Y-125204082D02*
X60549000Y-126155082D01*
X61500000Y-93201000D02*
X61500000Y-99454082D01*
X61500000Y-86204082D02*
X60549000Y-87155082D01*
X60549000Y-79000000D02*
X61500000Y-79951000D01*
X60549000Y-87155082D02*
X60549000Y-92000000D01*
X60549000Y-113155082D02*
X60549000Y-118000000D01*
X60500000Y-74327541D02*
X60500000Y-79172459D01*
X60500000Y-61405082D02*
X60500000Y-66250000D01*
X60549000Y-126155082D02*
X60549000Y-131000000D01*
X60549000Y-100405082D02*
X60549000Y-105250000D01*
X61500000Y-112204082D02*
X60549000Y-113155082D01*
X61500000Y-79951000D02*
X61500000Y-86204082D01*
X60500000Y-66172459D02*
X61451000Y-67123459D01*
X61451000Y-73376541D02*
X60500000Y-74327541D01*
X61451000Y-60454082D02*
X60500000Y-61405082D01*
X60549000Y-118000000D02*
X61500000Y-118951000D01*
X60549000Y-92250000D02*
X61500000Y-93201000D01*
X61500000Y-99454082D02*
X60549000Y-100405082D01*
X61451000Y-67123459D02*
X61451000Y-73376541D01*
X60500000Y-53250000D02*
X61451000Y-54201000D01*
X60549000Y-105000000D02*
X61500000Y-105951000D01*
%TO.N,A82*%
X58549000Y-92250000D02*
X59500000Y-93201000D01*
X59500000Y-125049000D02*
X58549000Y-126000000D01*
X58500000Y-74172459D02*
X58500000Y-79172459D01*
X58549000Y-126000000D02*
X58549000Y-131000000D01*
X59500000Y-93201000D02*
X59500000Y-99299000D01*
X58549000Y-113000000D02*
X58549000Y-118000000D01*
X58549000Y-118000000D02*
X59500000Y-118951000D01*
X58549000Y-87000000D02*
X58549000Y-92000000D01*
X58549000Y-105000000D02*
X59500000Y-105951000D01*
X59451000Y-54201000D02*
X59451000Y-60299000D01*
X59500000Y-86049000D02*
X58549000Y-87000000D01*
X58500000Y-61250000D02*
X58500000Y-66250000D01*
X59500000Y-112049000D02*
X58549000Y-113000000D01*
X59451000Y-73221459D02*
X58500000Y-74172459D01*
X58500000Y-53250000D02*
X59451000Y-54201000D01*
X58500000Y-66172459D02*
X59451000Y-67123459D01*
X59451000Y-60299000D02*
X58500000Y-61250000D01*
X59500000Y-105951000D02*
X59500000Y-112049000D01*
X58549000Y-79000000D02*
X59500000Y-79951000D01*
X59500000Y-79951000D02*
X59500000Y-86049000D01*
X58549000Y-100250000D02*
X58549000Y-105250000D01*
X59451000Y-67123459D02*
X59451000Y-73221459D01*
X59500000Y-118951000D02*
X59500000Y-125049000D01*
X59500000Y-99299000D02*
X58549000Y-100250000D01*
%TO.N,A30*%
X111598000Y-105922459D02*
X111598000Y-112077541D01*
X110598000Y-113077541D02*
X110598000Y-117922459D01*
X110549000Y-66094918D02*
X111549000Y-67094918D01*
X110598000Y-117922459D02*
X111598000Y-118922459D01*
X110598000Y-126077541D02*
X110598000Y-130922459D01*
X110598000Y-92172459D02*
X111598000Y-93172459D01*
X110598000Y-87077541D02*
X110598000Y-91922459D01*
X111598000Y-93172459D02*
X111598000Y-99327541D01*
X110549000Y-61327541D02*
X110549000Y-66172459D01*
X111598000Y-118922459D02*
X111598000Y-125077541D01*
X111549000Y-73250000D02*
X110549000Y-74250000D01*
X110598000Y-104922459D02*
X111598000Y-105922459D01*
X111598000Y-99327541D02*
X110598000Y-100327541D01*
X111549000Y-54172459D02*
X111549000Y-60327541D01*
X110549000Y-53172459D02*
X111549000Y-54172459D01*
X110598000Y-78922459D02*
X111598000Y-79922459D01*
X111598000Y-86077541D02*
X110598000Y-87077541D01*
X111598000Y-79922459D02*
X111598000Y-86077541D01*
X111549000Y-67094918D02*
X111549000Y-73250000D01*
X110598000Y-100327541D02*
X110598000Y-105172459D01*
X111598000Y-112077541D02*
X110598000Y-113077541D01*
X110549000Y-74250000D02*
X110549000Y-79094918D01*
X111598000Y-125077541D02*
X110598000Y-126077541D01*
X111549000Y-60327541D02*
X110549000Y-61327541D01*
%TO.N,A28*%
X113500000Y-60376541D02*
X112549000Y-61327541D01*
X113500000Y-54123459D02*
X113500000Y-60376541D01*
X112598000Y-100327541D02*
X112598000Y-105172459D01*
X113549000Y-93123459D02*
X113549000Y-99376541D01*
X113549000Y-79873459D02*
X113549000Y-86126541D01*
X112598000Y-87077541D02*
X112598000Y-91922459D01*
X112549000Y-53172459D02*
X113500000Y-54123459D01*
X113549000Y-86126541D02*
X112598000Y-87077541D01*
X113549000Y-105873459D02*
X113549000Y-112126541D01*
X112598000Y-117922459D02*
X113549000Y-118873459D01*
X112598000Y-78922459D02*
X113549000Y-79873459D01*
X113549000Y-99376541D02*
X112598000Y-100327541D01*
X112549000Y-61327541D02*
X112549000Y-66172459D01*
X112549000Y-74250000D02*
X112549000Y-79094918D01*
X112598000Y-104922459D02*
X113549000Y-105873459D01*
X113549000Y-125126541D02*
X112598000Y-126077541D01*
X113549000Y-112126541D02*
X112598000Y-113077541D01*
X113549000Y-118873459D02*
X113549000Y-125126541D01*
X112598000Y-113077541D02*
X112598000Y-117922459D01*
X112598000Y-126077541D02*
X112598000Y-130922459D01*
X112549000Y-66094918D02*
X113500000Y-67045918D01*
X112598000Y-92172459D02*
X113549000Y-93123459D01*
X113500000Y-67045918D02*
X113500000Y-73299000D01*
X113500000Y-73299000D02*
X112549000Y-74250000D01*
%TO.N,A60*%
X80598000Y-117922459D02*
X81549000Y-118873459D01*
X80598000Y-78922459D02*
X81549000Y-79873459D01*
X80598000Y-92172459D02*
X81549000Y-93123459D01*
X80549000Y-66094918D02*
X81500000Y-67045918D01*
X81549000Y-99376541D02*
X80598000Y-100327541D01*
X81549000Y-118873459D02*
X81549000Y-125126541D01*
X80598000Y-104922459D02*
X81549000Y-105873459D01*
X81500000Y-67045918D02*
X81500000Y-73299000D01*
X81549000Y-105873459D02*
X81549000Y-112126541D01*
X80598000Y-87077541D02*
X80598000Y-91922459D01*
X80598000Y-113077541D02*
X80598000Y-117922459D01*
X81500000Y-60376541D02*
X80549000Y-61327541D01*
X80598000Y-126077541D02*
X80598000Y-130922459D01*
X81549000Y-79873459D02*
X81549000Y-86126541D01*
X80549000Y-61327541D02*
X80549000Y-66172459D01*
X80549000Y-74250000D02*
X80549000Y-79094918D01*
X81500000Y-73299000D02*
X80549000Y-74250000D01*
X81549000Y-112126541D02*
X80598000Y-113077541D01*
X81500000Y-54123459D02*
X81500000Y-60376541D01*
X81549000Y-86126541D02*
X80598000Y-87077541D01*
X81549000Y-93123459D02*
X81549000Y-99376541D01*
X80598000Y-100327541D02*
X80598000Y-105172459D01*
X80549000Y-53172459D02*
X81500000Y-54123459D01*
X81549000Y-125126541D02*
X80598000Y-126077541D01*
%TO.N,A64*%
X77549000Y-118873459D02*
X77549000Y-125126541D01*
X77549000Y-99376541D02*
X76598000Y-100327541D01*
X77500000Y-60376541D02*
X76549000Y-61327541D01*
X76549000Y-53172459D02*
X77500000Y-54123459D01*
X77500000Y-54123459D02*
X77500000Y-60376541D01*
X76549000Y-74250000D02*
X76549000Y-79094918D01*
X76598000Y-92172459D02*
X77549000Y-93123459D01*
X77549000Y-93123459D02*
X77549000Y-99376541D01*
X76598000Y-78922459D02*
X77549000Y-79873459D01*
X77500000Y-73299000D02*
X76549000Y-74250000D01*
X77500000Y-67045918D02*
X77500000Y-73299000D01*
X76598000Y-104922459D02*
X77549000Y-105873459D01*
X76549000Y-66094918D02*
X77500000Y-67045918D01*
X76598000Y-87077541D02*
X76598000Y-91922459D01*
X77549000Y-105873459D02*
X77549000Y-112126541D01*
X76598000Y-113077541D02*
X76598000Y-117922459D01*
X77549000Y-86126541D02*
X76598000Y-87077541D01*
X76598000Y-100327541D02*
X76598000Y-105172459D01*
X76598000Y-117922459D02*
X77549000Y-118873459D01*
X77549000Y-79873459D02*
X77549000Y-86126541D01*
X76598000Y-126077541D02*
X76598000Y-130922459D01*
X77549000Y-125126541D02*
X76598000Y-126077541D01*
X76549000Y-61327541D02*
X76549000Y-66172459D01*
X77549000Y-112126541D02*
X76598000Y-113077541D01*
%TO.N,A2*%
X140549000Y-100405082D02*
X140549000Y-105250000D01*
X140549000Y-87155082D02*
X140549000Y-92000000D01*
X140549000Y-105000000D02*
X141500000Y-105951000D01*
X141451000Y-60454082D02*
X140500000Y-61405082D01*
X140500000Y-61405082D02*
X140500000Y-66250000D01*
X140500000Y-53250000D02*
X141451000Y-54201000D01*
X140549000Y-126155082D02*
X140549000Y-131000000D01*
X140500000Y-74327541D02*
X140500000Y-79172459D01*
X140549000Y-118000000D02*
X141500000Y-118951000D01*
X141451000Y-73376541D02*
X140500000Y-74327541D01*
X140549000Y-113155082D02*
X140549000Y-118000000D01*
X141451000Y-67123459D02*
X141451000Y-73376541D01*
X141500000Y-86204082D02*
X140549000Y-87155082D01*
X141500000Y-79951000D02*
X141500000Y-86204082D01*
X140500000Y-66172459D02*
X141451000Y-67123459D01*
X140549000Y-92250000D02*
X141500000Y-93201000D01*
X141451000Y-54201000D02*
X141451000Y-60454082D01*
X141500000Y-93201000D02*
X141500000Y-99454082D01*
X140549000Y-79000000D02*
X141500000Y-79951000D01*
X141500000Y-105951000D02*
X141500000Y-112204082D01*
X141500000Y-125204082D02*
X140549000Y-126155082D01*
X141500000Y-112204082D02*
X140549000Y-113155082D01*
X141500000Y-99454082D02*
X140549000Y-100405082D01*
X141500000Y-118951000D02*
X141500000Y-125204082D01*
%TO.N,A56*%
X84598000Y-92172459D02*
X85549000Y-93123459D01*
X85500000Y-73299000D02*
X84549000Y-74250000D01*
X84549000Y-74250000D02*
X84549000Y-79094918D01*
X84598000Y-100327541D02*
X84598000Y-105172459D01*
X84598000Y-104922459D02*
X85549000Y-105873459D01*
X85549000Y-79873459D02*
X85549000Y-86126541D01*
X85549000Y-112126541D02*
X84598000Y-113077541D01*
X85500000Y-54123459D02*
X85500000Y-60376541D01*
X85549000Y-99376541D02*
X84598000Y-100327541D01*
X84598000Y-87077541D02*
X84598000Y-91922459D01*
X84598000Y-117922459D02*
X85549000Y-118873459D01*
X85549000Y-93123459D02*
X85549000Y-99376541D01*
X84549000Y-53172459D02*
X85500000Y-54123459D01*
X85549000Y-105873459D02*
X85549000Y-112126541D01*
X85549000Y-118873459D02*
X85549000Y-125126541D01*
X85500000Y-60376541D02*
X84549000Y-61327541D01*
X85549000Y-86126541D02*
X84598000Y-87077541D01*
X84598000Y-113077541D02*
X84598000Y-117922459D01*
X85500000Y-67045918D02*
X85500000Y-73299000D01*
X84598000Y-126077541D02*
X84598000Y-130922459D01*
X84549000Y-61327541D02*
X84549000Y-66172459D01*
X84598000Y-78922459D02*
X85549000Y-79873459D01*
X84549000Y-66094918D02*
X85500000Y-67045918D01*
X85549000Y-125126541D02*
X84598000Y-126077541D01*
%TO.N,A46*%
X95549000Y-54172459D02*
X95549000Y-60327541D01*
X95549000Y-60327541D02*
X94549000Y-61327541D01*
X94598000Y-113077541D02*
X94598000Y-117922459D01*
X95598000Y-125077541D02*
X94598000Y-126077541D01*
X95598000Y-86077541D02*
X94598000Y-87077541D01*
X94598000Y-117922459D02*
X95598000Y-118922459D01*
X95598000Y-93172459D02*
X95598000Y-99327541D01*
X95598000Y-118922459D02*
X95598000Y-125077541D01*
X95598000Y-112077541D02*
X94598000Y-113077541D01*
X94549000Y-61327541D02*
X94549000Y-66172459D01*
X95549000Y-73250000D02*
X94549000Y-74250000D01*
X94549000Y-74250000D02*
X94549000Y-79094918D01*
X94549000Y-53172459D02*
X95549000Y-54172459D01*
X94598000Y-87077541D02*
X94598000Y-91922459D01*
X94598000Y-78922459D02*
X95598000Y-79922459D01*
X94598000Y-104922459D02*
X95598000Y-105922459D01*
X94598000Y-100327541D02*
X94598000Y-105172459D01*
X95598000Y-105922459D02*
X95598000Y-112077541D01*
X94598000Y-126077541D02*
X94598000Y-130922459D01*
X95598000Y-79922459D02*
X95598000Y-86077541D01*
X94598000Y-92172459D02*
X95598000Y-93172459D01*
X95598000Y-99327541D02*
X94598000Y-100327541D01*
X94549000Y-66094918D02*
X95549000Y-67094918D01*
X95549000Y-67094918D02*
X95549000Y-73250000D01*
%TO.N,A18*%
X123500000Y-67045918D02*
X123500000Y-73143918D01*
X123549000Y-86211230D02*
X122598000Y-87162230D01*
X123549000Y-79873459D02*
X123549000Y-86211230D01*
X122549000Y-74094918D02*
X122549000Y-79094918D01*
X123549000Y-112211230D02*
X122598000Y-113162230D01*
X122598000Y-87162230D02*
X122598000Y-91922459D01*
X122598000Y-104922459D02*
X123549000Y-105873459D01*
X122598000Y-117922459D02*
X123549000Y-118873459D01*
X123500000Y-54123459D02*
X123500000Y-60221459D01*
X122598000Y-78922459D02*
X123549000Y-79873459D01*
X122549000Y-61172459D02*
X122549000Y-66172459D01*
X122549000Y-53172459D02*
X123500000Y-54123459D01*
X122598000Y-92172459D02*
X123549000Y-93123459D01*
X123549000Y-93123459D02*
X123549000Y-99221459D01*
X122598000Y-113162230D02*
X122598000Y-117922459D01*
X122598000Y-100172459D02*
X122598000Y-105172459D01*
X122601749Y-125922458D02*
X122598000Y-125922458D01*
X123500000Y-60221459D02*
X122549000Y-61172459D01*
X123549000Y-124975207D02*
X122601749Y-125922458D01*
X123549000Y-118873459D02*
X123549000Y-124975207D01*
X122549000Y-66094918D02*
X123500000Y-67045918D01*
X123549000Y-105873459D02*
X123549000Y-112211230D01*
X123549000Y-99221459D02*
X122598000Y-100172459D01*
X122598000Y-125922458D02*
X122598000Y-130922459D01*
X123500000Y-73143918D02*
X122549000Y-74094918D01*
%TO.N,A24*%
X116549000Y-61327541D02*
X116549000Y-66172459D01*
X117500000Y-54123459D02*
X117500000Y-60376541D01*
X117549000Y-112126541D02*
X116598000Y-113077541D01*
X117500000Y-67045918D02*
X117500000Y-73299000D01*
X117549000Y-99376541D02*
X116598000Y-100327541D01*
X117549000Y-93123459D02*
X117549000Y-99376541D01*
X116598000Y-126077541D02*
X116598000Y-130922459D01*
X116598000Y-87077541D02*
X116598000Y-91922459D01*
X116549000Y-66094918D02*
X117500000Y-67045918D01*
X116598000Y-78922459D02*
X117549000Y-79873459D01*
X116598000Y-113077541D02*
X116598000Y-117922459D01*
X117549000Y-86126541D02*
X116598000Y-87077541D01*
X116598000Y-104922459D02*
X117549000Y-105873459D01*
X116549000Y-53172459D02*
X117500000Y-54123459D01*
X116598000Y-117922459D02*
X117549000Y-118873459D01*
X116598000Y-92172459D02*
X117549000Y-93123459D01*
X117500000Y-60376541D02*
X116549000Y-61327541D01*
X117500000Y-73299000D02*
X116549000Y-74250000D01*
X116598000Y-100327541D02*
X116598000Y-105172459D01*
X117549000Y-79873459D02*
X117549000Y-86126541D01*
X117549000Y-118873459D02*
X117549000Y-125126541D01*
X117549000Y-105873459D02*
X117549000Y-112126541D01*
X117549000Y-125126541D02*
X116598000Y-126077541D01*
X116549000Y-74250000D02*
X116549000Y-79094918D01*
%TO.N,A44*%
X96549000Y-66094918D02*
X97500000Y-67045918D01*
X96598000Y-78922459D02*
X97549000Y-79873459D01*
X96598000Y-117922459D02*
X97549000Y-118873459D01*
X97549000Y-112126541D02*
X96598000Y-113077541D01*
X97549000Y-118873459D02*
X97549000Y-125126541D01*
X97549000Y-99376541D02*
X96598000Y-100327541D01*
X97500000Y-60376541D02*
X96549000Y-61327541D01*
X97500000Y-73299000D02*
X96549000Y-74250000D01*
X96598000Y-92172459D02*
X97549000Y-93123459D01*
X97549000Y-79873459D02*
X97549000Y-86126541D01*
X96598000Y-126077541D02*
X96598000Y-130922459D01*
X97549000Y-86126541D02*
X96598000Y-87077541D01*
X96549000Y-74250000D02*
X96549000Y-79094918D01*
X96549000Y-53172459D02*
X97500000Y-54123459D01*
X97500000Y-67045918D02*
X97500000Y-73299000D01*
X96598000Y-104922459D02*
X97549000Y-105873459D01*
X97500000Y-54123459D02*
X97500000Y-60376541D01*
X96549000Y-61327541D02*
X96549000Y-66172459D01*
X96598000Y-100327541D02*
X96598000Y-105172459D01*
X97549000Y-105873459D02*
X97549000Y-112126541D01*
X97549000Y-93123459D02*
X97549000Y-99376541D01*
X96598000Y-87077541D02*
X96598000Y-91922459D01*
X96598000Y-113077541D02*
X96598000Y-117922459D01*
X97549000Y-125126541D02*
X96598000Y-126077541D01*
%TO.N,A72*%
X68598000Y-78922459D02*
X69549000Y-79873459D01*
X69549000Y-125126541D02*
X68598000Y-126077541D01*
X69549000Y-79873459D02*
X69549000Y-86126541D01*
X69500000Y-60376541D02*
X68549000Y-61327541D01*
X69549000Y-118873459D02*
X69549000Y-125126541D01*
X68598000Y-92172459D02*
X69549000Y-93123459D01*
X68598000Y-100327541D02*
X68598000Y-105172459D01*
X68598000Y-104922459D02*
X69549000Y-105873459D01*
X68598000Y-117922459D02*
X69549000Y-118873459D01*
X68549000Y-74250000D02*
X68549000Y-79094918D01*
X69500000Y-67045918D02*
X69500000Y-73299000D01*
X69500000Y-54123459D02*
X69500000Y-60376541D01*
X68549000Y-61327541D02*
X68549000Y-66172459D01*
X69549000Y-93123459D02*
X69549000Y-99376541D01*
X68549000Y-66094918D02*
X69500000Y-67045918D01*
X69549000Y-112126541D02*
X68598000Y-113077541D01*
X68549000Y-53172459D02*
X69500000Y-54123459D01*
X68598000Y-87077541D02*
X68598000Y-91922459D01*
X68598000Y-113077541D02*
X68598000Y-117922459D01*
X68598000Y-126077541D02*
X68598000Y-130922459D01*
X69500000Y-73299000D02*
X68549000Y-74250000D01*
X69549000Y-105873459D02*
X69549000Y-112126541D01*
X69549000Y-99376541D02*
X68598000Y-100327541D01*
X69549000Y-86126541D02*
X68598000Y-87077541D01*
%TO.N,A78*%
X63549000Y-80000000D02*
X63549000Y-86155082D01*
X63549000Y-86155082D02*
X62549000Y-87155082D01*
X63549000Y-93250000D02*
X63549000Y-99405082D01*
X63500000Y-54250000D02*
X63500000Y-60405082D01*
X62500000Y-66172459D02*
X63500000Y-67172459D01*
X63549000Y-99405082D02*
X62549000Y-100405082D01*
X62549000Y-113155082D02*
X62549000Y-118000000D01*
X62549000Y-126155082D02*
X62549000Y-131000000D01*
X63500000Y-67172459D02*
X63500000Y-73327541D01*
X62500000Y-74327541D02*
X62500000Y-79172459D01*
X62549000Y-92250000D02*
X63549000Y-93250000D01*
X62500000Y-61405082D02*
X62500000Y-66250000D01*
X63549000Y-119000000D02*
X63549000Y-125155082D01*
X63500000Y-60405082D02*
X62500000Y-61405082D01*
X63549000Y-106000000D02*
X63549000Y-112155082D01*
X62549000Y-79000000D02*
X63549000Y-80000000D01*
X63549000Y-125155082D02*
X62549000Y-126155082D01*
X62500000Y-53250000D02*
X63500000Y-54250000D01*
X63549000Y-112155082D02*
X62549000Y-113155082D01*
X62549000Y-100405082D02*
X62549000Y-105250000D01*
X62549000Y-87155082D02*
X62549000Y-92000000D01*
X63500000Y-73327541D02*
X62500000Y-74327541D01*
X62549000Y-105000000D02*
X63549000Y-106000000D01*
X62549000Y-118000000D02*
X63549000Y-119000000D01*
%TO.N,A42*%
X98598000Y-78922459D02*
X99549000Y-79873459D01*
X99500000Y-73143918D02*
X98549000Y-74094918D01*
X98598000Y-113162230D02*
X98598000Y-117922459D01*
X99549000Y-93123459D02*
X99549000Y-99221459D01*
X99500000Y-67045918D02*
X99500000Y-73143918D01*
X99549000Y-125211230D02*
X98598000Y-126162230D01*
X99549000Y-105873459D02*
X99549000Y-112211230D01*
X98598000Y-126162230D02*
X98598000Y-130922459D01*
X98549000Y-61172459D02*
X98549000Y-66172459D01*
X98598000Y-104922459D02*
X99549000Y-105873459D01*
X98549000Y-66094918D02*
X99500000Y-67045918D01*
X99500000Y-54123459D02*
X99500000Y-60221459D01*
X98598000Y-92172459D02*
X99549000Y-93123459D01*
X99549000Y-86211230D02*
X98598000Y-87162230D01*
X98598000Y-87162230D02*
X98598000Y-91922459D01*
X99500000Y-60221459D02*
X98549000Y-61172459D01*
X98549000Y-74094918D02*
X98549000Y-79094918D01*
X99549000Y-79873459D02*
X99549000Y-86211230D01*
X98598000Y-117922459D02*
X99549000Y-118873459D01*
X99549000Y-112211230D02*
X98598000Y-113162230D01*
X98598000Y-100172459D02*
X98598000Y-105172459D01*
X99549000Y-99221459D02*
X98598000Y-100172459D01*
X98549000Y-53172459D02*
X99500000Y-54123459D01*
X99549000Y-118873459D02*
X99549000Y-125211230D01*
%TO.N,A20*%
X121500000Y-67045918D02*
X121500000Y-73299000D01*
X121549000Y-86126541D02*
X120598000Y-87077541D01*
X120549000Y-61327541D02*
X120549000Y-66172459D01*
X120598000Y-100327541D02*
X120598000Y-105172459D01*
X121549000Y-79873459D02*
X121549000Y-86126541D01*
X120598000Y-78922459D02*
X121549000Y-79873459D01*
X120598000Y-113077541D02*
X120598000Y-117922459D01*
X120549000Y-66094918D02*
X121500000Y-67045918D01*
X120598000Y-87077541D02*
X120598000Y-91922459D01*
X120549000Y-53172459D02*
X121500000Y-54123459D01*
X120598000Y-117922459D02*
X121549000Y-118873459D01*
X121549000Y-93123459D02*
X121549000Y-99376541D01*
X120598000Y-126077541D02*
X120598000Y-130922459D01*
X120598000Y-104922459D02*
X121549000Y-105873459D01*
X121500000Y-60376541D02*
X120549000Y-61327541D01*
X121549000Y-99376541D02*
X120598000Y-100327541D01*
X121500000Y-73299000D02*
X120549000Y-74250000D01*
X121549000Y-125126541D02*
X120598000Y-126077541D01*
X120598000Y-92172459D02*
X121549000Y-93123459D01*
X121549000Y-118873459D02*
X121549000Y-125126541D01*
X121549000Y-112126541D02*
X120598000Y-113077541D01*
X121500000Y-54123459D02*
X121500000Y-60376541D01*
X121549000Y-105873459D02*
X121549000Y-112126541D01*
X120549000Y-74250000D02*
X120549000Y-79094918D01*
%TO.N,A76*%
X65451000Y-67123459D02*
X65451000Y-73376541D01*
X64549000Y-87155082D02*
X64549000Y-92000000D01*
X64500000Y-66172459D02*
X65451000Y-67123459D01*
X64549000Y-79000000D02*
X65500000Y-79951000D01*
X64549000Y-126155082D02*
X64549000Y-131000000D01*
X64500000Y-53250000D02*
X65451000Y-54201000D01*
X65500000Y-118951000D02*
X65500000Y-125204082D01*
X64549000Y-118000000D02*
X65500000Y-118951000D01*
X65451000Y-73376541D02*
X64500000Y-74327541D01*
X64500000Y-74327541D02*
X64500000Y-79172459D01*
X65500000Y-105951000D02*
X65500000Y-112204082D01*
X65500000Y-93201000D02*
X65500000Y-99454082D01*
X64549000Y-113155082D02*
X64549000Y-118000000D01*
X65500000Y-99454082D02*
X64549000Y-100405082D01*
X65500000Y-79951000D02*
X65500000Y-86204082D01*
X64549000Y-100405082D02*
X64549000Y-105250000D01*
X64549000Y-105000000D02*
X65500000Y-105951000D01*
X64500000Y-61405082D02*
X64500000Y-66250000D01*
X65451000Y-60454082D02*
X64500000Y-61405082D01*
X65500000Y-112204082D02*
X64549000Y-113155082D01*
X64549000Y-92250000D02*
X65500000Y-93201000D01*
X65451000Y-54201000D02*
X65451000Y-60454082D01*
X65500000Y-125204082D02*
X64549000Y-126155082D01*
X65500000Y-86204082D02*
X64549000Y-87155082D01*
%TO.N,A26*%
X114598000Y-104922459D02*
X115549000Y-105873459D01*
X115500000Y-73143918D02*
X114549000Y-74094918D01*
X114598000Y-100172459D02*
X114598000Y-105172459D01*
X114598000Y-113152000D02*
X114598000Y-117922459D01*
X115549000Y-105873459D02*
X115549000Y-112201000D01*
X114598000Y-92172459D02*
X115549000Y-93123459D01*
X114549000Y-74094918D02*
X114549000Y-79094918D01*
X115549000Y-112201000D02*
X114598000Y-113152000D01*
X114549000Y-61172459D02*
X114549000Y-66172459D01*
X115549000Y-125127368D02*
X114598000Y-126078368D01*
X114598000Y-117922459D02*
X115549000Y-118873459D01*
X114598000Y-87152000D02*
X114598000Y-91922459D01*
X115549000Y-86201000D02*
X114598000Y-87152000D01*
X115549000Y-93123459D02*
X115549000Y-99221459D01*
X115500000Y-54123459D02*
X115500000Y-60221459D01*
X115500000Y-60221459D02*
X114549000Y-61172459D01*
X115500000Y-67045918D02*
X115500000Y-73143918D01*
X115549000Y-118873459D02*
X115549000Y-125127368D01*
X115549000Y-99221459D02*
X114598000Y-100172459D01*
X114549000Y-53172459D02*
X115500000Y-54123459D01*
X114598000Y-126078368D02*
X114598000Y-130922459D01*
X114598000Y-78922459D02*
X115549000Y-79873459D01*
X114549000Y-66094918D02*
X115500000Y-67045918D01*
X115549000Y-79873459D02*
X115549000Y-86201000D01*
%TO.N,A22*%
X118598000Y-100327541D02*
X118598000Y-105172459D01*
X118598000Y-126077541D02*
X118598000Y-130922459D01*
X118549000Y-61327541D02*
X118549000Y-66172459D01*
X119598000Y-93172459D02*
X119598000Y-99327541D01*
X119549000Y-67094918D02*
X119549000Y-73250000D01*
X118549000Y-66094918D02*
X119549000Y-67094918D01*
X118598000Y-78922459D02*
X119598000Y-79922459D01*
X118598000Y-104922459D02*
X119598000Y-105922459D01*
X118598000Y-117922459D02*
X119598000Y-118922459D01*
X119598000Y-118922459D02*
X119598000Y-125077541D01*
X118598000Y-113077541D02*
X118598000Y-117922459D01*
X119549000Y-60327541D02*
X118549000Y-61327541D01*
X119598000Y-112077541D02*
X118598000Y-113077541D01*
X119598000Y-86077541D02*
X118598000Y-87077541D01*
X118598000Y-87077541D02*
X118598000Y-91922459D01*
X119598000Y-99327541D02*
X118598000Y-100327541D01*
X119598000Y-125077541D02*
X118598000Y-126077541D01*
X118549000Y-74250000D02*
X118549000Y-79094918D01*
X119598000Y-79922459D02*
X119598000Y-86077541D01*
X118598000Y-92172459D02*
X119598000Y-93172459D01*
X119598000Y-105922459D02*
X119598000Y-112077541D01*
X119549000Y-73250000D02*
X118549000Y-74250000D01*
X119549000Y-54172459D02*
X119549000Y-60327541D01*
X118549000Y-53172459D02*
X119549000Y-54172459D01*
%TO.N,A52*%
X89500000Y-67045918D02*
X89500000Y-73299000D01*
X89549000Y-125126541D02*
X88598000Y-126077541D01*
X88598000Y-87077541D02*
X88598000Y-91922459D01*
X88598000Y-78922459D02*
X89549000Y-79873459D01*
X88598000Y-113077541D02*
X88598000Y-117922459D01*
X89549000Y-99376541D02*
X88598000Y-100327541D01*
X89549000Y-105873459D02*
X89549000Y-112126541D01*
X88549000Y-74250000D02*
X88549000Y-79094918D01*
X89549000Y-112126541D02*
X88598000Y-113077541D01*
X88598000Y-117922459D02*
X89549000Y-118873459D01*
X89549000Y-118873459D02*
X89549000Y-125126541D01*
X89500000Y-73299000D02*
X88549000Y-74250000D01*
X88598000Y-104922459D02*
X89549000Y-105873459D01*
X88549000Y-66094918D02*
X89500000Y-67045918D01*
X89500000Y-54123459D02*
X89500000Y-60376541D01*
X88549000Y-61327541D02*
X88549000Y-66172459D01*
X88549000Y-53172459D02*
X89500000Y-54123459D01*
X89500000Y-60376541D02*
X88549000Y-61327541D01*
X88598000Y-126077541D02*
X88598000Y-130922459D01*
X89549000Y-93123459D02*
X89549000Y-99376541D01*
X89549000Y-86126541D02*
X88598000Y-87077541D01*
X89549000Y-79873459D02*
X89549000Y-86126541D01*
X88598000Y-100327541D02*
X88598000Y-105172459D01*
X88598000Y-92172459D02*
X89549000Y-93123459D01*
%TO.N,A54*%
X86598000Y-87077541D02*
X86598000Y-91922459D01*
X87598000Y-112077541D02*
X86598000Y-113077541D01*
X87598000Y-125077541D02*
X86598000Y-126077541D01*
X86549000Y-74250000D02*
X86549000Y-79094918D01*
X86598000Y-78922459D02*
X87598000Y-79922459D01*
X87598000Y-93172459D02*
X87598000Y-99327541D01*
X87549000Y-67094918D02*
X87549000Y-73250000D01*
X87549000Y-73250000D02*
X86549000Y-74250000D01*
X86598000Y-92172459D02*
X87598000Y-93172459D01*
X86549000Y-53172459D02*
X87549000Y-54172459D01*
X86598000Y-100327541D02*
X86598000Y-105172459D01*
X87598000Y-118922459D02*
X87598000Y-125077541D01*
X87598000Y-86077541D02*
X86598000Y-87077541D01*
X86598000Y-104922459D02*
X87598000Y-105922459D01*
X87598000Y-99327541D02*
X86598000Y-100327541D01*
X87598000Y-79922459D02*
X87598000Y-86077541D01*
X87598000Y-105922459D02*
X87598000Y-112077541D01*
X86549000Y-66094918D02*
X87549000Y-67094918D01*
X87549000Y-60327541D02*
X86549000Y-61327541D01*
X86598000Y-113077541D02*
X86598000Y-117922459D01*
X87549000Y-54172459D02*
X87549000Y-60327541D01*
X86598000Y-126077541D02*
X86598000Y-130922459D01*
X86549000Y-61327541D02*
X86549000Y-66172459D01*
X86598000Y-117922459D02*
X87598000Y-118922459D01*
%TO.N,A4*%
X139549000Y-93123459D02*
X139549000Y-99376541D01*
X139549000Y-105873459D02*
X139549000Y-112126541D01*
X138549000Y-53172459D02*
X139500000Y-54123459D01*
X138598000Y-87077541D02*
X138598000Y-91922459D01*
X138598000Y-126077541D02*
X138598000Y-130922459D01*
X139549000Y-86126541D02*
X138598000Y-87077541D01*
X138598000Y-100327541D02*
X138598000Y-105172459D01*
X139500000Y-60376541D02*
X138549000Y-61327541D01*
X138598000Y-92172459D02*
X139549000Y-93123459D01*
X139500000Y-67045918D02*
X139500000Y-73299000D01*
X139549000Y-79873459D02*
X139549000Y-86126541D01*
X138549000Y-61327541D02*
X138549000Y-66172459D01*
X138598000Y-78922459D02*
X139549000Y-79873459D01*
X139500000Y-54123459D02*
X139500000Y-60376541D01*
X139549000Y-125126541D02*
X138598000Y-126077541D01*
X139549000Y-112126541D02*
X138598000Y-113077541D01*
X139549000Y-118873459D02*
X139549000Y-125126541D01*
X138549000Y-66094918D02*
X139500000Y-67045918D01*
X139549000Y-99376541D02*
X138598000Y-100327541D01*
X138549000Y-74250000D02*
X138549000Y-79094918D01*
X138598000Y-104922459D02*
X139549000Y-105873459D01*
X138598000Y-117922459D02*
X139549000Y-118873459D01*
X138598000Y-113077541D02*
X138598000Y-117922459D01*
X139500000Y-73299000D02*
X138549000Y-74250000D01*
%TO.N,A66*%
X74598000Y-100172459D02*
X74598000Y-105172459D01*
X75500000Y-60221459D02*
X74549000Y-61172459D01*
X75500000Y-67045918D02*
X75500000Y-73143918D01*
X74549000Y-66094918D02*
X75500000Y-67045918D01*
X75549000Y-99221459D02*
X74598000Y-100172459D01*
X75549000Y-86211230D02*
X74598000Y-87162230D01*
X75500000Y-73143918D02*
X74549000Y-74094918D01*
X74598000Y-78922459D02*
X75549000Y-79873459D01*
X74598000Y-113162230D02*
X74598000Y-117922459D01*
X75549000Y-118873459D02*
X75549000Y-125201000D01*
X75549000Y-125201000D02*
X74598000Y-126152000D01*
X74549000Y-61172459D02*
X74549000Y-66172459D01*
X74598000Y-87162230D02*
X74598000Y-91922459D01*
X74549000Y-53172459D02*
X75500000Y-54123459D01*
X74598000Y-92172459D02*
X75549000Y-93123459D01*
X75549000Y-112211230D02*
X74598000Y-113162230D01*
X75549000Y-105873459D02*
X75549000Y-112211230D01*
X75549000Y-93123459D02*
X75549000Y-99221459D01*
X75500000Y-54123459D02*
X75500000Y-60221459D01*
X74598000Y-126152000D02*
X74598000Y-130922459D01*
X74598000Y-117922459D02*
X75549000Y-118873459D01*
X75549000Y-79873459D02*
X75549000Y-86211230D01*
X74549000Y-74094918D02*
X74549000Y-79094918D01*
X74598000Y-104922459D02*
X75549000Y-105873459D01*
%TO.N,A6*%
X137598000Y-79922459D02*
X137598000Y-86077541D01*
X136598000Y-117922459D02*
X137598000Y-118922459D01*
X136598000Y-104922459D02*
X137598000Y-105922459D01*
X136598000Y-100327541D02*
X136598000Y-105172459D01*
X137549000Y-73250000D02*
X136549000Y-74250000D01*
X137598000Y-86077541D02*
X136598000Y-87077541D01*
X137598000Y-99327541D02*
X136598000Y-100327541D01*
X136598000Y-87077541D02*
X136598000Y-91922459D01*
X136598000Y-126077541D02*
X136598000Y-130922459D01*
X137598000Y-93172459D02*
X137598000Y-99327541D01*
X136549000Y-61327541D02*
X136549000Y-66172459D01*
X136549000Y-66094918D02*
X137549000Y-67094918D01*
X137598000Y-118922459D02*
X137598000Y-125077541D01*
X136598000Y-92172459D02*
X137598000Y-93172459D01*
X137549000Y-54172459D02*
X137549000Y-60327541D01*
X136549000Y-53172459D02*
X137549000Y-54172459D01*
X136549000Y-74250000D02*
X136549000Y-79094918D01*
X136598000Y-78922459D02*
X137598000Y-79922459D01*
X136598000Y-113077541D02*
X136598000Y-117922459D01*
X137549000Y-60327541D02*
X136549000Y-61327541D01*
X137598000Y-125077541D02*
X136598000Y-126077541D01*
X137598000Y-105922459D02*
X137598000Y-112077541D01*
X137598000Y-112077541D02*
X136598000Y-113077541D01*
X137549000Y-67094918D02*
X137549000Y-73250000D01*
%TO.N,A12*%
X128500000Y-90000000D02*
X128500000Y-92250000D01*
X128500000Y-129000000D02*
X128500000Y-131250000D01*
X128274000Y-102652801D02*
X128500000Y-102878801D01*
X129401000Y-54151000D02*
X129401000Y-61123207D01*
X129401000Y-126220199D02*
X128274000Y-127347199D01*
X128500000Y-79250000D02*
X129401000Y-80151000D01*
X128500000Y-92250000D02*
X129401000Y-93151000D01*
X129401000Y-93151000D02*
X129401000Y-100220199D01*
X128274000Y-128774000D02*
X128500000Y-129000000D01*
X128500000Y-118250000D02*
X129401000Y-119151000D01*
X128500000Y-102878801D02*
X128500000Y-105250000D01*
X128274000Y-89774000D02*
X128500000Y-90000000D01*
X128274000Y-76774000D02*
X128500000Y-77000000D01*
X128500000Y-105250000D02*
X129401000Y-106151000D01*
X127873207Y-62651000D02*
X127873207Y-63349000D01*
X129401000Y-100220199D02*
X128274000Y-101347199D01*
X128274000Y-88347199D02*
X128274000Y-89774000D01*
X128274000Y-114226000D02*
X128274000Y-115652801D01*
X128274000Y-101347199D02*
X128274000Y-102652801D01*
X129401000Y-67151000D02*
X129401000Y-74099000D01*
X129401000Y-119151000D02*
X129401000Y-126220199D01*
X128500000Y-115878801D02*
X128500000Y-118250000D01*
X129401000Y-61123207D02*
X127873207Y-62651000D01*
X128500000Y-63975793D02*
X128500000Y-66250000D01*
X129401000Y-106151000D02*
X129401000Y-113099000D01*
X128274000Y-115652801D02*
X128500000Y-115878801D01*
X128500000Y-53250000D02*
X129401000Y-54151000D01*
X128500000Y-66250000D02*
X129401000Y-67151000D01*
X129401000Y-87220199D02*
X128274000Y-88347199D01*
X128274000Y-75226000D02*
X128274000Y-76774000D01*
X128274000Y-127347199D02*
X128274000Y-128774000D01*
X129401000Y-74099000D02*
X128274000Y-75226000D01*
X127873207Y-63349000D02*
X128500000Y-63975793D01*
X129401000Y-80151000D02*
X129401000Y-87220199D01*
X128500000Y-77000000D02*
X128500000Y-79250000D01*
X129401000Y-113099000D02*
X128274000Y-114226000D01*
%TO.N,A62*%
X79598000Y-99327541D02*
X78598000Y-100327541D01*
X78549000Y-74250000D02*
X78549000Y-79094918D01*
X78598000Y-100327541D02*
X78598000Y-105172459D01*
X78598000Y-92172459D02*
X79598000Y-93172459D01*
X79598000Y-112077541D02*
X78598000Y-113077541D01*
X78598000Y-113077541D02*
X78598000Y-117922459D01*
X78549000Y-53172459D02*
X79549000Y-54172459D01*
X78549000Y-66094918D02*
X79549000Y-67094918D01*
X79549000Y-54172459D02*
X79549000Y-60327541D01*
X78598000Y-104922459D02*
X79598000Y-105922459D01*
X79549000Y-60327541D02*
X78549000Y-61327541D01*
X79598000Y-125077541D02*
X78598000Y-126077541D01*
X79549000Y-73250000D02*
X78549000Y-74250000D01*
X78598000Y-87077541D02*
X78598000Y-91922459D01*
X78549000Y-61327541D02*
X78549000Y-66172459D01*
X79598000Y-118922459D02*
X79598000Y-125077541D01*
X79598000Y-79922459D02*
X79598000Y-86077541D01*
X79598000Y-105922459D02*
X79598000Y-112077541D01*
X78598000Y-78922459D02*
X79598000Y-79922459D01*
X78598000Y-117922459D02*
X79598000Y-118922459D01*
X78598000Y-126077541D02*
X78598000Y-130922459D01*
X79598000Y-93172459D02*
X79598000Y-99327541D01*
X79549000Y-67094918D02*
X79549000Y-73250000D01*
X79598000Y-86077541D02*
X78598000Y-87077541D01*
%TO.N,A36*%
X105549000Y-125126541D02*
X104598000Y-126077541D01*
X104549000Y-66094918D02*
X105500000Y-67045918D01*
X105549000Y-79873459D02*
X105549000Y-86126541D01*
X105549000Y-112126541D02*
X104598000Y-113077541D01*
X104598000Y-78922459D02*
X105549000Y-79873459D01*
X105549000Y-105873459D02*
X105549000Y-112126541D01*
X104598000Y-100327541D02*
X104598000Y-105172459D01*
X104598000Y-92172459D02*
X105549000Y-93123459D01*
X105500000Y-60376541D02*
X104549000Y-61327541D01*
X105500000Y-73299000D02*
X104549000Y-74250000D01*
X104598000Y-113077541D02*
X104598000Y-117922459D01*
X104598000Y-104922459D02*
X105549000Y-105873459D01*
X104549000Y-74250000D02*
X104549000Y-79094918D01*
X105549000Y-118873459D02*
X105549000Y-125126541D01*
X105549000Y-99376541D02*
X104598000Y-100327541D01*
X105549000Y-93123459D02*
X105549000Y-99376541D01*
X104549000Y-61327541D02*
X104549000Y-66172459D01*
X105549000Y-86126541D02*
X104598000Y-87077541D01*
X104549000Y-53172459D02*
X105500000Y-54123459D01*
X104598000Y-87077541D02*
X104598000Y-91922459D01*
X105500000Y-67045918D02*
X105500000Y-73299000D01*
X104598000Y-126077541D02*
X104598000Y-130922459D01*
X105500000Y-54123459D02*
X105500000Y-60376541D01*
X104598000Y-117922459D02*
X105549000Y-118873459D01*
%TO.N,A38*%
X103598000Y-112077541D02*
X102598000Y-113077541D01*
X102598000Y-126077541D02*
X102598000Y-130922459D01*
X103598000Y-93172459D02*
X103598000Y-99327541D01*
X103598000Y-105922459D02*
X103598000Y-112077541D01*
X102549000Y-66094918D02*
X103549000Y-67094918D01*
X102598000Y-100327541D02*
X102598000Y-105172459D01*
X103549000Y-67094918D02*
X103549000Y-73250000D01*
X103598000Y-86077541D02*
X102598000Y-87077541D01*
X102598000Y-117922459D02*
X103598000Y-118922459D01*
X103598000Y-118922459D02*
X103598000Y-125077541D01*
X102549000Y-53172459D02*
X103549000Y-54172459D01*
X103598000Y-99327541D02*
X102598000Y-100327541D01*
X102598000Y-78922459D02*
X103598000Y-79922459D01*
X102598000Y-92172459D02*
X103598000Y-93172459D01*
X103549000Y-54172459D02*
X103549000Y-60327541D01*
X102549000Y-61327541D02*
X102549000Y-66172459D01*
X102549000Y-74250000D02*
X102549000Y-79094918D01*
X103549000Y-73250000D02*
X102549000Y-74250000D01*
X103598000Y-125077541D02*
X102598000Y-126077541D01*
X103598000Y-79922459D02*
X103598000Y-86077541D01*
X102598000Y-113077541D02*
X102598000Y-117922459D01*
X103549000Y-60327541D02*
X102549000Y-61327541D01*
X102598000Y-87077541D02*
X102598000Y-91922459D01*
X102598000Y-104922459D02*
X103598000Y-105922459D01*
%TO.N,A70*%
X70598000Y-104922459D02*
X71598000Y-105922459D01*
X71549000Y-60327541D02*
X70549000Y-61327541D01*
X70549000Y-61327541D02*
X70549000Y-66172459D01*
X70598000Y-100327541D02*
X70598000Y-105172459D01*
X70549000Y-66094918D02*
X71549000Y-67094918D01*
X71598000Y-79922459D02*
X71598000Y-86077541D01*
X71549000Y-54172459D02*
X71549000Y-60327541D01*
X71549000Y-67094918D02*
X71549000Y-73250000D01*
X71598000Y-112077541D02*
X70598000Y-113077541D01*
X71549000Y-73250000D02*
X70549000Y-74250000D01*
X70598000Y-78922459D02*
X71598000Y-79922459D01*
X71598000Y-125077541D02*
X70598000Y-126077541D01*
X70549000Y-53172459D02*
X71549000Y-54172459D01*
X70598000Y-126077541D02*
X70598000Y-130922459D01*
X71598000Y-105922459D02*
X71598000Y-112077541D01*
X70598000Y-87077541D02*
X70598000Y-91922459D01*
X71598000Y-99327541D02*
X70598000Y-100327541D01*
X70549000Y-74250000D02*
X70549000Y-79094918D01*
X71598000Y-93172459D02*
X71598000Y-99327541D01*
X70598000Y-113077541D02*
X70598000Y-117922459D01*
X70598000Y-92172459D02*
X71598000Y-93172459D01*
X70598000Y-117922459D02*
X71598000Y-118922459D01*
X71598000Y-118922459D02*
X71598000Y-125077541D01*
X71598000Y-86077541D02*
X70598000Y-87077541D01*
%TO.N,A58*%
X82598000Y-113037904D02*
X82598000Y-117922459D01*
X82598000Y-117922459D02*
X83549000Y-118873459D01*
X83500000Y-54123459D02*
X83500000Y-60221459D01*
X82598000Y-126152000D02*
X82598000Y-130922459D01*
X83549000Y-118873459D02*
X83549000Y-125201000D01*
X82598000Y-100172459D02*
X82598000Y-105172459D01*
X83549000Y-79873459D02*
X83549000Y-86211230D01*
X82598000Y-104922459D02*
X83549000Y-105873459D01*
X83549000Y-125201000D02*
X82598000Y-126152000D01*
X82549000Y-53172459D02*
X83500000Y-54123459D01*
X82598000Y-92172459D02*
X83549000Y-93123459D01*
X83549000Y-99221459D02*
X82598000Y-100172459D01*
X83500000Y-60221459D02*
X82549000Y-61172459D01*
X83549000Y-93123459D02*
X83549000Y-99221459D01*
X83500000Y-67045918D02*
X83500000Y-73143918D01*
X83549000Y-86211230D02*
X82598000Y-87162230D01*
X83549000Y-105873459D02*
X83549000Y-112086904D01*
X82598000Y-87162230D02*
X82598000Y-91922459D01*
X82549000Y-61172459D02*
X82549000Y-66172459D01*
X82549000Y-66094918D02*
X83500000Y-67045918D01*
X83549000Y-112086904D02*
X82598000Y-113037904D01*
X82549000Y-74094918D02*
X82549000Y-79094918D01*
X83500000Y-73143918D02*
X82549000Y-74094918D01*
X82598000Y-78922459D02*
X83549000Y-79873459D01*
%TO.N,A14*%
X127598000Y-112077541D02*
X126598000Y-113077541D01*
X126598000Y-126077541D02*
X126598000Y-130922459D01*
X126598000Y-117922459D02*
X127598000Y-118922459D01*
X126549000Y-74250000D02*
X126549000Y-79094918D01*
X127598000Y-86077541D02*
X126598000Y-87077541D01*
X127598000Y-99327541D02*
X126598000Y-100327541D01*
X127598000Y-118922459D02*
X127598000Y-125077541D01*
X126598000Y-113077541D02*
X126598000Y-117922459D01*
X126598000Y-87077541D02*
X126598000Y-91922459D01*
X127549000Y-73250000D02*
X126549000Y-74250000D01*
X126598000Y-104922459D02*
X127598000Y-105922459D01*
X127598000Y-79922459D02*
X127598000Y-86077541D01*
X126598000Y-100327541D02*
X126598000Y-105172459D01*
X126598000Y-78922459D02*
X127598000Y-79922459D01*
X127549000Y-67094918D02*
X127549000Y-73250000D01*
X127598000Y-125077541D02*
X126598000Y-126077541D01*
X127549000Y-60327541D02*
X126549000Y-61327541D01*
X126549000Y-61327541D02*
X126549000Y-66172459D01*
X126549000Y-53172459D02*
X127549000Y-54172459D01*
X127598000Y-105922459D02*
X127598000Y-112077541D01*
X126598000Y-92172459D02*
X127598000Y-93172459D01*
X127549000Y-54172459D02*
X127549000Y-60327541D01*
X126549000Y-66094918D02*
X127549000Y-67094918D01*
X127598000Y-93172459D02*
X127598000Y-99327541D01*
%TO.N,A8*%
X134598000Y-126077541D02*
X134598000Y-130922459D01*
X135500000Y-67045918D02*
X135500000Y-73299000D01*
X134598000Y-113077541D02*
X134598000Y-117922459D01*
X135500000Y-60376541D02*
X134549000Y-61327541D01*
X135549000Y-93123459D02*
X135549000Y-99376541D01*
X135549000Y-86126541D02*
X134598000Y-87077541D01*
X134598000Y-78922459D02*
X135549000Y-79873459D01*
X135549000Y-105873459D02*
X135549000Y-112126541D01*
X134549000Y-74250000D02*
X134549000Y-79094918D01*
X134549000Y-61327541D02*
X134549000Y-66172459D01*
X135500000Y-73299000D02*
X134549000Y-74250000D01*
X134549000Y-53172459D02*
X135500000Y-54123459D01*
X134598000Y-117922459D02*
X135549000Y-118873459D01*
X135549000Y-79873459D02*
X135549000Y-86126541D01*
X134598000Y-92172459D02*
X135549000Y-93123459D01*
X134598000Y-100327541D02*
X134598000Y-105172459D01*
X134598000Y-87077541D02*
X134598000Y-91922459D01*
X134549000Y-66094918D02*
X135500000Y-67045918D01*
X135549000Y-118873459D02*
X135549000Y-125126541D01*
X134598000Y-104922459D02*
X135549000Y-105873459D01*
X135549000Y-112126541D02*
X134598000Y-113077541D01*
X135500000Y-54123459D02*
X135500000Y-60376541D01*
X135549000Y-99376541D02*
X134598000Y-100327541D01*
X135549000Y-125126541D02*
X134598000Y-126077541D01*
%TO.N,A16*%
X125549000Y-93123459D02*
X125549000Y-99376541D01*
X125549000Y-112126541D02*
X124598000Y-113077541D01*
X125549000Y-86126541D02*
X124598000Y-87077541D01*
X124598000Y-104922459D02*
X125549000Y-105873459D01*
X125500000Y-54123459D02*
X125500000Y-60376541D01*
X124598000Y-117922459D02*
X125549000Y-118873459D01*
X125549000Y-99376541D02*
X124598000Y-100327541D01*
X124549000Y-61327541D02*
X124549000Y-66172459D01*
X124598000Y-126077541D02*
X124598000Y-130922459D01*
X124549000Y-53172459D02*
X125500000Y-54123459D01*
X124598000Y-113077541D02*
X124598000Y-117922459D01*
X124598000Y-78922459D02*
X125549000Y-79873459D01*
X124549000Y-74250000D02*
X124549000Y-79094918D01*
X125500000Y-60376541D02*
X124549000Y-61327541D01*
X125549000Y-79873459D02*
X125549000Y-86126541D01*
X124549000Y-66094918D02*
X125500000Y-67045918D01*
X125549000Y-118873459D02*
X125549000Y-125126541D01*
X125500000Y-67045918D02*
X125500000Y-73299000D01*
X124598000Y-87077541D02*
X124598000Y-91922459D01*
X124598000Y-92172459D02*
X125549000Y-93123459D01*
X125549000Y-105873459D02*
X125549000Y-112126541D01*
X124598000Y-100327541D02*
X124598000Y-105172459D01*
X125549000Y-125126541D02*
X124598000Y-126077541D01*
X125500000Y-73299000D02*
X124549000Y-74250000D01*
%TO.N,A10*%
X133500000Y-60221459D02*
X132549000Y-61172459D01*
X132549000Y-66094918D02*
X133500000Y-67045918D01*
X133549000Y-79873459D02*
X133549000Y-86211230D01*
X133500000Y-67045918D02*
X133500000Y-73143918D01*
X132598000Y-113152000D02*
X132598000Y-117922459D01*
X132549000Y-61172459D02*
X132549000Y-66172459D01*
X133549000Y-86211230D02*
X132598000Y-87162230D01*
X132598000Y-92172459D02*
X133549000Y-93123459D01*
X132598000Y-78922459D02*
X133549000Y-79873459D01*
X132549000Y-53172459D02*
X133500000Y-54123459D01*
X133549000Y-93123459D02*
X133549000Y-99221459D01*
X133500000Y-73143918D02*
X132549000Y-74094918D01*
X132598000Y-104922459D02*
X133549000Y-105873459D01*
X132598000Y-100172459D02*
X132598000Y-105172459D01*
X133500000Y-54123459D02*
X133500000Y-60221459D01*
X133549000Y-105873459D02*
X133549000Y-112201000D01*
X132598000Y-126152000D02*
X132598000Y-130922459D01*
X133549000Y-118873459D02*
X133549000Y-125201000D01*
X133549000Y-125201000D02*
X132598000Y-126152000D01*
X133549000Y-112201000D02*
X132598000Y-113152000D01*
X133549000Y-99221459D02*
X132598000Y-100172459D01*
X132598000Y-117922459D02*
X133549000Y-118873459D01*
X132598000Y-87162230D02*
X132598000Y-91922459D01*
X132549000Y-74094918D02*
X132549000Y-79094918D01*
%TO.N,A74*%
X66598000Y-117922459D02*
X67549000Y-118873459D01*
X67549000Y-125173779D02*
X66598000Y-126124779D01*
X67549000Y-105873459D02*
X67549000Y-112211230D01*
X66598000Y-104922459D02*
X67549000Y-105873459D01*
X67549000Y-118873459D02*
X67549000Y-125173779D01*
X66598000Y-126124779D02*
X66598000Y-130922459D01*
X66549000Y-53172459D02*
X67500000Y-54123459D01*
X66598000Y-78922459D02*
X67549000Y-79873459D01*
X67500000Y-73143918D02*
X66549000Y-74094918D01*
X67500000Y-54123459D02*
X67500000Y-60221459D01*
X67549000Y-86211230D02*
X66598000Y-87162230D01*
X66549000Y-66094918D02*
X67500000Y-67045918D01*
X67549000Y-79873459D02*
X67549000Y-86211230D01*
X67549000Y-112211230D02*
X66598000Y-113162230D01*
X67549000Y-93123459D02*
X67549000Y-99221459D01*
X67549000Y-99221459D02*
X66598000Y-100172459D01*
X67500000Y-67045918D02*
X67500000Y-73143918D01*
X66598000Y-87162230D02*
X66598000Y-91922459D01*
X66598000Y-92172459D02*
X67549000Y-93123459D01*
X66598000Y-113162230D02*
X66598000Y-117922459D01*
X66549000Y-61172459D02*
X66549000Y-66172459D01*
X66598000Y-100172459D02*
X66598000Y-105172459D01*
X67500000Y-60221459D02*
X66549000Y-61172459D01*
X66549000Y-74094918D02*
X66549000Y-79094918D01*
%TO.N,A34*%
X107500000Y-54123459D02*
X107500000Y-60221459D01*
X107549000Y-125201000D02*
X106598000Y-126152000D01*
X107500000Y-73143918D02*
X106549000Y-74094918D01*
X107500000Y-67045918D02*
X107500000Y-73143918D01*
X106549000Y-74094918D02*
X106549000Y-79094918D01*
X107549000Y-118873459D02*
X107549000Y-125201000D01*
X107549000Y-99221459D02*
X106598000Y-100172459D01*
X106549000Y-53172459D02*
X107500000Y-54123459D01*
X106598000Y-100172459D02*
X106598000Y-105172459D01*
X107500000Y-60221459D02*
X106549000Y-61172459D01*
X106598000Y-126152000D02*
X106598000Y-130922459D01*
X106598000Y-87152000D02*
X106598000Y-91922459D01*
X107549000Y-79873459D02*
X107549000Y-86201000D01*
X106598000Y-113162230D02*
X106598000Y-117922459D01*
X106598000Y-117922459D02*
X107549000Y-118873459D01*
X107549000Y-112211230D02*
X106598000Y-113162230D01*
X106598000Y-78922459D02*
X107549000Y-79873459D01*
X106549000Y-61172459D02*
X106549000Y-66172459D01*
X106549000Y-66094918D02*
X107500000Y-67045918D01*
X106598000Y-92172459D02*
X107549000Y-93123459D01*
X107549000Y-86201000D02*
X106598000Y-87152000D01*
X107549000Y-105873459D02*
X107549000Y-112211230D01*
X106598000Y-104922459D02*
X107549000Y-105873459D01*
X107549000Y-93123459D02*
X107549000Y-99221459D01*
%TO.N,A40*%
X101500000Y-60376541D02*
X100549000Y-61327541D01*
X100598000Y-104922459D02*
X101549000Y-105873459D01*
X100598000Y-78922459D02*
X101549000Y-79873459D01*
X100549000Y-74250000D02*
X100549000Y-79094918D01*
X101500000Y-67045918D02*
X101500000Y-73299000D01*
X101549000Y-93123459D02*
X101549000Y-99376541D01*
X100549000Y-66094918D02*
X101500000Y-67045918D01*
X100598000Y-126077541D02*
X100598000Y-130922459D01*
X101500000Y-73299000D02*
X100549000Y-74250000D01*
X101549000Y-105873459D02*
X101549000Y-112126541D01*
X101549000Y-99376541D02*
X100598000Y-100327541D01*
X101500000Y-54123459D02*
X101500000Y-60376541D01*
X100549000Y-53172459D02*
X101500000Y-54123459D01*
X100598000Y-100327541D02*
X100598000Y-105172459D01*
X101549000Y-79873459D02*
X101549000Y-86126541D01*
X101549000Y-112126541D02*
X100598000Y-113077541D01*
X100598000Y-117922459D02*
X101549000Y-118873459D01*
X101549000Y-125126541D02*
X100598000Y-126077541D01*
X100549000Y-61327541D02*
X100549000Y-66172459D01*
X100598000Y-92172459D02*
X101549000Y-93123459D01*
X101549000Y-86126541D02*
X100598000Y-87077541D01*
X101549000Y-118873459D02*
X101549000Y-125126541D01*
X100598000Y-87077541D02*
X100598000Y-91922459D01*
X100598000Y-113077541D02*
X100598000Y-117922459D01*
%TO.N,A50*%
X91500000Y-60221459D02*
X90549000Y-61172459D01*
X91549000Y-112211230D02*
X90598000Y-113162230D01*
X91549000Y-99221459D02*
X90598000Y-100172459D01*
X91549000Y-93123459D02*
X91549000Y-99221459D01*
X90549000Y-61172459D02*
X90549000Y-66172459D01*
X90549000Y-53172459D02*
X91500000Y-54123459D01*
X91500000Y-54123459D02*
X91500000Y-60221459D01*
X91549000Y-86211230D02*
X90598000Y-87162230D01*
X90598000Y-100172459D02*
X90598000Y-105172459D01*
X90598000Y-78922459D02*
X91549000Y-79873459D01*
X90598000Y-87162230D02*
X90598000Y-91922459D01*
X90549000Y-66094918D02*
X91500000Y-67045918D01*
X90598000Y-92172459D02*
X91549000Y-93123459D01*
X90598000Y-113162230D02*
X90598000Y-117922459D01*
X90598000Y-117922459D02*
X91549000Y-118873459D01*
X90598000Y-126162230D02*
X90598000Y-130922459D01*
X91549000Y-125211230D02*
X90598000Y-126162230D01*
X91549000Y-118873459D02*
X91549000Y-125211230D01*
X91500000Y-73143918D02*
X90549000Y-74094918D01*
X90549000Y-74094918D02*
X90549000Y-79094918D01*
X91549000Y-105873459D02*
X91549000Y-112211230D01*
X91500000Y-67045918D02*
X91500000Y-73143918D01*
X91549000Y-79873459D02*
X91549000Y-86211230D01*
X90598000Y-104922459D02*
X91549000Y-105873459D01*
%TD*%
M02*
