%TF.GenerationSoftware,KiCad,Pcbnew,9.0.2*%
%TF.CreationDate,2026-05-12T23:08:37-04:00*%
%TF.ProjectId,Santas Microfactory - Backplane,53616e74-6173-4204-9d69-63726f666163,rev?*%
%TF.SameCoordinates,Original*%
%TF.FileFunction,Soldermask,Bot*%
%TF.FilePolarity,Negative*%
%FSLAX46Y46*%
G04 Gerber Fmt 4.6, Leading zero omitted, Abs format (unit mm)*
G04 Created by KiCad (PCBNEW 9.0.2) date 2026-05-12 23:08:37*
%MOMM*%
%LPD*%
G01*
G04 APERTURE LIST*
%ADD10C,0.800000*%
%ADD11C,6.400000*%
%ADD12C,2.350000*%
%ADD13C,1.200000*%
G04 APERTURE END LIST*
D10*
%TO.C,H5*%
X149400000Y-56600000D03*
X148697056Y-58297056D03*
X148697056Y-54902944D03*
X147000000Y-59000000D03*
D11*
X147000000Y-56600000D03*
D10*
X147000000Y-54200000D03*
X145302944Y-58297056D03*
X145302944Y-54902944D03*
X144600000Y-56600000D03*
%TD*%
%TO.C,H1*%
X55400000Y-56600000D03*
X54697056Y-58297056D03*
X54697056Y-54902944D03*
X53000000Y-59000000D03*
D11*
X53000000Y-56600000D03*
D10*
X53000000Y-54200000D03*
X51302944Y-58297056D03*
X51302944Y-54902944D03*
X50600000Y-56600000D03*
%TD*%
%TO.C,H6*%
X144600000Y-121500000D03*
X145302944Y-119802944D03*
X145302944Y-123197056D03*
X147000000Y-119100000D03*
D11*
X147000000Y-121500000D03*
D10*
X147000000Y-123900000D03*
X148697056Y-119802944D03*
X148697056Y-123197056D03*
X149400000Y-121500000D03*
%TD*%
%TO.C,H3*%
X50600000Y-121500000D03*
X51302944Y-119802944D03*
X51302944Y-123197056D03*
X53000000Y-119100000D03*
D11*
X53000000Y-121500000D03*
D10*
X53000000Y-123900000D03*
X54697056Y-119802944D03*
X54697056Y-123197056D03*
X55400000Y-121500000D03*
%TD*%
D12*
%TO.C,CN2*%
X129850000Y-63000000D03*
X56700000Y-63000000D03*
D13*
X141500000Y-64250000D03*
X140500000Y-66250000D03*
X139500000Y-64250000D03*
X138500000Y-66250000D03*
X137500000Y-64250000D03*
X136500000Y-66250000D03*
X135500000Y-64250000D03*
X134500000Y-66250000D03*
X133500000Y-64250000D03*
X132500000Y-66250000D03*
X131500000Y-64250000D03*
X128500000Y-66250000D03*
X127500000Y-64250000D03*
X126500000Y-66250000D03*
X125500000Y-64250000D03*
X124500000Y-66250000D03*
X123500000Y-64250000D03*
X122500000Y-66250000D03*
X121500000Y-64250000D03*
X120500000Y-66250000D03*
X119500000Y-64250000D03*
X118500000Y-66250000D03*
X117500000Y-64250000D03*
X116500000Y-66250000D03*
X115500000Y-64250000D03*
X114500000Y-66250000D03*
X113500000Y-64250000D03*
X112500000Y-66250000D03*
X111500000Y-64250000D03*
X110500000Y-66250000D03*
X109500000Y-64250000D03*
X108500000Y-66250000D03*
X107500000Y-64250000D03*
X106500000Y-66250000D03*
X105500000Y-64250000D03*
X104500000Y-66250000D03*
X103500000Y-64250000D03*
X102500000Y-66250000D03*
X101500000Y-64250000D03*
X100500000Y-66250000D03*
X99500000Y-64250000D03*
X98500000Y-66250000D03*
X97500000Y-64250000D03*
X96500000Y-66250000D03*
X95500000Y-64250000D03*
X94500000Y-66250000D03*
X93500000Y-64250000D03*
X92500000Y-66250000D03*
X91500000Y-64250000D03*
X90500000Y-66250000D03*
X89500000Y-64250000D03*
X88500000Y-66250000D03*
X87500000Y-64250000D03*
X86500000Y-66250000D03*
X85500000Y-64250000D03*
X84500000Y-66250000D03*
X83500000Y-64250000D03*
X82500000Y-66250000D03*
X81500000Y-64250000D03*
X80500000Y-66250000D03*
X79500000Y-64250000D03*
X78500000Y-66250000D03*
X77500000Y-64250000D03*
X76500000Y-66250000D03*
X75500000Y-64250000D03*
X74500000Y-66250000D03*
X73500000Y-64250000D03*
X72500000Y-66250000D03*
X71500000Y-64250000D03*
X70500000Y-66250000D03*
X69500000Y-64250000D03*
X68500000Y-66250000D03*
X67500000Y-64250000D03*
X66500000Y-66250000D03*
X65500000Y-64250000D03*
X64500000Y-66250000D03*
X63500000Y-64250000D03*
X62500000Y-66250000D03*
X61500000Y-64250000D03*
X60500000Y-66250000D03*
X59500000Y-64250000D03*
X58500000Y-66250000D03*
X141500000Y-61750000D03*
X140500000Y-59750000D03*
X139500000Y-61750000D03*
X138500000Y-59750000D03*
X137500000Y-61750000D03*
X136500000Y-59750000D03*
X135500000Y-61750000D03*
X134500000Y-59750000D03*
X133500000Y-61750000D03*
X132500000Y-59750000D03*
X131500000Y-61750000D03*
X128500000Y-59750000D03*
X127500000Y-61750000D03*
X126500000Y-59750000D03*
X125500000Y-61750000D03*
X124500000Y-59750000D03*
X123500000Y-61750000D03*
X122500000Y-59750000D03*
X121500000Y-61750000D03*
X120500000Y-59750000D03*
X119500000Y-61750000D03*
X118500000Y-59750000D03*
X117500000Y-61750000D03*
X116500000Y-59750000D03*
X115500000Y-61750000D03*
X114500000Y-59750000D03*
X113500000Y-61750000D03*
X112500000Y-59750000D03*
X111500000Y-61750000D03*
X110500000Y-59750000D03*
X109500000Y-61750000D03*
X108500000Y-59750000D03*
X107500000Y-61750000D03*
X106500000Y-59750000D03*
X105500000Y-61750000D03*
X104500000Y-59750000D03*
X103500000Y-61750000D03*
X102500000Y-59750000D03*
X101500000Y-61750000D03*
X100500000Y-59750000D03*
X99500000Y-61750000D03*
X98500000Y-59750000D03*
X97500000Y-61750000D03*
X96500000Y-59750000D03*
X95500000Y-61750000D03*
X94500000Y-59750000D03*
X93500000Y-61750000D03*
X92500000Y-59750000D03*
X91500000Y-61750000D03*
X90500000Y-59750000D03*
X89500000Y-61750000D03*
X88500000Y-59750000D03*
X87500000Y-61750000D03*
X86500000Y-59750000D03*
X85500000Y-61750000D03*
X84500000Y-59750000D03*
X83500000Y-61750000D03*
X82500000Y-59750000D03*
X81500000Y-61750000D03*
X80500000Y-59750000D03*
X79500000Y-61750000D03*
X78500000Y-59750000D03*
X77500000Y-61750000D03*
X76500000Y-59750000D03*
X75500000Y-61750000D03*
X74500000Y-59750000D03*
X73500000Y-61750000D03*
X72500000Y-59750000D03*
X71500000Y-61750000D03*
X70500000Y-59750000D03*
X69500000Y-61750000D03*
X68500000Y-59750000D03*
X67500000Y-61750000D03*
X66500000Y-59750000D03*
X65500000Y-61750000D03*
X64500000Y-59750000D03*
X63500000Y-61750000D03*
X62500000Y-59750000D03*
X61500000Y-61750000D03*
X60500000Y-59750000D03*
X59500000Y-61750000D03*
X58500000Y-59750000D03*
%TD*%
D12*
%TO.C,CN6*%
X129850000Y-115000000D03*
X56700000Y-115000000D03*
D13*
X141500000Y-116250000D03*
X140500000Y-118250000D03*
X139500000Y-116250000D03*
X138500000Y-118250000D03*
X137500000Y-116250000D03*
X136500000Y-118250000D03*
X135500000Y-116250000D03*
X134500000Y-118250000D03*
X133500000Y-116250000D03*
X132500000Y-118250000D03*
X131500000Y-116250000D03*
X128500000Y-118250000D03*
X127500000Y-116250000D03*
X126500000Y-118250000D03*
X125500000Y-116250000D03*
X124500000Y-118250000D03*
X123500000Y-116250000D03*
X122500000Y-118250000D03*
X121500000Y-116250000D03*
X120500000Y-118250000D03*
X119500000Y-116250000D03*
X118500000Y-118250000D03*
X117500000Y-116250000D03*
X116500000Y-118250000D03*
X115500000Y-116250000D03*
X114500000Y-118250000D03*
X113500000Y-116250000D03*
X112500000Y-118250000D03*
X111500000Y-116250000D03*
X110500000Y-118250000D03*
X109500000Y-116250000D03*
X108500000Y-118250000D03*
X107500000Y-116250000D03*
X106500000Y-118250000D03*
X105500000Y-116250000D03*
X104500000Y-118250000D03*
X103500000Y-116250000D03*
X102500000Y-118250000D03*
X101500000Y-116250000D03*
X100500000Y-118250000D03*
X99500000Y-116250000D03*
X98500000Y-118250000D03*
X97500000Y-116250000D03*
X96500000Y-118250000D03*
X95500000Y-116250000D03*
X94500000Y-118250000D03*
X93500000Y-116250000D03*
X92500000Y-118250000D03*
X91500000Y-116250000D03*
X90500000Y-118250000D03*
X89500000Y-116250000D03*
X88500000Y-118250000D03*
X87500000Y-116250000D03*
X86500000Y-118250000D03*
X85500000Y-116250000D03*
X84500000Y-118250000D03*
X83500000Y-116250000D03*
X82500000Y-118250000D03*
X81500000Y-116250000D03*
X80500000Y-118250000D03*
X79500000Y-116250000D03*
X78500000Y-118250000D03*
X77500000Y-116250000D03*
X76500000Y-118250000D03*
X75500000Y-116250000D03*
X74500000Y-118250000D03*
X73500000Y-116250000D03*
X72500000Y-118250000D03*
X71500000Y-116250000D03*
X70500000Y-118250000D03*
X69500000Y-116250000D03*
X68500000Y-118250000D03*
X67500000Y-116250000D03*
X66500000Y-118250000D03*
X65500000Y-116250000D03*
X64500000Y-118250000D03*
X63500000Y-116250000D03*
X62500000Y-118250000D03*
X61500000Y-116250000D03*
X60500000Y-118250000D03*
X59500000Y-116250000D03*
X58500000Y-118250000D03*
X141500000Y-113750000D03*
X140500000Y-111750000D03*
X139500000Y-113750000D03*
X138500000Y-111750000D03*
X137500000Y-113750000D03*
X136500000Y-111750000D03*
X135500000Y-113750000D03*
X134500000Y-111750000D03*
X133500000Y-113750000D03*
X132500000Y-111750000D03*
X131500000Y-113750000D03*
X128500000Y-111750000D03*
X127500000Y-113750000D03*
X126500000Y-111750000D03*
X125500000Y-113750000D03*
X124500000Y-111750000D03*
X123500000Y-113750000D03*
X122500000Y-111750000D03*
X121500000Y-113750000D03*
X120500000Y-111750000D03*
X119500000Y-113750000D03*
X118500000Y-111750000D03*
X117500000Y-113750000D03*
X116500000Y-111750000D03*
X115500000Y-113750000D03*
X114500000Y-111750000D03*
X113500000Y-113750000D03*
X112500000Y-111750000D03*
X111500000Y-113750000D03*
X110500000Y-111750000D03*
X109500000Y-113750000D03*
X108500000Y-111750000D03*
X107500000Y-113750000D03*
X106500000Y-111750000D03*
X105500000Y-113750000D03*
X104500000Y-111750000D03*
X103500000Y-113750000D03*
X102500000Y-111750000D03*
X101500000Y-113750000D03*
X100500000Y-111750000D03*
X99500000Y-113750000D03*
X98500000Y-111750000D03*
X97500000Y-113750000D03*
X96500000Y-111750000D03*
X95500000Y-113750000D03*
X94500000Y-111750000D03*
X93500000Y-113750000D03*
X92500000Y-111750000D03*
X91500000Y-113750000D03*
X90500000Y-111750000D03*
X89500000Y-113750000D03*
X88500000Y-111750000D03*
X87500000Y-113750000D03*
X86500000Y-111750000D03*
X85500000Y-113750000D03*
X84500000Y-111750000D03*
X83500000Y-113750000D03*
X82500000Y-111750000D03*
X81500000Y-113750000D03*
X80500000Y-111750000D03*
X79500000Y-113750000D03*
X78500000Y-111750000D03*
X77500000Y-113750000D03*
X76500000Y-111750000D03*
X75500000Y-113750000D03*
X74500000Y-111750000D03*
X73500000Y-113750000D03*
X72500000Y-111750000D03*
X71500000Y-113750000D03*
X70500000Y-111750000D03*
X69500000Y-113750000D03*
X68500000Y-111750000D03*
X67500000Y-113750000D03*
X66500000Y-111750000D03*
X65500000Y-113750000D03*
X64500000Y-111750000D03*
X63500000Y-113750000D03*
X62500000Y-111750000D03*
X61500000Y-113750000D03*
X60500000Y-111750000D03*
X59500000Y-113750000D03*
X58500000Y-111750000D03*
%TD*%
D12*
%TO.C,CN7*%
X129850000Y-128000000D03*
X56700000Y-128000000D03*
D13*
X141500000Y-129250000D03*
X140500000Y-131250000D03*
X139500000Y-129250000D03*
X138500000Y-131250000D03*
X137500000Y-129250000D03*
X136500000Y-131250000D03*
X135500000Y-129250000D03*
X134500000Y-131250000D03*
X133500000Y-129250000D03*
X132500000Y-131250000D03*
X131500000Y-129250000D03*
X128500000Y-131250000D03*
X127500000Y-129250000D03*
X126500000Y-131250000D03*
X125500000Y-129250000D03*
X124500000Y-131250000D03*
X123500000Y-129250000D03*
X122500000Y-131250000D03*
X121500000Y-129250000D03*
X120500000Y-131250000D03*
X119500000Y-129250000D03*
X118500000Y-131250000D03*
X117500000Y-129250000D03*
X116500000Y-131250000D03*
X115500000Y-129250000D03*
X114500000Y-131250000D03*
X113500000Y-129250000D03*
X112500000Y-131250000D03*
X111500000Y-129250000D03*
X110500000Y-131250000D03*
X109500000Y-129250000D03*
X108500000Y-131250000D03*
X107500000Y-129250000D03*
X106500000Y-131250000D03*
X105500000Y-129250000D03*
X104500000Y-131250000D03*
X103500000Y-129250000D03*
X102500000Y-131250000D03*
X101500000Y-129250000D03*
X100500000Y-131250000D03*
X99500000Y-129250000D03*
X98500000Y-131250000D03*
X97500000Y-129250000D03*
X96500000Y-131250000D03*
X95500000Y-129250000D03*
X94500000Y-131250000D03*
X93500000Y-129250000D03*
X92500000Y-131250000D03*
X91500000Y-129250000D03*
X90500000Y-131250000D03*
X89500000Y-129250000D03*
X88500000Y-131250000D03*
X87500000Y-129250000D03*
X86500000Y-131250000D03*
X85500000Y-129250000D03*
X84500000Y-131250000D03*
X83500000Y-129250000D03*
X82500000Y-131250000D03*
X81500000Y-129250000D03*
X80500000Y-131250000D03*
X79500000Y-129250000D03*
X78500000Y-131250000D03*
X77500000Y-129250000D03*
X76500000Y-131250000D03*
X75500000Y-129250000D03*
X74500000Y-131250000D03*
X73500000Y-129250000D03*
X72500000Y-131250000D03*
X71500000Y-129250000D03*
X70500000Y-131250000D03*
X69500000Y-129250000D03*
X68500000Y-131250000D03*
X67500000Y-129250000D03*
X66500000Y-131250000D03*
X65500000Y-129250000D03*
X64500000Y-131250000D03*
X63500000Y-129250000D03*
X62500000Y-131250000D03*
X61500000Y-129250000D03*
X60500000Y-131250000D03*
X59500000Y-129250000D03*
X58500000Y-131250000D03*
X141500000Y-126750000D03*
X140500000Y-124750000D03*
X139500000Y-126750000D03*
X138500000Y-124750000D03*
X137500000Y-126750000D03*
X136500000Y-124750000D03*
X135500000Y-126750000D03*
X134500000Y-124750000D03*
X133500000Y-126750000D03*
X132500000Y-124750000D03*
X131500000Y-126750000D03*
X128500000Y-124750000D03*
X127500000Y-126750000D03*
X126500000Y-124750000D03*
X125500000Y-126750000D03*
X124500000Y-124750000D03*
X123500000Y-126750000D03*
X122500000Y-124750000D03*
X121500000Y-126750000D03*
X120500000Y-124750000D03*
X119500000Y-126750000D03*
X118500000Y-124750000D03*
X117500000Y-126750000D03*
X116500000Y-124750000D03*
X115500000Y-126750000D03*
X114500000Y-124750000D03*
X113500000Y-126750000D03*
X112500000Y-124750000D03*
X111500000Y-126750000D03*
X110500000Y-124750000D03*
X109500000Y-126750000D03*
X108500000Y-124750000D03*
X107500000Y-126750000D03*
X106500000Y-124750000D03*
X105500000Y-126750000D03*
X104500000Y-124750000D03*
X103500000Y-126750000D03*
X102500000Y-124750000D03*
X101500000Y-126750000D03*
X100500000Y-124750000D03*
X99500000Y-126750000D03*
X98500000Y-124750000D03*
X97500000Y-126750000D03*
X96500000Y-124750000D03*
X95500000Y-126750000D03*
X94500000Y-124750000D03*
X93500000Y-126750000D03*
X92500000Y-124750000D03*
X91500000Y-126750000D03*
X90500000Y-124750000D03*
X89500000Y-126750000D03*
X88500000Y-124750000D03*
X87500000Y-126750000D03*
X86500000Y-124750000D03*
X85500000Y-126750000D03*
X84500000Y-124750000D03*
X83500000Y-126750000D03*
X82500000Y-124750000D03*
X81500000Y-126750000D03*
X80500000Y-124750000D03*
X79500000Y-126750000D03*
X78500000Y-124750000D03*
X77500000Y-126750000D03*
X76500000Y-124750000D03*
X75500000Y-126750000D03*
X74500000Y-124750000D03*
X73500000Y-126750000D03*
X72500000Y-124750000D03*
X71500000Y-126750000D03*
X70500000Y-124750000D03*
X69500000Y-126750000D03*
X68500000Y-124750000D03*
X67500000Y-126750000D03*
X66500000Y-124750000D03*
X65500000Y-126750000D03*
X64500000Y-124750000D03*
X63500000Y-126750000D03*
X62500000Y-124750000D03*
X61500000Y-126750000D03*
X60500000Y-124750000D03*
X59500000Y-126750000D03*
X58500000Y-124750000D03*
%TD*%
D12*
%TO.C,CN5*%
X129850000Y-102000000D03*
X56700000Y-102000000D03*
D13*
X141500000Y-103250000D03*
X140500000Y-105250000D03*
X139500000Y-103250000D03*
X138500000Y-105250000D03*
X137500000Y-103250000D03*
X136500000Y-105250000D03*
X135500000Y-103250000D03*
X134500000Y-105250000D03*
X133500000Y-103250000D03*
X132500000Y-105250000D03*
X131500000Y-103250000D03*
X128500000Y-105250000D03*
X127500000Y-103250000D03*
X126500000Y-105250000D03*
X125500000Y-103250000D03*
X124500000Y-105250000D03*
X123500000Y-103250000D03*
X122500000Y-105250000D03*
X121500000Y-103250000D03*
X120500000Y-105250000D03*
X119500000Y-103250000D03*
X118500000Y-105250000D03*
X117500000Y-103250000D03*
X116500000Y-105250000D03*
X115500000Y-103250000D03*
X114500000Y-105250000D03*
X113500000Y-103250000D03*
X112500000Y-105250000D03*
X111500000Y-103250000D03*
X110500000Y-105250000D03*
X109500000Y-103250000D03*
X108500000Y-105250000D03*
X107500000Y-103250000D03*
X106500000Y-105250000D03*
X105500000Y-103250000D03*
X104500000Y-105250000D03*
X103500000Y-103250000D03*
X102500000Y-105250000D03*
X101500000Y-103250000D03*
X100500000Y-105250000D03*
X99500000Y-103250000D03*
X98500000Y-105250000D03*
X97500000Y-103250000D03*
X96500000Y-105250000D03*
X95500000Y-103250000D03*
X94500000Y-105250000D03*
X93500000Y-103250000D03*
X92500000Y-105250000D03*
X91500000Y-103250000D03*
X90500000Y-105250000D03*
X89500000Y-103250000D03*
X88500000Y-105250000D03*
X87500000Y-103250000D03*
X86500000Y-105250000D03*
X85500000Y-103250000D03*
X84500000Y-105250000D03*
X83500000Y-103250000D03*
X82500000Y-105250000D03*
X81500000Y-103250000D03*
X80500000Y-105250000D03*
X79500000Y-103250000D03*
X78500000Y-105250000D03*
X77500000Y-103250000D03*
X76500000Y-105250000D03*
X75500000Y-103250000D03*
X74500000Y-105250000D03*
X73500000Y-103250000D03*
X72500000Y-105250000D03*
X71500000Y-103250000D03*
X70500000Y-105250000D03*
X69500000Y-103250000D03*
X68500000Y-105250000D03*
X67500000Y-103250000D03*
X66500000Y-105250000D03*
X65500000Y-103250000D03*
X64500000Y-105250000D03*
X63500000Y-103250000D03*
X62500000Y-105250000D03*
X61500000Y-103250000D03*
X60500000Y-105250000D03*
X59500000Y-103250000D03*
X58500000Y-105250000D03*
X141500000Y-100750000D03*
X140500000Y-98750000D03*
X139500000Y-100750000D03*
X138500000Y-98750000D03*
X137500000Y-100750000D03*
X136500000Y-98750000D03*
X135500000Y-100750000D03*
X134500000Y-98750000D03*
X133500000Y-100750000D03*
X132500000Y-98750000D03*
X131500000Y-100750000D03*
X128500000Y-98750000D03*
X127500000Y-100750000D03*
X126500000Y-98750000D03*
X125500000Y-100750000D03*
X124500000Y-98750000D03*
X123500000Y-100750000D03*
X122500000Y-98750000D03*
X121500000Y-100750000D03*
X120500000Y-98750000D03*
X119500000Y-100750000D03*
X118500000Y-98750000D03*
X117500000Y-100750000D03*
X116500000Y-98750000D03*
X115500000Y-100750000D03*
X114500000Y-98750000D03*
X113500000Y-100750000D03*
X112500000Y-98750000D03*
X111500000Y-100750000D03*
X110500000Y-98750000D03*
X109500000Y-100750000D03*
X108500000Y-98750000D03*
X107500000Y-100750000D03*
X106500000Y-98750000D03*
X105500000Y-100750000D03*
X104500000Y-98750000D03*
X103500000Y-100750000D03*
X102500000Y-98750000D03*
X101500000Y-100750000D03*
X100500000Y-98750000D03*
X99500000Y-100750000D03*
X98500000Y-98750000D03*
X97500000Y-100750000D03*
X96500000Y-98750000D03*
X95500000Y-100750000D03*
X94500000Y-98750000D03*
X93500000Y-100750000D03*
X92500000Y-98750000D03*
X91500000Y-100750000D03*
X90500000Y-98750000D03*
X89500000Y-100750000D03*
X88500000Y-98750000D03*
X87500000Y-100750000D03*
X86500000Y-98750000D03*
X85500000Y-100750000D03*
X84500000Y-98750000D03*
X83500000Y-100750000D03*
X82500000Y-98750000D03*
X81500000Y-100750000D03*
X80500000Y-98750000D03*
X79500000Y-100750000D03*
X78500000Y-98750000D03*
X77500000Y-100750000D03*
X76500000Y-98750000D03*
X75500000Y-100750000D03*
X74500000Y-98750000D03*
X73500000Y-100750000D03*
X72500000Y-98750000D03*
X71500000Y-100750000D03*
X70500000Y-98750000D03*
X69500000Y-100750000D03*
X68500000Y-98750000D03*
X67500000Y-100750000D03*
X66500000Y-98750000D03*
X65500000Y-100750000D03*
X64500000Y-98750000D03*
X63500000Y-100750000D03*
X62500000Y-98750000D03*
X61500000Y-100750000D03*
X60500000Y-98750000D03*
X59500000Y-100750000D03*
X58500000Y-98750000D03*
%TD*%
D12*
%TO.C,CN1*%
X129850000Y-50000000D03*
X56700000Y-50000000D03*
D13*
X141500000Y-51250000D03*
X140500000Y-53250000D03*
X139500000Y-51250000D03*
X138500000Y-53250000D03*
X137500000Y-51250000D03*
X136500000Y-53250000D03*
X135500000Y-51250000D03*
X134500000Y-53250000D03*
X133500000Y-51250000D03*
X132500000Y-53250000D03*
X131500000Y-51250000D03*
X128500000Y-53250000D03*
X127500000Y-51250000D03*
X126500000Y-53250000D03*
X125500000Y-51250000D03*
X124500000Y-53250000D03*
X123500000Y-51250000D03*
X122500000Y-53250000D03*
X121500000Y-51250000D03*
X120500000Y-53250000D03*
X119500000Y-51250000D03*
X118500000Y-53250000D03*
X117500000Y-51250000D03*
X116500000Y-53250000D03*
X115500000Y-51250000D03*
X114500000Y-53250000D03*
X113500000Y-51250000D03*
X112500000Y-53250000D03*
X111500000Y-51250000D03*
X110500000Y-53250000D03*
X109500000Y-51250000D03*
X108500000Y-53250000D03*
X107500000Y-51250000D03*
X106500000Y-53250000D03*
X105500000Y-51250000D03*
X104500000Y-53250000D03*
X103500000Y-51250000D03*
X102500000Y-53250000D03*
X101500000Y-51250000D03*
X100500000Y-53250000D03*
X99500000Y-51250000D03*
X98500000Y-53250000D03*
X97500000Y-51250000D03*
X96500000Y-53250000D03*
X95500000Y-51250000D03*
X94500000Y-53250000D03*
X93500000Y-51250000D03*
X92500000Y-53250000D03*
X91500000Y-51250000D03*
X90500000Y-53250000D03*
X89500000Y-51250000D03*
X88500000Y-53250000D03*
X87500000Y-51250000D03*
X86500000Y-53250000D03*
X85500000Y-51250000D03*
X84500000Y-53250000D03*
X83500000Y-51250000D03*
X82500000Y-53250000D03*
X81500000Y-51250000D03*
X80500000Y-53250000D03*
X79500000Y-51250000D03*
X78500000Y-53250000D03*
X77500000Y-51250000D03*
X76500000Y-53250000D03*
X75500000Y-51250000D03*
X74500000Y-53250000D03*
X73500000Y-51250000D03*
X72500000Y-53250000D03*
X71500000Y-51250000D03*
X70500000Y-53250000D03*
X69500000Y-51250000D03*
X68500000Y-53250000D03*
X67500000Y-51250000D03*
X66500000Y-53250000D03*
X65500000Y-51250000D03*
X64500000Y-53250000D03*
X63500000Y-51250000D03*
X62500000Y-53250000D03*
X61500000Y-51250000D03*
X60500000Y-53250000D03*
X59500000Y-51250000D03*
X58500000Y-53250000D03*
X141500000Y-48750000D03*
X140500000Y-46750000D03*
X139500000Y-48750000D03*
X138500000Y-46750000D03*
X137500000Y-48750000D03*
X136500000Y-46750000D03*
X135500000Y-48750000D03*
X134500000Y-46750000D03*
X133500000Y-48750000D03*
X132500000Y-46750000D03*
X131500000Y-48750000D03*
X128500000Y-46750000D03*
X127500000Y-48750000D03*
X126500000Y-46750000D03*
X125500000Y-48750000D03*
X124500000Y-46750000D03*
X123500000Y-48750000D03*
X122500000Y-46750000D03*
X121500000Y-48750000D03*
X120500000Y-46750000D03*
X119500000Y-48750000D03*
X118500000Y-46750000D03*
X117500000Y-48750000D03*
X116500000Y-46750000D03*
X115500000Y-48750000D03*
X114500000Y-46750000D03*
X113500000Y-48750000D03*
X112500000Y-46750000D03*
X111500000Y-48750000D03*
X110500000Y-46750000D03*
X109500000Y-48750000D03*
X108500000Y-46750000D03*
X107500000Y-48750000D03*
X106500000Y-46750000D03*
X105500000Y-48750000D03*
X104500000Y-46750000D03*
X103500000Y-48750000D03*
X102500000Y-46750000D03*
X101500000Y-48750000D03*
X100500000Y-46750000D03*
X99500000Y-48750000D03*
X98500000Y-46750000D03*
X97500000Y-48750000D03*
X96500000Y-46750000D03*
X95500000Y-48750000D03*
X94500000Y-46750000D03*
X93500000Y-48750000D03*
X92500000Y-46750000D03*
X91500000Y-48750000D03*
X90500000Y-46750000D03*
X89500000Y-48750000D03*
X88500000Y-46750000D03*
X87500000Y-48750000D03*
X86500000Y-46750000D03*
X85500000Y-48750000D03*
X84500000Y-46750000D03*
X83500000Y-48750000D03*
X82500000Y-46750000D03*
X81500000Y-48750000D03*
X80500000Y-46750000D03*
X79500000Y-48750000D03*
X78500000Y-46750000D03*
X77500000Y-48750000D03*
X76500000Y-46750000D03*
X75500000Y-48750000D03*
X74500000Y-46750000D03*
X73500000Y-48750000D03*
X72500000Y-46750000D03*
X71500000Y-48750000D03*
X70500000Y-46750000D03*
X69500000Y-48750000D03*
X68500000Y-46750000D03*
X67500000Y-48750000D03*
X66500000Y-46750000D03*
X65500000Y-48750000D03*
X64500000Y-46750000D03*
X63500000Y-48750000D03*
X62500000Y-46750000D03*
X61500000Y-48750000D03*
X60500000Y-46750000D03*
X59500000Y-48750000D03*
X58500000Y-46750000D03*
%TD*%
D10*
%TO.C,H4*%
X144600000Y-95552944D03*
X145302944Y-93855888D03*
X145302944Y-97250000D03*
X147000000Y-93152944D03*
D11*
X147000000Y-95552944D03*
D10*
X147000000Y-97952944D03*
X148697056Y-93855888D03*
X148697056Y-97250000D03*
X149400000Y-95552944D03*
%TD*%
D12*
%TO.C,CN4*%
X129850000Y-89000000D03*
X56700000Y-89000000D03*
D13*
X141500000Y-90250000D03*
X140500000Y-92250000D03*
X139500000Y-90250000D03*
X138500000Y-92250000D03*
X137500000Y-90250000D03*
X136500000Y-92250000D03*
X135500000Y-90250000D03*
X134500000Y-92250000D03*
X133500000Y-90250000D03*
X132500000Y-92250000D03*
X131500000Y-90250000D03*
X128500000Y-92250000D03*
X127500000Y-90250000D03*
X126500000Y-92250000D03*
X125500000Y-90250000D03*
X124500000Y-92250000D03*
X123500000Y-90250000D03*
X122500000Y-92250000D03*
X121500000Y-90250000D03*
X120500000Y-92250000D03*
X119500000Y-90250000D03*
X118500000Y-92250000D03*
X117500000Y-90250000D03*
X116500000Y-92250000D03*
X115500000Y-90250000D03*
X114500000Y-92250000D03*
X113500000Y-90250000D03*
X112500000Y-92250000D03*
X111500000Y-90250000D03*
X110500000Y-92250000D03*
X109500000Y-90250000D03*
X108500000Y-92250000D03*
X107500000Y-90250000D03*
X106500000Y-92250000D03*
X105500000Y-90250000D03*
X104500000Y-92250000D03*
X103500000Y-90250000D03*
X102500000Y-92250000D03*
X101500000Y-90250000D03*
X100500000Y-92250000D03*
X99500000Y-90250000D03*
X98500000Y-92250000D03*
X97500000Y-90250000D03*
X96500000Y-92250000D03*
X95500000Y-90250000D03*
X94500000Y-92250000D03*
X93500000Y-90250000D03*
X92500000Y-92250000D03*
X91500000Y-90250000D03*
X90500000Y-92250000D03*
X89500000Y-90250000D03*
X88500000Y-92250000D03*
X87500000Y-90250000D03*
X86500000Y-92250000D03*
X85500000Y-90250000D03*
X84500000Y-92250000D03*
X83500000Y-90250000D03*
X82500000Y-92250000D03*
X81500000Y-90250000D03*
X80500000Y-92250000D03*
X79500000Y-90250000D03*
X78500000Y-92250000D03*
X77500000Y-90250000D03*
X76500000Y-92250000D03*
X75500000Y-90250000D03*
X74500000Y-92250000D03*
X73500000Y-90250000D03*
X72500000Y-92250000D03*
X71500000Y-90250000D03*
X70500000Y-92250000D03*
X69500000Y-90250000D03*
X68500000Y-92250000D03*
X67500000Y-90250000D03*
X66500000Y-92250000D03*
X65500000Y-90250000D03*
X64500000Y-92250000D03*
X63500000Y-90250000D03*
X62500000Y-92250000D03*
X61500000Y-90250000D03*
X60500000Y-92250000D03*
X59500000Y-90250000D03*
X58500000Y-92250000D03*
X141500000Y-87750000D03*
X140500000Y-85750000D03*
X139500000Y-87750000D03*
X138500000Y-85750000D03*
X137500000Y-87750000D03*
X136500000Y-85750000D03*
X135500000Y-87750000D03*
X134500000Y-85750000D03*
X133500000Y-87750000D03*
X132500000Y-85750000D03*
X131500000Y-87750000D03*
X128500000Y-85750000D03*
X127500000Y-87750000D03*
X126500000Y-85750000D03*
X125500000Y-87750000D03*
X124500000Y-85750000D03*
X123500000Y-87750000D03*
X122500000Y-85750000D03*
X121500000Y-87750000D03*
X120500000Y-85750000D03*
X119500000Y-87750000D03*
X118500000Y-85750000D03*
X117500000Y-87750000D03*
X116500000Y-85750000D03*
X115500000Y-87750000D03*
X114500000Y-85750000D03*
X113500000Y-87750000D03*
X112500000Y-85750000D03*
X111500000Y-87750000D03*
X110500000Y-85750000D03*
X109500000Y-87750000D03*
X108500000Y-85750000D03*
X107500000Y-87750000D03*
X106500000Y-85750000D03*
X105500000Y-87750000D03*
X104500000Y-85750000D03*
X103500000Y-87750000D03*
X102500000Y-85750000D03*
X101500000Y-87750000D03*
X100500000Y-85750000D03*
X99500000Y-87750000D03*
X98500000Y-85750000D03*
X97500000Y-87750000D03*
X96500000Y-85750000D03*
X95500000Y-87750000D03*
X94500000Y-85750000D03*
X93500000Y-87750000D03*
X92500000Y-85750000D03*
X91500000Y-87750000D03*
X90500000Y-85750000D03*
X89500000Y-87750000D03*
X88500000Y-85750000D03*
X87500000Y-87750000D03*
X86500000Y-85750000D03*
X85500000Y-87750000D03*
X84500000Y-85750000D03*
X83500000Y-87750000D03*
X82500000Y-85750000D03*
X81500000Y-87750000D03*
X80500000Y-85750000D03*
X79500000Y-87750000D03*
X78500000Y-85750000D03*
X77500000Y-87750000D03*
X76500000Y-85750000D03*
X75500000Y-87750000D03*
X74500000Y-85750000D03*
X73500000Y-87750000D03*
X72500000Y-85750000D03*
X71500000Y-87750000D03*
X70500000Y-85750000D03*
X69500000Y-87750000D03*
X68500000Y-85750000D03*
X67500000Y-87750000D03*
X66500000Y-85750000D03*
X65500000Y-87750000D03*
X64500000Y-85750000D03*
X63500000Y-87750000D03*
X62500000Y-85750000D03*
X61500000Y-87750000D03*
X60500000Y-85750000D03*
X59500000Y-87750000D03*
X58500000Y-85750000D03*
%TD*%
D10*
%TO.C,H2*%
X50600000Y-95552944D03*
X51302944Y-93855888D03*
X51302944Y-97250000D03*
X53000000Y-93152944D03*
D11*
X53000000Y-95552944D03*
D10*
X53000000Y-97952944D03*
X54697056Y-93855888D03*
X54697056Y-97250000D03*
X55400000Y-95552944D03*
%TD*%
D12*
%TO.C,CN3*%
X129850000Y-76000000D03*
X56700000Y-76000000D03*
D13*
X141500000Y-77250000D03*
X140500000Y-79250000D03*
X139500000Y-77250000D03*
X138500000Y-79250000D03*
X137500000Y-77250000D03*
X136500000Y-79250000D03*
X135500000Y-77250000D03*
X134500000Y-79250000D03*
X133500000Y-77250000D03*
X132500000Y-79250000D03*
X131500000Y-77250000D03*
X128500000Y-79250000D03*
X127500000Y-77250000D03*
X126500000Y-79250000D03*
X125500000Y-77250000D03*
X124500000Y-79250000D03*
X123500000Y-77250000D03*
X122500000Y-79250000D03*
X121500000Y-77250000D03*
X120500000Y-79250000D03*
X119500000Y-77250000D03*
X118500000Y-79250000D03*
X117500000Y-77250000D03*
X116500000Y-79250000D03*
X115500000Y-77250000D03*
X114500000Y-79250000D03*
X113500000Y-77250000D03*
X112500000Y-79250000D03*
X111500000Y-77250000D03*
X110500000Y-79250000D03*
X109500000Y-77250000D03*
X108500000Y-79250000D03*
X107500000Y-77250000D03*
X106500000Y-79250000D03*
X105500000Y-77250000D03*
X104500000Y-79250000D03*
X103500000Y-77250000D03*
X102500000Y-79250000D03*
X101500000Y-77250000D03*
X100500000Y-79250000D03*
X99500000Y-77250000D03*
X98500000Y-79250000D03*
X97500000Y-77250000D03*
X96500000Y-79250000D03*
X95500000Y-77250000D03*
X94500000Y-79250000D03*
X93500000Y-77250000D03*
X92500000Y-79250000D03*
X91500000Y-77250000D03*
X90500000Y-79250000D03*
X89500000Y-77250000D03*
X88500000Y-79250000D03*
X87500000Y-77250000D03*
X86500000Y-79250000D03*
X85500000Y-77250000D03*
X84500000Y-79250000D03*
X83500000Y-77250000D03*
X82500000Y-79250000D03*
X81500000Y-77250000D03*
X80500000Y-79250000D03*
X79500000Y-77250000D03*
X78500000Y-79250000D03*
X77500000Y-77250000D03*
X76500000Y-79250000D03*
X75500000Y-77250000D03*
X74500000Y-79250000D03*
X73500000Y-77250000D03*
X72500000Y-79250000D03*
X71500000Y-77250000D03*
X70500000Y-79250000D03*
X69500000Y-77250000D03*
X68500000Y-79250000D03*
X67500000Y-77250000D03*
X66500000Y-79250000D03*
X65500000Y-77250000D03*
X64500000Y-79250000D03*
X63500000Y-77250000D03*
X62500000Y-79250000D03*
X61500000Y-77250000D03*
X60500000Y-79250000D03*
X59500000Y-77250000D03*
X58500000Y-79250000D03*
X141500000Y-74750000D03*
X140500000Y-72750000D03*
X139500000Y-74750000D03*
X138500000Y-72750000D03*
X137500000Y-74750000D03*
X136500000Y-72750000D03*
X135500000Y-74750000D03*
X134500000Y-72750000D03*
X133500000Y-74750000D03*
X132500000Y-72750000D03*
X131500000Y-74750000D03*
X128500000Y-72750000D03*
X127500000Y-74750000D03*
X126500000Y-72750000D03*
X125500000Y-74750000D03*
X124500000Y-72750000D03*
X123500000Y-74750000D03*
X122500000Y-72750000D03*
X121500000Y-74750000D03*
X120500000Y-72750000D03*
X119500000Y-74750000D03*
X118500000Y-72750000D03*
X117500000Y-74750000D03*
X116500000Y-72750000D03*
X115500000Y-74750000D03*
X114500000Y-72750000D03*
X113500000Y-74750000D03*
X112500000Y-72750000D03*
X111500000Y-74750000D03*
X110500000Y-72750000D03*
X109500000Y-74750000D03*
X108500000Y-72750000D03*
X107500000Y-74750000D03*
X106500000Y-72750000D03*
X105500000Y-74750000D03*
X104500000Y-72750000D03*
X103500000Y-74750000D03*
X102500000Y-72750000D03*
X101500000Y-74750000D03*
X100500000Y-72750000D03*
X99500000Y-74750000D03*
X98500000Y-72750000D03*
X97500000Y-74750000D03*
X96500000Y-72750000D03*
X95500000Y-74750000D03*
X94500000Y-72750000D03*
X93500000Y-74750000D03*
X92500000Y-72750000D03*
X91500000Y-74750000D03*
X90500000Y-72750000D03*
X89500000Y-74750000D03*
X88500000Y-72750000D03*
X87500000Y-74750000D03*
X86500000Y-72750000D03*
X85500000Y-74750000D03*
X84500000Y-72750000D03*
X83500000Y-74750000D03*
X82500000Y-72750000D03*
X81500000Y-74750000D03*
X80500000Y-72750000D03*
X79500000Y-74750000D03*
X78500000Y-72750000D03*
X77500000Y-74750000D03*
X76500000Y-72750000D03*
X75500000Y-74750000D03*
X74500000Y-72750000D03*
X73500000Y-74750000D03*
X72500000Y-72750000D03*
X71500000Y-74750000D03*
X70500000Y-72750000D03*
X69500000Y-74750000D03*
X68500000Y-72750000D03*
X67500000Y-74750000D03*
X66500000Y-72750000D03*
X65500000Y-74750000D03*
X64500000Y-72750000D03*
X63500000Y-74750000D03*
X62500000Y-72750000D03*
X61500000Y-74750000D03*
X60500000Y-72750000D03*
X59500000Y-74750000D03*
X58500000Y-72750000D03*
%TD*%
M02*
