%TF.GenerationSoftware,KiCad,Pcbnew,9.0.2*%
%TF.CreationDate,2026-05-12T23:08:37-04:00*%
%TF.ProjectId,Santas Microfactory - Backplane,53616e74-6173-4204-9d69-63726f666163,rev?*%
%TF.SameCoordinates,Original*%
%TF.FileFunction,Legend,Top*%
%TF.FilePolarity,Positive*%
%FSLAX46Y46*%
G04 Gerber Fmt 4.6, Leading zero omitted, Abs format (unit mm)*
G04 Created by KiCad (PCBNEW 9.0.2) date 2026-05-12 23:08:37*
%MOMM*%
%LPD*%
G01*
G04 APERTURE LIST*
%ADD10C,0.250000*%
%ADD11C,0.300000*%
%ADD12C,0.150000*%
G04 APERTURE END LIST*
D10*
G36*
X128531018Y-119834145D02*
G01*
X128598548Y-119846417D01*
X128658460Y-119883690D01*
X128713468Y-119951381D01*
X128766670Y-120070258D01*
X128824110Y-120286605D01*
X128897932Y-120639230D01*
X128987798Y-121065041D01*
X129164279Y-122086919D01*
X129574241Y-120850439D01*
X129695141Y-120460811D01*
X129774211Y-120240940D01*
X129848831Y-120081441D01*
X129916918Y-119985469D01*
X129992874Y-119933336D01*
X130080373Y-119916210D01*
X130152744Y-119930723D01*
X130215231Y-119974981D01*
X130270882Y-120056894D01*
X130312010Y-120149707D01*
X130352948Y-120276346D01*
X130412299Y-120503859D01*
X130604347Y-121242048D01*
X130777198Y-122054129D01*
X130851020Y-121685750D01*
X131115352Y-120599296D01*
X131144876Y-120385848D01*
X131217751Y-120033447D01*
X131270978Y-119938234D01*
X131337330Y-119886607D01*
X131420716Y-119869316D01*
X131511565Y-119887781D01*
X131580451Y-119941856D01*
X131618510Y-120010022D01*
X131631742Y-120095179D01*
X131618215Y-120324290D01*
X131573436Y-120604511D01*
X131490326Y-120944778D01*
X131265012Y-121771113D01*
X131146126Y-122417013D01*
X131074200Y-122722918D01*
X131010434Y-122908100D01*
X130955434Y-123009607D01*
X130893913Y-123077778D01*
X130827212Y-123115871D01*
X130752468Y-123128492D01*
X130673210Y-123112544D01*
X130608158Y-123064693D01*
X130553715Y-122976817D01*
X130481761Y-122745842D01*
X130381524Y-122232548D01*
X130298898Y-121785467D01*
X130187132Y-121299752D01*
X130043553Y-120772587D01*
X129851710Y-121302461D01*
X129676746Y-121850370D01*
X129518920Y-122417013D01*
X129457370Y-122716516D01*
X129412319Y-122886850D01*
X129361017Y-123007592D01*
X129298347Y-123090457D01*
X129226486Y-123136530D01*
X129141748Y-123151939D01*
X129068198Y-123135783D01*
X129000254Y-123084588D01*
X128934852Y-122985988D01*
X128873386Y-122818914D01*
X128842290Y-122670671D01*
X128793518Y-122334947D01*
X128701110Y-121716434D01*
X128599974Y-121192239D01*
X128492184Y-120751887D01*
X128391800Y-120399262D01*
X128326953Y-120136998D01*
X128313764Y-120044804D01*
X128330422Y-119962398D01*
X128380443Y-119894595D01*
X128451975Y-119849001D01*
X128531018Y-119834145D01*
G37*
G36*
X126311944Y-119896480D02*
G01*
X126409586Y-119969150D01*
X126494155Y-120051219D01*
X126546973Y-120115512D01*
X126739532Y-120020342D01*
X126893370Y-119957793D01*
X127038121Y-119916242D01*
X127143230Y-119904487D01*
X127382571Y-119924094D01*
X127572625Y-119978066D01*
X127723365Y-120061888D01*
X127842070Y-120175047D01*
X127925900Y-120305448D01*
X127990637Y-120472828D01*
X128033379Y-120685672D01*
X128049066Y-120954120D01*
X128027261Y-121195798D01*
X127963552Y-121414923D01*
X127858115Y-121616142D01*
X127707981Y-121802803D01*
X127525900Y-121959316D01*
X127331766Y-122068085D01*
X127122394Y-122133247D01*
X126893187Y-122155429D01*
X126711852Y-122134130D01*
X126493667Y-122063288D01*
X126355863Y-121992965D01*
X126272706Y-121924143D01*
X126228856Y-121856378D01*
X126215047Y-121786683D01*
X126225076Y-121734874D01*
X126255896Y-121688314D01*
X126287770Y-121432042D01*
X126300959Y-120975186D01*
X126292144Y-120734407D01*
X126266154Y-120573651D01*
X126241975Y-120494699D01*
X126628855Y-120494699D01*
X126680730Y-121002411D01*
X126694434Y-121305830D01*
X126683260Y-121496706D01*
X126649371Y-121716341D01*
X126779614Y-121773494D01*
X126866625Y-121791995D01*
X127019173Y-121776022D01*
X127159398Y-121728835D01*
X127290585Y-121649319D01*
X127414890Y-121533525D01*
X127516862Y-121397517D01*
X127588118Y-121254384D01*
X127630840Y-121102110D01*
X127645333Y-120938000D01*
X127629632Y-120716596D01*
X127588039Y-120553514D01*
X127526447Y-120435348D01*
X127435821Y-120343637D01*
X127319695Y-120287846D01*
X127169792Y-120267920D01*
X126982840Y-120286891D01*
X126835851Y-120339361D01*
X126756846Y-120390441D01*
X126628855Y-120494699D01*
X126241975Y-120494699D01*
X126232070Y-120462355D01*
X126137011Y-120212965D01*
X126089933Y-120104338D01*
X126077660Y-120069534D01*
X126092162Y-119994401D01*
X126134996Y-119934345D01*
X126197228Y-119894257D01*
X126268169Y-119881039D01*
X126311944Y-119896480D01*
G37*
G36*
X124013380Y-119926285D02*
G01*
X124081520Y-119938968D01*
X124138573Y-119976837D01*
X124187587Y-120045170D01*
X124312611Y-120258201D01*
X124509254Y-120535915D01*
X124871955Y-121030874D01*
X125240884Y-120765992D01*
X125257863Y-120450077D01*
X125263415Y-120146837D01*
X125278028Y-120061928D01*
X125319835Y-119997177D01*
X125383190Y-119954379D01*
X125464183Y-119939658D01*
X125552750Y-119956225D01*
X125614234Y-120002777D01*
X125655048Y-120084718D01*
X125671179Y-120218827D01*
X125647731Y-120728989D01*
X125624101Y-121239152D01*
X125614942Y-121952463D01*
X125605600Y-122661744D01*
X125614942Y-122879364D01*
X125624101Y-123096985D01*
X125609536Y-123181940D01*
X125567864Y-123246828D01*
X125504332Y-123289624D01*
X125423150Y-123304347D01*
X125342158Y-123289626D01*
X125278803Y-123246828D01*
X125236989Y-123181925D01*
X125222383Y-123096985D01*
X125212124Y-122874052D01*
X125201866Y-122651303D01*
X125216338Y-121990015D01*
X125222383Y-121275239D01*
X124949900Y-121498168D01*
X124685476Y-121743452D01*
X124234664Y-122209651D01*
X124162407Y-122262846D01*
X124089218Y-122279260D01*
X124014212Y-122263871D01*
X123944687Y-122215696D01*
X123896020Y-122146295D01*
X123880207Y-122068051D01*
X123894078Y-122001042D01*
X123939558Y-121930481D01*
X124210558Y-121634582D01*
X124560545Y-121296121D01*
X124113764Y-120685942D01*
X123907847Y-120381931D01*
X123820477Y-120212588D01*
X123800156Y-120127236D01*
X123816040Y-120051469D01*
X123864820Y-119985819D01*
X123934607Y-119941006D01*
X124013380Y-119926285D01*
G37*
G36*
X123063398Y-122600928D02*
G01*
X123154889Y-122618415D01*
X123233574Y-122671270D01*
X123287341Y-122749146D01*
X123305198Y-122841263D01*
X123287335Y-122933348D01*
X123233574Y-123011072D01*
X123154875Y-123064070D01*
X123063398Y-123081598D01*
X122972109Y-123064035D01*
X122894321Y-123011072D01*
X122841277Y-122933419D01*
X122823612Y-122841263D01*
X122841271Y-122749074D01*
X122894321Y-122671270D01*
X122972095Y-122618450D01*
X123063398Y-122600928D01*
G37*
G36*
X122971257Y-120939649D02*
G01*
X122964113Y-120571453D01*
X122956786Y-120203440D01*
X122971061Y-120120151D01*
X123012107Y-120055612D01*
X123074966Y-120013073D01*
X123157554Y-119998276D01*
X123238751Y-120012958D01*
X123302267Y-120055612D01*
X123344022Y-120120226D01*
X123358504Y-120203440D01*
X123365648Y-120571453D01*
X123372793Y-120939649D01*
X123352459Y-121420502D01*
X123331943Y-121901355D01*
X123317372Y-121986279D01*
X123275706Y-122051015D01*
X123212174Y-122093811D01*
X123130992Y-122108534D01*
X123050000Y-122093813D01*
X122986645Y-122051015D01*
X122944837Y-121986264D01*
X122930224Y-121901355D01*
X122950741Y-121420502D01*
X122971257Y-120939649D01*
G37*
G36*
X120707676Y-119869316D02*
G01*
X120787281Y-119881749D01*
X120843964Y-119916048D01*
X120883690Y-119973413D01*
X120906428Y-120062023D01*
X120963764Y-120510819D01*
X120985607Y-120747349D01*
X120992524Y-120959799D01*
X120985380Y-121154521D01*
X120978236Y-121349244D01*
X120994765Y-121585772D01*
X121033175Y-121713478D01*
X121082417Y-121773778D01*
X121142184Y-121791995D01*
X121248087Y-121777181D01*
X121354551Y-121731115D01*
X121464725Y-121648253D01*
X121580722Y-121519420D01*
X121693137Y-121346859D01*
X121791956Y-121139466D01*
X121875828Y-120892021D01*
X121894330Y-120691071D01*
X121906603Y-120492318D01*
X121894330Y-120307670D01*
X121882056Y-120123206D01*
X121896662Y-120038456D01*
X121938476Y-119973729D01*
X122001831Y-119930931D01*
X122082824Y-119916210D01*
X122165443Y-119931001D01*
X122228454Y-119973546D01*
X122269427Y-120038157D01*
X122283775Y-120122840D01*
X122297147Y-120307121D01*
X122310336Y-120491219D01*
X122280661Y-121075570D01*
X122250802Y-121659738D01*
X122258129Y-121854277D01*
X122265273Y-122048633D01*
X122250349Y-122129551D01*
X122206838Y-122192981D01*
X122142043Y-122234942D01*
X122062308Y-122249218D01*
X121981572Y-122233913D01*
X121922164Y-122189989D01*
X121879119Y-122111783D01*
X121855495Y-121983970D01*
X121849267Y-121745101D01*
X121694558Y-121926492D01*
X121548509Y-122054659D01*
X121409453Y-122139072D01*
X121275018Y-122186848D01*
X121142184Y-122202323D01*
X120986525Y-122183201D01*
X120862790Y-122129444D01*
X120763432Y-122041595D01*
X120685144Y-121913811D01*
X120639483Y-121781887D01*
X120605666Y-121597025D01*
X120588790Y-121344848D01*
X120588790Y-121138218D01*
X120590805Y-120947892D01*
X120581097Y-120766238D01*
X120546842Y-120508804D01*
X120512412Y-120251655D01*
X120502695Y-120071915D01*
X120517707Y-119989260D01*
X120561130Y-119925553D01*
X120626203Y-119883677D01*
X120707676Y-119869316D01*
G37*
G36*
X119793805Y-118859484D02*
G01*
X119989052Y-118886177D01*
X120115531Y-118924281D01*
X120192067Y-118972813D01*
X120233572Y-119029855D01*
X120247339Y-119098485D01*
X120235040Y-119181499D01*
X120202482Y-119235213D01*
X120149806Y-119268064D01*
X120069103Y-119280385D01*
X119823089Y-119244665D01*
X119645923Y-119219103D01*
X119441887Y-119212791D01*
X119292631Y-119231633D01*
X119167761Y-119280363D01*
X119062017Y-119358537D01*
X118972475Y-119469693D01*
X118898935Y-119620921D01*
X118848919Y-119803835D01*
X118811755Y-120070126D01*
X118794338Y-120443775D01*
X118877396Y-120289554D01*
X118965307Y-120171333D01*
X119057754Y-120083272D01*
X119164601Y-120016410D01*
X119280074Y-119976624D01*
X119407082Y-119963105D01*
X119588237Y-119979717D01*
X119746480Y-120027533D01*
X119886259Y-120105591D01*
X120010668Y-120215713D01*
X120110530Y-120348232D01*
X120182732Y-120499150D01*
X120227600Y-120671935D01*
X120243309Y-120871139D01*
X120221718Y-121144518D01*
X120160254Y-121379783D01*
X120061674Y-121583552D01*
X119925671Y-121760854D01*
X119788207Y-121883635D01*
X119633079Y-121979499D01*
X119457784Y-122049540D01*
X119258869Y-122093249D01*
X119032109Y-122108534D01*
X118850258Y-122095159D01*
X118712456Y-122059258D01*
X118596901Y-121996304D01*
X118515718Y-121911430D01*
X118417778Y-121893107D01*
X118352739Y-121848981D01*
X118311944Y-121777454D01*
X118296449Y-121667248D01*
X118301267Y-121586282D01*
X118700183Y-121586282D01*
X118784415Y-121636133D01*
X118870176Y-121670546D01*
X118959610Y-121691255D01*
X119052625Y-121698206D01*
X119244697Y-121681675D01*
X119405466Y-121635046D01*
X119540855Y-121560649D01*
X119655111Y-121457871D01*
X119737037Y-121344708D01*
X119796185Y-121217159D01*
X119832835Y-121072549D01*
X119845621Y-120907409D01*
X119831057Y-120733108D01*
X119792036Y-120603186D01*
X119732963Y-120507339D01*
X119649062Y-120435201D01*
X119539098Y-120389903D01*
X119394809Y-120373433D01*
X119265002Y-120394397D01*
X119132751Y-120460609D01*
X118993274Y-120582627D01*
X118887815Y-120718080D01*
X118823137Y-120844301D01*
X118792323Y-120964195D01*
X118751902Y-121191254D01*
X118700183Y-121586282D01*
X118301267Y-121586282D01*
X118305807Y-121509991D01*
X118339497Y-121277254D01*
X118394818Y-120891472D01*
X118441896Y-120201791D01*
X118471412Y-119810524D01*
X118525976Y-119530795D01*
X118604441Y-119318617D01*
X118703271Y-119158326D01*
X118821083Y-119040233D01*
X118946991Y-118961925D01*
X119103092Y-118902267D01*
X119295663Y-118863435D01*
X119532196Y-118849357D01*
X119793805Y-118859484D01*
G37*
G36*
X72332319Y-107158963D02*
G01*
X71865204Y-107134417D01*
X71397907Y-107113900D01*
X71252460Y-107113900D01*
X71307781Y-108027796D01*
X71343146Y-108584377D01*
X71352844Y-108943890D01*
X71367132Y-109160228D01*
X71381420Y-109378398D01*
X71369472Y-109510957D01*
X71336357Y-109617084D01*
X71288447Y-109694826D01*
X71230164Y-109737427D01*
X71158121Y-109751723D01*
X71080712Y-109737686D01*
X71010476Y-109694754D01*
X70961418Y-109629776D01*
X70944897Y-109548025D01*
X70955155Y-109456434D01*
X70965414Y-109364659D01*
X70952041Y-109065157D01*
X70938669Y-108763639D01*
X70928591Y-108442769D01*
X70891774Y-107944631D01*
X70836453Y-107125624D01*
X70649974Y-107127639D01*
X70225262Y-107108699D01*
X69944906Y-107061327D01*
X69850557Y-107017479D01*
X69797622Y-106951130D01*
X69778943Y-106855797D01*
X69792323Y-106775780D01*
X69832249Y-106706320D01*
X69902146Y-106653974D01*
X69989969Y-106640558D01*
X70317865Y-106677377D01*
X70649974Y-106702290D01*
X71022750Y-106697161D01*
X71395892Y-106691849D01*
X71864105Y-106714563D01*
X72332319Y-106737095D01*
X72413585Y-106752442D01*
X72479780Y-106797911D01*
X72524181Y-106865422D01*
X72539315Y-106949220D01*
X72524276Y-107031123D01*
X72479780Y-107098330D01*
X72413599Y-107143657D01*
X72332319Y-107158963D01*
G37*
G36*
X74396049Y-109868960D02*
G01*
X74310545Y-109851801D01*
X74248758Y-109802385D01*
X74205539Y-109713255D01*
X74163513Y-109527150D01*
X74119444Y-109236065D01*
X74090675Y-108952033D01*
X74082441Y-108748618D01*
X74087570Y-108587051D01*
X74092699Y-108425118D01*
X74075172Y-108227890D01*
X74033115Y-108115959D01*
X73975519Y-108058742D01*
X73899991Y-108040069D01*
X73776267Y-108054012D01*
X73659142Y-108095828D01*
X73545938Y-108167592D01*
X73434892Y-108273993D01*
X73326347Y-108424164D01*
X73148029Y-108731765D01*
X73136489Y-109276665D01*
X73110929Y-109548733D01*
X73082450Y-109659399D01*
X73035035Y-109732497D01*
X72976810Y-109773125D01*
X72904213Y-109786894D01*
X72825431Y-109772626D01*
X72756569Y-109729558D01*
X72708706Y-109665531D01*
X72693004Y-109590157D01*
X72711506Y-109499848D01*
X72723163Y-109424908D01*
X72734037Y-109200528D01*
X72740265Y-108897178D01*
X72746310Y-107390139D01*
X72760599Y-107047772D01*
X72741181Y-106850118D01*
X72721764Y-106656311D01*
X72736795Y-106577172D01*
X72781115Y-106513796D01*
X72846837Y-106471657D01*
X72926745Y-106457376D01*
X73003086Y-106469049D01*
X73058587Y-106501411D01*
X73098619Y-106555465D01*
X73123482Y-106638360D01*
X73148568Y-106833585D01*
X73156272Y-106998312D01*
X73141801Y-107448757D01*
X73131726Y-107898286D01*
X73133741Y-108078721D01*
X73253271Y-107935809D01*
X73372963Y-107824770D01*
X73493327Y-107741482D01*
X73624683Y-107679035D01*
X73759642Y-107642097D01*
X73900175Y-107629741D01*
X74067969Y-107645782D01*
X74196339Y-107689524D01*
X74294264Y-107757529D01*
X74367472Y-107850842D01*
X74413436Y-107959715D01*
X74449597Y-108127553D01*
X74469871Y-108374743D01*
X74486174Y-108765654D01*
X74527207Y-109191552D01*
X74596816Y-109613054D01*
X74605059Y-109672405D01*
X74589647Y-109749445D01*
X74543510Y-109812540D01*
X74476266Y-109854738D01*
X74396049Y-109868960D01*
G37*
G36*
X75496057Y-107149071D02*
G01*
X75404566Y-107131584D01*
X75325881Y-107078729D01*
X75272114Y-107000853D01*
X75254257Y-106908736D01*
X75272120Y-106816651D01*
X75325881Y-106738927D01*
X75404580Y-106685929D01*
X75496057Y-106668401D01*
X75587346Y-106685964D01*
X75665134Y-106738927D01*
X75718178Y-106816580D01*
X75735843Y-106908736D01*
X75718184Y-107000925D01*
X75665134Y-107078729D01*
X75587360Y-107131549D01*
X75496057Y-107149071D01*
G37*
G36*
X75588198Y-108810350D02*
G01*
X75595342Y-109178546D01*
X75602669Y-109546559D01*
X75588394Y-109629848D01*
X75547348Y-109694387D01*
X75484489Y-109736926D01*
X75401902Y-109751723D01*
X75320705Y-109737041D01*
X75257188Y-109694387D01*
X75215433Y-109629773D01*
X75200951Y-109546559D01*
X75193807Y-109178546D01*
X75186663Y-108810350D01*
X75206996Y-108329497D01*
X75227512Y-107848644D01*
X75242083Y-107763720D01*
X75283749Y-107698984D01*
X75347281Y-107656188D01*
X75428463Y-107641465D01*
X75509456Y-107656186D01*
X75572811Y-107698984D01*
X75614618Y-107763735D01*
X75629231Y-107848644D01*
X75608714Y-108329497D01*
X75588198Y-108810350D01*
G37*
G36*
X77851780Y-109880683D02*
G01*
X77772174Y-109868250D01*
X77715491Y-109833951D01*
X77675765Y-109776586D01*
X77653027Y-109687976D01*
X77595691Y-109239180D01*
X77573848Y-109002650D01*
X77566931Y-108790200D01*
X77574076Y-108595478D01*
X77581220Y-108400755D01*
X77564690Y-108164227D01*
X77526280Y-108036521D01*
X77477038Y-107976221D01*
X77417272Y-107958004D01*
X77311368Y-107972818D01*
X77204905Y-108018884D01*
X77094731Y-108101746D01*
X76978734Y-108230579D01*
X76866318Y-108403140D01*
X76767499Y-108610533D01*
X76683627Y-108857978D01*
X76665126Y-109058928D01*
X76652853Y-109257681D01*
X76665126Y-109442329D01*
X76677399Y-109626793D01*
X76662794Y-109711543D01*
X76620979Y-109776270D01*
X76557624Y-109819068D01*
X76476631Y-109833789D01*
X76394012Y-109818998D01*
X76331002Y-109776453D01*
X76290028Y-109711842D01*
X76275681Y-109627159D01*
X76262308Y-109442878D01*
X76249119Y-109258780D01*
X76278795Y-108674429D01*
X76308653Y-108090261D01*
X76301326Y-107895722D01*
X76294182Y-107701366D01*
X76309107Y-107620448D01*
X76352617Y-107557018D01*
X76417412Y-107515057D01*
X76497148Y-107500781D01*
X76577884Y-107516086D01*
X76637291Y-107560010D01*
X76680336Y-107638216D01*
X76703960Y-107766029D01*
X76710189Y-108004898D01*
X76864897Y-107823507D01*
X77010946Y-107695340D01*
X77150002Y-107610927D01*
X77284437Y-107563151D01*
X77417272Y-107547676D01*
X77572930Y-107566798D01*
X77696665Y-107620555D01*
X77796023Y-107708404D01*
X77874311Y-107836188D01*
X77919972Y-107968112D01*
X77953789Y-108152974D01*
X77970665Y-108405151D01*
X77970665Y-108611781D01*
X77968650Y-108802107D01*
X77978358Y-108983761D01*
X78012614Y-109241195D01*
X78047043Y-109498344D01*
X78056760Y-109678084D01*
X78041748Y-109760739D01*
X77998325Y-109824446D01*
X77933252Y-109866322D01*
X77851780Y-109880683D01*
G37*
G36*
X80185154Y-109823714D02*
G01*
X80117014Y-109811031D01*
X80059961Y-109773162D01*
X80010947Y-109704829D01*
X79885923Y-109491798D01*
X79689280Y-109214084D01*
X79326579Y-108719125D01*
X78957650Y-108984007D01*
X78940671Y-109299922D01*
X78935119Y-109603162D01*
X78920506Y-109688071D01*
X78878699Y-109752822D01*
X78815344Y-109795620D01*
X78734351Y-109810341D01*
X78645784Y-109793774D01*
X78584301Y-109747222D01*
X78543486Y-109665281D01*
X78527355Y-109531172D01*
X78550803Y-109021010D01*
X78574433Y-108510847D01*
X78583592Y-107797536D01*
X78592935Y-107088255D01*
X78583592Y-106870635D01*
X78574433Y-106653014D01*
X78588998Y-106568059D01*
X78630670Y-106503171D01*
X78694202Y-106460375D01*
X78775384Y-106445652D01*
X78856376Y-106460373D01*
X78919731Y-106503171D01*
X78961545Y-106568074D01*
X78976152Y-106653014D01*
X78986410Y-106875947D01*
X78996668Y-107098696D01*
X78982197Y-107759984D01*
X78976152Y-108474760D01*
X79248634Y-108251831D01*
X79513058Y-108006547D01*
X79963870Y-107540348D01*
X80036127Y-107487153D01*
X80109316Y-107470739D01*
X80184322Y-107486128D01*
X80253847Y-107534303D01*
X80302514Y-107603704D01*
X80318327Y-107681948D01*
X80304456Y-107748957D01*
X80258976Y-107819518D01*
X79987976Y-108115417D01*
X79637989Y-108453878D01*
X80084770Y-109064057D01*
X80290687Y-109368068D01*
X80378057Y-109537411D01*
X80398378Y-109622763D01*
X80382494Y-109698530D01*
X80333714Y-109764180D01*
X80263927Y-109808993D01*
X80185154Y-109823714D01*
G37*
G36*
X129586330Y-94527855D02*
G01*
X129572477Y-94607599D01*
X129527895Y-94670005D01*
X129461234Y-94711095D01*
X129379335Y-94725143D01*
X129318158Y-94713491D01*
X129260236Y-94677066D01*
X129203113Y-94609188D01*
X129096302Y-94468119D01*
X129016634Y-94395598D01*
X128894632Y-94335267D01*
X128729918Y-94294804D01*
X128510502Y-94279644D01*
X128301976Y-94294992D01*
X128106062Y-94340271D01*
X127920289Y-94415382D01*
X127759085Y-94518076D01*
X127653473Y-94631335D01*
X127592490Y-94756785D01*
X127571877Y-94899532D01*
X127589040Y-95016746D01*
X127640053Y-95120701D01*
X127728854Y-95215531D01*
X127864968Y-95302533D01*
X128034795Y-95371963D01*
X128236985Y-95418896D01*
X128477529Y-95440286D01*
X128690140Y-95462819D01*
X128872359Y-95510806D01*
X129028907Y-95582069D01*
X129159867Y-95677663D01*
X129248632Y-95786866D01*
X129301539Y-95912042D01*
X129319800Y-96058342D01*
X129304970Y-96194463D01*
X129260051Y-96326949D01*
X129182370Y-96458507D01*
X129066743Y-96591101D01*
X128905809Y-96725858D01*
X128699693Y-96854264D01*
X128496185Y-96942481D01*
X128293147Y-96994163D01*
X128088084Y-97011256D01*
X127884279Y-96995637D01*
X127639288Y-96944211D01*
X127466551Y-96885967D01*
X127369093Y-96829207D01*
X127321524Y-96775053D01*
X127307362Y-96720912D01*
X127319788Y-96640231D01*
X127352990Y-96587435D01*
X127407449Y-96554700D01*
X127491826Y-96542309D01*
X127588436Y-96550529D01*
X127778689Y-96584258D01*
X127972972Y-96616867D01*
X128096327Y-96624375D01*
X128304731Y-96603870D01*
X128484007Y-96550542D01*
X128639462Y-96466106D01*
X128744774Y-96377692D01*
X128814823Y-96285417D01*
X128855406Y-96187758D01*
X128868989Y-96081789D01*
X128853715Y-96010316D01*
X128806334Y-95947547D01*
X128716555Y-95890538D01*
X128565640Y-95841271D01*
X128426488Y-95818658D01*
X128129117Y-95791995D01*
X127895993Y-95758066D01*
X127699723Y-95696479D01*
X127534414Y-95609648D01*
X127395472Y-95497988D01*
X127288903Y-95371843D01*
X127214227Y-95235237D01*
X127169126Y-95085775D01*
X127153672Y-94920048D01*
X127171698Y-94733459D01*
X127224271Y-94565990D01*
X127311426Y-94413517D01*
X127436220Y-94273237D01*
X127604483Y-94143906D01*
X127804959Y-94035404D01*
X128021280Y-93957204D01*
X128256084Y-93909241D01*
X128512517Y-93892763D01*
X128759208Y-93909424D01*
X128987010Y-93958137D01*
X129198900Y-94038026D01*
X129377928Y-94144534D01*
X129494443Y-94260281D01*
X129561851Y-94386421D01*
X129586330Y-94527855D01*
G37*
G36*
X125108804Y-93896480D02*
G01*
X125206446Y-93969150D01*
X125291014Y-94051219D01*
X125343832Y-94115512D01*
X125536392Y-94020342D01*
X125690230Y-93957793D01*
X125834981Y-93916242D01*
X125940090Y-93904487D01*
X126179430Y-93924094D01*
X126369484Y-93978066D01*
X126520225Y-94061888D01*
X126638930Y-94175047D01*
X126722759Y-94305448D01*
X126787496Y-94472828D01*
X126830239Y-94685672D01*
X126845926Y-94954120D01*
X126824121Y-95195798D01*
X126760412Y-95414923D01*
X126654975Y-95616142D01*
X126504841Y-95802803D01*
X126322759Y-95959316D01*
X126128626Y-96068085D01*
X125919254Y-96133247D01*
X125690046Y-96155429D01*
X125508711Y-96134130D01*
X125290526Y-96063288D01*
X125152723Y-95992965D01*
X125069566Y-95924143D01*
X125025715Y-95856378D01*
X125011906Y-95786683D01*
X125021935Y-95734874D01*
X125052756Y-95688314D01*
X125084630Y-95432042D01*
X125097819Y-94975186D01*
X125089004Y-94734407D01*
X125063014Y-94573651D01*
X125038835Y-94494699D01*
X125425715Y-94494699D01*
X125477590Y-95002411D01*
X125491294Y-95305830D01*
X125480120Y-95496706D01*
X125446231Y-95716341D01*
X125576474Y-95773494D01*
X125663485Y-95791995D01*
X125816033Y-95776022D01*
X125956258Y-95728835D01*
X126087445Y-95649319D01*
X126211749Y-95533525D01*
X126313722Y-95397517D01*
X126384978Y-95254384D01*
X126427700Y-95102110D01*
X126442192Y-94938000D01*
X126426491Y-94716596D01*
X126384899Y-94553514D01*
X126323307Y-94435348D01*
X126232681Y-94343637D01*
X126116554Y-94287846D01*
X125966651Y-94267920D01*
X125779700Y-94286891D01*
X125632710Y-94339361D01*
X125553706Y-94390441D01*
X125425715Y-94494699D01*
X125038835Y-94494699D01*
X125028930Y-94462355D01*
X124933871Y-94212965D01*
X124886793Y-94104338D01*
X124874520Y-94069534D01*
X124889021Y-93994401D01*
X124931856Y-93934345D01*
X124994088Y-93894257D01*
X125065029Y-93881039D01*
X125108804Y-93896480D01*
G37*
G36*
X122945429Y-93869316D02*
G01*
X123025034Y-93881749D01*
X123081717Y-93916048D01*
X123121443Y-93973413D01*
X123144181Y-94062023D01*
X123201517Y-94510819D01*
X123223360Y-94747349D01*
X123230277Y-94959799D01*
X123223133Y-95154521D01*
X123215989Y-95349244D01*
X123232518Y-95585772D01*
X123270928Y-95713478D01*
X123320170Y-95773778D01*
X123379937Y-95791995D01*
X123485840Y-95777181D01*
X123592304Y-95731115D01*
X123702478Y-95648253D01*
X123818475Y-95519420D01*
X123930890Y-95346859D01*
X124029709Y-95139466D01*
X124113581Y-94892021D01*
X124132082Y-94691071D01*
X124144356Y-94492318D01*
X124132082Y-94307670D01*
X124119809Y-94123206D01*
X124134414Y-94038456D01*
X124176229Y-93973729D01*
X124239584Y-93930931D01*
X124320577Y-93916210D01*
X124403196Y-93931001D01*
X124466207Y-93973546D01*
X124507180Y-94038157D01*
X124521528Y-94122840D01*
X124534900Y-94307121D01*
X124548089Y-94491219D01*
X124518414Y-95075570D01*
X124488555Y-95659738D01*
X124495882Y-95854277D01*
X124503026Y-96048633D01*
X124488101Y-96129551D01*
X124444591Y-96192981D01*
X124379796Y-96234942D01*
X124300060Y-96249218D01*
X124219324Y-96233913D01*
X124159917Y-96189989D01*
X124116872Y-96111783D01*
X124093248Y-95983970D01*
X124087020Y-95745101D01*
X123932311Y-95926492D01*
X123786262Y-96054659D01*
X123647206Y-96139072D01*
X123512771Y-96186848D01*
X123379937Y-96202323D01*
X123224278Y-96183201D01*
X123100543Y-96129444D01*
X123001185Y-96041595D01*
X122922897Y-95913811D01*
X122877236Y-95781887D01*
X122843419Y-95597025D01*
X122826543Y-95344848D01*
X122826543Y-95138218D01*
X122828558Y-94947892D01*
X122818850Y-94766238D01*
X122784595Y-94508804D01*
X122750165Y-94251655D01*
X122740448Y-94071915D01*
X122755460Y-93989260D01*
X122798883Y-93925553D01*
X122863956Y-93883677D01*
X122945429Y-93869316D01*
G37*
G36*
X121610478Y-93934665D02*
G01*
X121793966Y-93988009D01*
X121958077Y-94075318D01*
X122106088Y-94198494D01*
X122230436Y-94351130D01*
X122319260Y-94522709D01*
X122373929Y-94716941D01*
X122392951Y-94938916D01*
X122372953Y-95210779D01*
X122316301Y-95443133D01*
X122226140Y-95642590D01*
X122102974Y-95814344D01*
X121947011Y-95958545D01*
X121772344Y-96060192D01*
X121575140Y-96122205D01*
X121349729Y-96143705D01*
X121192017Y-96134043D01*
X121072420Y-96108223D01*
X120982998Y-96069883D01*
X120790291Y-95928466D01*
X120754723Y-96725562D01*
X120722696Y-97097168D01*
X120687561Y-97203473D01*
X120627228Y-97260856D01*
X120536217Y-97280900D01*
X120452511Y-97267697D01*
X120397352Y-97232216D01*
X120362865Y-97173523D01*
X120349738Y-97081964D01*
X120364642Y-96713155D01*
X120431620Y-95822404D01*
X120450036Y-95520608D01*
X120456166Y-95219185D01*
X120438210Y-94598381D01*
X120825095Y-94598381D01*
X120831324Y-94950640D01*
X120829308Y-95186762D01*
X120825095Y-95426913D01*
X120918202Y-95574030D01*
X121032274Y-95674392D01*
X121170881Y-95735359D01*
X121341486Y-95756824D01*
X121512413Y-95742507D01*
X121651658Y-95702629D01*
X121765384Y-95639879D01*
X121858059Y-95554225D01*
X121928343Y-95449716D01*
X121982063Y-95317556D01*
X122017234Y-95151601D01*
X122030067Y-94944412D01*
X122009111Y-94776919D01*
X121947454Y-94627888D01*
X121842672Y-94492318D01*
X121708314Y-94385906D01*
X121563339Y-94323960D01*
X121403035Y-94303091D01*
X121239644Y-94319902D01*
X121112142Y-94366289D01*
X121033431Y-94417237D01*
X120884630Y-94535183D01*
X120825095Y-94598381D01*
X120438210Y-94598381D01*
X120437620Y-94577984D01*
X120392785Y-94187320D01*
X120388572Y-94140059D01*
X120403083Y-94064768D01*
X120445908Y-94004687D01*
X120508166Y-93964608D01*
X120579265Y-93951381D01*
X120651763Y-93969236D01*
X120713109Y-94025417D01*
X120765744Y-94135662D01*
X120917775Y-94039603D01*
X121072208Y-93971714D01*
X121233882Y-93930161D01*
X121403035Y-93916210D01*
X121610478Y-93934665D01*
G37*
G36*
X70413669Y-83472144D02*
G01*
X70427522Y-83392400D01*
X70472104Y-83329994D01*
X70538765Y-83288904D01*
X70620664Y-83274856D01*
X70681841Y-83286508D01*
X70739763Y-83322933D01*
X70796886Y-83390811D01*
X70903697Y-83531880D01*
X70983365Y-83604401D01*
X71105367Y-83664732D01*
X71270081Y-83705195D01*
X71489497Y-83720355D01*
X71698023Y-83705007D01*
X71893937Y-83659728D01*
X72079710Y-83584617D01*
X72240914Y-83481923D01*
X72346526Y-83368664D01*
X72407509Y-83243214D01*
X72428122Y-83100467D01*
X72410959Y-82983253D01*
X72359946Y-82879298D01*
X72271145Y-82784468D01*
X72135031Y-82697466D01*
X71965204Y-82628036D01*
X71763014Y-82581103D01*
X71522470Y-82559713D01*
X71309859Y-82537180D01*
X71127640Y-82489193D01*
X70971092Y-82417930D01*
X70840132Y-82322336D01*
X70751367Y-82213133D01*
X70698460Y-82087957D01*
X70680199Y-81941657D01*
X70695029Y-81805536D01*
X70739948Y-81673050D01*
X70817629Y-81541492D01*
X70933256Y-81408898D01*
X71094190Y-81274141D01*
X71300306Y-81145735D01*
X71503814Y-81057518D01*
X71706852Y-81005836D01*
X71911915Y-80988743D01*
X72115720Y-81004362D01*
X72360711Y-81055788D01*
X72533448Y-81114032D01*
X72630906Y-81170792D01*
X72678475Y-81224946D01*
X72692637Y-81279087D01*
X72680211Y-81359768D01*
X72647009Y-81412564D01*
X72592550Y-81445299D01*
X72508173Y-81457690D01*
X72411563Y-81449470D01*
X72221310Y-81415741D01*
X72027027Y-81383132D01*
X71903672Y-81375624D01*
X71695268Y-81396129D01*
X71515992Y-81449457D01*
X71360537Y-81533893D01*
X71255225Y-81622307D01*
X71185176Y-81714582D01*
X71144593Y-81812241D01*
X71131010Y-81918210D01*
X71146284Y-81989683D01*
X71193665Y-82052452D01*
X71283444Y-82109461D01*
X71434359Y-82158728D01*
X71573511Y-82181341D01*
X71870882Y-82208004D01*
X72104006Y-82241933D01*
X72300276Y-82303520D01*
X72465585Y-82390351D01*
X72604527Y-82502011D01*
X72711096Y-82628156D01*
X72785772Y-82764762D01*
X72830873Y-82914224D01*
X72846327Y-83079951D01*
X72828301Y-83266540D01*
X72775728Y-83434009D01*
X72688573Y-83586482D01*
X72563779Y-83726762D01*
X72395516Y-83856093D01*
X72195040Y-83964595D01*
X71978719Y-84042795D01*
X71743915Y-84090758D01*
X71487482Y-84107236D01*
X71240791Y-84090575D01*
X71012989Y-84041862D01*
X70801099Y-83961973D01*
X70622071Y-83855465D01*
X70505556Y-83739718D01*
X70438148Y-83613578D01*
X70413669Y-83472144D01*
G37*
G36*
X74491288Y-81865869D02*
G01*
X74709473Y-81936711D01*
X74847276Y-82007034D01*
X74930433Y-82075856D01*
X74974284Y-82143621D01*
X74988093Y-82213316D01*
X74978064Y-82265125D01*
X74947243Y-82311685D01*
X74915369Y-82567957D01*
X74902180Y-83024813D01*
X74910995Y-83265592D01*
X74936985Y-83426348D01*
X74971069Y-83537644D01*
X75066128Y-83787034D01*
X75113206Y-83895661D01*
X75125479Y-83930465D01*
X75110978Y-84005598D01*
X75068143Y-84065654D01*
X75005911Y-84105742D01*
X74934970Y-84118960D01*
X74891195Y-84103519D01*
X74793553Y-84030849D01*
X74708985Y-83948780D01*
X74656167Y-83884487D01*
X74463607Y-83979657D01*
X74309769Y-84042206D01*
X74165018Y-84083757D01*
X74059909Y-84095512D01*
X73820569Y-84075905D01*
X73630515Y-84021933D01*
X73479774Y-83938111D01*
X73361069Y-83824952D01*
X73277240Y-83694551D01*
X73212503Y-83527171D01*
X73169760Y-83314327D01*
X73155015Y-83061999D01*
X73557807Y-83061999D01*
X73573508Y-83283403D01*
X73615100Y-83446485D01*
X73676692Y-83564651D01*
X73767318Y-83656362D01*
X73883445Y-83712153D01*
X74033348Y-83732079D01*
X74220299Y-83713108D01*
X74367289Y-83660638D01*
X74446293Y-83609558D01*
X74574284Y-83505300D01*
X74522409Y-82997588D01*
X74508705Y-82694169D01*
X74519879Y-82503293D01*
X74553768Y-82283658D01*
X74423525Y-82226505D01*
X74336514Y-82208004D01*
X74183966Y-82223977D01*
X74043741Y-82271164D01*
X73912554Y-82350680D01*
X73788250Y-82466474D01*
X73686277Y-82602482D01*
X73615021Y-82745615D01*
X73572299Y-82897889D01*
X73557807Y-83061999D01*
X73155015Y-83061999D01*
X73154073Y-83045879D01*
X73175878Y-82804201D01*
X73239587Y-82585076D01*
X73345024Y-82383857D01*
X73495158Y-82197196D01*
X73677240Y-82040683D01*
X73871373Y-81931914D01*
X74080745Y-81866752D01*
X74309953Y-81844570D01*
X74491288Y-81865869D01*
G37*
G36*
X77054570Y-84130683D02*
G01*
X76974965Y-84118250D01*
X76918282Y-84083951D01*
X76878556Y-84026586D01*
X76855818Y-83937976D01*
X76798482Y-83489180D01*
X76776639Y-83252650D01*
X76769722Y-83040200D01*
X76776866Y-82845478D01*
X76784010Y-82650755D01*
X76767481Y-82414227D01*
X76729071Y-82286521D01*
X76679829Y-82226221D01*
X76620062Y-82208004D01*
X76514159Y-82222818D01*
X76407695Y-82268884D01*
X76297521Y-82351746D01*
X76181524Y-82480579D01*
X76069109Y-82653140D01*
X75970290Y-82860533D01*
X75886418Y-83107978D01*
X75867917Y-83308928D01*
X75855643Y-83507681D01*
X75867917Y-83692329D01*
X75880190Y-83876793D01*
X75865585Y-83961543D01*
X75823770Y-84026270D01*
X75760415Y-84069068D01*
X75679422Y-84083789D01*
X75596803Y-84068998D01*
X75533792Y-84026453D01*
X75492819Y-83961842D01*
X75478471Y-83877159D01*
X75465099Y-83692878D01*
X75451910Y-83508780D01*
X75481585Y-82924429D01*
X75511444Y-82340261D01*
X75504117Y-82145722D01*
X75496973Y-81951366D01*
X75511898Y-81870448D01*
X75555408Y-81807018D01*
X75620203Y-81765057D01*
X75699939Y-81750781D01*
X75780675Y-81766086D01*
X75840082Y-81810010D01*
X75883127Y-81888216D01*
X75906751Y-82016029D01*
X75912979Y-82254898D01*
X76067688Y-82073507D01*
X76213737Y-81945340D01*
X76352793Y-81860927D01*
X76487228Y-81813151D01*
X76620062Y-81797676D01*
X76775721Y-81816798D01*
X76899456Y-81870555D01*
X76998814Y-81958404D01*
X77077102Y-82086188D01*
X77122763Y-82218112D01*
X77156580Y-82402974D01*
X77173456Y-82655151D01*
X77173456Y-82861781D01*
X77171441Y-83052107D01*
X77181149Y-83233761D01*
X77215404Y-83491195D01*
X77249834Y-83748344D01*
X77259551Y-83928084D01*
X77244539Y-84010739D01*
X77201116Y-84074446D01*
X77136043Y-84116322D01*
X77054570Y-84130683D01*
G37*
G36*
X79547488Y-80732302D02*
G01*
X79602647Y-80767783D01*
X79637134Y-80826476D01*
X79650261Y-80918035D01*
X79635357Y-81286844D01*
X79568379Y-82177595D01*
X79549963Y-82479391D01*
X79543833Y-82780814D01*
X79562379Y-83422015D01*
X79607214Y-83812679D01*
X79611427Y-83859940D01*
X79596916Y-83935231D01*
X79554091Y-83995312D01*
X79491833Y-84035391D01*
X79420734Y-84048618D01*
X79348236Y-84030763D01*
X79286890Y-83974582D01*
X79234255Y-83864337D01*
X79082224Y-83960396D01*
X78927791Y-84028285D01*
X78766117Y-84069838D01*
X78596964Y-84083789D01*
X78389521Y-84065334D01*
X78206033Y-84011990D01*
X78041922Y-83924681D01*
X77893911Y-83801505D01*
X77769563Y-83648869D01*
X77680739Y-83477290D01*
X77626070Y-83283058D01*
X77607048Y-83061083D01*
X77607452Y-83055587D01*
X77969932Y-83055587D01*
X77990888Y-83223080D01*
X78052545Y-83372111D01*
X78157327Y-83507681D01*
X78291685Y-83614093D01*
X78436660Y-83676039D01*
X78596964Y-83696908D01*
X78760355Y-83680097D01*
X78887857Y-83633710D01*
X78966568Y-83582762D01*
X79115369Y-83464816D01*
X79174904Y-83401618D01*
X79168675Y-83049359D01*
X79170691Y-82813237D01*
X79174904Y-82573086D01*
X79081797Y-82425969D01*
X78967725Y-82325607D01*
X78829118Y-82264640D01*
X78658513Y-82243175D01*
X78487586Y-82257492D01*
X78348341Y-82297370D01*
X78234615Y-82360120D01*
X78141940Y-82445774D01*
X78071656Y-82550283D01*
X78017936Y-82682443D01*
X77982765Y-82848398D01*
X77969932Y-83055587D01*
X77607452Y-83055587D01*
X77627046Y-82789220D01*
X77683698Y-82556866D01*
X77773859Y-82357409D01*
X77897025Y-82185655D01*
X78052988Y-82041454D01*
X78227655Y-81939807D01*
X78424859Y-81877794D01*
X78650270Y-81856294D01*
X78807982Y-81865956D01*
X78927579Y-81891776D01*
X79017001Y-81930116D01*
X79209708Y-82071533D01*
X79245276Y-81274437D01*
X79277303Y-80902831D01*
X79312438Y-80796526D01*
X79372771Y-80739143D01*
X79463782Y-80719099D01*
X79547488Y-80732302D01*
G37*
G36*
X127667680Y-70591036D02*
G01*
X128134795Y-70615582D01*
X128602092Y-70636099D01*
X128747539Y-70636099D01*
X128692218Y-69722203D01*
X128656853Y-69165622D01*
X128647155Y-68806109D01*
X128632867Y-68589771D01*
X128618579Y-68371601D01*
X128630527Y-68239042D01*
X128663642Y-68132915D01*
X128711552Y-68055173D01*
X128769835Y-68012572D01*
X128841878Y-67998276D01*
X128919287Y-68012313D01*
X128989523Y-68055245D01*
X129038581Y-68120223D01*
X129055102Y-68201974D01*
X129044844Y-68293565D01*
X129034585Y-68385340D01*
X129047958Y-68684842D01*
X129061330Y-68986360D01*
X129071408Y-69307230D01*
X129108225Y-69805368D01*
X129163546Y-70624375D01*
X129350025Y-70622360D01*
X129774737Y-70641300D01*
X130055093Y-70688672D01*
X130149442Y-70732520D01*
X130202377Y-70798869D01*
X130221056Y-70894202D01*
X130207676Y-70974219D01*
X130167750Y-71043679D01*
X130097853Y-71096025D01*
X130010030Y-71109441D01*
X129682134Y-71072622D01*
X129350025Y-71047709D01*
X128977249Y-71052838D01*
X128604107Y-71058150D01*
X128135894Y-71035436D01*
X127667680Y-71012904D01*
X127586414Y-70997557D01*
X127520219Y-70952088D01*
X127475818Y-70884577D01*
X127460684Y-70800779D01*
X127475723Y-70718876D01*
X127520219Y-70651669D01*
X127586400Y-70606342D01*
X127667680Y-70591036D01*
G37*
G36*
X125603950Y-67881039D02*
G01*
X125689454Y-67898198D01*
X125751241Y-67947614D01*
X125794460Y-68036744D01*
X125836486Y-68222849D01*
X125880555Y-68513934D01*
X125909324Y-68797966D01*
X125917558Y-69001381D01*
X125912429Y-69162948D01*
X125907300Y-69324881D01*
X125924827Y-69522109D01*
X125966884Y-69634040D01*
X126024480Y-69691257D01*
X126100008Y-69709930D01*
X126223732Y-69695987D01*
X126340857Y-69654171D01*
X126454061Y-69582407D01*
X126565107Y-69476006D01*
X126673652Y-69325835D01*
X126851970Y-69018234D01*
X126863510Y-68473334D01*
X126889070Y-68201266D01*
X126917549Y-68090600D01*
X126964964Y-68017502D01*
X127023189Y-67976874D01*
X127095786Y-67963105D01*
X127174568Y-67977373D01*
X127243430Y-68020441D01*
X127291293Y-68084468D01*
X127306995Y-68159842D01*
X127288493Y-68250151D01*
X127276836Y-68325091D01*
X127265962Y-68549471D01*
X127259734Y-68852821D01*
X127253689Y-70359860D01*
X127239400Y-70702227D01*
X127258818Y-70899881D01*
X127278235Y-71093688D01*
X127263204Y-71172827D01*
X127218884Y-71236203D01*
X127153162Y-71278342D01*
X127073254Y-71292623D01*
X126996913Y-71280950D01*
X126941412Y-71248588D01*
X126901380Y-71194534D01*
X126876517Y-71111639D01*
X126851431Y-70916414D01*
X126843727Y-70751687D01*
X126858198Y-70301242D01*
X126868273Y-69851713D01*
X126866258Y-69671278D01*
X126746728Y-69814190D01*
X126627036Y-69925229D01*
X126506672Y-70008517D01*
X126375316Y-70070964D01*
X126240357Y-70107902D01*
X126099824Y-70120258D01*
X125932030Y-70104217D01*
X125803660Y-70060475D01*
X125705735Y-69992470D01*
X125632527Y-69899157D01*
X125586563Y-69790284D01*
X125550402Y-69622446D01*
X125530128Y-69375256D01*
X125513825Y-68984345D01*
X125472792Y-68558447D01*
X125403183Y-68136945D01*
X125394940Y-68077594D01*
X125410352Y-68000554D01*
X125456489Y-67937459D01*
X125523733Y-67895261D01*
X125603950Y-67881039D01*
G37*
G36*
X124503942Y-70600928D02*
G01*
X124595433Y-70618415D01*
X124674118Y-70671270D01*
X124727885Y-70749146D01*
X124745742Y-70841263D01*
X124727879Y-70933348D01*
X124674118Y-71011072D01*
X124595419Y-71064070D01*
X124503942Y-71081598D01*
X124412653Y-71064035D01*
X124334865Y-71011072D01*
X124281821Y-70933419D01*
X124264156Y-70841263D01*
X124281815Y-70749074D01*
X124334865Y-70671270D01*
X124412639Y-70618450D01*
X124503942Y-70600928D01*
G37*
G36*
X124411801Y-68939649D02*
G01*
X124404657Y-68571453D01*
X124397330Y-68203440D01*
X124411605Y-68120151D01*
X124452651Y-68055612D01*
X124515510Y-68013073D01*
X124598097Y-67998276D01*
X124679294Y-68012958D01*
X124742811Y-68055612D01*
X124784566Y-68120226D01*
X124799048Y-68203440D01*
X124806192Y-68571453D01*
X124813336Y-68939649D01*
X124793003Y-69420502D01*
X124772487Y-69901355D01*
X124757916Y-69986279D01*
X124716250Y-70051015D01*
X124652718Y-70093811D01*
X124571536Y-70108534D01*
X124490543Y-70093813D01*
X124427188Y-70051015D01*
X124385381Y-69986264D01*
X124370768Y-69901355D01*
X124391285Y-69420502D01*
X124411801Y-68939649D01*
G37*
G36*
X122148219Y-67869316D02*
G01*
X122227825Y-67881749D01*
X122284508Y-67916048D01*
X122324234Y-67973413D01*
X122346972Y-68062023D01*
X122404308Y-68510819D01*
X122426151Y-68747349D01*
X122433068Y-68959799D01*
X122425923Y-69154521D01*
X122418779Y-69349244D01*
X122435309Y-69585772D01*
X122473719Y-69713478D01*
X122522961Y-69773778D01*
X122582727Y-69791995D01*
X122688631Y-69777181D01*
X122795094Y-69731115D01*
X122905268Y-69648253D01*
X123021265Y-69519420D01*
X123133681Y-69346859D01*
X123232500Y-69139466D01*
X123316372Y-68892021D01*
X123334873Y-68691071D01*
X123347146Y-68492318D01*
X123334873Y-68307670D01*
X123322600Y-68123206D01*
X123337205Y-68038456D01*
X123379020Y-67973729D01*
X123442375Y-67930931D01*
X123523368Y-67916210D01*
X123605987Y-67931001D01*
X123668997Y-67973546D01*
X123709971Y-68038157D01*
X123724318Y-68122840D01*
X123737691Y-68307121D01*
X123750880Y-68491219D01*
X123721204Y-69075570D01*
X123691346Y-69659738D01*
X123698673Y-69854277D01*
X123705817Y-70048633D01*
X123690892Y-70129551D01*
X123647382Y-70192981D01*
X123582587Y-70234942D01*
X123502851Y-70249218D01*
X123422115Y-70233913D01*
X123362708Y-70189989D01*
X123319663Y-70111783D01*
X123296039Y-69983970D01*
X123289810Y-69745101D01*
X123135102Y-69926492D01*
X122989053Y-70054659D01*
X122849997Y-70139072D01*
X122715562Y-70186848D01*
X122582727Y-70202323D01*
X122427069Y-70183201D01*
X122303334Y-70129444D01*
X122203976Y-70041595D01*
X122125688Y-69913811D01*
X122080027Y-69781887D01*
X122046210Y-69597025D01*
X122029334Y-69344848D01*
X122029334Y-69138218D01*
X122031349Y-68947892D01*
X122021641Y-68766238D01*
X121987385Y-68508804D01*
X121952956Y-68251655D01*
X121943239Y-68071915D01*
X121958251Y-67989260D01*
X122001674Y-67925553D01*
X122066747Y-67883677D01*
X122148219Y-67869316D01*
G37*
G36*
X119814845Y-67926285D02*
G01*
X119882985Y-67938968D01*
X119940038Y-67976837D01*
X119989052Y-68045170D01*
X120114076Y-68258201D01*
X120310719Y-68535915D01*
X120673420Y-69030874D01*
X121042349Y-68765992D01*
X121059328Y-68450077D01*
X121064880Y-68146837D01*
X121079493Y-68061928D01*
X121121300Y-67997177D01*
X121184655Y-67954379D01*
X121265648Y-67939658D01*
X121354215Y-67956225D01*
X121415698Y-68002777D01*
X121456513Y-68084718D01*
X121472644Y-68218827D01*
X121449196Y-68728989D01*
X121425566Y-69239152D01*
X121416407Y-69952463D01*
X121407064Y-70661744D01*
X121416407Y-70879364D01*
X121425566Y-71096985D01*
X121411001Y-71181940D01*
X121369329Y-71246828D01*
X121305797Y-71289624D01*
X121224615Y-71304347D01*
X121143623Y-71289626D01*
X121080268Y-71246828D01*
X121038454Y-71181925D01*
X121023847Y-71096985D01*
X121013589Y-70874052D01*
X121003331Y-70651303D01*
X121017802Y-69990015D01*
X121023847Y-69275239D01*
X120751365Y-69498168D01*
X120486941Y-69743452D01*
X120036129Y-70209651D01*
X119963872Y-70262846D01*
X119890683Y-70279260D01*
X119815677Y-70263871D01*
X119746152Y-70215696D01*
X119697485Y-70146295D01*
X119681672Y-70068051D01*
X119695543Y-70001042D01*
X119741023Y-69930481D01*
X120012023Y-69634582D01*
X120362010Y-69296121D01*
X119915229Y-68685942D01*
X119709312Y-68381931D01*
X119621942Y-68212588D01*
X119601621Y-68127236D01*
X119617505Y-68051469D01*
X119666285Y-67985819D01*
X119736072Y-67941006D01*
X119814845Y-67926285D01*
G37*
G36*
X71468981Y-58165854D02*
G01*
X71401451Y-58153582D01*
X71341539Y-58116309D01*
X71286531Y-58048618D01*
X71233329Y-57929741D01*
X71175889Y-57713394D01*
X71102067Y-57360769D01*
X71012201Y-56934958D01*
X70835720Y-55913080D01*
X70425758Y-57149560D01*
X70304858Y-57539188D01*
X70225788Y-57759059D01*
X70151168Y-57918558D01*
X70083081Y-58014530D01*
X70007125Y-58066663D01*
X69919626Y-58083789D01*
X69847255Y-58069276D01*
X69784768Y-58025018D01*
X69729117Y-57943105D01*
X69687989Y-57850292D01*
X69647051Y-57723653D01*
X69587700Y-57496140D01*
X69395652Y-56757951D01*
X69222801Y-55945870D01*
X69148979Y-56314249D01*
X68884647Y-57400703D01*
X68855123Y-57614151D01*
X68782248Y-57966552D01*
X68729021Y-58061765D01*
X68662669Y-58113392D01*
X68579283Y-58130683D01*
X68488434Y-58112218D01*
X68419548Y-58058143D01*
X68381489Y-57989977D01*
X68368257Y-57904820D01*
X68381784Y-57675709D01*
X68426563Y-57395488D01*
X68509673Y-57055221D01*
X68734987Y-56228886D01*
X68853873Y-55582986D01*
X68925799Y-55277081D01*
X68989565Y-55091899D01*
X69044565Y-54990392D01*
X69106086Y-54922221D01*
X69172787Y-54884128D01*
X69247531Y-54871507D01*
X69326789Y-54887455D01*
X69391841Y-54935306D01*
X69446284Y-55023182D01*
X69518238Y-55254157D01*
X69618475Y-55767451D01*
X69701101Y-56214532D01*
X69812867Y-56700247D01*
X69956446Y-57227412D01*
X70148289Y-56697538D01*
X70323253Y-56149629D01*
X70481079Y-55582986D01*
X70542629Y-55283483D01*
X70587680Y-55113149D01*
X70638982Y-54992407D01*
X70701652Y-54909542D01*
X70773513Y-54863469D01*
X70858251Y-54848060D01*
X70931801Y-54864216D01*
X70999745Y-54915411D01*
X71065147Y-55014011D01*
X71126613Y-55181085D01*
X71157709Y-55329328D01*
X71206481Y-55665052D01*
X71298889Y-56283565D01*
X71400025Y-56807760D01*
X71507815Y-57248112D01*
X71608199Y-57600737D01*
X71673046Y-57863001D01*
X71686235Y-57955195D01*
X71669577Y-58037601D01*
X71619556Y-58105404D01*
X71548024Y-58150998D01*
X71468981Y-58165854D01*
G37*
G36*
X73288147Y-55865869D02*
G01*
X73506332Y-55936711D01*
X73644136Y-56007034D01*
X73727293Y-56075856D01*
X73771143Y-56143621D01*
X73784952Y-56213316D01*
X73774923Y-56265125D01*
X73744103Y-56311685D01*
X73712229Y-56567957D01*
X73699040Y-57024813D01*
X73707855Y-57265592D01*
X73733845Y-57426348D01*
X73767929Y-57537644D01*
X73862988Y-57787034D01*
X73910066Y-57895661D01*
X73922339Y-57930465D01*
X73907837Y-58005598D01*
X73865003Y-58065654D01*
X73802771Y-58105742D01*
X73731830Y-58118960D01*
X73688055Y-58103519D01*
X73590413Y-58030849D01*
X73505844Y-57948780D01*
X73453026Y-57884487D01*
X73260467Y-57979657D01*
X73106629Y-58042206D01*
X72961878Y-58083757D01*
X72856769Y-58095512D01*
X72617428Y-58075905D01*
X72427374Y-58021933D01*
X72276634Y-57938111D01*
X72157929Y-57824952D01*
X72074099Y-57694551D01*
X72009362Y-57527171D01*
X71966620Y-57314327D01*
X71951875Y-57061999D01*
X72354666Y-57061999D01*
X72370367Y-57283403D01*
X72411960Y-57446485D01*
X72473552Y-57564651D01*
X72564178Y-57656362D01*
X72680304Y-57712153D01*
X72830207Y-57732079D01*
X73017159Y-57713108D01*
X73164148Y-57660638D01*
X73243153Y-57609558D01*
X73371144Y-57505300D01*
X73319269Y-56997588D01*
X73305565Y-56694169D01*
X73316739Y-56503293D01*
X73350628Y-56283658D01*
X73220385Y-56226505D01*
X73133374Y-56208004D01*
X72980826Y-56223977D01*
X72840601Y-56271164D01*
X72709414Y-56350680D01*
X72585109Y-56466474D01*
X72483137Y-56602482D01*
X72411881Y-56745615D01*
X72369159Y-56897889D01*
X72354666Y-57061999D01*
X71951875Y-57061999D01*
X71950933Y-57045879D01*
X71972738Y-56804201D01*
X72036447Y-56585076D01*
X72141884Y-56383857D01*
X72292018Y-56197196D01*
X72474099Y-56040683D01*
X72668233Y-55931914D01*
X72877605Y-55866752D01*
X73106812Y-55844570D01*
X73288147Y-55865869D01*
G37*
G36*
X75986619Y-58073714D02*
G01*
X75918479Y-58061031D01*
X75861426Y-58023162D01*
X75812412Y-57954829D01*
X75687388Y-57741798D01*
X75490745Y-57464084D01*
X75128044Y-56969125D01*
X74759115Y-57234007D01*
X74742136Y-57549922D01*
X74736584Y-57853162D01*
X74721971Y-57938071D01*
X74680164Y-58002822D01*
X74616809Y-58045620D01*
X74535816Y-58060341D01*
X74447249Y-58043774D01*
X74385765Y-57997222D01*
X74344951Y-57915281D01*
X74328820Y-57781172D01*
X74352268Y-57271010D01*
X74375898Y-56760847D01*
X74385057Y-56047536D01*
X74394399Y-55338255D01*
X74385057Y-55120635D01*
X74375898Y-54903014D01*
X74390463Y-54818059D01*
X74432135Y-54753171D01*
X74495667Y-54710375D01*
X74576849Y-54695652D01*
X74657841Y-54710373D01*
X74721196Y-54753171D01*
X74763010Y-54818074D01*
X74777616Y-54903014D01*
X74787875Y-55125947D01*
X74798133Y-55348696D01*
X74783661Y-56009984D01*
X74777616Y-56724760D01*
X75050099Y-56501831D01*
X75314523Y-56256547D01*
X75765335Y-55790348D01*
X75837592Y-55737153D01*
X75910781Y-55720739D01*
X75985787Y-55736128D01*
X76055312Y-55784303D01*
X76103979Y-55853704D01*
X76119792Y-55931948D01*
X76105921Y-55998957D01*
X76060441Y-56069518D01*
X75789441Y-56365417D01*
X75439454Y-56703878D01*
X75886235Y-57314057D01*
X76092152Y-57618068D01*
X76179522Y-57787411D01*
X76199843Y-57872763D01*
X76183959Y-57948530D01*
X76135179Y-58014180D01*
X76065392Y-58058993D01*
X75986619Y-58073714D01*
G37*
G36*
X76936601Y-55399071D02*
G01*
X76845110Y-55381584D01*
X76766425Y-55328729D01*
X76712658Y-55250853D01*
X76694801Y-55158736D01*
X76712664Y-55066651D01*
X76766425Y-54988927D01*
X76845124Y-54935929D01*
X76936601Y-54918401D01*
X77027890Y-54935964D01*
X77105678Y-54988927D01*
X77158722Y-55066580D01*
X77176387Y-55158736D01*
X77158728Y-55250925D01*
X77105678Y-55328729D01*
X77027904Y-55381549D01*
X76936601Y-55399071D01*
G37*
G36*
X77028742Y-57060350D02*
G01*
X77035886Y-57428546D01*
X77043213Y-57796559D01*
X77028938Y-57879848D01*
X76987892Y-57944387D01*
X76925033Y-57986926D01*
X76842445Y-58001723D01*
X76761248Y-57987041D01*
X76697732Y-57944387D01*
X76655977Y-57879773D01*
X76641495Y-57796559D01*
X76634351Y-57428546D01*
X76627206Y-57060350D01*
X76647540Y-56579497D01*
X76668056Y-56098644D01*
X76682627Y-56013720D01*
X76724293Y-55948984D01*
X76787825Y-55906188D01*
X76869007Y-55891465D01*
X76949999Y-55906186D01*
X77013354Y-55948984D01*
X77055162Y-56013735D01*
X77069775Y-56098644D01*
X77049258Y-56579497D01*
X77028742Y-57060350D01*
G37*
G36*
X79292323Y-58130683D02*
G01*
X79212718Y-58118250D01*
X79156035Y-58083951D01*
X79116309Y-58026586D01*
X79093571Y-57937976D01*
X79036235Y-57489180D01*
X79014392Y-57252650D01*
X79007475Y-57040200D01*
X79014619Y-56845478D01*
X79021763Y-56650755D01*
X79005234Y-56414227D01*
X78966824Y-56286521D01*
X78917582Y-56226221D01*
X78857815Y-56208004D01*
X78751912Y-56222818D01*
X78645448Y-56268884D01*
X78535274Y-56351746D01*
X78419277Y-56480579D01*
X78306862Y-56653140D01*
X78208043Y-56860533D01*
X78124171Y-57107978D01*
X78105669Y-57308928D01*
X78093396Y-57507681D01*
X78105669Y-57692329D01*
X78117943Y-57876793D01*
X78103337Y-57961543D01*
X78061523Y-58026270D01*
X77998168Y-58069068D01*
X77917175Y-58083789D01*
X77834556Y-58068998D01*
X77771545Y-58026453D01*
X77730572Y-57961842D01*
X77716224Y-57877159D01*
X77702852Y-57692878D01*
X77689663Y-57508780D01*
X77719338Y-56924429D01*
X77749197Y-56340261D01*
X77741870Y-56145722D01*
X77734726Y-55951366D01*
X77749650Y-55870448D01*
X77793161Y-55807018D01*
X77857956Y-55765057D01*
X77937691Y-55750781D01*
X78018427Y-55766086D01*
X78077835Y-55810010D01*
X78120880Y-55888216D01*
X78144504Y-56016029D01*
X78150732Y-56254898D01*
X78305441Y-56073507D01*
X78451490Y-55945340D01*
X78590546Y-55860927D01*
X78724981Y-55813151D01*
X78857815Y-55797676D01*
X79013474Y-55816798D01*
X79137209Y-55870555D01*
X79236567Y-55958404D01*
X79314855Y-56086188D01*
X79360516Y-56218112D01*
X79394333Y-56402974D01*
X79411209Y-56655151D01*
X79411209Y-56861781D01*
X79409194Y-57052107D01*
X79418902Y-57233761D01*
X79453157Y-57491195D01*
X79487587Y-57748344D01*
X79497304Y-57928084D01*
X79482292Y-58010739D01*
X79438869Y-58074446D01*
X79373796Y-58116322D01*
X79292323Y-58130683D01*
G37*
G36*
X81149741Y-55904840D02*
G01*
X81287543Y-55940741D01*
X81403098Y-56003695D01*
X81484281Y-56088569D01*
X81582221Y-56106892D01*
X81647260Y-56151018D01*
X81688055Y-56222545D01*
X81703550Y-56332751D01*
X81694192Y-56490008D01*
X81660502Y-56722745D01*
X81605181Y-57108527D01*
X81558103Y-57798208D01*
X81528587Y-58189475D01*
X81474023Y-58469204D01*
X81395558Y-58681382D01*
X81296728Y-58841673D01*
X81178916Y-58959766D01*
X81053008Y-59038074D01*
X80896907Y-59097732D01*
X80704336Y-59136564D01*
X80467803Y-59150642D01*
X80206194Y-59140515D01*
X80010947Y-59113822D01*
X79884468Y-59075718D01*
X79807932Y-59027186D01*
X79766427Y-58970144D01*
X79752660Y-58901514D01*
X79764959Y-58818500D01*
X79797517Y-58764786D01*
X79850193Y-58731935D01*
X79930896Y-58719614D01*
X80176910Y-58755334D01*
X80354076Y-58780896D01*
X80558112Y-58787208D01*
X80707368Y-58768366D01*
X80832238Y-58719636D01*
X80937982Y-58641462D01*
X81027524Y-58530306D01*
X81101064Y-58379078D01*
X81151080Y-58196164D01*
X81188244Y-57929873D01*
X81205661Y-57556224D01*
X81122603Y-57710445D01*
X81034692Y-57828666D01*
X80942245Y-57916727D01*
X80835398Y-57983589D01*
X80719925Y-58023375D01*
X80592917Y-58036894D01*
X80411762Y-58020282D01*
X80253519Y-57972466D01*
X80113740Y-57894408D01*
X79989331Y-57784286D01*
X79889469Y-57651767D01*
X79817267Y-57500849D01*
X79772399Y-57328064D01*
X79756690Y-57128860D01*
X79759555Y-57092590D01*
X80154378Y-57092590D01*
X80168942Y-57266891D01*
X80207963Y-57396813D01*
X80267036Y-57492660D01*
X80350937Y-57564798D01*
X80460901Y-57610096D01*
X80605190Y-57626566D01*
X80734997Y-57605602D01*
X80867248Y-57539390D01*
X81006725Y-57417372D01*
X81112184Y-57281919D01*
X81176862Y-57155698D01*
X81207676Y-57035804D01*
X81248097Y-56808745D01*
X81299816Y-56413717D01*
X81215584Y-56363866D01*
X81129823Y-56329453D01*
X81040389Y-56308744D01*
X80947374Y-56301793D01*
X80755302Y-56318324D01*
X80594533Y-56364953D01*
X80459144Y-56439350D01*
X80344888Y-56542128D01*
X80262962Y-56655291D01*
X80203814Y-56782840D01*
X80167164Y-56927450D01*
X80154378Y-57092590D01*
X79759555Y-57092590D01*
X79778281Y-56855481D01*
X79839745Y-56620216D01*
X79938325Y-56416447D01*
X80074328Y-56239145D01*
X80211792Y-56116364D01*
X80366920Y-56020500D01*
X80542215Y-55950459D01*
X80741130Y-55906750D01*
X80967890Y-55891465D01*
X81149741Y-55904840D01*
G37*
D11*
G36*
X73945918Y-44584713D02*
G01*
X73985047Y-44654636D01*
X74019618Y-44681008D01*
X74059580Y-44694898D01*
X74076003Y-44696187D01*
X74205313Y-44700646D01*
X74527074Y-44676181D01*
X74691937Y-44645126D01*
X74854107Y-44601895D01*
X75009212Y-44547662D01*
X75157641Y-44482152D01*
X75290785Y-44409622D01*
X75414332Y-44327366D01*
X75519028Y-44242403D01*
X75612545Y-44149425D01*
X75687701Y-44056702D01*
X75751064Y-43957462D01*
X75798433Y-43859491D01*
X75833787Y-43756132D01*
X75855399Y-43653362D01*
X75864696Y-43545963D01*
X75865015Y-43521736D01*
X75858702Y-43412512D01*
X75839330Y-43299136D01*
X75806339Y-43181915D01*
X75759051Y-43060627D01*
X75616300Y-42801869D01*
X75597283Y-42773406D01*
X75455742Y-42562427D01*
X75355149Y-42382656D01*
X75310505Y-42275400D01*
X75286783Y-42180931D01*
X75282830Y-42129765D01*
X75288866Y-42067359D01*
X75306306Y-42011516D01*
X75372480Y-41917811D01*
X75483495Y-41843979D01*
X75646665Y-41793559D01*
X75836710Y-41776926D01*
X75863270Y-41776926D01*
X75892991Y-41770373D01*
X75928246Y-41749320D01*
X75952257Y-41719026D01*
X75962878Y-41675876D01*
X75962918Y-41672819D01*
X75958265Y-41635596D01*
X75802589Y-40977997D01*
X75784721Y-40937889D01*
X75756894Y-40907948D01*
X75673455Y-40873746D01*
X75507716Y-40862064D01*
X75183199Y-40886608D01*
X75021659Y-40917321D01*
X74864250Y-40960050D01*
X74716923Y-41012972D01*
X74577230Y-41076884D01*
X74454036Y-41147115D01*
X74340820Y-41226803D01*
X74246070Y-41309032D01*
X74162462Y-41399130D01*
X74096046Y-41489468D01*
X74041218Y-41586341D01*
X74001206Y-41683016D01*
X73973047Y-41785260D01*
X73954642Y-41965753D01*
X73960933Y-42072959D01*
X73980157Y-42184924D01*
X74060817Y-42425472D01*
X74204916Y-42689600D01*
X74217914Y-42709430D01*
X74467470Y-43118927D01*
X74520911Y-43247758D01*
X74537020Y-43357724D01*
X74513621Y-43480455D01*
X74445174Y-43588555D01*
X74329347Y-43682096D01*
X74164527Y-43753542D01*
X73962640Y-43788773D01*
X73911991Y-43790243D01*
X73894155Y-43790243D01*
X73861410Y-43797028D01*
X73823360Y-43819714D01*
X73802893Y-43847145D01*
X73794701Y-43885432D01*
X73799547Y-43918777D01*
X73945918Y-44584713D01*
G37*
G36*
X77570193Y-42017711D02*
G01*
X77717258Y-42031509D01*
X77858576Y-42057662D01*
X78108646Y-42139071D01*
X78128983Y-42121107D01*
X78173538Y-42102268D01*
X78230395Y-42096032D01*
X78252690Y-42096032D01*
X79022151Y-42162723D01*
X79063274Y-42168611D01*
X79110674Y-42185251D01*
X79143376Y-42209148D01*
X79167535Y-42247624D01*
X79174531Y-42288931D01*
X79174531Y-42311613D01*
X79163452Y-42383574D01*
X79071867Y-43040863D01*
X79050068Y-43393589D01*
X79057034Y-43552149D01*
X79092460Y-43731160D01*
X79152194Y-43847222D01*
X79237732Y-43919940D01*
X79313429Y-43969841D01*
X79334472Y-44018813D01*
X79320513Y-44061657D01*
X79044834Y-44599447D01*
X79033923Y-44618960D01*
X78969646Y-44694383D01*
X78935068Y-44712367D01*
X78897106Y-44718481D01*
X78863194Y-44714060D01*
X78673822Y-44656935D01*
X78477388Y-44559919D01*
X78318217Y-44439700D01*
X78162957Y-44509708D01*
X78028701Y-44554555D01*
X77894004Y-44586189D01*
X77756737Y-44605374D01*
X77621456Y-44611660D01*
X77572390Y-44610831D01*
X77436042Y-44599772D01*
X77303077Y-44576316D01*
X77171858Y-44540296D01*
X77045786Y-44492689D01*
X76924940Y-44433737D01*
X76810983Y-44364371D01*
X76608599Y-44198533D01*
X76446196Y-44003877D01*
X76328254Y-43788849D01*
X76256806Y-43560261D01*
X76234116Y-43336010D01*
X77271913Y-43336010D01*
X77288194Y-43464325D01*
X77347691Y-43598448D01*
X77443839Y-43701045D01*
X77571389Y-43766780D01*
X77646129Y-43784208D01*
X77728084Y-43790243D01*
X77831584Y-43781818D01*
X78005896Y-43730725D01*
X77984183Y-43358111D01*
X77997172Y-42992283D01*
X77949069Y-42935070D01*
X77897033Y-42897625D01*
X77835616Y-42869321D01*
X77701330Y-42846300D01*
X77609836Y-42856617D01*
X77540765Y-42879932D01*
X77479186Y-42914773D01*
X77419531Y-42965117D01*
X77369640Y-43025231D01*
X77327039Y-43098248D01*
X77296357Y-43176794D01*
X77271913Y-43336010D01*
X76234116Y-43336010D01*
X76232782Y-43322827D01*
X76233589Y-43279851D01*
X76268261Y-43026812D01*
X76350332Y-42777990D01*
X76471638Y-42554464D01*
X76624547Y-42366283D01*
X76804182Y-42216980D01*
X77008710Y-42107661D01*
X77238829Y-42039658D01*
X77363924Y-42022028D01*
X77496993Y-42015965D01*
X77570193Y-42017711D01*
G37*
G36*
X82525923Y-43410068D02*
G01*
X82519797Y-43272744D01*
X82501730Y-43141028D01*
X82472109Y-43014892D01*
X82431430Y-42894903D01*
X82317643Y-42672609D01*
X82162134Y-42475856D01*
X81966331Y-42307461D01*
X81732046Y-42171390D01*
X81462177Y-42072454D01*
X81161130Y-42015697D01*
X80932912Y-42003557D01*
X80597717Y-42028372D01*
X80434672Y-42057065D01*
X79937401Y-42030311D01*
X79928289Y-42030311D01*
X79871726Y-42052177D01*
X79848078Y-42079981D01*
X79834716Y-42114856D01*
X79833294Y-42125112D01*
X79713290Y-44436598D01*
X79735965Y-44503577D01*
X79762270Y-44526467D01*
X79796335Y-44539181D01*
X79807897Y-44540705D01*
X80697168Y-44585294D01*
X80706086Y-44585294D01*
X80762226Y-44563835D01*
X80784967Y-44536972D01*
X80796226Y-44504217D01*
X80796816Y-44494758D01*
X80880955Y-42887594D01*
X80979191Y-42899298D01*
X81070065Y-42923787D01*
X81144321Y-42957100D01*
X81211231Y-43001716D01*
X81266450Y-43054007D01*
X81314109Y-43117000D01*
X81383639Y-43273752D01*
X81417834Y-43482435D01*
X81420101Y-43561091D01*
X81420101Y-43712308D01*
X81426095Y-43835767D01*
X81443239Y-43949855D01*
X81509017Y-44158174D01*
X81613784Y-44340616D01*
X81755048Y-44497981D01*
X81927456Y-44626908D01*
X82110610Y-44716907D01*
X82217479Y-44745235D01*
X82266814Y-44738567D01*
X82318759Y-44716706D01*
X82350085Y-44695217D01*
X82792685Y-44368744D01*
X82819361Y-44342582D01*
X82833983Y-44312533D01*
X82837081Y-44290034D01*
X82817223Y-44228971D01*
X82763799Y-44169836D01*
X82695180Y-44097950D01*
X82639925Y-44022212D01*
X82565592Y-43859308D01*
X82529972Y-43664590D01*
X82525923Y-43556632D01*
X82525923Y-43410068D01*
G37*
G36*
X84787972Y-43982172D02*
G01*
X84788479Y-43980631D01*
X84797278Y-43944367D01*
X84776078Y-43896320D01*
X84705957Y-43856369D01*
X84691426Y-43849954D01*
X84601206Y-43786691D01*
X84530992Y-43676949D01*
X84478805Y-43502443D01*
X84449615Y-43233078D01*
X84446183Y-43070024D01*
X84733107Y-43083013D01*
X84742219Y-43083013D01*
X84800611Y-43061576D01*
X84835743Y-43002911D01*
X84837214Y-42993058D01*
X84890722Y-42254810D01*
X84868869Y-42189454D01*
X84842752Y-42164857D01*
X84810164Y-42151793D01*
X84795727Y-42150509D01*
X84495426Y-42133255D01*
X84530516Y-41570263D01*
X84524297Y-41521075D01*
X84505585Y-41482467D01*
X84479677Y-41458670D01*
X84444556Y-41443977D01*
X84413613Y-41439402D01*
X83573391Y-41399465D01*
X83555361Y-41399465D01*
X83507576Y-41405228D01*
X83472964Y-41420756D01*
X83433995Y-41471399D01*
X83420235Y-41542927D01*
X83392943Y-42006560D01*
X83389604Y-42070635D01*
X83111016Y-42053187D01*
X83047152Y-42075009D01*
X83009081Y-42134264D01*
X83006909Y-42147795D01*
X82953595Y-42886043D01*
X82975474Y-42948272D01*
X83002662Y-42973829D01*
X83036734Y-42988411D01*
X83048203Y-42990150D01*
X83376033Y-43007598D01*
X83388170Y-43299370D01*
X83413104Y-43556368D01*
X83444278Y-43744672D01*
X83485651Y-43911869D01*
X83530975Y-44042483D01*
X83585114Y-44158611D01*
X83643214Y-44253591D01*
X83709514Y-44337667D01*
X83862812Y-44472222D01*
X84055818Y-44575315D01*
X84308258Y-44653219D01*
X84367279Y-44665749D01*
X84408767Y-44670402D01*
X84448976Y-44664282D01*
X84483274Y-44646253D01*
X84539359Y-44574961D01*
X84556882Y-44537603D01*
X84787972Y-43982172D01*
G37*
G36*
X86525332Y-42017711D02*
G01*
X86672398Y-42031509D01*
X86813715Y-42057662D01*
X87063786Y-42139071D01*
X87084123Y-42121107D01*
X87128678Y-42102268D01*
X87185535Y-42096032D01*
X87207829Y-42096032D01*
X87977291Y-42162723D01*
X88018413Y-42168611D01*
X88065813Y-42185251D01*
X88098516Y-42209148D01*
X88122674Y-42247624D01*
X88129671Y-42288931D01*
X88129671Y-42311613D01*
X88118592Y-42383574D01*
X88027007Y-43040863D01*
X88005208Y-43393589D01*
X88012173Y-43552149D01*
X88047599Y-43731160D01*
X88107334Y-43847222D01*
X88192872Y-43919940D01*
X88268568Y-43969841D01*
X88289612Y-44018813D01*
X88275653Y-44061657D01*
X87999973Y-44599447D01*
X87989063Y-44618960D01*
X87924785Y-44694383D01*
X87890207Y-44712367D01*
X87852246Y-44718481D01*
X87818334Y-44714060D01*
X87628961Y-44656935D01*
X87432528Y-44559919D01*
X87273357Y-44439700D01*
X87118096Y-44509708D01*
X86983840Y-44554555D01*
X86849144Y-44586189D01*
X86711877Y-44605374D01*
X86576596Y-44611660D01*
X86527529Y-44610831D01*
X86391182Y-44599772D01*
X86258216Y-44576316D01*
X86126998Y-44540296D01*
X86000926Y-44492689D01*
X85880079Y-44433737D01*
X85766122Y-44364371D01*
X85563739Y-44198533D01*
X85401336Y-44003877D01*
X85283394Y-43788849D01*
X85211945Y-43560261D01*
X85189255Y-43336010D01*
X86227052Y-43336010D01*
X86243333Y-43464325D01*
X86302830Y-43598448D01*
X86398979Y-43701045D01*
X86526528Y-43766780D01*
X86601269Y-43784208D01*
X86683223Y-43790243D01*
X86786724Y-43781818D01*
X86961036Y-43730725D01*
X86939323Y-43358111D01*
X86952312Y-42992283D01*
X86904209Y-42935070D01*
X86852172Y-42897625D01*
X86790756Y-42869321D01*
X86656470Y-42846300D01*
X86564976Y-42856617D01*
X86495905Y-42879932D01*
X86434326Y-42914773D01*
X86374671Y-42965117D01*
X86324779Y-43025231D01*
X86282178Y-43098248D01*
X86251497Y-43176794D01*
X86227052Y-43336010D01*
X85189255Y-43336010D01*
X85187921Y-43322827D01*
X85188729Y-43279851D01*
X85223401Y-43026812D01*
X85305471Y-42777990D01*
X85426778Y-42554464D01*
X85579686Y-42366283D01*
X85759322Y-42216980D01*
X85963850Y-42107661D01*
X86193969Y-42039658D01*
X86319063Y-42022028D01*
X86452133Y-42015965D01*
X86525332Y-42017711D01*
G37*
G36*
X88963496Y-44696574D02*
G01*
X89280501Y-44671976D01*
X89447606Y-44640433D01*
X89612209Y-44596289D01*
X89762322Y-44542956D01*
X89903139Y-44478603D01*
X90018449Y-44411808D01*
X90121115Y-44336420D01*
X90198684Y-44263448D01*
X90263029Y-44184047D01*
X90307614Y-44108484D01*
X90339413Y-44027995D01*
X90360895Y-43881748D01*
X90335364Y-43719001D01*
X90252981Y-43535565D01*
X90101451Y-43328728D01*
X90066022Y-43289288D01*
X89885701Y-43076712D01*
X89844840Y-43006465D01*
X89832023Y-42948469D01*
X89838434Y-42911549D01*
X89858495Y-42876229D01*
X89891566Y-42845399D01*
X89939322Y-42818801D01*
X90091048Y-42782865D01*
X90194750Y-42777865D01*
X90212586Y-42777865D01*
X90266528Y-42771202D01*
X90307395Y-42749379D01*
X90325417Y-42704971D01*
X90315917Y-42658055D01*
X90116040Y-42142560D01*
X90089634Y-42094593D01*
X90049576Y-42063924D01*
X89945229Y-42042989D01*
X89861297Y-42040780D01*
X89545460Y-42065427D01*
X89384063Y-42096563D01*
X89226715Y-42140068D01*
X89085719Y-42192159D01*
X88954659Y-42254968D01*
X88848474Y-42320064D01*
X88754876Y-42393552D01*
X88684739Y-42465014D01*
X88627515Y-42542846D01*
X88588555Y-42617664D01*
X88562135Y-42697479D01*
X88548231Y-42815863D01*
X88554574Y-42898765D01*
X88574159Y-42985360D01*
X88656516Y-43170487D01*
X88808829Y-43380337D01*
X88825462Y-43399405D01*
X88945272Y-43532011D01*
X88954539Y-43543832D01*
X89031150Y-43648058D01*
X89055049Y-43694109D01*
X89063919Y-43735766D01*
X89038778Y-43818208D01*
X89006220Y-43858267D01*
X88959989Y-43894497D01*
X88899497Y-43925140D01*
X88824673Y-43948094D01*
X88683357Y-43963948D01*
X88595240Y-43975567D01*
X88556953Y-43996182D01*
X88536276Y-44032082D01*
X88535048Y-44045760D01*
X88543847Y-44082024D01*
X88544354Y-44083564D01*
X88739772Y-44599059D01*
X88762595Y-44644248D01*
X88794181Y-44673569D01*
X88875467Y-44695291D01*
X88914641Y-44696574D01*
X88963496Y-44696574D01*
G37*
G36*
X96617201Y-44654505D02*
G01*
X96681302Y-44632789D01*
X96730723Y-44569714D01*
X96743409Y-44519767D01*
X96894432Y-41074737D01*
X96894432Y-41065625D01*
X96887614Y-41022961D01*
X96864706Y-40982291D01*
X96834927Y-40958760D01*
X96792603Y-40945340D01*
X96777530Y-40943876D01*
X95892911Y-40899286D01*
X95883799Y-40899286D01*
X95793593Y-40918739D01*
X95727736Y-40959579D01*
X95499847Y-41264865D01*
X95082434Y-41906621D01*
X94727184Y-42498114D01*
X94723518Y-42503677D01*
X94710318Y-42517307D01*
X94693258Y-42502379D01*
X94401005Y-42012232D01*
X94113968Y-41555379D01*
X93888093Y-41218873D01*
X93705364Y-40974721D01*
X93692706Y-40959579D01*
X93640096Y-40927422D01*
X93579980Y-40907600D01*
X93519000Y-40899286D01*
X93509889Y-40899286D01*
X92633994Y-40948335D01*
X92592984Y-40958432D01*
X92561937Y-40977210D01*
X92523884Y-41035641D01*
X92517092Y-41079196D01*
X92690604Y-44519573D01*
X92713534Y-44594536D01*
X92741749Y-44626650D01*
X92778950Y-44648025D01*
X92816811Y-44654505D01*
X92821464Y-44654505D01*
X93675258Y-44583356D01*
X93755762Y-44554606D01*
X93819560Y-44488409D01*
X93840821Y-44425935D01*
X93840821Y-44421088D01*
X93640749Y-42532041D01*
X93640749Y-42501410D01*
X93647923Y-42463024D01*
X93687472Y-42496175D01*
X93791282Y-42675300D01*
X94014549Y-43104997D01*
X94318123Y-43686523D01*
X94367226Y-43760171D01*
X94403488Y-43789977D01*
X94449085Y-43807475D01*
X94474962Y-43809823D01*
X94932684Y-43792181D01*
X95023723Y-43767466D01*
X95086667Y-43712197D01*
X95102512Y-43686523D01*
X95421097Y-43057333D01*
X95607233Y-42685418D01*
X95724246Y-42473880D01*
X95759336Y-42440923D01*
X95770775Y-42483574D01*
X95770775Y-42505287D01*
X95561979Y-44425547D01*
X95561979Y-44430394D01*
X95587433Y-44510562D01*
X95619120Y-44549692D01*
X95664049Y-44578104D01*
X95710094Y-44587814D01*
X96612548Y-44654505D01*
X96617201Y-44654505D01*
G37*
G36*
X98576816Y-44600416D02*
G01*
X98635493Y-44572770D01*
X98657590Y-44543603D01*
X98667059Y-44509142D01*
X98667159Y-44505227D01*
X98667159Y-44496115D01*
X98556073Y-42327123D01*
X98534571Y-42271037D01*
X98507672Y-42248370D01*
X98474774Y-42237164D01*
X98465343Y-42236586D01*
X98456231Y-42236586D01*
X97567153Y-42280982D01*
X97503784Y-42308822D01*
X97483219Y-42337032D01*
X97473109Y-42371953D01*
X97472352Y-42385283D01*
X97583438Y-44550010D01*
X97612156Y-44615255D01*
X97640294Y-44636104D01*
X97675058Y-44644742D01*
X97678627Y-44644812D01*
X97687739Y-44644812D01*
X98576816Y-44600416D01*
G37*
G36*
X98627222Y-41513847D02*
G01*
X98603484Y-41337055D01*
X98533593Y-41173204D01*
X98421139Y-41032214D01*
X98351169Y-40973991D01*
X98273665Y-40925757D01*
X98190805Y-40888918D01*
X98102544Y-40863690D01*
X97967490Y-40849656D01*
X97790713Y-40873416D01*
X97627108Y-40943335D01*
X97486447Y-41055841D01*
X97428339Y-41125900D01*
X97380147Y-41203586D01*
X97343244Y-41286806D01*
X97317878Y-41375580D01*
X97303493Y-41513847D01*
X97327253Y-41688799D01*
X97397319Y-41851389D01*
X97510243Y-41991568D01*
X97580582Y-42049510D01*
X97658584Y-42097549D01*
X97742058Y-42134253D01*
X97831097Y-42159401D01*
X97967490Y-42173385D01*
X98142457Y-42149646D01*
X98305292Y-42079609D01*
X98445801Y-41966737D01*
X98503858Y-41896488D01*
X98551937Y-41818671D01*
X98588577Y-41735561D01*
X98613585Y-41647041D01*
X98627222Y-41513847D01*
G37*
G36*
X101437529Y-42337785D02*
G01*
X101442570Y-42304246D01*
X101418539Y-42247231D01*
X101326402Y-42169127D01*
X101137493Y-42080192D01*
X101009819Y-42041796D01*
X100865028Y-42012458D01*
X100587419Y-41991150D01*
X100429560Y-41997420D01*
X100271590Y-42016493D01*
X100120750Y-42047425D01*
X99973252Y-42091016D01*
X99838715Y-42144054D01*
X99710078Y-42208971D01*
X99596446Y-42280646D01*
X99490368Y-42363203D01*
X99398809Y-42450703D01*
X99315865Y-42548185D01*
X99246008Y-42650072D01*
X99185582Y-42761295D01*
X99137007Y-42877546D01*
X99098690Y-43002791D01*
X99071782Y-43134498D01*
X99056132Y-43275148D01*
X99052180Y-43394365D01*
X99058283Y-43523574D01*
X99076184Y-43647525D01*
X99146308Y-43881880D01*
X99260389Y-44095584D01*
X99416543Y-44285345D01*
X99612084Y-44446241D01*
X99842370Y-44572099D01*
X100100120Y-44656527D01*
X100236225Y-44681467D01*
X100375736Y-44694267D01*
X100449579Y-44695993D01*
X100591017Y-44689726D01*
X100733821Y-44670675D01*
X100874438Y-44639176D01*
X101014622Y-44594639D01*
X101150206Y-44538254D01*
X101283749Y-44468775D01*
X101411206Y-44388120D01*
X101535213Y-44294397D01*
X101640703Y-44201048D01*
X101683925Y-44149092D01*
X101709229Y-44097744D01*
X101718250Y-44040914D01*
X101695373Y-43949214D01*
X101577444Y-43729123D01*
X101490649Y-43572529D01*
X101460739Y-43532870D01*
X101429321Y-43509309D01*
X101387511Y-43498665D01*
X101315839Y-43519370D01*
X101276619Y-43549071D01*
X101177744Y-43630940D01*
X101078619Y-43697615D01*
X100979333Y-43750036D01*
X100881489Y-43788255D01*
X100785228Y-43813021D01*
X100692165Y-43824622D01*
X100654110Y-43825720D01*
X100567306Y-43819616D01*
X100486400Y-43801704D01*
X100413107Y-43772983D01*
X100347316Y-43733890D01*
X100290781Y-43685898D01*
X100243159Y-43628987D01*
X100205752Y-43564716D01*
X100178588Y-43492843D01*
X100158002Y-43341439D01*
X100163947Y-43243372D01*
X100180748Y-43158944D01*
X100206924Y-43086984D01*
X100240884Y-43026681D01*
X100331148Y-42933018D01*
X100449193Y-42871737D01*
X100588211Y-42842352D01*
X100654110Y-42839321D01*
X100840633Y-42861950D01*
X100929239Y-42889942D01*
X101003679Y-42926402D01*
X101041263Y-42952928D01*
X101103107Y-42976386D01*
X101169023Y-42954484D01*
X101223289Y-42889313D01*
X101228927Y-42874993D01*
X101437529Y-42337785D01*
G37*
G36*
X103151514Y-44602936D02*
G01*
X103211098Y-44581083D01*
X103233643Y-44554496D01*
X103245330Y-44521279D01*
X103246315Y-44507941D01*
X103246315Y-44498829D01*
X103162177Y-42930439D01*
X103351392Y-42905042D01*
X103527122Y-42927738D01*
X103571819Y-42940326D01*
X103573253Y-42940681D01*
X103622419Y-42949438D01*
X103661862Y-42943273D01*
X103696177Y-42924932D01*
X103721414Y-42896902D01*
X103737816Y-42858576D01*
X103739515Y-42851341D01*
X103868437Y-42224373D01*
X103870775Y-42213077D01*
X103877549Y-42165437D01*
X103871143Y-42124676D01*
X103851116Y-42091432D01*
X103779646Y-42052800D01*
X103623120Y-42023806D01*
X103460777Y-42007167D01*
X103342474Y-42003557D01*
X103180422Y-42009812D01*
X103015281Y-42028780D01*
X102847289Y-42060743D01*
X102676467Y-42106013D01*
X102647846Y-42114837D01*
X102133127Y-42141397D01*
X102076026Y-42163315D01*
X102040265Y-42225325D01*
X102038325Y-42245698D01*
X102162788Y-44556990D01*
X102184692Y-44616148D01*
X102244566Y-44649853D01*
X102266895Y-44651985D01*
X103151514Y-44602936D01*
G37*
G36*
X105578472Y-41991729D02*
G01*
X105726211Y-42001666D01*
X105864842Y-42023280D01*
X105997887Y-42056758D01*
X106121575Y-42100765D01*
X106240743Y-42156895D01*
X106350018Y-42222459D01*
X106454975Y-42300915D01*
X106549203Y-42387550D01*
X106638020Y-42487531D01*
X106715050Y-42593945D01*
X106784158Y-42712308D01*
X106840464Y-42834493D01*
X106885669Y-42963582D01*
X106917606Y-43092913D01*
X106936542Y-43220386D01*
X106942792Y-43344153D01*
X106940982Y-43411920D01*
X106927749Y-43537212D01*
X106902414Y-43656570D01*
X106863609Y-43775747D01*
X106813359Y-43888164D01*
X106748143Y-44000737D01*
X106672245Y-44105370D01*
X106580064Y-44208957D01*
X106478486Y-44303079D01*
X106361279Y-44393050D01*
X106236978Y-44471877D01*
X106101788Y-44542045D01*
X105963059Y-44599706D01*
X105822625Y-44644747D01*
X105682928Y-44676836D01*
X105425195Y-44701421D01*
X105363925Y-44700167D01*
X105227813Y-44688298D01*
X105095033Y-44664243D01*
X104966288Y-44628367D01*
X104842590Y-44581112D01*
X104615839Y-44455566D01*
X104422215Y-44293673D01*
X104266839Y-44101565D01*
X104152940Y-43884414D01*
X104082817Y-43645949D01*
X104064917Y-43519891D01*
X104058815Y-43388549D01*
X104060524Y-43335235D01*
X105044827Y-43335235D01*
X105066565Y-43488894D01*
X105095798Y-43564572D01*
X105135577Y-43632357D01*
X105186283Y-43693423D01*
X105245312Y-43744777D01*
X105382930Y-43815880D01*
X105532016Y-43839873D01*
X105647857Y-43826926D01*
X105718845Y-43803417D01*
X105781029Y-43769478D01*
X105839004Y-43722077D01*
X105886909Y-43665465D01*
X105928496Y-43593963D01*
X105958256Y-43515459D01*
X105977273Y-43426660D01*
X105983534Y-43335235D01*
X105980597Y-43272873D01*
X105951415Y-43127683D01*
X105891560Y-43003018D01*
X105802969Y-42909564D01*
X105681868Y-42848680D01*
X105606106Y-42831888D01*
X105518639Y-42825944D01*
X105405221Y-42836856D01*
X105329690Y-42859009D01*
X105264583Y-42891333D01*
X105202506Y-42938308D01*
X105152174Y-42993907D01*
X105105452Y-43069760D01*
X105073167Y-43150540D01*
X105051471Y-43245959D01*
X105044827Y-43335235D01*
X104060524Y-43335235D01*
X104062484Y-43274075D01*
X104077789Y-43133186D01*
X104104462Y-43000292D01*
X104142398Y-42874077D01*
X104190754Y-42756116D01*
X104250305Y-42644140D01*
X104319458Y-42540866D01*
X104400154Y-42443517D01*
X104489668Y-42355514D01*
X104591032Y-42274187D01*
X104700325Y-42203008D01*
X104821111Y-42140005D01*
X104948685Y-42088011D01*
X105086180Y-42046049D01*
X105228979Y-42015877D01*
X105378753Y-41997343D01*
X105532016Y-41991150D01*
X105578472Y-41991729D01*
G37*
G36*
X108741691Y-44470137D02*
G01*
X108696756Y-43887877D01*
X108660724Y-43254205D01*
X108653093Y-43070024D01*
X108957660Y-43083013D01*
X108966577Y-43083013D01*
X109025172Y-43061550D01*
X109060274Y-43002874D01*
X109061767Y-42993058D01*
X109115080Y-42254810D01*
X109093214Y-42189332D01*
X109067122Y-42164771D01*
X109034545Y-42151763D01*
X109020279Y-42150509D01*
X108648440Y-42128408D01*
X108654429Y-42032865D01*
X108671538Y-41950138D01*
X108698028Y-41880286D01*
X108732835Y-41821203D01*
X108826196Y-41729380D01*
X108952481Y-41668345D01*
X109114259Y-41638339D01*
X109184485Y-41635790D01*
X109197862Y-41635790D01*
X109275098Y-41612439D01*
X109310060Y-41583296D01*
X109334382Y-41544179D01*
X109341905Y-41514817D01*
X109421779Y-41007852D01*
X109421779Y-40989435D01*
X109413782Y-40931378D01*
X109382620Y-40877954D01*
X109345977Y-40858962D01*
X109213826Y-40824324D01*
X109072480Y-40800373D01*
X108868868Y-40787619D01*
X108726136Y-40793962D01*
X108583277Y-40813549D01*
X108451416Y-40844580D01*
X108322918Y-40888602D01*
X108208762Y-40941348D01*
X108100219Y-41006277D01*
X108005705Y-41077865D01*
X107918207Y-41160826D01*
X107843107Y-41249817D01*
X107776056Y-41349653D01*
X107719970Y-41456270D01*
X107672935Y-41573575D01*
X107636336Y-41699393D01*
X107609952Y-41836113D01*
X107600391Y-41912827D01*
X107587596Y-42066177D01*
X107335568Y-42053187D01*
X107271704Y-42075009D01*
X107233634Y-42134264D01*
X107231461Y-42147795D01*
X107177954Y-42886043D01*
X107199819Y-42948152D01*
X107227032Y-42973739D01*
X107261112Y-42988374D01*
X107272755Y-42990150D01*
X107587208Y-43007598D01*
X107629379Y-44018361D01*
X107653705Y-44535664D01*
X107682649Y-44611720D01*
X107711817Y-44638487D01*
X107749153Y-44654173D01*
X107775454Y-44657025D01*
X107784372Y-44657025D01*
X108615677Y-44609915D01*
X108681869Y-44599648D01*
X108710151Y-44582243D01*
X108730981Y-44552592D01*
X108741691Y-44492625D01*
X108741691Y-44470137D01*
G37*
G36*
X110720029Y-42017711D02*
G01*
X110867094Y-42031509D01*
X111008412Y-42057662D01*
X111258482Y-42139071D01*
X111278819Y-42121107D01*
X111323374Y-42102268D01*
X111380231Y-42096032D01*
X111402526Y-42096032D01*
X112171987Y-42162723D01*
X112213110Y-42168611D01*
X112260510Y-42185251D01*
X112293212Y-42209148D01*
X112317371Y-42247624D01*
X112324367Y-42288931D01*
X112324367Y-42311613D01*
X112313288Y-42383574D01*
X112221703Y-43040863D01*
X112199904Y-43393589D01*
X112206870Y-43552149D01*
X112242296Y-43731160D01*
X112302030Y-43847222D01*
X112387568Y-43919940D01*
X112463265Y-43969841D01*
X112484308Y-44018813D01*
X112470349Y-44061657D01*
X112194670Y-44599447D01*
X112183759Y-44618960D01*
X112119482Y-44694383D01*
X112084904Y-44712367D01*
X112046942Y-44718481D01*
X112013030Y-44714060D01*
X111823658Y-44656935D01*
X111627224Y-44559919D01*
X111468053Y-44439700D01*
X111312793Y-44509708D01*
X111178537Y-44554555D01*
X111043840Y-44586189D01*
X110906573Y-44605374D01*
X110771292Y-44611660D01*
X110722226Y-44610831D01*
X110585878Y-44599772D01*
X110452913Y-44576316D01*
X110321694Y-44540296D01*
X110195622Y-44492689D01*
X110074776Y-44433737D01*
X109960819Y-44364371D01*
X109758435Y-44198533D01*
X109596032Y-44003877D01*
X109478090Y-43788849D01*
X109406642Y-43560261D01*
X109383952Y-43336010D01*
X110421749Y-43336010D01*
X110438030Y-43464325D01*
X110497527Y-43598448D01*
X110593675Y-43701045D01*
X110721225Y-43766780D01*
X110795965Y-43784208D01*
X110877920Y-43790243D01*
X110981420Y-43781818D01*
X111155732Y-43730725D01*
X111134019Y-43358111D01*
X111147008Y-42992283D01*
X111098905Y-42935070D01*
X111046869Y-42897625D01*
X110985452Y-42869321D01*
X110851166Y-42846300D01*
X110759672Y-42856617D01*
X110690601Y-42879932D01*
X110629022Y-42914773D01*
X110569367Y-42965117D01*
X110519476Y-43025231D01*
X110476875Y-43098248D01*
X110446193Y-43176794D01*
X110421749Y-43336010D01*
X109383952Y-43336010D01*
X109382618Y-43322827D01*
X109383425Y-43279851D01*
X109418097Y-43026812D01*
X109500168Y-42777990D01*
X109621474Y-42554464D01*
X109774383Y-42366283D01*
X109954018Y-42216980D01*
X110158546Y-42107661D01*
X110388665Y-42039658D01*
X110513760Y-42022028D01*
X110646829Y-42015965D01*
X110720029Y-42017711D01*
G37*
G36*
X115110635Y-42337785D02*
G01*
X115115675Y-42304246D01*
X115091645Y-42247231D01*
X114999508Y-42169127D01*
X114810598Y-42080192D01*
X114682924Y-42041796D01*
X114538134Y-42012458D01*
X114260524Y-41991150D01*
X114102665Y-41997420D01*
X113944695Y-42016493D01*
X113793855Y-42047425D01*
X113646358Y-42091016D01*
X113511820Y-42144054D01*
X113383184Y-42208971D01*
X113269551Y-42280646D01*
X113163473Y-42363203D01*
X113071914Y-42450703D01*
X112988970Y-42548185D01*
X112919114Y-42650072D01*
X112858687Y-42761295D01*
X112810113Y-42877546D01*
X112771796Y-43002791D01*
X112744888Y-43134498D01*
X112729237Y-43275148D01*
X112725286Y-43394365D01*
X112731388Y-43523574D01*
X112749289Y-43647525D01*
X112819413Y-43881880D01*
X112933494Y-44095584D01*
X113089648Y-44285345D01*
X113285189Y-44446241D01*
X113515475Y-44572099D01*
X113773225Y-44656527D01*
X113909330Y-44681467D01*
X114048841Y-44694267D01*
X114122684Y-44695993D01*
X114264122Y-44689726D01*
X114406927Y-44670675D01*
X114547543Y-44639176D01*
X114687728Y-44594639D01*
X114823311Y-44538254D01*
X114956854Y-44468775D01*
X115084312Y-44388120D01*
X115208318Y-44294397D01*
X115313808Y-44201048D01*
X115357030Y-44149092D01*
X115382334Y-44097744D01*
X115391355Y-44040914D01*
X115368479Y-43949214D01*
X115250549Y-43729123D01*
X115163754Y-43572529D01*
X115133844Y-43532870D01*
X115102427Y-43509309D01*
X115060617Y-43498665D01*
X114988944Y-43519370D01*
X114949724Y-43549071D01*
X114850850Y-43630940D01*
X114751725Y-43697615D01*
X114652439Y-43750036D01*
X114554594Y-43788255D01*
X114458334Y-43813021D01*
X114365271Y-43824622D01*
X114327215Y-43825720D01*
X114240411Y-43819616D01*
X114159505Y-43801704D01*
X114086212Y-43772983D01*
X114020422Y-43733890D01*
X113963886Y-43685898D01*
X113916264Y-43628987D01*
X113878857Y-43564716D01*
X113851693Y-43492843D01*
X113831107Y-43341439D01*
X113837052Y-43243372D01*
X113853853Y-43158944D01*
X113880029Y-43086984D01*
X113913990Y-43026681D01*
X114004254Y-42933018D01*
X114122298Y-42871737D01*
X114261317Y-42842352D01*
X114327215Y-42839321D01*
X114513738Y-42861950D01*
X114602344Y-42889942D01*
X114676785Y-42926402D01*
X114714369Y-42952928D01*
X114776213Y-42976386D01*
X114842128Y-42954484D01*
X114896395Y-42889313D01*
X114902033Y-42874993D01*
X115110635Y-42337785D01*
G37*
G36*
X117354654Y-43982172D02*
G01*
X117355160Y-43980631D01*
X117363959Y-43944367D01*
X117342759Y-43896320D01*
X117272638Y-43856369D01*
X117258108Y-43849954D01*
X117167888Y-43786691D01*
X117097674Y-43676949D01*
X117045486Y-43502443D01*
X117016297Y-43233078D01*
X117012865Y-43070024D01*
X117299789Y-43083013D01*
X117308901Y-43083013D01*
X117367292Y-43061576D01*
X117402424Y-43002911D01*
X117403896Y-42993058D01*
X117457404Y-42254810D01*
X117435550Y-42189454D01*
X117409433Y-42164857D01*
X117376846Y-42151793D01*
X117362409Y-42150509D01*
X117062107Y-42133255D01*
X117097197Y-41570263D01*
X117090979Y-41521075D01*
X117072267Y-41482467D01*
X117046358Y-41458670D01*
X117011238Y-41443977D01*
X116980295Y-41439402D01*
X116140072Y-41399465D01*
X116122043Y-41399465D01*
X116074258Y-41405228D01*
X116039646Y-41420756D01*
X116000677Y-41471399D01*
X115986917Y-41542927D01*
X115959624Y-42006560D01*
X115956286Y-42070635D01*
X115677698Y-42053187D01*
X115613833Y-42075009D01*
X115575763Y-42134264D01*
X115573591Y-42147795D01*
X115520277Y-42886043D01*
X115542155Y-42948272D01*
X115569344Y-42973829D01*
X115603415Y-42988411D01*
X115614885Y-42990150D01*
X115942715Y-43007598D01*
X115954852Y-43299370D01*
X115979786Y-43556368D01*
X116010959Y-43744672D01*
X116052333Y-43911869D01*
X116097657Y-44042483D01*
X116151796Y-44158611D01*
X116209895Y-44253591D01*
X116276196Y-44337667D01*
X116429494Y-44472222D01*
X116622500Y-44575315D01*
X116874940Y-44653219D01*
X116933961Y-44665749D01*
X116975449Y-44670402D01*
X117015658Y-44664282D01*
X117049956Y-44646253D01*
X117106041Y-44574961D01*
X117123563Y-44537603D01*
X117354654Y-43982172D01*
G37*
G36*
X119260883Y-41991729D02*
G01*
X119408622Y-42001666D01*
X119547253Y-42023280D01*
X119680298Y-42056758D01*
X119803986Y-42100765D01*
X119923154Y-42156895D01*
X120032429Y-42222459D01*
X120137386Y-42300915D01*
X120231614Y-42387550D01*
X120320431Y-42487531D01*
X120397461Y-42593945D01*
X120466569Y-42712308D01*
X120522875Y-42834493D01*
X120568080Y-42963582D01*
X120600017Y-43092913D01*
X120618953Y-43220386D01*
X120625203Y-43344153D01*
X120623393Y-43411920D01*
X120610160Y-43537212D01*
X120584825Y-43656570D01*
X120546020Y-43775747D01*
X120495770Y-43888164D01*
X120430554Y-44000737D01*
X120354656Y-44105370D01*
X120262475Y-44208957D01*
X120160897Y-44303079D01*
X120043690Y-44393050D01*
X119919389Y-44471877D01*
X119784199Y-44542045D01*
X119645470Y-44599706D01*
X119505036Y-44644747D01*
X119365339Y-44676836D01*
X119107606Y-44701421D01*
X119046336Y-44700167D01*
X118910224Y-44688298D01*
X118777444Y-44664243D01*
X118648699Y-44628367D01*
X118525001Y-44581112D01*
X118298250Y-44455566D01*
X118104626Y-44293673D01*
X117949250Y-44101565D01*
X117835351Y-43884414D01*
X117765228Y-43645949D01*
X117747328Y-43519891D01*
X117741226Y-43388549D01*
X117742935Y-43335235D01*
X118727238Y-43335235D01*
X118748976Y-43488894D01*
X118778209Y-43564572D01*
X118817988Y-43632357D01*
X118868694Y-43693423D01*
X118927723Y-43744777D01*
X119065341Y-43815880D01*
X119214427Y-43839873D01*
X119330268Y-43826926D01*
X119401256Y-43803417D01*
X119463440Y-43769478D01*
X119521415Y-43722077D01*
X119569320Y-43665465D01*
X119610907Y-43593963D01*
X119640667Y-43515459D01*
X119659684Y-43426660D01*
X119665945Y-43335235D01*
X119663008Y-43272873D01*
X119633826Y-43127683D01*
X119573971Y-43003018D01*
X119485380Y-42909564D01*
X119364279Y-42848680D01*
X119288517Y-42831888D01*
X119201050Y-42825944D01*
X119087632Y-42836856D01*
X119012101Y-42859009D01*
X118946994Y-42891333D01*
X118884917Y-42938308D01*
X118834585Y-42993907D01*
X118787863Y-43069760D01*
X118755578Y-43150540D01*
X118733882Y-43245959D01*
X118727238Y-43335235D01*
X117742935Y-43335235D01*
X117744895Y-43274075D01*
X117760200Y-43133186D01*
X117786873Y-43000292D01*
X117824809Y-42874077D01*
X117873165Y-42756116D01*
X117932716Y-42644140D01*
X118001869Y-42540866D01*
X118082565Y-42443517D01*
X118172079Y-42355514D01*
X118273443Y-42274187D01*
X118382736Y-42203008D01*
X118503522Y-42140005D01*
X118631096Y-42088011D01*
X118768591Y-42046049D01*
X118911390Y-42015877D01*
X119061164Y-41997343D01*
X119214427Y-41991150D01*
X119260883Y-41991729D01*
G37*
G36*
X122138147Y-44602936D02*
G01*
X122197731Y-44581083D01*
X122220276Y-44554496D01*
X122231962Y-44521279D01*
X122232948Y-44507941D01*
X122232948Y-44498829D01*
X122148810Y-42930439D01*
X122338025Y-42905042D01*
X122513755Y-42927738D01*
X122558452Y-42940326D01*
X122559886Y-42940681D01*
X122609052Y-42949438D01*
X122648495Y-42943273D01*
X122682810Y-42924932D01*
X122708046Y-42896902D01*
X122724449Y-42858576D01*
X122726148Y-42851341D01*
X122855070Y-42224373D01*
X122857408Y-42213077D01*
X122864182Y-42165437D01*
X122857776Y-42124676D01*
X122837749Y-42091432D01*
X122766278Y-42052800D01*
X122609753Y-42023806D01*
X122447410Y-42007167D01*
X122329107Y-42003557D01*
X122167055Y-42009812D01*
X122001914Y-42028780D01*
X121833921Y-42060743D01*
X121663100Y-42106013D01*
X121634479Y-42114837D01*
X121119760Y-42141397D01*
X121062659Y-42163315D01*
X121026898Y-42225325D01*
X121024958Y-42245698D01*
X121149421Y-44556990D01*
X121171325Y-44616148D01*
X121231199Y-44649853D01*
X121253528Y-44651985D01*
X122138147Y-44602936D01*
G37*
G36*
X123880630Y-45881494D02*
G01*
X123963024Y-45899524D01*
X124005393Y-45893455D01*
X124043870Y-45875792D01*
X124105323Y-45821977D01*
X124516459Y-45313134D01*
X124873593Y-44853316D01*
X125193450Y-44423001D01*
X125462162Y-44043229D01*
X125696144Y-43693395D01*
X125881966Y-43396813D01*
X126143352Y-42926480D01*
X126219499Y-42761032D01*
X126255963Y-42662396D01*
X126262684Y-42630913D01*
X126256547Y-42598663D01*
X126238403Y-42569892D01*
X126179514Y-42527388D01*
X125517262Y-42185405D01*
X125422571Y-42150321D01*
X125403074Y-42148958D01*
X125365535Y-42154920D01*
X125334265Y-42171842D01*
X125291212Y-42223016D01*
X124564208Y-43347061D01*
X124039602Y-42161559D01*
X124010664Y-42107780D01*
X123971453Y-42064226D01*
X123930588Y-42038386D01*
X123883192Y-42025482D01*
X123865121Y-42024495D01*
X123810802Y-42033470D01*
X123810256Y-42033607D01*
X123103415Y-42242596D01*
X123050253Y-42263409D01*
X123008124Y-42295481D01*
X122986674Y-42328483D01*
X122978758Y-42368181D01*
X122978758Y-42368610D01*
X123001634Y-42451198D01*
X123832939Y-44331521D01*
X123841598Y-44349425D01*
X123866090Y-44391814D01*
X123171074Y-45423191D01*
X123144321Y-45471294D01*
X123134433Y-45520125D01*
X123140652Y-45553345D01*
X123159367Y-45583233D01*
X123236020Y-45632568D01*
X123880630Y-45881494D01*
G37*
D12*
G36*
X57348299Y-67899054D02*
G01*
X57322411Y-67893679D01*
X57300928Y-67877411D01*
X57282720Y-67847213D01*
X57262100Y-67808439D01*
X57247183Y-67793297D01*
X57227598Y-67788263D01*
X57176169Y-67785725D01*
X57131704Y-67792998D01*
X57081732Y-67816938D01*
X57023913Y-67862634D01*
X56956167Y-67937278D01*
X56892749Y-68024530D01*
X56846682Y-68105805D01*
X56815683Y-68181985D01*
X56797949Y-68254014D01*
X56792219Y-68322876D01*
X56798657Y-68379412D01*
X56817450Y-68429403D01*
X56848945Y-68474429D01*
X56891113Y-68511356D01*
X56937216Y-68532737D01*
X56988957Y-68539947D01*
X57035102Y-68536095D01*
X57082048Y-68524317D01*
X57130374Y-68503982D01*
X57174605Y-68477675D01*
X57252007Y-68423871D01*
X57289598Y-68400888D01*
X57310747Y-68395355D01*
X57337679Y-68400893D01*
X57359901Y-68417581D01*
X57374893Y-68441301D01*
X57379746Y-68467041D01*
X57373469Y-68495434D01*
X57353795Y-68520957D01*
X57276703Y-68581782D01*
X57202387Y-68626501D01*
X57130197Y-68657035D01*
X57059363Y-68674798D01*
X56989018Y-68680631D01*
X56920734Y-68673774D01*
X56859045Y-68653692D01*
X56802437Y-68620205D01*
X56749904Y-68571943D01*
X56708470Y-68516611D01*
X56679291Y-68457352D01*
X56661653Y-68393261D01*
X56655627Y-68323121D01*
X56662609Y-68234775D01*
X56684021Y-68144115D01*
X56721042Y-68050084D01*
X56775461Y-67951700D01*
X56849617Y-67848068D01*
X56921967Y-67767619D01*
X56989844Y-67710673D01*
X57054068Y-67673135D01*
X57115730Y-67651904D01*
X57176169Y-67645041D01*
X57236253Y-67648155D01*
X57283453Y-67658047D01*
X57301600Y-67637268D01*
X57321999Y-67625533D01*
X57345613Y-67621594D01*
X57372159Y-67628011D01*
X57391635Y-67647325D01*
X57405025Y-67684548D01*
X57412959Y-67743777D01*
X57415955Y-67822240D01*
X57412122Y-67849146D01*
X57400934Y-67872065D01*
X57378715Y-67892224D01*
X57348299Y-67899054D01*
G37*
G36*
X58489951Y-68514057D02*
G01*
X58479022Y-68623356D01*
X58469607Y-68655130D01*
X58454620Y-68675723D01*
X58434036Y-68687963D01*
X58405932Y-68692355D01*
X58382356Y-68688023D01*
X58353221Y-68673055D01*
X58316417Y-68643140D01*
X58185728Y-68511446D01*
X58037160Y-68344621D01*
X57868740Y-68137374D01*
X57678394Y-67884033D01*
X57674974Y-68039127D01*
X57672959Y-68194954D01*
X57675341Y-68365069D01*
X57677722Y-68535917D01*
X57673034Y-68618227D01*
X57661524Y-68669552D01*
X57646117Y-68699344D01*
X57628118Y-68714753D01*
X57606708Y-68719710D01*
X57572456Y-68713491D01*
X57547235Y-68695774D01*
X57532414Y-68672583D01*
X57527451Y-68645216D01*
X57531848Y-68558449D01*
X57536305Y-68471681D01*
X57539053Y-68344919D01*
X57541801Y-68218157D01*
X57539725Y-68081870D01*
X57537710Y-67945582D01*
X57529466Y-67817477D01*
X57521284Y-67689310D01*
X57527728Y-67659892D01*
X57548273Y-67631913D01*
X57577421Y-67612300D01*
X57609456Y-67605963D01*
X57630771Y-67612029D01*
X57659389Y-67634883D01*
X57698910Y-67685219D01*
X57867084Y-67927691D01*
X58004946Y-68108859D01*
X58115782Y-68239683D01*
X58234104Y-68367198D01*
X58360136Y-68491465D01*
X58360136Y-68404698D01*
X58358121Y-68318602D01*
X58351553Y-68034108D01*
X58334918Y-67841107D01*
X58316478Y-67769361D01*
X58305688Y-67725122D01*
X58302800Y-67696943D01*
X58307957Y-67660289D01*
X58321445Y-67636918D01*
X58342876Y-67622884D01*
X58375218Y-67617686D01*
X58402529Y-67624331D01*
X58427466Y-67645727D01*
X58451075Y-67688160D01*
X58472138Y-67762083D01*
X58487790Y-67881012D01*
X58494043Y-68061109D01*
X58491966Y-68287583D01*
X58489951Y-68514057D01*
G37*
G36*
X59240571Y-68668907D02*
G01*
X59222105Y-68666468D01*
X59192455Y-68657184D01*
X59162883Y-68647876D01*
X59144950Y-68645460D01*
X59040414Y-68649856D01*
X58935206Y-68654253D01*
X58856316Y-68661580D01*
X58777425Y-68668907D01*
X58755566Y-68666160D01*
X58733706Y-68663412D01*
X58705627Y-68658177D01*
X58685777Y-68643397D01*
X58672218Y-68617433D01*
X58666540Y-68589144D01*
X58664036Y-68535123D01*
X58669990Y-68455703D01*
X58686888Y-68387608D01*
X58713853Y-68328929D01*
X58750803Y-68278180D01*
X58808564Y-68226970D01*
X58964576Y-68113988D01*
X59052901Y-68048738D01*
X59095063Y-68009330D01*
X59127820Y-67962795D01*
X59147210Y-67911989D01*
X59153804Y-67855396D01*
X59148304Y-67829061D01*
X59130733Y-67803453D01*
X59097078Y-67777421D01*
X59046503Y-67753950D01*
X58999442Y-67746646D01*
X58958547Y-67750629D01*
X58918917Y-67762616D01*
X58879885Y-67783100D01*
X58782188Y-67860036D01*
X58753373Y-67878695D01*
X58735049Y-67883422D01*
X58701740Y-67879165D01*
X58681056Y-67868256D01*
X58669049Y-67851485D01*
X58664707Y-67826880D01*
X58671067Y-67796977D01*
X58690658Y-67771010D01*
X58769668Y-67702238D01*
X58829327Y-67661345D01*
X58885918Y-67634565D01*
X58942357Y-67618939D01*
X58999442Y-67613778D01*
X59071289Y-67620655D01*
X59136608Y-67640808D01*
X59196851Y-67674351D01*
X59240596Y-67712231D01*
X59270302Y-67753381D01*
X59287887Y-67798572D01*
X59293877Y-67849228D01*
X59288772Y-67917211D01*
X59274032Y-67977883D01*
X59249180Y-68034011D01*
X59213948Y-68085228D01*
X59176892Y-68123409D01*
X59120778Y-68168830D01*
X59040414Y-68222737D01*
X58924350Y-68300836D01*
X58871703Y-68345225D01*
X58838483Y-68386836D01*
X58815288Y-68431927D01*
X58801493Y-68481294D01*
X58797209Y-68536039D01*
X58937954Y-68524071D01*
X59144950Y-68516500D01*
X59195745Y-68520988D01*
X59243319Y-68534269D01*
X59280131Y-68554291D01*
X59298904Y-68576092D01*
X59304807Y-68600580D01*
X59300250Y-68625630D01*
X59286366Y-68648086D01*
X59265648Y-68663725D01*
X59240571Y-68668907D01*
G37*
G36*
X57348299Y-119899054D02*
G01*
X57322411Y-119893679D01*
X57300928Y-119877411D01*
X57282720Y-119847213D01*
X57262100Y-119808439D01*
X57247183Y-119793297D01*
X57227598Y-119788263D01*
X57176169Y-119785725D01*
X57131704Y-119792998D01*
X57081732Y-119816938D01*
X57023913Y-119862634D01*
X56956167Y-119937278D01*
X56892749Y-120024530D01*
X56846682Y-120105805D01*
X56815683Y-120181985D01*
X56797949Y-120254014D01*
X56792219Y-120322876D01*
X56798657Y-120379412D01*
X56817450Y-120429403D01*
X56848945Y-120474429D01*
X56891113Y-120511356D01*
X56937216Y-120532737D01*
X56988957Y-120539947D01*
X57035102Y-120536095D01*
X57082048Y-120524317D01*
X57130374Y-120503982D01*
X57174605Y-120477675D01*
X57252007Y-120423871D01*
X57289598Y-120400888D01*
X57310747Y-120395355D01*
X57337679Y-120400893D01*
X57359901Y-120417581D01*
X57374893Y-120441301D01*
X57379746Y-120467041D01*
X57373469Y-120495434D01*
X57353795Y-120520957D01*
X57276703Y-120581782D01*
X57202387Y-120626501D01*
X57130197Y-120657035D01*
X57059363Y-120674798D01*
X56989018Y-120680631D01*
X56920734Y-120673774D01*
X56859045Y-120653692D01*
X56802437Y-120620205D01*
X56749904Y-120571943D01*
X56708470Y-120516611D01*
X56679291Y-120457352D01*
X56661653Y-120393261D01*
X56655627Y-120323121D01*
X56662609Y-120234775D01*
X56684021Y-120144115D01*
X56721042Y-120050084D01*
X56775461Y-119951700D01*
X56849617Y-119848068D01*
X56921967Y-119767619D01*
X56989844Y-119710673D01*
X57054068Y-119673135D01*
X57115730Y-119651904D01*
X57176169Y-119645041D01*
X57236253Y-119648155D01*
X57283453Y-119658047D01*
X57301600Y-119637268D01*
X57321999Y-119625533D01*
X57345613Y-119621594D01*
X57372159Y-119628011D01*
X57391635Y-119647325D01*
X57405025Y-119684548D01*
X57412959Y-119743777D01*
X57415955Y-119822240D01*
X57412122Y-119849146D01*
X57400934Y-119872065D01*
X57378715Y-119892224D01*
X57348299Y-119899054D01*
G37*
G36*
X58489951Y-120514057D02*
G01*
X58479022Y-120623356D01*
X58469607Y-120655130D01*
X58454620Y-120675723D01*
X58434036Y-120687963D01*
X58405932Y-120692355D01*
X58382356Y-120688023D01*
X58353221Y-120673055D01*
X58316417Y-120643140D01*
X58185728Y-120511446D01*
X58037160Y-120344621D01*
X57868740Y-120137374D01*
X57678394Y-119884033D01*
X57674974Y-120039127D01*
X57672959Y-120194954D01*
X57675341Y-120365069D01*
X57677722Y-120535917D01*
X57673034Y-120618227D01*
X57661524Y-120669552D01*
X57646117Y-120699344D01*
X57628118Y-120714753D01*
X57606708Y-120719710D01*
X57572456Y-120713491D01*
X57547235Y-120695774D01*
X57532414Y-120672583D01*
X57527451Y-120645216D01*
X57531848Y-120558449D01*
X57536305Y-120471681D01*
X57539053Y-120344919D01*
X57541801Y-120218157D01*
X57539725Y-120081870D01*
X57537710Y-119945582D01*
X57529466Y-119817477D01*
X57521284Y-119689310D01*
X57527728Y-119659892D01*
X57548273Y-119631913D01*
X57577421Y-119612300D01*
X57609456Y-119605963D01*
X57630771Y-119612029D01*
X57659389Y-119634883D01*
X57698910Y-119685219D01*
X57867084Y-119927691D01*
X58004946Y-120108859D01*
X58115782Y-120239683D01*
X58234104Y-120367198D01*
X58360136Y-120491465D01*
X58360136Y-120404698D01*
X58358121Y-120318602D01*
X58351553Y-120034108D01*
X58334918Y-119841107D01*
X58316478Y-119769361D01*
X58305688Y-119725122D01*
X58302800Y-119696943D01*
X58307957Y-119660289D01*
X58321445Y-119636918D01*
X58342876Y-119622884D01*
X58375218Y-119617686D01*
X58402529Y-119624331D01*
X58427466Y-119645727D01*
X58451075Y-119688160D01*
X58472138Y-119762083D01*
X58487790Y-119881012D01*
X58494043Y-120061109D01*
X58491966Y-120287583D01*
X58489951Y-120514057D01*
G37*
G36*
X59062531Y-119606871D02*
G01*
X59084805Y-119621472D01*
X59100444Y-119642857D01*
X59105993Y-119667451D01*
X59102028Y-119682823D01*
X59082959Y-119711605D01*
X59036323Y-119762217D01*
X58896982Y-119897833D01*
X58864265Y-119937869D01*
X58832485Y-119993040D01*
X58802033Y-120066849D01*
X58859998Y-120041882D01*
X58905836Y-120025816D01*
X58948652Y-120015326D01*
X58978926Y-120012383D01*
X59058735Y-120018459D01*
X59124620Y-120035428D01*
X59179110Y-120062080D01*
X59224145Y-120098173D01*
X59260224Y-120143414D01*
X59286755Y-120197577D01*
X59303572Y-120262456D01*
X59309569Y-120340401D01*
X59303331Y-120421640D01*
X59285515Y-120492190D01*
X59256880Y-120553855D01*
X59217368Y-120608030D01*
X59165699Y-120654776D01*
X59106636Y-120688085D01*
X59038710Y-120708622D01*
X58959814Y-120715802D01*
X58889069Y-120710036D01*
X58829157Y-120693721D01*
X58778124Y-120667674D01*
X58734516Y-120631807D01*
X58697497Y-120585132D01*
X58668595Y-120530675D01*
X58646800Y-120466006D01*
X58632819Y-120389318D01*
X58627827Y-120298513D01*
X58627838Y-120298330D01*
X58761000Y-120298330D01*
X58766124Y-120379835D01*
X58780248Y-120445955D01*
X58801972Y-120499403D01*
X58832352Y-120543647D01*
X58868638Y-120573898D01*
X58911788Y-120592169D01*
X58963905Y-120598565D01*
X59014072Y-120593606D01*
X59056473Y-120579485D01*
X59092696Y-120556570D01*
X59123762Y-120524193D01*
X59151968Y-120475669D01*
X59169888Y-120415806D01*
X59176335Y-120341744D01*
X59169653Y-120281202D01*
X59151338Y-120235205D01*
X59122357Y-120200266D01*
X59083588Y-120175500D01*
X59030840Y-120159166D01*
X58959814Y-120153066D01*
X58903200Y-120158413D01*
X58854606Y-120173705D01*
X58765152Y-120226767D01*
X58761000Y-120298330D01*
X58627838Y-120298330D01*
X58633396Y-120203954D01*
X58649846Y-120114070D01*
X58677039Y-120028111D01*
X58715161Y-119945419D01*
X58764725Y-119865454D01*
X58826551Y-119787806D01*
X58901745Y-119712208D01*
X58965981Y-119647178D01*
X59012001Y-119610489D01*
X59036994Y-119602055D01*
X59062531Y-119606871D01*
G37*
G36*
X57348299Y-132899054D02*
G01*
X57322411Y-132893679D01*
X57300928Y-132877411D01*
X57282720Y-132847213D01*
X57262100Y-132808439D01*
X57247183Y-132793297D01*
X57227598Y-132788263D01*
X57176169Y-132785725D01*
X57131704Y-132792998D01*
X57081732Y-132816938D01*
X57023913Y-132862634D01*
X56956167Y-132937278D01*
X56892749Y-133024530D01*
X56846682Y-133105805D01*
X56815683Y-133181985D01*
X56797949Y-133254014D01*
X56792219Y-133322876D01*
X56798657Y-133379412D01*
X56817450Y-133429403D01*
X56848945Y-133474429D01*
X56891113Y-133511356D01*
X56937216Y-133532737D01*
X56988957Y-133539947D01*
X57035102Y-133536095D01*
X57082048Y-133524317D01*
X57130374Y-133503982D01*
X57174605Y-133477675D01*
X57252007Y-133423871D01*
X57289598Y-133400888D01*
X57310747Y-133395355D01*
X57337679Y-133400893D01*
X57359901Y-133417581D01*
X57374893Y-133441301D01*
X57379746Y-133467041D01*
X57373469Y-133495434D01*
X57353795Y-133520957D01*
X57276703Y-133581782D01*
X57202387Y-133626501D01*
X57130197Y-133657035D01*
X57059363Y-133674798D01*
X56989018Y-133680631D01*
X56920734Y-133673774D01*
X56859045Y-133653692D01*
X56802437Y-133620205D01*
X56749904Y-133571943D01*
X56708470Y-133516611D01*
X56679291Y-133457352D01*
X56661653Y-133393261D01*
X56655627Y-133323121D01*
X56662609Y-133234775D01*
X56684021Y-133144115D01*
X56721042Y-133050084D01*
X56775461Y-132951700D01*
X56849617Y-132848068D01*
X56921967Y-132767619D01*
X56989844Y-132710673D01*
X57054068Y-132673135D01*
X57115730Y-132651904D01*
X57176169Y-132645041D01*
X57236253Y-132648155D01*
X57283453Y-132658047D01*
X57301600Y-132637268D01*
X57321999Y-132625533D01*
X57345613Y-132621594D01*
X57372159Y-132628011D01*
X57391635Y-132647325D01*
X57405025Y-132684548D01*
X57412959Y-132743777D01*
X57415955Y-132822240D01*
X57412122Y-132849146D01*
X57400934Y-132872065D01*
X57378715Y-132892224D01*
X57348299Y-132899054D01*
G37*
G36*
X58489951Y-133514057D02*
G01*
X58479022Y-133623356D01*
X58469607Y-133655130D01*
X58454620Y-133675723D01*
X58434036Y-133687963D01*
X58405932Y-133692355D01*
X58382356Y-133688023D01*
X58353221Y-133673055D01*
X58316417Y-133643140D01*
X58185728Y-133511446D01*
X58037160Y-133344621D01*
X57868740Y-133137374D01*
X57678394Y-132884033D01*
X57674974Y-133039127D01*
X57672959Y-133194954D01*
X57675341Y-133365069D01*
X57677722Y-133535917D01*
X57673034Y-133618227D01*
X57661524Y-133669552D01*
X57646117Y-133699344D01*
X57628118Y-133714753D01*
X57606708Y-133719710D01*
X57572456Y-133713491D01*
X57547235Y-133695774D01*
X57532414Y-133672583D01*
X57527451Y-133645216D01*
X57531848Y-133558449D01*
X57536305Y-133471681D01*
X57539053Y-133344919D01*
X57541801Y-133218157D01*
X57539725Y-133081870D01*
X57537710Y-132945582D01*
X57529466Y-132817477D01*
X57521284Y-132689310D01*
X57527728Y-132659892D01*
X57548273Y-132631913D01*
X57577421Y-132612300D01*
X57609456Y-132605963D01*
X57630771Y-132612029D01*
X57659389Y-132634883D01*
X57698910Y-132685219D01*
X57867084Y-132927691D01*
X58004946Y-133108859D01*
X58115782Y-133239683D01*
X58234104Y-133367198D01*
X58360136Y-133491465D01*
X58360136Y-133404698D01*
X58358121Y-133318602D01*
X58351553Y-133034108D01*
X58334918Y-132841107D01*
X58316478Y-132769361D01*
X58305688Y-132725122D01*
X58302800Y-132696943D01*
X58307957Y-132660289D01*
X58321445Y-132636918D01*
X58342876Y-132622884D01*
X58375218Y-132617686D01*
X58402529Y-132624331D01*
X58427466Y-132645727D01*
X58451075Y-132688160D01*
X58472138Y-132762083D01*
X58487790Y-132881012D01*
X58494043Y-133061109D01*
X58491966Y-133287583D01*
X58489951Y-133514057D01*
G37*
G36*
X59340283Y-132773147D02*
G01*
X59278123Y-132846175D01*
X59222332Y-132917624D01*
X59167887Y-133000901D01*
X59114908Y-133097257D01*
X58990527Y-133369527D01*
X58933130Y-133528040D01*
X58896253Y-133622481D01*
X58866879Y-133679654D01*
X58851984Y-133697856D01*
X58834133Y-133708309D01*
X58812291Y-133711894D01*
X58786683Y-133707116D01*
X58764114Y-133692599D01*
X58748423Y-133671245D01*
X58743292Y-133646437D01*
X58750623Y-133611284D01*
X58787012Y-133512165D01*
X58940702Y-133136153D01*
X59014327Y-132989431D01*
X59083960Y-132876682D01*
X59149712Y-132792259D01*
X59162718Y-132777909D01*
X58819740Y-132771010D01*
X58666051Y-132766857D01*
X58635527Y-132759739D01*
X58615842Y-132746605D01*
X58604077Y-132727535D01*
X58599800Y-132700423D01*
X58604684Y-132673705D01*
X58618912Y-132652735D01*
X58640239Y-132638850D01*
X58666722Y-132634112D01*
X58925314Y-132639607D01*
X59183906Y-132645041D01*
X59308898Y-132645041D01*
X59344959Y-132648729D01*
X59366107Y-132657782D01*
X59377455Y-132670721D01*
X59381316Y-132688456D01*
X59377822Y-132709042D01*
X59365428Y-132736461D01*
X59340283Y-132773147D01*
G37*
G36*
X57348299Y-106899054D02*
G01*
X57322411Y-106893679D01*
X57300928Y-106877411D01*
X57282720Y-106847213D01*
X57262100Y-106808439D01*
X57247183Y-106793297D01*
X57227598Y-106788263D01*
X57176169Y-106785725D01*
X57131704Y-106792998D01*
X57081732Y-106816938D01*
X57023913Y-106862634D01*
X56956167Y-106937278D01*
X56892749Y-107024530D01*
X56846682Y-107105805D01*
X56815683Y-107181985D01*
X56797949Y-107254014D01*
X56792219Y-107322876D01*
X56798657Y-107379412D01*
X56817450Y-107429403D01*
X56848945Y-107474429D01*
X56891113Y-107511356D01*
X56937216Y-107532737D01*
X56988957Y-107539947D01*
X57035102Y-107536095D01*
X57082048Y-107524317D01*
X57130374Y-107503982D01*
X57174605Y-107477675D01*
X57252007Y-107423871D01*
X57289598Y-107400888D01*
X57310747Y-107395355D01*
X57337679Y-107400893D01*
X57359901Y-107417581D01*
X57374893Y-107441301D01*
X57379746Y-107467041D01*
X57373469Y-107495434D01*
X57353795Y-107520957D01*
X57276703Y-107581782D01*
X57202387Y-107626501D01*
X57130197Y-107657035D01*
X57059363Y-107674798D01*
X56989018Y-107680631D01*
X56920734Y-107673774D01*
X56859045Y-107653692D01*
X56802437Y-107620205D01*
X56749904Y-107571943D01*
X56708470Y-107516611D01*
X56679291Y-107457352D01*
X56661653Y-107393261D01*
X56655627Y-107323121D01*
X56662609Y-107234775D01*
X56684021Y-107144115D01*
X56721042Y-107050084D01*
X56775461Y-106951700D01*
X56849617Y-106848068D01*
X56921967Y-106767619D01*
X56989844Y-106710673D01*
X57054068Y-106673135D01*
X57115730Y-106651904D01*
X57176169Y-106645041D01*
X57236253Y-106648155D01*
X57283453Y-106658047D01*
X57301600Y-106637268D01*
X57321999Y-106625533D01*
X57345613Y-106621594D01*
X57372159Y-106628011D01*
X57391635Y-106647325D01*
X57405025Y-106684548D01*
X57412959Y-106743777D01*
X57415955Y-106822240D01*
X57412122Y-106849146D01*
X57400934Y-106872065D01*
X57378715Y-106892224D01*
X57348299Y-106899054D01*
G37*
G36*
X58489951Y-107514057D02*
G01*
X58479022Y-107623356D01*
X58469607Y-107655130D01*
X58454620Y-107675723D01*
X58434036Y-107687963D01*
X58405932Y-107692355D01*
X58382356Y-107688023D01*
X58353221Y-107673055D01*
X58316417Y-107643140D01*
X58185728Y-107511446D01*
X58037160Y-107344621D01*
X57868740Y-107137374D01*
X57678394Y-106884033D01*
X57674974Y-107039127D01*
X57672959Y-107194954D01*
X57675341Y-107365069D01*
X57677722Y-107535917D01*
X57673034Y-107618227D01*
X57661524Y-107669552D01*
X57646117Y-107699344D01*
X57628118Y-107714753D01*
X57606708Y-107719710D01*
X57572456Y-107713491D01*
X57547235Y-107695774D01*
X57532414Y-107672583D01*
X57527451Y-107645216D01*
X57531848Y-107558449D01*
X57536305Y-107471681D01*
X57539053Y-107344919D01*
X57541801Y-107218157D01*
X57539725Y-107081870D01*
X57537710Y-106945582D01*
X57529466Y-106817477D01*
X57521284Y-106689310D01*
X57527728Y-106659892D01*
X57548273Y-106631913D01*
X57577421Y-106612300D01*
X57609456Y-106605963D01*
X57630771Y-106612029D01*
X57659389Y-106634883D01*
X57698910Y-106685219D01*
X57867084Y-106927691D01*
X58004946Y-107108859D01*
X58115782Y-107239683D01*
X58234104Y-107367198D01*
X58360136Y-107491465D01*
X58360136Y-107404698D01*
X58358121Y-107318602D01*
X58351553Y-107034108D01*
X58334918Y-106841107D01*
X58316478Y-106769361D01*
X58305688Y-106725122D01*
X58302800Y-106696943D01*
X58307957Y-106660289D01*
X58321445Y-106636918D01*
X58342876Y-106622884D01*
X58375218Y-106617686D01*
X58402529Y-106624331D01*
X58427466Y-106645727D01*
X58451075Y-106688160D01*
X58472138Y-106762083D01*
X58487790Y-106881012D01*
X58494043Y-107061109D01*
X58491966Y-107287583D01*
X58489951Y-107514057D01*
G37*
G36*
X58935939Y-107707986D02*
G01*
X58859125Y-107701618D01*
X58793994Y-107683576D01*
X58738419Y-107654721D01*
X58690833Y-107614888D01*
X58650358Y-107562906D01*
X58640977Y-107542651D01*
X58638085Y-107524193D01*
X58643284Y-107499297D01*
X58659273Y-107477604D01*
X58682076Y-107462707D01*
X58707083Y-107457882D01*
X58733194Y-107464785D01*
X58760389Y-107488229D01*
X58795321Y-107527665D01*
X58815039Y-107544771D01*
X58846095Y-107560841D01*
X58885676Y-107571295D01*
X58935939Y-107575118D01*
X58993061Y-107569387D01*
X59043950Y-107552700D01*
X59089968Y-107525026D01*
X59132005Y-107485298D01*
X59164478Y-107440447D01*
X59187548Y-107391720D01*
X59201605Y-107338325D01*
X59206438Y-107279218D01*
X59202321Y-107213514D01*
X59191003Y-107160518D01*
X59173648Y-107117957D01*
X59149036Y-107083123D01*
X59119752Y-107059241D01*
X59085011Y-107044794D01*
X59043162Y-107039738D01*
X58973854Y-107045240D01*
X58923605Y-107059766D01*
X58887979Y-107080257D01*
X58849172Y-107114232D01*
X58774678Y-107196297D01*
X58742994Y-107220199D01*
X58713189Y-107227316D01*
X58687934Y-107222435D01*
X58666722Y-107207777D01*
X58652392Y-107186278D01*
X58647610Y-107160821D01*
X58658540Y-107038761D01*
X58677490Y-106840780D01*
X58681804Y-106754829D01*
X58679002Y-106730563D01*
X58669836Y-106702377D01*
X58660263Y-106675420D01*
X58657868Y-106660184D01*
X58664486Y-106638637D01*
X58685386Y-106624420D01*
X58729615Y-106618358D01*
X58770892Y-106620800D01*
X58812230Y-106623182D01*
X58931115Y-106620434D01*
X59049939Y-106617686D01*
X59105932Y-106619091D01*
X59161986Y-106620434D01*
X59199538Y-106615305D01*
X59236419Y-106610115D01*
X59261336Y-106615018D01*
X59283558Y-106630081D01*
X59299065Y-106651863D01*
X59304074Y-106676182D01*
X59299150Y-106700717D01*
X59284437Y-106720513D01*
X59257359Y-106736737D01*
X59212454Y-106748514D01*
X59142202Y-106753241D01*
X59088896Y-106751898D01*
X59049939Y-106750554D01*
X58934535Y-106752569D01*
X58819069Y-106755928D01*
X58815173Y-106805145D01*
X58793790Y-106981364D01*
X58842105Y-106950000D01*
X58898701Y-106926785D01*
X58965098Y-106912083D01*
X59043162Y-106906870D01*
X59102168Y-106911882D01*
X59153407Y-106926238D01*
X59198294Y-106949474D01*
X59237864Y-106981892D01*
X59272689Y-107024534D01*
X59300894Y-107075495D01*
X59321786Y-107134025D01*
X59334967Y-107201377D01*
X59339611Y-107279035D01*
X59332390Y-107370230D01*
X59311672Y-107450154D01*
X59278173Y-107520746D01*
X59231656Y-107583483D01*
X59184242Y-107628107D01*
X59131820Y-107662508D01*
X59073687Y-107687338D01*
X59008822Y-107702668D01*
X58935939Y-107707986D01*
G37*
G36*
X57460162Y-54899054D02*
G01*
X57434274Y-54893679D01*
X57412791Y-54877411D01*
X57394583Y-54847213D01*
X57373963Y-54808439D01*
X57359046Y-54793297D01*
X57339461Y-54788263D01*
X57288032Y-54785725D01*
X57243567Y-54792998D01*
X57193595Y-54816938D01*
X57135776Y-54862634D01*
X57068030Y-54937278D01*
X57004612Y-55024530D01*
X56958545Y-55105805D01*
X56927546Y-55181985D01*
X56909812Y-55254014D01*
X56904082Y-55322876D01*
X56910520Y-55379412D01*
X56929313Y-55429403D01*
X56960808Y-55474429D01*
X57002976Y-55511356D01*
X57049079Y-55532737D01*
X57100820Y-55539947D01*
X57146965Y-55536095D01*
X57193911Y-55524317D01*
X57242237Y-55503982D01*
X57286468Y-55477675D01*
X57363870Y-55423871D01*
X57401461Y-55400888D01*
X57422610Y-55395355D01*
X57449542Y-55400893D01*
X57471764Y-55417581D01*
X57486756Y-55441301D01*
X57491609Y-55467041D01*
X57485332Y-55495434D01*
X57465658Y-55520957D01*
X57388566Y-55581782D01*
X57314250Y-55626501D01*
X57242060Y-55657035D01*
X57171226Y-55674798D01*
X57100881Y-55680631D01*
X57032597Y-55673774D01*
X56970908Y-55653692D01*
X56914300Y-55620205D01*
X56861767Y-55571943D01*
X56820333Y-55516611D01*
X56791154Y-55457352D01*
X56773516Y-55393261D01*
X56767490Y-55323121D01*
X56774472Y-55234775D01*
X56795884Y-55144115D01*
X56832905Y-55050084D01*
X56887324Y-54951700D01*
X56961480Y-54848068D01*
X57033830Y-54767619D01*
X57101707Y-54710673D01*
X57165931Y-54673135D01*
X57227593Y-54651904D01*
X57288032Y-54645041D01*
X57348116Y-54648155D01*
X57395316Y-54658047D01*
X57413463Y-54637268D01*
X57433862Y-54625533D01*
X57457476Y-54621594D01*
X57484022Y-54628011D01*
X57503498Y-54647325D01*
X57516888Y-54684548D01*
X57524822Y-54743777D01*
X57527818Y-54822240D01*
X57523985Y-54849146D01*
X57512797Y-54872065D01*
X57490578Y-54892224D01*
X57460162Y-54899054D01*
G37*
G36*
X58601814Y-55514057D02*
G01*
X58590885Y-55623356D01*
X58581470Y-55655130D01*
X58566483Y-55675723D01*
X58545899Y-55687963D01*
X58517795Y-55692355D01*
X58494219Y-55688023D01*
X58465084Y-55673055D01*
X58428280Y-55643140D01*
X58297591Y-55511446D01*
X58149023Y-55344621D01*
X57980603Y-55137374D01*
X57790257Y-54884033D01*
X57786837Y-55039127D01*
X57784822Y-55194954D01*
X57787204Y-55365069D01*
X57789585Y-55535917D01*
X57784897Y-55618227D01*
X57773387Y-55669552D01*
X57757980Y-55699344D01*
X57739981Y-55714753D01*
X57718571Y-55719710D01*
X57684319Y-55713491D01*
X57659098Y-55695774D01*
X57644277Y-55672583D01*
X57639314Y-55645216D01*
X57643711Y-55558449D01*
X57648168Y-55471681D01*
X57650916Y-55344919D01*
X57653664Y-55218157D01*
X57651588Y-55081870D01*
X57649573Y-54945582D01*
X57641329Y-54817477D01*
X57633147Y-54689310D01*
X57639591Y-54659892D01*
X57660136Y-54631913D01*
X57689284Y-54612300D01*
X57721319Y-54605963D01*
X57742634Y-54612029D01*
X57771252Y-54634883D01*
X57810773Y-54685219D01*
X57978947Y-54927691D01*
X58116809Y-55108859D01*
X58227645Y-55239683D01*
X58345967Y-55367198D01*
X58471999Y-55491465D01*
X58471999Y-55404698D01*
X58469984Y-55318602D01*
X58463416Y-55034108D01*
X58446781Y-54841107D01*
X58428341Y-54769361D01*
X58417551Y-54725122D01*
X58414663Y-54696943D01*
X58419820Y-54660289D01*
X58433308Y-54636918D01*
X58454739Y-54622884D01*
X58487081Y-54617686D01*
X58514392Y-54624331D01*
X58539329Y-54645727D01*
X58562938Y-54688160D01*
X58584001Y-54762083D01*
X58599653Y-54881012D01*
X58605906Y-55061109D01*
X58603829Y-55287583D01*
X58601814Y-55514057D01*
G37*
G36*
X59144766Y-55665000D02*
G01*
X59008845Y-55665000D01*
X58873596Y-55664328D01*
X58829364Y-55662447D01*
X58806673Y-55658222D01*
X58787254Y-55646982D01*
X58775898Y-55630365D01*
X58771808Y-55606564D01*
X58777722Y-55578086D01*
X58794855Y-55557634D01*
X58826217Y-55543555D01*
X58879030Y-55537871D01*
X58911820Y-55538543D01*
X58939847Y-55539947D01*
X58934046Y-55442739D01*
X58928245Y-55346202D01*
X58931517Y-55247956D01*
X58943938Y-55081931D01*
X58955587Y-54917892D01*
X58958287Y-54816988D01*
X58872721Y-54875847D01*
X58841478Y-54887330D01*
X58816073Y-54882280D01*
X58793973Y-54866875D01*
X58778762Y-54844648D01*
X58773823Y-54819797D01*
X58778580Y-54800449D01*
X58795868Y-54775409D01*
X58832563Y-54742067D01*
X58937099Y-54658841D01*
X58979872Y-54622862D01*
X59017552Y-54603938D01*
X59051832Y-54598147D01*
X59077217Y-54603969D01*
X59091935Y-54620235D01*
X59097627Y-54650842D01*
X59093536Y-54697737D01*
X59089445Y-54744631D01*
X59091827Y-54813142D01*
X59094208Y-54881591D01*
X59090762Y-54969170D01*
X59077783Y-55114354D01*
X59064845Y-55259401D01*
X59061418Y-55346385D01*
X59066853Y-55442983D01*
X59073020Y-55536039D01*
X59144766Y-55534635D01*
X59171224Y-55539404D01*
X59192211Y-55553319D01*
X59206256Y-55574146D01*
X59211017Y-55599848D01*
X59206214Y-55626064D01*
X59192211Y-55646681D01*
X59171254Y-55660312D01*
X59144766Y-55665000D01*
G37*
G36*
X57348299Y-93899054D02*
G01*
X57322411Y-93893679D01*
X57300928Y-93877411D01*
X57282720Y-93847213D01*
X57262100Y-93808439D01*
X57247183Y-93793297D01*
X57227598Y-93788263D01*
X57176169Y-93785725D01*
X57131704Y-93792998D01*
X57081732Y-93816938D01*
X57023913Y-93862634D01*
X56956167Y-93937278D01*
X56892749Y-94024530D01*
X56846682Y-94105805D01*
X56815683Y-94181985D01*
X56797949Y-94254014D01*
X56792219Y-94322876D01*
X56798657Y-94379412D01*
X56817450Y-94429403D01*
X56848945Y-94474429D01*
X56891113Y-94511356D01*
X56937216Y-94532737D01*
X56988957Y-94539947D01*
X57035102Y-94536095D01*
X57082048Y-94524317D01*
X57130374Y-94503982D01*
X57174605Y-94477675D01*
X57252007Y-94423871D01*
X57289598Y-94400888D01*
X57310747Y-94395355D01*
X57337679Y-94400893D01*
X57359901Y-94417581D01*
X57374893Y-94441301D01*
X57379746Y-94467041D01*
X57373469Y-94495434D01*
X57353795Y-94520957D01*
X57276703Y-94581782D01*
X57202387Y-94626501D01*
X57130197Y-94657035D01*
X57059363Y-94674798D01*
X56989018Y-94680631D01*
X56920734Y-94673774D01*
X56859045Y-94653692D01*
X56802437Y-94620205D01*
X56749904Y-94571943D01*
X56708470Y-94516611D01*
X56679291Y-94457352D01*
X56661653Y-94393261D01*
X56655627Y-94323121D01*
X56662609Y-94234775D01*
X56684021Y-94144115D01*
X56721042Y-94050084D01*
X56775461Y-93951700D01*
X56849617Y-93848068D01*
X56921967Y-93767619D01*
X56989844Y-93710673D01*
X57054068Y-93673135D01*
X57115730Y-93651904D01*
X57176169Y-93645041D01*
X57236253Y-93648155D01*
X57283453Y-93658047D01*
X57301600Y-93637268D01*
X57321999Y-93625533D01*
X57345613Y-93621594D01*
X57372159Y-93628011D01*
X57391635Y-93647325D01*
X57405025Y-93684548D01*
X57412959Y-93743777D01*
X57415955Y-93822240D01*
X57412122Y-93849146D01*
X57400934Y-93872065D01*
X57378715Y-93892224D01*
X57348299Y-93899054D01*
G37*
G36*
X58489951Y-94514057D02*
G01*
X58479022Y-94623356D01*
X58469607Y-94655130D01*
X58454620Y-94675723D01*
X58434036Y-94687963D01*
X58405932Y-94692355D01*
X58382356Y-94688023D01*
X58353221Y-94673055D01*
X58316417Y-94643140D01*
X58185728Y-94511446D01*
X58037160Y-94344621D01*
X57868740Y-94137374D01*
X57678394Y-93884033D01*
X57674974Y-94039127D01*
X57672959Y-94194954D01*
X57675341Y-94365069D01*
X57677722Y-94535917D01*
X57673034Y-94618227D01*
X57661524Y-94669552D01*
X57646117Y-94699344D01*
X57628118Y-94714753D01*
X57606708Y-94719710D01*
X57572456Y-94713491D01*
X57547235Y-94695774D01*
X57532414Y-94672583D01*
X57527451Y-94645216D01*
X57531848Y-94558449D01*
X57536305Y-94471681D01*
X57539053Y-94344919D01*
X57541801Y-94218157D01*
X57539725Y-94081870D01*
X57537710Y-93945582D01*
X57529466Y-93817477D01*
X57521284Y-93689310D01*
X57527728Y-93659892D01*
X57548273Y-93631913D01*
X57577421Y-93612300D01*
X57609456Y-93605963D01*
X57630771Y-93612029D01*
X57659389Y-93634883D01*
X57698910Y-93685219D01*
X57867084Y-93927691D01*
X58004946Y-94108859D01*
X58115782Y-94239683D01*
X58234104Y-94367198D01*
X58360136Y-94491465D01*
X58360136Y-94404698D01*
X58358121Y-94318602D01*
X58351553Y-94034108D01*
X58334918Y-93841107D01*
X58316478Y-93769361D01*
X58305688Y-93725122D01*
X58302800Y-93696943D01*
X58307957Y-93660289D01*
X58321445Y-93636918D01*
X58342876Y-93622884D01*
X58375218Y-93617686D01*
X58402529Y-93624331D01*
X58427466Y-93645727D01*
X58451075Y-93688160D01*
X58472138Y-93762083D01*
X58487790Y-93881012D01*
X58494043Y-94061109D01*
X58491966Y-94287583D01*
X58489951Y-94514057D01*
G37*
G36*
X59169369Y-93603033D02*
G01*
X59192104Y-93615713D01*
X59205581Y-93635608D01*
X59210529Y-93665314D01*
X59210529Y-94235132D01*
X59238556Y-94234399D01*
X59302182Y-94240399D01*
X59338782Y-94254927D01*
X59357875Y-94275178D01*
X59364219Y-94302238D01*
X59358427Y-94331147D01*
X59341936Y-94351294D01*
X59312317Y-94364581D01*
X59282313Y-94368225D01*
X59210529Y-94368000D01*
X59210529Y-94620975D01*
X59206236Y-94649995D01*
X59194875Y-94668764D01*
X59176504Y-94680237D01*
X59148369Y-94684539D01*
X59117491Y-94678694D01*
X59095975Y-94662217D01*
X59081634Y-94633087D01*
X59075951Y-94585254D01*
X59077294Y-94550327D01*
X59078638Y-94519553D01*
X59077966Y-94364092D01*
X58776754Y-94357620D01*
X58690317Y-94355992D01*
X58646939Y-94352369D01*
X58609163Y-94340726D01*
X58590628Y-94324533D01*
X58584779Y-94303581D01*
X58592547Y-94272066D01*
X58621048Y-94227316D01*
X58793118Y-94227316D01*
X59077966Y-94231224D01*
X59077966Y-93787679D01*
X58904267Y-94061769D01*
X58793118Y-94227316D01*
X58621048Y-94227316D01*
X58622331Y-94225301D01*
X58681072Y-94155204D01*
X59017211Y-93662016D01*
X59051457Y-93625739D01*
X59089605Y-93605090D01*
X59133348Y-93598147D01*
X59169369Y-93603033D01*
G37*
G36*
X57348299Y-80899054D02*
G01*
X57322411Y-80893679D01*
X57300928Y-80877411D01*
X57282720Y-80847213D01*
X57262100Y-80808439D01*
X57247183Y-80793297D01*
X57227598Y-80788263D01*
X57176169Y-80785725D01*
X57131704Y-80792998D01*
X57081732Y-80816938D01*
X57023913Y-80862634D01*
X56956167Y-80937278D01*
X56892749Y-81024530D01*
X56846682Y-81105805D01*
X56815683Y-81181985D01*
X56797949Y-81254014D01*
X56792219Y-81322876D01*
X56798657Y-81379412D01*
X56817450Y-81429403D01*
X56848945Y-81474429D01*
X56891113Y-81511356D01*
X56937216Y-81532737D01*
X56988957Y-81539947D01*
X57035102Y-81536095D01*
X57082048Y-81524317D01*
X57130374Y-81503982D01*
X57174605Y-81477675D01*
X57252007Y-81423871D01*
X57289598Y-81400888D01*
X57310747Y-81395355D01*
X57337679Y-81400893D01*
X57359901Y-81417581D01*
X57374893Y-81441301D01*
X57379746Y-81467041D01*
X57373469Y-81495434D01*
X57353795Y-81520957D01*
X57276703Y-81581782D01*
X57202387Y-81626501D01*
X57130197Y-81657035D01*
X57059363Y-81674798D01*
X56989018Y-81680631D01*
X56920734Y-81673774D01*
X56859045Y-81653692D01*
X56802437Y-81620205D01*
X56749904Y-81571943D01*
X56708470Y-81516611D01*
X56679291Y-81457352D01*
X56661653Y-81393261D01*
X56655627Y-81323121D01*
X56662609Y-81234775D01*
X56684021Y-81144115D01*
X56721042Y-81050084D01*
X56775461Y-80951700D01*
X56849617Y-80848068D01*
X56921967Y-80767619D01*
X56989844Y-80710673D01*
X57054068Y-80673135D01*
X57115730Y-80651904D01*
X57176169Y-80645041D01*
X57236253Y-80648155D01*
X57283453Y-80658047D01*
X57301600Y-80637268D01*
X57321999Y-80625533D01*
X57345613Y-80621594D01*
X57372159Y-80628011D01*
X57391635Y-80647325D01*
X57405025Y-80684548D01*
X57412959Y-80743777D01*
X57415955Y-80822240D01*
X57412122Y-80849146D01*
X57400934Y-80872065D01*
X57378715Y-80892224D01*
X57348299Y-80899054D01*
G37*
G36*
X58489951Y-81514057D02*
G01*
X58479022Y-81623356D01*
X58469607Y-81655130D01*
X58454620Y-81675723D01*
X58434036Y-81687963D01*
X58405932Y-81692355D01*
X58382356Y-81688023D01*
X58353221Y-81673055D01*
X58316417Y-81643140D01*
X58185728Y-81511446D01*
X58037160Y-81344621D01*
X57868740Y-81137374D01*
X57678394Y-80884033D01*
X57674974Y-81039127D01*
X57672959Y-81194954D01*
X57675341Y-81365069D01*
X57677722Y-81535917D01*
X57673034Y-81618227D01*
X57661524Y-81669552D01*
X57646117Y-81699344D01*
X57628118Y-81714753D01*
X57606708Y-81719710D01*
X57572456Y-81713491D01*
X57547235Y-81695774D01*
X57532414Y-81672583D01*
X57527451Y-81645216D01*
X57531848Y-81558449D01*
X57536305Y-81471681D01*
X57539053Y-81344919D01*
X57541801Y-81218157D01*
X57539725Y-81081870D01*
X57537710Y-80945582D01*
X57529466Y-80817477D01*
X57521284Y-80689310D01*
X57527728Y-80659892D01*
X57548273Y-80631913D01*
X57577421Y-80612300D01*
X57609456Y-80605963D01*
X57630771Y-80612029D01*
X57659389Y-80634883D01*
X57698910Y-80685219D01*
X57867084Y-80927691D01*
X58004946Y-81108859D01*
X58115782Y-81239683D01*
X58234104Y-81367198D01*
X58360136Y-81491465D01*
X58360136Y-81404698D01*
X58358121Y-81318602D01*
X58351553Y-81034108D01*
X58334918Y-80841107D01*
X58316478Y-80769361D01*
X58305688Y-80725122D01*
X58302800Y-80696943D01*
X58307957Y-80660289D01*
X58321445Y-80636918D01*
X58342876Y-80622884D01*
X58375218Y-80617686D01*
X58402529Y-80624331D01*
X58427466Y-80645727D01*
X58451075Y-80688160D01*
X58472138Y-80762083D01*
X58487790Y-80881012D01*
X58494043Y-81061109D01*
X58491966Y-81287583D01*
X58489951Y-81514057D01*
G37*
G36*
X58965248Y-81696263D02*
G01*
X58897594Y-81691235D01*
X58836232Y-81676619D01*
X58780112Y-81652726D01*
X58736830Y-81624224D01*
X58702268Y-81591349D01*
X58675428Y-81553855D01*
X58655792Y-81511127D01*
X58651701Y-81486946D01*
X58656900Y-81461682D01*
X58672523Y-81441029D01*
X58695063Y-81427270D01*
X58720700Y-81422711D01*
X58745640Y-81428812D01*
X58767839Y-81448234D01*
X58799285Y-81495800D01*
X58827856Y-81525173D01*
X58865536Y-81546542D01*
X58909698Y-81558900D01*
X58965309Y-81563394D01*
X59013270Y-81558165D01*
X59056368Y-81542832D01*
X59095796Y-81517110D01*
X59129382Y-81481171D01*
X59148703Y-81441734D01*
X59155208Y-81397248D01*
X59150247Y-81347365D01*
X59135982Y-81304228D01*
X59112613Y-81266445D01*
X59079371Y-81233117D01*
X59032171Y-81203459D01*
X58973765Y-81181624D01*
X58901745Y-81168454D01*
X58865239Y-81160631D01*
X58842832Y-81147662D01*
X58830261Y-81130305D01*
X58825908Y-81107210D01*
X58831594Y-81084174D01*
X58849675Y-81064007D01*
X58885320Y-81045905D01*
X59048657Y-81005727D01*
X59091296Y-80984853D01*
X59119671Y-80959748D01*
X59137633Y-80928109D01*
X59144278Y-80889284D01*
X59139639Y-80851670D01*
X59124423Y-80819986D01*
X59097811Y-80792625D01*
X59062545Y-80772434D01*
X59016821Y-80759290D01*
X58957799Y-80754462D01*
X58912342Y-80760060D01*
X58867612Y-80777177D01*
X58790370Y-80825964D01*
X58768443Y-80837439D01*
X58754161Y-80840436D01*
X58728973Y-80835237D01*
X58707389Y-80819370D01*
X58692701Y-80796643D01*
X58687910Y-80771376D01*
X58692756Y-80748088D01*
X58708701Y-80723568D01*
X58739854Y-80696566D01*
X58792446Y-80666474D01*
X58854694Y-80639619D01*
X58903661Y-80625682D01*
X58942045Y-80621594D01*
X59016042Y-80626214D01*
X59078349Y-80639164D01*
X59130819Y-80659441D01*
X59174992Y-80686563D01*
X59215039Y-80724821D01*
X59243453Y-80769747D01*
X59261011Y-80822664D01*
X59267193Y-80885621D01*
X59261334Y-80948981D01*
X59245078Y-80999670D01*
X59219445Y-81040337D01*
X59184109Y-81072760D01*
X59137439Y-81097623D01*
X59110756Y-81107210D01*
X59167992Y-81134249D01*
X59212653Y-81167614D01*
X59246677Y-81207349D01*
X59271077Y-81253736D01*
X59286380Y-81308561D01*
X59291801Y-81373740D01*
X59285732Y-81439189D01*
X59268018Y-81498275D01*
X59238690Y-81552329D01*
X59196851Y-81602290D01*
X59146497Y-81643586D01*
X59091814Y-81672632D01*
X59031845Y-81690225D01*
X58965248Y-81696263D01*
G37*
D10*
%TO.C,CN2*%
X55560000Y-58810000D02*
X55560000Y-62250000D01*
X55560000Y-63750000D02*
X55560000Y-67190000D01*
X144460000Y-58810000D02*
X55560000Y-58810000D01*
X144460000Y-67190000D02*
X55560000Y-67190000D01*
X144460000Y-67190000D02*
X144460000Y-58810000D01*
%TO.C,CN6*%
X55560000Y-110810000D02*
X55560000Y-114250000D01*
X55560000Y-115750000D02*
X55560000Y-119190000D01*
X144460000Y-110810000D02*
X55560000Y-110810000D01*
X144460000Y-119190000D02*
X55560000Y-119190000D01*
X144460000Y-119190000D02*
X144460000Y-110810000D01*
%TO.C,CN7*%
X55560000Y-123810000D02*
X55560000Y-127250000D01*
X55560000Y-128750000D02*
X55560000Y-132190000D01*
X144460000Y-123810000D02*
X55560000Y-123810000D01*
X144460000Y-132190000D02*
X55560000Y-132190000D01*
X144460000Y-132190000D02*
X144460000Y-123810000D01*
%TO.C,CN5*%
X55560000Y-97810000D02*
X55560000Y-101250000D01*
X55560000Y-102750000D02*
X55560000Y-106190000D01*
X144460000Y-97810000D02*
X55560000Y-97810000D01*
X144460000Y-106190000D02*
X55560000Y-106190000D01*
X144460000Y-106190000D02*
X144460000Y-97810000D01*
%TO.C,CN1*%
X55560000Y-45810000D02*
X55560000Y-49250000D01*
X55560000Y-50750000D02*
X55560000Y-54190000D01*
X144460000Y-45810000D02*
X55560000Y-45810000D01*
X144460000Y-54190000D02*
X55560000Y-54190000D01*
X144460000Y-54190000D02*
X144460000Y-45810000D01*
%TO.C,CN4*%
X55560000Y-84810000D02*
X55560000Y-88250000D01*
X55560000Y-89750000D02*
X55560000Y-93190000D01*
X144460000Y-84810000D02*
X55560000Y-84810000D01*
X144460000Y-93190000D02*
X55560000Y-93190000D01*
X144460000Y-93190000D02*
X144460000Y-84810000D01*
%TO.C,CN3*%
X55560000Y-71810000D02*
X55560000Y-75250000D01*
X55560000Y-76750000D02*
X55560000Y-80190000D01*
X144460000Y-71810000D02*
X55560000Y-71810000D01*
X144460000Y-80190000D02*
X55560000Y-80190000D01*
X144460000Y-80190000D02*
X144460000Y-71810000D01*
%TD*%
M02*
