%TF.GenerationSoftware,KiCad,Pcbnew,9.0.2*%
%TF.CreationDate,2026-05-12T23:08:37-04:00*%
%TF.ProjectId,Santas Microfactory - Backplane,53616e74-6173-4204-9d69-63726f666163,rev?*%
%TF.SameCoordinates,Original*%
%TF.FileFunction,Copper,L2,Inr*%
%TF.FilePolarity,Positive*%
%FSLAX46Y46*%
G04 Gerber Fmt 4.6, Leading zero omitted, Abs format (unit mm)*
G04 Created by KiCad (PCBNEW 9.0.2) date 2026-05-12 23:08:37*
%MOMM*%
%LPD*%
G01*
G04 APERTURE LIST*
%TA.AperFunction,ComponentPad*%
%ADD10C,0.800000*%
%TD*%
%TA.AperFunction,ComponentPad*%
%ADD11C,6.400000*%
%TD*%
%TA.AperFunction,ComponentPad*%
%ADD12C,2.350000*%
%TD*%
%TA.AperFunction,ComponentPad*%
%ADD13C,1.200000*%
%TD*%
%TA.AperFunction,Conductor*%
%ADD14C,0.300000*%
%TD*%
G04 APERTURE END LIST*
D10*
%TO.N,N/C*%
%TO.C,H5*%
X149400000Y-56600000D03*
X148697056Y-58297056D03*
X148697056Y-54902944D03*
X147000000Y-59000000D03*
D11*
X147000000Y-56600000D03*
D10*
X147000000Y-54200000D03*
X145302944Y-58297056D03*
X145302944Y-54902944D03*
X144600000Y-56600000D03*
%TD*%
%TO.N,N/C*%
%TO.C,H1*%
X55400000Y-56600000D03*
X54697056Y-58297056D03*
X54697056Y-54902944D03*
X53000000Y-59000000D03*
D11*
X53000000Y-56600000D03*
D10*
X53000000Y-54200000D03*
X51302944Y-58297056D03*
X51302944Y-54902944D03*
X50600000Y-56600000D03*
%TD*%
%TO.N,N/C*%
%TO.C,H6*%
X144600000Y-121500000D03*
X145302944Y-119802944D03*
X145302944Y-123197056D03*
X147000000Y-119100000D03*
D11*
X147000000Y-121500000D03*
D10*
X147000000Y-123900000D03*
X148697056Y-119802944D03*
X148697056Y-123197056D03*
X149400000Y-121500000D03*
%TD*%
%TO.N,N/C*%
%TO.C,H3*%
X50600000Y-121500000D03*
X51302944Y-119802944D03*
X51302944Y-123197056D03*
X53000000Y-119100000D03*
D11*
X53000000Y-121500000D03*
D10*
X53000000Y-123900000D03*
X54697056Y-119802944D03*
X54697056Y-123197056D03*
X55400000Y-121500000D03*
%TD*%
D12*
%TO.N,*%
%TO.C,CN2*%
X129850000Y-63000000D03*
X56700000Y-63000000D03*
D13*
%TO.N,A1*%
X141500000Y-64250000D03*
%TO.N,A2*%
X140500000Y-66250000D03*
%TO.N,A3*%
X139500000Y-64250000D03*
%TO.N,A4*%
X138500000Y-66250000D03*
%TO.N,A5*%
X137500000Y-64250000D03*
%TO.N,A6*%
X136500000Y-66250000D03*
%TO.N,A7*%
X135500000Y-64250000D03*
%TO.N,A8*%
X134500000Y-66250000D03*
%TO.N,A9*%
X133500000Y-64250000D03*
%TO.N,A10*%
X132500000Y-66250000D03*
%TO.N,A11*%
X131500000Y-64250000D03*
%TO.N,A12*%
X128500000Y-66250000D03*
%TO.N,A13*%
X127500000Y-64250000D03*
%TO.N,A14*%
X126500000Y-66250000D03*
%TO.N,A15*%
X125500000Y-64250000D03*
%TO.N,A16*%
X124500000Y-66250000D03*
%TO.N,A17*%
X123500000Y-64250000D03*
%TO.N,A18*%
X122500000Y-66250000D03*
%TO.N,A19*%
X121500000Y-64250000D03*
%TO.N,A20*%
X120500000Y-66250000D03*
%TO.N,A21*%
X119500000Y-64250000D03*
%TO.N,A22*%
X118500000Y-66250000D03*
%TO.N,A23*%
X117500000Y-64250000D03*
%TO.N,A24*%
X116500000Y-66250000D03*
%TO.N,A25*%
X115500000Y-64250000D03*
%TO.N,A26*%
X114500000Y-66250000D03*
%TO.N,A27*%
X113500000Y-64250000D03*
%TO.N,A28*%
X112500000Y-66250000D03*
%TO.N,A29*%
X111500000Y-64250000D03*
%TO.N,A30*%
X110500000Y-66250000D03*
%TO.N,A31*%
X109500000Y-64250000D03*
%TO.N,A32*%
X108500000Y-66250000D03*
%TO.N,A33*%
X107500000Y-64250000D03*
%TO.N,A34*%
X106500000Y-66250000D03*
%TO.N,A35*%
X105500000Y-64250000D03*
%TO.N,A36*%
X104500000Y-66250000D03*
%TO.N,A37*%
X103500000Y-64250000D03*
%TO.N,A38*%
X102500000Y-66250000D03*
%TO.N,A39*%
X101500000Y-64250000D03*
%TO.N,A40*%
X100500000Y-66250000D03*
%TO.N,A41*%
X99500000Y-64250000D03*
%TO.N,A42*%
X98500000Y-66250000D03*
%TO.N,A43*%
X97500000Y-64250000D03*
%TO.N,A44*%
X96500000Y-66250000D03*
%TO.N,A45*%
X95500000Y-64250000D03*
%TO.N,A46*%
X94500000Y-66250000D03*
%TO.N,A47*%
X93500000Y-64250000D03*
%TO.N,A48*%
X92500000Y-66250000D03*
%TO.N,A49*%
X91500000Y-64250000D03*
%TO.N,A50*%
X90500000Y-66250000D03*
%TO.N,A51*%
X89500000Y-64250000D03*
%TO.N,A52*%
X88500000Y-66250000D03*
%TO.N,A53*%
X87500000Y-64250000D03*
%TO.N,A54*%
X86500000Y-66250000D03*
%TO.N,A55*%
X85500000Y-64250000D03*
%TO.N,A56*%
X84500000Y-66250000D03*
%TO.N,A57*%
X83500000Y-64250000D03*
%TO.N,A58*%
X82500000Y-66250000D03*
%TO.N,A59*%
X81500000Y-64250000D03*
%TO.N,A60*%
X80500000Y-66250000D03*
%TO.N,A61*%
X79500000Y-64250000D03*
%TO.N,A62*%
X78500000Y-66250000D03*
%TO.N,A63*%
X77500000Y-64250000D03*
%TO.N,A64*%
X76500000Y-66250000D03*
%TO.N,A65*%
X75500000Y-64250000D03*
%TO.N,A66*%
X74500000Y-66250000D03*
%TO.N,A67*%
X73500000Y-64250000D03*
%TO.N,A68*%
X72500000Y-66250000D03*
%TO.N,A69*%
X71500000Y-64250000D03*
%TO.N,A70*%
X70500000Y-66250000D03*
%TO.N,A71*%
X69500000Y-64250000D03*
%TO.N,A72*%
X68500000Y-66250000D03*
%TO.N,A73*%
X67500000Y-64250000D03*
%TO.N,A74*%
X66500000Y-66250000D03*
%TO.N,A75*%
X65500000Y-64250000D03*
%TO.N,A76*%
X64500000Y-66250000D03*
%TO.N,A77*%
X63500000Y-64250000D03*
%TO.N,A78*%
X62500000Y-66250000D03*
%TO.N,A79*%
X61500000Y-64250000D03*
%TO.N,A80*%
X60500000Y-66250000D03*
%TO.N,A81*%
X59500000Y-64250000D03*
%TO.N,A82*%
X58500000Y-66250000D03*
%TO.N,B1*%
X141500000Y-61750000D03*
%TO.N,B2*%
X140500000Y-59750000D03*
%TO.N,B3*%
X139500000Y-61750000D03*
%TO.N,B4*%
X138500000Y-59750000D03*
%TO.N,B5*%
X137500000Y-61750000D03*
%TO.N,B6*%
X136500000Y-59750000D03*
%TO.N,B7*%
X135500000Y-61750000D03*
%TO.N,B8*%
X134500000Y-59750000D03*
%TO.N,B9*%
X133500000Y-61750000D03*
%TO.N,B10*%
X132500000Y-59750000D03*
%TO.N,B11*%
X131500000Y-61750000D03*
%TO.N,B12*%
X128500000Y-59750000D03*
%TO.N,B13*%
X127500000Y-61750000D03*
%TO.N,B14*%
X126500000Y-59750000D03*
%TO.N,B15*%
X125500000Y-61750000D03*
%TO.N,B16*%
X124500000Y-59750000D03*
%TO.N,B17*%
X123500000Y-61750000D03*
%TO.N,B18*%
X122500000Y-59750000D03*
%TO.N,B19*%
X121500000Y-61750000D03*
%TO.N,B20*%
X120500000Y-59750000D03*
%TO.N,B21*%
X119500000Y-61750000D03*
%TO.N,B22*%
X118500000Y-59750000D03*
%TO.N,B23*%
X117500000Y-61750000D03*
%TO.N,B24*%
X116500000Y-59750000D03*
%TO.N,B25*%
X115500000Y-61750000D03*
%TO.N,B26*%
X114500000Y-59750000D03*
%TO.N,B27*%
X113500000Y-61750000D03*
%TO.N,B28*%
X112500000Y-59750000D03*
%TO.N,B29*%
X111500000Y-61750000D03*
%TO.N,B30*%
X110500000Y-59750000D03*
%TO.N,B31*%
X109500000Y-61750000D03*
%TO.N,B32*%
X108500000Y-59750000D03*
%TO.N,B33*%
X107500000Y-61750000D03*
%TO.N,B34*%
X106500000Y-59750000D03*
%TO.N,B35*%
X105500000Y-61750000D03*
%TO.N,B36*%
X104500000Y-59750000D03*
%TO.N,B37*%
X103500000Y-61750000D03*
%TO.N,B38*%
X102500000Y-59750000D03*
%TO.N,B39*%
X101500000Y-61750000D03*
%TO.N,B40*%
X100500000Y-59750000D03*
%TO.N,B41*%
X99500000Y-61750000D03*
%TO.N,B42*%
X98500000Y-59750000D03*
%TO.N,B43*%
X97500000Y-61750000D03*
%TO.N,B44*%
X96500000Y-59750000D03*
%TO.N,B45*%
X95500000Y-61750000D03*
%TO.N,B46*%
X94500000Y-59750000D03*
%TO.N,B47*%
X93500000Y-61750000D03*
%TO.N,B48*%
X92500000Y-59750000D03*
%TO.N,B49*%
X91500000Y-61750000D03*
%TO.N,B50*%
X90500000Y-59750000D03*
%TO.N,B51*%
X89500000Y-61750000D03*
%TO.N,B52*%
X88500000Y-59750000D03*
%TO.N,B53*%
X87500000Y-61750000D03*
%TO.N,B54*%
X86500000Y-59750000D03*
%TO.N,B55*%
X85500000Y-61750000D03*
%TO.N,B56*%
X84500000Y-59750000D03*
%TO.N,B57*%
X83500000Y-61750000D03*
%TO.N,B58*%
X82500000Y-59750000D03*
%TO.N,B59*%
X81500000Y-61750000D03*
%TO.N,B60*%
X80500000Y-59750000D03*
%TO.N,B61*%
X79500000Y-61750000D03*
%TO.N,B62*%
X78500000Y-59750000D03*
%TO.N,B63*%
X77500000Y-61750000D03*
%TO.N,B64*%
X76500000Y-59750000D03*
%TO.N,B65*%
X75500000Y-61750000D03*
%TO.N,B66*%
X74500000Y-59750000D03*
%TO.N,B67*%
X73500000Y-61750000D03*
%TO.N,B68*%
X72500000Y-59750000D03*
%TO.N,B69*%
X71500000Y-61750000D03*
%TO.N,B70*%
X70500000Y-59750000D03*
%TO.N,B71*%
X69500000Y-61750000D03*
%TO.N,B72*%
X68500000Y-59750000D03*
%TO.N,B73*%
X67500000Y-61750000D03*
%TO.N,B74*%
X66500000Y-59750000D03*
%TO.N,B75*%
X65500000Y-61750000D03*
%TO.N,B76*%
X64500000Y-59750000D03*
%TO.N,B77*%
X63500000Y-61750000D03*
%TO.N,B78*%
X62500000Y-59750000D03*
%TO.N,B79*%
X61500000Y-61750000D03*
%TO.N,B80*%
X60500000Y-59750000D03*
%TO.N,B81*%
X59500000Y-61750000D03*
%TO.N,B82*%
X58500000Y-59750000D03*
%TD*%
D12*
%TO.N,*%
%TO.C,CN6*%
X129850000Y-115000000D03*
X56700000Y-115000000D03*
D13*
%TO.N,A1*%
X141500000Y-116250000D03*
%TO.N,A2*%
X140500000Y-118250000D03*
%TO.N,A3*%
X139500000Y-116250000D03*
%TO.N,A4*%
X138500000Y-118250000D03*
%TO.N,A5*%
X137500000Y-116250000D03*
%TO.N,A6*%
X136500000Y-118250000D03*
%TO.N,A7*%
X135500000Y-116250000D03*
%TO.N,A8*%
X134500000Y-118250000D03*
%TO.N,A9*%
X133500000Y-116250000D03*
%TO.N,A10*%
X132500000Y-118250000D03*
%TO.N,A11*%
X131500000Y-116250000D03*
%TO.N,A12*%
X128500000Y-118250000D03*
%TO.N,A13*%
X127500000Y-116250000D03*
%TO.N,A14*%
X126500000Y-118250000D03*
%TO.N,A15*%
X125500000Y-116250000D03*
%TO.N,A16*%
X124500000Y-118250000D03*
%TO.N,A17*%
X123500000Y-116250000D03*
%TO.N,A18*%
X122500000Y-118250000D03*
%TO.N,A19*%
X121500000Y-116250000D03*
%TO.N,A20*%
X120500000Y-118250000D03*
%TO.N,A21*%
X119500000Y-116250000D03*
%TO.N,A22*%
X118500000Y-118250000D03*
%TO.N,A23*%
X117500000Y-116250000D03*
%TO.N,A24*%
X116500000Y-118250000D03*
%TO.N,A25*%
X115500000Y-116250000D03*
%TO.N,A26*%
X114500000Y-118250000D03*
%TO.N,A27*%
X113500000Y-116250000D03*
%TO.N,A28*%
X112500000Y-118250000D03*
%TO.N,A29*%
X111500000Y-116250000D03*
%TO.N,A30*%
X110500000Y-118250000D03*
%TO.N,A31*%
X109500000Y-116250000D03*
%TO.N,A32*%
X108500000Y-118250000D03*
%TO.N,A33*%
X107500000Y-116250000D03*
%TO.N,A34*%
X106500000Y-118250000D03*
%TO.N,A35*%
X105500000Y-116250000D03*
%TO.N,A36*%
X104500000Y-118250000D03*
%TO.N,A37*%
X103500000Y-116250000D03*
%TO.N,A38*%
X102500000Y-118250000D03*
%TO.N,A39*%
X101500000Y-116250000D03*
%TO.N,A40*%
X100500000Y-118250000D03*
%TO.N,A41*%
X99500000Y-116250000D03*
%TO.N,A42*%
X98500000Y-118250000D03*
%TO.N,A43*%
X97500000Y-116250000D03*
%TO.N,A44*%
X96500000Y-118250000D03*
%TO.N,A45*%
X95500000Y-116250000D03*
%TO.N,A46*%
X94500000Y-118250000D03*
%TO.N,A47*%
X93500000Y-116250000D03*
%TO.N,A48*%
X92500000Y-118250000D03*
%TO.N,A49*%
X91500000Y-116250000D03*
%TO.N,A50*%
X90500000Y-118250000D03*
%TO.N,A51*%
X89500000Y-116250000D03*
%TO.N,A52*%
X88500000Y-118250000D03*
%TO.N,A53*%
X87500000Y-116250000D03*
%TO.N,A54*%
X86500000Y-118250000D03*
%TO.N,A55*%
X85500000Y-116250000D03*
%TO.N,A56*%
X84500000Y-118250000D03*
%TO.N,A57*%
X83500000Y-116250000D03*
%TO.N,A58*%
X82500000Y-118250000D03*
%TO.N,A59*%
X81500000Y-116250000D03*
%TO.N,A60*%
X80500000Y-118250000D03*
%TO.N,A61*%
X79500000Y-116250000D03*
%TO.N,A62*%
X78500000Y-118250000D03*
%TO.N,A63*%
X77500000Y-116250000D03*
%TO.N,A64*%
X76500000Y-118250000D03*
%TO.N,A65*%
X75500000Y-116250000D03*
%TO.N,A66*%
X74500000Y-118250000D03*
%TO.N,A67*%
X73500000Y-116250000D03*
%TO.N,A68*%
X72500000Y-118250000D03*
%TO.N,A69*%
X71500000Y-116250000D03*
%TO.N,A70*%
X70500000Y-118250000D03*
%TO.N,A71*%
X69500000Y-116250000D03*
%TO.N,A72*%
X68500000Y-118250000D03*
%TO.N,A73*%
X67500000Y-116250000D03*
%TO.N,A74*%
X66500000Y-118250000D03*
%TO.N,A75*%
X65500000Y-116250000D03*
%TO.N,A76*%
X64500000Y-118250000D03*
%TO.N,A77*%
X63500000Y-116250000D03*
%TO.N,A78*%
X62500000Y-118250000D03*
%TO.N,A79*%
X61500000Y-116250000D03*
%TO.N,A80*%
X60500000Y-118250000D03*
%TO.N,A81*%
X59500000Y-116250000D03*
%TO.N,A82*%
X58500000Y-118250000D03*
%TO.N,B1*%
X141500000Y-113750000D03*
%TO.N,B2*%
X140500000Y-111750000D03*
%TO.N,B3*%
X139500000Y-113750000D03*
%TO.N,B4*%
X138500000Y-111750000D03*
%TO.N,B5*%
X137500000Y-113750000D03*
%TO.N,B6*%
X136500000Y-111750000D03*
%TO.N,B7*%
X135500000Y-113750000D03*
%TO.N,B8*%
X134500000Y-111750000D03*
%TO.N,B9*%
X133500000Y-113750000D03*
%TO.N,B10*%
X132500000Y-111750000D03*
%TO.N,B11*%
X131500000Y-113750000D03*
%TO.N,B12*%
X128500000Y-111750000D03*
%TO.N,B13*%
X127500000Y-113750000D03*
%TO.N,B14*%
X126500000Y-111750000D03*
%TO.N,B15*%
X125500000Y-113750000D03*
%TO.N,B16*%
X124500000Y-111750000D03*
%TO.N,B17*%
X123500000Y-113750000D03*
%TO.N,B18*%
X122500000Y-111750000D03*
%TO.N,B19*%
X121500000Y-113750000D03*
%TO.N,B20*%
X120500000Y-111750000D03*
%TO.N,B21*%
X119500000Y-113750000D03*
%TO.N,B22*%
X118500000Y-111750000D03*
%TO.N,B23*%
X117500000Y-113750000D03*
%TO.N,B24*%
X116500000Y-111750000D03*
%TO.N,B25*%
X115500000Y-113750000D03*
%TO.N,B26*%
X114500000Y-111750000D03*
%TO.N,B27*%
X113500000Y-113750000D03*
%TO.N,B28*%
X112500000Y-111750000D03*
%TO.N,B29*%
X111500000Y-113750000D03*
%TO.N,B30*%
X110500000Y-111750000D03*
%TO.N,B31*%
X109500000Y-113750000D03*
%TO.N,B32*%
X108500000Y-111750000D03*
%TO.N,B33*%
X107500000Y-113750000D03*
%TO.N,B34*%
X106500000Y-111750000D03*
%TO.N,B35*%
X105500000Y-113750000D03*
%TO.N,B36*%
X104500000Y-111750000D03*
%TO.N,B37*%
X103500000Y-113750000D03*
%TO.N,B38*%
X102500000Y-111750000D03*
%TO.N,B39*%
X101500000Y-113750000D03*
%TO.N,B40*%
X100500000Y-111750000D03*
%TO.N,B41*%
X99500000Y-113750000D03*
%TO.N,B42*%
X98500000Y-111750000D03*
%TO.N,B43*%
X97500000Y-113750000D03*
%TO.N,B44*%
X96500000Y-111750000D03*
%TO.N,B45*%
X95500000Y-113750000D03*
%TO.N,B46*%
X94500000Y-111750000D03*
%TO.N,B47*%
X93500000Y-113750000D03*
%TO.N,B48*%
X92500000Y-111750000D03*
%TO.N,B49*%
X91500000Y-113750000D03*
%TO.N,B50*%
X90500000Y-111750000D03*
%TO.N,B51*%
X89500000Y-113750000D03*
%TO.N,B52*%
X88500000Y-111750000D03*
%TO.N,B53*%
X87500000Y-113750000D03*
%TO.N,B54*%
X86500000Y-111750000D03*
%TO.N,B55*%
X85500000Y-113750000D03*
%TO.N,B56*%
X84500000Y-111750000D03*
%TO.N,B57*%
X83500000Y-113750000D03*
%TO.N,B58*%
X82500000Y-111750000D03*
%TO.N,B59*%
X81500000Y-113750000D03*
%TO.N,B60*%
X80500000Y-111750000D03*
%TO.N,B61*%
X79500000Y-113750000D03*
%TO.N,B62*%
X78500000Y-111750000D03*
%TO.N,B63*%
X77500000Y-113750000D03*
%TO.N,B64*%
X76500000Y-111750000D03*
%TO.N,B65*%
X75500000Y-113750000D03*
%TO.N,B66*%
X74500000Y-111750000D03*
%TO.N,B67*%
X73500000Y-113750000D03*
%TO.N,B68*%
X72500000Y-111750000D03*
%TO.N,B69*%
X71500000Y-113750000D03*
%TO.N,B70*%
X70500000Y-111750000D03*
%TO.N,B71*%
X69500000Y-113750000D03*
%TO.N,B72*%
X68500000Y-111750000D03*
%TO.N,B73*%
X67500000Y-113750000D03*
%TO.N,B74*%
X66500000Y-111750000D03*
%TO.N,B75*%
X65500000Y-113750000D03*
%TO.N,B76*%
X64500000Y-111750000D03*
%TO.N,B77*%
X63500000Y-113750000D03*
%TO.N,B78*%
X62500000Y-111750000D03*
%TO.N,B79*%
X61500000Y-113750000D03*
%TO.N,B80*%
X60500000Y-111750000D03*
%TO.N,B81*%
X59500000Y-113750000D03*
%TO.N,B82*%
X58500000Y-111750000D03*
%TD*%
D12*
%TO.N,*%
%TO.C,CN7*%
X129850000Y-128000000D03*
X56700000Y-128000000D03*
D13*
%TO.N,A1*%
X141500000Y-129250000D03*
%TO.N,A2*%
X140500000Y-131250000D03*
%TO.N,A3*%
X139500000Y-129250000D03*
%TO.N,A4*%
X138500000Y-131250000D03*
%TO.N,A5*%
X137500000Y-129250000D03*
%TO.N,A6*%
X136500000Y-131250000D03*
%TO.N,A7*%
X135500000Y-129250000D03*
%TO.N,A8*%
X134500000Y-131250000D03*
%TO.N,A9*%
X133500000Y-129250000D03*
%TO.N,A10*%
X132500000Y-131250000D03*
%TO.N,A11*%
X131500000Y-129250000D03*
%TO.N,A12*%
X128500000Y-131250000D03*
%TO.N,A13*%
X127500000Y-129250000D03*
%TO.N,A14*%
X126500000Y-131250000D03*
%TO.N,A15*%
X125500000Y-129250000D03*
%TO.N,A16*%
X124500000Y-131250000D03*
%TO.N,A17*%
X123500000Y-129250000D03*
%TO.N,A18*%
X122500000Y-131250000D03*
%TO.N,A19*%
X121500000Y-129250000D03*
%TO.N,A20*%
X120500000Y-131250000D03*
%TO.N,A21*%
X119500000Y-129250000D03*
%TO.N,A22*%
X118500000Y-131250000D03*
%TO.N,A23*%
X117500000Y-129250000D03*
%TO.N,A24*%
X116500000Y-131250000D03*
%TO.N,A25*%
X115500000Y-129250000D03*
%TO.N,A26*%
X114500000Y-131250000D03*
%TO.N,A27*%
X113500000Y-129250000D03*
%TO.N,A28*%
X112500000Y-131250000D03*
%TO.N,A29*%
X111500000Y-129250000D03*
%TO.N,A30*%
X110500000Y-131250000D03*
%TO.N,A31*%
X109500000Y-129250000D03*
%TO.N,A32*%
X108500000Y-131250000D03*
%TO.N,A33*%
X107500000Y-129250000D03*
%TO.N,A34*%
X106500000Y-131250000D03*
%TO.N,A35*%
X105500000Y-129250000D03*
%TO.N,A36*%
X104500000Y-131250000D03*
%TO.N,A37*%
X103500000Y-129250000D03*
%TO.N,A38*%
X102500000Y-131250000D03*
%TO.N,A39*%
X101500000Y-129250000D03*
%TO.N,A40*%
X100500000Y-131250000D03*
%TO.N,A41*%
X99500000Y-129250000D03*
%TO.N,A42*%
X98500000Y-131250000D03*
%TO.N,A43*%
X97500000Y-129250000D03*
%TO.N,A44*%
X96500000Y-131250000D03*
%TO.N,A45*%
X95500000Y-129250000D03*
%TO.N,A46*%
X94500000Y-131250000D03*
%TO.N,A47*%
X93500000Y-129250000D03*
%TO.N,A48*%
X92500000Y-131250000D03*
%TO.N,A49*%
X91500000Y-129250000D03*
%TO.N,A50*%
X90500000Y-131250000D03*
%TO.N,A51*%
X89500000Y-129250000D03*
%TO.N,A52*%
X88500000Y-131250000D03*
%TO.N,A53*%
X87500000Y-129250000D03*
%TO.N,A54*%
X86500000Y-131250000D03*
%TO.N,A55*%
X85500000Y-129250000D03*
%TO.N,A56*%
X84500000Y-131250000D03*
%TO.N,A57*%
X83500000Y-129250000D03*
%TO.N,A58*%
X82500000Y-131250000D03*
%TO.N,A59*%
X81500000Y-129250000D03*
%TO.N,A60*%
X80500000Y-131250000D03*
%TO.N,A61*%
X79500000Y-129250000D03*
%TO.N,A62*%
X78500000Y-131250000D03*
%TO.N,A63*%
X77500000Y-129250000D03*
%TO.N,A64*%
X76500000Y-131250000D03*
%TO.N,A65*%
X75500000Y-129250000D03*
%TO.N,A66*%
X74500000Y-131250000D03*
%TO.N,A67*%
X73500000Y-129250000D03*
%TO.N,A68*%
X72500000Y-131250000D03*
%TO.N,A69*%
X71500000Y-129250000D03*
%TO.N,A70*%
X70500000Y-131250000D03*
%TO.N,A71*%
X69500000Y-129250000D03*
%TO.N,A72*%
X68500000Y-131250000D03*
%TO.N,A73*%
X67500000Y-129250000D03*
%TO.N,A74*%
X66500000Y-131250000D03*
%TO.N,A75*%
X65500000Y-129250000D03*
%TO.N,A76*%
X64500000Y-131250000D03*
%TO.N,A77*%
X63500000Y-129250000D03*
%TO.N,A78*%
X62500000Y-131250000D03*
%TO.N,A79*%
X61500000Y-129250000D03*
%TO.N,A80*%
X60500000Y-131250000D03*
%TO.N,A81*%
X59500000Y-129250000D03*
%TO.N,A82*%
X58500000Y-131250000D03*
%TO.N,B1*%
X141500000Y-126750000D03*
%TO.N,B2*%
X140500000Y-124750000D03*
%TO.N,B3*%
X139500000Y-126750000D03*
%TO.N,B4*%
X138500000Y-124750000D03*
%TO.N,B5*%
X137500000Y-126750000D03*
%TO.N,B6*%
X136500000Y-124750000D03*
%TO.N,B7*%
X135500000Y-126750000D03*
%TO.N,B8*%
X134500000Y-124750000D03*
%TO.N,B9*%
X133500000Y-126750000D03*
%TO.N,B10*%
X132500000Y-124750000D03*
%TO.N,B11*%
X131500000Y-126750000D03*
%TO.N,B12*%
X128500000Y-124750000D03*
%TO.N,B13*%
X127500000Y-126750000D03*
%TO.N,B14*%
X126500000Y-124750000D03*
%TO.N,B15*%
X125500000Y-126750000D03*
%TO.N,B16*%
X124500000Y-124750000D03*
%TO.N,B17*%
X123500000Y-126750000D03*
%TO.N,B18*%
X122500000Y-124750000D03*
%TO.N,B19*%
X121500000Y-126750000D03*
%TO.N,B20*%
X120500000Y-124750000D03*
%TO.N,B21*%
X119500000Y-126750000D03*
%TO.N,B22*%
X118500000Y-124750000D03*
%TO.N,B23*%
X117500000Y-126750000D03*
%TO.N,B24*%
X116500000Y-124750000D03*
%TO.N,B25*%
X115500000Y-126750000D03*
%TO.N,B26*%
X114500000Y-124750000D03*
%TO.N,B27*%
X113500000Y-126750000D03*
%TO.N,B28*%
X112500000Y-124750000D03*
%TO.N,B29*%
X111500000Y-126750000D03*
%TO.N,B30*%
X110500000Y-124750000D03*
%TO.N,B31*%
X109500000Y-126750000D03*
%TO.N,B32*%
X108500000Y-124750000D03*
%TO.N,B33*%
X107500000Y-126750000D03*
%TO.N,B34*%
X106500000Y-124750000D03*
%TO.N,B35*%
X105500000Y-126750000D03*
%TO.N,B36*%
X104500000Y-124750000D03*
%TO.N,B37*%
X103500000Y-126750000D03*
%TO.N,B38*%
X102500000Y-124750000D03*
%TO.N,B39*%
X101500000Y-126750000D03*
%TO.N,B40*%
X100500000Y-124750000D03*
%TO.N,B41*%
X99500000Y-126750000D03*
%TO.N,B42*%
X98500000Y-124750000D03*
%TO.N,B43*%
X97500000Y-126750000D03*
%TO.N,B44*%
X96500000Y-124750000D03*
%TO.N,B45*%
X95500000Y-126750000D03*
%TO.N,B46*%
X94500000Y-124750000D03*
%TO.N,B47*%
X93500000Y-126750000D03*
%TO.N,B48*%
X92500000Y-124750000D03*
%TO.N,B49*%
X91500000Y-126750000D03*
%TO.N,B50*%
X90500000Y-124750000D03*
%TO.N,B51*%
X89500000Y-126750000D03*
%TO.N,B52*%
X88500000Y-124750000D03*
%TO.N,B53*%
X87500000Y-126750000D03*
%TO.N,B54*%
X86500000Y-124750000D03*
%TO.N,B55*%
X85500000Y-126750000D03*
%TO.N,B56*%
X84500000Y-124750000D03*
%TO.N,B57*%
X83500000Y-126750000D03*
%TO.N,B58*%
X82500000Y-124750000D03*
%TO.N,B59*%
X81500000Y-126750000D03*
%TO.N,B60*%
X80500000Y-124750000D03*
%TO.N,B61*%
X79500000Y-126750000D03*
%TO.N,B62*%
X78500000Y-124750000D03*
%TO.N,B63*%
X77500000Y-126750000D03*
%TO.N,B64*%
X76500000Y-124750000D03*
%TO.N,B65*%
X75500000Y-126750000D03*
%TO.N,B66*%
X74500000Y-124750000D03*
%TO.N,B67*%
X73500000Y-126750000D03*
%TO.N,B68*%
X72500000Y-124750000D03*
%TO.N,B69*%
X71500000Y-126750000D03*
%TO.N,B70*%
X70500000Y-124750000D03*
%TO.N,B71*%
X69500000Y-126750000D03*
%TO.N,B72*%
X68500000Y-124750000D03*
%TO.N,B73*%
X67500000Y-126750000D03*
%TO.N,B74*%
X66500000Y-124750000D03*
%TO.N,B75*%
X65500000Y-126750000D03*
%TO.N,B76*%
X64500000Y-124750000D03*
%TO.N,B77*%
X63500000Y-126750000D03*
%TO.N,B78*%
X62500000Y-124750000D03*
%TO.N,B79*%
X61500000Y-126750000D03*
%TO.N,B80*%
X60500000Y-124750000D03*
%TO.N,B81*%
X59500000Y-126750000D03*
%TO.N,B82*%
X58500000Y-124750000D03*
%TD*%
D12*
%TO.N,*%
%TO.C,CN5*%
X129850000Y-102000000D03*
X56700000Y-102000000D03*
D13*
%TO.N,A1*%
X141500000Y-103250000D03*
%TO.N,A2*%
X140500000Y-105250000D03*
%TO.N,A3*%
X139500000Y-103250000D03*
%TO.N,A4*%
X138500000Y-105250000D03*
%TO.N,A5*%
X137500000Y-103250000D03*
%TO.N,A6*%
X136500000Y-105250000D03*
%TO.N,A7*%
X135500000Y-103250000D03*
%TO.N,A8*%
X134500000Y-105250000D03*
%TO.N,A9*%
X133500000Y-103250000D03*
%TO.N,A10*%
X132500000Y-105250000D03*
%TO.N,A11*%
X131500000Y-103250000D03*
%TO.N,A12*%
X128500000Y-105250000D03*
%TO.N,A13*%
X127500000Y-103250000D03*
%TO.N,A14*%
X126500000Y-105250000D03*
%TO.N,A15*%
X125500000Y-103250000D03*
%TO.N,A16*%
X124500000Y-105250000D03*
%TO.N,A17*%
X123500000Y-103250000D03*
%TO.N,A18*%
X122500000Y-105250000D03*
%TO.N,A19*%
X121500000Y-103250000D03*
%TO.N,A20*%
X120500000Y-105250000D03*
%TO.N,A21*%
X119500000Y-103250000D03*
%TO.N,A22*%
X118500000Y-105250000D03*
%TO.N,A23*%
X117500000Y-103250000D03*
%TO.N,A24*%
X116500000Y-105250000D03*
%TO.N,A25*%
X115500000Y-103250000D03*
%TO.N,A26*%
X114500000Y-105250000D03*
%TO.N,A27*%
X113500000Y-103250000D03*
%TO.N,A28*%
X112500000Y-105250000D03*
%TO.N,A29*%
X111500000Y-103250000D03*
%TO.N,A30*%
X110500000Y-105250000D03*
%TO.N,A31*%
X109500000Y-103250000D03*
%TO.N,A32*%
X108500000Y-105250000D03*
%TO.N,A33*%
X107500000Y-103250000D03*
%TO.N,A34*%
X106500000Y-105250000D03*
%TO.N,A35*%
X105500000Y-103250000D03*
%TO.N,A36*%
X104500000Y-105250000D03*
%TO.N,A37*%
X103500000Y-103250000D03*
%TO.N,A38*%
X102500000Y-105250000D03*
%TO.N,A39*%
X101500000Y-103250000D03*
%TO.N,A40*%
X100500000Y-105250000D03*
%TO.N,A41*%
X99500000Y-103250000D03*
%TO.N,A42*%
X98500000Y-105250000D03*
%TO.N,A43*%
X97500000Y-103250000D03*
%TO.N,A44*%
X96500000Y-105250000D03*
%TO.N,A45*%
X95500000Y-103250000D03*
%TO.N,A46*%
X94500000Y-105250000D03*
%TO.N,A47*%
X93500000Y-103250000D03*
%TO.N,A48*%
X92500000Y-105250000D03*
%TO.N,A49*%
X91500000Y-103250000D03*
%TO.N,A50*%
X90500000Y-105250000D03*
%TO.N,A51*%
X89500000Y-103250000D03*
%TO.N,A52*%
X88500000Y-105250000D03*
%TO.N,A53*%
X87500000Y-103250000D03*
%TO.N,A54*%
X86500000Y-105250000D03*
%TO.N,A55*%
X85500000Y-103250000D03*
%TO.N,A56*%
X84500000Y-105250000D03*
%TO.N,A57*%
X83500000Y-103250000D03*
%TO.N,A58*%
X82500000Y-105250000D03*
%TO.N,A59*%
X81500000Y-103250000D03*
%TO.N,A60*%
X80500000Y-105250000D03*
%TO.N,A61*%
X79500000Y-103250000D03*
%TO.N,A62*%
X78500000Y-105250000D03*
%TO.N,A63*%
X77500000Y-103250000D03*
%TO.N,A64*%
X76500000Y-105250000D03*
%TO.N,A65*%
X75500000Y-103250000D03*
%TO.N,A66*%
X74500000Y-105250000D03*
%TO.N,A67*%
X73500000Y-103250000D03*
%TO.N,A68*%
X72500000Y-105250000D03*
%TO.N,A69*%
X71500000Y-103250000D03*
%TO.N,A70*%
X70500000Y-105250000D03*
%TO.N,A71*%
X69500000Y-103250000D03*
%TO.N,A72*%
X68500000Y-105250000D03*
%TO.N,A73*%
X67500000Y-103250000D03*
%TO.N,A74*%
X66500000Y-105250000D03*
%TO.N,A75*%
X65500000Y-103250000D03*
%TO.N,A76*%
X64500000Y-105250000D03*
%TO.N,A77*%
X63500000Y-103250000D03*
%TO.N,A78*%
X62500000Y-105250000D03*
%TO.N,A79*%
X61500000Y-103250000D03*
%TO.N,A80*%
X60500000Y-105250000D03*
%TO.N,A81*%
X59500000Y-103250000D03*
%TO.N,A82*%
X58500000Y-105250000D03*
%TO.N,B1*%
X141500000Y-100750000D03*
%TO.N,B2*%
X140500000Y-98750000D03*
%TO.N,B3*%
X139500000Y-100750000D03*
%TO.N,B4*%
X138500000Y-98750000D03*
%TO.N,B5*%
X137500000Y-100750000D03*
%TO.N,B6*%
X136500000Y-98750000D03*
%TO.N,B7*%
X135500000Y-100750000D03*
%TO.N,B8*%
X134500000Y-98750000D03*
%TO.N,B9*%
X133500000Y-100750000D03*
%TO.N,B10*%
X132500000Y-98750000D03*
%TO.N,B11*%
X131500000Y-100750000D03*
%TO.N,B12*%
X128500000Y-98750000D03*
%TO.N,B13*%
X127500000Y-100750000D03*
%TO.N,B14*%
X126500000Y-98750000D03*
%TO.N,B15*%
X125500000Y-100750000D03*
%TO.N,B16*%
X124500000Y-98750000D03*
%TO.N,B17*%
X123500000Y-100750000D03*
%TO.N,B18*%
X122500000Y-98750000D03*
%TO.N,B19*%
X121500000Y-100750000D03*
%TO.N,B20*%
X120500000Y-98750000D03*
%TO.N,B21*%
X119500000Y-100750000D03*
%TO.N,B22*%
X118500000Y-98750000D03*
%TO.N,B23*%
X117500000Y-100750000D03*
%TO.N,B24*%
X116500000Y-98750000D03*
%TO.N,B25*%
X115500000Y-100750000D03*
%TO.N,B26*%
X114500000Y-98750000D03*
%TO.N,B27*%
X113500000Y-100750000D03*
%TO.N,B28*%
X112500000Y-98750000D03*
%TO.N,B29*%
X111500000Y-100750000D03*
%TO.N,B30*%
X110500000Y-98750000D03*
%TO.N,B31*%
X109500000Y-100750000D03*
%TO.N,B32*%
X108500000Y-98750000D03*
%TO.N,B33*%
X107500000Y-100750000D03*
%TO.N,B34*%
X106500000Y-98750000D03*
%TO.N,B35*%
X105500000Y-100750000D03*
%TO.N,B36*%
X104500000Y-98750000D03*
%TO.N,B37*%
X103500000Y-100750000D03*
%TO.N,B38*%
X102500000Y-98750000D03*
%TO.N,B39*%
X101500000Y-100750000D03*
%TO.N,B40*%
X100500000Y-98750000D03*
%TO.N,B41*%
X99500000Y-100750000D03*
%TO.N,B42*%
X98500000Y-98750000D03*
%TO.N,B43*%
X97500000Y-100750000D03*
%TO.N,B44*%
X96500000Y-98750000D03*
%TO.N,B45*%
X95500000Y-100750000D03*
%TO.N,B46*%
X94500000Y-98750000D03*
%TO.N,B47*%
X93500000Y-100750000D03*
%TO.N,B48*%
X92500000Y-98750000D03*
%TO.N,B49*%
X91500000Y-100750000D03*
%TO.N,B50*%
X90500000Y-98750000D03*
%TO.N,B51*%
X89500000Y-100750000D03*
%TO.N,B52*%
X88500000Y-98750000D03*
%TO.N,B53*%
X87500000Y-100750000D03*
%TO.N,B54*%
X86500000Y-98750000D03*
%TO.N,B55*%
X85500000Y-100750000D03*
%TO.N,B56*%
X84500000Y-98750000D03*
%TO.N,B57*%
X83500000Y-100750000D03*
%TO.N,B58*%
X82500000Y-98750000D03*
%TO.N,B59*%
X81500000Y-100750000D03*
%TO.N,B60*%
X80500000Y-98750000D03*
%TO.N,B61*%
X79500000Y-100750000D03*
%TO.N,B62*%
X78500000Y-98750000D03*
%TO.N,B63*%
X77500000Y-100750000D03*
%TO.N,B64*%
X76500000Y-98750000D03*
%TO.N,B65*%
X75500000Y-100750000D03*
%TO.N,B66*%
X74500000Y-98750000D03*
%TO.N,B67*%
X73500000Y-100750000D03*
%TO.N,B68*%
X72500000Y-98750000D03*
%TO.N,B69*%
X71500000Y-100750000D03*
%TO.N,B70*%
X70500000Y-98750000D03*
%TO.N,B71*%
X69500000Y-100750000D03*
%TO.N,B72*%
X68500000Y-98750000D03*
%TO.N,B73*%
X67500000Y-100750000D03*
%TO.N,B74*%
X66500000Y-98750000D03*
%TO.N,B75*%
X65500000Y-100750000D03*
%TO.N,B76*%
X64500000Y-98750000D03*
%TO.N,B77*%
X63500000Y-100750000D03*
%TO.N,B78*%
X62500000Y-98750000D03*
%TO.N,B79*%
X61500000Y-100750000D03*
%TO.N,B80*%
X60500000Y-98750000D03*
%TO.N,B81*%
X59500000Y-100750000D03*
%TO.N,B82*%
X58500000Y-98750000D03*
%TD*%
D12*
%TO.N,*%
%TO.C,CN1*%
X129850000Y-50000000D03*
X56700000Y-50000000D03*
D13*
%TO.N,A1*%
X141500000Y-51250000D03*
%TO.N,A2*%
X140500000Y-53250000D03*
%TO.N,A3*%
X139500000Y-51250000D03*
%TO.N,A4*%
X138500000Y-53250000D03*
%TO.N,A5*%
X137500000Y-51250000D03*
%TO.N,A6*%
X136500000Y-53250000D03*
%TO.N,A7*%
X135500000Y-51250000D03*
%TO.N,A8*%
X134500000Y-53250000D03*
%TO.N,A9*%
X133500000Y-51250000D03*
%TO.N,A10*%
X132500000Y-53250000D03*
%TO.N,A11*%
X131500000Y-51250000D03*
%TO.N,A12*%
X128500000Y-53250000D03*
%TO.N,A13*%
X127500000Y-51250000D03*
%TO.N,A14*%
X126500000Y-53250000D03*
%TO.N,A15*%
X125500000Y-51250000D03*
%TO.N,A16*%
X124500000Y-53250000D03*
%TO.N,A17*%
X123500000Y-51250000D03*
%TO.N,A18*%
X122500000Y-53250000D03*
%TO.N,A19*%
X121500000Y-51250000D03*
%TO.N,A20*%
X120500000Y-53250000D03*
%TO.N,A21*%
X119500000Y-51250000D03*
%TO.N,A22*%
X118500000Y-53250000D03*
%TO.N,A23*%
X117500000Y-51250000D03*
%TO.N,A24*%
X116500000Y-53250000D03*
%TO.N,A25*%
X115500000Y-51250000D03*
%TO.N,A26*%
X114500000Y-53250000D03*
%TO.N,A27*%
X113500000Y-51250000D03*
%TO.N,A28*%
X112500000Y-53250000D03*
%TO.N,A29*%
X111500000Y-51250000D03*
%TO.N,A30*%
X110500000Y-53250000D03*
%TO.N,A31*%
X109500000Y-51250000D03*
%TO.N,A32*%
X108500000Y-53250000D03*
%TO.N,A33*%
X107500000Y-51250000D03*
%TO.N,A34*%
X106500000Y-53250000D03*
%TO.N,A35*%
X105500000Y-51250000D03*
%TO.N,A36*%
X104500000Y-53250000D03*
%TO.N,A37*%
X103500000Y-51250000D03*
%TO.N,A38*%
X102500000Y-53250000D03*
%TO.N,A39*%
X101500000Y-51250000D03*
%TO.N,A40*%
X100500000Y-53250000D03*
%TO.N,A41*%
X99500000Y-51250000D03*
%TO.N,A42*%
X98500000Y-53250000D03*
%TO.N,A43*%
X97500000Y-51250000D03*
%TO.N,A44*%
X96500000Y-53250000D03*
%TO.N,A45*%
X95500000Y-51250000D03*
%TO.N,A46*%
X94500000Y-53250000D03*
%TO.N,A47*%
X93500000Y-51250000D03*
%TO.N,A48*%
X92500000Y-53250000D03*
%TO.N,A49*%
X91500000Y-51250000D03*
%TO.N,A50*%
X90500000Y-53250000D03*
%TO.N,A51*%
X89500000Y-51250000D03*
%TO.N,A52*%
X88500000Y-53250000D03*
%TO.N,A53*%
X87500000Y-51250000D03*
%TO.N,A54*%
X86500000Y-53250000D03*
%TO.N,A55*%
X85500000Y-51250000D03*
%TO.N,A56*%
X84500000Y-53250000D03*
%TO.N,A57*%
X83500000Y-51250000D03*
%TO.N,A58*%
X82500000Y-53250000D03*
%TO.N,A59*%
X81500000Y-51250000D03*
%TO.N,A60*%
X80500000Y-53250000D03*
%TO.N,A61*%
X79500000Y-51250000D03*
%TO.N,A62*%
X78500000Y-53250000D03*
%TO.N,A63*%
X77500000Y-51250000D03*
%TO.N,A64*%
X76500000Y-53250000D03*
%TO.N,A65*%
X75500000Y-51250000D03*
%TO.N,A66*%
X74500000Y-53250000D03*
%TO.N,A67*%
X73500000Y-51250000D03*
%TO.N,A68*%
X72500000Y-53250000D03*
%TO.N,A69*%
X71500000Y-51250000D03*
%TO.N,A70*%
X70500000Y-53250000D03*
%TO.N,A71*%
X69500000Y-51250000D03*
%TO.N,A72*%
X68500000Y-53250000D03*
%TO.N,A73*%
X67500000Y-51250000D03*
%TO.N,A74*%
X66500000Y-53250000D03*
%TO.N,A75*%
X65500000Y-51250000D03*
%TO.N,A76*%
X64500000Y-53250000D03*
%TO.N,A77*%
X63500000Y-51250000D03*
%TO.N,A78*%
X62500000Y-53250000D03*
%TO.N,A79*%
X61500000Y-51250000D03*
%TO.N,A80*%
X60500000Y-53250000D03*
%TO.N,A81*%
X59500000Y-51250000D03*
%TO.N,A82*%
X58500000Y-53250000D03*
%TO.N,B1*%
X141500000Y-48750000D03*
%TO.N,B2*%
X140500000Y-46750000D03*
%TO.N,B3*%
X139500000Y-48750000D03*
%TO.N,B4*%
X138500000Y-46750000D03*
%TO.N,B5*%
X137500000Y-48750000D03*
%TO.N,B6*%
X136500000Y-46750000D03*
%TO.N,B7*%
X135500000Y-48750000D03*
%TO.N,B8*%
X134500000Y-46750000D03*
%TO.N,B9*%
X133500000Y-48750000D03*
%TO.N,B10*%
X132500000Y-46750000D03*
%TO.N,B11*%
X131500000Y-48750000D03*
%TO.N,B12*%
X128500000Y-46750000D03*
%TO.N,B13*%
X127500000Y-48750000D03*
%TO.N,B14*%
X126500000Y-46750000D03*
%TO.N,B15*%
X125500000Y-48750000D03*
%TO.N,B16*%
X124500000Y-46750000D03*
%TO.N,B17*%
X123500000Y-48750000D03*
%TO.N,B18*%
X122500000Y-46750000D03*
%TO.N,B19*%
X121500000Y-48750000D03*
%TO.N,B20*%
X120500000Y-46750000D03*
%TO.N,B21*%
X119500000Y-48750000D03*
%TO.N,B22*%
X118500000Y-46750000D03*
%TO.N,B23*%
X117500000Y-48750000D03*
%TO.N,B24*%
X116500000Y-46750000D03*
%TO.N,B25*%
X115500000Y-48750000D03*
%TO.N,B26*%
X114500000Y-46750000D03*
%TO.N,B27*%
X113500000Y-48750000D03*
%TO.N,B28*%
X112500000Y-46750000D03*
%TO.N,B29*%
X111500000Y-48750000D03*
%TO.N,B30*%
X110500000Y-46750000D03*
%TO.N,B31*%
X109500000Y-48750000D03*
%TO.N,B32*%
X108500000Y-46750000D03*
%TO.N,B33*%
X107500000Y-48750000D03*
%TO.N,B34*%
X106500000Y-46750000D03*
%TO.N,B35*%
X105500000Y-48750000D03*
%TO.N,B36*%
X104500000Y-46750000D03*
%TO.N,B37*%
X103500000Y-48750000D03*
%TO.N,B38*%
X102500000Y-46750000D03*
%TO.N,B39*%
X101500000Y-48750000D03*
%TO.N,B40*%
X100500000Y-46750000D03*
%TO.N,B41*%
X99500000Y-48750000D03*
%TO.N,B42*%
X98500000Y-46750000D03*
%TO.N,B43*%
X97500000Y-48750000D03*
%TO.N,B44*%
X96500000Y-46750000D03*
%TO.N,B45*%
X95500000Y-48750000D03*
%TO.N,B46*%
X94500000Y-46750000D03*
%TO.N,B47*%
X93500000Y-48750000D03*
%TO.N,B48*%
X92500000Y-46750000D03*
%TO.N,B49*%
X91500000Y-48750000D03*
%TO.N,B50*%
X90500000Y-46750000D03*
%TO.N,B51*%
X89500000Y-48750000D03*
%TO.N,B52*%
X88500000Y-46750000D03*
%TO.N,B53*%
X87500000Y-48750000D03*
%TO.N,B54*%
X86500000Y-46750000D03*
%TO.N,B55*%
X85500000Y-48750000D03*
%TO.N,B56*%
X84500000Y-46750000D03*
%TO.N,B57*%
X83500000Y-48750000D03*
%TO.N,B58*%
X82500000Y-46750000D03*
%TO.N,B59*%
X81500000Y-48750000D03*
%TO.N,B60*%
X80500000Y-46750000D03*
%TO.N,B61*%
X79500000Y-48750000D03*
%TO.N,B62*%
X78500000Y-46750000D03*
%TO.N,B63*%
X77500000Y-48750000D03*
%TO.N,B64*%
X76500000Y-46750000D03*
%TO.N,B65*%
X75500000Y-48750000D03*
%TO.N,B66*%
X74500000Y-46750000D03*
%TO.N,B67*%
X73500000Y-48750000D03*
%TO.N,B68*%
X72500000Y-46750000D03*
%TO.N,B69*%
X71500000Y-48750000D03*
%TO.N,B70*%
X70500000Y-46750000D03*
%TO.N,B71*%
X69500000Y-48750000D03*
%TO.N,B72*%
X68500000Y-46750000D03*
%TO.N,B73*%
X67500000Y-48750000D03*
%TO.N,B74*%
X66500000Y-46750000D03*
%TO.N,B75*%
X65500000Y-48750000D03*
%TO.N,B76*%
X64500000Y-46750000D03*
%TO.N,B77*%
X63500000Y-48750000D03*
%TO.N,B78*%
X62500000Y-46750000D03*
%TO.N,B79*%
X61500000Y-48750000D03*
%TO.N,B80*%
X60500000Y-46750000D03*
%TO.N,B81*%
X59500000Y-48750000D03*
%TO.N,B82*%
X58500000Y-46750000D03*
%TD*%
D10*
%TO.N,N/C*%
%TO.C,H4*%
X144600000Y-95552944D03*
X145302944Y-93855888D03*
X145302944Y-97250000D03*
X147000000Y-93152944D03*
D11*
X147000000Y-95552944D03*
D10*
X147000000Y-97952944D03*
X148697056Y-93855888D03*
X148697056Y-97250000D03*
X149400000Y-95552944D03*
%TD*%
D12*
%TO.N,*%
%TO.C,CN4*%
X129850000Y-89000000D03*
X56700000Y-89000000D03*
D13*
%TO.N,A1*%
X141500000Y-90250000D03*
%TO.N,A2*%
X140500000Y-92250000D03*
%TO.N,A3*%
X139500000Y-90250000D03*
%TO.N,A4*%
X138500000Y-92250000D03*
%TO.N,A5*%
X137500000Y-90250000D03*
%TO.N,A6*%
X136500000Y-92250000D03*
%TO.N,A7*%
X135500000Y-90250000D03*
%TO.N,A8*%
X134500000Y-92250000D03*
%TO.N,A9*%
X133500000Y-90250000D03*
%TO.N,A10*%
X132500000Y-92250000D03*
%TO.N,A11*%
X131500000Y-90250000D03*
%TO.N,A12*%
X128500000Y-92250000D03*
%TO.N,A13*%
X127500000Y-90250000D03*
%TO.N,A14*%
X126500000Y-92250000D03*
%TO.N,A15*%
X125500000Y-90250000D03*
%TO.N,A16*%
X124500000Y-92250000D03*
%TO.N,A17*%
X123500000Y-90250000D03*
%TO.N,A18*%
X122500000Y-92250000D03*
%TO.N,A19*%
X121500000Y-90250000D03*
%TO.N,A20*%
X120500000Y-92250000D03*
%TO.N,A21*%
X119500000Y-90250000D03*
%TO.N,A22*%
X118500000Y-92250000D03*
%TO.N,A23*%
X117500000Y-90250000D03*
%TO.N,A24*%
X116500000Y-92250000D03*
%TO.N,A25*%
X115500000Y-90250000D03*
%TO.N,A26*%
X114500000Y-92250000D03*
%TO.N,A27*%
X113500000Y-90250000D03*
%TO.N,A28*%
X112500000Y-92250000D03*
%TO.N,A29*%
X111500000Y-90250000D03*
%TO.N,A30*%
X110500000Y-92250000D03*
%TO.N,A31*%
X109500000Y-90250000D03*
%TO.N,A32*%
X108500000Y-92250000D03*
%TO.N,A33*%
X107500000Y-90250000D03*
%TO.N,A34*%
X106500000Y-92250000D03*
%TO.N,A35*%
X105500000Y-90250000D03*
%TO.N,A36*%
X104500000Y-92250000D03*
%TO.N,A37*%
X103500000Y-90250000D03*
%TO.N,A38*%
X102500000Y-92250000D03*
%TO.N,A39*%
X101500000Y-90250000D03*
%TO.N,A40*%
X100500000Y-92250000D03*
%TO.N,A41*%
X99500000Y-90250000D03*
%TO.N,A42*%
X98500000Y-92250000D03*
%TO.N,A43*%
X97500000Y-90250000D03*
%TO.N,A44*%
X96500000Y-92250000D03*
%TO.N,A45*%
X95500000Y-90250000D03*
%TO.N,A46*%
X94500000Y-92250000D03*
%TO.N,A47*%
X93500000Y-90250000D03*
%TO.N,A48*%
X92500000Y-92250000D03*
%TO.N,A49*%
X91500000Y-90250000D03*
%TO.N,A50*%
X90500000Y-92250000D03*
%TO.N,A51*%
X89500000Y-90250000D03*
%TO.N,A52*%
X88500000Y-92250000D03*
%TO.N,A53*%
X87500000Y-90250000D03*
%TO.N,A54*%
X86500000Y-92250000D03*
%TO.N,A55*%
X85500000Y-90250000D03*
%TO.N,A56*%
X84500000Y-92250000D03*
%TO.N,A57*%
X83500000Y-90250000D03*
%TO.N,A58*%
X82500000Y-92250000D03*
%TO.N,A59*%
X81500000Y-90250000D03*
%TO.N,A60*%
X80500000Y-92250000D03*
%TO.N,A61*%
X79500000Y-90250000D03*
%TO.N,A62*%
X78500000Y-92250000D03*
%TO.N,A63*%
X77500000Y-90250000D03*
%TO.N,A64*%
X76500000Y-92250000D03*
%TO.N,A65*%
X75500000Y-90250000D03*
%TO.N,A66*%
X74500000Y-92250000D03*
%TO.N,A67*%
X73500000Y-90250000D03*
%TO.N,A68*%
X72500000Y-92250000D03*
%TO.N,A69*%
X71500000Y-90250000D03*
%TO.N,A70*%
X70500000Y-92250000D03*
%TO.N,A71*%
X69500000Y-90250000D03*
%TO.N,A72*%
X68500000Y-92250000D03*
%TO.N,A73*%
X67500000Y-90250000D03*
%TO.N,A74*%
X66500000Y-92250000D03*
%TO.N,A75*%
X65500000Y-90250000D03*
%TO.N,A76*%
X64500000Y-92250000D03*
%TO.N,A77*%
X63500000Y-90250000D03*
%TO.N,A78*%
X62500000Y-92250000D03*
%TO.N,A79*%
X61500000Y-90250000D03*
%TO.N,A80*%
X60500000Y-92250000D03*
%TO.N,A81*%
X59500000Y-90250000D03*
%TO.N,A82*%
X58500000Y-92250000D03*
%TO.N,B1*%
X141500000Y-87750000D03*
%TO.N,B2*%
X140500000Y-85750000D03*
%TO.N,B3*%
X139500000Y-87750000D03*
%TO.N,B4*%
X138500000Y-85750000D03*
%TO.N,B5*%
X137500000Y-87750000D03*
%TO.N,B6*%
X136500000Y-85750000D03*
%TO.N,B7*%
X135500000Y-87750000D03*
%TO.N,B8*%
X134500000Y-85750000D03*
%TO.N,B9*%
X133500000Y-87750000D03*
%TO.N,B10*%
X132500000Y-85750000D03*
%TO.N,B11*%
X131500000Y-87750000D03*
%TO.N,B12*%
X128500000Y-85750000D03*
%TO.N,B13*%
X127500000Y-87750000D03*
%TO.N,B14*%
X126500000Y-85750000D03*
%TO.N,B15*%
X125500000Y-87750000D03*
%TO.N,B16*%
X124500000Y-85750000D03*
%TO.N,B17*%
X123500000Y-87750000D03*
%TO.N,B18*%
X122500000Y-85750000D03*
%TO.N,B19*%
X121500000Y-87750000D03*
%TO.N,B20*%
X120500000Y-85750000D03*
%TO.N,B21*%
X119500000Y-87750000D03*
%TO.N,B22*%
X118500000Y-85750000D03*
%TO.N,B23*%
X117500000Y-87750000D03*
%TO.N,B24*%
X116500000Y-85750000D03*
%TO.N,B25*%
X115500000Y-87750000D03*
%TO.N,B26*%
X114500000Y-85750000D03*
%TO.N,B27*%
X113500000Y-87750000D03*
%TO.N,B28*%
X112500000Y-85750000D03*
%TO.N,B29*%
X111500000Y-87750000D03*
%TO.N,B30*%
X110500000Y-85750000D03*
%TO.N,B31*%
X109500000Y-87750000D03*
%TO.N,B32*%
X108500000Y-85750000D03*
%TO.N,B33*%
X107500000Y-87750000D03*
%TO.N,B34*%
X106500000Y-85750000D03*
%TO.N,B35*%
X105500000Y-87750000D03*
%TO.N,B36*%
X104500000Y-85750000D03*
%TO.N,B37*%
X103500000Y-87750000D03*
%TO.N,B38*%
X102500000Y-85750000D03*
%TO.N,B39*%
X101500000Y-87750000D03*
%TO.N,B40*%
X100500000Y-85750000D03*
%TO.N,B41*%
X99500000Y-87750000D03*
%TO.N,B42*%
X98500000Y-85750000D03*
%TO.N,B43*%
X97500000Y-87750000D03*
%TO.N,B44*%
X96500000Y-85750000D03*
%TO.N,B45*%
X95500000Y-87750000D03*
%TO.N,B46*%
X94500000Y-85750000D03*
%TO.N,B47*%
X93500000Y-87750000D03*
%TO.N,B48*%
X92500000Y-85750000D03*
%TO.N,B49*%
X91500000Y-87750000D03*
%TO.N,B50*%
X90500000Y-85750000D03*
%TO.N,B51*%
X89500000Y-87750000D03*
%TO.N,B52*%
X88500000Y-85750000D03*
%TO.N,B53*%
X87500000Y-87750000D03*
%TO.N,B54*%
X86500000Y-85750000D03*
%TO.N,B55*%
X85500000Y-87750000D03*
%TO.N,B56*%
X84500000Y-85750000D03*
%TO.N,B57*%
X83500000Y-87750000D03*
%TO.N,B58*%
X82500000Y-85750000D03*
%TO.N,B59*%
X81500000Y-87750000D03*
%TO.N,B60*%
X80500000Y-85750000D03*
%TO.N,B61*%
X79500000Y-87750000D03*
%TO.N,B62*%
X78500000Y-85750000D03*
%TO.N,B63*%
X77500000Y-87750000D03*
%TO.N,B64*%
X76500000Y-85750000D03*
%TO.N,B65*%
X75500000Y-87750000D03*
%TO.N,B66*%
X74500000Y-85750000D03*
%TO.N,B67*%
X73500000Y-87750000D03*
%TO.N,B68*%
X72500000Y-85750000D03*
%TO.N,B69*%
X71500000Y-87750000D03*
%TO.N,B70*%
X70500000Y-85750000D03*
%TO.N,B71*%
X69500000Y-87750000D03*
%TO.N,B72*%
X68500000Y-85750000D03*
%TO.N,B73*%
X67500000Y-87750000D03*
%TO.N,B74*%
X66500000Y-85750000D03*
%TO.N,B75*%
X65500000Y-87750000D03*
%TO.N,B76*%
X64500000Y-85750000D03*
%TO.N,B77*%
X63500000Y-87750000D03*
%TO.N,B78*%
X62500000Y-85750000D03*
%TO.N,B79*%
X61500000Y-87750000D03*
%TO.N,B80*%
X60500000Y-85750000D03*
%TO.N,B81*%
X59500000Y-87750000D03*
%TO.N,B82*%
X58500000Y-85750000D03*
%TD*%
D10*
%TO.N,N/C*%
%TO.C,H2*%
X50600000Y-95552944D03*
X51302944Y-93855888D03*
X51302944Y-97250000D03*
X53000000Y-93152944D03*
D11*
X53000000Y-95552944D03*
D10*
X53000000Y-97952944D03*
X54697056Y-93855888D03*
X54697056Y-97250000D03*
X55400000Y-95552944D03*
%TD*%
D12*
%TO.N,*%
%TO.C,CN3*%
X129850000Y-76000000D03*
X56700000Y-76000000D03*
D13*
%TO.N,A1*%
X141500000Y-77250000D03*
%TO.N,A2*%
X140500000Y-79250000D03*
%TO.N,A3*%
X139500000Y-77250000D03*
%TO.N,A4*%
X138500000Y-79250000D03*
%TO.N,A5*%
X137500000Y-77250000D03*
%TO.N,A6*%
X136500000Y-79250000D03*
%TO.N,A7*%
X135500000Y-77250000D03*
%TO.N,A8*%
X134500000Y-79250000D03*
%TO.N,A9*%
X133500000Y-77250000D03*
%TO.N,A10*%
X132500000Y-79250000D03*
%TO.N,A11*%
X131500000Y-77250000D03*
%TO.N,A12*%
X128500000Y-79250000D03*
%TO.N,A13*%
X127500000Y-77250000D03*
%TO.N,A14*%
X126500000Y-79250000D03*
%TO.N,A15*%
X125500000Y-77250000D03*
%TO.N,A16*%
X124500000Y-79250000D03*
%TO.N,A17*%
X123500000Y-77250000D03*
%TO.N,A18*%
X122500000Y-79250000D03*
%TO.N,A19*%
X121500000Y-77250000D03*
%TO.N,A20*%
X120500000Y-79250000D03*
%TO.N,A21*%
X119500000Y-77250000D03*
%TO.N,A22*%
X118500000Y-79250000D03*
%TO.N,A23*%
X117500000Y-77250000D03*
%TO.N,A24*%
X116500000Y-79250000D03*
%TO.N,A25*%
X115500000Y-77250000D03*
%TO.N,A26*%
X114500000Y-79250000D03*
%TO.N,A27*%
X113500000Y-77250000D03*
%TO.N,A28*%
X112500000Y-79250000D03*
%TO.N,A29*%
X111500000Y-77250000D03*
%TO.N,A30*%
X110500000Y-79250000D03*
%TO.N,A31*%
X109500000Y-77250000D03*
%TO.N,A32*%
X108500000Y-79250000D03*
%TO.N,A33*%
X107500000Y-77250000D03*
%TO.N,A34*%
X106500000Y-79250000D03*
%TO.N,A35*%
X105500000Y-77250000D03*
%TO.N,A36*%
X104500000Y-79250000D03*
%TO.N,A37*%
X103500000Y-77250000D03*
%TO.N,A38*%
X102500000Y-79250000D03*
%TO.N,A39*%
X101500000Y-77250000D03*
%TO.N,A40*%
X100500000Y-79250000D03*
%TO.N,A41*%
X99500000Y-77250000D03*
%TO.N,A42*%
X98500000Y-79250000D03*
%TO.N,A43*%
X97500000Y-77250000D03*
%TO.N,A44*%
X96500000Y-79250000D03*
%TO.N,A45*%
X95500000Y-77250000D03*
%TO.N,A46*%
X94500000Y-79250000D03*
%TO.N,A47*%
X93500000Y-77250000D03*
%TO.N,A48*%
X92500000Y-79250000D03*
%TO.N,A49*%
X91500000Y-77250000D03*
%TO.N,A50*%
X90500000Y-79250000D03*
%TO.N,A51*%
X89500000Y-77250000D03*
%TO.N,A52*%
X88500000Y-79250000D03*
%TO.N,A53*%
X87500000Y-77250000D03*
%TO.N,A54*%
X86500000Y-79250000D03*
%TO.N,A55*%
X85500000Y-77250000D03*
%TO.N,A56*%
X84500000Y-79250000D03*
%TO.N,A57*%
X83500000Y-77250000D03*
%TO.N,A58*%
X82500000Y-79250000D03*
%TO.N,A59*%
X81500000Y-77250000D03*
%TO.N,A60*%
X80500000Y-79250000D03*
%TO.N,A61*%
X79500000Y-77250000D03*
%TO.N,A62*%
X78500000Y-79250000D03*
%TO.N,A63*%
X77500000Y-77250000D03*
%TO.N,A64*%
X76500000Y-79250000D03*
%TO.N,A65*%
X75500000Y-77250000D03*
%TO.N,A66*%
X74500000Y-79250000D03*
%TO.N,A67*%
X73500000Y-77250000D03*
%TO.N,A68*%
X72500000Y-79250000D03*
%TO.N,A69*%
X71500000Y-77250000D03*
%TO.N,A70*%
X70500000Y-79250000D03*
%TO.N,A71*%
X69500000Y-77250000D03*
%TO.N,A72*%
X68500000Y-79250000D03*
%TO.N,A73*%
X67500000Y-77250000D03*
%TO.N,A74*%
X66500000Y-79250000D03*
%TO.N,A75*%
X65500000Y-77250000D03*
%TO.N,A76*%
X64500000Y-79250000D03*
%TO.N,A77*%
X63500000Y-77250000D03*
%TO.N,A78*%
X62500000Y-79250000D03*
%TO.N,A79*%
X61500000Y-77250000D03*
%TO.N,A80*%
X60500000Y-79250000D03*
%TO.N,A81*%
X59500000Y-77250000D03*
%TO.N,A82*%
X58500000Y-79250000D03*
%TO.N,B1*%
X141500000Y-74750000D03*
%TO.N,B2*%
X140500000Y-72750000D03*
%TO.N,B3*%
X139500000Y-74750000D03*
%TO.N,B4*%
X138500000Y-72750000D03*
%TO.N,B5*%
X137500000Y-74750000D03*
%TO.N,B6*%
X136500000Y-72750000D03*
%TO.N,B7*%
X135500000Y-74750000D03*
%TO.N,B8*%
X134500000Y-72750000D03*
%TO.N,B9*%
X133500000Y-74750000D03*
%TO.N,B10*%
X132500000Y-72750000D03*
%TO.N,B11*%
X131500000Y-74750000D03*
%TO.N,B12*%
X128500000Y-72750000D03*
%TO.N,B13*%
X127500000Y-74750000D03*
%TO.N,B14*%
X126500000Y-72750000D03*
%TO.N,B15*%
X125500000Y-74750000D03*
%TO.N,B16*%
X124500000Y-72750000D03*
%TO.N,B17*%
X123500000Y-74750000D03*
%TO.N,B18*%
X122500000Y-72750000D03*
%TO.N,B19*%
X121500000Y-74750000D03*
%TO.N,B20*%
X120500000Y-72750000D03*
%TO.N,B21*%
X119500000Y-74750000D03*
%TO.N,B22*%
X118500000Y-72750000D03*
%TO.N,B23*%
X117500000Y-74750000D03*
%TO.N,B24*%
X116500000Y-72750000D03*
%TO.N,B25*%
X115500000Y-74750000D03*
%TO.N,B26*%
X114500000Y-72750000D03*
%TO.N,B27*%
X113500000Y-74750000D03*
%TO.N,B28*%
X112500000Y-72750000D03*
%TO.N,B29*%
X111500000Y-74750000D03*
%TO.N,B30*%
X110500000Y-72750000D03*
%TO.N,B31*%
X109500000Y-74750000D03*
%TO.N,B32*%
X108500000Y-72750000D03*
%TO.N,B33*%
X107500000Y-74750000D03*
%TO.N,B34*%
X106500000Y-72750000D03*
%TO.N,B35*%
X105500000Y-74750000D03*
%TO.N,B36*%
X104500000Y-72750000D03*
%TO.N,B37*%
X103500000Y-74750000D03*
%TO.N,B38*%
X102500000Y-72750000D03*
%TO.N,B39*%
X101500000Y-74750000D03*
%TO.N,B40*%
X100500000Y-72750000D03*
%TO.N,B41*%
X99500000Y-74750000D03*
%TO.N,B42*%
X98500000Y-72750000D03*
%TO.N,B43*%
X97500000Y-74750000D03*
%TO.N,B44*%
X96500000Y-72750000D03*
%TO.N,B45*%
X95500000Y-74750000D03*
%TO.N,B46*%
X94500000Y-72750000D03*
%TO.N,B47*%
X93500000Y-74750000D03*
%TO.N,B48*%
X92500000Y-72750000D03*
%TO.N,B49*%
X91500000Y-74750000D03*
%TO.N,B50*%
X90500000Y-72750000D03*
%TO.N,B51*%
X89500000Y-74750000D03*
%TO.N,B52*%
X88500000Y-72750000D03*
%TO.N,B53*%
X87500000Y-74750000D03*
%TO.N,B54*%
X86500000Y-72750000D03*
%TO.N,B55*%
X85500000Y-74750000D03*
%TO.N,B56*%
X84500000Y-72750000D03*
%TO.N,B57*%
X83500000Y-74750000D03*
%TO.N,B58*%
X82500000Y-72750000D03*
%TO.N,B59*%
X81500000Y-74750000D03*
%TO.N,B60*%
X80500000Y-72750000D03*
%TO.N,B61*%
X79500000Y-74750000D03*
%TO.N,B62*%
X78500000Y-72750000D03*
%TO.N,B63*%
X77500000Y-74750000D03*
%TO.N,B64*%
X76500000Y-72750000D03*
%TO.N,B65*%
X75500000Y-74750000D03*
%TO.N,B66*%
X74500000Y-72750000D03*
%TO.N,B67*%
X73500000Y-74750000D03*
%TO.N,B68*%
X72500000Y-72750000D03*
%TO.N,B69*%
X71500000Y-74750000D03*
%TO.N,B70*%
X70500000Y-72750000D03*
%TO.N,B71*%
X69500000Y-74750000D03*
%TO.N,B72*%
X68500000Y-72750000D03*
%TO.N,B73*%
X67500000Y-74750000D03*
%TO.N,B74*%
X66500000Y-72750000D03*
%TO.N,B75*%
X65500000Y-74750000D03*
%TO.N,B76*%
X64500000Y-72750000D03*
%TO.N,B77*%
X63500000Y-74750000D03*
%TO.N,B78*%
X62500000Y-72750000D03*
%TO.N,B79*%
X61500000Y-74750000D03*
%TO.N,B80*%
X60500000Y-72750000D03*
%TO.N,B81*%
X59500000Y-74750000D03*
%TO.N,B82*%
X58500000Y-72750000D03*
%TD*%
D14*
%TO.N,A75*%
X65500000Y-51250000D02*
X65500000Y-60250000D01*
X64500000Y-74123459D02*
X64500000Y-76221459D01*
X65451000Y-64172459D02*
X65451000Y-73172459D01*
X65451000Y-73172459D02*
X64500000Y-74123459D01*
X65451000Y-86172459D02*
X64500000Y-87123459D01*
X65451000Y-77172459D02*
X65451000Y-86172459D01*
X64549000Y-63299000D02*
X65500000Y-64250000D01*
X65451000Y-125172459D02*
X64500000Y-126123459D01*
X65451000Y-103172459D02*
X65451000Y-112172459D01*
X64500000Y-113123459D02*
X64500000Y-115221459D01*
X64500000Y-89221459D02*
X65451000Y-90172459D01*
X64500000Y-76221459D02*
X65451000Y-77172459D01*
X65500000Y-60250000D02*
X64549000Y-61201000D01*
X64500000Y-126123459D02*
X64500000Y-128221459D01*
X65451000Y-90172459D02*
X65451000Y-99172459D01*
X65451000Y-116172459D02*
X65451000Y-125172459D01*
X64500000Y-128221459D02*
X65451000Y-129172459D01*
X64500000Y-100123459D02*
X64500000Y-102221459D01*
X64549000Y-61201000D02*
X64549000Y-63299000D01*
X64500000Y-87123459D02*
X64500000Y-89221459D01*
X64500000Y-102221459D02*
X65451000Y-103172459D01*
X65451000Y-99172459D02*
X64500000Y-100123459D01*
X65451000Y-112172459D02*
X64500000Y-113123459D01*
X64500000Y-115221459D02*
X65451000Y-116172459D01*
%TO.N,A7*%
X136451000Y-100123459D02*
X136451000Y-102221459D01*
X136451000Y-61201000D02*
X136451000Y-63299000D01*
X136451000Y-89221459D02*
X135500000Y-90172459D01*
X136451000Y-87123459D02*
X136451000Y-89221459D01*
X136451000Y-113123459D02*
X136451000Y-115221459D01*
X135500000Y-86172459D02*
X136451000Y-87123459D01*
X135500000Y-116172459D02*
X135500000Y-125172459D01*
X135500000Y-64172459D02*
X135500000Y-73172459D01*
X135500000Y-103172459D02*
X135500000Y-112172459D01*
X136451000Y-63299000D02*
X135500000Y-64250000D01*
X135500000Y-112172459D02*
X136451000Y-113123459D01*
X135500000Y-73172459D02*
X136451000Y-74123459D01*
X136451000Y-102221459D02*
X135500000Y-103172459D01*
X136451000Y-76221459D02*
X135500000Y-77172459D01*
X135500000Y-60250000D02*
X136451000Y-61201000D01*
X135500000Y-51250000D02*
X135500000Y-60250000D01*
X135500000Y-77172459D02*
X135500000Y-86172459D01*
X135500000Y-99172459D02*
X136451000Y-100123459D01*
X136451000Y-115221459D02*
X135500000Y-116172459D01*
X136451000Y-74123459D02*
X136451000Y-76221459D01*
X135500000Y-125172459D02*
X136451000Y-126123459D01*
X135500000Y-90172459D02*
X135500000Y-99172459D01*
X136451000Y-128221459D02*
X135500000Y-129172459D01*
X136451000Y-126123459D02*
X136451000Y-128221459D01*
%TO.N,A45*%
X94500000Y-113278541D02*
X94500000Y-115221459D01*
X94549000Y-63299000D02*
X95500000Y-64250000D01*
X94500000Y-102221459D02*
X95451000Y-103172459D01*
X95451000Y-116172459D02*
X95451000Y-125327541D01*
X94500000Y-76221459D02*
X95451000Y-77172459D01*
X95451000Y-73327541D02*
X94500000Y-74278541D01*
X94500000Y-89221459D02*
X95451000Y-90172459D01*
X95451000Y-103172459D02*
X95451000Y-112327541D01*
X95451000Y-99327541D02*
X94500000Y-100278541D01*
X95451000Y-125327541D02*
X94500000Y-126278541D01*
X94500000Y-128221459D02*
X95451000Y-129172459D01*
X95451000Y-86327541D02*
X94500000Y-87278541D01*
X95451000Y-112327541D02*
X94500000Y-113278541D01*
X94549000Y-61356082D02*
X94549000Y-63299000D01*
X95451000Y-77172459D02*
X95451000Y-86327541D01*
X95500000Y-51250000D02*
X95500000Y-60405082D01*
X94500000Y-126278541D02*
X94500000Y-128221459D01*
X94500000Y-115221459D02*
X95451000Y-116172459D01*
X94500000Y-87278541D02*
X94500000Y-89221459D01*
X94500000Y-100278541D02*
X94500000Y-102221459D01*
X95451000Y-90172459D02*
X95451000Y-99327541D01*
X95500000Y-60405082D02*
X94549000Y-61356082D01*
X94500000Y-74278541D02*
X94500000Y-76221459D01*
X95451000Y-64172459D02*
X95451000Y-73327541D01*
%TO.N,A49*%
X91451000Y-64172459D02*
X91451000Y-73327541D01*
X91451000Y-86327541D02*
X90500000Y-87278541D01*
X90500000Y-128221459D02*
X91451000Y-129172459D01*
X91451000Y-103172459D02*
X91451000Y-112327541D01*
X90500000Y-126278541D02*
X90500000Y-128221459D01*
X91451000Y-99327541D02*
X90500000Y-100278541D01*
X90500000Y-100278541D02*
X90500000Y-102221459D01*
X91451000Y-112327541D02*
X90500000Y-113278541D01*
X91451000Y-73327541D02*
X90500000Y-74278541D01*
X90500000Y-89221459D02*
X91451000Y-90172459D01*
X91451000Y-77172459D02*
X91451000Y-86327541D01*
X91451000Y-90172459D02*
X91451000Y-99327541D01*
X91451000Y-116172459D02*
X91451000Y-125327541D01*
X90549000Y-63299000D02*
X91500000Y-64250000D01*
X91500000Y-51250000D02*
X91500000Y-60405082D01*
X90500000Y-87278541D02*
X90500000Y-89221459D01*
X90500000Y-74278541D02*
X90500000Y-76221459D01*
X90500000Y-115221459D02*
X91451000Y-116172459D01*
X91451000Y-125327541D02*
X90500000Y-126278541D01*
X90500000Y-102221459D02*
X91451000Y-103172459D01*
X91500000Y-60405082D02*
X90549000Y-61356082D01*
X90500000Y-113278541D02*
X90500000Y-115221459D01*
X90500000Y-76221459D02*
X91451000Y-77172459D01*
X90549000Y-61356082D02*
X90549000Y-63299000D01*
%TO.N,A71*%
X68500000Y-74278541D02*
X68500000Y-76221459D01*
X69451000Y-90172459D02*
X69451000Y-99327541D01*
X69500000Y-51250000D02*
X69500000Y-60405082D01*
X68500000Y-87278541D02*
X68500000Y-89221459D01*
X69451000Y-116172459D02*
X69451000Y-125327541D01*
X68500000Y-128221459D02*
X69451000Y-129172459D01*
X68500000Y-113278541D02*
X68500000Y-115221459D01*
X68500000Y-76221459D02*
X69451000Y-77172459D01*
X69451000Y-99327541D02*
X68500000Y-100278541D01*
X69500000Y-60405082D02*
X68549000Y-61356082D01*
X68500000Y-115221459D02*
X69451000Y-116172459D01*
X69451000Y-77172459D02*
X69451000Y-86327541D01*
X69451000Y-125327541D02*
X68500000Y-126278541D01*
X69451000Y-112327541D02*
X68500000Y-113278541D01*
X69451000Y-73327541D02*
X68500000Y-74278541D01*
X68500000Y-89221459D02*
X69451000Y-90172459D01*
X68549000Y-63299000D02*
X69500000Y-64250000D01*
X68500000Y-100278541D02*
X68500000Y-102221459D01*
X69451000Y-103172459D02*
X69451000Y-112327541D01*
X68549000Y-61356082D02*
X68549000Y-63299000D01*
X68500000Y-102221459D02*
X69451000Y-103172459D01*
X68500000Y-126278541D02*
X68500000Y-128221459D01*
X69451000Y-86327541D02*
X68500000Y-87278541D01*
X69451000Y-64172459D02*
X69451000Y-73327541D01*
%TO.N,A43*%
X96500000Y-102221459D02*
X97451000Y-103172459D01*
X96500000Y-126123459D02*
X96500000Y-128221459D01*
X96500000Y-74123459D02*
X96500000Y-76221459D01*
X96500000Y-128221459D02*
X97451000Y-129172459D01*
X96500000Y-87123459D02*
X96500000Y-89221459D01*
X96500000Y-115221459D02*
X97451000Y-116172459D01*
X97451000Y-86172459D02*
X96500000Y-87123459D01*
X96500000Y-89221459D02*
X97451000Y-90172459D01*
X97500000Y-51250000D02*
X97500000Y-60250000D01*
X97451000Y-112172459D02*
X96500000Y-113123459D01*
X97451000Y-64172459D02*
X97451000Y-73172459D01*
X97500000Y-60250000D02*
X96549000Y-61201000D01*
X97451000Y-125172459D02*
X96500000Y-126123459D01*
X97451000Y-90172459D02*
X97451000Y-99172459D01*
X97451000Y-99172459D02*
X96500000Y-100123459D01*
X96549000Y-63299000D02*
X97500000Y-64250000D01*
X97451000Y-116172459D02*
X97451000Y-125172459D01*
X97451000Y-77172459D02*
X97451000Y-86172459D01*
X96549000Y-61201000D02*
X96549000Y-63299000D01*
X96500000Y-76221459D02*
X97451000Y-77172459D01*
X97451000Y-73172459D02*
X96500000Y-74123459D01*
X96500000Y-113123459D02*
X96500000Y-115221459D01*
X96500000Y-100123459D02*
X96500000Y-102221459D01*
X97451000Y-103172459D02*
X97451000Y-112172459D01*
%TO.N,A37*%
X102500000Y-87278541D02*
X102500000Y-89221459D01*
X103451000Y-73327541D02*
X102500000Y-74278541D01*
X102500000Y-89221459D02*
X103451000Y-90172459D01*
X102500000Y-115221459D02*
X103451000Y-116172459D01*
X102500000Y-113278541D02*
X102500000Y-115221459D01*
X103451000Y-99327541D02*
X102500000Y-100278541D01*
X103451000Y-125327541D02*
X102500000Y-126278541D01*
X103500000Y-51250000D02*
X103500000Y-60405082D01*
X103451000Y-112327541D02*
X102500000Y-113278541D01*
X102500000Y-128221459D02*
X103451000Y-129172459D01*
X103451000Y-64172459D02*
X103451000Y-73327541D01*
X103451000Y-90172459D02*
X103451000Y-99327541D01*
X102549000Y-61356082D02*
X102549000Y-63299000D01*
X103500000Y-60405082D02*
X102549000Y-61356082D01*
X102500000Y-100278541D02*
X102500000Y-102221459D01*
X102549000Y-63299000D02*
X103500000Y-64250000D01*
X102500000Y-74278541D02*
X102500000Y-76221459D01*
X102500000Y-102221459D02*
X103451000Y-103172459D01*
X103451000Y-86327541D02*
X102500000Y-87278541D01*
X103451000Y-103172459D02*
X103451000Y-112327541D01*
X102500000Y-76221459D02*
X103451000Y-77172459D01*
X103451000Y-77172459D02*
X103451000Y-86327541D01*
X103451000Y-116172459D02*
X103451000Y-125327541D01*
X102500000Y-126278541D02*
X102500000Y-128221459D01*
%TO.N,A11*%
X132451000Y-61356082D02*
X132451000Y-63299000D01*
X131500000Y-125327541D02*
X132451000Y-126278541D01*
X131500000Y-112327541D02*
X132451000Y-113278541D01*
X132451000Y-74278541D02*
X132451000Y-76221459D01*
X131500000Y-51250000D02*
X131500000Y-60405082D01*
X132451000Y-100278541D02*
X132451000Y-102221459D01*
X131500000Y-116172459D02*
X131500000Y-125327541D01*
X132451000Y-115221459D02*
X131500000Y-116172459D01*
X131500000Y-77172459D02*
X131500000Y-86327541D01*
X132451000Y-102221459D02*
X131500000Y-103172459D01*
X131500000Y-103172459D02*
X131500000Y-112327541D01*
X132451000Y-128221459D02*
X131500000Y-129172459D01*
X132451000Y-126278541D02*
X132451000Y-128221459D01*
X131500000Y-90172459D02*
X131500000Y-99327541D01*
X132451000Y-89221459D02*
X131500000Y-90172459D01*
X131500000Y-73327541D02*
X132451000Y-74278541D01*
X131500000Y-64172459D02*
X131500000Y-73327541D01*
X131500000Y-60405082D02*
X132451000Y-61356082D01*
X131500000Y-99327541D02*
X132451000Y-100278541D01*
X132451000Y-87278541D02*
X132451000Y-89221459D01*
X132451000Y-63299000D02*
X131500000Y-64250000D01*
X132451000Y-76221459D02*
X131500000Y-77172459D01*
X131500000Y-86327541D02*
X132451000Y-87278541D01*
X132451000Y-113278541D02*
X132451000Y-115221459D01*
%TO.N,A73*%
X67451000Y-73327541D02*
X66500000Y-74278541D01*
X67451000Y-116172459D02*
X67451000Y-125327541D01*
X67451000Y-112327541D02*
X66500000Y-113278541D01*
X66500000Y-76221459D02*
X67451000Y-77172459D01*
X66549000Y-63299000D02*
X67500000Y-64250000D01*
X66500000Y-87278541D02*
X66500000Y-89221459D01*
X66500000Y-115221459D02*
X67451000Y-116172459D01*
X66500000Y-89221459D02*
X67451000Y-90172459D01*
X66500000Y-100278541D02*
X66500000Y-102221459D01*
X67451000Y-86327541D02*
X66500000Y-87278541D01*
X67451000Y-99327541D02*
X66500000Y-100278541D01*
X67500000Y-51250000D02*
X67500000Y-60405082D01*
X67451000Y-77172459D02*
X67451000Y-86327541D01*
X66500000Y-126278541D02*
X66500000Y-128221459D01*
X66500000Y-128221459D02*
X67451000Y-129172459D01*
X66549000Y-61356082D02*
X66549000Y-63299000D01*
X66500000Y-113278541D02*
X66500000Y-115221459D01*
X67451000Y-103172459D02*
X67451000Y-112327541D01*
X67500000Y-60405082D02*
X66549000Y-61356082D01*
X67451000Y-90172459D02*
X67451000Y-99327541D01*
X66500000Y-102221459D02*
X67451000Y-103172459D01*
X66500000Y-74278541D02*
X66500000Y-76221459D01*
X67451000Y-125327541D02*
X66500000Y-126278541D01*
X67451000Y-64172459D02*
X67451000Y-73327541D01*
%TO.N,A39*%
X100500000Y-102221459D02*
X101451000Y-103172459D01*
X101451000Y-86327541D02*
X100500000Y-87278541D01*
X101451000Y-103172459D02*
X101451000Y-112327541D01*
X100500000Y-89221459D02*
X101451000Y-90172459D01*
X100500000Y-126278541D02*
X100500000Y-128221459D01*
X100500000Y-100278541D02*
X100500000Y-102221459D01*
X101451000Y-64172459D02*
X101451000Y-73327541D01*
X100549000Y-63299000D02*
X101500000Y-64250000D01*
X101451000Y-116172459D02*
X101451000Y-125327541D01*
X101451000Y-99327541D02*
X100500000Y-100278541D01*
X100500000Y-87278541D02*
X100500000Y-89221459D01*
X100549000Y-61356082D02*
X100549000Y-63299000D01*
X101451000Y-73327541D02*
X100500000Y-74278541D01*
X100500000Y-76221459D02*
X101451000Y-77172459D01*
X100500000Y-113278541D02*
X100500000Y-115221459D01*
X101500000Y-51250000D02*
X101500000Y-60405082D01*
X100500000Y-74278541D02*
X100500000Y-76221459D01*
X101451000Y-77172459D02*
X101451000Y-86327541D01*
X101451000Y-112327541D02*
X100500000Y-113278541D01*
X101500000Y-60405082D02*
X100549000Y-61356082D01*
X101451000Y-125327541D02*
X100500000Y-126278541D01*
X101451000Y-90172459D02*
X101451000Y-99327541D01*
X100500000Y-128221459D02*
X101451000Y-129172459D01*
X100500000Y-115221459D02*
X101451000Y-116172459D01*
%TO.N,A29*%
X110549000Y-63299000D02*
X111500000Y-64250000D01*
X111451000Y-99327541D02*
X110500000Y-100278541D01*
X110500000Y-74278541D02*
X110500000Y-76221459D01*
X111451000Y-125327541D02*
X110500000Y-126278541D01*
X111451000Y-73327541D02*
X110500000Y-74278541D01*
X110549000Y-61356082D02*
X110549000Y-63299000D01*
X110500000Y-126278541D02*
X110500000Y-128221459D01*
X110500000Y-89221459D02*
X111451000Y-90172459D01*
X111451000Y-103172459D02*
X111451000Y-112327541D01*
X110500000Y-128221459D02*
X111451000Y-129172459D01*
X111451000Y-112327541D02*
X110500000Y-113278541D01*
X111451000Y-90172459D02*
X111451000Y-99327541D01*
X111500000Y-51250000D02*
X111500000Y-60405082D01*
X110500000Y-115221459D02*
X111451000Y-116172459D01*
X110500000Y-87278541D02*
X110500000Y-89221459D01*
X111500000Y-60405082D02*
X110549000Y-61356082D01*
X111451000Y-86327541D02*
X110500000Y-87278541D01*
X111451000Y-116172459D02*
X111451000Y-125327541D01*
X110500000Y-102221459D02*
X111451000Y-103172459D01*
X111451000Y-77172459D02*
X111451000Y-86327541D01*
X110500000Y-113278541D02*
X110500000Y-115221459D01*
X110500000Y-100278541D02*
X110500000Y-102221459D01*
X111451000Y-64172459D02*
X111451000Y-73327541D01*
X110500000Y-76221459D02*
X111451000Y-77172459D01*
%TO.N,A27*%
X112500000Y-128221459D02*
X113451000Y-129172459D01*
X113500000Y-60250000D02*
X112549000Y-61201000D01*
X112500000Y-74123459D02*
X112500000Y-76221459D01*
X112549000Y-63299000D02*
X113500000Y-64250000D01*
X113451000Y-103172459D02*
X113451000Y-112172459D01*
X113451000Y-112172459D02*
X112500000Y-113123459D01*
X113500000Y-51250000D02*
X113500000Y-60250000D01*
X113451000Y-86172459D02*
X112500000Y-87123459D01*
X112500000Y-115221459D02*
X113451000Y-116172459D01*
X113451000Y-99172459D02*
X112500000Y-100123459D01*
X113451000Y-90172459D02*
X113451000Y-99172459D01*
X113451000Y-77172459D02*
X113451000Y-86172459D01*
X113451000Y-116172459D02*
X113451000Y-125172459D01*
X112549000Y-61201000D02*
X112549000Y-63299000D01*
X113451000Y-64172459D02*
X113451000Y-73172459D01*
X112500000Y-126123459D02*
X112500000Y-128221459D01*
X112500000Y-87123459D02*
X112500000Y-89221459D01*
X112500000Y-102221459D02*
X113451000Y-103172459D01*
X112500000Y-76221459D02*
X113451000Y-77172459D01*
X112500000Y-100123459D02*
X112500000Y-102221459D01*
X112500000Y-89221459D02*
X113451000Y-90172459D01*
X112500000Y-113123459D02*
X112500000Y-115221459D01*
X113451000Y-125172459D02*
X112500000Y-126123459D01*
X113451000Y-73172459D02*
X112500000Y-74123459D01*
%TO.N,A41*%
X99451000Y-103172459D02*
X99451000Y-112327541D01*
X99451000Y-86327541D02*
X98500000Y-87278541D01*
X99451000Y-112327541D02*
X98500000Y-113278541D01*
X99451000Y-116172459D02*
X99451000Y-125327541D01*
X98500000Y-102221459D02*
X99451000Y-103172459D01*
X98500000Y-74278541D02*
X98500000Y-76221459D01*
X98500000Y-126278541D02*
X98500000Y-128221459D01*
X99451000Y-73327541D02*
X98500000Y-74278541D01*
X98500000Y-115221459D02*
X99451000Y-116172459D01*
X98500000Y-100278541D02*
X98500000Y-102221459D01*
X99451000Y-99327541D02*
X98500000Y-100278541D01*
X98500000Y-113278541D02*
X98500000Y-115221459D01*
X98549000Y-61356082D02*
X98549000Y-63299000D01*
X99500000Y-51250000D02*
X99500000Y-60405082D01*
X98500000Y-87278541D02*
X98500000Y-89221459D01*
X98549000Y-63299000D02*
X99500000Y-64250000D01*
X99451000Y-125327541D02*
X98500000Y-126278541D01*
X98500000Y-89221459D02*
X99451000Y-90172459D01*
X98500000Y-76221459D02*
X99451000Y-77172459D01*
X99451000Y-90172459D02*
X99451000Y-99327541D01*
X98500000Y-128221459D02*
X99451000Y-129172459D01*
X99451000Y-64172459D02*
X99451000Y-73327541D01*
X99500000Y-60405082D02*
X98549000Y-61356082D01*
X99451000Y-77172459D02*
X99451000Y-86327541D01*
%TO.N,A25*%
X114500000Y-113278541D02*
X114500000Y-115221459D01*
X114500000Y-76221459D02*
X115451000Y-77172459D01*
X114500000Y-74278541D02*
X114500000Y-76221459D01*
X114500000Y-87278541D02*
X114500000Y-89221459D01*
X114549000Y-63299000D02*
X115500000Y-64250000D01*
X115451000Y-64172459D02*
X115451000Y-73327541D01*
X115451000Y-90172459D02*
X115451000Y-99327541D01*
X115451000Y-86327541D02*
X114500000Y-87278541D01*
X115451000Y-116172459D02*
X115451000Y-125327541D01*
X114500000Y-100278541D02*
X114500000Y-102221459D01*
X114500000Y-128221459D02*
X115451000Y-129172459D01*
X115451000Y-99327541D02*
X114500000Y-100278541D01*
X114500000Y-89221459D02*
X115451000Y-90172459D01*
X115451000Y-103172459D02*
X115451000Y-112327541D01*
X115451000Y-77172459D02*
X115451000Y-86327541D01*
X115500000Y-51250000D02*
X115500000Y-60405082D01*
X115500000Y-60405082D02*
X114549000Y-61356082D01*
X114500000Y-115221459D02*
X115451000Y-116172459D01*
X114500000Y-102221459D02*
X115451000Y-103172459D01*
X115451000Y-73327541D02*
X114500000Y-74278541D01*
X114549000Y-61356082D02*
X114549000Y-63299000D01*
X114500000Y-126278541D02*
X114500000Y-128221459D01*
X115451000Y-125327541D02*
X114500000Y-126278541D01*
X115451000Y-112327541D02*
X114500000Y-113278541D01*
%TO.N,A63*%
X76500000Y-76221459D02*
X77451000Y-77172459D01*
X76500000Y-102221459D02*
X77451000Y-103172459D01*
X77500000Y-51250000D02*
X77500000Y-60405082D01*
X77451000Y-125327541D02*
X76500000Y-126278541D01*
X76549000Y-61356082D02*
X76549000Y-63299000D01*
X76500000Y-115221459D02*
X77451000Y-116172459D01*
X76500000Y-74278541D02*
X76500000Y-76221459D01*
X77500000Y-60405082D02*
X76549000Y-61356082D01*
X77451000Y-90172459D02*
X77451000Y-99327541D01*
X76500000Y-89221459D02*
X77451000Y-90172459D01*
X77451000Y-73327541D02*
X76500000Y-74278541D01*
X76549000Y-63299000D02*
X77500000Y-64250000D01*
X77451000Y-99327541D02*
X76500000Y-100278541D01*
X77451000Y-112327541D02*
X76500000Y-113278541D01*
X76500000Y-113278541D02*
X76500000Y-115221459D01*
X77451000Y-86327541D02*
X76500000Y-87278541D01*
X77451000Y-103172459D02*
X77451000Y-112327541D01*
X76500000Y-126278541D02*
X76500000Y-128221459D01*
X76500000Y-128221459D02*
X77451000Y-129172459D01*
X76500000Y-100278541D02*
X76500000Y-102221459D01*
X76500000Y-87278541D02*
X76500000Y-89221459D01*
X77451000Y-64172459D02*
X77451000Y-73327541D01*
X77451000Y-116172459D02*
X77451000Y-125327541D01*
X77451000Y-77172459D02*
X77451000Y-86327541D01*
%TO.N,A17*%
X123500000Y-60405082D02*
X122549000Y-61356082D01*
X122500000Y-102221459D02*
X123451000Y-103172459D01*
X123451000Y-99327541D02*
X122500000Y-100278541D01*
X122549000Y-61356082D02*
X122549000Y-63299000D01*
X122500000Y-100278541D02*
X122500000Y-102221459D01*
X123451000Y-125327541D02*
X122500000Y-126278541D01*
X123451000Y-90172459D02*
X123451000Y-99327541D01*
X122500000Y-74278541D02*
X122500000Y-76221459D01*
X123451000Y-86327541D02*
X122500000Y-87278541D01*
X122500000Y-126278541D02*
X122500000Y-128221459D01*
X122500000Y-113278541D02*
X122500000Y-115221459D01*
X123451000Y-116172459D02*
X123451000Y-125327541D01*
X122549000Y-63299000D02*
X123500000Y-64250000D01*
X122500000Y-89221459D02*
X123451000Y-90172459D01*
X122500000Y-115221459D02*
X123451000Y-116172459D01*
X123451000Y-73327541D02*
X122500000Y-74278541D01*
X123451000Y-112327541D02*
X122500000Y-113278541D01*
X123451000Y-77172459D02*
X123451000Y-86327541D01*
X122500000Y-76221459D02*
X123451000Y-77172459D01*
X123500000Y-51250000D02*
X123500000Y-60405082D01*
X122500000Y-87278541D02*
X122500000Y-89221459D01*
X123451000Y-103172459D02*
X123451000Y-112327541D01*
X122500000Y-128221459D02*
X123451000Y-129172459D01*
X123451000Y-64172459D02*
X123451000Y-73327541D01*
%TO.N,A51*%
X88500000Y-74123459D02*
X88500000Y-76221459D01*
X89451000Y-64172459D02*
X89451000Y-73172459D01*
X89451000Y-99172459D02*
X88500000Y-100123459D01*
X89451000Y-103172459D02*
X89451000Y-112172459D01*
X88500000Y-102221459D02*
X89451000Y-103172459D01*
X89451000Y-90172459D02*
X89451000Y-99172459D01*
X89451000Y-77172459D02*
X89451000Y-86172459D01*
X88500000Y-128221459D02*
X89451000Y-129172459D01*
X88549000Y-63299000D02*
X89500000Y-64250000D01*
X88500000Y-89221459D02*
X89451000Y-90172459D01*
X89451000Y-112172459D02*
X88500000Y-113123459D01*
X88500000Y-87123459D02*
X88500000Y-89221459D01*
X88500000Y-126123459D02*
X88500000Y-128221459D01*
X88500000Y-113123459D02*
X88500000Y-115221459D01*
X88500000Y-76221459D02*
X89451000Y-77172459D01*
X89500000Y-51250000D02*
X89500000Y-60250000D01*
X89451000Y-125172459D02*
X88500000Y-126123459D01*
X89451000Y-73172459D02*
X88500000Y-74123459D01*
X88549000Y-61201000D02*
X88549000Y-63299000D01*
X89451000Y-116172459D02*
X89451000Y-125172459D01*
X89451000Y-86172459D02*
X88500000Y-87123459D01*
X88500000Y-115221459D02*
X89451000Y-116172459D01*
X88500000Y-100123459D02*
X88500000Y-102221459D01*
X89500000Y-60250000D02*
X88549000Y-61201000D01*
%TO.N,A15*%
X125451000Y-112327541D02*
X124500000Y-113278541D01*
X124500000Y-76221459D02*
X125451000Y-77172459D01*
X125451000Y-90172459D02*
X125451000Y-99327541D01*
X125451000Y-86327541D02*
X124500000Y-87278541D01*
X124549000Y-63299000D02*
X125500000Y-64250000D01*
X124500000Y-102221459D02*
X125451000Y-103172459D01*
X124500000Y-100278541D02*
X124500000Y-102221459D01*
X125500000Y-51250000D02*
X125500000Y-60405082D01*
X124500000Y-126278541D02*
X124500000Y-128221459D01*
X124500000Y-113278541D02*
X124500000Y-115221459D01*
X124500000Y-115221459D02*
X125451000Y-116172459D01*
X125451000Y-99327541D02*
X124500000Y-100278541D01*
X124500000Y-89221459D02*
X125451000Y-90172459D01*
X124549000Y-61356082D02*
X124549000Y-63299000D01*
X125500000Y-60405082D02*
X124549000Y-61356082D01*
X124500000Y-74278541D02*
X124500000Y-76221459D01*
X125451000Y-77172459D02*
X125451000Y-86327541D01*
X124500000Y-128221459D02*
X125451000Y-129172459D01*
X125451000Y-116172459D02*
X125451000Y-125327541D01*
X125451000Y-103172459D02*
X125451000Y-112327541D01*
X124500000Y-87278541D02*
X124500000Y-89221459D01*
X125451000Y-64172459D02*
X125451000Y-73327541D01*
X125451000Y-73327541D02*
X124500000Y-74278541D01*
X125451000Y-125327541D02*
X124500000Y-126278541D01*
%TO.N,A67*%
X72549000Y-61201000D02*
X72549000Y-63299000D01*
X73451000Y-99172459D02*
X72500000Y-100123459D01*
X73500000Y-60250000D02*
X72549000Y-61201000D01*
X73500000Y-51250000D02*
X73500000Y-60250000D01*
X73451000Y-90172459D02*
X73451000Y-99172459D01*
X72549000Y-63299000D02*
X73500000Y-64250000D01*
X72500000Y-102221459D02*
X73451000Y-103172459D01*
X73451000Y-86172459D02*
X72500000Y-87123459D01*
X72500000Y-74123459D02*
X72500000Y-76221459D01*
X73451000Y-64172459D02*
X73451000Y-73172459D01*
X73451000Y-125172459D02*
X72500000Y-126123459D01*
X72500000Y-100123459D02*
X72500000Y-102221459D01*
X73451000Y-116172459D02*
X73451000Y-125172459D01*
X73451000Y-73172459D02*
X72500000Y-74123459D01*
X73451000Y-103172459D02*
X73451000Y-112172459D01*
X72500000Y-89221459D02*
X73451000Y-90172459D01*
X73451000Y-112172459D02*
X72500000Y-113123459D01*
X72500000Y-126123459D02*
X72500000Y-128221459D01*
X72500000Y-113123459D02*
X72500000Y-115221459D01*
X72500000Y-128221459D02*
X73451000Y-129172459D01*
X72500000Y-87123459D02*
X72500000Y-89221459D01*
X72500000Y-115221459D02*
X73451000Y-116172459D01*
X73451000Y-77172459D02*
X73451000Y-86172459D01*
X72500000Y-76221459D02*
X73451000Y-77172459D01*
%TO.N,A57*%
X82549000Y-63299000D02*
X83500000Y-64250000D01*
X82500000Y-102221459D02*
X83451000Y-103172459D01*
X83451000Y-64172459D02*
X83451000Y-73327541D01*
X82500000Y-126278541D02*
X82500000Y-128221459D01*
X82500000Y-128221459D02*
X83451000Y-129172459D01*
X82500000Y-115221459D02*
X83451000Y-116172459D01*
X82500000Y-113278541D02*
X82500000Y-115221459D01*
X83500000Y-51250000D02*
X83500000Y-60405082D01*
X83451000Y-86327541D02*
X82500000Y-87278541D01*
X83451000Y-125327541D02*
X82500000Y-126278541D01*
X83451000Y-99327541D02*
X82500000Y-100278541D01*
X82549000Y-61356082D02*
X82549000Y-63299000D01*
X82500000Y-89221459D02*
X83451000Y-90172459D01*
X83451000Y-112327541D02*
X82500000Y-113278541D01*
X83451000Y-103172459D02*
X83451000Y-112327541D01*
X82500000Y-87278541D02*
X82500000Y-89221459D01*
X82500000Y-100278541D02*
X82500000Y-102221459D01*
X83500000Y-60405082D02*
X82549000Y-61356082D01*
X83451000Y-116172459D02*
X83451000Y-125327541D01*
X83451000Y-73327541D02*
X82500000Y-74278541D01*
X82500000Y-76221459D02*
X83451000Y-77172459D01*
X83451000Y-90172459D02*
X83451000Y-99327541D01*
X83451000Y-77172459D02*
X83451000Y-86327541D01*
X82500000Y-74278541D02*
X82500000Y-76221459D01*
%TO.N,A23*%
X116549000Y-61356082D02*
X116549000Y-63299000D01*
X117451000Y-125327541D02*
X116500000Y-126278541D01*
X116500000Y-76221459D02*
X117451000Y-77172459D01*
X116500000Y-113278541D02*
X116500000Y-115221459D01*
X116500000Y-115221459D02*
X117451000Y-116172459D01*
X116500000Y-87278541D02*
X116500000Y-89221459D01*
X116500000Y-74278541D02*
X116500000Y-76221459D01*
X117500000Y-51250000D02*
X117500000Y-60405082D01*
X117500000Y-60405082D02*
X116549000Y-61356082D01*
X117451000Y-103172459D02*
X117451000Y-112327541D01*
X117451000Y-64172459D02*
X117451000Y-73327541D01*
X117451000Y-73327541D02*
X116500000Y-74278541D01*
X117451000Y-90172459D02*
X117451000Y-99327541D01*
X116500000Y-100278541D02*
X116500000Y-102221459D01*
X117451000Y-86327541D02*
X116500000Y-87278541D01*
X117451000Y-99327541D02*
X116500000Y-100278541D01*
X116500000Y-128221459D02*
X117451000Y-129172459D01*
X117451000Y-77172459D02*
X117451000Y-86327541D01*
X116500000Y-126278541D02*
X116500000Y-128221459D01*
X116500000Y-89221459D02*
X117451000Y-90172459D01*
X117451000Y-112327541D02*
X116500000Y-113278541D01*
X116549000Y-63299000D02*
X117500000Y-64250000D01*
X116500000Y-102221459D02*
X117451000Y-103172459D01*
X117451000Y-116172459D02*
X117451000Y-125327541D01*
%TO.N,A1*%
X142451000Y-78123459D02*
X142451000Y-89221459D01*
X141500000Y-116172459D02*
X142451000Y-117123459D01*
X142451000Y-128221459D02*
X141500000Y-129172459D01*
X141500000Y-103172459D02*
X142451000Y-104123459D01*
X142451000Y-76221459D02*
X141500000Y-77172459D01*
X141500000Y-51250000D02*
X142451000Y-52201000D01*
X141500000Y-90172459D02*
X142451000Y-91123459D01*
X141500000Y-64172459D02*
X142451000Y-65123459D01*
X142451000Y-115221459D02*
X141500000Y-116172459D01*
X142451000Y-102221459D02*
X141500000Y-103172459D01*
X142451000Y-104123459D02*
X142451000Y-115221459D01*
X142451000Y-117123459D02*
X142451000Y-128221459D01*
X142451000Y-52201000D02*
X142451000Y-63299000D01*
X142451000Y-89221459D02*
X141500000Y-90172459D01*
X142451000Y-65123459D02*
X142451000Y-76221459D01*
X142451000Y-91123459D02*
X142451000Y-102221459D01*
X142451000Y-63299000D02*
X141500000Y-64250000D01*
X141500000Y-77172459D02*
X142451000Y-78123459D01*
%TO.N,A35*%
X105451000Y-103172459D02*
X105451000Y-112172459D01*
X105451000Y-64172459D02*
X105451000Y-73172459D01*
X104500000Y-100123459D02*
X104500000Y-102221459D01*
X104500000Y-126123459D02*
X104500000Y-128221459D01*
X104549000Y-63299000D02*
X105500000Y-64250000D01*
X104500000Y-128221459D02*
X105451000Y-129172459D01*
X105451000Y-86172459D02*
X104500000Y-87123459D01*
X105451000Y-73172459D02*
X104500000Y-74123459D01*
X105451000Y-99172459D02*
X104500000Y-100123459D01*
X104500000Y-87123459D02*
X104500000Y-89221459D01*
X105451000Y-116172459D02*
X105451000Y-125172459D01*
X105500000Y-60250000D02*
X104549000Y-61201000D01*
X104500000Y-89221459D02*
X105451000Y-90172459D01*
X105451000Y-77172459D02*
X105451000Y-86172459D01*
X104500000Y-74123459D02*
X104500000Y-76221459D01*
X104549000Y-61201000D02*
X104549000Y-63299000D01*
X105451000Y-90172459D02*
X105451000Y-99172459D01*
X104500000Y-102221459D02*
X105451000Y-103172459D01*
X105451000Y-112172459D02*
X104500000Y-113123459D01*
X105451000Y-125172459D02*
X104500000Y-126123459D01*
X104500000Y-76221459D02*
X105451000Y-77172459D01*
X104500000Y-113123459D02*
X104500000Y-115221459D01*
X105500000Y-51250000D02*
X105500000Y-60250000D01*
X104500000Y-115221459D02*
X105451000Y-116172459D01*
%TO.N,A31*%
X109451000Y-77172459D02*
X109451000Y-86327541D01*
X109500000Y-60405082D02*
X108549000Y-61356082D01*
X109500000Y-51250000D02*
X109500000Y-60405082D01*
X109451000Y-99327541D02*
X108500000Y-100278541D01*
X109451000Y-73327541D02*
X108500000Y-74278541D01*
X109451000Y-125327541D02*
X108500000Y-126278541D01*
X108500000Y-102221459D02*
X109451000Y-103172459D01*
X108500000Y-126278541D02*
X108500000Y-128221459D01*
X108500000Y-113278541D02*
X108500000Y-115221459D01*
X109451000Y-90172459D02*
X109451000Y-99327541D01*
X108549000Y-63299000D02*
X109500000Y-64250000D01*
X108500000Y-87278541D02*
X108500000Y-89221459D01*
X109451000Y-112327541D02*
X108500000Y-113278541D01*
X108500000Y-89221459D02*
X109451000Y-90172459D01*
X109451000Y-103172459D02*
X109451000Y-112327541D01*
X109451000Y-86327541D02*
X108500000Y-87278541D01*
X109451000Y-64172459D02*
X109451000Y-73327541D01*
X109451000Y-116172459D02*
X109451000Y-125327541D01*
X108500000Y-74278541D02*
X108500000Y-76221459D01*
X108500000Y-76221459D02*
X109451000Y-77172459D01*
X108549000Y-61356082D02*
X108549000Y-63299000D01*
X108500000Y-100278541D02*
X108500000Y-102221459D01*
X108500000Y-115221459D02*
X109451000Y-116172459D01*
X108500000Y-128221459D02*
X109451000Y-129172459D01*
%TO.N,A53*%
X87451000Y-90172459D02*
X87451000Y-99327541D01*
X86500000Y-128221459D02*
X87451000Y-129172459D01*
X87451000Y-103172459D02*
X87451000Y-112327541D01*
X87451000Y-77172459D02*
X87451000Y-86327541D01*
X86549000Y-63299000D02*
X87500000Y-64250000D01*
X87451000Y-86327541D02*
X86500000Y-87278541D01*
X86500000Y-100278541D02*
X86500000Y-102221459D01*
X86500000Y-74278541D02*
X86500000Y-76221459D01*
X86500000Y-113278541D02*
X86500000Y-115221459D01*
X87451000Y-99327541D02*
X86500000Y-100278541D01*
X87451000Y-112327541D02*
X86500000Y-113278541D01*
X86500000Y-126278541D02*
X86500000Y-128221459D01*
X87500000Y-51250000D02*
X87500000Y-60405082D01*
X86500000Y-87278541D02*
X86500000Y-89221459D01*
X87451000Y-125327541D02*
X86500000Y-126278541D01*
X86500000Y-76221459D02*
X87451000Y-77172459D01*
X87500000Y-60405082D02*
X86549000Y-61356082D01*
X86500000Y-89221459D02*
X87451000Y-90172459D01*
X87451000Y-116172459D02*
X87451000Y-125327541D01*
X86500000Y-102221459D02*
X87451000Y-103172459D01*
X86549000Y-61356082D02*
X86549000Y-63299000D01*
X86500000Y-115221459D02*
X87451000Y-116172459D01*
X87451000Y-64172459D02*
X87451000Y-73327541D01*
X87451000Y-73327541D02*
X86500000Y-74278541D01*
%TO.N,A77*%
X62549000Y-61356082D02*
X62549000Y-63299000D01*
X62500000Y-128221459D02*
X63451000Y-129172459D01*
X63451000Y-112327541D02*
X62500000Y-113278541D01*
X63451000Y-73327541D02*
X62500000Y-74278541D01*
X63451000Y-125327541D02*
X62500000Y-126278541D01*
X62500000Y-76221459D02*
X63451000Y-77172459D01*
X62500000Y-113278541D02*
X62500000Y-115221459D01*
X63451000Y-86327541D02*
X62500000Y-87278541D01*
X63451000Y-90172459D02*
X63451000Y-99327541D01*
X62500000Y-74278541D02*
X62500000Y-76221459D01*
X63500000Y-60405082D02*
X62549000Y-61356082D01*
X63451000Y-64172459D02*
X63451000Y-73327541D01*
X63451000Y-116172459D02*
X63451000Y-125327541D01*
X62500000Y-126278541D02*
X62500000Y-128221459D01*
X63451000Y-99327541D02*
X62500000Y-100278541D01*
X62500000Y-100278541D02*
X62500000Y-102221459D01*
X62500000Y-87278541D02*
X62500000Y-89221459D01*
X62549000Y-63299000D02*
X63500000Y-64250000D01*
X62500000Y-102221459D02*
X63451000Y-103172459D01*
X62500000Y-115221459D02*
X63451000Y-116172459D01*
X63451000Y-103172459D02*
X63451000Y-112327541D01*
X62500000Y-89221459D02*
X63451000Y-90172459D01*
X63451000Y-77172459D02*
X63451000Y-86327541D01*
X63500000Y-51250000D02*
X63500000Y-60405082D01*
%TO.N,A5*%
X138451000Y-126123459D02*
X138451000Y-128221459D01*
X137500000Y-73172459D02*
X138451000Y-74123459D01*
X138451000Y-128221459D02*
X137500000Y-129172459D01*
X137500000Y-60250000D02*
X138451000Y-61201000D01*
X137500000Y-125172459D02*
X138451000Y-126123459D01*
X138451000Y-76221459D02*
X137500000Y-77172459D01*
X137500000Y-99172459D02*
X138451000Y-100123459D01*
X138451000Y-87123459D02*
X138451000Y-89221459D01*
X138451000Y-89221459D02*
X137500000Y-90172459D01*
X137500000Y-103172459D02*
X137500000Y-112172459D01*
X138451000Y-63299000D02*
X137500000Y-64250000D01*
X137500000Y-51250000D02*
X137500000Y-60250000D01*
X137500000Y-86172459D02*
X138451000Y-87123459D01*
X138451000Y-102221459D02*
X137500000Y-103172459D01*
X137500000Y-77172459D02*
X137500000Y-86172459D01*
X137500000Y-90172459D02*
X137500000Y-99172459D01*
X137500000Y-64172459D02*
X137500000Y-73172459D01*
X138451000Y-74123459D02*
X138451000Y-76221459D01*
X137500000Y-112172459D02*
X138451000Y-113123459D01*
X138451000Y-113123459D02*
X138451000Y-115221459D01*
X138451000Y-100123459D02*
X138451000Y-102221459D01*
X138451000Y-61201000D02*
X138451000Y-63299000D01*
X137500000Y-116172459D02*
X137500000Y-125172459D01*
X138451000Y-115221459D02*
X137500000Y-116172459D01*
%TO.N,A55*%
X84549000Y-63299000D02*
X85500000Y-64250000D01*
X85451000Y-103172459D02*
X85451000Y-112327541D01*
X84500000Y-76221459D02*
X85451000Y-77172459D01*
X85500000Y-60405082D02*
X84549000Y-61356082D01*
X85451000Y-125327541D02*
X84500000Y-126278541D01*
X84500000Y-89221459D02*
X85451000Y-90172459D01*
X85451000Y-64172459D02*
X85451000Y-73327541D01*
X84500000Y-102221459D02*
X85451000Y-103172459D01*
X85451000Y-99327541D02*
X84500000Y-100278541D01*
X85451000Y-73327541D02*
X84500000Y-74278541D01*
X84500000Y-115221459D02*
X85451000Y-116172459D01*
X84500000Y-126278541D02*
X84500000Y-128221459D01*
X84500000Y-100278541D02*
X84500000Y-102221459D01*
X85500000Y-51250000D02*
X85500000Y-60405082D01*
X84500000Y-113278541D02*
X84500000Y-115221459D01*
X85451000Y-116172459D02*
X85451000Y-125327541D01*
X85451000Y-86327541D02*
X84500000Y-87278541D01*
X84500000Y-87278541D02*
X84500000Y-89221459D01*
X84500000Y-128221459D02*
X85451000Y-129172459D01*
X85451000Y-112327541D02*
X84500000Y-113278541D01*
X85451000Y-90172459D02*
X85451000Y-99327541D01*
X85451000Y-77172459D02*
X85451000Y-86327541D01*
X84549000Y-61356082D02*
X84549000Y-63299000D01*
X84500000Y-74278541D02*
X84500000Y-76221459D01*
%TO.N,A61*%
X78500000Y-102221459D02*
X79451000Y-103172459D01*
X78549000Y-61356082D02*
X78549000Y-63299000D01*
X79451000Y-103172459D02*
X79451000Y-112327541D01*
X79451000Y-116172459D02*
X79451000Y-125327541D01*
X78500000Y-89221459D02*
X79451000Y-90172459D01*
X78500000Y-74278541D02*
X78500000Y-76221459D01*
X79451000Y-73327541D02*
X78500000Y-74278541D01*
X79451000Y-86327541D02*
X78500000Y-87278541D01*
X78500000Y-126278541D02*
X78500000Y-128221459D01*
X78500000Y-76221459D02*
X79451000Y-77172459D01*
X78500000Y-113278541D02*
X78500000Y-115221459D01*
X78500000Y-100278541D02*
X78500000Y-102221459D01*
X79500000Y-60405082D02*
X78549000Y-61356082D01*
X78500000Y-128221459D02*
X79451000Y-129172459D01*
X79451000Y-77172459D02*
X79451000Y-86327541D01*
X78500000Y-87278541D02*
X78500000Y-89221459D01*
X79451000Y-64172459D02*
X79451000Y-73327541D01*
X78500000Y-115221459D02*
X79451000Y-116172459D01*
X79500000Y-51250000D02*
X79500000Y-60405082D01*
X78549000Y-63299000D02*
X79500000Y-64250000D01*
X79451000Y-125327541D02*
X78500000Y-126278541D01*
X79451000Y-90172459D02*
X79451000Y-99327541D01*
X79451000Y-99327541D02*
X78500000Y-100278541D01*
X79451000Y-112327541D02*
X78500000Y-113278541D01*
%TO.N,A81*%
X59451000Y-86327541D02*
X58500000Y-87278541D01*
X59451000Y-103172459D02*
X59451000Y-112327541D01*
X59451000Y-64172459D02*
X59451000Y-73327541D01*
X59451000Y-73327541D02*
X58500000Y-74278541D01*
X58500000Y-89221459D02*
X59451000Y-90172459D01*
X59451000Y-99327541D02*
X58500000Y-100278541D01*
X59451000Y-112327541D02*
X58500000Y-113278541D01*
X59451000Y-90172459D02*
X59451000Y-99327541D01*
X58549000Y-63299000D02*
X59500000Y-64250000D01*
X58549000Y-61356082D02*
X58549000Y-63299000D01*
X58500000Y-76221459D02*
X59451000Y-77172459D01*
X59500000Y-51250000D02*
X59500000Y-60405082D01*
X58500000Y-115221459D02*
X59451000Y-116172459D01*
X58500000Y-128221459D02*
X59451000Y-129172459D01*
X58500000Y-100278541D02*
X58500000Y-102221459D01*
X59451000Y-77172459D02*
X59451000Y-86327541D01*
X58500000Y-126278541D02*
X58500000Y-128221459D01*
X59451000Y-125327541D02*
X58500000Y-126278541D01*
X58500000Y-74278541D02*
X58500000Y-76221459D01*
X58500000Y-87278541D02*
X58500000Y-89221459D01*
X58500000Y-102221459D02*
X59451000Y-103172459D01*
X59500000Y-60405082D02*
X58549000Y-61356082D01*
X59451000Y-116172459D02*
X59451000Y-125327541D01*
X58500000Y-113278541D02*
X58500000Y-115221459D01*
%TO.N,A65*%
X75500000Y-51250000D02*
X75500000Y-60405082D01*
X74549000Y-61356082D02*
X74549000Y-63299000D01*
X75451000Y-77172459D02*
X75451000Y-86327541D01*
X74500000Y-102221459D02*
X75451000Y-103172459D01*
X74500000Y-89221459D02*
X75451000Y-90172459D01*
X75451000Y-86327541D02*
X74500000Y-87278541D01*
X75451000Y-125327541D02*
X74500000Y-126278541D01*
X75451000Y-116172459D02*
X75451000Y-125327541D01*
X74549000Y-63299000D02*
X75500000Y-64250000D01*
X75500000Y-60405082D02*
X74549000Y-61356082D01*
X74500000Y-113278541D02*
X74500000Y-115221459D01*
X75451000Y-64172459D02*
X75451000Y-73327541D01*
X75451000Y-103172459D02*
X75451000Y-112327541D01*
X74500000Y-100278541D02*
X74500000Y-102221459D01*
X74500000Y-115221459D02*
X75451000Y-116172459D01*
X74500000Y-87278541D02*
X74500000Y-89221459D01*
X75451000Y-90172459D02*
X75451000Y-99327541D01*
X74500000Y-128221459D02*
X75451000Y-129172459D01*
X75451000Y-112327541D02*
X74500000Y-113278541D01*
X75451000Y-73327541D02*
X74500000Y-74278541D01*
X75451000Y-99327541D02*
X74500000Y-100278541D01*
X74500000Y-76221459D02*
X75451000Y-77172459D01*
X74500000Y-74278541D02*
X74500000Y-76221459D01*
X74500000Y-126278541D02*
X74500000Y-128221459D01*
%TO.N,A3*%
X140451000Y-89221459D02*
X139500000Y-90172459D01*
X140451000Y-115221459D02*
X139500000Y-116172459D01*
X140451000Y-100278541D02*
X140451000Y-102221459D01*
X139500000Y-77172459D02*
X139500000Y-86327541D01*
X140451000Y-76221459D02*
X139500000Y-77172459D01*
X139500000Y-125327541D02*
X140451000Y-126278541D01*
X140451000Y-63299000D02*
X139500000Y-64250000D01*
X140451000Y-74278541D02*
X140451000Y-76221459D01*
X139500000Y-73327541D02*
X140451000Y-74278541D01*
X140451000Y-113278541D02*
X140451000Y-115221459D01*
X139500000Y-99327541D02*
X140451000Y-100278541D01*
X140451000Y-61356082D02*
X140451000Y-63299000D01*
X140451000Y-102221459D02*
X139500000Y-103172459D01*
X140451000Y-128221459D02*
X139500000Y-129172459D01*
X140451000Y-87278541D02*
X140451000Y-89221459D01*
X139500000Y-64172459D02*
X139500000Y-73327541D01*
X139500000Y-86327541D02*
X140451000Y-87278541D01*
X139500000Y-51250000D02*
X139500000Y-60405082D01*
X139500000Y-60405082D02*
X140451000Y-61356082D01*
X139500000Y-116172459D02*
X139500000Y-125327541D01*
X139500000Y-112327541D02*
X140451000Y-113278541D01*
X139500000Y-90172459D02*
X139500000Y-99327541D01*
X140451000Y-126278541D02*
X140451000Y-128221459D01*
X139500000Y-103172459D02*
X139500000Y-112327541D01*
%TO.N,A69*%
X70500000Y-76221459D02*
X71451000Y-77172459D01*
X71451000Y-99327541D02*
X70500000Y-100278541D01*
X71451000Y-125327541D02*
X70500000Y-126278541D01*
X70500000Y-126278541D02*
X70500000Y-128221459D01*
X71451000Y-90172459D02*
X71451000Y-99327541D01*
X70549000Y-63299000D02*
X71500000Y-64250000D01*
X70500000Y-74278541D02*
X70500000Y-76221459D01*
X70500000Y-87278541D02*
X70500000Y-89221459D01*
X71451000Y-77172459D02*
X71451000Y-86327541D01*
X70500000Y-100278541D02*
X70500000Y-102221459D01*
X71500000Y-60405082D02*
X70549000Y-61356082D01*
X70500000Y-113278541D02*
X70500000Y-115221459D01*
X70500000Y-89221459D02*
X71451000Y-90172459D01*
X70549000Y-61356082D02*
X70549000Y-63299000D01*
X71451000Y-86327541D02*
X70500000Y-87278541D01*
X71451000Y-112327541D02*
X70500000Y-113278541D01*
X70500000Y-102221459D02*
X71451000Y-103172459D01*
X70500000Y-128221459D02*
X71451000Y-129172459D01*
X71451000Y-116172459D02*
X71451000Y-125327541D01*
X71451000Y-103172459D02*
X71451000Y-112327541D01*
X71451000Y-73327541D02*
X70500000Y-74278541D01*
X70500000Y-115221459D02*
X71451000Y-116172459D01*
X71451000Y-64172459D02*
X71451000Y-73327541D01*
X71500000Y-51250000D02*
X71500000Y-60405082D01*
%TO.N,A19*%
X120500000Y-113123459D02*
X120500000Y-115221459D01*
X120500000Y-102221459D02*
X121451000Y-103172459D01*
X121451000Y-116172459D02*
X121451000Y-125172459D01*
X121500000Y-60250000D02*
X120549000Y-61201000D01*
X121451000Y-77172459D02*
X121451000Y-86172459D01*
X120500000Y-89221459D02*
X121451000Y-90172459D01*
X120500000Y-87123459D02*
X120500000Y-89221459D01*
X120500000Y-74123459D02*
X120500000Y-76221459D01*
X121451000Y-99172459D02*
X120500000Y-100123459D01*
X121451000Y-86172459D02*
X120500000Y-87123459D01*
X120549000Y-61201000D02*
X120549000Y-63299000D01*
X121451000Y-64172459D02*
X121451000Y-73172459D01*
X120500000Y-115221459D02*
X121451000Y-116172459D01*
X120500000Y-100123459D02*
X120500000Y-102221459D01*
X120500000Y-126123459D02*
X120500000Y-128221459D01*
X120500000Y-128221459D02*
X121451000Y-129172459D01*
X121451000Y-125172459D02*
X120500000Y-126123459D01*
X121451000Y-90172459D02*
X121451000Y-99172459D01*
X121500000Y-51250000D02*
X121500000Y-60250000D01*
X120549000Y-63299000D02*
X121500000Y-64250000D01*
X121451000Y-112172459D02*
X120500000Y-113123459D01*
X120500000Y-76221459D02*
X121451000Y-77172459D01*
X121451000Y-73172459D02*
X120500000Y-74123459D01*
X121451000Y-103172459D02*
X121451000Y-112172459D01*
%TO.N,A79*%
X61451000Y-112327541D02*
X60500000Y-113278541D01*
X61451000Y-90172459D02*
X61451000Y-99327541D01*
X61451000Y-125327541D02*
X60500000Y-126278541D01*
X61451000Y-77172459D02*
X61451000Y-86327541D01*
X60500000Y-76221459D02*
X61451000Y-77172459D01*
X60500000Y-115221459D02*
X61451000Y-116172459D01*
X61451000Y-86327541D02*
X60500000Y-87278541D01*
X60500000Y-128221459D02*
X61451000Y-129172459D01*
X60500000Y-100278541D02*
X60500000Y-102221459D01*
X60500000Y-113278541D02*
X60500000Y-115221459D01*
X61451000Y-103172459D02*
X61451000Y-112327541D01*
X60500000Y-102221459D02*
X61451000Y-103172459D01*
X60500000Y-74278541D02*
X60500000Y-76221459D01*
X60549000Y-61356082D02*
X60549000Y-63299000D01*
X61451000Y-116172459D02*
X61451000Y-125327541D01*
X60500000Y-87278541D02*
X60500000Y-89221459D01*
X61500000Y-60405082D02*
X60549000Y-61356082D01*
X60500000Y-126278541D02*
X60500000Y-128221459D01*
X61500000Y-51250000D02*
X61500000Y-60405082D01*
X60549000Y-63299000D02*
X61500000Y-64250000D01*
X61451000Y-73327541D02*
X60500000Y-74278541D01*
X61451000Y-64172459D02*
X61451000Y-73327541D01*
X61451000Y-99327541D02*
X60500000Y-100278541D01*
X60500000Y-89221459D02*
X61451000Y-90172459D01*
%TO.N,A13*%
X127451000Y-103172459D02*
X127451000Y-112327541D01*
X127500000Y-60405082D02*
X126549000Y-61356082D01*
X126549000Y-61356082D02*
X126549000Y-63299000D01*
X127500000Y-51250000D02*
X127500000Y-60405082D01*
X127451000Y-112327541D02*
X126500000Y-113278541D01*
X127451000Y-116172459D02*
X127451000Y-125327541D01*
X126500000Y-113278541D02*
X126500000Y-115221459D01*
X127451000Y-77172459D02*
X127451000Y-86327541D01*
X126500000Y-89221459D02*
X127451000Y-90172459D01*
X127451000Y-90172459D02*
X127451000Y-99327541D01*
X127451000Y-64172459D02*
X127451000Y-73327541D01*
X126549000Y-63299000D02*
X127500000Y-64250000D01*
X126500000Y-74278541D02*
X126500000Y-76221459D01*
X126500000Y-100278541D02*
X126500000Y-102221459D01*
X126500000Y-115221459D02*
X127451000Y-116172459D01*
X126500000Y-76221459D02*
X127451000Y-77172459D01*
X127451000Y-73327541D02*
X126500000Y-74278541D01*
X127451000Y-86327541D02*
X126500000Y-87278541D01*
X126500000Y-102221459D02*
X127451000Y-103172459D01*
X126500000Y-126278541D02*
X126500000Y-128221459D01*
X126500000Y-128221459D02*
X127451000Y-129172459D01*
X127451000Y-99327541D02*
X126500000Y-100278541D01*
X126500000Y-87278541D02*
X126500000Y-89221459D01*
X127451000Y-125327541D02*
X126500000Y-126278541D01*
%TO.N,A9*%
X134451000Y-63299000D02*
X133500000Y-64250000D01*
X133500000Y-99327541D02*
X134451000Y-100278541D01*
X134451000Y-87278541D02*
X134451000Y-89221459D01*
X134451000Y-115221459D02*
X133500000Y-116172459D01*
X133500000Y-112327541D02*
X134451000Y-113278541D01*
X134451000Y-128221459D02*
X133500000Y-129172459D01*
X133500000Y-51250000D02*
X133500000Y-60405082D01*
X134451000Y-74278541D02*
X134451000Y-76221459D01*
X134451000Y-76221459D02*
X133500000Y-77172459D01*
X134451000Y-100278541D02*
X134451000Y-102221459D01*
X134451000Y-61356082D02*
X134451000Y-63299000D01*
X133500000Y-77172459D02*
X133500000Y-86327541D01*
X133500000Y-86327541D02*
X134451000Y-87278541D01*
X134451000Y-102221459D02*
X133500000Y-103172459D01*
X133500000Y-64172459D02*
X133500000Y-73327541D01*
X133500000Y-60405082D02*
X134451000Y-61356082D01*
X134451000Y-89221459D02*
X133500000Y-90172459D01*
X133500000Y-125327541D02*
X134451000Y-126278541D01*
X134451000Y-113278541D02*
X134451000Y-115221459D01*
X133500000Y-90172459D02*
X133500000Y-99327541D01*
X133500000Y-103172459D02*
X133500000Y-112327541D01*
X133500000Y-73327541D02*
X134451000Y-74278541D01*
X133500000Y-116172459D02*
X133500000Y-125327541D01*
X134451000Y-126278541D02*
X134451000Y-128221459D01*
%TO.N,A59*%
X80549000Y-63299000D02*
X81500000Y-64250000D01*
X80500000Y-115221459D02*
X81451000Y-116172459D01*
X81500000Y-60250000D02*
X80549000Y-61201000D01*
X81500000Y-51250000D02*
X81500000Y-60250000D01*
X81451000Y-77172459D02*
X81451000Y-86172459D01*
X81451000Y-86172459D02*
X80500000Y-87123459D01*
X80500000Y-74123459D02*
X80500000Y-76221459D01*
X80500000Y-102221459D02*
X81451000Y-103172459D01*
X81451000Y-99172459D02*
X80500000Y-100123459D01*
X80500000Y-76221459D02*
X81451000Y-77172459D01*
X80500000Y-87123459D02*
X80500000Y-89221459D01*
X81451000Y-125172459D02*
X80500000Y-126123459D01*
X80500000Y-113123459D02*
X80500000Y-115221459D01*
X80500000Y-128221459D02*
X81451000Y-129172459D01*
X81451000Y-112172459D02*
X80500000Y-113123459D01*
X80500000Y-100123459D02*
X80500000Y-102221459D01*
X81451000Y-103172459D02*
X81451000Y-112172459D01*
X81451000Y-64172459D02*
X81451000Y-73172459D01*
X80500000Y-89221459D02*
X81451000Y-90172459D01*
X81451000Y-116172459D02*
X81451000Y-125172459D01*
X81451000Y-73172459D02*
X80500000Y-74123459D01*
X80500000Y-126123459D02*
X80500000Y-128221459D01*
X80549000Y-61201000D02*
X80549000Y-63299000D01*
X81451000Y-90172459D02*
X81451000Y-99172459D01*
%TO.N,A47*%
X93451000Y-64172459D02*
X93451000Y-73327541D01*
X92500000Y-76221459D02*
X93451000Y-77172459D01*
X92549000Y-61356082D02*
X92549000Y-63299000D01*
X93451000Y-99327541D02*
X92500000Y-100278541D01*
X93451000Y-86327541D02*
X92500000Y-87278541D01*
X92549000Y-63299000D02*
X93500000Y-64250000D01*
X92500000Y-74278541D02*
X92500000Y-76221459D01*
X92500000Y-126278541D02*
X92500000Y-128221459D01*
X92500000Y-113278541D02*
X92500000Y-115221459D01*
X92500000Y-128221459D02*
X93451000Y-129172459D01*
X93500000Y-51250000D02*
X93500000Y-60405082D01*
X93500000Y-60405082D02*
X92549000Y-61356082D01*
X93451000Y-90172459D02*
X93451000Y-99327541D01*
X93451000Y-116172459D02*
X93451000Y-125327541D01*
X92500000Y-87278541D02*
X92500000Y-89221459D01*
X93451000Y-77172459D02*
X93451000Y-86327541D01*
X93451000Y-112327541D02*
X92500000Y-113278541D01*
X92500000Y-115221459D02*
X93451000Y-116172459D01*
X93451000Y-73327541D02*
X92500000Y-74278541D01*
X92500000Y-89221459D02*
X93451000Y-90172459D01*
X93451000Y-125327541D02*
X92500000Y-126278541D01*
X92500000Y-102221459D02*
X93451000Y-103172459D01*
X92500000Y-100278541D02*
X92500000Y-102221459D01*
X93451000Y-103172459D02*
X93451000Y-112327541D01*
%TO.N,A21*%
X118500000Y-126278541D02*
X118500000Y-128221459D01*
X119451000Y-116172459D02*
X119451000Y-125327541D01*
X118549000Y-61356082D02*
X118549000Y-63299000D01*
X119451000Y-64172459D02*
X119451000Y-73327541D01*
X118500000Y-87278541D02*
X118500000Y-89221459D01*
X119451000Y-99327541D02*
X118500000Y-100278541D01*
X118500000Y-89221459D02*
X119451000Y-90172459D01*
X118500000Y-100278541D02*
X118500000Y-102221459D01*
X119451000Y-86327541D02*
X118500000Y-87278541D01*
X119451000Y-73327541D02*
X118500000Y-74278541D01*
X118500000Y-128221459D02*
X119451000Y-129172459D01*
X118500000Y-102221459D02*
X119451000Y-103172459D01*
X118500000Y-74278541D02*
X118500000Y-76221459D01*
X119451000Y-125327541D02*
X118500000Y-126278541D01*
X118500000Y-113278541D02*
X118500000Y-115221459D01*
X119500000Y-60405082D02*
X118549000Y-61356082D01*
X118500000Y-76221459D02*
X119451000Y-77172459D01*
X119451000Y-90172459D02*
X119451000Y-99327541D01*
X119451000Y-77172459D02*
X119451000Y-86327541D01*
X119451000Y-103172459D02*
X119451000Y-112327541D01*
X118500000Y-115221459D02*
X119451000Y-116172459D01*
X119500000Y-51250000D02*
X119500000Y-60405082D01*
X118549000Y-63299000D02*
X119500000Y-64250000D01*
X119451000Y-112327541D02*
X118500000Y-113278541D01*
%TO.N,A33*%
X106500000Y-87278541D02*
X106500000Y-89221459D01*
X106549000Y-61356082D02*
X106549000Y-63299000D01*
X107451000Y-77172459D02*
X107451000Y-86327541D01*
X107451000Y-99327541D02*
X106500000Y-100278541D01*
X107451000Y-125327541D02*
X106500000Y-126278541D01*
X107500000Y-60405082D02*
X106549000Y-61356082D01*
X106500000Y-102221459D02*
X107451000Y-103172459D01*
X106500000Y-126278541D02*
X106500000Y-128221459D01*
X106500000Y-128221459D02*
X107451000Y-129172459D01*
X106500000Y-113278541D02*
X106500000Y-115221459D01*
X107451000Y-90172459D02*
X107451000Y-99327541D01*
X107451000Y-73327541D02*
X106500000Y-74278541D01*
X107451000Y-103172459D02*
X107451000Y-112327541D01*
X106500000Y-100278541D02*
X106500000Y-102221459D01*
X106500000Y-76221459D02*
X107451000Y-77172459D01*
X106500000Y-74278541D02*
X106500000Y-76221459D01*
X107451000Y-86327541D02*
X106500000Y-87278541D01*
X106500000Y-115221459D02*
X107451000Y-116172459D01*
X107500000Y-51250000D02*
X107500000Y-60405082D01*
X107451000Y-112327541D02*
X106500000Y-113278541D01*
X106549000Y-63299000D02*
X107500000Y-64250000D01*
X107451000Y-64172459D02*
X107451000Y-73327541D01*
X107451000Y-116172459D02*
X107451000Y-125327541D01*
X106500000Y-89221459D02*
X107451000Y-90172459D01*
%TD*%
M02*
