M48
; DRILL file {KiCad 9.0.2} date 2026-05-12T23:08:36-0400
; FORMAT={-:-/ absolute / metric / decimal}
; #@! TF.CreationDate,2026-05-12T23:08:36-04:00
; #@! TF.GenerationSoftware,Kicad,Pcbnew,9.0.2
; #@! TF.FileFunction,Plated,1,4,PTH
FMAT,2
METRIC
; #@! TA.AperFunction,Plated,PTH,ComponentDrill
T1C0.500
; #@! TA.AperFunction,Plated,PTH,ComponentDrill
T2C0.800
; #@! TA.AperFunction,Plated,PTH,ComponentDrill
T3C2.350
; #@! TA.AperFunction,Plated,PTH,ComponentDrill
T4C3.200
%
G90
G05
T1
X50.6Y-56.6
X50.6Y-95.553
X50.6Y-121.5
X51.303Y-54.903
X51.303Y-58.297
X51.303Y-93.856
X51.303Y-97.25
X51.303Y-119.803
X51.303Y-123.197
X53.0Y-54.2
X53.0Y-59.0
X53.0Y-93.153
X53.0Y-97.953
X53.0Y-119.1
X53.0Y-123.9
X54.697Y-54.903
X54.697Y-58.297
X54.697Y-93.856
X54.697Y-97.25
X54.697Y-119.803
X54.697Y-123.197
X55.4Y-56.6
X55.4Y-95.553
X55.4Y-121.5
X144.6Y-56.6
X144.6Y-95.553
X144.6Y-121.5
X145.303Y-54.903
X145.303Y-58.297
X145.303Y-93.856
X145.303Y-97.25
X145.303Y-119.803
X145.303Y-123.197
X147.0Y-54.2
X147.0Y-59.0
X147.0Y-93.153
X147.0Y-97.953
X147.0Y-119.1
X147.0Y-123.9
X148.697Y-54.903
X148.697Y-58.297
X148.697Y-93.856
X148.697Y-97.25
X148.697Y-119.803
X148.697Y-123.197
X149.4Y-56.6
X149.4Y-95.553
X149.4Y-121.5
T2
X58.5Y-46.75
X58.5Y-53.25
X58.5Y-59.75
X58.5Y-66.25
X58.5Y-72.75
X58.5Y-79.25
X58.5Y-85.75
X58.5Y-92.25
X58.5Y-98.75
X58.5Y-105.25
X58.5Y-111.75
X58.5Y-118.25
X58.5Y-124.75
X58.5Y-131.25
X59.5Y-48.75
X59.5Y-51.25
X59.5Y-61.75
X59.5Y-64.25
X59.5Y-74.75
X59.5Y-77.25
X59.5Y-87.75
X59.5Y-90.25
X59.5Y-100.75
X59.5Y-103.25
X59.5Y-113.75
X59.5Y-116.25
X59.5Y-126.75
X59.5Y-129.25
X60.5Y-46.75
X60.5Y-53.25
X60.5Y-59.75
X60.5Y-66.25
X60.5Y-72.75
X60.5Y-79.25
X60.5Y-85.75
X60.5Y-92.25
X60.5Y-98.75
X60.5Y-105.25
X60.5Y-111.75
X60.5Y-118.25
X60.5Y-124.75
X60.5Y-131.25
X61.5Y-48.75
X61.5Y-51.25
X61.5Y-61.75
X61.5Y-64.25
X61.5Y-74.75
X61.5Y-77.25
X61.5Y-87.75
X61.5Y-90.25
X61.5Y-100.75
X61.5Y-103.25
X61.5Y-113.75
X61.5Y-116.25
X61.5Y-126.75
X61.5Y-129.25
X62.5Y-46.75
X62.5Y-53.25
X62.5Y-59.75
X62.5Y-66.25
X62.5Y-72.75
X62.5Y-79.25
X62.5Y-85.75
X62.5Y-92.25
X62.5Y-98.75
X62.5Y-105.25
X62.5Y-111.75
X62.5Y-118.25
X62.5Y-124.75
X62.5Y-131.25
X63.5Y-48.75
X63.5Y-51.25
X63.5Y-61.75
X63.5Y-64.25
X63.5Y-74.75
X63.5Y-77.25
X63.5Y-87.75
X63.5Y-90.25
X63.5Y-100.75
X63.5Y-103.25
X63.5Y-113.75
X63.5Y-116.25
X63.5Y-126.75
X63.5Y-129.25
X64.5Y-46.75
X64.5Y-53.25
X64.5Y-59.75
X64.5Y-66.25
X64.5Y-72.75
X64.5Y-79.25
X64.5Y-85.75
X64.5Y-92.25
X64.5Y-98.75
X64.5Y-105.25
X64.5Y-111.75
X64.5Y-118.25
X64.5Y-124.75
X64.5Y-131.25
X65.5Y-48.75
X65.5Y-51.25
X65.5Y-61.75
X65.5Y-64.25
X65.5Y-74.75
X65.5Y-77.25
X65.5Y-87.75
X65.5Y-90.25
X65.5Y-100.75
X65.5Y-103.25
X65.5Y-113.75
X65.5Y-116.25
X65.5Y-126.75
X65.5Y-129.25
X66.5Y-46.75
X66.5Y-53.25
X66.5Y-59.75
X66.5Y-66.25
X66.5Y-72.75
X66.5Y-79.25
X66.5Y-85.75
X66.5Y-92.25
X66.5Y-98.75
X66.5Y-105.25
X66.5Y-111.75
X66.5Y-118.25
X66.5Y-124.75
X66.5Y-131.25
X67.5Y-48.75
X67.5Y-51.25
X67.5Y-61.75
X67.5Y-64.25
X67.5Y-74.75
X67.5Y-77.25
X67.5Y-87.75
X67.5Y-90.25
X67.5Y-100.75
X67.5Y-103.25
X67.5Y-113.75
X67.5Y-116.25
X67.5Y-126.75
X67.5Y-129.25
X68.5Y-46.75
X68.5Y-53.25
X68.5Y-59.75
X68.5Y-66.25
X68.5Y-72.75
X68.5Y-79.25
X68.5Y-85.75
X68.5Y-92.25
X68.5Y-98.75
X68.5Y-105.25
X68.5Y-111.75
X68.5Y-118.25
X68.5Y-124.75
X68.5Y-131.25
X69.5Y-48.75
X69.5Y-51.25
X69.5Y-61.75
X69.5Y-64.25
X69.5Y-74.75
X69.5Y-77.25
X69.5Y-87.75
X69.5Y-90.25
X69.5Y-100.75
X69.5Y-103.25
X69.5Y-113.75
X69.5Y-116.25
X69.5Y-126.75
X69.5Y-129.25
X70.5Y-46.75
X70.5Y-53.25
X70.5Y-59.75
X70.5Y-66.25
X70.5Y-72.75
X70.5Y-79.25
X70.5Y-85.75
X70.5Y-92.25
X70.5Y-98.75
X70.5Y-105.25
X70.5Y-111.75
X70.5Y-118.25
X70.5Y-124.75
X70.5Y-131.25
X71.5Y-48.75
X71.5Y-51.25
X71.5Y-61.75
X71.5Y-64.25
X71.5Y-74.75
X71.5Y-77.25
X71.5Y-87.75
X71.5Y-90.25
X71.5Y-100.75
X71.5Y-103.25
X71.5Y-113.75
X71.5Y-116.25
X71.5Y-126.75
X71.5Y-129.25
X72.5Y-46.75
X72.5Y-53.25
X72.5Y-59.75
X72.5Y-66.25
X72.5Y-72.75
X72.5Y-79.25
X72.5Y-85.75
X72.5Y-92.25
X72.5Y-98.75
X72.5Y-105.25
X72.5Y-111.75
X72.5Y-118.25
X72.5Y-124.75
X72.5Y-131.25
X73.5Y-48.75
X73.5Y-51.25
X73.5Y-61.75
X73.5Y-64.25
X73.5Y-74.75
X73.5Y-77.25
X73.5Y-87.75
X73.5Y-90.25
X73.5Y-100.75
X73.5Y-103.25
X73.5Y-113.75
X73.5Y-116.25
X73.5Y-126.75
X73.5Y-129.25
X74.5Y-46.75
X74.5Y-53.25
X74.5Y-59.75
X74.5Y-66.25
X74.5Y-72.75
X74.5Y-79.25
X74.5Y-85.75
X74.5Y-92.25
X74.5Y-98.75
X74.5Y-105.25
X74.5Y-111.75
X74.5Y-118.25
X74.5Y-124.75
X74.5Y-131.25
X75.5Y-48.75
X75.5Y-51.25
X75.5Y-61.75
X75.5Y-64.25
X75.5Y-74.75
X75.5Y-77.25
X75.5Y-87.75
X75.5Y-90.25
X75.5Y-100.75
X75.5Y-103.25
X75.5Y-113.75
X75.5Y-116.25
X75.5Y-126.75
X75.5Y-129.25
X76.5Y-46.75
X76.5Y-53.25
X76.5Y-59.75
X76.5Y-66.25
X76.5Y-72.75
X76.5Y-79.25
X76.5Y-85.75
X76.5Y-92.25
X76.5Y-98.75
X76.5Y-105.25
X76.5Y-111.75
X76.5Y-118.25
X76.5Y-124.75
X76.5Y-131.25
X77.5Y-48.75
X77.5Y-51.25
X77.5Y-61.75
X77.5Y-64.25
X77.5Y-74.75
X77.5Y-77.25
X77.5Y-87.75
X77.5Y-90.25
X77.5Y-100.75
X77.5Y-103.25
X77.5Y-113.75
X77.5Y-116.25
X77.5Y-126.75
X77.5Y-129.25
X78.5Y-46.75
X78.5Y-53.25
X78.5Y-59.75
X78.5Y-66.25
X78.5Y-72.75
X78.5Y-79.25
X78.5Y-85.75
X78.5Y-92.25
X78.5Y-98.75
X78.5Y-105.25
X78.5Y-111.75
X78.5Y-118.25
X78.5Y-124.75
X78.5Y-131.25
X79.5Y-48.75
X79.5Y-51.25
X79.5Y-61.75
X79.5Y-64.25
X79.5Y-74.75
X79.5Y-77.25
X79.5Y-87.75
X79.5Y-90.25
X79.5Y-100.75
X79.5Y-103.25
X79.5Y-113.75
X79.5Y-116.25
X79.5Y-126.75
X79.5Y-129.25
X80.5Y-46.75
X80.5Y-53.25
X80.5Y-59.75
X80.5Y-66.25
X80.5Y-72.75
X80.5Y-79.25
X80.5Y-85.75
X80.5Y-92.25
X80.5Y-98.75
X80.5Y-105.25
X80.5Y-111.75
X80.5Y-118.25
X80.5Y-124.75
X80.5Y-131.25
X81.5Y-48.75
X81.5Y-51.25
X81.5Y-61.75
X81.5Y-64.25
X81.5Y-74.75
X81.5Y-77.25
X81.5Y-87.75
X81.5Y-90.25
X81.5Y-100.75
X81.5Y-103.25
X81.5Y-113.75
X81.5Y-116.25
X81.5Y-126.75
X81.5Y-129.25
X82.5Y-46.75
X82.5Y-53.25
X82.5Y-59.75
X82.5Y-66.25
X82.5Y-72.75
X82.5Y-79.25
X82.5Y-85.75
X82.5Y-92.25
X82.5Y-98.75
X82.5Y-105.25
X82.5Y-111.75
X82.5Y-118.25
X82.5Y-124.75
X82.5Y-131.25
X83.5Y-48.75
X83.5Y-51.25
X83.5Y-61.75
X83.5Y-64.25
X83.5Y-74.75
X83.5Y-77.25
X83.5Y-87.75
X83.5Y-90.25
X83.5Y-100.75
X83.5Y-103.25
X83.5Y-113.75
X83.5Y-116.25
X83.5Y-126.75
X83.5Y-129.25
X84.5Y-46.75
X84.5Y-53.25
X84.5Y-59.75
X84.5Y-66.25
X84.5Y-72.75
X84.5Y-79.25
X84.5Y-85.75
X84.5Y-92.25
X84.5Y-98.75
X84.5Y-105.25
X84.5Y-111.75
X84.5Y-118.25
X84.5Y-124.75
X84.5Y-131.25
X85.5Y-48.75
X85.5Y-51.25
X85.5Y-61.75
X85.5Y-64.25
X85.5Y-74.75
X85.5Y-77.25
X85.5Y-87.75
X85.5Y-90.25
X85.5Y-100.75
X85.5Y-103.25
X85.5Y-113.75
X85.5Y-116.25
X85.5Y-126.75
X85.5Y-129.25
X86.5Y-46.75
X86.5Y-53.25
X86.5Y-59.75
X86.5Y-66.25
X86.5Y-72.75
X86.5Y-79.25
X86.5Y-85.75
X86.5Y-92.25
X86.5Y-98.75
X86.5Y-105.25
X86.5Y-111.75
X86.5Y-118.25
X86.5Y-124.75
X86.5Y-131.25
X87.5Y-48.75
X87.5Y-51.25
X87.5Y-61.75
X87.5Y-64.25
X87.5Y-74.75
X87.5Y-77.25
X87.5Y-87.75
X87.5Y-90.25
X87.5Y-100.75
X87.5Y-103.25
X87.5Y-113.75
X87.5Y-116.25
X87.5Y-126.75
X87.5Y-129.25
X88.5Y-46.75
X88.5Y-53.25
X88.5Y-59.75
X88.5Y-66.25
X88.5Y-72.75
X88.5Y-79.25
X88.5Y-85.75
X88.5Y-92.25
X88.5Y-98.75
X88.5Y-105.25
X88.5Y-111.75
X88.5Y-118.25
X88.5Y-124.75
X88.5Y-131.25
X89.5Y-48.75
X89.5Y-51.25
X89.5Y-61.75
X89.5Y-64.25
X89.5Y-74.75
X89.5Y-77.25
X89.5Y-87.75
X89.5Y-90.25
X89.5Y-100.75
X89.5Y-103.25
X89.5Y-113.75
X89.5Y-116.25
X89.5Y-126.75
X89.5Y-129.25
X90.5Y-46.75
X90.5Y-53.25
X90.5Y-59.75
X90.5Y-66.25
X90.5Y-72.75
X90.5Y-79.25
X90.5Y-85.75
X90.5Y-92.25
X90.5Y-98.75
X90.5Y-105.25
X90.5Y-111.75
X90.5Y-118.25
X90.5Y-124.75
X90.5Y-131.25
X91.5Y-48.75
X91.5Y-51.25
X91.5Y-61.75
X91.5Y-64.25
X91.5Y-74.75
X91.5Y-77.25
X91.5Y-87.75
X91.5Y-90.25
X91.5Y-100.75
X91.5Y-103.25
X91.5Y-113.75
X91.5Y-116.25
X91.5Y-126.75
X91.5Y-129.25
X92.5Y-46.75
X92.5Y-53.25
X92.5Y-59.75
X92.5Y-66.25
X92.5Y-72.75
X92.5Y-79.25
X92.5Y-85.75
X92.5Y-92.25
X92.5Y-98.75
X92.5Y-105.25
X92.5Y-111.75
X92.5Y-118.25
X92.5Y-124.75
X92.5Y-131.25
X93.5Y-48.75
X93.5Y-51.25
X93.5Y-61.75
X93.5Y-64.25
X93.5Y-74.75
X93.5Y-77.25
X93.5Y-87.75
X93.5Y-90.25
X93.5Y-100.75
X93.5Y-103.25
X93.5Y-113.75
X93.5Y-116.25
X93.5Y-126.75
X93.5Y-129.25
X94.5Y-46.75
X94.5Y-53.25
X94.5Y-59.75
X94.5Y-66.25
X94.5Y-72.75
X94.5Y-79.25
X94.5Y-85.75
X94.5Y-92.25
X94.5Y-98.75
X94.5Y-105.25
X94.5Y-111.75
X94.5Y-118.25
X94.5Y-124.75
X94.5Y-131.25
X95.5Y-48.75
X95.5Y-51.25
X95.5Y-61.75
X95.5Y-64.25
X95.5Y-74.75
X95.5Y-77.25
X95.5Y-87.75
X95.5Y-90.25
X95.5Y-100.75
X95.5Y-103.25
X95.5Y-113.75
X95.5Y-116.25
X95.5Y-126.75
X95.5Y-129.25
X96.5Y-46.75
X96.5Y-53.25
X96.5Y-59.75
X96.5Y-66.25
X96.5Y-72.75
X96.5Y-79.25
X96.5Y-85.75
X96.5Y-92.25
X96.5Y-98.75
X96.5Y-105.25
X96.5Y-111.75
X96.5Y-118.25
X96.5Y-124.75
X96.5Y-131.25
X97.5Y-48.75
X97.5Y-51.25
X97.5Y-61.75
X97.5Y-64.25
X97.5Y-74.75
X97.5Y-77.25
X97.5Y-87.75
X97.5Y-90.25
X97.5Y-100.75
X97.5Y-103.25
X97.5Y-113.75
X97.5Y-116.25
X97.5Y-126.75
X97.5Y-129.25
X98.5Y-46.75
X98.5Y-53.25
X98.5Y-59.75
X98.5Y-66.25
X98.5Y-72.75
X98.5Y-79.25
X98.5Y-85.75
X98.5Y-92.25
X98.5Y-98.75
X98.5Y-105.25
X98.5Y-111.75
X98.5Y-118.25
X98.5Y-124.75
X98.5Y-131.25
X99.5Y-48.75
X99.5Y-51.25
X99.5Y-61.75
X99.5Y-64.25
X99.5Y-74.75
X99.5Y-77.25
X99.5Y-87.75
X99.5Y-90.25
X99.5Y-100.75
X99.5Y-103.25
X99.5Y-113.75
X99.5Y-116.25
X99.5Y-126.75
X99.5Y-129.25
X100.5Y-46.75
X100.5Y-53.25
X100.5Y-59.75
X100.5Y-66.25
X100.5Y-72.75
X100.5Y-79.25
X100.5Y-85.75
X100.5Y-92.25
X100.5Y-98.75
X100.5Y-105.25
X100.5Y-111.75
X100.5Y-118.25
X100.5Y-124.75
X100.5Y-131.25
X101.5Y-48.75
X101.5Y-51.25
X101.5Y-61.75
X101.5Y-64.25
X101.5Y-74.75
X101.5Y-77.25
X101.5Y-87.75
X101.5Y-90.25
X101.5Y-100.75
X101.5Y-103.25
X101.5Y-113.75
X101.5Y-116.25
X101.5Y-126.75
X101.5Y-129.25
X102.5Y-46.75
X102.5Y-53.25
X102.5Y-59.75
X102.5Y-66.25
X102.5Y-72.75
X102.5Y-79.25
X102.5Y-85.75
X102.5Y-92.25
X102.5Y-98.75
X102.5Y-105.25
X102.5Y-111.75
X102.5Y-118.25
X102.5Y-124.75
X102.5Y-131.25
X103.5Y-48.75
X103.5Y-51.25
X103.5Y-61.75
X103.5Y-64.25
X103.5Y-74.75
X103.5Y-77.25
X103.5Y-87.75
X103.5Y-90.25
X103.5Y-100.75
X103.5Y-103.25
X103.5Y-113.75
X103.5Y-116.25
X103.5Y-126.75
X103.5Y-129.25
X104.5Y-46.75
X104.5Y-53.25
X104.5Y-59.75
X104.5Y-66.25
X104.5Y-72.75
X104.5Y-79.25
X104.5Y-85.75
X104.5Y-92.25
X104.5Y-98.75
X104.5Y-105.25
X104.5Y-111.75
X104.5Y-118.25
X104.5Y-124.75
X104.5Y-131.25
X105.5Y-48.75
X105.5Y-51.25
X105.5Y-61.75
X105.5Y-64.25
X105.5Y-74.75
X105.5Y-77.25
X105.5Y-87.75
X105.5Y-90.25
X105.5Y-100.75
X105.5Y-103.25
X105.5Y-113.75
X105.5Y-116.25
X105.5Y-126.75
X105.5Y-129.25
X106.5Y-46.75
X106.5Y-53.25
X106.5Y-59.75
X106.5Y-66.25
X106.5Y-72.75
X106.5Y-79.25
X106.5Y-85.75
X106.5Y-92.25
X106.5Y-98.75
X106.5Y-105.25
X106.5Y-111.75
X106.5Y-118.25
X106.5Y-124.75
X106.5Y-131.25
X107.5Y-48.75
X107.5Y-51.25
X107.5Y-61.75
X107.5Y-64.25
X107.5Y-74.75
X107.5Y-77.25
X107.5Y-87.75
X107.5Y-90.25
X107.5Y-100.75
X107.5Y-103.25
X107.5Y-113.75
X107.5Y-116.25
X107.5Y-126.75
X107.5Y-129.25
X108.5Y-46.75
X108.5Y-53.25
X108.5Y-59.75
X108.5Y-66.25
X108.5Y-72.75
X108.5Y-79.25
X108.5Y-85.75
X108.5Y-92.25
X108.5Y-98.75
X108.5Y-105.25
X108.5Y-111.75
X108.5Y-118.25
X108.5Y-124.75
X108.5Y-131.25
X109.5Y-48.75
X109.5Y-51.25
X109.5Y-61.75
X109.5Y-64.25
X109.5Y-74.75
X109.5Y-77.25
X109.5Y-87.75
X109.5Y-90.25
X109.5Y-100.75
X109.5Y-103.25
X109.5Y-113.75
X109.5Y-116.25
X109.5Y-126.75
X109.5Y-129.25
X110.5Y-46.75
X110.5Y-53.25
X110.5Y-59.75
X110.5Y-66.25
X110.5Y-72.75
X110.5Y-79.25
X110.5Y-85.75
X110.5Y-92.25
X110.5Y-98.75
X110.5Y-105.25
X110.5Y-111.75
X110.5Y-118.25
X110.5Y-124.75
X110.5Y-131.25
X111.5Y-48.75
X111.5Y-51.25
X111.5Y-61.75
X111.5Y-64.25
X111.5Y-74.75
X111.5Y-77.25
X111.5Y-87.75
X111.5Y-90.25
X111.5Y-100.75
X111.5Y-103.25
X111.5Y-113.75
X111.5Y-116.25
X111.5Y-126.75
X111.5Y-129.25
X112.5Y-46.75
X112.5Y-53.25
X112.5Y-59.75
X112.5Y-66.25
X112.5Y-72.75
X112.5Y-79.25
X112.5Y-85.75
X112.5Y-92.25
X112.5Y-98.75
X112.5Y-105.25
X112.5Y-111.75
X112.5Y-118.25
X112.5Y-124.75
X112.5Y-131.25
X113.5Y-48.75
X113.5Y-51.25
X113.5Y-61.75
X113.5Y-64.25
X113.5Y-74.75
X113.5Y-77.25
X113.5Y-87.75
X113.5Y-90.25
X113.5Y-100.75
X113.5Y-103.25
X113.5Y-113.75
X113.5Y-116.25
X113.5Y-126.75
X113.5Y-129.25
X114.5Y-46.75
X114.5Y-53.25
X114.5Y-59.75
X114.5Y-66.25
X114.5Y-72.75
X114.5Y-79.25
X114.5Y-85.75
X114.5Y-92.25
X114.5Y-98.75
X114.5Y-105.25
X114.5Y-111.75
X114.5Y-118.25
X114.5Y-124.75
X114.5Y-131.25
X115.5Y-48.75
X115.5Y-51.25
X115.5Y-61.75
X115.5Y-64.25
X115.5Y-74.75
X115.5Y-77.25
X115.5Y-87.75
X115.5Y-90.25
X115.5Y-100.75
X115.5Y-103.25
X115.5Y-113.75
X115.5Y-116.25
X115.5Y-126.75
X115.5Y-129.25
X116.5Y-46.75
X116.5Y-53.25
X116.5Y-59.75
X116.5Y-66.25
X116.5Y-72.75
X116.5Y-79.25
X116.5Y-85.75
X116.5Y-92.25
X116.5Y-98.75
X116.5Y-105.25
X116.5Y-111.75
X116.5Y-118.25
X116.5Y-124.75
X116.5Y-131.25
X117.5Y-48.75
X117.5Y-51.25
X117.5Y-61.75
X117.5Y-64.25
X117.5Y-74.75
X117.5Y-77.25
X117.5Y-87.75
X117.5Y-90.25
X117.5Y-100.75
X117.5Y-103.25
X117.5Y-113.75
X117.5Y-116.25
X117.5Y-126.75
X117.5Y-129.25
X118.5Y-46.75
X118.5Y-53.25
X118.5Y-59.75
X118.5Y-66.25
X118.5Y-72.75
X118.5Y-79.25
X118.5Y-85.75
X118.5Y-92.25
X118.5Y-98.75
X118.5Y-105.25
X118.5Y-111.75
X118.5Y-118.25
X118.5Y-124.75
X118.5Y-131.25
X119.5Y-48.75
X119.5Y-51.25
X119.5Y-61.75
X119.5Y-64.25
X119.5Y-74.75
X119.5Y-77.25
X119.5Y-87.75
X119.5Y-90.25
X119.5Y-100.75
X119.5Y-103.25
X119.5Y-113.75
X119.5Y-116.25
X119.5Y-126.75
X119.5Y-129.25
X120.5Y-46.75
X120.5Y-53.25
X120.5Y-59.75
X120.5Y-66.25
X120.5Y-72.75
X120.5Y-79.25
X120.5Y-85.75
X120.5Y-92.25
X120.5Y-98.75
X120.5Y-105.25
X120.5Y-111.75
X120.5Y-118.25
X120.5Y-124.75
X120.5Y-131.25
X121.5Y-48.75
X121.5Y-51.25
X121.5Y-61.75
X121.5Y-64.25
X121.5Y-74.75
X121.5Y-77.25
X121.5Y-87.75
X121.5Y-90.25
X121.5Y-100.75
X121.5Y-103.25
X121.5Y-113.75
X121.5Y-116.25
X121.5Y-126.75
X121.5Y-129.25
X122.5Y-46.75
X122.5Y-53.25
X122.5Y-59.75
X122.5Y-66.25
X122.5Y-72.75
X122.5Y-79.25
X122.5Y-85.75
X122.5Y-92.25
X122.5Y-98.75
X122.5Y-105.25
X122.5Y-111.75
X122.5Y-118.25
X122.5Y-124.75
X122.5Y-131.25
X123.5Y-48.75
X123.5Y-51.25
X123.5Y-61.75
X123.5Y-64.25
X123.5Y-74.75
X123.5Y-77.25
X123.5Y-87.75
X123.5Y-90.25
X123.5Y-100.75
X123.5Y-103.25
X123.5Y-113.75
X123.5Y-116.25
X123.5Y-126.75
X123.5Y-129.25
X124.5Y-46.75
X124.5Y-53.25
X124.5Y-59.75
X124.5Y-66.25
X124.5Y-72.75
X124.5Y-79.25
X124.5Y-85.75
X124.5Y-92.25
X124.5Y-98.75
X124.5Y-105.25
X124.5Y-111.75
X124.5Y-118.25
X124.5Y-124.75
X124.5Y-131.25
X125.5Y-48.75
X125.5Y-51.25
X125.5Y-61.75
X125.5Y-64.25
X125.5Y-74.75
X125.5Y-77.25
X125.5Y-87.75
X125.5Y-90.25
X125.5Y-100.75
X125.5Y-103.25
X125.5Y-113.75
X125.5Y-116.25
X125.5Y-126.75
X125.5Y-129.25
X126.5Y-46.75
X126.5Y-53.25
X126.5Y-59.75
X126.5Y-66.25
X126.5Y-72.75
X126.5Y-79.25
X126.5Y-85.75
X126.5Y-92.25
X126.5Y-98.75
X126.5Y-105.25
X126.5Y-111.75
X126.5Y-118.25
X126.5Y-124.75
X126.5Y-131.25
X127.5Y-48.75
X127.5Y-51.25
X127.5Y-61.75
X127.5Y-64.25
X127.5Y-74.75
X127.5Y-77.25
X127.5Y-87.75
X127.5Y-90.25
X127.5Y-100.75
X127.5Y-103.25
X127.5Y-113.75
X127.5Y-116.25
X127.5Y-126.75
X127.5Y-129.25
X128.5Y-46.75
X128.5Y-53.25
X128.5Y-59.75
X128.5Y-66.25
X128.5Y-72.75
X128.5Y-79.25
X128.5Y-85.75
X128.5Y-92.25
X128.5Y-98.75
X128.5Y-105.25
X128.5Y-111.75
X128.5Y-118.25
X128.5Y-124.75
X128.5Y-131.25
X131.5Y-48.75
X131.5Y-51.25
X131.5Y-61.75
X131.5Y-64.25
X131.5Y-74.75
X131.5Y-77.25
X131.5Y-87.75
X131.5Y-90.25
X131.5Y-100.75
X131.5Y-103.25
X131.5Y-113.75
X131.5Y-116.25
X131.5Y-126.75
X131.5Y-129.25
X132.5Y-46.75
X132.5Y-53.25
X132.5Y-59.75
X132.5Y-66.25
X132.5Y-72.75
X132.5Y-79.25
X132.5Y-85.75
X132.5Y-92.25
X132.5Y-98.75
X132.5Y-105.25
X132.5Y-111.75
X132.5Y-118.25
X132.5Y-124.75
X132.5Y-131.25
X133.5Y-48.75
X133.5Y-51.25
X133.5Y-61.75
X133.5Y-64.25
X133.5Y-74.75
X133.5Y-77.25
X133.5Y-87.75
X133.5Y-90.25
X133.5Y-100.75
X133.5Y-103.25
X133.5Y-113.75
X133.5Y-116.25
X133.5Y-126.75
X133.5Y-129.25
X134.5Y-46.75
X134.5Y-53.25
X134.5Y-59.75
X134.5Y-66.25
X134.5Y-72.75
X134.5Y-79.25
X134.5Y-85.75
X134.5Y-92.25
X134.5Y-98.75
X134.5Y-105.25
X134.5Y-111.75
X134.5Y-118.25
X134.5Y-124.75
X134.5Y-131.25
X135.5Y-48.75
X135.5Y-51.25
X135.5Y-61.75
X135.5Y-64.25
X135.5Y-74.75
X135.5Y-77.25
X135.5Y-87.75
X135.5Y-90.25
X135.5Y-100.75
X135.5Y-103.25
X135.5Y-113.75
X135.5Y-116.25
X135.5Y-126.75
X135.5Y-129.25
X136.5Y-46.75
X136.5Y-53.25
X136.5Y-59.75
X136.5Y-66.25
X136.5Y-72.75
X136.5Y-79.25
X136.5Y-85.75
X136.5Y-92.25
X136.5Y-98.75
X136.5Y-105.25
X136.5Y-111.75
X136.5Y-118.25
X136.5Y-124.75
X136.5Y-131.25
X137.5Y-48.75
X137.5Y-51.25
X137.5Y-61.75
X137.5Y-64.25
X137.5Y-74.75
X137.5Y-77.25
X137.5Y-87.75
X137.5Y-90.25
X137.5Y-100.75
X137.5Y-103.25
X137.5Y-113.75
X137.5Y-116.25
X137.5Y-126.75
X137.5Y-129.25
X138.5Y-46.75
X138.5Y-53.25
X138.5Y-59.75
X138.5Y-66.25
X138.5Y-72.75
X138.5Y-79.25
X138.5Y-85.75
X138.5Y-92.25
X138.5Y-98.75
X138.5Y-105.25
X138.5Y-111.75
X138.5Y-118.25
X138.5Y-124.75
X138.5Y-131.25
X139.5Y-48.75
X139.5Y-51.25
X139.5Y-61.75
X139.5Y-64.25
X139.5Y-74.75
X139.5Y-77.25
X139.5Y-87.75
X139.5Y-90.25
X139.5Y-100.75
X139.5Y-103.25
X139.5Y-113.75
X139.5Y-116.25
X139.5Y-126.75
X139.5Y-129.25
X140.5Y-46.75
X140.5Y-53.25
X140.5Y-59.75
X140.5Y-66.25
X140.5Y-72.75
X140.5Y-79.25
X140.5Y-85.75
X140.5Y-92.25
X140.5Y-98.75
X140.5Y-105.25
X140.5Y-111.75
X140.5Y-118.25
X140.5Y-124.75
X140.5Y-131.25
X141.5Y-48.75
X141.5Y-51.25
X141.5Y-61.75
X141.5Y-64.25
X141.5Y-74.75
X141.5Y-77.25
X141.5Y-87.75
X141.5Y-90.25
X141.5Y-100.75
X141.5Y-103.25
X141.5Y-113.75
X141.5Y-116.25
X141.5Y-126.75
X141.5Y-129.25
T3
X56.7Y-50.0
X56.7Y-63.0
X56.7Y-76.0
X56.7Y-89.0
X56.7Y-102.0
X56.7Y-115.0
X56.7Y-128.0
X129.85Y-50.0
X129.85Y-63.0
X129.85Y-76.0
X129.85Y-89.0
X129.85Y-102.0
X129.85Y-115.0
X129.85Y-128.0
T4
X53.0Y-56.6
X53.0Y-95.553
X53.0Y-121.5
X147.0Y-56.6
X147.0Y-95.553
X147.0Y-121.5
M30
