M48
; DRILL file {KiCad 9.0.2} date 2026-05-12T22:36:27-0400
; FORMAT={-:-/ absolute / metric / decimal}
; #@! TF.CreationDate,2026-05-12T22:36:27-04:00
; #@! TF.GenerationSoftware,Kicad,Pcbnew,9.0.2
; #@! TF.FileFunction,Plated,1,4,PTH
FMAT,2
METRIC
; #@! TA.AperFunction,Plated,PTH,ComponentDrill
T1C0.750
; #@! TA.AperFunction,Plated,PTH,ViaDrill
T2C0.800
; #@! TA.AperFunction,Plated,PTH,ComponentDrill
T3C0.800
; #@! TA.AperFunction,Plated,PTH,ComponentDrill
T4C1.000
%
G90
G05
T1
X95.05Y-165.395
X95.05Y-166.665
X95.05Y-167.935
X95.05Y-193.395
X95.05Y-194.665
X95.05Y-195.935
X95.1Y-106.145
X95.1Y-107.415
X95.1Y-108.685
X95.1Y-134.155
X95.1Y-135.425
X95.1Y-136.695
X95.34Y-47.395
X95.34Y-48.665
X95.34Y-49.935
X95.34Y-75.395
X95.34Y-76.665
X95.34Y-77.935
X113.75Y-174.055
X113.75Y-175.325
X113.75Y-176.595
X113.75Y-202.055
X113.75Y-203.325
X113.75Y-204.595
X113.8Y-114.805
X113.8Y-116.075
X113.8Y-117.345
X113.8Y-142.815
X113.8Y-144.085
X113.8Y-145.355
X113.8Y-165.075
X113.8Y-166.345
X113.8Y-167.615
X113.8Y-193.075
X113.8Y-194.345
X113.8Y-195.615
X113.85Y-105.825
X113.85Y-107.095
X113.85Y-108.365
X113.85Y-133.835
X113.85Y-135.105
X113.85Y-136.375
X114.04Y-56.055
X114.04Y-57.325
X114.04Y-58.595
X114.04Y-84.055
X114.04Y-85.325
X114.04Y-86.595
X114.09Y-47.075
X114.09Y-48.345
X114.09Y-49.615
X114.09Y-75.075
X114.09Y-76.345
X114.09Y-77.615
X132.5Y-165.095
X132.5Y-166.365
X132.5Y-167.635
X132.5Y-173.805
X132.5Y-175.075
X132.5Y-176.345
X132.5Y-193.095
X132.5Y-194.365
X132.5Y-195.635
X132.5Y-201.805
X132.5Y-203.075
X132.5Y-204.345
X132.55Y-105.845
X132.55Y-107.115
X132.55Y-108.385
X132.55Y-114.555
X132.55Y-115.825
X132.55Y-117.095
X132.55Y-133.855
X132.55Y-135.125
X132.55Y-136.395
X132.55Y-142.565
X132.55Y-143.835
X132.55Y-145.105
X132.79Y-47.095
X132.79Y-48.365
X132.79Y-49.635
X132.79Y-55.805
X132.79Y-57.075
X132.79Y-58.345
X132.79Y-75.095
X132.79Y-76.365
X132.79Y-77.635
X132.79Y-83.805
X132.79Y-85.075
X132.79Y-86.345
X137.6Y-106.151
X137.6Y-107.421
X137.6Y-108.691
X137.6Y-134.145
X137.6Y-135.415
X137.6Y-136.685
X137.6Y-165.395
X137.6Y-166.665
X137.6Y-167.935
X137.6Y-193.395
X137.6Y-194.665
X137.6Y-195.935
X137.89Y-47.395
X137.89Y-48.665
X137.89Y-49.935
X137.89Y-75.395
X137.89Y-76.665
X137.89Y-77.935
X156.3Y-114.811
X156.3Y-116.081
X156.3Y-117.351
X156.3Y-142.805
X156.3Y-144.075
X156.3Y-145.345
X156.3Y-174.055
X156.3Y-175.325
X156.3Y-176.595
X156.3Y-202.055
X156.3Y-203.325
X156.3Y-204.595
X156.35Y-105.831
X156.35Y-107.101
X156.35Y-108.371
X156.35Y-133.825
X156.35Y-135.095
X156.35Y-136.365
X156.35Y-165.075
X156.35Y-166.345
X156.35Y-167.615
X156.35Y-193.075
X156.35Y-194.345
X156.35Y-195.615
X156.59Y-56.055
X156.59Y-57.325
X156.59Y-58.595
X156.59Y-84.055
X156.59Y-85.325
X156.59Y-86.595
X156.64Y-47.075
X156.64Y-48.345
X156.64Y-49.615
X156.64Y-75.075
X156.64Y-76.345
X156.64Y-77.615
X175.05Y-105.851
X175.05Y-107.121
X175.05Y-108.391
X175.05Y-114.561
X175.05Y-115.831
X175.05Y-117.101
X175.05Y-133.845
X175.05Y-135.115
X175.05Y-136.385
X175.05Y-142.555
X175.05Y-143.825
X175.05Y-145.095
X175.05Y-165.095
X175.05Y-166.365
X175.05Y-167.635
X175.05Y-173.805
X175.05Y-175.075
X175.05Y-176.345
X175.05Y-193.095
X175.05Y-194.365
X175.05Y-195.635
X175.05Y-201.805
X175.05Y-203.075
X175.05Y-204.345
X175.34Y-47.095
X175.34Y-48.365
X175.34Y-49.635
X175.34Y-55.805
X175.34Y-57.075
X175.34Y-58.345
X175.34Y-75.095
X175.34Y-76.365
X175.34Y-77.635
X175.34Y-83.805
X175.34Y-85.075
X175.34Y-86.345
X180.05Y-193.355
X180.05Y-194.625
X180.05Y-195.895
X180.056Y-134.156
X180.056Y-135.426
X180.056Y-136.696
X180.061Y-106.145
X180.061Y-107.415
X180.061Y-108.685
X180.1Y-165.395
X180.1Y-166.665
X180.1Y-167.935
X180.39Y-47.395
X180.39Y-48.665
X180.39Y-49.935
X180.39Y-75.395
X180.39Y-76.665
X180.39Y-77.935
X198.75Y-202.015
X198.75Y-203.285
X198.75Y-204.555
X198.756Y-142.816
X198.756Y-144.086
X198.756Y-145.356
X198.761Y-114.805
X198.761Y-116.075
X198.761Y-117.345
X198.8Y-174.055
X198.8Y-175.325
X198.8Y-176.595
X198.8Y-193.035
X198.8Y-194.305
X198.8Y-195.575
X198.806Y-133.836
X198.806Y-135.106
X198.806Y-136.376
X198.811Y-105.825
X198.811Y-107.095
X198.811Y-108.365
X198.85Y-165.075
X198.85Y-166.345
X198.85Y-167.615
X199.09Y-56.055
X199.09Y-57.325
X199.09Y-58.595
X199.09Y-84.055
X199.09Y-85.325
X199.09Y-86.595
X199.14Y-47.075
X199.14Y-48.345
X199.14Y-49.615
X199.14Y-75.075
X199.14Y-76.345
X199.14Y-77.615
X217.5Y-193.055
X217.5Y-194.325
X217.5Y-195.595
X217.5Y-201.765
X217.5Y-203.035
X217.5Y-204.305
X217.506Y-133.856
X217.506Y-135.126
X217.506Y-136.396
X217.506Y-142.566
X217.506Y-143.836
X217.506Y-145.106
X217.511Y-105.845
X217.511Y-107.115
X217.511Y-108.385
X217.511Y-114.555
X217.511Y-115.825
X217.511Y-117.095
X217.55Y-165.095
X217.55Y-166.365
X217.55Y-167.635
X217.55Y-173.805
X217.55Y-175.075
X217.55Y-176.345
X217.84Y-47.095
X217.84Y-48.365
X217.84Y-49.635
X217.84Y-55.805
X217.84Y-57.075
X217.84Y-58.345
X217.84Y-75.095
X217.84Y-76.365
X217.84Y-77.635
X217.84Y-83.805
X217.84Y-85.075
X217.84Y-86.345
T2
X78.25Y-32.0
X82.955Y-118.0
X82.955Y-59.25
X94.2Y-33.403
X114.75Y-33.0
X116.55Y-33.0
X123.25Y-31.5
X124.75Y-37.25
X127.75Y-32.75
X129.25Y-37.25
X133.75Y-63.85
X133.75Y-123.25
X149.247Y-207.395
X154.25Y-206.75
X181.572Y-123.25
X181.901Y-63.85
X182.482Y-127.991
X182.816Y-69.23
T3
X87.51Y-113.595
X87.51Y-118.141
X87.51Y-141.845
X87.51Y-146.391
X87.51Y-173.095
X87.51Y-177.595
X87.686Y-201.095
X87.686Y-205.641
X87.76Y-83.095
X87.76Y-87.595
X87.861Y-59.595
X87.936Y-55.095
X90.05Y-113.595
X90.05Y-118.141
X90.05Y-141.845
X90.05Y-146.391
X90.05Y-173.095
X90.05Y-177.595
X90.226Y-201.095
X90.226Y-205.641
X90.3Y-83.095
X90.3Y-87.595
X90.401Y-59.595
X90.476Y-55.095
X91.05Y-98.555
X91.05Y-101.095
X91.05Y-126.555
X91.05Y-129.095
X91.05Y-158.05
X91.05Y-160.59
X91.05Y-185.805
X91.05Y-188.345
X91.3Y-40.05
X91.3Y-42.59
X91.3Y-67.8
X91.3Y-70.34
X94.16Y-173.255
X94.16Y-177.505
X94.16Y-201.255
X94.16Y-205.505
X94.21Y-114.005
X94.21Y-118.255
X94.21Y-142.015
X94.21Y-146.265
X94.45Y-55.255
X94.45Y-59.505
X94.45Y-83.255
X94.45Y-87.505
X96.2Y-157.96
X96.2Y-160.5
X96.2Y-185.96
X96.2Y-188.5
X96.25Y-98.71
X96.25Y-101.25
X96.25Y-126.72
X96.25Y-129.26
X96.49Y-39.96
X96.49Y-42.5
X96.49Y-67.96
X96.49Y-70.5
X96.7Y-173.255
X96.7Y-177.505
X96.7Y-201.255
X96.7Y-205.505
X96.75Y-114.005
X96.75Y-118.255
X96.75Y-142.015
X96.75Y-146.265
X96.99Y-55.255
X96.99Y-59.505
X96.99Y-83.255
X96.99Y-87.505
X100.46Y-164.095
X100.46Y-173.095
X100.46Y-192.095
X100.46Y-201.095
X100.5Y-168.595
X100.5Y-177.595
X100.5Y-196.595
X100.5Y-205.595
X100.51Y-104.845
X100.51Y-113.845
X100.51Y-132.855
X100.51Y-141.855
X100.55Y-109.345
X100.55Y-118.345
X100.55Y-137.355
X100.55Y-146.355
X100.75Y-46.095
X100.75Y-55.095
X100.75Y-74.095
X100.75Y-83.095
X100.79Y-50.595
X100.79Y-59.595
X100.79Y-78.595
X100.79Y-87.595
X101.0Y-157.96
X101.0Y-160.5
X101.0Y-185.96
X101.0Y-188.5
X101.05Y-98.71
X101.05Y-101.25
X101.05Y-126.72
X101.05Y-129.26
X101.29Y-39.96
X101.29Y-42.5
X101.29Y-67.96
X101.29Y-70.5
X103.0Y-164.095
X103.0Y-173.095
X103.0Y-192.095
X103.0Y-201.095
X103.04Y-168.595
X103.04Y-177.595
X103.04Y-196.595
X103.04Y-205.595
X103.05Y-104.845
X103.05Y-113.845
X103.05Y-132.855
X103.05Y-141.855
X103.09Y-109.345
X103.09Y-118.345
X103.09Y-137.355
X103.09Y-146.355
X103.29Y-46.095
X103.29Y-55.095
X103.29Y-74.095
X103.29Y-83.095
X103.33Y-50.595
X103.33Y-59.595
X103.33Y-78.595
X103.33Y-87.595
X103.5Y-180.305
X103.5Y-182.845
X103.5Y-208.305
X103.5Y-210.845
X103.55Y-121.055
X103.55Y-123.595
X103.55Y-149.065
X103.55Y-151.605
X103.79Y-62.305
X103.79Y-64.845
X103.79Y-90.305
X103.79Y-92.845
X105.75Y-157.96
X105.75Y-160.5
X105.75Y-185.96
X105.75Y-188.5
X105.8Y-98.71
X105.8Y-101.25
X105.8Y-126.72
X105.8Y-129.26
X106.04Y-39.96
X106.04Y-42.5
X106.04Y-67.96
X106.04Y-70.5
X106.636Y-168.595
X106.636Y-177.595
X106.636Y-196.595
X106.636Y-205.595
X106.686Y-109.345
X106.686Y-118.345
X106.686Y-137.355
X106.686Y-146.355
X106.71Y-173.095
X106.71Y-201.095
X106.75Y-164.095
X106.75Y-192.095
X106.76Y-113.845
X106.76Y-141.855
X106.8Y-104.845
X106.8Y-132.855
X106.926Y-50.595
X106.926Y-59.595
X106.926Y-78.595
X106.926Y-87.595
X107.0Y-55.095
X107.0Y-83.095
X107.04Y-46.095
X107.04Y-74.095
X108.25Y-180.305
X108.25Y-182.845
X108.25Y-208.305
X108.25Y-210.845
X108.3Y-121.055
X108.3Y-123.595
X108.3Y-149.065
X108.3Y-151.605
X108.54Y-62.305
X108.54Y-64.845
X108.54Y-90.305
X108.54Y-92.845
X109.176Y-168.595
X109.176Y-177.595
X109.176Y-196.595
X109.176Y-205.595
X109.226Y-109.345
X109.226Y-118.345
X109.226Y-137.355
X109.226Y-146.355
X109.25Y-173.095
X109.25Y-201.095
X109.29Y-164.095
X109.29Y-192.095
X109.3Y-113.845
X109.3Y-141.855
X109.34Y-104.845
X109.34Y-132.855
X109.466Y-50.595
X109.466Y-59.595
X109.466Y-78.595
X109.466Y-87.595
X109.54Y-55.095
X109.54Y-83.095
X109.58Y-46.095
X109.58Y-74.095
X110.5Y-157.96
X110.5Y-160.5
X110.5Y-185.96
X110.5Y-188.5
X110.55Y-98.71
X110.55Y-101.25
X110.55Y-126.72
X110.55Y-129.26
X110.79Y-39.96
X110.79Y-42.5
X110.79Y-67.96
X110.79Y-70.5
X113.0Y-180.345
X113.0Y-182.885
X113.0Y-208.345
X113.0Y-210.885
X113.05Y-121.095
X113.05Y-123.635
X113.05Y-149.105
X113.05Y-151.645
X113.29Y-62.345
X113.29Y-64.885
X113.29Y-90.345
X113.29Y-92.885
X115.25Y-157.96
X115.25Y-160.5
X115.25Y-185.96
X115.25Y-188.5
X115.3Y-98.71
X115.3Y-101.25
X115.3Y-126.72
X115.3Y-129.26
X115.54Y-39.96
X115.54Y-42.5
X115.54Y-67.96
X115.54Y-70.5
X117.75Y-180.35
X117.75Y-182.89
X117.75Y-208.35
X117.75Y-210.89
X117.8Y-121.1
X117.8Y-123.64
X117.8Y-149.11
X117.8Y-151.65
X118.04Y-62.35
X118.04Y-64.89
X118.04Y-90.35
X118.04Y-92.89
X119.21Y-172.845
X119.21Y-200.845
X119.25Y-164.095
X119.25Y-177.345
X119.25Y-192.095
X119.25Y-205.345
X119.26Y-113.595
X119.26Y-141.605
X119.3Y-104.845
X119.3Y-118.095
X119.3Y-132.855
X119.3Y-146.105
X119.386Y-168.595
X119.386Y-196.595
X119.436Y-109.345
X119.436Y-137.355
X119.5Y-54.845
X119.5Y-82.845
X119.54Y-46.095
X119.54Y-59.345
X119.54Y-74.095
X119.54Y-87.345
X119.676Y-50.595
X119.676Y-78.595
X120.0Y-157.96
X120.0Y-160.5
X120.0Y-185.96
X120.0Y-188.5
X120.05Y-98.71
X120.05Y-101.25
X120.05Y-126.72
X120.05Y-129.26
X120.29Y-39.96
X120.29Y-42.5
X120.29Y-67.96
X120.29Y-70.5
X121.75Y-172.845
X121.75Y-200.845
X121.79Y-164.095
X121.79Y-177.345
X121.79Y-192.095
X121.79Y-205.345
X121.8Y-113.595
X121.8Y-141.605
X121.84Y-104.845
X121.84Y-118.095
X121.84Y-132.855
X121.84Y-146.105
X121.926Y-168.595
X121.926Y-196.595
X121.976Y-109.345
X121.976Y-137.355
X122.04Y-54.845
X122.04Y-82.845
X122.08Y-46.095
X122.08Y-59.345
X122.08Y-74.095
X122.08Y-87.345
X122.216Y-50.595
X122.216Y-78.595
X122.5Y-180.305
X122.5Y-182.845
X122.5Y-208.305
X122.5Y-210.845
X122.55Y-121.055
X122.55Y-123.595
X122.55Y-149.065
X122.55Y-151.605
X122.79Y-62.305
X122.79Y-64.845
X122.79Y-90.305
X122.79Y-92.845
X124.5Y-157.96
X124.5Y-160.5
X124.5Y-185.96
X124.5Y-188.5
X124.55Y-98.71
X124.55Y-101.25
X124.55Y-126.72
X124.55Y-129.26
X124.79Y-39.96
X124.79Y-42.5
X124.79Y-67.96
X124.79Y-70.5
X125.386Y-172.845
X125.386Y-200.845
X125.436Y-113.595
X125.436Y-141.605
X125.5Y-164.095
X125.5Y-168.595
X125.5Y-177.345
X125.5Y-192.095
X125.5Y-196.595
X125.5Y-205.345
X125.55Y-104.845
X125.55Y-109.345
X125.55Y-118.095
X125.55Y-132.855
X125.55Y-137.355
X125.55Y-146.105
X125.676Y-54.845
X125.676Y-82.845
X125.79Y-46.095
X125.79Y-50.595
X125.79Y-59.345
X125.79Y-74.095
X125.79Y-78.595
X125.79Y-87.345
X127.25Y-180.305
X127.25Y-182.845
X127.25Y-208.305
X127.25Y-210.845
X127.3Y-121.055
X127.3Y-123.595
X127.3Y-149.065
X127.3Y-151.605
X127.54Y-62.305
X127.54Y-64.845
X127.54Y-90.305
X127.54Y-92.845
X127.926Y-172.845
X127.926Y-200.845
X127.976Y-113.595
X127.976Y-141.605
X128.04Y-164.095
X128.04Y-168.595
X128.04Y-177.345
X128.04Y-192.095
X128.04Y-196.595
X128.04Y-205.345
X128.09Y-104.845
X128.09Y-109.345
X128.09Y-118.095
X128.09Y-132.855
X128.09Y-137.355
X128.09Y-146.105
X128.216Y-54.845
X128.216Y-82.845
X128.33Y-46.095
X128.33Y-50.595
X128.33Y-59.345
X128.33Y-74.095
X128.33Y-78.595
X128.33Y-87.345
X129.25Y-157.96
X129.25Y-160.5
X129.25Y-185.96
X129.25Y-188.5
X129.3Y-98.71
X129.3Y-101.25
X129.3Y-126.72
X129.3Y-129.26
X129.54Y-39.96
X129.54Y-42.5
X129.54Y-67.96
X129.54Y-70.5
X136.71Y-114.011
X136.71Y-118.261
X136.71Y-142.005
X136.71Y-146.255
X136.71Y-173.255
X136.71Y-177.505
X136.71Y-201.255
X136.71Y-205.505
X137.0Y-55.255
X137.0Y-59.505
X137.0Y-83.255
X137.0Y-87.505
X138.75Y-98.716
X138.75Y-101.256
X138.75Y-126.71
X138.75Y-129.25
X138.75Y-157.96
X138.75Y-160.5
X138.75Y-185.96
X138.75Y-188.5
X139.04Y-39.96
X139.04Y-42.5
X139.04Y-67.96
X139.04Y-70.5
X139.25Y-114.011
X139.25Y-118.261
X139.25Y-142.005
X139.25Y-146.255
X139.25Y-173.255
X139.25Y-177.505
X139.25Y-201.255
X139.25Y-205.505
X139.54Y-55.255
X139.54Y-59.505
X139.54Y-83.255
X139.54Y-87.505
X143.01Y-104.851
X143.01Y-113.851
X143.01Y-132.845
X143.01Y-141.845
X143.01Y-164.095
X143.01Y-173.095
X143.01Y-192.095
X143.01Y-201.095
X143.05Y-109.351
X143.05Y-118.351
X143.05Y-137.345
X143.05Y-146.345
X143.05Y-168.595
X143.05Y-177.595
X143.05Y-196.595
X143.05Y-205.595
X143.3Y-46.095
X143.3Y-55.095
X143.3Y-74.095
X143.3Y-83.095
X143.34Y-50.595
X143.34Y-59.595
X143.34Y-78.595
X143.34Y-87.595
X143.55Y-98.716
X143.55Y-101.256
X143.55Y-126.71
X143.55Y-129.25
X143.55Y-157.96
X143.55Y-160.5
X143.55Y-185.96
X143.55Y-188.5
X143.84Y-39.96
X143.84Y-42.5
X143.84Y-67.96
X143.84Y-70.5
X145.55Y-104.851
X145.55Y-113.851
X145.55Y-132.845
X145.55Y-141.845
X145.55Y-164.095
X145.55Y-173.095
X145.55Y-192.095
X145.55Y-201.095
X145.59Y-109.351
X145.59Y-118.351
X145.59Y-137.345
X145.59Y-146.345
X145.59Y-168.595
X145.59Y-177.595
X145.59Y-196.595
X145.59Y-205.595
X145.84Y-46.095
X145.84Y-55.095
X145.84Y-74.095
X145.84Y-83.095
X145.88Y-50.595
X145.88Y-59.595
X145.88Y-78.595
X145.88Y-87.595
X146.05Y-121.061
X146.05Y-123.601
X146.05Y-149.055
X146.05Y-151.595
X146.05Y-180.305
X146.05Y-182.845
X146.05Y-208.305
X146.05Y-210.845
X146.34Y-62.305
X146.34Y-64.845
X146.34Y-90.305
X146.34Y-92.845
X148.3Y-98.716
X148.3Y-101.256
X148.3Y-126.71
X148.3Y-129.25
X148.3Y-157.96
X148.3Y-160.5
X148.3Y-185.96
X148.3Y-188.5
X148.59Y-39.96
X148.59Y-42.5
X148.59Y-67.96
X148.59Y-70.5
X149.186Y-109.351
X149.186Y-118.351
X149.186Y-137.345
X149.186Y-146.345
X149.186Y-168.595
X149.186Y-177.595
X149.186Y-196.595
X149.186Y-205.595
X149.26Y-113.851
X149.26Y-141.845
X149.26Y-173.095
X149.26Y-201.095
X149.3Y-104.851
X149.3Y-132.845
X149.3Y-164.095
X149.3Y-192.095
X149.476Y-50.595
X149.476Y-59.595
X149.476Y-78.595
X149.476Y-87.595
X149.55Y-55.095
X149.55Y-83.095
X149.59Y-46.095
X149.59Y-74.095
X150.8Y-121.061
X150.8Y-123.601
X150.8Y-149.055
X150.8Y-151.595
X150.8Y-180.305
X150.8Y-182.845
X150.8Y-208.305
X150.8Y-210.845
X151.09Y-62.305
X151.09Y-64.845
X151.09Y-90.305
X151.09Y-92.845
X151.726Y-109.351
X151.726Y-118.351
X151.726Y-137.345
X151.726Y-146.345
X151.726Y-168.595
X151.726Y-177.595
X151.726Y-196.595
X151.726Y-205.595
X151.8Y-113.851
X151.8Y-141.845
X151.8Y-173.095
X151.8Y-201.095
X151.84Y-104.851
X151.84Y-132.845
X151.84Y-164.095
X151.84Y-192.095
X152.016Y-50.595
X152.016Y-59.595
X152.016Y-78.595
X152.016Y-87.595
X152.09Y-55.095
X152.09Y-83.095
X152.13Y-46.095
X152.13Y-74.095
X153.05Y-98.716
X153.05Y-101.256
X153.05Y-126.71
X153.05Y-129.25
X153.05Y-157.96
X153.05Y-160.5
X153.05Y-185.96
X153.05Y-188.5
X153.34Y-39.96
X153.34Y-42.5
X153.34Y-67.96
X153.34Y-70.5
X155.55Y-121.101
X155.55Y-123.641
X155.55Y-149.095
X155.55Y-151.635
X155.55Y-180.345
X155.55Y-182.885
X155.55Y-208.345
X155.55Y-210.885
X155.84Y-62.345
X155.84Y-64.885
X155.84Y-90.345
X155.84Y-92.885
X157.8Y-98.716
X157.8Y-101.256
X157.8Y-126.71
X157.8Y-129.25
X157.8Y-157.96
X157.8Y-160.5
X157.8Y-185.96
X157.8Y-188.5
X158.09Y-39.96
X158.09Y-42.5
X158.09Y-67.96
X158.09Y-70.5
X160.3Y-121.106
X160.3Y-123.646
X160.3Y-149.1
X160.3Y-151.64
X160.3Y-180.35
X160.3Y-182.89
X160.3Y-208.35
X160.3Y-210.89
X160.59Y-62.35
X160.59Y-64.89
X160.59Y-90.35
X160.59Y-92.89
X161.76Y-113.601
X161.76Y-141.595
X161.76Y-172.845
X161.76Y-200.845
X161.8Y-104.851
X161.8Y-118.101
X161.8Y-132.845
X161.8Y-146.095
X161.8Y-164.095
X161.8Y-177.345
X161.8Y-192.095
X161.8Y-205.345
X161.936Y-109.351
X161.936Y-137.345
X161.936Y-168.595
X161.936Y-196.595
X162.05Y-54.845
X162.05Y-82.845
X162.09Y-46.095
X162.09Y-59.345
X162.09Y-74.095
X162.09Y-87.345
X162.226Y-50.595
X162.226Y-78.595
X162.55Y-98.716
X162.55Y-101.256
X162.55Y-126.71
X162.55Y-129.25
X162.55Y-157.96
X162.55Y-160.5
X162.55Y-185.96
X162.55Y-188.5
X162.84Y-39.96
X162.84Y-42.5
X162.84Y-67.96
X162.84Y-70.5
X164.3Y-113.601
X164.3Y-141.595
X164.3Y-172.845
X164.3Y-200.845
X164.34Y-104.851
X164.34Y-118.101
X164.34Y-132.845
X164.34Y-146.095
X164.34Y-164.095
X164.34Y-177.345
X164.34Y-192.095
X164.34Y-205.345
X164.476Y-109.351
X164.476Y-137.345
X164.476Y-168.595
X164.476Y-196.595
X164.59Y-54.845
X164.59Y-82.845
X164.63Y-46.095
X164.63Y-59.345
X164.63Y-74.095
X164.63Y-87.345
X164.766Y-50.595
X164.766Y-78.595
X165.05Y-121.061
X165.05Y-123.601
X165.05Y-149.055
X165.05Y-151.595
X165.05Y-180.305
X165.05Y-182.845
X165.05Y-208.305
X165.05Y-210.845
X165.34Y-62.305
X165.34Y-64.845
X165.34Y-90.305
X165.34Y-92.845
X167.05Y-98.716
X167.05Y-101.256
X167.05Y-126.71
X167.05Y-129.25
X167.05Y-157.96
X167.05Y-160.5
X167.05Y-185.96
X167.05Y-188.5
X167.34Y-39.96
X167.34Y-42.5
X167.34Y-67.96
X167.34Y-70.5
X167.936Y-113.601
X167.936Y-141.595
X167.936Y-172.845
X167.936Y-200.845
X168.05Y-104.851
X168.05Y-109.351
X168.05Y-118.101
X168.05Y-132.845
X168.05Y-137.345
X168.05Y-146.095
X168.05Y-164.095
X168.05Y-168.595
X168.05Y-177.345
X168.05Y-192.095
X168.05Y-196.595
X168.05Y-205.345
X168.226Y-54.845
X168.226Y-82.845
X168.34Y-46.095
X168.34Y-50.595
X168.34Y-59.345
X168.34Y-74.095
X168.34Y-78.595
X168.34Y-87.345
X169.8Y-121.061
X169.8Y-123.601
X169.8Y-149.055
X169.8Y-151.595
X169.8Y-180.305
X169.8Y-182.845
X169.8Y-208.305
X169.8Y-210.845
X170.09Y-62.305
X170.09Y-64.845
X170.09Y-90.305
X170.09Y-92.845
X170.476Y-113.601
X170.476Y-141.595
X170.476Y-172.845
X170.476Y-200.845
X170.59Y-104.851
X170.59Y-109.351
X170.59Y-118.101
X170.59Y-132.845
X170.59Y-137.345
X170.59Y-146.095
X170.59Y-164.095
X170.59Y-168.595
X170.59Y-177.345
X170.59Y-192.095
X170.59Y-196.595
X170.59Y-205.345
X170.766Y-54.845
X170.766Y-82.845
X170.88Y-46.095
X170.88Y-50.595
X170.88Y-59.345
X170.88Y-74.095
X170.88Y-78.595
X170.88Y-87.345
X171.8Y-98.716
X171.8Y-101.256
X171.8Y-126.71
X171.8Y-129.25
X171.8Y-157.96
X171.8Y-160.5
X171.8Y-185.96
X171.8Y-188.5
X172.09Y-39.96
X172.09Y-42.5
X172.09Y-67.96
X172.09Y-70.5
X179.16Y-201.215
X179.16Y-205.465
X179.166Y-142.016
X179.166Y-146.266
X179.171Y-114.005
X179.171Y-118.255
X179.21Y-173.255
X179.21Y-177.505
X179.5Y-55.255
X179.5Y-59.505
X179.5Y-83.255
X179.5Y-87.505
X181.2Y-185.92
X181.2Y-188.46
X181.206Y-126.721
X181.206Y-129.261
X181.211Y-98.71
X181.211Y-101.25
X181.25Y-157.96
X181.25Y-160.5
X181.54Y-39.96
X181.54Y-42.5
X181.54Y-67.96
X181.54Y-70.5
X181.7Y-201.215
X181.7Y-205.465
X181.706Y-142.016
X181.706Y-146.266
X181.711Y-114.005
X181.711Y-118.255
X181.75Y-173.255
X181.75Y-177.505
X182.04Y-55.255
X182.04Y-59.505
X182.04Y-83.255
X182.04Y-87.505
X185.46Y-192.055
X185.46Y-201.055
X185.466Y-132.856
X185.466Y-141.856
X185.471Y-104.845
X185.471Y-113.845
X185.5Y-196.555
X185.5Y-205.555
X185.506Y-137.356
X185.506Y-146.356
X185.51Y-164.095
X185.51Y-173.095
X185.511Y-109.345
X185.511Y-118.345
X185.55Y-168.595
X185.55Y-177.595
X185.8Y-46.095
X185.8Y-55.095
X185.8Y-74.095
X185.8Y-83.095
X185.84Y-50.595
X185.84Y-59.595
X185.84Y-78.595
X185.84Y-87.595
X186.0Y-185.92
X186.0Y-188.46
X186.006Y-126.721
X186.006Y-129.261
X186.011Y-98.71
X186.011Y-101.25
X186.05Y-157.96
X186.05Y-160.5
X186.34Y-39.96
X186.34Y-42.5
X186.34Y-67.96
X186.34Y-70.5
X188.0Y-192.055
X188.0Y-201.055
X188.006Y-132.856
X188.006Y-141.856
X188.011Y-104.845
X188.011Y-113.845
X188.04Y-196.555
X188.04Y-205.555
X188.046Y-137.356
X188.046Y-146.356
X188.05Y-164.095
X188.05Y-173.095
X188.051Y-109.345
X188.051Y-118.345
X188.09Y-168.595
X188.09Y-177.595
X188.34Y-46.095
X188.34Y-55.095
X188.34Y-74.095
X188.34Y-83.095
X188.38Y-50.595
X188.38Y-59.595
X188.38Y-78.595
X188.38Y-87.595
X188.5Y-208.265
X188.5Y-210.805
X188.506Y-149.066
X188.506Y-151.606
X188.511Y-121.055
X188.511Y-123.595
X188.55Y-180.305
X188.55Y-182.845
X188.84Y-62.305
X188.84Y-64.845
X188.84Y-90.305
X188.84Y-92.845
X190.75Y-185.92
X190.75Y-188.46
X190.756Y-126.721
X190.756Y-129.261
X190.761Y-98.71
X190.761Y-101.25
X190.8Y-157.96
X190.8Y-160.5
X191.09Y-39.96
X191.09Y-42.5
X191.09Y-67.96
X191.09Y-70.5
X191.636Y-196.555
X191.636Y-205.555
X191.642Y-137.356
X191.642Y-146.356
X191.647Y-109.345
X191.647Y-118.345
X191.686Y-168.595
X191.686Y-177.595
X191.71Y-201.055
X191.716Y-141.856
X191.721Y-113.845
X191.75Y-192.055
X191.756Y-132.856
X191.76Y-173.095
X191.761Y-104.845
X191.8Y-164.095
X191.976Y-50.595
X191.976Y-59.595
X191.976Y-78.595
X191.976Y-87.595
X192.05Y-55.095
X192.05Y-83.095
X192.09Y-46.095
X192.09Y-74.095
X193.25Y-208.265
X193.25Y-210.805
X193.256Y-149.066
X193.256Y-151.606
X193.261Y-121.055
X193.261Y-123.595
X193.3Y-180.305
X193.3Y-182.845
X193.59Y-62.305
X193.59Y-64.845
X193.59Y-90.305
X193.59Y-92.845
X194.176Y-196.555
X194.176Y-205.555
X194.182Y-137.356
X194.182Y-146.356
X194.187Y-109.345
X194.187Y-118.345
X194.226Y-168.595
X194.226Y-177.595
X194.25Y-201.055
X194.256Y-141.856
X194.261Y-113.845
X194.29Y-192.055
X194.296Y-132.856
X194.3Y-173.095
X194.301Y-104.845
X194.34Y-164.095
X194.516Y-50.595
X194.516Y-59.595
X194.516Y-78.595
X194.516Y-87.595
X194.59Y-55.095
X194.59Y-83.095
X194.63Y-46.095
X194.63Y-74.095
X195.5Y-185.92
X195.5Y-188.46
X195.506Y-126.721
X195.506Y-129.261
X195.511Y-98.71
X195.511Y-101.25
X195.55Y-157.96
X195.55Y-160.5
X195.84Y-39.96
X195.84Y-42.5
X195.84Y-67.96
X195.84Y-70.5
X198.0Y-208.305
X198.0Y-210.845
X198.006Y-149.106
X198.006Y-151.646
X198.011Y-121.095
X198.011Y-123.635
X198.05Y-180.345
X198.05Y-182.885
X198.34Y-62.345
X198.34Y-64.885
X198.34Y-90.345
X198.34Y-92.885
X200.25Y-185.92
X200.25Y-188.46
X200.256Y-126.721
X200.256Y-129.261
X200.261Y-98.71
X200.261Y-101.25
X200.3Y-157.96
X200.3Y-160.5
X200.59Y-39.96
X200.59Y-42.5
X200.59Y-67.96
X200.59Y-70.5
X202.75Y-208.31
X202.75Y-210.85
X202.756Y-149.111
X202.756Y-151.651
X202.761Y-121.1
X202.761Y-123.64
X202.8Y-180.35
X202.8Y-182.89
X203.09Y-62.35
X203.09Y-64.89
X203.09Y-90.35
X203.09Y-92.89
X204.21Y-200.805
X204.216Y-141.606
X204.221Y-113.595
X204.25Y-192.055
X204.25Y-205.305
X204.256Y-132.856
X204.256Y-146.106
X204.26Y-172.845
X204.261Y-104.845
X204.261Y-118.095
X204.3Y-164.095
X204.3Y-177.345
X204.386Y-196.555
X204.392Y-137.356
X204.397Y-109.345
X204.436Y-168.595
X204.55Y-54.845
X204.55Y-82.845
X204.59Y-46.095
X204.59Y-59.345
X204.59Y-74.095
X204.59Y-87.345
X204.726Y-50.595
X204.726Y-78.595
X205.0Y-185.92
X205.0Y-188.46
X205.006Y-126.721
X205.006Y-129.261
X205.011Y-98.71
X205.011Y-101.25
X205.05Y-157.96
X205.05Y-160.5
X205.34Y-39.96
X205.34Y-42.5
X205.34Y-67.96
X205.34Y-70.5
X206.75Y-200.805
X206.756Y-141.606
X206.761Y-113.595
X206.79Y-192.055
X206.79Y-205.305
X206.796Y-132.856
X206.796Y-146.106
X206.8Y-172.845
X206.801Y-104.845
X206.801Y-118.095
X206.84Y-164.095
X206.84Y-177.345
X206.926Y-196.555
X206.932Y-137.356
X206.937Y-109.345
X206.976Y-168.595
X207.09Y-54.845
X207.09Y-82.845
X207.13Y-46.095
X207.13Y-59.345
X207.13Y-74.095
X207.13Y-87.345
X207.266Y-50.595
X207.266Y-78.595
X207.5Y-208.265
X207.5Y-210.805
X207.506Y-149.066
X207.506Y-151.606
X207.511Y-121.055
X207.511Y-123.595
X207.55Y-180.305
X207.55Y-182.845
X207.84Y-62.305
X207.84Y-64.845
X207.84Y-90.305
X207.84Y-92.845
X209.5Y-185.92
X209.5Y-188.46
X209.506Y-126.721
X209.506Y-129.261
X209.511Y-98.71
X209.511Y-101.25
X209.55Y-157.96
X209.55Y-160.5
X209.84Y-39.96
X209.84Y-42.5
X209.84Y-67.96
X209.84Y-70.5
X210.386Y-200.805
X210.392Y-141.606
X210.397Y-113.595
X210.436Y-172.845
X210.5Y-192.055
X210.5Y-196.555
X210.5Y-205.305
X210.506Y-132.856
X210.506Y-137.356
X210.506Y-146.106
X210.511Y-104.845
X210.511Y-109.345
X210.511Y-118.095
X210.55Y-164.095
X210.55Y-168.595
X210.55Y-177.345
X210.726Y-54.845
X210.726Y-82.845
X210.84Y-46.095
X210.84Y-50.595
X210.84Y-59.345
X210.84Y-74.095
X210.84Y-78.595
X210.84Y-87.345
X212.25Y-208.265
X212.25Y-210.805
X212.256Y-149.066
X212.256Y-151.606
X212.261Y-121.055
X212.261Y-123.595
X212.3Y-180.305
X212.3Y-182.845
X212.59Y-62.305
X212.59Y-64.845
X212.59Y-90.305
X212.59Y-92.845
X212.926Y-200.805
X212.932Y-141.606
X212.937Y-113.595
X212.976Y-172.845
X213.04Y-192.055
X213.04Y-196.555
X213.04Y-205.305
X213.046Y-132.856
X213.046Y-137.356
X213.046Y-146.106
X213.051Y-104.845
X213.051Y-109.345
X213.051Y-118.095
X213.09Y-164.095
X213.09Y-168.595
X213.09Y-177.345
X213.266Y-54.845
X213.266Y-82.845
X213.38Y-46.095
X213.38Y-50.595
X213.38Y-59.345
X213.38Y-74.095
X213.38Y-78.595
X213.38Y-87.345
X214.25Y-185.92
X214.25Y-188.46
X214.256Y-126.721
X214.256Y-129.261
X214.261Y-98.71
X214.261Y-101.25
X214.3Y-157.96
X214.3Y-160.5
X214.59Y-39.96
X214.59Y-42.5
X214.59Y-67.96
X214.59Y-70.5
T4
X33.57Y-212.365
X36.11Y-212.365
X38.65Y-212.365
X41.19Y-212.365
X43.73Y-212.365
X46.27Y-212.365
X48.81Y-212.365
X51.35Y-212.365
X53.89Y-212.365
X56.43Y-212.365
X61.97Y-211.975
X64.51Y-211.975
X67.05Y-211.975
X69.59Y-211.975
X72.13Y-211.975
X74.67Y-211.975
X77.21Y-211.975
X79.75Y-211.975
X82.29Y-211.975
X84.83Y-211.975
M30
