%TF.GenerationSoftware,KiCad,Pcbnew,9.0.2*%
%TF.CreationDate,2026-05-12T22:36:31-04:00*%
%TF.ProjectId,Santas Microfactory - Chutes PCB 1,53616e74-6173-4204-9d69-63726f666163,rev?*%
%TF.SameCoordinates,Original*%
%TF.FileFunction,Profile,NP*%
%FSLAX46Y46*%
G04 Gerber Fmt 4.6, Leading zero omitted, Abs format (unit mm)*
G04 Created by KiCad (PCBNEW 9.0.2) date 2026-05-12 22:36:31*
%MOMM*%
%LPD*%
G01*
G04 APERTURE LIST*
%TA.AperFunction,Profile*%
%ADD10C,0.200000*%
%TD*%
%TA.AperFunction,Profile*%
%ADD11C,0.050000*%
%TD*%
%TA.AperFunction,Profile*%
%ADD12C,0.100000*%
%TD*%
G04 APERTURE END LIST*
D10*
X27000014Y-220749986D02*
X27000014Y-33749986D01*
X29000014Y-222749986D02*
G75*
G02*
X27000014Y-220749986I-14J1999986D01*
G01*
X227000014Y-220749986D02*
G75*
G02*
X225000014Y-222750014I-2000014J-14D01*
G01*
X27000014Y-33749986D02*
G75*
G02*
X29000014Y-31750014I1999986J-14D01*
G01*
X227000014Y-33749986D02*
X227000014Y-220749986D01*
D11*
X29000014Y-31749986D02*
X43350014Y-31699986D01*
X127650014Y-31699986D02*
X225000014Y-31749986D01*
D10*
X225000014Y-222749986D02*
X29000014Y-222749986D01*
X225000014Y-31749986D02*
G75*
G02*
X227000014Y-33749986I-14J-2000014D01*
G01*
D12*
%TO.C,J4*%
X43350000Y-23800000D02*
X43850000Y-23300000D01*
X43350000Y-31700000D02*
X43350000Y-23800000D01*
X114050000Y-23300000D02*
X43850000Y-23300000D01*
X114550000Y-23800000D02*
X114050000Y-23300000D01*
X114550000Y-30750000D02*
X114550000Y-23800000D01*
X116450000Y-23800000D02*
X116950000Y-23300000D01*
X116450000Y-30750000D02*
X116450000Y-23800000D01*
X127150000Y-23300000D02*
X116950000Y-23300000D01*
X127650000Y-23800000D02*
X127150000Y-23300000D01*
X127650000Y-31700000D02*
X127650000Y-23800000D01*
X116450000Y-30750000D02*
G75*
G02*
X114550000Y-30750000I-950000J0D01*
G01*
%TD*%
M02*
