%TF.GenerationSoftware,KiCad,Pcbnew,9.0.2*%
%TF.CreationDate,2026-05-12T21:46:43-04:00*%
%TF.ProjectId,Santas Microfactory - Main Conveyor,53616e74-6173-4204-9d69-63726f666163,rev?*%
%TF.SameCoordinates,Original*%
%TF.FileFunction,Copper,L3,Inr*%
%TF.FilePolarity,Positive*%
%FSLAX46Y46*%
G04 Gerber Fmt 4.6, Leading zero omitted, Abs format (unit mm)*
G04 Created by KiCad (PCBNEW 9.0.2) date 2026-05-12 21:46:43*
%MOMM*%
%LPD*%
G01*
G04 APERTURE LIST*
G04 Aperture macros list*
%AMRoundRect*
0 Rectangle with rounded corners*
0 $1 Rounding radius*
0 $2 $3 $4 $5 $6 $7 $8 $9 X,Y pos of 4 corners*
0 Add a 4 corners polygon primitive as box body*
4,1,4,$2,$3,$4,$5,$6,$7,$8,$9,$2,$3,0*
0 Add four circle primitives for the rounded corners*
1,1,$1+$1,$2,$3*
1,1,$1+$1,$4,$5*
1,1,$1+$1,$6,$7*
1,1,$1+$1,$8,$9*
0 Add four rect primitives between the rounded corners*
20,1,$1+$1,$2,$3,$4,$5,0*
20,1,$1+$1,$4,$5,$6,$7,0*
20,1,$1+$1,$6,$7,$8,$9,0*
20,1,$1+$1,$8,$9,$2,$3,0*%
G04 Aperture macros list end*
%TA.AperFunction,ComponentPad*%
%ADD10RoundRect,0.250000X0.550000X-0.550000X0.550000X0.550000X-0.550000X0.550000X-0.550000X-0.550000X0*%
%TD*%
%TA.AperFunction,ComponentPad*%
%ADD11C,1.600000*%
%TD*%
%TA.AperFunction,ComponentPad*%
%ADD12RoundRect,0.250000X-0.550000X-0.550000X0.550000X-0.550000X0.550000X0.550000X-0.550000X0.550000X0*%
%TD*%
%TA.AperFunction,ComponentPad*%
%ADD13R,1.700000X1.700000*%
%TD*%
%TA.AperFunction,ComponentPad*%
%ADD14C,1.700000*%
%TD*%
%TA.AperFunction,ComponentPad*%
%ADD15R,1.500000X1.050000*%
%TD*%
%TA.AperFunction,ComponentPad*%
%ADD16O,1.500000X1.050000*%
%TD*%
%TA.AperFunction,ComponentPad*%
%ADD17RoundRect,0.250000X0.550000X0.550000X-0.550000X0.550000X-0.550000X-0.550000X0.550000X-0.550000X0*%
%TD*%
%TA.AperFunction,ComponentPad*%
%ADD18R,1.050000X1.500000*%
%TD*%
%TA.AperFunction,ComponentPad*%
%ADD19O,1.050000X1.500000*%
%TD*%
%TA.AperFunction,ComponentPad*%
%ADD20RoundRect,0.250000X-0.550000X0.550000X-0.550000X-0.550000X0.550000X-0.550000X0.550000X0.550000X0*%
%TD*%
%TA.AperFunction,ViaPad*%
%ADD21C,1.600000*%
%TD*%
%TA.AperFunction,Conductor*%
%ADD22C,0.400000*%
%TD*%
G04 APERTURE END LIST*
D10*
%TO.N,NLOAD3*%
%TO.C,D70*%
X203250000Y-162540000D03*
D11*
%TO.N,TAP_C6*%
X203250000Y-160000000D03*
%TD*%
D12*
%TO.N,Net-(D43-K)*%
%TO.C,D43*%
X64085686Y-202420000D03*
D11*
%TO.N,Net-(D37-A)*%
X66625686Y-202420000D03*
%TD*%
D13*
%TO.N,OUT_G0*%
%TO.C,J3*%
X102680000Y-221750000D03*
D14*
%TO.N,OUT_G1*%
X100140000Y-221750000D03*
%TO.N,TAP_G2*%
X97600000Y-221750000D03*
%TO.N,TAP_G3*%
X95060000Y-221750000D03*
%TO.N,OUT_G4*%
X92520000Y-221750000D03*
%TO.N,TAP_G5*%
X89980000Y-221750000D03*
%TO.N,TAP_G6*%
X87440000Y-221750000D03*
%TO.N,OUT_G7*%
X84900000Y-221750000D03*
%TO.N,TAP_G8*%
X82360000Y-221750000D03*
%TO.N,TAP_G9*%
X79820000Y-221750000D03*
%TD*%
D11*
%TO.N,+5V*%
%TO.C,R3*%
X109864315Y-169460000D03*
%TO.N,NLOAD2*%
X109864315Y-172000000D03*
%TD*%
D15*
%TO.N,NLOAD1*%
%TO.C,Q2*%
X90404315Y-175960000D03*
D16*
%TO.N,LOAD1*%
X90404315Y-177230000D03*
%TO.N,GND*%
X90404315Y-178500000D03*
%TD*%
D10*
%TO.N,Net-(D61-K)*%
%TO.C,D61*%
X198750000Y-106750000D03*
D11*
%TO.N,TAP_C2*%
X198750000Y-104210000D03*
%TD*%
%TO.N,+5V*%
%TO.C,R16*%
X141864315Y-169125000D03*
%TO.N,LOAD4*%
X141864315Y-171665000D03*
%TD*%
D15*
%TO.N,N/C*%
%TO.C,DFF12*%
X117850000Y-89145084D03*
D12*
X123260000Y-87845084D03*
X123260000Y-96845084D03*
X129435686Y-92345084D03*
X129435686Y-101345084D03*
X129510000Y-96845084D03*
X129550000Y-87845084D03*
D15*
X136550000Y-97805084D03*
X136600000Y-88825084D03*
D12*
X142010000Y-96595084D03*
X142050000Y-87845084D03*
X148185686Y-96595084D03*
X148300000Y-87845084D03*
X148300000Y-92345084D03*
X148300000Y-101095084D03*
D16*
X117850000Y-90415084D03*
D11*
X119000000Y-84250000D03*
X119500000Y-97005084D03*
X119500000Y-101255084D03*
X123800000Y-84250000D03*
X125800000Y-87845084D03*
X125800000Y-96845084D03*
X125840000Y-92345084D03*
X125840000Y-101345084D03*
X126300000Y-104055084D03*
X128550000Y-84250000D03*
X131050000Y-104055084D03*
X131975686Y-92345084D03*
X131975686Y-101345084D03*
X132050000Y-96845084D03*
X132090000Y-87845084D03*
X133300000Y-84250000D03*
X135800000Y-104095084D03*
D16*
X136550000Y-99075084D03*
X136600000Y-90095084D03*
D11*
X138050000Y-84250000D03*
X140550000Y-104100084D03*
X142800000Y-84250000D03*
X144550000Y-96595084D03*
X144590000Y-87845084D03*
X144590000Y-101095084D03*
X144725686Y-92345084D03*
X145300000Y-104055084D03*
X147300000Y-84250000D03*
X150050000Y-104055084D03*
X150725686Y-96595084D03*
X150840000Y-87845084D03*
X150840000Y-92345084D03*
X150840000Y-101095084D03*
X152050000Y-84250000D03*
D16*
X155300000Y-90115084D03*
X155300000Y-98825084D03*
D11*
%TO.N,+5V*%
X119000000Y-81710000D03*
X123800000Y-81710000D03*
X126300000Y-106595084D03*
X128550000Y-81710000D03*
X131050000Y-106595084D03*
X133300000Y-81710000D03*
X135800000Y-106635084D03*
X138050000Y-81710000D03*
X140550000Y-106640084D03*
X142800000Y-81710000D03*
X145300000Y-106595084D03*
X147300000Y-81710000D03*
X150050000Y-106595084D03*
X152050000Y-81710000D03*
D16*
%TO.N,GND*%
X117850000Y-91685084D03*
X136550000Y-100345084D03*
X136600000Y-91365084D03*
X155300000Y-91385084D03*
X155300000Y-100095084D03*
D12*
%TO.N,NRESET*%
X116960000Y-97005084D03*
%TO.N,OUT_C0*%
X116960000Y-101255084D03*
%TO.N,CLK*%
X123300000Y-92345084D03*
X123300000Y-101345084D03*
%TO.N,NCLK*%
X142050000Y-101095084D03*
X142185686Y-92345084D03*
D15*
%TO.N,OUT_C1*%
X155300000Y-88845084D03*
%TO.N,NOUT _C1*%
X155300000Y-97555084D03*
%TD*%
D12*
%TO.N,INPUT4*%
%TO.C,D29*%
X138040001Y-188000000D03*
D11*
%TO.N,Net-(D29-A)*%
X140580001Y-188000000D03*
%TD*%
D15*
%TO.N,NREQ0*%
%TO.C,Q13*%
X71000000Y-198970000D03*
D16*
%TO.N,Net-(D37-A)*%
X71000000Y-200240000D03*
%TO.N,GND*%
X71000000Y-201510000D03*
%TD*%
D11*
%TO.N,+5V*%
%TO.C,R32*%
X92000000Y-182420000D03*
%TO.N,NREQ1*%
X92000000Y-184960000D03*
%TD*%
D15*
%TO.N,Net-(D44-K)*%
%TO.C,Q20*%
X79450000Y-201200000D03*
D16*
%TO.N,CLK_TICK*%
X79450000Y-199930000D03*
%TO.N,GND*%
X79450000Y-198660000D03*
%TD*%
D11*
%TO.N,+5V*%
%TO.C,R28*%
X115000000Y-182420000D03*
%TO.N,Net-(D28-A)*%
X115000000Y-184960000D03*
%TD*%
D15*
%TO.N,N/C*%
%TO.C,DFF3*%
X160350000Y-61145084D03*
D12*
X165760000Y-59845084D03*
X165760000Y-68845084D03*
X171935686Y-64345084D03*
X171935686Y-73345084D03*
X172010000Y-68845084D03*
X172050000Y-59845084D03*
D15*
X179050000Y-69805084D03*
X179100000Y-60825084D03*
D12*
X184510000Y-68595084D03*
X184550000Y-59845084D03*
X190685686Y-68595084D03*
X190800000Y-59845084D03*
X190800000Y-64345084D03*
X190800000Y-73095084D03*
D16*
X160350000Y-62415084D03*
D11*
X161500000Y-56250000D03*
X162000000Y-69005084D03*
X162000000Y-73255084D03*
X166300000Y-56250000D03*
X168300000Y-59845084D03*
X168300000Y-68845084D03*
X168340000Y-64345084D03*
X168340000Y-73345084D03*
X168800000Y-76055084D03*
X171050000Y-56250000D03*
X173550000Y-76055084D03*
X174475686Y-64345084D03*
X174475686Y-73345084D03*
X174550000Y-68845084D03*
X174590000Y-59845084D03*
X175800000Y-56250000D03*
X178300000Y-76095084D03*
D16*
X179050000Y-71075084D03*
X179100000Y-62095084D03*
D11*
X180550000Y-56250000D03*
X183050000Y-76100084D03*
X185300000Y-56250000D03*
X187050000Y-68595084D03*
X187090000Y-59845084D03*
X187090000Y-73095084D03*
X187225686Y-64345084D03*
X187800000Y-76055084D03*
X189800000Y-56250000D03*
X192550000Y-76055084D03*
X193225686Y-68595084D03*
X193340000Y-59845084D03*
X193340000Y-64345084D03*
X193340000Y-73095084D03*
X194550000Y-56250000D03*
D16*
X197800000Y-62115084D03*
X197800000Y-70825084D03*
D11*
%TO.N,+5V*%
X161500000Y-53710000D03*
X166300000Y-53710000D03*
X168800000Y-78595084D03*
X171050000Y-53710000D03*
X173550000Y-78595084D03*
X175800000Y-53710000D03*
X178300000Y-78635084D03*
X180550000Y-53710000D03*
X183050000Y-78640084D03*
X185300000Y-53710000D03*
X187800000Y-78595084D03*
X189800000Y-53710000D03*
X192550000Y-78595084D03*
X194550000Y-53710000D03*
D16*
%TO.N,GND*%
X160350000Y-63685084D03*
X179050000Y-72345084D03*
X179100000Y-63365084D03*
X197800000Y-63385084D03*
X197800000Y-72095084D03*
D12*
%TO.N,NRESET*%
X159460000Y-69005084D03*
%TO.N,OUT_G1*%
X159460000Y-73255084D03*
%TO.N,CLK*%
X165800000Y-64345084D03*
X165800000Y-73345084D03*
%TO.N,NCLK*%
X184550000Y-73095084D03*
X184685686Y-64345084D03*
D15*
%TO.N,Net-(D49-K)*%
X197800000Y-60845084D03*
%TO.N,NOUT_G2*%
X197800000Y-69555084D03*
%TD*%
D11*
%TO.N,GND*%
%TO.C,R7*%
X63864315Y-169430000D03*
%TO.N,Net-(D1-K)*%
X63864315Y-171970000D03*
%TD*%
%TO.N,+5V*%
%TO.C,R25*%
X59500000Y-182720000D03*
%TO.N,Net-(D25-A)*%
X59500000Y-185260000D03*
%TD*%
%TO.N,+5V*%
%TO.C,R38*%
X78500000Y-187670000D03*
%TO.N,Net-(D44-K)*%
X78500000Y-190210000D03*
%TD*%
D17*
%TO.N,Net-(D10-K)*%
%TO.C,D4*%
X117040001Y-174960000D03*
D11*
%TO.N,TAP_G6*%
X114500001Y-174960000D03*
%TD*%
%TO.N,+5V*%
%TO.C,R27*%
X96750000Y-182170000D03*
%TO.N,Net-(D27-A)*%
X96750000Y-184710000D03*
%TD*%
%TO.N,+5V*%
%TO.C,R29*%
X133154315Y-182455000D03*
%TO.N,Net-(D29-A)*%
X133154315Y-184995000D03*
%TD*%
%TO.N,+5V*%
%TO.C,R46*%
X124000000Y-182420000D03*
%TO.N,Net-(D40-A)*%
X124000000Y-184960000D03*
%TD*%
%TO.N,+5V*%
%TO.C,R23*%
X137654315Y-182410000D03*
%TO.N,REQ4*%
X137654315Y-184950000D03*
%TD*%
%TO.N,+5V*%
%TO.C,R48*%
X134910000Y-210630000D03*
%TO.N,Net-(D42-A)*%
X137450000Y-210630000D03*
%TD*%
D15*
%TO.N,REQ2*%
%TO.C,Q9*%
X108050000Y-189510000D03*
D16*
%TO.N,Net-(D27-A)*%
X108050000Y-190780000D03*
%TO.N,GND*%
X108050000Y-192050000D03*
%TD*%
D10*
%TO.N,Net-(D63-K)*%
%TO.C,D63*%
X156356693Y-162500000D03*
D11*
%TO.N,TAP_C5*%
X156356693Y-159960000D03*
%TD*%
D15*
%TO.N,N/C*%
%TO.C,DFF1*%
X75310000Y-61160000D03*
D12*
X80720000Y-59860000D03*
X80720000Y-68860000D03*
X86895686Y-64360000D03*
X86895686Y-73360000D03*
X86970000Y-68860000D03*
X87010000Y-59860000D03*
D15*
X94010000Y-69820000D03*
X94060000Y-60840000D03*
D12*
X99470000Y-68610000D03*
X99510000Y-59860000D03*
X105645686Y-68610000D03*
X105760000Y-59860000D03*
X105760000Y-64360000D03*
X105760000Y-73110000D03*
D16*
X75310000Y-62430000D03*
D11*
X76460000Y-56264916D03*
X76960000Y-69020000D03*
X76960000Y-73270000D03*
X81260000Y-56264916D03*
X83260000Y-59860000D03*
X83260000Y-68860000D03*
X83300000Y-64360000D03*
X83300000Y-73360000D03*
X83760000Y-76070000D03*
X86010000Y-56264916D03*
X88510000Y-76070000D03*
X89435686Y-64360000D03*
X89435686Y-73360000D03*
X89510000Y-68860000D03*
X89550000Y-59860000D03*
X90760000Y-56264916D03*
X93260000Y-76110000D03*
D16*
X94010000Y-71090000D03*
X94060000Y-62110000D03*
D11*
X95510000Y-56264916D03*
X98010000Y-76115000D03*
X100260000Y-56264916D03*
X102010000Y-68610000D03*
X102050000Y-59860000D03*
X102050000Y-73110000D03*
X102185686Y-64360000D03*
X102760000Y-76070000D03*
X104760000Y-56264916D03*
X107510000Y-76070000D03*
X108185686Y-68610000D03*
X108300000Y-59860000D03*
X108300000Y-64360000D03*
X108300000Y-73110000D03*
X109510000Y-56264916D03*
D16*
X112760000Y-62130000D03*
X112760000Y-70840000D03*
D11*
%TO.N,+5V*%
X76460000Y-53724916D03*
X81260000Y-53724916D03*
X83760000Y-78610000D03*
X86010000Y-53724916D03*
X88510000Y-78610000D03*
X90760000Y-53724916D03*
X93260000Y-78650000D03*
X95510000Y-53724916D03*
X98010000Y-78655000D03*
X100260000Y-53724916D03*
X102760000Y-78610000D03*
X104760000Y-53724916D03*
X107510000Y-78610000D03*
X109510000Y-53724916D03*
D16*
%TO.N,GND*%
X75310000Y-63700000D03*
X94010000Y-72360000D03*
X94060000Y-63380000D03*
X112760000Y-63400000D03*
X112760000Y-72110000D03*
D12*
%TO.N,NRESET*%
X74420000Y-69020000D03*
%TO.N,IN_G0*%
X74420000Y-73270000D03*
%TO.N,CLK*%
X80760000Y-64360000D03*
X80760000Y-73360000D03*
%TO.N,NCLK*%
X99510000Y-73110000D03*
X99645686Y-64360000D03*
D15*
%TO.N,OUT_G0*%
X112760000Y-60860000D03*
%TO.N,NOUT_G0*%
X112760000Y-69570000D03*
%TD*%
D10*
%TO.N,Net-(D62-K)*%
%TO.C,D62*%
X71250000Y-162864314D03*
D11*
%TO.N,TAP_C3*%
X71250000Y-160324314D03*
%TD*%
D15*
%TO.N,N/C*%
%TO.C,DFF9*%
X160300000Y-173030000D03*
D12*
X165710000Y-171730000D03*
X165710000Y-180730000D03*
X171885686Y-176230000D03*
X171885686Y-185230000D03*
X171960000Y-180730000D03*
X172000000Y-171730000D03*
D15*
X179000000Y-181690000D03*
X179050000Y-172710000D03*
D12*
X184460000Y-180480000D03*
X184500000Y-171730000D03*
X190635686Y-180480000D03*
X190750000Y-171730000D03*
X190750000Y-176230000D03*
X190750000Y-184980000D03*
D16*
X160300000Y-174300000D03*
D11*
X161450000Y-168134916D03*
X161950000Y-180890000D03*
X161950000Y-185140000D03*
X166250000Y-168134916D03*
X168250000Y-171730000D03*
X168250000Y-180730000D03*
X168290000Y-176230000D03*
X168290000Y-185230000D03*
X168750000Y-187940000D03*
X171000000Y-168134916D03*
X173500000Y-187940000D03*
X174425686Y-176230000D03*
X174425686Y-185230000D03*
X174500000Y-180730000D03*
X174540000Y-171730000D03*
X175750000Y-168134916D03*
X178250000Y-187980000D03*
D16*
X179000000Y-182960000D03*
X179050000Y-173980000D03*
D11*
X180500000Y-168134916D03*
X183000000Y-187985000D03*
X185250000Y-168134916D03*
X187000000Y-180480000D03*
X187040000Y-171730000D03*
X187040000Y-184980000D03*
X187175686Y-176230000D03*
X187750000Y-187940000D03*
X189750000Y-168134916D03*
X192500000Y-187940000D03*
X193175686Y-180480000D03*
X193290000Y-171730000D03*
X193290000Y-176230000D03*
X193290000Y-184980000D03*
X194500000Y-168134916D03*
D16*
X197750000Y-174000000D03*
X197750000Y-182710000D03*
D11*
%TO.N,+5V*%
X161450000Y-165594916D03*
X166250000Y-165594916D03*
X168750000Y-190480000D03*
X171000000Y-165594916D03*
X173500000Y-190480000D03*
X175750000Y-165594916D03*
X178250000Y-190520000D03*
X180500000Y-165594916D03*
X183000000Y-190525000D03*
X185250000Y-165594916D03*
X187750000Y-190480000D03*
X189750000Y-165594916D03*
X192500000Y-190480000D03*
X194500000Y-165594916D03*
D16*
%TO.N,GND*%
X160300000Y-175570000D03*
X179000000Y-184230000D03*
X179050000Y-175250000D03*
X197750000Y-175270000D03*
X197750000Y-183980000D03*
D12*
%TO.N,NRESET*%
X159410000Y-180890000D03*
%TO.N,OUT_G7*%
X159410000Y-185140000D03*
%TO.N,CLK*%
X165750000Y-176230000D03*
X165750000Y-185230000D03*
%TO.N,NCLK*%
X184500000Y-184980000D03*
X184635686Y-176230000D03*
D15*
%TO.N,Net-(D53-K)*%
X197750000Y-172730000D03*
%TO.N,NOUT_G8*%
X197750000Y-181440000D03*
%TD*%
D12*
%TO.N,Net-(D47-K)*%
%TO.C,D47*%
X138904315Y-201000000D03*
D11*
%TO.N,Net-(D41-A)*%
X141444315Y-201000000D03*
%TD*%
D15*
%TO.N,NREQ1*%
%TO.C,Q14*%
X89510000Y-198760000D03*
D16*
%TO.N,Net-(D38-A)*%
X89510000Y-200030000D03*
%TO.N,GND*%
X89510000Y-201300000D03*
%TD*%
D10*
%TO.N,NLOAD3*%
%TO.C,D58*%
X203250000Y-134614314D03*
D11*
%TO.N,TAP_G6*%
X203250000Y-132074314D03*
%TD*%
%TO.N,+5V*%
%TO.C,R26*%
X78500000Y-182420000D03*
%TO.N,Net-(D26-A)*%
X78500000Y-184960000D03*
%TD*%
D17*
%TO.N,Net-(D1-K)*%
%TO.C,D13*%
X62000001Y-179430000D03*
D11*
%TO.N,TAP_C2*%
X59460001Y-179430000D03*
%TD*%
%TO.N,+5V*%
%TO.C,R58*%
X207765887Y-162295000D03*
%TO.N,TAP_C6*%
X207765887Y-159755000D03*
%TD*%
D10*
%TO.N,NLOAD0*%
%TO.C,D55*%
X203272742Y-78614315D03*
D11*
%TO.N,TAP_G2*%
X203272742Y-76074315D03*
%TD*%
D18*
%TO.N,NREQ5*%
%TO.C,Q18*%
X149960000Y-207580000D03*
D19*
%TO.N,Net-(D42-A)*%
X151230000Y-207580000D03*
%TO.N,GND*%
X152500000Y-207580000D03*
%TD*%
D17*
%TO.N,Net-(D15-K)*%
%TO.C,D3*%
X98864315Y-174710000D03*
D11*
%TO.N,TAP_G5*%
X96324315Y-174710000D03*
%TD*%
%TO.N,+5V*%
%TO.C,R47*%
X142154315Y-182405000D03*
%TO.N,Net-(D41-A)*%
X142154315Y-184945000D03*
%TD*%
D15*
%TO.N,N/C*%
%TO.C,DFF18*%
X202800000Y-145050000D03*
D12*
X208210000Y-143750000D03*
X208210000Y-152750000D03*
X214385686Y-148250000D03*
X214385686Y-157250000D03*
X214460000Y-152750000D03*
X214500000Y-143750000D03*
D15*
X221500000Y-153710000D03*
X221550000Y-144730000D03*
D12*
X226960000Y-152500000D03*
X227000000Y-143750000D03*
X233135686Y-152500000D03*
X233250000Y-143750000D03*
X233250000Y-148250000D03*
X233250000Y-157000000D03*
D16*
X202800000Y-146320000D03*
D11*
X203950000Y-140154916D03*
X204450000Y-152910000D03*
X204450000Y-157160000D03*
X208750000Y-140154916D03*
X210750000Y-143750000D03*
X210750000Y-152750000D03*
X210790000Y-148250000D03*
X210790000Y-157250000D03*
X211250000Y-159960000D03*
X213500000Y-140154916D03*
X216000000Y-159960000D03*
X216925686Y-148250000D03*
X216925686Y-157250000D03*
X217000000Y-152750000D03*
X217040000Y-143750000D03*
X218250000Y-140154916D03*
X220750000Y-160000000D03*
D16*
X221500000Y-154980000D03*
X221550000Y-146000000D03*
D11*
X223000000Y-140154916D03*
X225500000Y-160005000D03*
X227750000Y-140154916D03*
X229500000Y-152500000D03*
X229540000Y-143750000D03*
X229540000Y-157000000D03*
X229675686Y-148250000D03*
X230250000Y-159960000D03*
X232250000Y-140154916D03*
X235000000Y-159960000D03*
X235675686Y-152500000D03*
X235790000Y-143750000D03*
X235790000Y-148250000D03*
X235790000Y-157000000D03*
X237000000Y-140154916D03*
D16*
X240250000Y-146020000D03*
X240250000Y-154730000D03*
D11*
%TO.N,+5V*%
X203950000Y-137614916D03*
X208750000Y-137614916D03*
X211250000Y-162500000D03*
X213500000Y-137614916D03*
X216000000Y-162500000D03*
X218250000Y-137614916D03*
X220750000Y-162540000D03*
X223000000Y-137614916D03*
X225500000Y-162545000D03*
X227750000Y-137614916D03*
X230250000Y-162500000D03*
X232250000Y-137614916D03*
X235000000Y-162500000D03*
X237000000Y-137614916D03*
D16*
%TO.N,GND*%
X202800000Y-147590000D03*
X221500000Y-156250000D03*
X221550000Y-147270000D03*
X240250000Y-147290000D03*
X240250000Y-156000000D03*
D12*
%TO.N,NRESET*%
X201910000Y-152910000D03*
%TO.N,TAP_C6*%
X201910000Y-157160000D03*
%TO.N,CLK*%
X208250000Y-148250000D03*
X208250000Y-157250000D03*
%TO.N,NCLK*%
X227000000Y-157000000D03*
X227135686Y-148250000D03*
D15*
%TO.N,OUT_C7*%
X240250000Y-144750000D03*
%TO.N,NOUT _C7*%
X240250000Y-153460000D03*
%TD*%
D11*
%TO.N,+5V*%
%TO.C,R39*%
X96750000Y-187420000D03*
%TO.N,Net-(D45-K)*%
X96750000Y-189960000D03*
%TD*%
D15*
%TO.N,N/C*%
%TO.C,DFF20*%
X202800000Y-201070000D03*
D12*
X208210000Y-199770000D03*
X208210000Y-208770000D03*
X214385686Y-204270000D03*
X214385686Y-213270000D03*
X214460000Y-208770000D03*
X214500000Y-199770000D03*
D15*
X221500000Y-209730000D03*
X221550000Y-200750000D03*
D12*
X226960000Y-208520000D03*
X227000000Y-199770000D03*
X233135686Y-208520000D03*
X233250000Y-199770000D03*
X233250000Y-204270000D03*
X233250000Y-213020000D03*
D16*
X202800000Y-202340000D03*
D11*
X203950000Y-196174916D03*
X204450000Y-208930000D03*
X204450000Y-213180000D03*
X208750000Y-196174916D03*
X210750000Y-199770000D03*
X210750000Y-208770000D03*
X210790000Y-204270000D03*
X210790000Y-213270000D03*
X211250000Y-215980000D03*
X213500000Y-196174916D03*
X216000000Y-215980000D03*
X216925686Y-204270000D03*
X216925686Y-213270000D03*
X217000000Y-208770000D03*
X217040000Y-199770000D03*
X218250000Y-196174916D03*
X220750000Y-216020000D03*
D16*
X221500000Y-211000000D03*
X221550000Y-202020000D03*
D11*
X223000000Y-196174916D03*
X225500000Y-216025000D03*
X227750000Y-196174916D03*
X229500000Y-208520000D03*
X229540000Y-199770000D03*
X229540000Y-213020000D03*
X229675686Y-204270000D03*
X230250000Y-215980000D03*
X232250000Y-196174916D03*
X235000000Y-215980000D03*
X235675686Y-208520000D03*
X235790000Y-199770000D03*
X235790000Y-204270000D03*
X235790000Y-213020000D03*
X237000000Y-196174916D03*
D16*
X240250000Y-202040000D03*
X240250000Y-210750000D03*
D11*
%TO.N,+5V*%
X203950000Y-193634916D03*
X208750000Y-193634916D03*
X211250000Y-218520000D03*
X213500000Y-193634916D03*
X216000000Y-218520000D03*
X218250000Y-193634916D03*
X220750000Y-218560000D03*
X223000000Y-193634916D03*
X225500000Y-218565000D03*
X227750000Y-193634916D03*
X230250000Y-218520000D03*
X232250000Y-193634916D03*
X235000000Y-218520000D03*
X237000000Y-193634916D03*
D16*
%TO.N,GND*%
X202800000Y-203610000D03*
X221500000Y-212270000D03*
X221550000Y-203290000D03*
X240250000Y-203310000D03*
X240250000Y-212020000D03*
D12*
%TO.N,NRESET*%
X201910000Y-208930000D03*
%TO.N,TAP_C8*%
X201910000Y-213180000D03*
%TO.N,CLK*%
X208250000Y-204270000D03*
X208250000Y-213270000D03*
%TO.N,NCLK*%
X227000000Y-213020000D03*
X227135686Y-204270000D03*
D15*
%TO.N,TAP_C9*%
X240250000Y-200770000D03*
%TO.N,NOUT _C9*%
X240250000Y-209480000D03*
%TD*%
D11*
%TO.N,+5V*%
%TO.C,R14*%
X123654315Y-169420000D03*
%TO.N,LOAD3*%
X123654315Y-171960000D03*
%TD*%
D20*
%TO.N,Net-(D12-K)*%
%TO.C,D18*%
X131660000Y-217550000D03*
D11*
%TO.N,TAP_C9*%
X131660000Y-220090000D03*
%TD*%
D15*
%TO.N,Net-(D47-K)*%
%TO.C,Q23*%
X135268629Y-200040000D03*
D16*
%TO.N,CLK_TICK*%
X135268629Y-198770000D03*
%TO.N,GND*%
X135268629Y-197500000D03*
%TD*%
D11*
%TO.N,+5V*%
%TO.C,R55*%
X207750000Y-106505000D03*
%TO.N,TAP_C2*%
X207750000Y-103965000D03*
%TD*%
D10*
%TO.N,Net-(D53-K)*%
%TO.C,D53*%
X198756855Y-190790000D03*
D11*
%TO.N,TAP_G8*%
X198756855Y-188250000D03*
%TD*%
D12*
%TO.N,Net-(D14-K)*%
%TO.C,D8*%
X83654315Y-174710000D03*
D11*
%TO.N,LOAD1*%
X86194315Y-174710000D03*
%TD*%
D12*
%TO.N,REQ1*%
%TO.C,D38*%
X82960000Y-197710000D03*
D11*
%TO.N,Net-(D38-A)*%
X85500000Y-197710000D03*
%TD*%
D12*
%TO.N,INPUT1*%
%TO.C,D26*%
X82750000Y-188710000D03*
D11*
%TO.N,Net-(D26-A)*%
X85290000Y-188710000D03*
%TD*%
%TO.N,+5V*%
%TO.C,R24*%
X134910000Y-215130000D03*
%TO.N,REQ5*%
X137450000Y-215130000D03*
%TD*%
%TO.N,+5V*%
%TO.C,R44*%
X87500000Y-182420000D03*
%TO.N,Net-(D38-A)*%
X87500000Y-184960000D03*
%TD*%
%TO.N,+5V*%
%TO.C,R41*%
X133154315Y-187705000D03*
%TO.N,Net-(D47-K)*%
X133154315Y-190245000D03*
%TD*%
%TO.N,+5V*%
%TO.C,R22*%
X119500000Y-182420000D03*
%TO.N,REQ3*%
X119500000Y-184960000D03*
%TD*%
D12*
%TO.N,REQ4*%
%TO.C,D41*%
X138904315Y-196500000D03*
D11*
%TO.N,Net-(D41-A)*%
X141444315Y-196500000D03*
%TD*%
D12*
%TO.N,INPUT3*%
%TO.C,D28*%
X119750000Y-187960000D03*
D11*
%TO.N,Net-(D28-A)*%
X122290000Y-187960000D03*
%TD*%
%TO.N,+5V*%
%TO.C,R4*%
X128404315Y-169375000D03*
%TO.N,NLOAD3*%
X128404315Y-171915000D03*
%TD*%
D10*
%TO.N,NREQ5*%
%TO.C,D36*%
X144660000Y-214744314D03*
D11*
%TO.N,Net-(D30-A)*%
X144660000Y-212204314D03*
%TD*%
D20*
%TO.N,Net-(D12-K)*%
%TO.C,D6*%
X127160000Y-217590000D03*
D11*
%TO.N,TAP_G9*%
X127160000Y-220130000D03*
%TD*%
%TO.N,Net-(D11-K)*%
%TO.C,R15*%
X137114315Y-169125000D03*
%TO.N,GND*%
X137114315Y-171665000D03*
%TD*%
D17*
%TO.N,Net-(D14-K)*%
%TO.C,D2*%
X80614315Y-174710000D03*
D11*
%TO.N,TAP_G3*%
X78074315Y-174710000D03*
%TD*%
D15*
%TO.N,NREQ3*%
%TO.C,Q16*%
X126800000Y-197760000D03*
D16*
%TO.N,Net-(D40-A)*%
X126800000Y-199030000D03*
%TO.N,GND*%
X126800000Y-200300000D03*
%TD*%
D11*
%TO.N,+5V*%
%TO.C,R56*%
X80250000Y-162574314D03*
%TO.N,TAP_C3*%
X80250000Y-160034314D03*
%TD*%
%TO.N,+5V*%
%TO.C,R50*%
X80250000Y-134545000D03*
%TO.N,TAP_G3*%
X80250000Y-132005000D03*
%TD*%
D10*
%TO.N,NLOAD4*%
%TO.C,D59*%
X203250000Y-190790000D03*
D11*
%TO.N,TAP_G8*%
X203250000Y-188250000D03*
%TD*%
D12*
%TO.N,INPUT2*%
%TO.C,D27*%
X101250000Y-188460000D03*
D11*
%TO.N,Net-(D27-A)*%
X103790000Y-188460000D03*
%TD*%
%TO.N,+5V*%
%TO.C,R6*%
X121620000Y-206550000D03*
%TO.N,NLOAD5*%
X124160000Y-206550000D03*
%TD*%
%TO.N,+5V*%
%TO.C,R5*%
X146614315Y-169125000D03*
%TO.N,NLOAD4*%
X146614315Y-171665000D03*
%TD*%
%TO.N,+5V*%
%TO.C,R1*%
X72864315Y-169385000D03*
%TO.N,NLOAD0*%
X72864315Y-171925000D03*
%TD*%
D17*
%TO.N,Net-(D10-K)*%
%TO.C,D16*%
X117041372Y-179460000D03*
D11*
%TO.N,TAP_C6*%
X114501372Y-179460000D03*
%TD*%
D10*
%TO.N,Net-(D48-K)*%
%TO.C,D48*%
X153420000Y-213794314D03*
D11*
%TO.N,Net-(D42-A)*%
X153420000Y-211254314D03*
%TD*%
D10*
%TO.N,Net-(D12-K)*%
%TO.C,D12*%
X127160000Y-214550000D03*
D11*
%TO.N,LOAD5*%
X127160000Y-212010000D03*
%TD*%
D18*
%TO.N,Net-(D48-K)*%
%TO.C,Q24*%
X152360000Y-217180000D03*
D19*
%TO.N,CLK_TICK*%
X151090000Y-217180000D03*
%TO.N,GND*%
X149820000Y-217180000D03*
%TD*%
D15*
%TO.N,N/C*%
%TO.C,DFF17*%
X160300000Y-145050000D03*
D12*
X165710000Y-143750000D03*
X165710000Y-152750000D03*
X171885686Y-148250000D03*
X171885686Y-157250000D03*
X171960000Y-152750000D03*
X172000000Y-143750000D03*
D15*
X179000000Y-153710000D03*
X179050000Y-144730000D03*
D12*
X184460000Y-152500000D03*
X184500000Y-143750000D03*
X190635686Y-152500000D03*
X190750000Y-143750000D03*
X190750000Y-148250000D03*
X190750000Y-157000000D03*
D16*
X160300000Y-146320000D03*
D11*
X161450000Y-140154916D03*
X161950000Y-152910000D03*
X161950000Y-157160000D03*
X166250000Y-140154916D03*
X168250000Y-143750000D03*
X168250000Y-152750000D03*
X168290000Y-148250000D03*
X168290000Y-157250000D03*
X168750000Y-159960000D03*
X171000000Y-140154916D03*
X173500000Y-159960000D03*
X174425686Y-148250000D03*
X174425686Y-157250000D03*
X174500000Y-152750000D03*
X174540000Y-143750000D03*
X175750000Y-140154916D03*
X178250000Y-160000000D03*
D16*
X179000000Y-154980000D03*
X179050000Y-146000000D03*
D11*
X180500000Y-140154916D03*
X183000000Y-160005000D03*
X185250000Y-140154916D03*
X187000000Y-152500000D03*
X187040000Y-143750000D03*
X187040000Y-157000000D03*
X187175686Y-148250000D03*
X187750000Y-159960000D03*
X189750000Y-140154916D03*
X192500000Y-159960000D03*
X193175686Y-152500000D03*
X193290000Y-143750000D03*
X193290000Y-148250000D03*
X193290000Y-157000000D03*
X194500000Y-140154916D03*
D16*
X197750000Y-146020000D03*
X197750000Y-154730000D03*
D11*
%TO.N,+5V*%
X161450000Y-137614916D03*
X166250000Y-137614916D03*
X168750000Y-162500000D03*
X171000000Y-137614916D03*
X173500000Y-162500000D03*
X175750000Y-137614916D03*
X178250000Y-162540000D03*
X180500000Y-137614916D03*
X183000000Y-162545000D03*
X185250000Y-137614916D03*
X187750000Y-162500000D03*
X189750000Y-137614916D03*
X192500000Y-162500000D03*
X194500000Y-137614916D03*
D16*
%TO.N,GND*%
X160300000Y-147590000D03*
X179000000Y-156250000D03*
X179050000Y-147270000D03*
X197750000Y-147290000D03*
X197750000Y-156000000D03*
D12*
%TO.N,NRESET*%
X159410000Y-152910000D03*
%TO.N,TAP_C5*%
X159410000Y-157160000D03*
%TO.N,CLK*%
X165750000Y-148250000D03*
X165750000Y-157250000D03*
%TO.N,NCLK*%
X184500000Y-157000000D03*
X184635686Y-148250000D03*
D15*
%TO.N,Net-(D64-K)*%
X197750000Y-144750000D03*
%TO.N,NOUT _C6*%
X197750000Y-153460000D03*
%TD*%
%TO.N,REQ1*%
%TO.C,Q8*%
X89550000Y-189550000D03*
D16*
%TO.N,Net-(D26-A)*%
X89550000Y-190820000D03*
%TO.N,GND*%
X89550000Y-192090000D03*
%TD*%
D18*
%TO.N,NLOAD5*%
%TO.C,Q6*%
X128210000Y-208000000D03*
D19*
%TO.N,LOAD5*%
X129480000Y-208000000D03*
%TO.N,GND*%
X130750000Y-208000000D03*
%TD*%
D11*
%TO.N,+5V*%
%TO.C,R10*%
X86904315Y-169460000D03*
%TO.N,LOAD1*%
X86904315Y-172000000D03*
%TD*%
D15*
%TO.N,N/C*%
%TO.C,DFF16*%
X117800000Y-145050000D03*
D12*
X123210000Y-143750000D03*
X123210000Y-152750000D03*
X129385686Y-148250000D03*
X129385686Y-157250000D03*
X129460000Y-152750000D03*
X129500000Y-143750000D03*
D15*
X136500000Y-153710000D03*
X136550000Y-144730000D03*
D12*
X141960000Y-152500000D03*
X142000000Y-143750000D03*
X148135686Y-152500000D03*
X148250000Y-143750000D03*
X148250000Y-148250000D03*
X148250000Y-157000000D03*
D16*
X117800000Y-146320000D03*
D11*
X118950000Y-140154916D03*
X119450000Y-152910000D03*
X119450000Y-157160000D03*
X123750000Y-140154916D03*
X125750000Y-143750000D03*
X125750000Y-152750000D03*
X125790000Y-148250000D03*
X125790000Y-157250000D03*
X126250000Y-159960000D03*
X128500000Y-140154916D03*
X131000000Y-159960000D03*
X131925686Y-148250000D03*
X131925686Y-157250000D03*
X132000000Y-152750000D03*
X132040000Y-143750000D03*
X133250000Y-140154916D03*
X135750000Y-160000000D03*
D16*
X136500000Y-154980000D03*
X136550000Y-146000000D03*
D11*
X138000000Y-140154916D03*
X140500000Y-160005000D03*
X142750000Y-140154916D03*
X144500000Y-152500000D03*
X144540000Y-143750000D03*
X144540000Y-157000000D03*
X144675686Y-148250000D03*
X145250000Y-159960000D03*
X147250000Y-140154916D03*
X150000000Y-159960000D03*
X150675686Y-152500000D03*
X150790000Y-143750000D03*
X150790000Y-148250000D03*
X150790000Y-157000000D03*
X152000000Y-140154916D03*
D16*
X155250000Y-146020000D03*
X155250000Y-154730000D03*
D11*
%TO.N,+5V*%
X118950000Y-137614916D03*
X123750000Y-137614916D03*
X126250000Y-162500000D03*
X128500000Y-137614916D03*
X131000000Y-162500000D03*
X133250000Y-137614916D03*
X135750000Y-162540000D03*
X138000000Y-137614916D03*
X140500000Y-162545000D03*
X142750000Y-137614916D03*
X145250000Y-162500000D03*
X147250000Y-137614916D03*
X150000000Y-162500000D03*
X152000000Y-137614916D03*
D16*
%TO.N,GND*%
X117800000Y-147590000D03*
X136500000Y-156250000D03*
X136550000Y-147270000D03*
X155250000Y-147290000D03*
X155250000Y-156000000D03*
D12*
%TO.N,NRESET*%
X116910000Y-152910000D03*
%TO.N,OUT_C4*%
X116910000Y-157160000D03*
%TO.N,CLK*%
X123250000Y-148250000D03*
X123250000Y-157250000D03*
%TO.N,NCLK*%
X142000000Y-157000000D03*
X142135686Y-148250000D03*
D15*
%TO.N,Net-(D63-K)*%
X155250000Y-144750000D03*
%TO.N,NOUT _C5*%
X155250000Y-153460000D03*
%TD*%
D20*
%TO.N,TAP_G9*%
%TO.C,D54*%
X159772742Y-43635686D03*
D11*
%TO.N,OUT_G9*%
X159772742Y-46175686D03*
%TD*%
D10*
%TO.N,NLOAD1*%
%TO.C,D56*%
X75772742Y-134619314D03*
D11*
%TO.N,TAP_G3*%
X75772742Y-132079314D03*
%TD*%
%TO.N,+5V*%
%TO.C,R18*%
X121615000Y-211050000D03*
%TO.N,LOAD5*%
X124155000Y-211050000D03*
%TD*%
%TO.N,+5V*%
%TO.C,R42*%
X140410000Y-219630000D03*
%TO.N,Net-(D48-K)*%
X142950000Y-219630000D03*
%TD*%
D15*
%TO.N,NREQ4*%
%TO.C,Q17*%
X145568629Y-197550000D03*
D16*
%TO.N,Net-(D41-A)*%
X145568629Y-198820000D03*
%TO.N,GND*%
X145568629Y-200090000D03*
%TD*%
D11*
%TO.N,+5V*%
%TO.C,R37*%
X59450000Y-187875000D03*
%TO.N,Net-(D43-K)*%
X59450000Y-190415000D03*
%TD*%
D15*
%TO.N,REQ4*%
%TO.C,Q11*%
X144591372Y-189300000D03*
D16*
%TO.N,Net-(D29-A)*%
X144591372Y-190570000D03*
%TO.N,GND*%
X144591372Y-191840000D03*
%TD*%
D11*
%TO.N,+5V*%
%TO.C,R35*%
X146654315Y-182405000D03*
%TO.N,NREQ4*%
X146654315Y-184945000D03*
%TD*%
D15*
%TO.N,REQ0*%
%TO.C,Q7*%
X70500000Y-190220000D03*
D16*
%TO.N,Net-(D25-A)*%
X70500000Y-191490000D03*
%TO.N,GND*%
X70500000Y-192760000D03*
%TD*%
D18*
%TO.N,REQ5*%
%TO.C,Q12*%
X141120000Y-208330000D03*
D19*
%TO.N,Net-(D30-A)*%
X142390000Y-208330000D03*
%TO.N,GND*%
X143660000Y-208330000D03*
%TD*%
D11*
%TO.N,+5V*%
%TO.C,R34*%
X128500000Y-182420000D03*
%TO.N,NREQ3*%
X128500000Y-184960000D03*
%TD*%
%TO.N,+5V*%
%TO.C,R52*%
X207727258Y-134290000D03*
%TO.N,TAP_G6*%
X207727258Y-131750000D03*
%TD*%
%TO.N,+5V*%
%TO.C,R8*%
X68364315Y-169385000D03*
%TO.N,LOAD0*%
X68364315Y-171925000D03*
%TD*%
D12*
%TO.N,REQ0*%
%TO.C,D37*%
X64085686Y-197920000D03*
D11*
%TO.N,Net-(D37-A)*%
X66625686Y-197920000D03*
%TD*%
D15*
%TO.N,Net-(D46-K)*%
%TO.C,Q22*%
X116450000Y-200660000D03*
D16*
%TO.N,CLK_TICK*%
X116450000Y-199390000D03*
%TO.N,GND*%
X116450000Y-198120000D03*
%TD*%
D12*
%TO.N,NREQ3*%
%TO.C,D34*%
X119885686Y-192460000D03*
D11*
%TO.N,Net-(D28-A)*%
X122425686Y-192460000D03*
%TD*%
D10*
%TO.N,Net-(D65-K)*%
%TO.C,D65*%
X198750000Y-218540000D03*
D11*
%TO.N,TAP_C8*%
X198750000Y-216000000D03*
%TD*%
D12*
%TO.N,Net-(D1-K)*%
%TO.C,D7*%
X65000001Y-174930000D03*
D11*
%TO.N,LOAD0*%
X67540001Y-174930000D03*
%TD*%
D20*
%TO.N,TAP_C9*%
%TO.C,D66*%
X173522742Y-43385686D03*
D11*
%TO.N,OUT_C9*%
X173522742Y-45925686D03*
%TD*%
D20*
%TO.N,NLOAD5*%
%TO.C,D72*%
X169000000Y-43385686D03*
D11*
%TO.N,OUT_C9*%
X169000000Y-45925686D03*
%TD*%
D12*
%TO.N,Net-(D15-K)*%
%TO.C,D9*%
X101750001Y-174710000D03*
D11*
%TO.N,LOAD2*%
X104290001Y-174710000D03*
%TD*%
%TO.N,+5V*%
%TO.C,R60*%
X164500000Y-43590686D03*
%TO.N,OUT_C9*%
X164500000Y-46130686D03*
%TD*%
D15*
%TO.N,N/C*%
%TO.C,DFF10*%
X202800000Y-173030000D03*
D12*
X208210000Y-171730000D03*
X208210000Y-180730000D03*
X214385686Y-176230000D03*
X214385686Y-185230000D03*
X214460000Y-180730000D03*
X214500000Y-171730000D03*
D15*
X221500000Y-181690000D03*
X221550000Y-172710000D03*
D12*
X226960000Y-180480000D03*
X227000000Y-171730000D03*
X233135686Y-180480000D03*
X233250000Y-171730000D03*
X233250000Y-176230000D03*
X233250000Y-184980000D03*
D16*
X202800000Y-174300000D03*
D11*
X203950000Y-168134916D03*
X204450000Y-180890000D03*
X204450000Y-185140000D03*
X208750000Y-168134916D03*
X210750000Y-171730000D03*
X210750000Y-180730000D03*
X210790000Y-176230000D03*
X210790000Y-185230000D03*
X211250000Y-187940000D03*
X213500000Y-168134916D03*
X216000000Y-187940000D03*
X216925686Y-176230000D03*
X216925686Y-185230000D03*
X217000000Y-180730000D03*
X217040000Y-171730000D03*
X218250000Y-168134916D03*
X220750000Y-187980000D03*
D16*
X221500000Y-182960000D03*
X221550000Y-173980000D03*
D11*
X223000000Y-168134916D03*
X225500000Y-187985000D03*
X227750000Y-168134916D03*
X229500000Y-180480000D03*
X229540000Y-171730000D03*
X229540000Y-184980000D03*
X229675686Y-176230000D03*
X230250000Y-187940000D03*
X232250000Y-168134916D03*
X235000000Y-187940000D03*
X235675686Y-180480000D03*
X235790000Y-171730000D03*
X235790000Y-176230000D03*
X235790000Y-184980000D03*
X237000000Y-168134916D03*
D16*
X240250000Y-174000000D03*
X240250000Y-182710000D03*
D11*
%TO.N,+5V*%
X203950000Y-165594916D03*
X208750000Y-165594916D03*
X211250000Y-190480000D03*
X213500000Y-165594916D03*
X216000000Y-190480000D03*
X218250000Y-165594916D03*
X220750000Y-190520000D03*
X223000000Y-165594916D03*
X225500000Y-190525000D03*
X227750000Y-165594916D03*
X230250000Y-190480000D03*
X232250000Y-165594916D03*
X235000000Y-190480000D03*
X237000000Y-165594916D03*
D16*
%TO.N,GND*%
X202800000Y-175570000D03*
X221500000Y-184230000D03*
X221550000Y-175250000D03*
X240250000Y-175270000D03*
X240250000Y-183980000D03*
D12*
%TO.N,NRESET*%
X201910000Y-180890000D03*
%TO.N,TAP_G8*%
X201910000Y-185140000D03*
%TO.N,CLK*%
X208250000Y-176230000D03*
X208250000Y-185230000D03*
%TO.N,NCLK*%
X227000000Y-184980000D03*
X227135686Y-176230000D03*
D15*
%TO.N,TAP_G9*%
X240250000Y-172730000D03*
%TO.N,NOUT_G9*%
X240250000Y-181440000D03*
%TD*%
D11*
%TO.N,Net-(D10-K)*%
%TO.C,R13*%
X118904315Y-169415000D03*
%TO.N,GND*%
X118904315Y-171955000D03*
%TD*%
D12*
%TO.N,NREQ2*%
%TO.C,D33*%
X101251371Y-192846452D03*
D11*
%TO.N,Net-(D27-A)*%
X103791371Y-192846452D03*
%TD*%
%TO.N,+5V*%
%TO.C,R51*%
X165250000Y-134540000D03*
%TO.N,TAP_G5*%
X165250000Y-132000000D03*
%TD*%
D12*
%TO.N,REQ2*%
%TO.C,D39*%
X101385686Y-197210000D03*
D11*
%TO.N,Net-(D39-A)*%
X103925686Y-197210000D03*
%TD*%
D12*
%TO.N,REQ3*%
%TO.C,D40*%
X119960000Y-196960000D03*
D11*
%TO.N,Net-(D40-A)*%
X122500000Y-196960000D03*
%TD*%
%TO.N,+5V*%
%TO.C,R20*%
X83000000Y-182420000D03*
%TO.N,REQ1*%
X83000000Y-184960000D03*
%TD*%
%TO.N,+5V*%
%TO.C,R57*%
X165356693Y-162250000D03*
%TO.N,TAP_C5*%
X165356693Y-159710000D03*
%TD*%
%TO.N,+5V*%
%TO.C,R21*%
X101250000Y-182125000D03*
%TO.N,REQ2*%
X101250000Y-184665000D03*
%TD*%
D12*
%TO.N,Net-(D46-K)*%
%TO.C,D46*%
X120000000Y-201460000D03*
D11*
%TO.N,Net-(D40-A)*%
X122540000Y-201460000D03*
%TD*%
D15*
%TO.N,NLOAD2*%
%TO.C,Q3*%
X108414315Y-175510000D03*
D16*
%TO.N,LOAD2*%
X108414315Y-176780000D03*
%TO.N,GND*%
X108414315Y-178050000D03*
%TD*%
D15*
%TO.N,N/C*%
%TO.C,DFF5*%
X75300000Y-117050000D03*
D12*
X80710000Y-115750000D03*
X80710000Y-124750000D03*
X86885686Y-120250000D03*
X86885686Y-129250000D03*
X86960000Y-124750000D03*
X87000000Y-115750000D03*
D15*
X94000000Y-125710000D03*
X94050000Y-116730000D03*
D12*
X99460000Y-124500000D03*
X99500000Y-115750000D03*
X105635686Y-124500000D03*
X105750000Y-115750000D03*
X105750000Y-120250000D03*
X105750000Y-129000000D03*
D16*
X75300000Y-118320000D03*
D11*
X76450000Y-112154916D03*
X76950000Y-124910000D03*
X76950000Y-129160000D03*
X81250000Y-112154916D03*
X83250000Y-115750000D03*
X83250000Y-124750000D03*
X83290000Y-120250000D03*
X83290000Y-129250000D03*
X83750000Y-131960000D03*
X86000000Y-112154916D03*
X88500000Y-131960000D03*
X89425686Y-120250000D03*
X89425686Y-129250000D03*
X89500000Y-124750000D03*
X89540000Y-115750000D03*
X90750000Y-112154916D03*
X93250000Y-132000000D03*
D16*
X94000000Y-126980000D03*
X94050000Y-118000000D03*
D11*
X95500000Y-112154916D03*
X98000000Y-132005000D03*
X100250000Y-112154916D03*
X102000000Y-124500000D03*
X102040000Y-115750000D03*
X102040000Y-129000000D03*
X102175686Y-120250000D03*
X102750000Y-131960000D03*
X104750000Y-112154916D03*
X107500000Y-131960000D03*
X108175686Y-124500000D03*
X108290000Y-115750000D03*
X108290000Y-120250000D03*
X108290000Y-129000000D03*
X109500000Y-112154916D03*
D16*
X112750000Y-118020000D03*
X112750000Y-126730000D03*
D11*
%TO.N,+5V*%
X76450000Y-109614916D03*
X81250000Y-109614916D03*
X83750000Y-134500000D03*
X86000000Y-109614916D03*
X88500000Y-134500000D03*
X90750000Y-109614916D03*
X93250000Y-134540000D03*
X95500000Y-109614916D03*
X98000000Y-134545000D03*
X100250000Y-109614916D03*
X102750000Y-134500000D03*
X104750000Y-109614916D03*
X107500000Y-134500000D03*
X109500000Y-109614916D03*
D16*
%TO.N,GND*%
X75300000Y-119590000D03*
X94000000Y-128250000D03*
X94050000Y-119270000D03*
X112750000Y-119290000D03*
X112750000Y-128000000D03*
D12*
%TO.N,NRESET*%
X74410000Y-124910000D03*
%TO.N,TAP_G3*%
X74410000Y-129160000D03*
%TO.N,CLK*%
X80750000Y-120250000D03*
X80750000Y-129250000D03*
%TO.N,NCLK*%
X99500000Y-129000000D03*
X99635686Y-120250000D03*
D15*
%TO.N,OUT_G4*%
X112750000Y-116750000D03*
%TO.N,NOUT_G4*%
X112750000Y-125460000D03*
%TD*%
%TO.N,N/C*%
%TO.C,DFF15*%
X75300000Y-145050000D03*
D12*
X80710000Y-143750000D03*
X80710000Y-152750000D03*
X86885686Y-148250000D03*
X86885686Y-157250000D03*
X86960000Y-152750000D03*
X87000000Y-143750000D03*
D15*
X94000000Y-153710000D03*
X94050000Y-144730000D03*
D12*
X99460000Y-152500000D03*
X99500000Y-143750000D03*
X105635686Y-152500000D03*
X105750000Y-143750000D03*
X105750000Y-148250000D03*
X105750000Y-157000000D03*
D16*
X75300000Y-146320000D03*
D11*
X76450000Y-140154916D03*
X76950000Y-152910000D03*
X76950000Y-157160000D03*
X81250000Y-140154916D03*
X83250000Y-143750000D03*
X83250000Y-152750000D03*
X83290000Y-148250000D03*
X83290000Y-157250000D03*
X83750000Y-159960000D03*
X86000000Y-140154916D03*
X88500000Y-159960000D03*
X89425686Y-148250000D03*
X89425686Y-157250000D03*
X89500000Y-152750000D03*
X89540000Y-143750000D03*
X90750000Y-140154916D03*
X93250000Y-160000000D03*
D16*
X94000000Y-154980000D03*
X94050000Y-146000000D03*
D11*
X95500000Y-140154916D03*
X98000000Y-160005000D03*
X100250000Y-140154916D03*
X102000000Y-152500000D03*
X102040000Y-143750000D03*
X102040000Y-157000000D03*
X102175686Y-148250000D03*
X102750000Y-159960000D03*
X104750000Y-140154916D03*
X107500000Y-159960000D03*
X108175686Y-152500000D03*
X108290000Y-143750000D03*
X108290000Y-148250000D03*
X108290000Y-157000000D03*
X109500000Y-140154916D03*
D16*
X112750000Y-146020000D03*
X112750000Y-154730000D03*
D11*
%TO.N,+5V*%
X76450000Y-137614916D03*
X81250000Y-137614916D03*
X83750000Y-162500000D03*
X86000000Y-137614916D03*
X88500000Y-162500000D03*
X90750000Y-137614916D03*
X93250000Y-162540000D03*
X95500000Y-137614916D03*
X98000000Y-162545000D03*
X100250000Y-137614916D03*
X102750000Y-162500000D03*
X104750000Y-137614916D03*
X107500000Y-162500000D03*
X109500000Y-137614916D03*
D16*
%TO.N,GND*%
X75300000Y-147590000D03*
X94000000Y-156250000D03*
X94050000Y-147270000D03*
X112750000Y-147290000D03*
X112750000Y-156000000D03*
D12*
%TO.N,NRESET*%
X74410000Y-152910000D03*
%TO.N,TAP_C3*%
X74410000Y-157160000D03*
%TO.N,CLK*%
X80750000Y-148250000D03*
X80750000Y-157250000D03*
%TO.N,NCLK*%
X99500000Y-157000000D03*
X99635686Y-148250000D03*
D15*
%TO.N,OUT_C4*%
X112750000Y-144750000D03*
%TO.N,NOUT _C4*%
X112750000Y-153460000D03*
%TD*%
D11*
%TO.N,+5V*%
%TO.C,R19*%
X64000000Y-182720000D03*
%TO.N,REQ0*%
X64000000Y-185260000D03*
%TD*%
D15*
%TO.N,Net-(D43-K)*%
%TO.C,Q19*%
X60700000Y-201460000D03*
D16*
%TO.N,CLK_TICK*%
X60700000Y-200190000D03*
%TO.N,GND*%
X60700000Y-198920000D03*
%TD*%
D12*
%TO.N,Net-(D44-K)*%
%TO.C,D44*%
X82845686Y-202210000D03*
D11*
%TO.N,Net-(D38-A)*%
X85385686Y-202210000D03*
%TD*%
D12*
%TO.N,NREQ4*%
%TO.C,D35*%
X138040001Y-192500000D03*
D11*
%TO.N,Net-(D29-A)*%
X140580001Y-192500000D03*
%TD*%
D12*
%TO.N,REQ2*%
%TO.C,D21*%
X101864315Y-179210000D03*
D11*
%TO.N,LOAD2*%
X104404315Y-179210000D03*
%TD*%
D10*
%TO.N,REQ5*%
%TO.C,D42*%
X148920000Y-213794314D03*
D11*
%TO.N,Net-(D42-A)*%
X148920000Y-211254314D03*
%TD*%
D10*
%TO.N,Net-(D52-K)*%
%TO.C,D52*%
X198727258Y-134614314D03*
D11*
%TO.N,TAP_G6*%
X198727258Y-132074314D03*
%TD*%
D12*
%TO.N,INPUT0*%
%TO.C,D25*%
X63950000Y-188920000D03*
D11*
%TO.N,Net-(D25-A)*%
X66490000Y-188920000D03*
%TD*%
D15*
%TO.N,N/C*%
%TO.C,DFF14*%
X202810000Y-89260000D03*
D12*
X208220000Y-87960000D03*
X208220000Y-96960000D03*
X214395686Y-92460000D03*
X214395686Y-101460000D03*
X214470000Y-96960000D03*
X214510000Y-87960000D03*
D15*
X221510000Y-97920000D03*
X221560000Y-88940000D03*
D12*
X226970000Y-96710000D03*
X227010000Y-87960000D03*
X233145686Y-96710000D03*
X233260000Y-87960000D03*
X233260000Y-92460000D03*
X233260000Y-101210000D03*
D16*
X202810000Y-90530000D03*
D11*
X203960000Y-84364916D03*
X204460000Y-97120000D03*
X204460000Y-101370000D03*
X208760000Y-84364916D03*
X210760000Y-87960000D03*
X210760000Y-96960000D03*
X210800000Y-92460000D03*
X210800000Y-101460000D03*
X211260000Y-104170000D03*
X213510000Y-84364916D03*
X216010000Y-104170000D03*
X216935686Y-92460000D03*
X216935686Y-101460000D03*
X217010000Y-96960000D03*
X217050000Y-87960000D03*
X218260000Y-84364916D03*
X220760000Y-104210000D03*
D16*
X221510000Y-99190000D03*
X221560000Y-90210000D03*
D11*
X223010000Y-84364916D03*
X225510000Y-104215000D03*
X227760000Y-84364916D03*
X229510000Y-96710000D03*
X229550000Y-87960000D03*
X229550000Y-101210000D03*
X229685686Y-92460000D03*
X230260000Y-104170000D03*
X232260000Y-84364916D03*
X235010000Y-104170000D03*
X235685686Y-96710000D03*
X235800000Y-87960000D03*
X235800000Y-92460000D03*
X235800000Y-101210000D03*
X237010000Y-84364916D03*
D16*
X240260000Y-90230000D03*
X240260000Y-98940000D03*
D11*
%TO.N,+5V*%
X203960000Y-81824916D03*
X208760000Y-81824916D03*
X211260000Y-106710000D03*
X213510000Y-81824916D03*
X216010000Y-106710000D03*
X218260000Y-81824916D03*
X220760000Y-106750000D03*
X223010000Y-81824916D03*
X225510000Y-106755000D03*
X227760000Y-81824916D03*
X230260000Y-106710000D03*
X232260000Y-81824916D03*
X235010000Y-106710000D03*
X237010000Y-81824916D03*
D16*
%TO.N,GND*%
X202810000Y-91800000D03*
X221510000Y-100460000D03*
X221560000Y-91480000D03*
X240260000Y-91500000D03*
X240260000Y-100210000D03*
D12*
%TO.N,NRESET*%
X201920000Y-97120000D03*
%TO.N,TAP_C2*%
X201920000Y-101370000D03*
%TO.N,CLK*%
X208260000Y-92460000D03*
X208260000Y-101460000D03*
%TO.N,NCLK*%
X227010000Y-101210000D03*
X227145686Y-92460000D03*
D15*
%TO.N,Net-(D62-K)*%
X240260000Y-88960000D03*
%TO.N,NOUT _C3*%
X240260000Y-97670000D03*
%TD*%
D12*
%TO.N,REQ0*%
%TO.C,D19*%
X65074315Y-179430000D03*
D11*
%TO.N,LOAD0*%
X67614315Y-179430000D03*
%TD*%
D17*
%TO.N,Net-(D15-K)*%
%TO.C,D15*%
X98864315Y-179210000D03*
D11*
%TO.N,TAP_C5*%
X96324315Y-179210000D03*
%TD*%
D10*
%TO.N,NLOAD2*%
%TO.C,D69*%
X160750000Y-162500000D03*
D11*
%TO.N,TAP_C5*%
X160750000Y-159960000D03*
%TD*%
D15*
%TO.N,REQ3*%
%TO.C,Q10*%
X126550000Y-188760000D03*
D16*
%TO.N,Net-(D28-A)*%
X126550000Y-190030000D03*
%TO.N,GND*%
X126550000Y-191300000D03*
%TD*%
D12*
%TO.N,Net-(D45-K)*%
%TO.C,D45*%
X101500000Y-201710000D03*
D11*
%TO.N,Net-(D39-A)*%
X104040000Y-201710000D03*
%TD*%
D10*
%TO.N,INPUT5*%
%TO.C,D30*%
X140189597Y-214903145D03*
D11*
%TO.N,Net-(D30-A)*%
X140189597Y-212363145D03*
%TD*%
D15*
%TO.N,N/C*%
%TO.C,DFF11*%
X75300000Y-89145084D03*
D12*
X80710000Y-87845084D03*
X80710000Y-96845084D03*
X86885686Y-92345084D03*
X86885686Y-101345084D03*
X86960000Y-96845084D03*
X87000000Y-87845084D03*
D15*
X94000000Y-97805084D03*
X94050000Y-88825084D03*
D12*
X99460000Y-96595084D03*
X99500000Y-87845084D03*
X105635686Y-96595084D03*
X105750000Y-87845084D03*
X105750000Y-92345084D03*
X105750000Y-101095084D03*
D16*
X75300000Y-90415084D03*
D11*
X76450000Y-84250000D03*
X76950000Y-97005084D03*
X76950000Y-101255084D03*
X81250000Y-84250000D03*
X83250000Y-87845084D03*
X83250000Y-96845084D03*
X83290000Y-92345084D03*
X83290000Y-101345084D03*
X83750000Y-104055084D03*
X86000000Y-84250000D03*
X88500000Y-104055084D03*
X89425686Y-92345084D03*
X89425686Y-101345084D03*
X89500000Y-96845084D03*
X89540000Y-87845084D03*
X90750000Y-84250000D03*
X93250000Y-104095084D03*
D16*
X94000000Y-99075084D03*
X94050000Y-90095084D03*
D11*
X95500000Y-84250000D03*
X98000000Y-104100084D03*
X100250000Y-84250000D03*
X102000000Y-96595084D03*
X102040000Y-87845084D03*
X102040000Y-101095084D03*
X102175686Y-92345084D03*
X102750000Y-104055084D03*
X104750000Y-84250000D03*
X107500000Y-104055084D03*
X108175686Y-96595084D03*
X108290000Y-87845084D03*
X108290000Y-92345084D03*
X108290000Y-101095084D03*
X109500000Y-84250000D03*
D16*
X112750000Y-90115084D03*
X112750000Y-98825084D03*
D11*
%TO.N,+5V*%
X76450000Y-81710000D03*
X81250000Y-81710000D03*
X83750000Y-106595084D03*
X86000000Y-81710000D03*
X88500000Y-106595084D03*
X90750000Y-81710000D03*
X93250000Y-106635084D03*
X95500000Y-81710000D03*
X98000000Y-106640084D03*
X100250000Y-81710000D03*
X102750000Y-106595084D03*
X104750000Y-81710000D03*
X107500000Y-106595084D03*
X109500000Y-81710000D03*
D16*
%TO.N,GND*%
X75300000Y-91685084D03*
X94000000Y-100345084D03*
X94050000Y-91365084D03*
X112750000Y-91385084D03*
X112750000Y-100095084D03*
D12*
%TO.N,NRESET*%
X74410000Y-97005084D03*
%TO.N,IN_C0*%
X74410000Y-101255084D03*
%TO.N,CLK*%
X80750000Y-92345084D03*
X80750000Y-101345084D03*
%TO.N,NCLK*%
X99500000Y-101095084D03*
X99635686Y-92345084D03*
D15*
%TO.N,OUT_C0*%
X112750000Y-88845084D03*
%TO.N,NOUT _C0*%
X112750000Y-97555084D03*
%TD*%
D12*
%TO.N,REQ4*%
%TO.C,D23*%
X138364315Y-179375000D03*
D11*
%TO.N,LOAD4*%
X140904315Y-179375000D03*
%TD*%
D17*
%TO.N,Net-(D14-K)*%
%TO.C,D14*%
X80654315Y-179210000D03*
D11*
%TO.N,TAP_C3*%
X78114315Y-179210000D03*
%TD*%
%TO.N,+5V*%
%TO.C,R12*%
X105364315Y-169415000D03*
%TO.N,LOAD2*%
X105364315Y-171955000D03*
%TD*%
D12*
%TO.N,REQ3*%
%TO.C,D22*%
X120040001Y-179460000D03*
D11*
%TO.N,LOAD3*%
X122580001Y-179460000D03*
%TD*%
D15*
%TO.N,N/C*%
%TO.C,DFF8*%
X202850000Y-117050000D03*
D12*
X208260000Y-115750000D03*
X208260000Y-124750000D03*
X214435686Y-120250000D03*
X214435686Y-129250000D03*
X214510000Y-124750000D03*
X214550000Y-115750000D03*
D15*
X221550000Y-125710000D03*
X221600000Y-116730000D03*
D12*
X227010000Y-124500000D03*
X227050000Y-115750000D03*
X233185686Y-124500000D03*
X233300000Y-115750000D03*
X233300000Y-120250000D03*
X233300000Y-129000000D03*
D16*
X202850000Y-118320000D03*
D11*
X204000000Y-112154916D03*
X204500000Y-124910000D03*
X204500000Y-129160000D03*
X208800000Y-112154916D03*
X210800000Y-115750000D03*
X210800000Y-124750000D03*
X210840000Y-120250000D03*
X210840000Y-129250000D03*
X211300000Y-131960000D03*
X213550000Y-112154916D03*
X216050000Y-131960000D03*
X216975686Y-120250000D03*
X216975686Y-129250000D03*
X217050000Y-124750000D03*
X217090000Y-115750000D03*
X218300000Y-112154916D03*
X220800000Y-132000000D03*
D16*
X221550000Y-126980000D03*
X221600000Y-118000000D03*
D11*
X223050000Y-112154916D03*
X225550000Y-132005000D03*
X227800000Y-112154916D03*
X229550000Y-124500000D03*
X229590000Y-115750000D03*
X229590000Y-129000000D03*
X229725686Y-120250000D03*
X230300000Y-131960000D03*
X232300000Y-112154916D03*
X235050000Y-131960000D03*
X235725686Y-124500000D03*
X235840000Y-115750000D03*
X235840000Y-120250000D03*
X235840000Y-129000000D03*
X237050000Y-112154916D03*
D16*
X240300000Y-118020000D03*
X240300000Y-126730000D03*
D11*
%TO.N,+5V*%
X204000000Y-109614916D03*
X208800000Y-109614916D03*
X211300000Y-134500000D03*
X213550000Y-109614916D03*
X216050000Y-134500000D03*
X218300000Y-109614916D03*
X220800000Y-134540000D03*
X223050000Y-109614916D03*
X225550000Y-134545000D03*
X227800000Y-109614916D03*
X230300000Y-134500000D03*
X232300000Y-109614916D03*
X235050000Y-134500000D03*
X237050000Y-109614916D03*
D16*
%TO.N,GND*%
X202850000Y-119590000D03*
X221550000Y-128250000D03*
X221600000Y-119270000D03*
X240300000Y-119290000D03*
X240300000Y-128000000D03*
D12*
%TO.N,NRESET*%
X201960000Y-124910000D03*
%TO.N,TAP_G6*%
X201960000Y-129160000D03*
%TO.N,CLK*%
X208300000Y-120250000D03*
X208300000Y-129250000D03*
%TO.N,NCLK*%
X227050000Y-129000000D03*
X227185686Y-120250000D03*
D15*
%TO.N,OUT_G7*%
X240300000Y-116750000D03*
%TO.N,NOUT_G7*%
X240300000Y-125460000D03*
%TD*%
D10*
%TO.N,Net-(D64-K)*%
%TO.C,D64*%
X198765887Y-162500000D03*
D11*
%TO.N,TAP_C6*%
X198765887Y-159960000D03*
%TD*%
D10*
%TO.N,Net-(D50-K)*%
%TO.C,D50*%
X71250000Y-134619314D03*
D11*
%TO.N,TAP_G3*%
X71250000Y-132079314D03*
%TD*%
D15*
%TO.N,NLOAD0*%
%TO.C,Q1*%
X71914315Y-175730000D03*
D16*
%TO.N,LOAD0*%
X71914315Y-177000000D03*
%TO.N,GND*%
X71914315Y-178270000D03*
%TD*%
D10*
%TO.N,REQ5*%
%TO.C,D24*%
X131660000Y-214664314D03*
D11*
%TO.N,LOAD5*%
X131660000Y-212124314D03*
%TD*%
D13*
%TO.N,OUT_C0*%
%TO.C,J2*%
X75860000Y-221750000D03*
D14*
%TO.N,OUT_C1*%
X73320000Y-221750000D03*
%TO.N,TAP_C2*%
X70780000Y-221750000D03*
%TO.N,TAP_C3*%
X68240000Y-221750000D03*
%TO.N,OUT_C4*%
X65700000Y-221750000D03*
%TO.N,TAP_C5*%
X63160000Y-221750000D03*
%TO.N,TAP_C6*%
X60620000Y-221750000D03*
%TO.N,OUT_C7*%
X58080000Y-221750000D03*
%TO.N,TAP_C8*%
X55540000Y-221750000D03*
%TO.N,TAP_C9*%
X53000000Y-221750000D03*
%TD*%
D12*
%TO.N,Net-(D11-K)*%
%TO.C,D11*%
X138364315Y-174875000D03*
D11*
%TO.N,LOAD4*%
X140904315Y-174875000D03*
%TD*%
D17*
%TO.N,Net-(D11-K)*%
%TO.C,D17*%
X135364315Y-179375000D03*
D11*
%TO.N,TAP_C8*%
X132824315Y-179375000D03*
%TD*%
%TO.N,+5V*%
%TO.C,R40*%
X115000000Y-187675000D03*
%TO.N,Net-(D46-K)*%
X115000000Y-190215000D03*
%TD*%
%TO.N,+5V*%
%TO.C,R45*%
X105750000Y-182125000D03*
%TO.N,Net-(D39-A)*%
X105750000Y-184665000D03*
%TD*%
%TO.N,+5V*%
%TO.C,R30*%
X134955000Y-219630000D03*
%TO.N,Net-(D30-A)*%
X137495000Y-219630000D03*
%TD*%
D15*
%TO.N,N/C*%
%TO.C,DFF7*%
X160350000Y-117050000D03*
D12*
X165760000Y-115750000D03*
X165760000Y-124750000D03*
X171935686Y-120250000D03*
X171935686Y-129250000D03*
X172010000Y-124750000D03*
X172050000Y-115750000D03*
D15*
X179050000Y-125710000D03*
X179100000Y-116730000D03*
D12*
X184510000Y-124500000D03*
X184550000Y-115750000D03*
X190685686Y-124500000D03*
X190800000Y-115750000D03*
X190800000Y-120250000D03*
X190800000Y-129000000D03*
D16*
X160350000Y-118320000D03*
D11*
X161500000Y-112154916D03*
X162000000Y-124910000D03*
X162000000Y-129160000D03*
X166300000Y-112154916D03*
X168300000Y-115750000D03*
X168300000Y-124750000D03*
X168340000Y-120250000D03*
X168340000Y-129250000D03*
X168800000Y-131960000D03*
X171050000Y-112154916D03*
X173550000Y-131960000D03*
X174475686Y-120250000D03*
X174475686Y-129250000D03*
X174550000Y-124750000D03*
X174590000Y-115750000D03*
X175800000Y-112154916D03*
X178300000Y-132000000D03*
D16*
X179050000Y-126980000D03*
X179100000Y-118000000D03*
D11*
X180550000Y-112154916D03*
X183050000Y-132005000D03*
X185300000Y-112154916D03*
X187050000Y-124500000D03*
X187090000Y-115750000D03*
X187090000Y-129000000D03*
X187225686Y-120250000D03*
X187800000Y-131960000D03*
X189800000Y-112154916D03*
X192550000Y-131960000D03*
X193225686Y-124500000D03*
X193340000Y-115750000D03*
X193340000Y-120250000D03*
X193340000Y-129000000D03*
X194550000Y-112154916D03*
D16*
X197800000Y-118020000D03*
X197800000Y-126730000D03*
D11*
%TO.N,+5V*%
X161500000Y-109614916D03*
X166300000Y-109614916D03*
X168800000Y-134500000D03*
X171050000Y-109614916D03*
X173550000Y-134500000D03*
X175800000Y-109614916D03*
X178300000Y-134540000D03*
X180550000Y-109614916D03*
X183050000Y-134545000D03*
X185300000Y-109614916D03*
X187800000Y-134500000D03*
X189800000Y-109614916D03*
X192550000Y-134500000D03*
X194550000Y-109614916D03*
D16*
%TO.N,GND*%
X160350000Y-119590000D03*
X179050000Y-128250000D03*
X179100000Y-119270000D03*
X197800000Y-119290000D03*
X197800000Y-128000000D03*
D12*
%TO.N,NRESET*%
X159460000Y-124910000D03*
%TO.N,TAP_G5*%
X159460000Y-129160000D03*
%TO.N,CLK*%
X165800000Y-120250000D03*
X165800000Y-129250000D03*
%TO.N,NCLK*%
X184550000Y-129000000D03*
X184685686Y-120250000D03*
D15*
%TO.N,Net-(D52-K)*%
X197800000Y-116750000D03*
%TO.N,NOUT_G6*%
X197800000Y-125460000D03*
%TD*%
%TO.N,NREQ2*%
%TO.C,Q15*%
X108050000Y-198260000D03*
D16*
%TO.N,Net-(D39-A)*%
X108050000Y-199530000D03*
%TO.N,GND*%
X108050000Y-200800000D03*
%TD*%
D12*
%TO.N,NREQ1*%
%TO.C,D32*%
X82750000Y-193210000D03*
D11*
%TO.N,Net-(D26-A)*%
X85290000Y-193210000D03*
%TD*%
%TO.N,+5V*%
%TO.C,R54*%
X150750000Y-43955000D03*
%TO.N,OUT_G9*%
X150750000Y-46495000D03*
%TD*%
D10*
%TO.N,NLOAD2*%
%TO.C,D57*%
X160772742Y-134790000D03*
D11*
%TO.N,TAP_G5*%
X160772742Y-132250000D03*
%TD*%
%TO.N,GND*%
%TO.C,R9*%
X82404315Y-169460000D03*
%TO.N,Net-(D14-K)*%
X82404315Y-172000000D03*
%TD*%
D17*
%TO.N,Net-(D1-K)*%
%TO.C,D1*%
X62000001Y-174930000D03*
D11*
%TO.N,TAP_G2*%
X59460001Y-174930000D03*
%TD*%
%TO.N,+5V*%
%TO.C,R59*%
X207772742Y-218330000D03*
%TO.N,TAP_C8*%
X207772742Y-215790000D03*
%TD*%
%TO.N,+5V*%
%TO.C,R33*%
X110250000Y-182170000D03*
%TO.N,NREQ2*%
X110250000Y-184710000D03*
%TD*%
D13*
%TO.N,LOAD0*%
%TO.C,J4*%
X119660000Y-221750000D03*
D14*
%TO.N,LOAD1*%
X117120000Y-221750000D03*
%TO.N,LOAD2*%
X114580000Y-221750000D03*
%TO.N,LOAD3*%
X112040000Y-221750000D03*
%TO.N,LOAD4*%
X109500000Y-221750000D03*
%TO.N,LOAD5*%
X106960000Y-221750000D03*
%TD*%
D15*
%TO.N,N/C*%
%TO.C,DFF13*%
X160400000Y-89145084D03*
D12*
X165810000Y-87845084D03*
X165810000Y-96845084D03*
X171985686Y-92345084D03*
X171985686Y-101345084D03*
X172060000Y-96845084D03*
X172100000Y-87845084D03*
D15*
X179100000Y-97805084D03*
X179150000Y-88825084D03*
D12*
X184560000Y-96595084D03*
X184600000Y-87845084D03*
X190735686Y-96595084D03*
X190850000Y-87845084D03*
X190850000Y-92345084D03*
X190850000Y-101095084D03*
D16*
X160400000Y-90415084D03*
D11*
X161550000Y-84250000D03*
X162050000Y-97005084D03*
X162050000Y-101255084D03*
X166350000Y-84250000D03*
X168350000Y-87845084D03*
X168350000Y-96845084D03*
X168390000Y-92345084D03*
X168390000Y-101345084D03*
X168850000Y-104055084D03*
X171100000Y-84250000D03*
X173600000Y-104055084D03*
X174525686Y-92345084D03*
X174525686Y-101345084D03*
X174600000Y-96845084D03*
X174640000Y-87845084D03*
X175850000Y-84250000D03*
X178350000Y-104095084D03*
D16*
X179100000Y-99075084D03*
X179150000Y-90095084D03*
D11*
X180600000Y-84250000D03*
X183100000Y-104100084D03*
X185350000Y-84250000D03*
X187100000Y-96595084D03*
X187140000Y-87845084D03*
X187140000Y-101095084D03*
X187275686Y-92345084D03*
X187850000Y-104055084D03*
X189850000Y-84250000D03*
X192600000Y-104055084D03*
X193275686Y-96595084D03*
X193390000Y-87845084D03*
X193390000Y-92345084D03*
X193390000Y-101095084D03*
X194600000Y-84250000D03*
D16*
X197850000Y-90115084D03*
X197850000Y-98825084D03*
D11*
%TO.N,+5V*%
X161550000Y-81710000D03*
X166350000Y-81710000D03*
X168850000Y-106595084D03*
X171100000Y-81710000D03*
X173600000Y-106595084D03*
X175850000Y-81710000D03*
X178350000Y-106635084D03*
X180600000Y-81710000D03*
X183100000Y-106640084D03*
X185350000Y-81710000D03*
X187850000Y-106595084D03*
X189850000Y-81710000D03*
X192600000Y-106595084D03*
X194600000Y-81710000D03*
D16*
%TO.N,GND*%
X160400000Y-91685084D03*
X179100000Y-100345084D03*
X179150000Y-91365084D03*
X197850000Y-91385084D03*
X197850000Y-100095084D03*
D12*
%TO.N,NRESET*%
X159510000Y-97005084D03*
%TO.N,OUT_C1*%
X159510000Y-101255084D03*
%TO.N,CLK*%
X165850000Y-92345084D03*
X165850000Y-101345084D03*
%TO.N,NCLK*%
X184600000Y-101095084D03*
X184735686Y-92345084D03*
D15*
%TO.N,Net-(D61-K)*%
X197850000Y-88845084D03*
%TO.N,NOUT _C2*%
X197850000Y-97555084D03*
%TD*%
D12*
%TO.N,REQ1*%
%TO.C,D20*%
X83654315Y-179210000D03*
D11*
%TO.N,LOAD1*%
X86194315Y-179210000D03*
%TD*%
%TO.N,+5V*%
%TO.C,R36*%
X134910000Y-206130000D03*
%TO.N,NREQ5*%
X137450000Y-206130000D03*
%TD*%
%TO.N,Net-(D12-K)*%
%TO.C,R17*%
X121615000Y-215550000D03*
%TO.N,GND*%
X124155000Y-215550000D03*
%TD*%
D10*
%TO.N,NLOAD4*%
%TO.C,D71*%
X203272742Y-218540000D03*
D11*
%TO.N,TAP_C8*%
X203272742Y-216000000D03*
%TD*%
D15*
%TO.N,N/C*%
%TO.C,DFF4*%
X202850000Y-61145084D03*
D12*
X208260000Y-59845084D03*
X208260000Y-68845084D03*
X214435686Y-64345084D03*
X214435686Y-73345084D03*
X214510000Y-68845084D03*
X214550000Y-59845084D03*
D15*
X221550000Y-69805084D03*
X221600000Y-60825084D03*
D12*
X227010000Y-68595084D03*
X227050000Y-59845084D03*
X233185686Y-68595084D03*
X233300000Y-59845084D03*
X233300000Y-64345084D03*
X233300000Y-73095084D03*
D16*
X202850000Y-62415084D03*
D11*
X204000000Y-56250000D03*
X204500000Y-69005084D03*
X204500000Y-73255084D03*
X208800000Y-56250000D03*
X210800000Y-59845084D03*
X210800000Y-68845084D03*
X210840000Y-64345084D03*
X210840000Y-73345084D03*
X211300000Y-76055084D03*
X213550000Y-56250000D03*
X216050000Y-76055084D03*
X216975686Y-64345084D03*
X216975686Y-73345084D03*
X217050000Y-68845084D03*
X217090000Y-59845084D03*
X218300000Y-56250000D03*
X220800000Y-76095084D03*
D16*
X221550000Y-71075084D03*
X221600000Y-62095084D03*
D11*
X223050000Y-56250000D03*
X225550000Y-76100084D03*
X227800000Y-56250000D03*
X229550000Y-68595084D03*
X229590000Y-59845084D03*
X229590000Y-73095084D03*
X229725686Y-64345084D03*
X230300000Y-76055084D03*
X232300000Y-56250000D03*
X235050000Y-76055084D03*
X235725686Y-68595084D03*
X235840000Y-59845084D03*
X235840000Y-64345084D03*
X235840000Y-73095084D03*
X237050000Y-56250000D03*
D16*
X240300000Y-62115084D03*
X240300000Y-70825084D03*
D11*
%TO.N,+5V*%
X204000000Y-53710000D03*
X208800000Y-53710000D03*
X211300000Y-78595084D03*
X213550000Y-53710000D03*
X216050000Y-78595084D03*
X218300000Y-53710000D03*
X220800000Y-78635084D03*
X223050000Y-53710000D03*
X225550000Y-78640084D03*
X227800000Y-53710000D03*
X230300000Y-78595084D03*
X232300000Y-53710000D03*
X235050000Y-78595084D03*
X237050000Y-53710000D03*
D16*
%TO.N,GND*%
X202850000Y-63685084D03*
X221550000Y-72345084D03*
X221600000Y-63365084D03*
X240300000Y-63385084D03*
X240300000Y-72095084D03*
D12*
%TO.N,NRESET*%
X201960000Y-69005084D03*
%TO.N,TAP_G2*%
X201960000Y-73255084D03*
%TO.N,CLK*%
X208300000Y-64345084D03*
X208300000Y-73345084D03*
%TO.N,NCLK*%
X227050000Y-73095084D03*
X227185686Y-64345084D03*
D15*
%TO.N,Net-(D50-K)*%
X240300000Y-60845084D03*
%TO.N,NOUT_G3*%
X240300000Y-69555084D03*
%TD*%
D11*
%TO.N,+5V*%
%TO.C,R53*%
X207750000Y-190470686D03*
%TO.N,TAP_G8*%
X207750000Y-187930686D03*
%TD*%
D15*
%TO.N,Net-(D45-K)*%
%TO.C,Q21*%
X97950000Y-200910000D03*
D16*
%TO.N,CLK_TICK*%
X97950000Y-199640000D03*
%TO.N,GND*%
X97950000Y-198370000D03*
%TD*%
D15*
%TO.N,N/C*%
%TO.C,DFF19*%
X160300000Y-201070000D03*
D12*
X165710000Y-199770000D03*
X165710000Y-208770000D03*
X171885686Y-204270000D03*
X171885686Y-213270000D03*
X171960000Y-208770000D03*
X172000000Y-199770000D03*
D15*
X179000000Y-209730000D03*
X179050000Y-200750000D03*
D12*
X184460000Y-208520000D03*
X184500000Y-199770000D03*
X190635686Y-208520000D03*
X190750000Y-199770000D03*
X190750000Y-204270000D03*
X190750000Y-213020000D03*
D16*
X160300000Y-202340000D03*
D11*
X161450000Y-196174916D03*
X161950000Y-208930000D03*
X161950000Y-213180000D03*
X166250000Y-196174916D03*
X168250000Y-199770000D03*
X168250000Y-208770000D03*
X168290000Y-204270000D03*
X168290000Y-213270000D03*
X168750000Y-215980000D03*
X171000000Y-196174916D03*
X173500000Y-215980000D03*
X174425686Y-204270000D03*
X174425686Y-213270000D03*
X174500000Y-208770000D03*
X174540000Y-199770000D03*
X175750000Y-196174916D03*
X178250000Y-216020000D03*
D16*
X179000000Y-211000000D03*
X179050000Y-202020000D03*
D11*
X180500000Y-196174916D03*
X183000000Y-216025000D03*
X185250000Y-196174916D03*
X187000000Y-208520000D03*
X187040000Y-199770000D03*
X187040000Y-213020000D03*
X187175686Y-204270000D03*
X187750000Y-215980000D03*
X189750000Y-196174916D03*
X192500000Y-215980000D03*
X193175686Y-208520000D03*
X193290000Y-199770000D03*
X193290000Y-204270000D03*
X193290000Y-213020000D03*
X194500000Y-196174916D03*
D16*
X197750000Y-202040000D03*
X197750000Y-210750000D03*
D11*
%TO.N,+5V*%
X161450000Y-193634916D03*
X166250000Y-193634916D03*
X168750000Y-218520000D03*
X171000000Y-193634916D03*
X173500000Y-218520000D03*
X175750000Y-193634916D03*
X178250000Y-218560000D03*
X180500000Y-193634916D03*
X183000000Y-218565000D03*
X185250000Y-193634916D03*
X187750000Y-218520000D03*
X189750000Y-193634916D03*
X192500000Y-218520000D03*
X194500000Y-193634916D03*
D16*
%TO.N,GND*%
X160300000Y-203610000D03*
X179000000Y-212270000D03*
X179050000Y-203290000D03*
X197750000Y-203310000D03*
X197750000Y-212020000D03*
D12*
%TO.N,NRESET*%
X159410000Y-208930000D03*
%TO.N,OUT_C7*%
X159410000Y-213180000D03*
%TO.N,CLK*%
X165750000Y-204270000D03*
X165750000Y-213270000D03*
%TO.N,NCLK*%
X184500000Y-213020000D03*
X184635686Y-204270000D03*
D15*
%TO.N,Net-(D65-K)*%
X197750000Y-200770000D03*
%TO.N,NOUT _C8*%
X197750000Y-209480000D03*
%TD*%
%TO.N,NLOAD3*%
%TO.C,Q4*%
X126904315Y-175960000D03*
D16*
%TO.N,LOAD3*%
X126904315Y-177230000D03*
%TO.N,GND*%
X126904315Y-178500000D03*
%TD*%
D20*
%TO.N,NLOAD5*%
%TO.C,D60*%
X155250000Y-43635686D03*
D11*
%TO.N,OUT_G9*%
X155250000Y-46175686D03*
%TD*%
D10*
%TO.N,Net-(D51-K)*%
%TO.C,D51*%
X156250000Y-134790000D03*
D11*
%TO.N,TAP_G5*%
X156250000Y-132250000D03*
%TD*%
D12*
%TO.N,Net-(D10-K)*%
%TO.C,D10*%
X120114315Y-174960000D03*
D11*
%TO.N,LOAD3*%
X122654315Y-174960000D03*
%TD*%
D10*
%TO.N,Net-(D49-K)*%
%TO.C,D49*%
X198750000Y-78614315D03*
D11*
%TO.N,TAP_G2*%
X198750000Y-76074315D03*
%TD*%
%TO.N,+5V*%
%TO.C,R43*%
X68500000Y-182720000D03*
%TO.N,Net-(D37-A)*%
X68500000Y-185260000D03*
%TD*%
D12*
%TO.N,NREQ0*%
%TO.C,D31*%
X63950000Y-193420000D03*
D11*
%TO.N,Net-(D25-A)*%
X66490000Y-193420000D03*
%TD*%
D15*
%TO.N,N/C*%
%TO.C,DFF6*%
X117850000Y-117050000D03*
D12*
X123260000Y-115750000D03*
X123260000Y-124750000D03*
X129435686Y-120250000D03*
X129435686Y-129250000D03*
X129510000Y-124750000D03*
X129550000Y-115750000D03*
D15*
X136550000Y-125710000D03*
X136600000Y-116730000D03*
D12*
X142010000Y-124500000D03*
X142050000Y-115750000D03*
X148185686Y-124500000D03*
X148300000Y-115750000D03*
X148300000Y-120250000D03*
X148300000Y-129000000D03*
D16*
X117850000Y-118320000D03*
D11*
X119000000Y-112154916D03*
X119500000Y-124910000D03*
X119500000Y-129160000D03*
X123800000Y-112154916D03*
X125800000Y-115750000D03*
X125800000Y-124750000D03*
X125840000Y-120250000D03*
X125840000Y-129250000D03*
X126300000Y-131960000D03*
X128550000Y-112154916D03*
X131050000Y-131960000D03*
X131975686Y-120250000D03*
X131975686Y-129250000D03*
X132050000Y-124750000D03*
X132090000Y-115750000D03*
X133300000Y-112154916D03*
X135800000Y-132000000D03*
D16*
X136550000Y-126980000D03*
X136600000Y-118000000D03*
D11*
X138050000Y-112154916D03*
X140550000Y-132005000D03*
X142800000Y-112154916D03*
X144550000Y-124500000D03*
X144590000Y-115750000D03*
X144590000Y-129000000D03*
X144725686Y-120250000D03*
X145300000Y-131960000D03*
X147300000Y-112154916D03*
X150050000Y-131960000D03*
X150725686Y-124500000D03*
X150840000Y-115750000D03*
X150840000Y-120250000D03*
X150840000Y-129000000D03*
X152050000Y-112154916D03*
D16*
X155300000Y-118020000D03*
X155300000Y-126730000D03*
D11*
%TO.N,+5V*%
X119000000Y-109614916D03*
X123800000Y-109614916D03*
X126300000Y-134500000D03*
X128550000Y-109614916D03*
X131050000Y-134500000D03*
X133300000Y-109614916D03*
X135800000Y-134540000D03*
X138050000Y-109614916D03*
X140550000Y-134545000D03*
X142800000Y-109614916D03*
X145300000Y-134500000D03*
X147300000Y-109614916D03*
X150050000Y-134500000D03*
X152050000Y-109614916D03*
D16*
%TO.N,GND*%
X117850000Y-119590000D03*
X136550000Y-128250000D03*
X136600000Y-119270000D03*
X155300000Y-119290000D03*
X155300000Y-128000000D03*
D12*
%TO.N,NRESET*%
X116960000Y-124910000D03*
%TO.N,OUT_G4*%
X116960000Y-129160000D03*
%TO.N,CLK*%
X123300000Y-120250000D03*
X123300000Y-129250000D03*
%TO.N,NCLK*%
X142050000Y-129000000D03*
X142185686Y-120250000D03*
D15*
%TO.N,Net-(D51-K)*%
X155300000Y-116750000D03*
%TO.N,NOUT_G5*%
X155300000Y-125460000D03*
%TD*%
D11*
%TO.N,+5V*%
%TO.C,R2*%
X91404315Y-169460000D03*
%TO.N,NLOAD1*%
X91404315Y-172000000D03*
%TD*%
%TO.N,Net-(D15-K)*%
%TO.C,R11*%
X100864315Y-169460000D03*
%TO.N,GND*%
X100864315Y-172000000D03*
%TD*%
D15*
%TO.N,N/C*%
%TO.C,DFF2*%
X117850000Y-61145084D03*
D12*
X123260000Y-59845084D03*
X123260000Y-68845084D03*
X129435686Y-64345084D03*
X129435686Y-73345084D03*
X129510000Y-68845084D03*
X129550000Y-59845084D03*
D15*
X136550000Y-69805084D03*
X136600000Y-60825084D03*
D12*
X142010000Y-68595084D03*
X142050000Y-59845084D03*
X148185686Y-68595084D03*
X148300000Y-59845084D03*
X148300000Y-64345084D03*
X148300000Y-73095084D03*
D16*
X117850000Y-62415084D03*
D11*
X119000000Y-56250000D03*
X119500000Y-69005084D03*
X119500000Y-73255084D03*
X123800000Y-56250000D03*
X125800000Y-59845084D03*
X125800000Y-68845084D03*
X125840000Y-64345084D03*
X125840000Y-73345084D03*
X126300000Y-76055084D03*
X128550000Y-56250000D03*
X131050000Y-76055084D03*
X131975686Y-64345084D03*
X131975686Y-73345084D03*
X132050000Y-68845084D03*
X132090000Y-59845084D03*
X133300000Y-56250000D03*
X135800000Y-76095084D03*
D16*
X136550000Y-71075084D03*
X136600000Y-62095084D03*
D11*
X138050000Y-56250000D03*
X140550000Y-76100084D03*
X142800000Y-56250000D03*
X144550000Y-68595084D03*
X144590000Y-59845084D03*
X144590000Y-73095084D03*
X144725686Y-64345084D03*
X145300000Y-76055084D03*
X147300000Y-56250000D03*
X150050000Y-76055084D03*
X150725686Y-68595084D03*
X150840000Y-59845084D03*
X150840000Y-64345084D03*
X150840000Y-73095084D03*
X152050000Y-56250000D03*
D16*
X155300000Y-62115084D03*
X155300000Y-70825084D03*
D11*
%TO.N,+5V*%
X119000000Y-53710000D03*
X123800000Y-53710000D03*
X126300000Y-78595084D03*
X128550000Y-53710000D03*
X131050000Y-78595084D03*
X133300000Y-53710000D03*
X135800000Y-78635084D03*
X138050000Y-53710000D03*
X140550000Y-78640084D03*
X142800000Y-53710000D03*
X145300000Y-78595084D03*
X147300000Y-53710000D03*
X150050000Y-78595084D03*
X152050000Y-53710000D03*
D16*
%TO.N,GND*%
X117850000Y-63685084D03*
X136550000Y-72345084D03*
X136600000Y-63365084D03*
X155300000Y-63385084D03*
X155300000Y-72095084D03*
D12*
%TO.N,NRESET*%
X116960000Y-69005084D03*
%TO.N,OUT_G0*%
X116960000Y-73255084D03*
%TO.N,CLK*%
X123300000Y-64345084D03*
X123300000Y-73345084D03*
%TO.N,NCLK*%
X142050000Y-73095084D03*
X142185686Y-64345084D03*
D15*
%TO.N,OUT_G1*%
X155300000Y-60845084D03*
%TO.N,NOUT_G1*%
X155300000Y-69555084D03*
%TD*%
%TO.N,NLOAD4*%
%TO.C,Q5*%
X145364315Y-175855000D03*
D16*
%TO.N,LOAD4*%
X145364315Y-177125000D03*
%TO.N,GND*%
X145364315Y-178395000D03*
%TD*%
D11*
%TO.N,+5V*%
%TO.C,R49*%
X207750000Y-78540001D03*
%TO.N,TAP_G2*%
X207750000Y-76000001D03*
%TD*%
D17*
%TO.N,Net-(D11-K)*%
%TO.C,D5*%
X135500001Y-174875000D03*
D11*
%TO.N,TAP_G8*%
X132960001Y-174875000D03*
%TD*%
D10*
%TO.N,NLOAD0*%
%TO.C,D67*%
X203272742Y-106710000D03*
D11*
%TO.N,TAP_C2*%
X203272742Y-104170000D03*
%TD*%
%TO.N,+5V*%
%TO.C,R31*%
X73250000Y-182470000D03*
%TO.N,NREQ0*%
X73250000Y-185010000D03*
%TD*%
D10*
%TO.N,NLOAD1*%
%TO.C,D68*%
X75825081Y-162864314D03*
D11*
%TO.N,TAP_C3*%
X75825081Y-160324314D03*
%TD*%
D21*
%TO.N,GND*%
X234500000Y-71250000D03*
X202616836Y-70984558D03*
X96589393Y-170339393D03*
X155897186Y-75186941D03*
X160350000Y-66746084D03*
X176197542Y-75197542D03*
X188543963Y-70510084D03*
X104500000Y-191000000D03*
X49250000Y-164000000D03*
X156750000Y-66746084D03*
X145600000Y-39500000D03*
%TO.N,TAP_G2*%
X124200000Y-39753741D03*
X245469939Y-60855384D03*
%TO.N,TAP_C2*%
X245942314Y-106500000D03*
X123250000Y-41500000D03*
%TO.N,TAP_G3*%
X120522794Y-40477206D03*
X245942314Y-124750000D03*
%TO.N,TAP_C3*%
X84858161Y-158541554D03*
X75370899Y-175412529D03*
X119250000Y-41750000D03*
X71662971Y-144912971D03*
%TO.N,NRESET*%
X114559000Y-122099000D03*
X159250000Y-121497999D03*
X160526938Y-71381766D03*
X115000000Y-49500000D03*
X201500000Y-121498000D03*
X159750000Y-76000000D03*
%TO.N,TAP_G5*%
X114200000Y-41059998D03*
X243298413Y-222798413D03*
%TO.N,TAP_C5*%
X113000000Y-42500000D03*
%TO.N,TAP_G6*%
X242557519Y-224438866D03*
X110200000Y-41309998D03*
X86206471Y-227293529D03*
X212575587Y-133229995D03*
%TO.N,TAP_C6*%
X109000000Y-42750000D03*
X65139001Y-167750000D03*
X108250000Y-168015000D03*
%TO.N,TAP_G8*%
X106200000Y-41206510D03*
X240594945Y-227958000D03*
%TO.N,TAP_C8*%
X126000000Y-168020000D03*
X105000000Y-42750000D03*
%TO.N,TAP_G9*%
X102200000Y-40559998D03*
%TO.N,TAP_C9*%
X111595037Y-40172509D03*
X144250000Y-167725000D03*
%TO.N,LOAD0*%
X97200000Y-40252307D03*
X75498000Y-186500000D03*
%TO.N,LOAD1*%
X96000000Y-41750000D03*
%TO.N,LOAD2*%
X93200000Y-40309998D03*
X53089000Y-218500000D03*
X92250000Y-177500000D03*
X99588732Y-170730001D03*
X93923315Y-192500000D03*
X54151000Y-158906790D03*
%TO.N,LOAD3*%
X92000000Y-41750000D03*
X53550001Y-160698359D03*
%TO.N,LOAD4*%
X89200000Y-40309998D03*
X52949000Y-162496858D03*
%TO.N,LOAD5*%
X52348000Y-164227944D03*
X88000000Y-41750000D03*
%TO.N,INPUT0*%
X85200000Y-40344435D03*
X66500000Y-160250000D03*
%TO.N,INPUT1*%
X65962314Y-162250000D03*
X83449133Y-40762135D03*
X79927574Y-189113623D03*
%TO.N,INPUT2*%
X81200000Y-39500000D03*
%TO.N,INPUT3*%
X112100372Y-189250000D03*
X68365315Y-164199000D03*
%TO.N,INPUT4*%
X65963314Y-164199000D03*
X129750000Y-179724000D03*
X93500000Y-179211000D03*
X130753315Y-192250000D03*
%TO.N,INPUT5*%
X146598529Y-216598529D03*
X75456509Y-40326093D03*
%TO.N,OUT_G0*%
X243854788Y-57420527D03*
%TO.N,OUT_G1*%
X244740315Y-59209888D03*
X159450987Y-56299013D03*
%TO.N,OUT_G4*%
X245942315Y-122949998D03*
%TO.N,OUT_G7*%
X238250000Y-129500000D03*
X241759122Y-226052115D03*
%TO.N,Net-(D50-K)*%
X140198000Y-50255000D03*
%TO.N,Net-(D62-K)*%
X77248000Y-86500000D03*
%TD*%
D22*
%TO.N,GND*%
X202810000Y-91800000D02*
X198264916Y-91800000D01*
X156451000Y-127549000D02*
X156000000Y-128000000D01*
X198951000Y-127113562D02*
X198951000Y-120441000D01*
X94060000Y-63380000D02*
X95161000Y-64481000D01*
X202800000Y-175570000D02*
X198050000Y-175570000D01*
X156000000Y-128000000D02*
X155300000Y-128000000D01*
X198951000Y-120441000D02*
X197800000Y-119290000D01*
X155300000Y-119290000D02*
X156451000Y-120441000D01*
X179500000Y-128250000D02*
X179050000Y-128250000D01*
X197800000Y-128000000D02*
X198064562Y-128000000D01*
X198050000Y-175570000D02*
X197750000Y-175270000D01*
X117850000Y-119590000D02*
X113050000Y-119590000D01*
X156451000Y-120441000D02*
X156451000Y-127549000D01*
X113050000Y-119590000D02*
X112750000Y-119290000D01*
X179100000Y-119270000D02*
X180201000Y-120371000D01*
X155300000Y-74589755D02*
X155897186Y-75186941D01*
X112750000Y-91385084D02*
X117550000Y-91385084D01*
X198064562Y-128000000D02*
X198951000Y-127113562D01*
X155300000Y-72095084D02*
X155300000Y-74589755D01*
X95161000Y-71809000D02*
X94610000Y-72360000D01*
X94610000Y-72360000D02*
X94010000Y-72360000D01*
X117550000Y-91385084D02*
X117850000Y-91685084D01*
X198264916Y-91800000D02*
X197850000Y-91385084D01*
X95161000Y-64481000D02*
X95161000Y-71809000D01*
X180201000Y-127549000D02*
X179500000Y-128250000D01*
X180201000Y-120371000D02*
X180201000Y-127549000D01*
%TO.N,TAP_C2*%
X229125942Y-226092529D02*
X244741315Y-210477156D01*
X75122529Y-226092529D02*
X229125942Y-226092529D01*
X244741315Y-107700999D02*
X245942314Y-106500000D01*
X70780000Y-221750000D02*
X75122529Y-226092529D01*
X244741315Y-210477156D02*
X244741315Y-107700999D01*
%TO.N,TAP_C3*%
X78114315Y-179210000D02*
X75370899Y-176466584D01*
X75370899Y-176466584D02*
X75370899Y-175412529D01*
%TO.N,TAP_G5*%
X81951000Y-142883420D02*
X81951000Y-159951000D01*
X82451000Y-102671664D02*
X82451000Y-112652387D01*
X112741531Y-41059998D02*
X101461000Y-52340529D01*
X84941786Y-161299000D02*
X96324315Y-172681529D01*
X81961000Y-57262387D02*
X81961000Y-74186580D01*
X81951000Y-102171664D02*
X82451000Y-102671664D01*
X84480858Y-52340529D02*
X84480858Y-54742529D01*
X82451000Y-137117445D02*
X82451000Y-142383420D01*
X114200000Y-41059998D02*
X112741531Y-41059998D01*
X81951000Y-113152387D02*
X81951000Y-136617445D01*
X81951000Y-159951000D02*
X83299000Y-161299000D01*
X81951000Y-136617445D02*
X82451000Y-137117445D01*
X83299000Y-161299000D02*
X84941786Y-161299000D01*
X81961000Y-74186580D02*
X82451000Y-74676580D01*
X96324315Y-172681529D02*
X96324315Y-174710000D01*
X82451000Y-84747471D02*
X81951000Y-85247471D01*
X84480858Y-54742529D02*
X81961000Y-57262387D01*
X101461000Y-52340529D02*
X84480858Y-52340529D01*
X82451000Y-74676580D02*
X82451000Y-84747471D01*
X82451000Y-112652387D02*
X81951000Y-113152387D01*
X82451000Y-142383420D02*
X81951000Y-142883420D01*
X81951000Y-85247471D02*
X81951000Y-102171664D01*
%TO.N,TAP_C5*%
X153851529Y-65546084D02*
X137246438Y-65546084D01*
X159410000Y-157160000D02*
X158049000Y-155799000D01*
X122642175Y-61590646D02*
X113000000Y-51948471D01*
X133291000Y-61590646D02*
X122642175Y-61590646D01*
X137246438Y-65546084D02*
X133291000Y-61590646D01*
X158049000Y-69743555D02*
X153851529Y-65546084D01*
X158049000Y-155799000D02*
X158049000Y-69743555D01*
X113000000Y-51948471D02*
X113000000Y-42500000D01*
%TO.N,TAP_C6*%
X109000000Y-42750000D02*
X109000000Y-42308039D01*
X104990961Y-38299000D02*
X80702529Y-38299000D01*
X80702529Y-38299000D02*
X64161314Y-54840215D01*
X64161314Y-54840215D02*
X64161314Y-166772313D01*
X109000000Y-42308039D02*
X104990961Y-38299000D01*
X64161314Y-166772313D02*
X65139001Y-167750000D01*
%TO.N,TAP_G8*%
X80762529Y-55063916D02*
X79049000Y-56777445D01*
X95123315Y-173882529D02*
X95123315Y-175207471D01*
X106200000Y-41206510D02*
X106200000Y-43248471D01*
X97708942Y-51739529D02*
X84231916Y-51739529D01*
X79752529Y-161235314D02*
X80747471Y-161235314D01*
X91901786Y-170661000D02*
X95123315Y-173882529D01*
X83309529Y-55063916D02*
X80762529Y-55063916D01*
X83879858Y-52091587D02*
X83879858Y-54493587D01*
X106235943Y-174462529D02*
X112304059Y-174462529D01*
X104787472Y-175911000D02*
X106235943Y-174462529D01*
X124437786Y-174875000D02*
X132960001Y-174875000D01*
X79049000Y-160531785D02*
X79752529Y-161235314D01*
X90173157Y-170661000D02*
X91901786Y-170661000D01*
X95123315Y-175207471D02*
X95826844Y-175911000D01*
X106200000Y-43248471D02*
X97708942Y-51739529D01*
X114002530Y-176161000D02*
X123151786Y-176161000D01*
X79049000Y-56777445D02*
X79049000Y-160531785D01*
X112304059Y-174462529D02*
X114002530Y-176161000D01*
X80747471Y-161235314D02*
X90173157Y-170661000D01*
X84231916Y-51739529D02*
X83879858Y-52091587D01*
X123151786Y-176161000D02*
X124437786Y-174875000D01*
X95826844Y-175911000D02*
X104787472Y-175911000D01*
X83879858Y-54493587D02*
X83309529Y-55063916D01*
%TO.N,TAP_C8*%
X94522315Y-177781529D02*
X105645000Y-177781529D01*
X78448000Y-162702156D02*
X86406844Y-170661000D01*
X87401786Y-170661000D02*
X94522315Y-177781529D01*
X105000000Y-42750000D02*
X96750000Y-51000000D01*
X108787471Y-180924000D02*
X131275315Y-180924000D01*
X131275315Y-180924000D02*
X132824315Y-179375000D01*
X82286445Y-51000000D02*
X78448000Y-54838445D01*
X105645000Y-177781529D02*
X108787471Y-180924000D01*
X78448000Y-54838445D02*
X78448000Y-162702156D01*
X86406844Y-170661000D02*
X87401786Y-170661000D01*
X96750000Y-51000000D02*
X82286445Y-51000000D01*
%TO.N,TAP_G9*%
X236485562Y-217319000D02*
X241401000Y-212403562D01*
X128321000Y-221291000D02*
X230530529Y-221291000D01*
X241401000Y-212403562D02*
X241401000Y-173151000D01*
X230530529Y-221291000D02*
X234502529Y-217319000D01*
X241401000Y-173151000D02*
X240980000Y-172730000D01*
X240980000Y-172730000D02*
X240250000Y-172730000D01*
X234502529Y-217319000D02*
X236485562Y-217319000D01*
X127160000Y-220130000D02*
X128321000Y-221291000D01*
%TO.N,TAP_C9*%
X194681000Y-217319000D02*
X154298000Y-217319000D01*
X218321529Y-205750000D02*
X215799000Y-208272529D01*
X241500000Y-169403000D02*
X239099000Y-171804000D01*
X239099000Y-171804000D02*
X239099000Y-199619000D01*
X234451000Y-205096580D02*
X233797580Y-205750000D01*
X201230000Y-210770000D02*
X194681000Y-217319000D01*
X239099000Y-199619000D02*
X240250000Y-200770000D01*
X240250000Y-200770000D02*
X237591529Y-200770000D01*
X241500000Y-55769268D02*
X241500000Y-169403000D01*
X122534473Y-47696000D02*
X114697471Y-39858998D01*
X169212428Y-47696000D02*
X122534473Y-47696000D01*
X234451000Y-203910529D02*
X234451000Y-205096580D01*
X229116418Y-43385686D02*
X241500000Y-55769268D01*
X215799000Y-210770000D02*
X201230000Y-210770000D01*
X133321000Y-218429000D02*
X131660000Y-220090000D01*
X173522742Y-43385686D02*
X169212428Y-47696000D01*
X233797580Y-205750000D02*
X218321529Y-205750000D01*
X215799000Y-208272529D02*
X215799000Y-210770000D01*
X154298000Y-217319000D02*
X153188000Y-218429000D01*
X173522742Y-43385686D02*
X229116418Y-43385686D01*
X111908548Y-39858998D02*
X111595037Y-40172509D01*
X237591529Y-200770000D02*
X234451000Y-203910529D01*
X153188000Y-218429000D02*
X133321000Y-218429000D01*
X114697471Y-39858998D02*
X111908548Y-39858998D01*
%TO.N,LOAD0*%
X69565315Y-61184685D02*
X69565315Y-170724000D01*
X96497693Y-40252307D02*
X96201000Y-40549000D01*
X75824084Y-54925916D02*
X69565315Y-61184685D01*
X76957471Y-54925916D02*
X75824084Y-54925916D01*
X94799000Y-41252529D02*
X94799000Y-41951000D01*
X81633387Y-50250000D02*
X76957471Y-54925916D01*
X95502529Y-40549000D02*
X94799000Y-41252529D01*
X94799000Y-41951000D02*
X86500000Y-50250000D01*
X86500000Y-50250000D02*
X81633387Y-50250000D01*
X97200000Y-40252307D02*
X96497693Y-40252307D01*
X96201000Y-40549000D02*
X95502529Y-40549000D01*
X69565315Y-170724000D02*
X68364315Y-171925000D01*
%TO.N,LOAD1*%
X96000000Y-41750000D02*
X97400778Y-41750000D01*
X67163315Y-172422471D02*
X67941844Y-173201000D01*
X67750000Y-60061527D02*
X67750000Y-163115844D01*
X67164315Y-164696471D02*
X67750000Y-165282156D01*
X67750000Y-165282156D02*
X67750000Y-168300844D01*
X67163315Y-169882471D02*
X67750000Y-170469156D01*
X97400778Y-41750000D02*
X98401000Y-40749778D01*
X67164315Y-163701529D02*
X67164315Y-164696471D01*
X67750000Y-170840844D02*
X67163315Y-171427529D01*
X67163315Y-171427529D02*
X67163315Y-172422471D01*
X98401000Y-39754836D02*
X97697471Y-39051307D01*
X85703315Y-173201000D02*
X86904315Y-172000000D01*
X67750000Y-170469156D02*
X67750000Y-170840844D01*
X67750000Y-163115844D02*
X67164315Y-163701529D01*
X67750000Y-168300844D02*
X67163315Y-168887529D01*
X67163315Y-168887529D02*
X67163315Y-169882471D01*
X97697471Y-39051307D02*
X88760220Y-39051307D01*
X67941844Y-173201000D02*
X85703315Y-173201000D01*
X88760220Y-39051307D02*
X67750000Y-60061527D01*
X98401000Y-40749778D02*
X98401000Y-39754836D01*
%TO.N,LOAD2*%
X77111000Y-220499000D02*
X75112000Y-218500000D01*
X93923315Y-198421247D02*
X93923315Y-192500000D01*
X75112000Y-218500000D02*
X73844562Y-218500000D01*
X112728000Y-223602000D02*
X78852000Y-223602000D01*
X53089000Y-218500000D02*
X73844562Y-218500000D01*
X73844562Y-218500000D02*
X93923315Y-198421247D01*
X114580000Y-221750000D02*
X112728000Y-223602000D01*
X77111000Y-221861000D02*
X77111000Y-220499000D01*
X78852000Y-223602000D02*
X77111000Y-221861000D01*
%TO.N,LOAD3*%
X132656844Y-183656000D02*
X133651786Y-183656000D01*
X92073266Y-219898000D02*
X115690128Y-196281138D01*
X87862587Y-183621000D02*
X98289039Y-194047452D01*
X122787471Y-189161000D02*
X124485942Y-187462529D01*
X131862530Y-174274000D02*
X125968315Y-174274000D01*
X143065315Y-171167529D02*
X142361786Y-170464000D01*
X136565315Y-180742471D02*
X136565315Y-178701580D01*
X139565315Y-174048420D02*
X140747735Y-172866000D01*
X84381818Y-223001000D02*
X83649000Y-222268182D01*
X64835735Y-181219000D02*
X84600529Y-181219000D01*
X112040000Y-221750000D02*
X110789000Y-223001000D01*
X124485942Y-187462529D02*
X128850315Y-187462529D01*
X83649000Y-221231818D02*
X84982818Y-219898000D01*
X142361786Y-170464000D02*
X135672530Y-170464000D01*
X51147000Y-164725415D02*
X60799001Y-174377416D01*
X110789000Y-223001000D02*
X84381818Y-223001000D01*
X60799001Y-174377416D02*
X60799001Y-175756580D01*
X51147000Y-162600387D02*
X51147000Y-164725415D01*
X115690128Y-194047452D02*
X120576580Y-189161000D01*
X115690128Y-196281138D02*
X115690128Y-194047452D01*
X84600529Y-181219000D02*
X87002529Y-183621000D01*
X63873315Y-178830894D02*
X63873315Y-180256580D01*
X63873315Y-180256580D02*
X64835735Y-181219000D01*
X98289039Y-194047452D02*
X115690128Y-194047452D01*
X136565315Y-178701580D02*
X139565315Y-175701580D01*
X87002529Y-183621000D02*
X87862587Y-183621000D01*
X139565315Y-175701580D02*
X139565315Y-174048420D01*
X60799001Y-175756580D02*
X63873315Y-178830894D01*
X140747735Y-172866000D02*
X142361786Y-172866000D01*
X125968315Y-174274000D02*
X123654315Y-171960000D01*
X53550001Y-160698359D02*
X53049028Y-160698359D01*
X133651786Y-183656000D02*
X136565315Y-180742471D01*
X53049028Y-160698359D02*
X51147000Y-162600387D01*
X83649000Y-222268182D02*
X83649000Y-221231818D01*
X120576580Y-189161000D02*
X122787471Y-189161000D01*
X84982818Y-219898000D02*
X92073266Y-219898000D01*
X143065315Y-172162471D02*
X143065315Y-171167529D01*
X135672530Y-170464000D02*
X131862530Y-174274000D01*
X128850315Y-187462529D02*
X132656844Y-183656000D01*
X142361786Y-172866000D02*
X143065315Y-172162471D01*
%TO.N,LOAD4*%
X87504315Y-180604257D02*
X90799000Y-183898942D01*
X153440315Y-177125000D02*
X145364315Y-177125000D01*
X90799000Y-183898942D02*
X90799000Y-185707471D01*
X139335000Y-171665000D02*
X141864315Y-171665000D01*
X65928859Y-177886438D02*
X69996191Y-177886438D01*
X96252529Y-191161000D02*
X100576580Y-191161000D01*
X102451000Y-187633420D02*
X103865420Y-186219000D01*
X103865420Y-186219000D02*
X125404529Y-186219000D01*
X160611000Y-185966580D02*
X160611000Y-184295685D01*
X160611000Y-184295685D02*
X153440315Y-177125000D01*
X118999000Y-212251000D02*
X122112471Y-212251000D01*
X52949000Y-162496858D02*
X61083142Y-170631000D01*
X61083142Y-171387561D02*
X63799001Y-174103420D01*
X136910735Y-200966000D02*
X140175735Y-197701000D01*
X72714010Y-180604257D02*
X87504315Y-180604257D01*
X122816000Y-211547471D02*
X122816000Y-209592471D01*
X100576580Y-191161000D02*
X102451000Y-189286580D01*
X102451000Y-189286580D02*
X102451000Y-187633420D01*
X122112471Y-212251000D02*
X122816000Y-211547471D01*
X125404529Y-186219000D02*
X128002529Y-183621000D01*
X145250000Y-194392786D02*
X152184794Y-194392786D01*
X140175735Y-197701000D02*
X141941786Y-197701000D01*
X141941786Y-197701000D02*
X145250000Y-194392786D01*
X134161001Y-178241580D02*
X136701001Y-175701580D01*
X122816000Y-209592471D02*
X131442471Y-200966000D01*
X152184794Y-194392786D02*
X160611000Y-185966580D01*
X69996191Y-177886438D02*
X72714010Y-180604257D01*
X61083142Y-170631000D02*
X61083142Y-171387561D01*
X136701001Y-174298999D02*
X139335000Y-171665000D01*
X134161001Y-179736785D02*
X134161001Y-178241580D01*
X63799001Y-174103420D02*
X63799001Y-175756580D01*
X90799000Y-185707471D02*
X96252529Y-191161000D01*
X109500000Y-221750000D02*
X118999000Y-212251000D01*
X128002529Y-183621000D02*
X130276786Y-183621000D01*
X63799001Y-175756580D02*
X65928859Y-177886438D01*
X130276786Y-183621000D02*
X134161001Y-179736785D01*
X131442471Y-200966000D02*
X136910735Y-200966000D01*
X136701001Y-175701580D02*
X136701001Y-174298999D01*
%TO.N,INPUT0*%
X65964314Y-59750000D02*
X65964314Y-159964314D01*
X65964314Y-58485570D02*
X65964314Y-59750000D01*
X85200000Y-40344435D02*
X85200000Y-40709739D01*
X80099942Y-44349942D02*
X65964314Y-58485570D01*
X85200000Y-40709739D02*
X81559797Y-44349942D01*
X81559797Y-44349942D02*
X80099942Y-44349942D01*
%TO.N,INPUT1*%
X81849942Y-41750000D02*
X65363314Y-58236628D01*
X82461268Y-41750000D02*
X81849942Y-41750000D01*
X65363314Y-161651000D02*
X65962314Y-162250000D01*
X83449133Y-40762135D02*
X82461268Y-41750000D01*
X65363314Y-58236628D02*
X65363314Y-161651000D01*
%TO.N,INPUT2*%
X69955943Y-174212529D02*
X75878373Y-174212529D01*
X66339001Y-175427471D02*
X67042530Y-176131000D01*
X95549000Y-186810529D02*
X95549000Y-188055471D01*
X88105315Y-180355315D02*
X91509000Y-183759000D01*
X64762314Y-57987686D02*
X64762314Y-165449999D01*
X81200000Y-39500000D02*
X81200000Y-41550000D01*
X66339001Y-167026686D02*
X66339001Y-175427471D01*
X92497471Y-183759000D02*
X95549000Y-186810529D01*
X100951000Y-188759000D02*
X101250000Y-188460000D01*
X68037472Y-176131000D02*
X69955943Y-174212529D01*
X96252529Y-188759000D02*
X100951000Y-188759000D01*
X86691786Y-175911000D02*
X88105315Y-177324529D01*
X64762314Y-165449999D02*
X66339001Y-167026686D01*
X67042530Y-176131000D02*
X68037472Y-176131000D01*
X95549000Y-188055471D02*
X96252529Y-188759000D01*
X91509000Y-183759000D02*
X92497471Y-183759000D01*
X77576844Y-175911000D02*
X86691786Y-175911000D01*
X81200000Y-41550000D02*
X64762314Y-57987686D01*
X75878373Y-174212529D02*
X77576844Y-175911000D01*
X88105315Y-177324529D02*
X88105315Y-180355315D01*
%TO.N,OUT_G7*%
X119173420Y-200259000D02*
X122224000Y-200259000D01*
X238250000Y-118500000D02*
X240000000Y-116750000D01*
X122224000Y-200259000D02*
X128782000Y-193701000D01*
X240000000Y-116750000D02*
X240300000Y-116750000D01*
X84900000Y-221750000D02*
X86151000Y-220499000D01*
X128782000Y-193701000D02*
X150849000Y-193701000D01*
X238250000Y-129500000D02*
X238250000Y-118500000D01*
X150849000Y-193701000D02*
X159410000Y-185140000D01*
X86151000Y-220499000D02*
X98933420Y-220499000D01*
X98933420Y-220499000D02*
X119173420Y-200259000D01*
%TO.N,Net-(D50-K)*%
X140198000Y-50255000D02*
X226043471Y-50255000D01*
X230699471Y-54911000D02*
X237411000Y-54911000D01*
X226043471Y-50255000D02*
X230699471Y-54911000D01*
X240300000Y-57800000D02*
X240300000Y-60845084D01*
X237411000Y-54911000D02*
X240300000Y-57800000D01*
%TO.N,Net-(D62-K)*%
X71250000Y-162864314D02*
X72863971Y-161250343D01*
X72863971Y-161250343D02*
X72863971Y-89631500D01*
X72863971Y-89631500D02*
X75995471Y-86500000D01*
X75995471Y-86500000D02*
X77248000Y-86500000D01*
%TD*%
M02*
