M48
; DRILL file {KiCad 9.0.2} date 2026-05-12T21:46:39-0400
; FORMAT={-:-/ absolute / metric / decimal}
; #@! TF.CreationDate,2026-05-12T21:46:39-04:00
; #@! TF.GenerationSoftware,Kicad,Pcbnew,9.0.2
; #@! TF.FileFunction,Plated,1,4,PTH
FMAT,2
METRIC
; #@! TA.AperFunction,Plated,PTH,ComponentDrill
T1C0.750
; #@! TA.AperFunction,Plated,PTH,ViaDrill
T2C0.800
; #@! TA.AperFunction,Plated,PTH,ComponentDrill
T3C0.800
; #@! TA.AperFunction,Plated,PTH,ComponentDrill
T4C1.000
%
G90
G05
T1
X60.7Y-198.92
X60.7Y-200.19
X60.7Y-201.46
X70.5Y-190.22
X70.5Y-191.49
X70.5Y-192.76
X71.0Y-198.97
X71.0Y-200.24
X71.0Y-201.51
X71.914Y-175.73
X71.914Y-177.0
X71.914Y-178.27
X75.3Y-89.145
X75.3Y-90.415
X75.3Y-91.685
X75.3Y-117.05
X75.3Y-118.32
X75.3Y-119.59
X75.3Y-145.05
X75.3Y-146.32
X75.3Y-147.59
X75.31Y-61.16
X75.31Y-62.43
X75.31Y-63.7
X79.45Y-198.66
X79.45Y-199.93
X79.45Y-201.2
X89.51Y-198.76
X89.51Y-200.03
X89.51Y-201.3
X89.55Y-189.55
X89.55Y-190.82
X89.55Y-192.09
X90.404Y-175.96
X90.404Y-177.23
X90.404Y-178.5
X94.0Y-97.805
X94.0Y-99.075
X94.0Y-100.345
X94.0Y-125.71
X94.0Y-126.98
X94.0Y-128.25
X94.0Y-153.71
X94.0Y-154.98
X94.0Y-156.25
X94.01Y-69.82
X94.01Y-71.09
X94.01Y-72.36
X94.05Y-88.825
X94.05Y-90.095
X94.05Y-91.365
X94.05Y-116.73
X94.05Y-118.0
X94.05Y-119.27
X94.05Y-144.73
X94.05Y-146.0
X94.05Y-147.27
X94.06Y-60.84
X94.06Y-62.11
X94.06Y-63.38
X97.95Y-198.37
X97.95Y-199.64
X97.95Y-200.91
X108.05Y-189.51
X108.05Y-190.78
X108.05Y-192.05
X108.05Y-198.26
X108.05Y-199.53
X108.05Y-200.8
X108.414Y-175.51
X108.414Y-176.78
X108.414Y-178.05
X112.75Y-88.845
X112.75Y-90.115
X112.75Y-91.385
X112.75Y-97.555
X112.75Y-98.825
X112.75Y-100.095
X112.75Y-116.75
X112.75Y-118.02
X112.75Y-119.29
X112.75Y-125.46
X112.75Y-126.73
X112.75Y-128.0
X112.75Y-144.75
X112.75Y-146.02
X112.75Y-147.29
X112.75Y-153.46
X112.75Y-154.73
X112.75Y-156.0
X112.76Y-60.86
X112.76Y-62.13
X112.76Y-63.4
X112.76Y-69.57
X112.76Y-70.84
X112.76Y-72.11
X116.45Y-198.12
X116.45Y-199.39
X116.45Y-200.66
X117.8Y-145.05
X117.8Y-146.32
X117.8Y-147.59
X117.85Y-61.145
X117.85Y-62.415
X117.85Y-63.685
X117.85Y-89.145
X117.85Y-90.415
X117.85Y-91.685
X117.85Y-117.05
X117.85Y-118.32
X117.85Y-119.59
X126.55Y-188.76
X126.55Y-190.03
X126.55Y-191.3
X126.8Y-197.76
X126.8Y-199.03
X126.8Y-200.3
X126.904Y-175.96
X126.904Y-177.23
X126.904Y-178.5
X128.21Y-208.0
X129.48Y-208.0
X130.75Y-208.0
X135.269Y-197.5
X135.269Y-198.77
X135.269Y-200.04
X136.5Y-153.71
X136.5Y-154.98
X136.5Y-156.25
X136.55Y-69.805
X136.55Y-71.075
X136.55Y-72.345
X136.55Y-97.805
X136.55Y-99.075
X136.55Y-100.345
X136.55Y-125.71
X136.55Y-126.98
X136.55Y-128.25
X136.55Y-144.73
X136.55Y-146.0
X136.55Y-147.27
X136.6Y-60.825
X136.6Y-62.095
X136.6Y-63.365
X136.6Y-88.825
X136.6Y-90.095
X136.6Y-91.365
X136.6Y-116.73
X136.6Y-118.0
X136.6Y-119.27
X141.12Y-208.33
X142.39Y-208.33
X143.66Y-208.33
X144.591Y-189.3
X144.591Y-190.57
X144.591Y-191.84
X145.364Y-175.855
X145.364Y-177.125
X145.364Y-178.395
X145.569Y-197.55
X145.569Y-198.82
X145.569Y-200.09
X149.82Y-217.18
X149.96Y-207.58
X151.09Y-217.18
X151.23Y-207.58
X152.36Y-217.18
X152.5Y-207.58
X155.25Y-144.75
X155.25Y-146.02
X155.25Y-147.29
X155.25Y-153.46
X155.25Y-154.73
X155.25Y-156.0
X155.3Y-60.845
X155.3Y-62.115
X155.3Y-63.385
X155.3Y-69.555
X155.3Y-70.825
X155.3Y-72.095
X155.3Y-88.845
X155.3Y-90.115
X155.3Y-91.385
X155.3Y-97.555
X155.3Y-98.825
X155.3Y-100.095
X155.3Y-116.75
X155.3Y-118.02
X155.3Y-119.29
X155.3Y-125.46
X155.3Y-126.73
X155.3Y-128.0
X160.3Y-145.05
X160.3Y-146.32
X160.3Y-147.59
X160.3Y-173.03
X160.3Y-174.3
X160.3Y-175.57
X160.3Y-201.07
X160.3Y-202.34
X160.3Y-203.61
X160.35Y-61.145
X160.35Y-62.415
X160.35Y-63.685
X160.35Y-117.05
X160.35Y-118.32
X160.35Y-119.59
X160.4Y-89.145
X160.4Y-90.415
X160.4Y-91.685
X179.0Y-153.71
X179.0Y-154.98
X179.0Y-156.25
X179.0Y-181.69
X179.0Y-182.96
X179.0Y-184.23
X179.0Y-209.73
X179.0Y-211.0
X179.0Y-212.27
X179.05Y-69.805
X179.05Y-71.075
X179.05Y-72.345
X179.05Y-125.71
X179.05Y-126.98
X179.05Y-128.25
X179.05Y-144.73
X179.05Y-146.0
X179.05Y-147.27
X179.05Y-172.71
X179.05Y-173.98
X179.05Y-175.25
X179.05Y-200.75
X179.05Y-202.02
X179.05Y-203.29
X179.1Y-60.825
X179.1Y-62.095
X179.1Y-63.365
X179.1Y-97.805
X179.1Y-99.075
X179.1Y-100.345
X179.1Y-116.73
X179.1Y-118.0
X179.1Y-119.27
X179.15Y-88.825
X179.15Y-90.095
X179.15Y-91.365
X197.75Y-144.75
X197.75Y-146.02
X197.75Y-147.29
X197.75Y-153.46
X197.75Y-154.73
X197.75Y-156.0
X197.75Y-172.73
X197.75Y-174.0
X197.75Y-175.27
X197.75Y-181.44
X197.75Y-182.71
X197.75Y-183.98
X197.75Y-200.77
X197.75Y-202.04
X197.75Y-203.31
X197.75Y-209.48
X197.75Y-210.75
X197.75Y-212.02
X197.8Y-60.845
X197.8Y-62.115
X197.8Y-63.385
X197.8Y-69.555
X197.8Y-70.825
X197.8Y-72.095
X197.8Y-116.75
X197.8Y-118.02
X197.8Y-119.29
X197.8Y-125.46
X197.8Y-126.73
X197.8Y-128.0
X197.85Y-88.845
X197.85Y-90.115
X197.85Y-91.385
X197.85Y-97.555
X197.85Y-98.825
X197.85Y-100.095
X202.8Y-145.05
X202.8Y-146.32
X202.8Y-147.59
X202.8Y-173.03
X202.8Y-174.3
X202.8Y-175.57
X202.8Y-201.07
X202.8Y-202.34
X202.8Y-203.61
X202.81Y-89.26
X202.81Y-90.53
X202.81Y-91.8
X202.85Y-61.145
X202.85Y-62.415
X202.85Y-63.685
X202.85Y-117.05
X202.85Y-118.32
X202.85Y-119.59
X221.5Y-153.71
X221.5Y-154.98
X221.5Y-156.25
X221.5Y-181.69
X221.5Y-182.96
X221.5Y-184.23
X221.5Y-209.73
X221.5Y-211.0
X221.5Y-212.27
X221.51Y-97.92
X221.51Y-99.19
X221.51Y-100.46
X221.55Y-69.805
X221.55Y-71.075
X221.55Y-72.345
X221.55Y-125.71
X221.55Y-126.98
X221.55Y-128.25
X221.55Y-144.73
X221.55Y-146.0
X221.55Y-147.27
X221.55Y-172.71
X221.55Y-173.98
X221.55Y-175.25
X221.55Y-200.75
X221.55Y-202.02
X221.55Y-203.29
X221.56Y-88.94
X221.56Y-90.21
X221.56Y-91.48
X221.6Y-60.825
X221.6Y-62.095
X221.6Y-63.365
X221.6Y-116.73
X221.6Y-118.0
X221.6Y-119.27
X240.25Y-144.75
X240.25Y-146.02
X240.25Y-147.29
X240.25Y-153.46
X240.25Y-154.73
X240.25Y-156.0
X240.25Y-172.73
X240.25Y-174.0
X240.25Y-175.27
X240.25Y-181.44
X240.25Y-182.71
X240.25Y-183.98
X240.25Y-200.77
X240.25Y-202.04
X240.25Y-203.31
X240.25Y-209.48
X240.25Y-210.75
X240.25Y-212.02
X240.26Y-88.96
X240.26Y-90.23
X240.26Y-91.5
X240.26Y-97.67
X240.26Y-98.94
X240.26Y-100.21
X240.3Y-60.845
X240.3Y-62.115
X240.3Y-63.385
X240.3Y-69.555
X240.3Y-70.825
X240.3Y-72.095
X240.3Y-116.75
X240.3Y-118.02
X240.3Y-119.29
X240.3Y-125.46
X240.3Y-126.73
X240.3Y-128.0
T2
X49.25Y-164.0
X52.348Y-164.228
X52.949Y-162.497
X53.089Y-218.5
X53.55Y-160.698
X54.151Y-158.907
X65.139Y-167.75
X65.962Y-162.25
X65.963Y-164.199
X66.5Y-160.25
X68.365Y-164.199
X71.663Y-144.913
X75.371Y-175.413
X75.457Y-40.326
X75.498Y-186.5
X77.248Y-86.5
X79.928Y-189.114
X81.2Y-39.5
X83.449Y-40.762
X84.858Y-158.542
X85.2Y-40.344
X86.206Y-227.294
X88.0Y-41.75
X89.2Y-40.31
X92.0Y-41.75
X92.25Y-177.5
X93.2Y-40.31
X93.5Y-179.211
X93.923Y-192.5
X96.0Y-41.75
X96.589Y-170.339
X97.2Y-40.252
X99.589Y-170.73
X102.2Y-40.56
X104.5Y-191.0
X105.0Y-42.75
X106.2Y-41.207
X108.25Y-168.015
X109.0Y-42.75
X110.2Y-41.31
X111.595Y-40.173
X112.1Y-189.25
X113.0Y-42.5
X114.2Y-41.06
X114.559Y-122.099
X115.0Y-49.5
X119.25Y-41.75
X120.523Y-40.477
X123.25Y-41.5
X124.2Y-39.754
X126.0Y-168.02
X129.75Y-179.724
X130.753Y-192.25
X140.198Y-50.255
X144.25Y-167.725
X145.6Y-39.5
X146.599Y-216.599
X155.897Y-75.187
X156.75Y-66.746
X159.25Y-121.498
X159.451Y-56.299
X159.75Y-76.0
X160.35Y-66.746
X160.527Y-71.382
X176.198Y-75.198
X188.544Y-70.51
X201.5Y-121.498
X202.617Y-70.985
X212.576Y-133.23
X234.5Y-71.25
X238.25Y-129.5
X240.595Y-227.958
X241.759Y-226.052
X242.558Y-224.439
X243.298Y-222.798
X243.855Y-57.421
X244.74Y-59.21
X245.47Y-60.855
X245.942Y-106.5
X245.942Y-124.75
X245.942Y-122.95
T3
X59.45Y-187.875
X59.45Y-190.415
X59.46Y-174.93
X59.46Y-179.43
X59.5Y-182.72
X59.5Y-185.26
X62.0Y-174.93
X62.0Y-179.43
X63.864Y-169.43
X63.864Y-171.97
X63.95Y-188.92
X63.95Y-193.42
X64.0Y-182.72
X64.0Y-185.26
X64.086Y-197.92
X64.086Y-202.42
X65.0Y-174.93
X65.074Y-179.43
X66.49Y-188.92
X66.49Y-193.42
X66.626Y-197.92
X66.626Y-202.42
X67.54Y-174.93
X67.614Y-179.43
X68.364Y-169.385
X68.364Y-171.925
X68.5Y-182.72
X68.5Y-185.26
X71.25Y-132.079
X71.25Y-134.619
X71.25Y-160.324
X71.25Y-162.864
X72.864Y-169.385
X72.864Y-171.925
X73.25Y-182.47
X73.25Y-185.01
X74.41Y-97.005
X74.41Y-101.255
X74.41Y-124.91
X74.41Y-129.16
X74.41Y-152.91
X74.41Y-157.16
X74.42Y-69.02
X74.42Y-73.27
X75.773Y-132.079
X75.773Y-134.619
X75.825Y-160.324
X75.825Y-162.864
X76.45Y-81.71
X76.45Y-84.25
X76.45Y-109.615
X76.45Y-112.155
X76.45Y-137.615
X76.45Y-140.155
X76.46Y-53.725
X76.46Y-56.265
X76.95Y-97.005
X76.95Y-101.255
X76.95Y-124.91
X76.95Y-129.16
X76.95Y-152.91
X76.95Y-157.16
X76.96Y-69.02
X76.96Y-73.27
X78.074Y-174.71
X78.114Y-179.21
X78.5Y-182.42
X78.5Y-184.96
X78.5Y-187.67
X78.5Y-190.21
X80.25Y-132.005
X80.25Y-134.545
X80.25Y-160.034
X80.25Y-162.574
X80.614Y-174.71
X80.654Y-179.21
X80.71Y-87.845
X80.71Y-96.845
X80.71Y-115.75
X80.71Y-124.75
X80.71Y-143.75
X80.71Y-152.75
X80.72Y-59.86
X80.72Y-68.86
X80.75Y-92.345
X80.75Y-101.345
X80.75Y-120.25
X80.75Y-129.25
X80.75Y-148.25
X80.75Y-157.25
X80.76Y-64.36
X80.76Y-73.36
X81.25Y-81.71
X81.25Y-84.25
X81.25Y-109.615
X81.25Y-112.155
X81.25Y-137.615
X81.25Y-140.155
X81.26Y-53.725
X81.26Y-56.265
X82.404Y-169.46
X82.404Y-172.0
X82.75Y-188.71
X82.75Y-193.21
X82.846Y-202.21
X82.96Y-197.71
X83.0Y-182.42
X83.0Y-184.96
X83.25Y-87.845
X83.25Y-96.845
X83.25Y-115.75
X83.25Y-124.75
X83.25Y-143.75
X83.25Y-152.75
X83.26Y-59.86
X83.26Y-68.86
X83.29Y-92.345
X83.29Y-101.345
X83.29Y-120.25
X83.29Y-129.25
X83.29Y-148.25
X83.29Y-157.25
X83.3Y-64.36
X83.3Y-73.36
X83.654Y-174.71
X83.654Y-179.21
X83.75Y-104.055
X83.75Y-106.595
X83.75Y-131.96
X83.75Y-134.5
X83.75Y-159.96
X83.75Y-162.5
X83.76Y-76.07
X83.76Y-78.61
X85.29Y-188.71
X85.29Y-193.21
X85.386Y-202.21
X85.5Y-197.71
X86.0Y-81.71
X86.0Y-84.25
X86.0Y-109.615
X86.0Y-112.155
X86.0Y-137.615
X86.0Y-140.155
X86.01Y-53.725
X86.01Y-56.265
X86.194Y-174.71
X86.194Y-179.21
X86.886Y-92.345
X86.886Y-101.345
X86.886Y-120.25
X86.886Y-129.25
X86.886Y-148.25
X86.886Y-157.25
X86.896Y-64.36
X86.896Y-73.36
X86.904Y-169.46
X86.904Y-172.0
X86.96Y-96.845
X86.96Y-124.75
X86.96Y-152.75
X86.97Y-68.86
X87.0Y-87.845
X87.0Y-115.75
X87.0Y-143.75
X87.01Y-59.86
X87.5Y-182.42
X87.5Y-184.96
X88.5Y-104.055
X88.5Y-106.595
X88.5Y-131.96
X88.5Y-134.5
X88.5Y-159.96
X88.5Y-162.5
X88.51Y-76.07
X88.51Y-78.61
X89.426Y-92.345
X89.426Y-101.345
X89.426Y-120.25
X89.426Y-129.25
X89.426Y-148.25
X89.426Y-157.25
X89.436Y-64.36
X89.436Y-73.36
X89.5Y-96.845
X89.5Y-124.75
X89.5Y-152.75
X89.51Y-68.86
X89.54Y-87.845
X89.54Y-115.75
X89.54Y-143.75
X89.55Y-59.86
X90.75Y-81.71
X90.75Y-84.25
X90.75Y-109.615
X90.75Y-112.155
X90.75Y-137.615
X90.75Y-140.155
X90.76Y-53.725
X90.76Y-56.265
X91.404Y-169.46
X91.404Y-172.0
X92.0Y-182.42
X92.0Y-184.96
X93.25Y-104.095
X93.25Y-106.635
X93.25Y-132.0
X93.25Y-134.54
X93.25Y-160.0
X93.25Y-162.54
X93.26Y-76.11
X93.26Y-78.65
X95.5Y-81.71
X95.5Y-84.25
X95.5Y-109.615
X95.5Y-112.155
X95.5Y-137.615
X95.5Y-140.155
X95.51Y-53.725
X95.51Y-56.265
X96.324Y-174.71
X96.324Y-179.21
X96.75Y-182.17
X96.75Y-184.71
X96.75Y-187.42
X96.75Y-189.96
X98.0Y-104.1
X98.0Y-106.64
X98.0Y-132.005
X98.0Y-134.545
X98.0Y-160.005
X98.0Y-162.545
X98.01Y-76.115
X98.01Y-78.655
X98.864Y-174.71
X98.864Y-179.21
X99.46Y-96.595
X99.46Y-124.5
X99.46Y-152.5
X99.47Y-68.61
X99.5Y-87.845
X99.5Y-101.095
X99.5Y-115.75
X99.5Y-129.0
X99.5Y-143.75
X99.5Y-157.0
X99.51Y-59.86
X99.51Y-73.11
X99.636Y-92.345
X99.636Y-120.25
X99.636Y-148.25
X99.646Y-64.36
X100.25Y-81.71
X100.25Y-84.25
X100.25Y-109.615
X100.25Y-112.155
X100.25Y-137.615
X100.25Y-140.155
X100.26Y-53.725
X100.26Y-56.265
X100.864Y-169.46
X100.864Y-172.0
X101.25Y-182.125
X101.25Y-184.665
X101.25Y-188.46
X101.251Y-192.846
X101.386Y-197.21
X101.5Y-201.71
X101.75Y-174.71
X101.864Y-179.21
X102.0Y-96.595
X102.0Y-124.5
X102.0Y-152.5
X102.01Y-68.61
X102.04Y-87.845
X102.04Y-101.095
X102.04Y-115.75
X102.04Y-129.0
X102.04Y-143.75
X102.04Y-157.0
X102.05Y-59.86
X102.05Y-73.11
X102.176Y-92.345
X102.176Y-120.25
X102.176Y-148.25
X102.186Y-64.36
X102.75Y-104.055
X102.75Y-106.595
X102.75Y-131.96
X102.75Y-134.5
X102.75Y-159.96
X102.75Y-162.5
X102.76Y-76.07
X102.76Y-78.61
X103.79Y-188.46
X103.791Y-192.846
X103.926Y-197.21
X104.04Y-201.71
X104.29Y-174.71
X104.404Y-179.21
X104.75Y-81.71
X104.75Y-84.25
X104.75Y-109.615
X104.75Y-112.155
X104.75Y-137.615
X104.75Y-140.155
X104.76Y-53.725
X104.76Y-56.265
X105.364Y-169.415
X105.364Y-171.955
X105.636Y-96.595
X105.636Y-124.5
X105.636Y-152.5
X105.646Y-68.61
X105.75Y-87.845
X105.75Y-92.345
X105.75Y-101.095
X105.75Y-115.75
X105.75Y-120.25
X105.75Y-129.0
X105.75Y-143.75
X105.75Y-148.25
X105.75Y-157.0
X105.75Y-182.125
X105.75Y-184.665
X105.76Y-59.86
X105.76Y-64.36
X105.76Y-73.11
X107.5Y-104.055
X107.5Y-106.595
X107.5Y-131.96
X107.5Y-134.5
X107.5Y-159.96
X107.5Y-162.5
X107.51Y-76.07
X107.51Y-78.61
X108.176Y-96.595
X108.176Y-124.5
X108.176Y-152.5
X108.186Y-68.61
X108.29Y-87.845
X108.29Y-92.345
X108.29Y-101.095
X108.29Y-115.75
X108.29Y-120.25
X108.29Y-129.0
X108.29Y-143.75
X108.29Y-148.25
X108.29Y-157.0
X108.3Y-59.86
X108.3Y-64.36
X108.3Y-73.11
X109.5Y-81.71
X109.5Y-84.25
X109.5Y-109.615
X109.5Y-112.155
X109.5Y-137.615
X109.5Y-140.155
X109.51Y-53.725
X109.51Y-56.265
X109.864Y-169.46
X109.864Y-172.0
X110.25Y-182.17
X110.25Y-184.71
X114.5Y-174.96
X114.501Y-179.46
X115.0Y-182.42
X115.0Y-184.96
X115.0Y-187.675
X115.0Y-190.215
X116.91Y-152.91
X116.91Y-157.16
X116.96Y-69.005
X116.96Y-73.255
X116.96Y-97.005
X116.96Y-101.255
X116.96Y-124.91
X116.96Y-129.16
X117.04Y-174.96
X117.041Y-179.46
X118.904Y-169.415
X118.904Y-171.955
X118.95Y-137.615
X118.95Y-140.155
X119.0Y-53.71
X119.0Y-56.25
X119.0Y-81.71
X119.0Y-84.25
X119.0Y-109.615
X119.0Y-112.155
X119.45Y-152.91
X119.45Y-157.16
X119.5Y-69.005
X119.5Y-73.255
X119.5Y-97.005
X119.5Y-101.255
X119.5Y-124.91
X119.5Y-129.16
X119.5Y-182.42
X119.5Y-184.96
X119.75Y-187.96
X119.886Y-192.46
X119.96Y-196.96
X120.0Y-201.46
X120.04Y-179.46
X120.114Y-174.96
X121.615Y-211.05
X121.615Y-215.55
X121.62Y-206.55
X122.29Y-187.96
X122.426Y-192.46
X122.5Y-196.96
X122.54Y-201.46
X122.58Y-179.46
X122.654Y-174.96
X123.21Y-143.75
X123.21Y-152.75
X123.25Y-148.25
X123.25Y-157.25
X123.26Y-59.845
X123.26Y-68.845
X123.26Y-87.845
X123.26Y-96.845
X123.26Y-115.75
X123.26Y-124.75
X123.3Y-64.345
X123.3Y-73.345
X123.3Y-92.345
X123.3Y-101.345
X123.3Y-120.25
X123.3Y-129.25
X123.654Y-169.42
X123.654Y-171.96
X123.75Y-137.615
X123.75Y-140.155
X123.8Y-53.71
X123.8Y-56.25
X123.8Y-81.71
X123.8Y-84.25
X123.8Y-109.615
X123.8Y-112.155
X124.0Y-182.42
X124.0Y-184.96
X124.155Y-211.05
X124.155Y-215.55
X124.16Y-206.55
X125.75Y-143.75
X125.75Y-152.75
X125.79Y-148.25
X125.79Y-157.25
X125.8Y-59.845
X125.8Y-68.845
X125.8Y-87.845
X125.8Y-96.845
X125.8Y-115.75
X125.8Y-124.75
X125.84Y-64.345
X125.84Y-73.345
X125.84Y-92.345
X125.84Y-101.345
X125.84Y-120.25
X125.84Y-129.25
X126.25Y-159.96
X126.25Y-162.5
X126.3Y-76.055
X126.3Y-78.595
X126.3Y-104.055
X126.3Y-106.595
X126.3Y-131.96
X126.3Y-134.5
X127.16Y-212.01
X127.16Y-214.55
X127.16Y-217.59
X127.16Y-220.13
X128.404Y-169.375
X128.404Y-171.915
X128.5Y-137.615
X128.5Y-140.155
X128.5Y-182.42
X128.5Y-184.96
X128.55Y-53.71
X128.55Y-56.25
X128.55Y-81.71
X128.55Y-84.25
X128.55Y-109.615
X128.55Y-112.155
X129.386Y-148.25
X129.386Y-157.25
X129.436Y-64.345
X129.436Y-73.345
X129.436Y-92.345
X129.436Y-101.345
X129.436Y-120.25
X129.436Y-129.25
X129.46Y-152.75
X129.5Y-143.75
X129.51Y-68.845
X129.51Y-96.845
X129.51Y-124.75
X129.55Y-59.845
X129.55Y-87.845
X129.55Y-115.75
X131.0Y-159.96
X131.0Y-162.5
X131.05Y-76.055
X131.05Y-78.595
X131.05Y-104.055
X131.05Y-106.595
X131.05Y-131.96
X131.05Y-134.5
X131.66Y-212.124
X131.66Y-214.664
X131.66Y-217.55
X131.66Y-220.09
X131.926Y-148.25
X131.926Y-157.25
X131.976Y-64.345
X131.976Y-73.345
X131.976Y-92.345
X131.976Y-101.345
X131.976Y-120.25
X131.976Y-129.25
X132.0Y-152.75
X132.04Y-143.75
X132.05Y-68.845
X132.05Y-96.845
X132.05Y-124.75
X132.09Y-59.845
X132.09Y-87.845
X132.09Y-115.75
X132.824Y-179.375
X132.96Y-174.875
X133.154Y-182.455
X133.154Y-184.995
X133.154Y-187.705
X133.154Y-190.245
X133.25Y-137.615
X133.25Y-140.155
X133.3Y-53.71
X133.3Y-56.25
X133.3Y-81.71
X133.3Y-84.25
X133.3Y-109.615
X133.3Y-112.155
X134.91Y-206.13
X134.91Y-210.63
X134.91Y-215.13
X134.955Y-219.63
X135.364Y-179.375
X135.5Y-174.875
X135.75Y-160.0
X135.75Y-162.54
X135.8Y-76.095
X135.8Y-78.635
X135.8Y-104.095
X135.8Y-106.635
X135.8Y-132.0
X135.8Y-134.54
X137.114Y-169.125
X137.114Y-171.665
X137.45Y-206.13
X137.45Y-210.63
X137.45Y-215.13
X137.495Y-219.63
X137.654Y-182.41
X137.654Y-184.95
X138.0Y-137.615
X138.0Y-140.155
X138.04Y-188.0
X138.04Y-192.5
X138.05Y-53.71
X138.05Y-56.25
X138.05Y-81.71
X138.05Y-84.25
X138.05Y-109.615
X138.05Y-112.155
X138.364Y-174.875
X138.364Y-179.375
X138.904Y-196.5
X138.904Y-201.0
X140.19Y-212.363
X140.19Y-214.903
X140.41Y-219.63
X140.5Y-160.005
X140.5Y-162.545
X140.55Y-76.1
X140.55Y-78.64
X140.55Y-104.1
X140.55Y-106.64
X140.55Y-132.005
X140.55Y-134.545
X140.58Y-188.0
X140.58Y-192.5
X140.904Y-174.875
X140.904Y-179.375
X141.444Y-196.5
X141.444Y-201.0
X141.864Y-169.125
X141.864Y-171.665
X141.96Y-152.5
X142.0Y-143.75
X142.0Y-157.0
X142.01Y-68.595
X142.01Y-96.595
X142.01Y-124.5
X142.05Y-59.845
X142.05Y-73.095
X142.05Y-87.845
X142.05Y-101.095
X142.05Y-115.75
X142.05Y-129.0
X142.136Y-148.25
X142.154Y-182.405
X142.154Y-184.945
X142.186Y-64.345
X142.186Y-92.345
X142.186Y-120.25
X142.75Y-137.615
X142.75Y-140.155
X142.8Y-53.71
X142.8Y-56.25
X142.8Y-81.71
X142.8Y-84.25
X142.8Y-109.615
X142.8Y-112.155
X142.95Y-219.63
X144.5Y-152.5
X144.54Y-143.75
X144.54Y-157.0
X144.55Y-68.595
X144.55Y-96.595
X144.55Y-124.5
X144.59Y-59.845
X144.59Y-73.095
X144.59Y-87.845
X144.59Y-101.095
X144.59Y-115.75
X144.59Y-129.0
X144.66Y-212.204
X144.66Y-214.744
X144.676Y-148.25
X144.726Y-64.345
X144.726Y-92.345
X144.726Y-120.25
X145.25Y-159.96
X145.25Y-162.5
X145.3Y-76.055
X145.3Y-78.595
X145.3Y-104.055
X145.3Y-106.595
X145.3Y-131.96
X145.3Y-134.5
X146.614Y-169.125
X146.614Y-171.665
X146.654Y-182.405
X146.654Y-184.945
X147.25Y-137.615
X147.25Y-140.155
X147.3Y-53.71
X147.3Y-56.25
X147.3Y-81.71
X147.3Y-84.25
X147.3Y-109.615
X147.3Y-112.155
X148.136Y-152.5
X148.186Y-68.595
X148.186Y-96.595
X148.186Y-124.5
X148.25Y-143.75
X148.25Y-148.25
X148.25Y-157.0
X148.3Y-59.845
X148.3Y-64.345
X148.3Y-73.095
X148.3Y-87.845
X148.3Y-92.345
X148.3Y-101.095
X148.3Y-115.75
X148.3Y-120.25
X148.3Y-129.0
X148.92Y-211.254
X148.92Y-213.794
X150.0Y-159.96
X150.0Y-162.5
X150.05Y-76.055
X150.05Y-78.595
X150.05Y-104.055
X150.05Y-106.595
X150.05Y-131.96
X150.05Y-134.5
X150.676Y-152.5
X150.726Y-68.595
X150.726Y-96.595
X150.726Y-124.5
X150.75Y-43.955
X150.75Y-46.495
X150.79Y-143.75
X150.79Y-148.25
X150.79Y-157.0
X150.84Y-59.845
X150.84Y-64.345
X150.84Y-73.095
X150.84Y-87.845
X150.84Y-92.345
X150.84Y-101.095
X150.84Y-115.75
X150.84Y-120.25
X150.84Y-129.0
X152.0Y-137.615
X152.0Y-140.155
X152.05Y-53.71
X152.05Y-56.25
X152.05Y-81.71
X152.05Y-84.25
X152.05Y-109.615
X152.05Y-112.155
X153.42Y-211.254
X153.42Y-213.794
X155.25Y-43.636
X155.25Y-46.176
X156.25Y-132.25
X156.25Y-134.79
X156.357Y-159.96
X156.357Y-162.5
X159.41Y-152.91
X159.41Y-157.16
X159.41Y-180.89
X159.41Y-185.14
X159.41Y-208.93
X159.41Y-213.18
X159.46Y-69.005
X159.46Y-73.255
X159.46Y-124.91
X159.46Y-129.16
X159.51Y-97.005
X159.51Y-101.255
X159.773Y-43.636
X159.773Y-46.176
X160.75Y-159.96
X160.75Y-162.5
X160.773Y-132.25
X160.773Y-134.79
X161.45Y-137.615
X161.45Y-140.155
X161.45Y-165.595
X161.45Y-168.135
X161.45Y-193.635
X161.45Y-196.175
X161.5Y-53.71
X161.5Y-56.25
X161.5Y-109.615
X161.5Y-112.155
X161.55Y-81.71
X161.55Y-84.25
X161.95Y-152.91
X161.95Y-157.16
X161.95Y-180.89
X161.95Y-185.14
X161.95Y-208.93
X161.95Y-213.18
X162.0Y-69.005
X162.0Y-73.255
X162.0Y-124.91
X162.0Y-129.16
X162.05Y-97.005
X162.05Y-101.255
X164.5Y-43.591
X164.5Y-46.131
X165.25Y-132.0
X165.25Y-134.54
X165.357Y-159.71
X165.357Y-162.25
X165.71Y-143.75
X165.71Y-152.75
X165.71Y-171.73
X165.71Y-180.73
X165.71Y-199.77
X165.71Y-208.77
X165.75Y-148.25
X165.75Y-157.25
X165.75Y-176.23
X165.75Y-185.23
X165.75Y-204.27
X165.75Y-213.27
X165.76Y-59.845
X165.76Y-68.845
X165.76Y-115.75
X165.76Y-124.75
X165.8Y-64.345
X165.8Y-73.345
X165.8Y-120.25
X165.8Y-129.25
X165.81Y-87.845
X165.81Y-96.845
X165.85Y-92.345
X165.85Y-101.345
X166.25Y-137.615
X166.25Y-140.155
X166.25Y-165.595
X166.25Y-168.135
X166.25Y-193.635
X166.25Y-196.175
X166.3Y-53.71
X166.3Y-56.25
X166.3Y-109.615
X166.3Y-112.155
X166.35Y-81.71
X166.35Y-84.25
X168.25Y-143.75
X168.25Y-152.75
X168.25Y-171.73
X168.25Y-180.73
X168.25Y-199.77
X168.25Y-208.77
X168.29Y-148.25
X168.29Y-157.25
X168.29Y-176.23
X168.29Y-185.23
X168.29Y-204.27
X168.29Y-213.27
X168.3Y-59.845
X168.3Y-68.845
X168.3Y-115.75
X168.3Y-124.75
X168.34Y-64.345
X168.34Y-73.345
X168.34Y-120.25
X168.34Y-129.25
X168.35Y-87.845
X168.35Y-96.845
X168.39Y-92.345
X168.39Y-101.345
X168.75Y-159.96
X168.75Y-162.5
X168.75Y-187.94
X168.75Y-190.48
X168.75Y-215.98
X168.75Y-218.52
X168.8Y-76.055
X168.8Y-78.595
X168.8Y-131.96
X168.8Y-134.5
X168.85Y-104.055
X168.85Y-106.595
X169.0Y-43.386
X169.0Y-45.926
X171.0Y-137.615
X171.0Y-140.155
X171.0Y-165.595
X171.0Y-168.135
X171.0Y-193.635
X171.0Y-196.175
X171.05Y-53.71
X171.05Y-56.25
X171.05Y-109.615
X171.05Y-112.155
X171.1Y-81.71
X171.1Y-84.25
X171.886Y-148.25
X171.886Y-157.25
X171.886Y-176.23
X171.886Y-185.23
X171.886Y-204.27
X171.886Y-213.27
X171.936Y-64.345
X171.936Y-73.345
X171.936Y-120.25
X171.936Y-129.25
X171.96Y-152.75
X171.96Y-180.73
X171.96Y-208.77
X171.986Y-92.345
X171.986Y-101.345
X172.0Y-143.75
X172.0Y-171.73
X172.0Y-199.77
X172.01Y-68.845
X172.01Y-124.75
X172.05Y-59.845
X172.05Y-115.75
X172.06Y-96.845
X172.1Y-87.845
X173.5Y-159.96
X173.5Y-162.5
X173.5Y-187.94
X173.5Y-190.48
X173.5Y-215.98
X173.5Y-218.52
X173.523Y-43.386
X173.523Y-45.926
X173.55Y-76.055
X173.55Y-78.595
X173.55Y-131.96
X173.55Y-134.5
X173.6Y-104.055
X173.6Y-106.595
X174.426Y-148.25
X174.426Y-157.25
X174.426Y-176.23
X174.426Y-185.23
X174.426Y-204.27
X174.426Y-213.27
X174.476Y-64.345
X174.476Y-73.345
X174.476Y-120.25
X174.476Y-129.25
X174.5Y-152.75
X174.5Y-180.73
X174.5Y-208.77
X174.526Y-92.345
X174.526Y-101.345
X174.54Y-143.75
X174.54Y-171.73
X174.54Y-199.77
X174.55Y-68.845
X174.55Y-124.75
X174.59Y-59.845
X174.59Y-115.75
X174.6Y-96.845
X174.64Y-87.845
X175.75Y-137.615
X175.75Y-140.155
X175.75Y-165.595
X175.75Y-168.135
X175.75Y-193.635
X175.75Y-196.175
X175.8Y-53.71
X175.8Y-56.25
X175.8Y-109.615
X175.8Y-112.155
X175.85Y-81.71
X175.85Y-84.25
X178.25Y-160.0
X178.25Y-162.54
X178.25Y-187.98
X178.25Y-190.52
X178.25Y-216.02
X178.25Y-218.56
X178.3Y-76.095
X178.3Y-78.635
X178.3Y-132.0
X178.3Y-134.54
X178.35Y-104.095
X178.35Y-106.635
X180.5Y-137.615
X180.5Y-140.155
X180.5Y-165.595
X180.5Y-168.135
X180.5Y-193.635
X180.5Y-196.175
X180.55Y-53.71
X180.55Y-56.25
X180.55Y-109.615
X180.55Y-112.155
X180.6Y-81.71
X180.6Y-84.25
X183.0Y-160.005
X183.0Y-162.545
X183.0Y-187.985
X183.0Y-190.525
X183.0Y-216.025
X183.0Y-218.565
X183.05Y-76.1
X183.05Y-78.64
X183.05Y-132.005
X183.05Y-134.545
X183.1Y-104.1
X183.1Y-106.64
X184.46Y-152.5
X184.46Y-180.48
X184.46Y-208.52
X184.5Y-143.75
X184.5Y-157.0
X184.5Y-171.73
X184.5Y-184.98
X184.5Y-199.77
X184.5Y-213.02
X184.51Y-68.595
X184.51Y-124.5
X184.55Y-59.845
X184.55Y-73.095
X184.55Y-115.75
X184.55Y-129.0
X184.56Y-96.595
X184.6Y-87.845
X184.6Y-101.095
X184.636Y-148.25
X184.636Y-176.23
X184.636Y-204.27
X184.686Y-64.345
X184.686Y-120.25
X184.736Y-92.345
X185.25Y-137.615
X185.25Y-140.155
X185.25Y-165.595
X185.25Y-168.135
X185.25Y-193.635
X185.25Y-196.175
X185.3Y-53.71
X185.3Y-56.25
X185.3Y-109.615
X185.3Y-112.155
X185.35Y-81.71
X185.35Y-84.25
X187.0Y-152.5
X187.0Y-180.48
X187.0Y-208.52
X187.04Y-143.75
X187.04Y-157.0
X187.04Y-171.73
X187.04Y-184.98
X187.04Y-199.77
X187.04Y-213.02
X187.05Y-68.595
X187.05Y-124.5
X187.09Y-59.845
X187.09Y-73.095
X187.09Y-115.75
X187.09Y-129.0
X187.1Y-96.595
X187.14Y-87.845
X187.14Y-101.095
X187.176Y-148.25
X187.176Y-176.23
X187.176Y-204.27
X187.226Y-64.345
X187.226Y-120.25
X187.276Y-92.345
X187.75Y-159.96
X187.75Y-162.5
X187.75Y-187.94
X187.75Y-190.48
X187.75Y-215.98
X187.75Y-218.52
X187.8Y-76.055
X187.8Y-78.595
X187.8Y-131.96
X187.8Y-134.5
X187.85Y-104.055
X187.85Y-106.595
X189.75Y-137.615
X189.75Y-140.155
X189.75Y-165.595
X189.75Y-168.135
X189.75Y-193.635
X189.75Y-196.175
X189.8Y-53.71
X189.8Y-56.25
X189.8Y-109.615
X189.8Y-112.155
X189.85Y-81.71
X189.85Y-84.25
X190.636Y-152.5
X190.636Y-180.48
X190.636Y-208.52
X190.686Y-68.595
X190.686Y-124.5
X190.736Y-96.595
X190.75Y-143.75
X190.75Y-148.25
X190.75Y-157.0
X190.75Y-171.73
X190.75Y-176.23
X190.75Y-184.98
X190.75Y-199.77
X190.75Y-204.27
X190.75Y-213.02
X190.8Y-59.845
X190.8Y-64.345
X190.8Y-73.095
X190.8Y-115.75
X190.8Y-120.25
X190.8Y-129.0
X190.85Y-87.845
X190.85Y-92.345
X190.85Y-101.095
X192.5Y-159.96
X192.5Y-162.5
X192.5Y-187.94
X192.5Y-190.48
X192.5Y-215.98
X192.5Y-218.52
X192.55Y-76.055
X192.55Y-78.595
X192.55Y-131.96
X192.55Y-134.5
X192.6Y-104.055
X192.6Y-106.595
X193.176Y-152.5
X193.176Y-180.48
X193.176Y-208.52
X193.226Y-68.595
X193.226Y-124.5
X193.276Y-96.595
X193.29Y-143.75
X193.29Y-148.25
X193.29Y-157.0
X193.29Y-171.73
X193.29Y-176.23
X193.29Y-184.98
X193.29Y-199.77
X193.29Y-204.27
X193.29Y-213.02
X193.34Y-59.845
X193.34Y-64.345
X193.34Y-73.095
X193.34Y-115.75
X193.34Y-120.25
X193.34Y-129.0
X193.39Y-87.845
X193.39Y-92.345
X193.39Y-101.095
X194.5Y-137.615
X194.5Y-140.155
X194.5Y-165.595
X194.5Y-168.135
X194.5Y-193.635
X194.5Y-196.175
X194.55Y-53.71
X194.55Y-56.25
X194.55Y-109.615
X194.55Y-112.155
X194.6Y-81.71
X194.6Y-84.25
X198.727Y-132.074
X198.727Y-134.614
X198.75Y-76.074
X198.75Y-78.614
X198.75Y-104.21
X198.75Y-106.75
X198.75Y-216.0
X198.75Y-218.54
X198.757Y-188.25
X198.757Y-190.79
X198.766Y-159.96
X198.766Y-162.5
X201.91Y-152.91
X201.91Y-157.16
X201.91Y-180.89
X201.91Y-185.14
X201.91Y-208.93
X201.91Y-213.18
X201.92Y-97.12
X201.92Y-101.37
X201.96Y-69.005
X201.96Y-73.255
X201.96Y-124.91
X201.96Y-129.16
X203.25Y-132.074
X203.25Y-134.614
X203.25Y-160.0
X203.25Y-162.54
X203.25Y-188.25
X203.25Y-190.79
X203.273Y-76.074
X203.273Y-78.614
X203.273Y-104.17
X203.273Y-106.71
X203.273Y-216.0
X203.273Y-218.54
X203.95Y-137.615
X203.95Y-140.155
X203.95Y-165.595
X203.95Y-168.135
X203.95Y-193.635
X203.95Y-196.175
X203.96Y-81.825
X203.96Y-84.365
X204.0Y-53.71
X204.0Y-56.25
X204.0Y-109.615
X204.0Y-112.155
X204.45Y-152.91
X204.45Y-157.16
X204.45Y-180.89
X204.45Y-185.14
X204.45Y-208.93
X204.45Y-213.18
X204.46Y-97.12
X204.46Y-101.37
X204.5Y-69.005
X204.5Y-73.255
X204.5Y-124.91
X204.5Y-129.16
X207.727Y-131.75
X207.727Y-134.29
X207.75Y-76.0
X207.75Y-78.54
X207.75Y-103.965
X207.75Y-106.505
X207.75Y-187.931
X207.75Y-190.471
X207.766Y-159.755
X207.766Y-162.295
X207.773Y-215.79
X207.773Y-218.33
X208.21Y-143.75
X208.21Y-152.75
X208.21Y-171.73
X208.21Y-180.73
X208.21Y-199.77
X208.21Y-208.77
X208.22Y-87.96
X208.22Y-96.96
X208.25Y-148.25
X208.25Y-157.25
X208.25Y-176.23
X208.25Y-185.23
X208.25Y-204.27
X208.25Y-213.27
X208.26Y-59.845
X208.26Y-68.845
X208.26Y-92.46
X208.26Y-101.46
X208.26Y-115.75
X208.26Y-124.75
X208.3Y-64.345
X208.3Y-73.345
X208.3Y-120.25
X208.3Y-129.25
X208.75Y-137.615
X208.75Y-140.155
X208.75Y-165.595
X208.75Y-168.135
X208.75Y-193.635
X208.75Y-196.175
X208.76Y-81.825
X208.76Y-84.365
X208.8Y-53.71
X208.8Y-56.25
X208.8Y-109.615
X208.8Y-112.155
X210.75Y-143.75
X210.75Y-152.75
X210.75Y-171.73
X210.75Y-180.73
X210.75Y-199.77
X210.75Y-208.77
X210.76Y-87.96
X210.76Y-96.96
X210.79Y-148.25
X210.79Y-157.25
X210.79Y-176.23
X210.79Y-185.23
X210.79Y-204.27
X210.79Y-213.27
X210.8Y-59.845
X210.8Y-68.845
X210.8Y-92.46
X210.8Y-101.46
X210.8Y-115.75
X210.8Y-124.75
X210.84Y-64.345
X210.84Y-73.345
X210.84Y-120.25
X210.84Y-129.25
X211.25Y-159.96
X211.25Y-162.5
X211.25Y-187.94
X211.25Y-190.48
X211.25Y-215.98
X211.25Y-218.52
X211.26Y-104.17
X211.26Y-106.71
X211.3Y-76.055
X211.3Y-78.595
X211.3Y-131.96
X211.3Y-134.5
X213.5Y-137.615
X213.5Y-140.155
X213.5Y-165.595
X213.5Y-168.135
X213.5Y-193.635
X213.5Y-196.175
X213.51Y-81.825
X213.51Y-84.365
X213.55Y-53.71
X213.55Y-56.25
X213.55Y-109.615
X213.55Y-112.155
X214.386Y-148.25
X214.386Y-157.25
X214.386Y-176.23
X214.386Y-185.23
X214.386Y-204.27
X214.386Y-213.27
X214.396Y-92.46
X214.396Y-101.46
X214.436Y-64.345
X214.436Y-73.345
X214.436Y-120.25
X214.436Y-129.25
X214.46Y-152.75
X214.46Y-180.73
X214.46Y-208.77
X214.47Y-96.96
X214.5Y-143.75
X214.5Y-171.73
X214.5Y-199.77
X214.51Y-68.845
X214.51Y-87.96
X214.51Y-124.75
X214.55Y-59.845
X214.55Y-115.75
X216.0Y-159.96
X216.0Y-162.5
X216.0Y-187.94
X216.0Y-190.48
X216.0Y-215.98
X216.0Y-218.52
X216.01Y-104.17
X216.01Y-106.71
X216.05Y-76.055
X216.05Y-78.595
X216.05Y-131.96
X216.05Y-134.5
X216.926Y-148.25
X216.926Y-157.25
X216.926Y-176.23
X216.926Y-185.23
X216.926Y-204.27
X216.926Y-213.27
X216.936Y-92.46
X216.936Y-101.46
X216.976Y-64.345
X216.976Y-73.345
X216.976Y-120.25
X216.976Y-129.25
X217.0Y-152.75
X217.0Y-180.73
X217.0Y-208.77
X217.01Y-96.96
X217.04Y-143.75
X217.04Y-171.73
X217.04Y-199.77
X217.05Y-68.845
X217.05Y-87.96
X217.05Y-124.75
X217.09Y-59.845
X217.09Y-115.75
X218.25Y-137.615
X218.25Y-140.155
X218.25Y-165.595
X218.25Y-168.135
X218.25Y-193.635
X218.25Y-196.175
X218.26Y-81.825
X218.26Y-84.365
X218.3Y-53.71
X218.3Y-56.25
X218.3Y-109.615
X218.3Y-112.155
X220.75Y-160.0
X220.75Y-162.54
X220.75Y-187.98
X220.75Y-190.52
X220.75Y-216.02
X220.75Y-218.56
X220.76Y-104.21
X220.76Y-106.75
X220.8Y-76.095
X220.8Y-78.635
X220.8Y-132.0
X220.8Y-134.54
X223.0Y-137.615
X223.0Y-140.155
X223.0Y-165.595
X223.0Y-168.135
X223.0Y-193.635
X223.0Y-196.175
X223.01Y-81.825
X223.01Y-84.365
X223.05Y-53.71
X223.05Y-56.25
X223.05Y-109.615
X223.05Y-112.155
X225.5Y-160.005
X225.5Y-162.545
X225.5Y-187.985
X225.5Y-190.525
X225.5Y-216.025
X225.5Y-218.565
X225.51Y-104.215
X225.51Y-106.755
X225.55Y-76.1
X225.55Y-78.64
X225.55Y-132.005
X225.55Y-134.545
X226.96Y-152.5
X226.96Y-180.48
X226.96Y-208.52
X226.97Y-96.71
X227.0Y-143.75
X227.0Y-157.0
X227.0Y-171.73
X227.0Y-184.98
X227.0Y-199.77
X227.0Y-213.02
X227.01Y-68.595
X227.01Y-87.96
X227.01Y-101.21
X227.01Y-124.5
X227.05Y-59.845
X227.05Y-73.095
X227.05Y-115.75
X227.05Y-129.0
X227.136Y-148.25
X227.136Y-176.23
X227.136Y-204.27
X227.146Y-92.46
X227.186Y-64.345
X227.186Y-120.25
X227.75Y-137.615
X227.75Y-140.155
X227.75Y-165.595
X227.75Y-168.135
X227.75Y-193.635
X227.75Y-196.175
X227.76Y-81.825
X227.76Y-84.365
X227.8Y-53.71
X227.8Y-56.25
X227.8Y-109.615
X227.8Y-112.155
X229.5Y-152.5
X229.5Y-180.48
X229.5Y-208.52
X229.51Y-96.71
X229.54Y-143.75
X229.54Y-157.0
X229.54Y-171.73
X229.54Y-184.98
X229.54Y-199.77
X229.54Y-213.02
X229.55Y-68.595
X229.55Y-87.96
X229.55Y-101.21
X229.55Y-124.5
X229.59Y-59.845
X229.59Y-73.095
X229.59Y-115.75
X229.59Y-129.0
X229.676Y-148.25
X229.676Y-176.23
X229.676Y-204.27
X229.686Y-92.46
X229.726Y-64.345
X229.726Y-120.25
X230.25Y-159.96
X230.25Y-162.5
X230.25Y-187.94
X230.25Y-190.48
X230.25Y-215.98
X230.25Y-218.52
X230.26Y-104.17
X230.26Y-106.71
X230.3Y-76.055
X230.3Y-78.595
X230.3Y-131.96
X230.3Y-134.5
X232.25Y-137.615
X232.25Y-140.155
X232.25Y-165.595
X232.25Y-168.135
X232.25Y-193.635
X232.25Y-196.175
X232.26Y-81.825
X232.26Y-84.365
X232.3Y-53.71
X232.3Y-56.25
X232.3Y-109.615
X232.3Y-112.155
X233.136Y-152.5
X233.136Y-180.48
X233.136Y-208.52
X233.146Y-96.71
X233.186Y-68.595
X233.186Y-124.5
X233.25Y-143.75
X233.25Y-148.25
X233.25Y-157.0
X233.25Y-171.73
X233.25Y-176.23
X233.25Y-184.98
X233.25Y-199.77
X233.25Y-204.27
X233.25Y-213.02
X233.26Y-87.96
X233.26Y-92.46
X233.26Y-101.21
X233.3Y-59.845
X233.3Y-64.345
X233.3Y-73.095
X233.3Y-115.75
X233.3Y-120.25
X233.3Y-129.0
X235.0Y-159.96
X235.0Y-162.5
X235.0Y-187.94
X235.0Y-190.48
X235.0Y-215.98
X235.0Y-218.52
X235.01Y-104.17
X235.01Y-106.71
X235.05Y-76.055
X235.05Y-78.595
X235.05Y-131.96
X235.05Y-134.5
X235.676Y-152.5
X235.676Y-180.48
X235.676Y-208.52
X235.686Y-96.71
X235.726Y-68.595
X235.726Y-124.5
X235.79Y-143.75
X235.79Y-148.25
X235.79Y-157.0
X235.79Y-171.73
X235.79Y-176.23
X235.79Y-184.98
X235.79Y-199.77
X235.79Y-204.27
X235.79Y-213.02
X235.8Y-87.96
X235.8Y-92.46
X235.8Y-101.21
X235.84Y-59.845
X235.84Y-64.345
X235.84Y-73.095
X235.84Y-115.75
X235.84Y-120.25
X235.84Y-129.0
X237.0Y-137.615
X237.0Y-140.155
X237.0Y-165.595
X237.0Y-168.135
X237.0Y-193.635
X237.0Y-196.175
X237.01Y-81.825
X237.01Y-84.365
X237.05Y-53.71
X237.05Y-56.25
X237.05Y-109.615
X237.05Y-112.155
T4
X53.0Y-221.75
X55.54Y-221.75
X58.08Y-221.75
X60.62Y-221.75
X63.16Y-221.75
X65.7Y-221.75
X68.24Y-221.75
X70.78Y-221.75
X73.32Y-221.75
X75.86Y-221.75
X79.82Y-221.75
X82.36Y-221.75
X84.9Y-221.75
X87.44Y-221.75
X89.98Y-221.75
X92.52Y-221.75
X95.06Y-221.75
X97.6Y-221.75
X100.14Y-221.75
X102.68Y-221.75
X106.96Y-221.75
X109.5Y-221.75
X112.04Y-221.75
X114.58Y-221.75
X117.12Y-221.75
X119.66Y-221.75
M30
