%TF.GenerationSoftware,KiCad,Pcbnew,9.0.2*%
%TF.CreationDate,2026-05-12T21:46:44-04:00*%
%TF.ProjectId,Santas Microfactory - Main Conveyor,53616e74-6173-4204-9d69-63726f666163,rev?*%
%TF.SameCoordinates,Original*%
%TF.FileFunction,Profile,NP*%
%FSLAX46Y46*%
G04 Gerber Fmt 4.6, Leading zero omitted, Abs format (unit mm)*
G04 Created by KiCad (PCBNEW 9.0.2) date 2026-05-12 21:46:44*
%MOMM*%
%LPD*%
G01*
G04 APERTURE LIST*
%TA.AperFunction,Profile*%
%ADD10C,0.200000*%
%TD*%
%TA.AperFunction,Profile*%
%ADD11C,0.050000*%
%TD*%
%TA.AperFunction,Profile*%
%ADD12C,0.100000*%
%TD*%
G04 APERTURE END LIST*
D10*
X246000000Y-232250000D02*
X50000000Y-232250000D01*
D11*
X148650000Y-41200000D02*
X246000000Y-41250000D01*
D10*
X246000000Y-41250000D02*
G75*
G02*
X248000000Y-43250000I0J-2000000D01*
G01*
X48000000Y-230250000D02*
X48000000Y-43250000D01*
X248000000Y-43250000D02*
X248000000Y-230250000D01*
X48000000Y-43250000D02*
G75*
G02*
X50000000Y-41250000I2000000J0D01*
G01*
X248000000Y-230250000D02*
G75*
G02*
X246000000Y-232250000I-2000000J0D01*
G01*
D11*
X50000000Y-41250000D02*
X64350000Y-41200000D01*
D10*
X50000000Y-232250000D02*
G75*
G02*
X48000000Y-230250000I0J2000000D01*
G01*
D12*
%TO.C,J1*%
X64350000Y-33300000D02*
X64850000Y-32800000D01*
X64350000Y-41200000D02*
X64350000Y-33300000D01*
X135050000Y-32800000D02*
X64850000Y-32800000D01*
X135550000Y-33300000D02*
X135050000Y-32800000D01*
X135550000Y-40250000D02*
X135550000Y-33300000D01*
X137450000Y-33300000D02*
X137950000Y-32800000D01*
X137450000Y-40250000D02*
X137450000Y-33300000D01*
X148150000Y-32800000D02*
X137950000Y-32800000D01*
X148650000Y-33300000D02*
X148150000Y-32800000D01*
X148650000Y-41200000D02*
X148650000Y-33300000D01*
X137450000Y-40250000D02*
G75*
G02*
X135550000Y-40250000I-950000J0D01*
G01*
%TD*%
M02*
