%TF.GenerationSoftware,KiCad,Pcbnew,9.0.2*%
%TF.CreationDate,2026-05-12T21:07:25-04:00*%
%TF.ProjectId,Santas Microfactory - Scoring and Health,53616e74-6173-4204-9d69-63726f666163,rev?*%
%TF.SameCoordinates,Original*%
%TF.FileFunction,Soldermask,Bot*%
%TF.FilePolarity,Negative*%
%FSLAX46Y46*%
G04 Gerber Fmt 4.6, Leading zero omitted, Abs format (unit mm)*
G04 Created by KiCad (PCBNEW 9.0.2) date 2026-05-12 21:07:25*
%MOMM*%
%LPD*%
G01*
G04 APERTURE LIST*
G04 Aperture macros list*
%AMRoundRect*
0 Rectangle with rounded corners*
0 $1 Rounding radius*
0 $2 $3 $4 $5 $6 $7 $8 $9 X,Y pos of 4 corners*
0 Add a 4 corners polygon primitive as box body*
4,1,4,$2,$3,$4,$5,$6,$7,$8,$9,$2,$3,0*
0 Add four circle primitives for the rounded corners*
1,1,$1+$1,$2,$3*
1,1,$1+$1,$4,$5*
1,1,$1+$1,$6,$7*
1,1,$1+$1,$8,$9*
0 Add four rect primitives between the rounded corners*
20,1,$1+$1,$2,$3,$4,$5,0*
20,1,$1+$1,$4,$5,$6,$7,0*
20,1,$1+$1,$6,$7,$8,$9,0*
20,1,$1+$1,$8,$9,$2,$3,0*%
G04 Aperture macros list end*
%ADD10C,1.600000*%
%ADD11RoundRect,0.250000X0.550000X0.550000X-0.550000X0.550000X-0.550000X-0.550000X0.550000X-0.550000X0*%
%ADD12RoundRect,0.250000X-0.550000X-0.550000X0.550000X-0.550000X0.550000X0.550000X-0.550000X0.550000X0*%
%ADD13R,1.500000X1.050000*%
%ADD14O,1.500000X1.050000*%
%ADD15RoundRect,0.250000X0.550000X-0.550000X0.550000X0.550000X-0.550000X0.550000X-0.550000X-0.550000X0*%
%ADD16R,1.050000X1.500000*%
%ADD17O,1.050000X1.500000*%
%ADD18RoundRect,0.250000X-0.550000X0.550000X-0.550000X-0.550000X0.550000X-0.550000X0.550000X0.550000X0*%
%ADD19R,1.700000X1.700000*%
%ADD20C,1.700000*%
%ADD21R,0.700000X3.200000*%
%ADD22R,0.700000X4.300000*%
G04 APERTURE END LIST*
D10*
%TO.C,R96*%
X204015686Y-158135000D03*
X204015686Y-155595000D03*
%TD*%
D11*
%TO.C,D207*%
X164040000Y-72295000D03*
D10*
X161500000Y-72295000D03*
%TD*%
%TO.C,R201*%
X168465686Y-210385968D03*
X168465686Y-207845968D03*
%TD*%
%TO.C,R226*%
X92715686Y-169345968D03*
X92715686Y-171885968D03*
%TD*%
D12*
%TO.C,D22*%
X172710000Y-82950000D03*
D10*
X175250000Y-82950000D03*
%TD*%
%TO.C,R49*%
X208300000Y-100950000D03*
X208300000Y-98410000D03*
%TD*%
D12*
%TO.C,D9*%
X141960000Y-96700000D03*
D10*
X144500000Y-96700000D03*
%TD*%
D12*
%TO.C,D241*%
X171851372Y-196550968D03*
D10*
X174391372Y-196550968D03*
%TD*%
D13*
%TO.C,Q24*%
X136675686Y-140840000D03*
D14*
X136675686Y-142110000D03*
X136675686Y-143380000D03*
%TD*%
D10*
%TO.C,R204*%
X102215686Y-169390968D03*
X102215686Y-171930968D03*
%TD*%
%TO.C,R95*%
X176080000Y-157385000D03*
X176080000Y-154845000D03*
%TD*%
D12*
%TO.C,D33*%
X111135686Y-87705000D03*
D10*
X113675686Y-87705000D03*
%TD*%
D12*
%TO.C,D162*%
X112175686Y-123090000D03*
D10*
X114715686Y-123090000D03*
%TD*%
D12*
%TO.C,D240*%
X165601372Y-196550968D03*
D10*
X168141372Y-196550968D03*
%TD*%
%TO.C,R105*%
X208765686Y-158090000D03*
X208765686Y-155550000D03*
%TD*%
D12*
%TO.C,D282*%
X98425686Y-180640968D03*
D10*
X100965686Y-180640968D03*
%TD*%
D13*
%TO.C,Q32*%
X186015686Y-140090000D03*
D14*
X186015686Y-141360000D03*
X186015686Y-142630000D03*
%TD*%
D12*
%TO.C,D267*%
X110165686Y-205790968D03*
D10*
X112705686Y-205790968D03*
%TD*%
D12*
%TO.C,D265*%
X190765686Y-205180968D03*
D10*
X193305686Y-205180968D03*
%TD*%
%TO.C,R100*%
X108175686Y-158385000D03*
X108175686Y-155845000D03*
%TD*%
D13*
%TO.C,Q28*%
X222765686Y-140090000D03*
D14*
X222765686Y-141360000D03*
X222765686Y-142630000D03*
%TD*%
D10*
%TO.C,R200*%
X153965686Y-210385968D03*
X153965686Y-207845968D03*
%TD*%
%TO.C,R188*%
X158715686Y-210430968D03*
X158715686Y-207890968D03*
%TD*%
D12*
%TO.C,D42*%
X209010000Y-87200000D03*
D10*
X211550000Y-87200000D03*
%TD*%
%TO.C,R166*%
X160715686Y-185505968D03*
X160715686Y-188045968D03*
%TD*%
D13*
%TO.C,Q53*%
X140130000Y-121390000D03*
D14*
X140130000Y-122660000D03*
X140130000Y-123930000D03*
%TD*%
D10*
%TO.C,R117*%
X113824314Y-59995000D03*
X113824314Y-62535000D03*
%TD*%
%TO.C,R48*%
X194050000Y-100950000D03*
X194050000Y-98410000D03*
%TD*%
D12*
%TO.C,D38*%
X166324314Y-87450000D03*
D10*
X168864314Y-87450000D03*
%TD*%
%TO.C,R173*%
X191265686Y-185385968D03*
X191265686Y-187925968D03*
%TD*%
D12*
%TO.C,D45*%
X49675686Y-82790000D03*
D10*
X52215686Y-82790000D03*
%TD*%
D13*
%TO.C,Q64*%
X141715686Y-193260968D03*
D14*
X141715686Y-194530968D03*
X141715686Y-195800968D03*
%TD*%
D12*
%TO.C,D181*%
X154500000Y-72295000D03*
D10*
X157040000Y-72295000D03*
%TD*%
D12*
%TO.C,D126*%
X209475686Y-148090000D03*
D10*
X212015686Y-148090000D03*
%TD*%
%TO.C,R31*%
X197550000Y-75905000D03*
X197550000Y-78445000D03*
%TD*%
D12*
%TO.C,D111*%
X148465686Y-143340000D03*
D10*
X151005686Y-143340000D03*
%TD*%
D12*
%TO.C,D140*%
X166715686Y-152090000D03*
D10*
X169255686Y-152090000D03*
%TD*%
D13*
%TO.C,Q67*%
X135415686Y-202290968D03*
D14*
X135415686Y-203560968D03*
X135415686Y-204830968D03*
%TD*%
D12*
%TO.C,D136*%
X81101372Y-153590000D03*
D10*
X83641372Y-153590000D03*
%TD*%
D15*
%TO.C,D294*%
X40500000Y-45040000D03*
D10*
X40500000Y-42500000D03*
%TD*%
%TO.C,R54*%
X155574314Y-101745000D03*
X155574314Y-99205000D03*
%TD*%
%TO.C,R65*%
X158580000Y-132545000D03*
X158580000Y-135085000D03*
%TD*%
D12*
%TO.C,D180*%
X147885686Y-72295000D03*
D10*
X150425686Y-72295000D03*
%TD*%
%TO.C,R11*%
X183300000Y-76000000D03*
X183300000Y-78540000D03*
%TD*%
%TO.C,R218*%
X34000000Y-44675686D03*
X36540000Y-44675686D03*
%TD*%
%TO.C,R57*%
X213050000Y-100950000D03*
X213050000Y-98410000D03*
%TD*%
D12*
%TO.C,D63*%
X62250000Y-97290000D03*
D10*
X64790000Y-97290000D03*
%TD*%
D12*
%TO.C,D93*%
X123561372Y-139840000D03*
D10*
X126101372Y-139840000D03*
%TD*%
%TO.C,R17*%
X188050000Y-75910000D03*
X188050000Y-78450000D03*
%TD*%
%TO.C,R13*%
X216550000Y-75995000D03*
X216550000Y-78535000D03*
%TD*%
%TO.C,R227*%
X97465686Y-169350968D03*
X97465686Y-171890968D03*
%TD*%
%TO.C,R60*%
X90465686Y-133340000D03*
X90465686Y-135880000D03*
%TD*%
%TO.C,R207*%
X156141372Y-169090968D03*
X156141372Y-171630968D03*
%TD*%
D12*
%TO.C,D95*%
X148465686Y-139090000D03*
D10*
X151005686Y-139090000D03*
%TD*%
D12*
%TO.C,D159*%
X63665686Y-123250000D03*
D10*
X66205686Y-123250000D03*
%TD*%
D12*
%TO.C,D233*%
X86425686Y-197090968D03*
D10*
X88965686Y-197090968D03*
%TD*%
D13*
%TO.C,Q14*%
X93250000Y-93790000D03*
D14*
X93250000Y-95060000D03*
X93250000Y-96330000D03*
%TD*%
D12*
%TO.C,D141*%
X191265686Y-152590000D03*
D10*
X193805686Y-152590000D03*
%TD*%
%TO.C,R24*%
X124000000Y-76665000D03*
X124000000Y-79205000D03*
%TD*%
D12*
%TO.C,D198*%
X93460000Y-66790000D03*
D10*
X96000000Y-66790000D03*
%TD*%
D13*
%TO.C,Q6*%
X179574314Y-83930000D03*
D14*
X179574314Y-85200000D03*
X179574314Y-86470000D03*
%TD*%
D10*
%TO.C,R79*%
X114175686Y-133090000D03*
X114175686Y-135630000D03*
%TD*%
%TO.C,R16*%
X146824314Y-76450000D03*
X146824314Y-78990000D03*
%TD*%
%TO.C,R115*%
X72000000Y-60505000D03*
X72000000Y-63045000D03*
%TD*%
D11*
%TO.C,D182*%
X164114314Y-66545000D03*
D10*
X161574314Y-66545000D03*
%TD*%
D12*
%TO.C,D76*%
X172460000Y-96200000D03*
D10*
X175000000Y-96200000D03*
%TD*%
D12*
%TO.C,D13*%
X80250000Y-83790000D03*
D10*
X82790000Y-83790000D03*
%TD*%
D13*
%TO.C,Q29*%
X57715686Y-141300000D03*
D14*
X57715686Y-142570000D03*
X57715686Y-143840000D03*
%TD*%
D10*
%TO.C,R73*%
X188515686Y-132090000D03*
X188515686Y-134630000D03*
%TD*%
%TO.C,R102*%
X150830000Y-157385000D03*
X150830000Y-154845000D03*
%TD*%
D12*
%TO.C,D20*%
X154460000Y-82950000D03*
D10*
X157000000Y-82950000D03*
%TD*%
%TO.C,R51*%
X83750000Y-102585000D03*
X83750000Y-100045000D03*
%TD*%
D12*
%TO.C,D11*%
X62135686Y-84040000D03*
D10*
X64675686Y-84040000D03*
%TD*%
D12*
%TO.C,D86*%
X185101372Y-152590000D03*
D10*
X187641372Y-152590000D03*
%TD*%
%TO.C,R198*%
X111165686Y-210790968D03*
X111165686Y-208250968D03*
%TD*%
D12*
%TO.C,D84*%
X99561372Y-153340000D03*
D10*
X102101372Y-153340000D03*
%TD*%
%TO.C,R71*%
X104675686Y-133045000D03*
X104675686Y-135585000D03*
%TD*%
D12*
%TO.C,D30*%
X80385686Y-88290000D03*
D10*
X82925686Y-88290000D03*
%TD*%
D16*
%TO.C,Q73*%
X41550000Y-63564314D03*
D17*
X42820000Y-63564314D03*
X44090000Y-63564314D03*
%TD*%
D10*
%TO.C,R12*%
X202300000Y-76000000D03*
X202300000Y-78540000D03*
%TD*%
D12*
%TO.C,D6*%
X49750000Y-69790000D03*
D10*
X52290000Y-69790000D03*
%TD*%
D12*
%TO.C,D127*%
X69425686Y-149090000D03*
D10*
X71965686Y-149090000D03*
%TD*%
D12*
%TO.C,D108*%
X111675686Y-144340000D03*
D10*
X114215686Y-144340000D03*
%TD*%
D12*
%TO.C,D222*%
X110051372Y-192290968D03*
D10*
X112591372Y-192290968D03*
%TD*%
D12*
%TO.C,D273*%
X98465686Y-176140968D03*
D10*
X101005686Y-176140968D03*
%TD*%
D12*
%TO.C,D79*%
X56925686Y-149090000D03*
D10*
X59465686Y-149090000D03*
%TD*%
%TO.C,R50*%
X69574314Y-102330000D03*
X69574314Y-99790000D03*
%TD*%
D12*
%TO.C,D81*%
X142175686Y-147840000D03*
D10*
X144715686Y-147840000D03*
%TD*%
%TO.C,R58*%
X57465686Y-133295000D03*
X57465686Y-135835000D03*
%TD*%
%TO.C,R219*%
X79295000Y-196250000D03*
X76755000Y-196250000D03*
%TD*%
D13*
%TO.C,Q5*%
X161324314Y-84000000D03*
D14*
X161324314Y-85270000D03*
X161324314Y-86540000D03*
%TD*%
D10*
%TO.C,R30*%
X192800000Y-75910000D03*
X192800000Y-78450000D03*
%TD*%
D12*
%TO.C,D279*%
X135101372Y-175662983D03*
D10*
X137641372Y-175662983D03*
%TD*%
D13*
%TO.C,Q55*%
X184265686Y-120645000D03*
D14*
X184265686Y-121915000D03*
X184265686Y-123185000D03*
%TD*%
D10*
%TO.C,R197*%
X208015686Y-210475968D03*
X208015686Y-207935968D03*
%TD*%
D12*
%TO.C,D258*%
X196975686Y-200680968D03*
D10*
X199515686Y-200680968D03*
%TD*%
D12*
%TO.C,D217*%
X86288629Y-192590968D03*
D10*
X88828629Y-192590968D03*
%TD*%
%TO.C,R195*%
X163465686Y-210385968D03*
X163465686Y-207845968D03*
%TD*%
D12*
%TO.C,D192*%
X145790000Y-127340000D03*
D10*
X148330000Y-127340000D03*
%TD*%
%TO.C,R144*%
X202965686Y-115345000D03*
X202965686Y-117885000D03*
%TD*%
D18*
%TO.C,D309*%
X68250000Y-186210000D03*
D10*
X68250000Y-188750000D03*
%TD*%
%TO.C,R205*%
X106965686Y-169390968D03*
X106965686Y-171930968D03*
%TD*%
D13*
%TO.C,Q47*%
X183550000Y-64845000D03*
D14*
X183550000Y-66115000D03*
X183550000Y-67385000D03*
%TD*%
D10*
%TO.C,R128*%
X193465686Y-115345000D03*
X193465686Y-117885000D03*
%TD*%
D13*
%TO.C,Q78*%
X142191372Y-179890968D03*
D14*
X142191372Y-181160968D03*
X142191372Y-182430968D03*
%TD*%
D11*
%TO.C,D176*%
X79864314Y-67045000D03*
D10*
X77324314Y-67045000D03*
%TD*%
D12*
%TO.C,D244*%
X209651372Y-196180968D03*
D10*
X212191372Y-196180968D03*
%TD*%
%TO.C,R32*%
X207050000Y-76000000D03*
X207050000Y-78540000D03*
%TD*%
D12*
%TO.C,D190*%
X112175686Y-127590000D03*
D10*
X114715686Y-127590000D03*
%TD*%
D13*
%TO.C,Q3*%
X118000000Y-84205000D03*
D14*
X118000000Y-85475000D03*
X118000000Y-86745000D03*
%TD*%
D12*
%TO.C,D47*%
X80500000Y-92790000D03*
D10*
X83040000Y-92790000D03*
%TD*%
D12*
%TO.C,D2*%
X55960000Y-92926290D03*
D10*
X58500000Y-92926290D03*
%TD*%
D12*
%TO.C,D171*%
X93138348Y-123225725D03*
D10*
X95678348Y-123225725D03*
%TD*%
%TO.C,R52*%
X112250000Y-101750000D03*
X112250000Y-99210000D03*
%TD*%
D12*
%TO.C,D237*%
X128551372Y-196790968D03*
D10*
X131091372Y-196790968D03*
%TD*%
D12*
%TO.C,D167*%
X93460000Y-71540000D03*
D10*
X96000000Y-71540000D03*
%TD*%
%TO.C,R38*%
X160324314Y-101740000D03*
X160324314Y-99200000D03*
%TD*%
D11*
%TO.C,D205*%
X79864314Y-71545000D03*
D10*
X77324314Y-71545000D03*
%TD*%
D12*
%TO.C,D239*%
X153465686Y-196550968D03*
D10*
X156005686Y-196550968D03*
%TD*%
D13*
%TO.C,Q79*%
X186941372Y-174390968D03*
D14*
X186941372Y-175660968D03*
X186941372Y-176930968D03*
%TD*%
D11*
%TO.C,D299*%
X114215686Y-180640968D03*
D10*
X111675686Y-180640968D03*
%TD*%
%TO.C,R119*%
X156250000Y-59795000D03*
X156250000Y-62335000D03*
%TD*%
D12*
%TO.C,D168*%
X135385686Y-71290000D03*
D10*
X137925686Y-71290000D03*
%TD*%
D19*
%TO.C,J3*%
X70591533Y-206736290D03*
D20*
X68051533Y-206736290D03*
X65511533Y-206736290D03*
X62971533Y-206736290D03*
%TD*%
D18*
%TO.C,D298*%
X40250000Y-67000000D03*
D10*
X40250000Y-69540000D03*
%TD*%
%TO.C,R19*%
X72250000Y-77250000D03*
X72250000Y-79790000D03*
%TD*%
%TO.C,R26*%
X151574314Y-76410000D03*
X151574314Y-78950000D03*
%TD*%
D11*
%TO.C,D194*%
X161580000Y-122840000D03*
D10*
X159040000Y-122840000D03*
%TD*%
D13*
%TO.C,Q40*%
X222765686Y-149050000D03*
D14*
X222765686Y-150320000D03*
X222765686Y-151590000D03*
%TD*%
D15*
%TO.C,D307*%
X40500000Y-51478628D03*
D10*
X40500000Y-48938628D03*
%TD*%
D12*
%TO.C,D43*%
X215550000Y-87200000D03*
D10*
X218090000Y-87200000D03*
%TD*%
D12*
%TO.C,D236*%
X122301372Y-196790968D03*
D10*
X124841372Y-196790968D03*
%TD*%
D13*
%TO.C,Q7*%
X204550000Y-83700000D03*
D14*
X204550000Y-84970000D03*
X204550000Y-86240000D03*
%TD*%
D12*
%TO.C,D83*%
X56925686Y-153590000D03*
D10*
X59465686Y-153590000D03*
%TD*%
%TO.C,R175*%
X111415686Y-185495968D03*
X111415686Y-188035968D03*
%TD*%
D12*
%TO.C,D36*%
X148074314Y-87450000D03*
D10*
X150614314Y-87450000D03*
%TD*%
D13*
%TO.C,Q2*%
X93250000Y-84750000D03*
D14*
X93250000Y-86020000D03*
X93250000Y-87290000D03*
%TD*%
D10*
%TO.C,R1*%
X53500000Y-60500000D03*
X53500000Y-63040000D03*
%TD*%
%TO.C,R84*%
X163330000Y-132545000D03*
X163330000Y-135085000D03*
%TD*%
D13*
%TO.C,Q25*%
X161580000Y-139840000D03*
D14*
X161580000Y-141110000D03*
X161580000Y-142380000D03*
%TD*%
D10*
%TO.C,R39*%
X174574314Y-101700000D03*
X174574314Y-99160000D03*
%TD*%
D12*
%TO.C,D29*%
X68385686Y-88290000D03*
D10*
X70925686Y-88290000D03*
%TD*%
D12*
%TO.C,D193*%
X152040000Y-127340000D03*
D10*
X154580000Y-127340000D03*
%TD*%
D12*
%TO.C,D115*%
X191265686Y-143590000D03*
D10*
X193805686Y-143590000D03*
%TD*%
%TO.C,R179*%
X155965686Y-185505968D03*
X155965686Y-188045968D03*
%TD*%
%TO.C,R110*%
X157080000Y-157385000D03*
X157080000Y-154845000D03*
%TD*%
%TO.C,R214*%
X34000000Y-54750000D03*
X36540000Y-54750000D03*
%TD*%
D12*
%TO.C,D270*%
X171965686Y-205550968D03*
D10*
X174505686Y-205550968D03*
%TD*%
D12*
%TO.C,D17*%
X122960000Y-83205000D03*
D10*
X125500000Y-83205000D03*
%TD*%
%TO.C,R178*%
X151215686Y-185505968D03*
X151215686Y-188045968D03*
%TD*%
D12*
%TO.C,D199*%
X135385686Y-66540000D03*
D10*
X137925686Y-66540000D03*
%TD*%
%TO.C,R170*%
X219515686Y-185140968D03*
X219515686Y-187680968D03*
%TD*%
D12*
%TO.C,D1*%
X49750000Y-65540000D03*
D10*
X52290000Y-65540000D03*
%TD*%
%TO.C,R106*%
X70215686Y-158630000D03*
X70215686Y-156090000D03*
%TD*%
D13*
%TO.C,Q68*%
X160215686Y-202050968D03*
D14*
X160215686Y-203320968D03*
X160215686Y-204590968D03*
%TD*%
D10*
%TO.C,R134*%
X95215686Y-116590000D03*
X95215686Y-119130000D03*
%TD*%
D13*
%TO.C,Q27*%
X204515686Y-140090000D03*
D14*
X204515686Y-141360000D03*
X204515686Y-142630000D03*
%TD*%
D18*
%TO.C,D295*%
X72750000Y-198385686D03*
D10*
X72750000Y-200925686D03*
%TD*%
%TO.C,R43*%
X79000000Y-102540000D03*
X79000000Y-100000000D03*
%TD*%
D13*
%TO.C,Q22*%
X94015686Y-141140000D03*
D14*
X94015686Y-142410000D03*
X94015686Y-143680000D03*
%TD*%
D12*
%TO.C,D153*%
X106210000Y-66540000D03*
D10*
X108750000Y-66540000D03*
%TD*%
%TO.C,R181*%
X170215686Y-185550968D03*
X170215686Y-188090968D03*
%TD*%
D12*
%TO.C,D228*%
X171851372Y-192050968D03*
D10*
X174391372Y-192050968D03*
%TD*%
D13*
%TO.C,Q71*%
X222765686Y-201390968D03*
D14*
X222765686Y-202660968D03*
X222765686Y-203930968D03*
%TD*%
D10*
%TO.C,R140*%
X202250000Y-59505000D03*
X202250000Y-62045000D03*
%TD*%
D12*
%TO.C,D71*%
X68460000Y-97290000D03*
D10*
X71000000Y-97290000D03*
%TD*%
D12*
%TO.C,D277*%
X192641372Y-175840968D03*
D10*
X195181372Y-175840968D03*
%TD*%
%TO.C,R104*%
X194765686Y-158135000D03*
X194765686Y-155595000D03*
%TD*%
D12*
%TO.C,D82*%
X185101372Y-148090000D03*
D10*
X187641372Y-148090000D03*
%TD*%
D12*
%TO.C,D201*%
X50851372Y-128340000D03*
D10*
X53391372Y-128340000D03*
%TD*%
%TO.C,R192*%
X106415686Y-210835968D03*
X106415686Y-208295968D03*
%TD*%
D12*
%TO.C,D160*%
X70165686Y-123250000D03*
D10*
X72705686Y-123250000D03*
%TD*%
D11*
%TO.C,D290*%
X208505686Y-175840968D03*
D10*
X205965686Y-175840968D03*
%TD*%
D12*
%TO.C,D155*%
X148250000Y-66545000D03*
D10*
X150790000Y-66545000D03*
%TD*%
D12*
%TO.C,D14*%
X86460000Y-83790000D03*
D10*
X89000000Y-83790000D03*
%TD*%
D13*
%TO.C,Q66*%
X116965686Y-202090968D03*
D14*
X116965686Y-203360968D03*
X116965686Y-204630968D03*
%TD*%
D12*
%TO.C,D255*%
X128551372Y-201290968D03*
D10*
X131091372Y-201290968D03*
%TD*%
D11*
%TO.C,D188*%
X79780000Y-123250000D03*
D10*
X77240000Y-123250000D03*
%TD*%
%TO.C,R75*%
X71465686Y-133340000D03*
X71465686Y-135880000D03*
%TD*%
%TO.C,R174*%
X106665686Y-185540968D03*
X106665686Y-188080968D03*
%TD*%
D12*
%TO.C,D53*%
X209010000Y-91450000D03*
D10*
X211550000Y-91450000D03*
%TD*%
D12*
%TO.C,D183*%
X189250000Y-70545000D03*
D10*
X191790000Y-70545000D03*
%TD*%
D12*
%TO.C,D48*%
X104885686Y-92205000D03*
D10*
X107425686Y-92205000D03*
%TD*%
%TO.C,R27*%
X156324314Y-76450000D03*
X156324314Y-78990000D03*
%TD*%
D13*
%TO.C,Q19*%
X204550000Y-92500000D03*
D14*
X204550000Y-93770000D03*
X204550000Y-95040000D03*
%TD*%
D10*
%TO.C,R211*%
X137215686Y-169090968D03*
X137215686Y-171630968D03*
%TD*%
D12*
%TO.C,D230*%
X197015686Y-191680968D03*
D10*
X199555686Y-191680968D03*
%TD*%
D12*
%TO.C,D145*%
X111675686Y-153340000D03*
D10*
X114215686Y-153340000D03*
%TD*%
%TO.C,R93*%
X131925686Y-158130000D03*
X131925686Y-155590000D03*
%TD*%
D13*
%TO.C,Q39*%
X204565686Y-149140000D03*
D14*
X204565686Y-150410000D03*
X204565686Y-151680000D03*
%TD*%
D12*
%TO.C,D65*%
X104885686Y-96705000D03*
D10*
X107425686Y-96705000D03*
%TD*%
%TO.C,R59*%
X76215686Y-133295000D03*
X76215686Y-135835000D03*
%TD*%
D12*
%TO.C,D263*%
X147215686Y-205340968D03*
D10*
X149755686Y-205340968D03*
%TD*%
D13*
%TO.C,Q20*%
X222350000Y-92250000D03*
D14*
X222350000Y-93520000D03*
X222350000Y-94790000D03*
%TD*%
D13*
%TO.C,Q50*%
X57965686Y-127550000D03*
D14*
X57965686Y-128820000D03*
X57965686Y-130090000D03*
%TD*%
D12*
%TO.C,D262*%
X122301372Y-205540968D03*
D10*
X124841372Y-205540968D03*
%TD*%
D12*
%TO.C,D271*%
X196901372Y-205180968D03*
D10*
X199441372Y-205180968D03*
%TD*%
D12*
%TO.C,D128*%
X87425686Y-149090000D03*
D10*
X89965686Y-149090000D03*
%TD*%
%TO.C,R213*%
X33705000Y-64114314D03*
X36245000Y-64114314D03*
%TD*%
D12*
%TO.C,D57*%
X129385686Y-92205000D03*
D10*
X131925686Y-92205000D03*
%TD*%
D13*
%TO.C,Q57*%
X116915686Y-193290968D03*
D14*
X116915686Y-194560968D03*
X116915686Y-195830968D03*
%TD*%
D12*
%TO.C,D252*%
X190725686Y-200680968D03*
D10*
X193265686Y-200680968D03*
%TD*%
D12*
%TO.C,D156*%
X154500000Y-66545000D03*
D10*
X157040000Y-66545000D03*
%TD*%
D12*
%TO.C,D28*%
X62135686Y-88290000D03*
D10*
X64675686Y-88290000D03*
%TD*%
%TO.C,R10*%
X175324314Y-76405000D03*
X175324314Y-78945000D03*
%TD*%
%TO.C,R139*%
X161000000Y-59505000D03*
X161000000Y-62045000D03*
%TD*%
D13*
%TO.C,Q38*%
X179830000Y-148840000D03*
D14*
X179830000Y-150110000D03*
X179830000Y-151380000D03*
%TD*%
D10*
%TO.C,R15*%
X105000000Y-76660000D03*
X105000000Y-79200000D03*
%TD*%
%TO.C,R141*%
X76415686Y-116500000D03*
X76415686Y-119040000D03*
%TD*%
%TO.C,R159*%
X183965686Y-115300000D03*
X183965686Y-117840000D03*
%TD*%
%TO.C,R124*%
X109465686Y-116545000D03*
X109465686Y-119085000D03*
%TD*%
D12*
%TO.C,D163*%
X145715686Y-122840000D03*
D10*
X148255686Y-122840000D03*
%TD*%
D13*
%TO.C,Q34*%
X94215686Y-150090000D03*
D14*
X94215686Y-151360000D03*
X94215686Y-152630000D03*
%TD*%
D10*
%TO.C,R7*%
X133500000Y-76660000D03*
X133500000Y-79200000D03*
%TD*%
D12*
%TO.C,D242*%
X190765686Y-196180968D03*
D10*
X193305686Y-196180968D03*
%TD*%
D12*
%TO.C,D52*%
X191435686Y-91450000D03*
D10*
X193975686Y-91450000D03*
%TD*%
D13*
%TO.C,Q60*%
X178765686Y-193100968D03*
D14*
X178765686Y-194370968D03*
X178765686Y-195640968D03*
%TD*%
D12*
%TO.C,D18*%
X129250000Y-83205000D03*
D10*
X131790000Y-83205000D03*
%TD*%
D12*
%TO.C,D60*%
X197685686Y-91450000D03*
D10*
X200225686Y-91450000D03*
%TD*%
D12*
%TO.C,D251*%
X165715686Y-201050968D03*
D10*
X168255686Y-201050968D03*
%TD*%
D12*
%TO.C,D253*%
X209475686Y-200430968D03*
D10*
X212015686Y-200430968D03*
%TD*%
D15*
%TO.C,D311*%
X45000000Y-51654314D03*
D10*
X45000000Y-49114314D03*
%TD*%
D13*
%TO.C,Q65*%
X185315686Y-192980968D03*
D14*
X185315686Y-194250968D03*
X185315686Y-195520968D03*
%TD*%
D12*
%TO.C,D16*%
X111210000Y-83205000D03*
D10*
X113750000Y-83205000D03*
%TD*%
%TO.C,R35*%
X88500000Y-102585000D03*
X88500000Y-100045000D03*
%TD*%
D12*
%TO.C,D229*%
X190725686Y-191680968D03*
D10*
X193265686Y-191680968D03*
%TD*%
D12*
%TO.C,D69*%
X191435686Y-95950000D03*
D10*
X193975686Y-95950000D03*
%TD*%
D12*
%TO.C,D195*%
X189601372Y-126345000D03*
D10*
X192141372Y-126345000D03*
%TD*%
%TO.C,R98*%
X65465686Y-158635000D03*
X65465686Y-156095000D03*
%TD*%
%TO.C,R157*%
X139830000Y-116090000D03*
X139830000Y-118630000D03*
%TD*%
D12*
%TO.C,D125*%
X191265686Y-148090000D03*
D10*
X193805686Y-148090000D03*
%TD*%
%TO.C,R101*%
X122425686Y-158130000D03*
X122425686Y-155590000D03*
%TD*%
D12*
%TO.C,D32*%
X104885686Y-87705000D03*
D10*
X107425686Y-87705000D03*
%TD*%
D12*
%TO.C,D196*%
X196101372Y-126345000D03*
D10*
X198641372Y-126345000D03*
%TD*%
D12*
%TO.C,D264*%
X165715686Y-205550968D03*
D10*
X168255686Y-205550968D03*
%TD*%
%TO.C,R9*%
X161074314Y-76410000D03*
X161074314Y-78950000D03*
%TD*%
D12*
%TO.C,D165*%
X189715686Y-121845000D03*
D10*
X192255686Y-121845000D03*
%TD*%
D13*
%TO.C,Q26*%
X179830000Y-140090000D03*
D14*
X179830000Y-141360000D03*
X179830000Y-142630000D03*
%TD*%
D12*
%TO.C,D134*%
X215901372Y-148090000D03*
D10*
X218441372Y-148090000D03*
%TD*%
D12*
%TO.C,D119*%
X63101372Y-149090000D03*
D10*
X65641372Y-149090000D03*
%TD*%
D12*
%TO.C,D44*%
X49790000Y-78540000D03*
D10*
X52330000Y-78540000D03*
%TD*%
D13*
%TO.C,Q48*%
X183550000Y-70345000D03*
D14*
X183550000Y-71615000D03*
X183550000Y-72885000D03*
%TD*%
D12*
%TO.C,D161*%
X105965686Y-123090000D03*
D10*
X108505686Y-123090000D03*
%TD*%
D12*
%TO.C,D280*%
X180215686Y-175590968D03*
D10*
X182755686Y-175590968D03*
%TD*%
D12*
%TO.C,D257*%
X171965686Y-201050968D03*
D10*
X174505686Y-201050968D03*
%TD*%
%TO.C,R33*%
X211750000Y-76000000D03*
X211750000Y-78540000D03*
%TD*%
%TO.C,R202*%
X198515686Y-210430968D03*
X198515686Y-207890968D03*
%TD*%
D12*
%TO.C,D144*%
X87351372Y-153590000D03*
D10*
X89891372Y-153590000D03*
%TD*%
D12*
%TO.C,D292*%
X180215686Y-180090968D03*
D10*
X182755686Y-180090968D03*
%TD*%
%TO.C,R136*%
X179215686Y-115300000D03*
X179215686Y-117840000D03*
%TD*%
%TO.C,R3*%
X76750000Y-77250000D03*
X76750000Y-79790000D03*
%TD*%
D12*
%TO.C,D143*%
X69465686Y-153590000D03*
D10*
X72005686Y-153590000D03*
%TD*%
%TO.C,R113*%
X213265686Y-158135000D03*
X213265686Y-155595000D03*
%TD*%
%TO.C,R163*%
X116165686Y-185540968D03*
X116165686Y-188080968D03*
%TD*%
%TO.C,R61*%
X99925686Y-133090000D03*
X99925686Y-135630000D03*
%TD*%
%TO.C,R66*%
X172830000Y-132545000D03*
X172830000Y-135085000D03*
%TD*%
D12*
%TO.C,D91*%
X105561372Y-139840000D03*
D10*
X108101372Y-139840000D03*
%TD*%
D18*
%TO.C,D304*%
X68250000Y-198460000D03*
D10*
X68250000Y-201000000D03*
%TD*%
D12*
%TO.C,D186*%
X63625686Y-127750000D03*
D10*
X66165686Y-127750000D03*
%TD*%
D12*
%TO.C,D110*%
X129925686Y-144340000D03*
D10*
X132465686Y-144340000D03*
%TD*%
%TO.C,R42*%
X65000000Y-102335000D03*
X65000000Y-99795000D03*
%TD*%
D12*
%TO.C,D51*%
X166284314Y-91700000D03*
D10*
X168824314Y-91700000D03*
%TD*%
D12*
%TO.C,D235*%
X110051372Y-196790968D03*
D10*
X112591372Y-196790968D03*
%TD*%
D11*
%TO.C,D191*%
X121830001Y-123090000D03*
D10*
X119290001Y-123090000D03*
%TD*%
D11*
%TO.C,D185*%
X205290000Y-66045000D03*
D10*
X202750000Y-66045000D03*
%TD*%
D13*
%TO.C,Q1*%
X75250000Y-85040000D03*
D14*
X75250000Y-86310000D03*
X75250000Y-87580000D03*
%TD*%
D12*
%TO.C,D269*%
X153351372Y-205550968D03*
D10*
X155891372Y-205550968D03*
%TD*%
D12*
%TO.C,D120*%
X81215686Y-149090000D03*
D10*
X83755686Y-149090000D03*
%TD*%
D13*
%TO.C,Q23*%
X118475686Y-140890000D03*
D14*
X118475686Y-142160000D03*
X118475686Y-143430000D03*
%TD*%
D10*
%TO.C,R72*%
X144330000Y-132550000D03*
X144330000Y-135090000D03*
%TD*%
D12*
%TO.C,D268*%
X128625686Y-205540968D03*
D10*
X131165686Y-205540968D03*
%TD*%
%TO.C,R82*%
X149080000Y-132545000D03*
X149080000Y-135085000D03*
%TD*%
%TO.C,R228*%
X141891372Y-169135968D03*
X141891372Y-171675968D03*
%TD*%
%TO.C,R85*%
X168080000Y-132545000D03*
X168080000Y-135085000D03*
%TD*%
D13*
%TO.C,Q8*%
X222550000Y-83700000D03*
D14*
X222550000Y-84970000D03*
X222550000Y-86240000D03*
%TD*%
D12*
%TO.C,D245*%
X215765686Y-196180968D03*
D10*
X218305686Y-196180968D03*
%TD*%
%TO.C,R87*%
X198015686Y-132045000D03*
X198015686Y-134585000D03*
%TD*%
D12*
%TO.C,D41*%
X197685686Y-87200000D03*
D10*
X200225686Y-87200000D03*
%TD*%
D13*
%TO.C,Q15*%
X117800000Y-93505000D03*
D14*
X117800000Y-94775000D03*
X117800000Y-96045000D03*
%TD*%
D10*
%TO.C,R45*%
X117000000Y-101745000D03*
X117000000Y-99205000D03*
%TD*%
D12*
%TO.C,D75*%
X154324314Y-96700000D03*
D10*
X156864314Y-96700000D03*
%TD*%
D12*
%TO.C,D133*%
X197651372Y-148090000D03*
D10*
X200191372Y-148090000D03*
%TD*%
D12*
%TO.C,D39*%
X172534314Y-87450000D03*
D10*
X175074314Y-87450000D03*
%TD*%
%TO.C,R133*%
X52965686Y-116750000D03*
X52965686Y-119290000D03*
%TD*%
D12*
%TO.C,D175*%
X70135686Y-71545000D03*
D10*
X72675686Y-71545000D03*
%TD*%
D12*
%TO.C,D142*%
X209401372Y-152590000D03*
D10*
X211941372Y-152590000D03*
%TD*%
D12*
%TO.C,D225*%
X147141372Y-192050968D03*
D10*
X149681372Y-192050968D03*
%TD*%
D12*
%TO.C,D24*%
X197685686Y-82700000D03*
D10*
X200225686Y-82700000D03*
%TD*%
%TO.C,R155*%
X99965686Y-116550000D03*
X99965686Y-119090000D03*
%TD*%
%TO.C,R8*%
X142074314Y-76405000D03*
X142074314Y-78945000D03*
%TD*%
D12*
%TO.C,D118*%
X215975686Y-143590000D03*
D10*
X218515686Y-143590000D03*
%TD*%
D12*
%TO.C,D106*%
X87351372Y-144590000D03*
D10*
X89891372Y-144590000D03*
%TD*%
D12*
%TO.C,D288*%
X192641372Y-180340968D03*
D10*
X195181372Y-180340968D03*
%TD*%
%TO.C,R14*%
X62750000Y-77290000D03*
X62750000Y-79830000D03*
%TD*%
%TO.C,R23*%
X114635686Y-76660000D03*
X114635686Y-79200000D03*
%TD*%
%TO.C,R171*%
X101915686Y-185540968D03*
X101915686Y-188080968D03*
%TD*%
D12*
%TO.C,D66*%
X123210000Y-96705000D03*
D10*
X125750000Y-96705000D03*
%TD*%
%TO.C,R90*%
X74965686Y-158635000D03*
X74965686Y-156095000D03*
%TD*%
D12*
%TO.C,D150*%
X215901372Y-152590000D03*
D10*
X218441372Y-152590000D03*
%TD*%
%TO.C,R156*%
X104715686Y-116550000D03*
X104715686Y-119090000D03*
%TD*%
D16*
%TO.C,Q81*%
X50500000Y-37925686D03*
D17*
X51770000Y-37925686D03*
X53040000Y-37925686D03*
%TD*%
D12*
%TO.C,D250*%
X147101372Y-201050968D03*
D10*
X149641372Y-201050968D03*
%TD*%
%TO.C,R191*%
X217515686Y-210430968D03*
X217515686Y-207890968D03*
%TD*%
%TO.C,R183*%
X200765686Y-185180968D03*
X200765686Y-187720968D03*
%TD*%
%TO.C,R67*%
X183965686Y-132050000D03*
X183965686Y-134590000D03*
%TD*%
D11*
%TO.C,D210*%
X121755686Y-127590000D03*
D10*
X119215686Y-127590000D03*
%TD*%
D12*
%TO.C,D204*%
X176965686Y-126590000D03*
D10*
X179505686Y-126590000D03*
%TD*%
D12*
%TO.C,D224*%
X128625686Y-192290968D03*
D10*
X131165686Y-192290968D03*
%TD*%
%TO.C,R208*%
X201141372Y-169045968D03*
X201141372Y-171585968D03*
%TD*%
D12*
%TO.C,D289*%
X198777058Y-180340968D03*
D10*
X201317058Y-180340968D03*
%TD*%
D18*
%TO.C,D310*%
X45409032Y-185960001D03*
D10*
X45409032Y-188500001D03*
%TD*%
%TO.C,R158*%
X144330000Y-116045000D03*
X144330000Y-118585000D03*
%TD*%
D12*
%TO.C,D101*%
X209725686Y-139090000D03*
D10*
X212265686Y-139090000D03*
%TD*%
D18*
%TO.C,D308*%
X45000000Y-67000000D03*
D10*
X45000000Y-69540000D03*
%TD*%
%TO.C,R189*%
X173215686Y-210385968D03*
X173215686Y-207845968D03*
%TD*%
%TO.C,R46*%
X150824314Y-101700000D03*
X150824314Y-99160000D03*
%TD*%
%TO.C,R44*%
X107500000Y-101750000D03*
X107500000Y-99210000D03*
%TD*%
%TO.C,R107*%
X84465686Y-158635000D03*
X84465686Y-156095000D03*
%TD*%
D12*
%TO.C,D272*%
X215765686Y-204930968D03*
D10*
X218305686Y-204930968D03*
%TD*%
D12*
%TO.C,D96*%
X154715686Y-139090000D03*
D10*
X157255686Y-139090000D03*
%TD*%
%TO.C,R41*%
X217800000Y-100995000D03*
X217800000Y-98455000D03*
%TD*%
%TO.C,R36*%
X121750000Y-101750000D03*
X121750000Y-99210000D03*
%TD*%
%TO.C,R215*%
X111715686Y-169350968D03*
X111715686Y-171890968D03*
%TD*%
D18*
%TO.C,D305*%
X59000000Y-186034315D03*
D10*
X59000000Y-188574315D03*
%TD*%
%TO.C,R47*%
X165074314Y-101745000D03*
X165074314Y-99205000D03*
%TD*%
%TO.C,R154*%
X62165686Y-116710000D03*
X62165686Y-119250000D03*
%TD*%
D12*
%TO.C,D146*%
X129811372Y-153090000D03*
D10*
X132351372Y-153090000D03*
%TD*%
D12*
%TO.C,D92*%
X111675686Y-139840000D03*
D10*
X114215686Y-139840000D03*
%TD*%
D12*
%TO.C,D221*%
X103665686Y-192290968D03*
D10*
X106205686Y-192290968D03*
%TD*%
%TO.C,R182*%
X196015686Y-185135968D03*
X196015686Y-187675968D03*
%TD*%
%TO.C,R196*%
X193765686Y-210430968D03*
X193765686Y-207890968D03*
%TD*%
%TO.C,R122*%
X66915686Y-116710000D03*
X66915686Y-119250000D03*
%TD*%
D12*
%TO.C,D34*%
X123135686Y-87705000D03*
D10*
X125675686Y-87705000D03*
%TD*%
%TO.C,R92*%
X117675686Y-158340000D03*
X117675686Y-155800000D03*
%TD*%
D12*
%TO.C,D223*%
X122301372Y-192290968D03*
D10*
X124841372Y-192290968D03*
%TD*%
%TO.C,R169*%
X205515686Y-185180968D03*
X205515686Y-187720968D03*
%TD*%
D12*
%TO.C,D98*%
X172965686Y-139090000D03*
D10*
X175505686Y-139090000D03*
%TD*%
%TO.C,R118*%
X151500000Y-59795000D03*
X151500000Y-62335000D03*
%TD*%
D11*
%TO.C,D287*%
X163391372Y-175840968D03*
D10*
X160851372Y-175840968D03*
%TD*%
D12*
%TO.C,D80*%
X99635686Y-148749032D03*
D10*
X102175686Y-148749032D03*
%TD*%
D12*
%TO.C,D172*%
X133175686Y-122590000D03*
D10*
X135715686Y-122590000D03*
%TD*%
D12*
%TO.C,D19*%
X148210000Y-82950000D03*
D10*
X150750000Y-82950000D03*
%TD*%
D12*
%TO.C,D50*%
X148210000Y-91950000D03*
D10*
X150750000Y-91950000D03*
%TD*%
D12*
%TO.C,D218*%
X97601372Y-205840968D03*
D10*
X100141372Y-205840968D03*
%TD*%
D12*
%TO.C,D274*%
X104715686Y-176140968D03*
D10*
X107255686Y-176140968D03*
%TD*%
D11*
%TO.C,D206*%
X122114314Y-71040000D03*
D10*
X119574314Y-71040000D03*
%TD*%
D13*
%TO.C,Q77*%
X142191372Y-174390968D03*
D14*
X142191372Y-175660968D03*
X142191372Y-176930968D03*
%TD*%
D12*
%TO.C,D189*%
X105851372Y-127590000D03*
D10*
X108391372Y-127590000D03*
%TD*%
D12*
%TO.C,D286*%
X153851372Y-180340968D03*
D10*
X156391372Y-180340968D03*
%TD*%
D15*
%TO.C,D312*%
X49500000Y-45040000D03*
D10*
X49500000Y-42500000D03*
%TD*%
D18*
%TO.C,D297*%
X54659032Y-185885687D03*
D10*
X54659032Y-188425687D03*
%TD*%
D13*
%TO.C,Q30*%
X100725686Y-141140000D03*
D14*
X100725686Y-142410000D03*
X100725686Y-143680000D03*
%TD*%
D12*
%TO.C,D21*%
X166324314Y-82950000D03*
D10*
X168864314Y-82950000D03*
%TD*%
D12*
%TO.C,D37*%
X154460000Y-87450000D03*
D10*
X157000000Y-87450000D03*
%TD*%
D12*
%TO.C,D90*%
X87215686Y-140090000D03*
D10*
X89755686Y-140090000D03*
%TD*%
%TO.C,R161*%
X92465686Y-185795968D03*
X92465686Y-188335968D03*
%TD*%
%TO.C,R18*%
X67500000Y-77330000D03*
X67500000Y-79870000D03*
%TD*%
D12*
%TO.C,D40*%
X191361372Y-87200000D03*
D10*
X193901372Y-87200000D03*
%TD*%
D12*
%TO.C,D203*%
X133069396Y-127177017D03*
D10*
X135609396Y-127177017D03*
%TD*%
%TO.C,R221*%
X66045000Y-192074315D03*
X63505000Y-192074315D03*
%TD*%
D12*
%TO.C,D122*%
X123561372Y-148590000D03*
D10*
X126101372Y-148590000D03*
%TD*%
D12*
%TO.C,D259*%
X215651372Y-200430968D03*
D10*
X218191372Y-200430968D03*
%TD*%
%TO.C,R109*%
X127175686Y-158090000D03*
X127175686Y-155550000D03*
%TD*%
D12*
%TO.C,D138*%
X123561372Y-153090000D03*
D10*
X126101372Y-153090000D03*
%TD*%
D13*
%TO.C,Q46*%
X142500000Y-65025000D03*
D14*
X142500000Y-66295000D03*
X142500000Y-67565000D03*
%TD*%
D10*
%TO.C,R108*%
X112925686Y-158385000D03*
X112925686Y-155845000D03*
%TD*%
%TO.C,R190*%
X203265686Y-210470968D03*
X203265686Y-207930968D03*
%TD*%
%TO.C,R53*%
X126500000Y-101750000D03*
X126500000Y-99210000D03*
%TD*%
%TO.C,R164*%
X130415686Y-185495968D03*
X130415686Y-188035968D03*
%TD*%
D12*
%TO.C,D260*%
X86425686Y-210590968D03*
D10*
X88965686Y-210590968D03*
%TD*%
D12*
%TO.C,D135*%
X63101372Y-153590000D03*
D10*
X65641372Y-153590000D03*
%TD*%
D12*
%TO.C,D158*%
X195500000Y-66045000D03*
D10*
X198040000Y-66045000D03*
%TD*%
D12*
%TO.C,D256*%
X153425686Y-201050968D03*
D10*
X155965686Y-201050968D03*
%TD*%
%TO.C,R86*%
X193265686Y-132045000D03*
X193265686Y-134585000D03*
%TD*%
D12*
%TO.C,D200*%
X176460000Y-71290000D03*
D10*
X179000000Y-71290000D03*
%TD*%
D18*
%TO.C,D302*%
X72750000Y-186210000D03*
D10*
X72750000Y-188750000D03*
%TD*%
D13*
%TO.C,Q42*%
X58300000Y-71345000D03*
D14*
X58300000Y-72615000D03*
X58300000Y-73885000D03*
%TD*%
D12*
%TO.C,D276*%
X153891372Y-175840968D03*
D10*
X156431372Y-175840968D03*
%TD*%
%TO.C,R20*%
X81500000Y-77250000D03*
X81500000Y-79790000D03*
%TD*%
%TO.C,R22*%
X109750000Y-76660000D03*
X109750000Y-79200000D03*
%TD*%
D12*
%TO.C,D5*%
X185260000Y-91336290D03*
D10*
X187800000Y-91336290D03*
%TD*%
D11*
%TO.C,D284*%
X114255686Y-176140968D03*
D10*
X111715686Y-176140968D03*
%TD*%
D11*
%TO.C,D208*%
X205364314Y-70545000D03*
D10*
X202824314Y-70545000D03*
%TD*%
%TO.C,R6*%
X119250000Y-76705000D03*
X119250000Y-79245000D03*
%TD*%
D15*
%TO.C,D313*%
X54000000Y-44965686D03*
D10*
X54000000Y-42425686D03*
%TD*%
%TO.C,R224*%
X79290000Y-191500000D03*
X76750000Y-191500000D03*
%TD*%
%TO.C,R149*%
X142250000Y-59750000D03*
X142250000Y-62290000D03*
%TD*%
%TO.C,R222*%
X57159032Y-191750001D03*
X54619032Y-191750001D03*
%TD*%
%TO.C,R167*%
X174965686Y-185510968D03*
X174965686Y-188050968D03*
%TD*%
%TO.C,R138*%
X118574314Y-59995000D03*
X118574314Y-62535000D03*
%TD*%
D12*
%TO.C,D149*%
X197651372Y-152590000D03*
D10*
X200191372Y-152590000D03*
%TD*%
D12*
%TO.C,D249*%
X122301372Y-201290968D03*
D10*
X124841372Y-201290968D03*
%TD*%
D12*
%TO.C,D174*%
X63885686Y-71545000D03*
D10*
X66425686Y-71545000D03*
%TD*%
D12*
%TO.C,D291*%
X135101372Y-180090968D03*
D10*
X137641372Y-180090968D03*
%TD*%
D13*
%TO.C,Q61*%
X204065686Y-192660968D03*
D14*
X204065686Y-193930968D03*
X204065686Y-195200968D03*
%TD*%
D10*
%TO.C,R160*%
X188715686Y-115300000D03*
X188715686Y-117840000D03*
%TD*%
%TO.C,R137*%
X76750000Y-60500000D03*
X76750000Y-63040000D03*
%TD*%
D12*
%TO.C,D137*%
X105635686Y-153340000D03*
D10*
X108175686Y-153340000D03*
%TD*%
D12*
%TO.C,D55*%
X86635686Y-92790000D03*
D10*
X89175686Y-92790000D03*
%TD*%
D12*
%TO.C,D94*%
X129885686Y-139840000D03*
D10*
X132425686Y-139840000D03*
%TD*%
D12*
%TO.C,D117*%
X209651372Y-143590000D03*
D10*
X212191372Y-143590000D03*
%TD*%
D12*
%TO.C,D99*%
X191401372Y-139090000D03*
D10*
X193941372Y-139090000D03*
%TD*%
D12*
%TO.C,D132*%
X172790000Y-147840000D03*
D10*
X175330000Y-147840000D03*
%TD*%
D13*
%TO.C,Q44*%
X100624314Y-70840000D03*
D14*
X100624314Y-72110000D03*
X100624314Y-73380000D03*
%TD*%
D10*
%TO.C,R116*%
X109574314Y-60000000D03*
X109574314Y-62540000D03*
%TD*%
%TO.C,R165*%
X141715686Y-185545968D03*
X141715686Y-188085968D03*
%TD*%
%TO.C,R132*%
X178500000Y-59540000D03*
X178500000Y-62080000D03*
%TD*%
%TO.C,R28*%
X165824314Y-76410000D03*
X165824314Y-78950000D03*
%TD*%
%TO.C,R233*%
X34000000Y-35425686D03*
X36540000Y-35425686D03*
%TD*%
D12*
%TO.C,D7*%
X56135686Y-97290000D03*
D10*
X58675686Y-97290000D03*
%TD*%
D12*
%TO.C,D10*%
X185260000Y-95950000D03*
D10*
X187800000Y-95950000D03*
%TD*%
D12*
%TO.C,D275*%
X147641372Y-175840968D03*
D10*
X150181372Y-175840968D03*
%TD*%
D13*
%TO.C,Q62*%
X222765686Y-192680968D03*
D14*
X222765686Y-193950968D03*
X222765686Y-195220968D03*
%TD*%
D12*
%TO.C,D113*%
X166790000Y-143340000D03*
D10*
X169330000Y-143340000D03*
%TD*%
%TO.C,R97*%
X218015686Y-158090000D03*
X218015686Y-155550000D03*
%TD*%
D13*
%TO.C,Q16*%
X136050000Y-93505000D03*
D14*
X136050000Y-94775000D03*
X136050000Y-96045000D03*
%TD*%
D12*
%TO.C,D3*%
X98710000Y-92200000D03*
D10*
X101250000Y-92200000D03*
%TD*%
D12*
%TO.C,D213*%
X86425686Y-188090968D03*
D10*
X88965686Y-188090968D03*
%TD*%
%TO.C,R64*%
X139715686Y-132590000D03*
X139715686Y-135130000D03*
%TD*%
%TO.C,R40*%
X203550000Y-100995000D03*
X203550000Y-98455000D03*
%TD*%
%TO.C,R143*%
X158580000Y-116045000D03*
X158580000Y-118585000D03*
%TD*%
%TO.C,R37*%
X131250000Y-101795000D03*
X131250000Y-99255000D03*
%TD*%
D13*
%TO.C,Q4*%
X136250000Y-84255000D03*
D14*
X136250000Y-85525000D03*
X136250000Y-86795000D03*
%TD*%
D10*
%TO.C,R99*%
X79715686Y-158630000D03*
X79715686Y-156090000D03*
%TD*%
D13*
%TO.C,Q43*%
X100624314Y-65340000D03*
D14*
X100624314Y-66610000D03*
X100624314Y-67880000D03*
%TD*%
D13*
%TO.C,Q35*%
X118475686Y-149890000D03*
D14*
X118475686Y-151160000D03*
X118475686Y-152430000D03*
%TD*%
D12*
%TO.C,D88*%
X69351372Y-140090000D03*
D10*
X71891372Y-140090000D03*
%TD*%
D11*
%TO.C,D197*%
X205715686Y-121845000D03*
D10*
X203175686Y-121845000D03*
%TD*%
D12*
%TO.C,D215*%
X140925686Y-201090968D03*
D10*
X143465686Y-201090968D03*
%TD*%
%TO.C,R186*%
X115915686Y-210585968D03*
X115915686Y-208045968D03*
%TD*%
D12*
%TO.C,D62*%
X49790000Y-87040000D03*
D10*
X52330000Y-87040000D03*
%TD*%
D12*
%TO.C,D100*%
X197725686Y-139090000D03*
D10*
X200265686Y-139090000D03*
%TD*%
%TO.C,R217*%
X205891372Y-169295968D03*
X205891372Y-171835968D03*
%TD*%
D12*
%TO.C,D139*%
X148290000Y-152340000D03*
D10*
X150830000Y-152340000D03*
%TD*%
D12*
%TO.C,D170*%
X50925686Y-123840000D03*
D10*
X53465686Y-123840000D03*
%TD*%
%TO.C,R172*%
X146465686Y-185510968D03*
X146465686Y-188050968D03*
%TD*%
D13*
%TO.C,Q58*%
X135415686Y-193270968D03*
D14*
X135415686Y-194540968D03*
X135415686Y-195810968D03*
%TD*%
D12*
%TO.C,D254*%
X110051372Y-201290968D03*
D10*
X112591372Y-201290968D03*
%TD*%
%TO.C,R229*%
X146641372Y-169090968D03*
X146641372Y-171630968D03*
%TD*%
D12*
%TO.C,D231*%
X209515686Y-191680968D03*
D10*
X212055686Y-191680968D03*
%TD*%
D12*
%TO.C,D164*%
X151965686Y-122840000D03*
D10*
X154505686Y-122840000D03*
%TD*%
%TO.C,R103*%
X166580000Y-157385000D03*
X166580000Y-154845000D03*
%TD*%
%TO.C,R223*%
X33710000Y-68864314D03*
X36250000Y-68864314D03*
%TD*%
D12*
%TO.C,D283*%
X104715686Y-180640968D03*
D10*
X107255686Y-180640968D03*
%TD*%
%TO.C,R21*%
X86250000Y-77250000D03*
X86250000Y-79790000D03*
%TD*%
D12*
%TO.C,D226*%
X153465686Y-192050968D03*
D10*
X156005686Y-192050968D03*
%TD*%
%TO.C,R151*%
X183250000Y-59500000D03*
X183250000Y-62040000D03*
%TD*%
%TO.C,R76*%
X80965686Y-133300000D03*
X80965686Y-135840000D03*
%TD*%
%TO.C,R220*%
X79295000Y-201000000D03*
X76755000Y-201000000D03*
%TD*%
%TO.C,R77*%
X85715686Y-133340000D03*
X85715686Y-135880000D03*
%TD*%
D12*
%TO.C,D151*%
X63885686Y-67045000D03*
D10*
X66425686Y-67045000D03*
%TD*%
D13*
%TO.C,Q41*%
X58300000Y-65845000D03*
D14*
X58300000Y-67115000D03*
X58300000Y-68385000D03*
%TD*%
D12*
%TO.C,D68*%
X166210000Y-96200000D03*
D10*
X168750000Y-96200000D03*
%TD*%
D12*
%TO.C,D112*%
X154715686Y-143340000D03*
D10*
X157255686Y-143340000D03*
%TD*%
%TO.C,R153*%
X57665686Y-116750000D03*
X57665686Y-119290000D03*
%TD*%
%TO.C,R80*%
X123425686Y-133045000D03*
X123425686Y-135585000D03*
%TD*%
%TO.C,R55*%
X169824314Y-101740000D03*
X169824314Y-99200000D03*
%TD*%
D12*
%TO.C,D59*%
X172460000Y-91700000D03*
D10*
X175000000Y-91700000D03*
%TD*%
D12*
%TO.C,D72*%
X86710000Y-97290000D03*
D10*
X89250000Y-97290000D03*
%TD*%
D12*
%TO.C,D261*%
X103875686Y-205790968D03*
D10*
X106415686Y-205790968D03*
%TD*%
%TO.C,R70*%
X62215686Y-133300000D03*
X62215686Y-135840000D03*
%TD*%
%TO.C,R225*%
X34000000Y-59500000D03*
X36540000Y-59500000D03*
%TD*%
D12*
%TO.C,D85*%
X142175686Y-152340000D03*
D10*
X144715686Y-152340000D03*
%TD*%
D15*
%TO.C,D281*%
X40500000Y-57904314D03*
D10*
X40500000Y-55364314D03*
%TD*%
D12*
%TO.C,D61*%
X215510000Y-91200000D03*
D10*
X218050000Y-91200000D03*
%TD*%
%TO.C,R209*%
X196391372Y-169050968D03*
X196391372Y-171590968D03*
%TD*%
%TO.C,R127*%
X153830000Y-116090000D03*
X153830000Y-118630000D03*
%TD*%
%TO.C,R74*%
X66965686Y-133295000D03*
X66965686Y-135835000D03*
%TD*%
D12*
%TO.C,D107*%
X105561372Y-144340000D03*
D10*
X108101372Y-144340000D03*
%TD*%
D21*
%TO.C,J4*%
X128750000Y-22300000D03*
D22*
X127750000Y-21750000D03*
X126750000Y-21750000D03*
X125750000Y-21750000D03*
X124750000Y-21750000D03*
X123750000Y-21750000D03*
X122750000Y-21750000D03*
X121750000Y-21750000D03*
X120750000Y-21750000D03*
X119750000Y-21750000D03*
X118750000Y-21750000D03*
X115750000Y-21750000D03*
X114750000Y-21750000D03*
X113750000Y-21750000D03*
X112750000Y-21750000D03*
X111750000Y-21750000D03*
X110750000Y-21750000D03*
X109750000Y-21750000D03*
X108750000Y-21750000D03*
X107750000Y-21750000D03*
X106750000Y-21750000D03*
X105750000Y-21750000D03*
X104750000Y-21750000D03*
X103750000Y-21750000D03*
X102750000Y-21750000D03*
X101750000Y-21750000D03*
X100750000Y-21750000D03*
X99750000Y-21750000D03*
X98750000Y-21750000D03*
X97750000Y-21750000D03*
X96750000Y-21750000D03*
X95750000Y-21750000D03*
X94750000Y-21750000D03*
X93750000Y-21750000D03*
X92750000Y-21750000D03*
X91750000Y-21750000D03*
X90750000Y-21750000D03*
X89750000Y-21750000D03*
X88750000Y-21750000D03*
X87750000Y-21750000D03*
X86750000Y-21750000D03*
X85750000Y-21750000D03*
X84750000Y-21750000D03*
X83750000Y-21750000D03*
X82750000Y-21750000D03*
X81750000Y-21750000D03*
X80750000Y-21750000D03*
X79750000Y-21750000D03*
X78750000Y-21750000D03*
X77750000Y-21750000D03*
X76750000Y-21750000D03*
X75750000Y-21750000D03*
X74750000Y-21750000D03*
X73750000Y-21750000D03*
X72750000Y-21750000D03*
X71750000Y-21750000D03*
X70750000Y-21750000D03*
X69750000Y-21750000D03*
X68750000Y-21750000D03*
X67750000Y-21750000D03*
X66750000Y-21750000D03*
X65750000Y-21750000D03*
X64750000Y-21750000D03*
X63750000Y-21750000D03*
X62750000Y-21750000D03*
X61750000Y-21750000D03*
X60750000Y-21750000D03*
X59750000Y-21750000D03*
X58750000Y-21750000D03*
X57750000Y-21750000D03*
X56750000Y-21750000D03*
X55750000Y-21750000D03*
X54750000Y-21750000D03*
X53750000Y-21750000D03*
X52750000Y-21750000D03*
X51750000Y-21750000D03*
X50750000Y-21750000D03*
X49750000Y-21750000D03*
X48750000Y-21750000D03*
X47750000Y-21750000D03*
X46750000Y-21750000D03*
X45750000Y-21750000D03*
%TD*%
D12*
%TO.C,D49*%
X123210000Y-92205000D03*
D10*
X125750000Y-92205000D03*
%TD*%
%TO.C,R25*%
X128750000Y-76660000D03*
X128750000Y-79200000D03*
%TD*%
%TO.C,R78*%
X109425686Y-133045000D03*
X109425686Y-135585000D03*
%TD*%
%TO.C,R212*%
X182215686Y-169090968D03*
X182215686Y-171630968D03*
%TD*%
D12*
%TO.C,D8*%
X98710000Y-96700000D03*
D10*
X101250000Y-96700000D03*
%TD*%
D13*
%TO.C,Q59*%
X160215686Y-193050968D03*
D14*
X160215686Y-194320968D03*
X160215686Y-195590968D03*
%TD*%
D12*
%TO.C,D246*%
X86425686Y-201590968D03*
D10*
X88965686Y-201590968D03*
%TD*%
D13*
%TO.C,Q11*%
X142624314Y-84250000D03*
D14*
X142624314Y-85520000D03*
X142624314Y-86790000D03*
%TD*%
D10*
%TO.C,R176*%
X120915686Y-185495968D03*
X120915686Y-188035968D03*
%TD*%
D12*
%TO.C,D173*%
X176861976Y-122030241D03*
D10*
X179401976Y-122030241D03*
%TD*%
%TO.C,R81*%
X128175686Y-133045000D03*
X128175686Y-135585000D03*
%TD*%
D12*
%TO.C,D147*%
X154465686Y-152340000D03*
D10*
X157005686Y-152340000D03*
%TD*%
D13*
%TO.C,Q12*%
X186050000Y-83950000D03*
D14*
X186050000Y-85220000D03*
X186050000Y-86490000D03*
%TD*%
D16*
%TO.C,Q74*%
X71700000Y-193050000D03*
D17*
X70430000Y-193050000D03*
X69160000Y-193050000D03*
%TD*%
D19*
%TO.C,J2*%
X59330000Y-206750000D03*
D20*
X56790000Y-206750000D03*
X54250000Y-206750000D03*
X51710000Y-206750000D03*
X49170000Y-206750000D03*
X46630000Y-206750000D03*
X44090000Y-206750000D03*
X41550000Y-206750000D03*
%TD*%
D11*
%TO.C,D212*%
X205830000Y-126345000D03*
D10*
X203290000Y-126345000D03*
%TD*%
D11*
%TO.C,D179*%
X121938628Y-66540000D03*
D10*
X119398628Y-66540000D03*
%TD*%
D15*
%TO.C,D303*%
X45000000Y-45040000D03*
D10*
X45000000Y-42500000D03*
%TD*%
%TO.C,R206*%
X151391372Y-169045968D03*
X151391372Y-171585968D03*
%TD*%
D13*
%TO.C,Q31*%
X142830000Y-140820000D03*
D14*
X142830000Y-142090000D03*
X142830000Y-143360000D03*
%TD*%
D10*
%TO.C,R126*%
X149080000Y-116050000D03*
X149080000Y-118590000D03*
%TD*%
%TO.C,R194*%
X149215686Y-210180968D03*
X149215686Y-207640968D03*
%TD*%
D12*
%TO.C,D46*%
X62250000Y-92790000D03*
D10*
X64790000Y-92790000D03*
%TD*%
D13*
%TO.C,Q37*%
X161580000Y-149090000D03*
D14*
X161580000Y-150360000D03*
X161580000Y-151630000D03*
%TD*%
D13*
%TO.C,Q80*%
X186941372Y-179890968D03*
D14*
X186941372Y-181160968D03*
X186941372Y-182430968D03*
%TD*%
D12*
%TO.C,D54*%
X68385686Y-92790000D03*
D10*
X70925686Y-92790000D03*
%TD*%
%TO.C,R150*%
X147000000Y-59750000D03*
X147000000Y-62290000D03*
%TD*%
%TO.C,R2*%
X58000000Y-77250000D03*
X58000000Y-79790000D03*
%TD*%
%TO.C,R91*%
X89215686Y-158630000D03*
X89215686Y-156090000D03*
%TD*%
%TO.C,R230*%
X186891372Y-169090968D03*
X186891372Y-171630968D03*
%TD*%
D12*
%TO.C,D166*%
X196101372Y-121845000D03*
D10*
X198641372Y-121845000D03*
%TD*%
D12*
%TO.C,D247*%
X86425686Y-206090968D03*
D10*
X88965686Y-206090968D03*
%TD*%
%TO.C,R56*%
X198800000Y-100995000D03*
X198800000Y-98455000D03*
%TD*%
D12*
%TO.C,D187*%
X70125686Y-127750000D03*
D10*
X72665686Y-127750000D03*
%TD*%
D13*
%TO.C,Q9*%
X57000000Y-85090000D03*
D14*
X57000000Y-86360000D03*
X57000000Y-87630000D03*
%TD*%
D10*
%TO.C,R68*%
X202765686Y-132045000D03*
X202765686Y-134585000D03*
%TD*%
D12*
%TO.C,D67*%
X148210000Y-96700000D03*
D10*
X150750000Y-96700000D03*
%TD*%
D12*
%TO.C,D105*%
X81101372Y-144590000D03*
D10*
X83641372Y-144590000D03*
%TD*%
%TO.C,R94*%
X161830000Y-157380000D03*
X161830000Y-154840000D03*
%TD*%
D12*
%TO.C,D131*%
X154715686Y-147840000D03*
D10*
X157255686Y-147840000D03*
%TD*%
%TO.C,R232*%
X33960000Y-30675686D03*
X36500000Y-30675686D03*
%TD*%
D12*
%TO.C,D130*%
X129885686Y-148590000D03*
D10*
X132425686Y-148590000D03*
%TD*%
%TO.C,R62*%
X118675686Y-133050000D03*
X118675686Y-135590000D03*
%TD*%
D12*
%TO.C,D78*%
X215435686Y-95700000D03*
D10*
X217975686Y-95700000D03*
%TD*%
D12*
%TO.C,D219*%
X140965686Y-205590968D03*
D10*
X143505686Y-205590968D03*
%TD*%
D12*
%TO.C,D152*%
X70135686Y-67045000D03*
D10*
X72675686Y-67045000D03*
%TD*%
D13*
%TO.C,Q56*%
X184265686Y-126145000D03*
D14*
X184265686Y-127415000D03*
X184265686Y-128685000D03*
%TD*%
D10*
%TO.C,R129*%
X198215686Y-115345000D03*
X198215686Y-117885000D03*
%TD*%
D12*
%TO.C,D202*%
X93101372Y-128090000D03*
D10*
X95641372Y-128090000D03*
%TD*%
D12*
%TO.C,D214*%
X97601372Y-201250000D03*
D10*
X100141372Y-201250000D03*
%TD*%
D12*
%TO.C,D129*%
X111635686Y-148840000D03*
D10*
X114175686Y-148840000D03*
%TD*%
D12*
%TO.C,D27*%
X49790000Y-74290000D03*
D10*
X52330000Y-74290000D03*
%TD*%
D12*
%TO.C,D121*%
X105635686Y-148840000D03*
D10*
X108175686Y-148840000D03*
%TD*%
%TO.C,R203*%
X212765686Y-210430968D03*
X212765686Y-207890968D03*
%TD*%
D12*
%TO.C,D97*%
X166715686Y-139090000D03*
D10*
X169255686Y-139090000D03*
%TD*%
D13*
%TO.C,Q63*%
X98215686Y-193840968D03*
D14*
X98215686Y-195110968D03*
X98215686Y-196380968D03*
%TD*%
D12*
%TO.C,D116*%
X197651372Y-143590000D03*
D10*
X200191372Y-143590000D03*
%TD*%
%TO.C,R199*%
X125415686Y-210585968D03*
X125415686Y-208045968D03*
%TD*%
D12*
%TO.C,D23*%
X191435686Y-82700000D03*
D10*
X193975686Y-82700000D03*
%TD*%
D11*
%TO.C,D300*%
X163391372Y-180340968D03*
D10*
X160851372Y-180340968D03*
%TD*%
D12*
%TO.C,D248*%
X103801372Y-201290968D03*
D10*
X106341372Y-201290968D03*
%TD*%
D12*
%TO.C,D154*%
X112460000Y-66540000D03*
D10*
X115000000Y-66540000D03*
%TD*%
D12*
%TO.C,D74*%
X129385686Y-96705000D03*
D10*
X131925686Y-96705000D03*
%TD*%
D12*
%TO.C,D220*%
X184425686Y-205090968D03*
D10*
X186965686Y-205090968D03*
%TD*%
D12*
%TO.C,D124*%
X166715686Y-147840000D03*
D10*
X169255686Y-147840000D03*
%TD*%
D12*
%TO.C,D109*%
X123561372Y-144340000D03*
D10*
X126101372Y-144340000D03*
%TD*%
%TO.C,R177*%
X125665686Y-185540968D03*
X125665686Y-188080968D03*
%TD*%
D13*
%TO.C,Q49*%
X57965686Y-122050000D03*
D14*
X57965686Y-123320000D03*
X57965686Y-124590000D03*
%TD*%
D12*
%TO.C,D102*%
X215975686Y-139090000D03*
D10*
X218515686Y-139090000D03*
%TD*%
%TO.C,R135*%
X135215686Y-116050000D03*
X135215686Y-118590000D03*
%TD*%
D15*
%TO.C,D293*%
X45000000Y-57978628D03*
D10*
X45000000Y-55438628D03*
%TD*%
D12*
%TO.C,D178*%
X112574314Y-71040000D03*
D10*
X115114314Y-71040000D03*
%TD*%
D12*
%TO.C,D89*%
X80965686Y-140090000D03*
D10*
X83505686Y-140090000D03*
%TD*%
%TO.C,R142*%
X118965686Y-116550000D03*
X118965686Y-119090000D03*
%TD*%
D12*
%TO.C,D26*%
X215550000Y-82700000D03*
D10*
X218090000Y-82700000D03*
%TD*%
D12*
%TO.C,D234*%
X103801372Y-196790968D03*
D10*
X106341372Y-196790968D03*
%TD*%
D12*
%TO.C,D15*%
X104885686Y-83205000D03*
D10*
X107425686Y-83205000D03*
%TD*%
D16*
%TO.C,Q72*%
X41500000Y-37925686D03*
D17*
X42770000Y-37925686D03*
X44040000Y-37925686D03*
%TD*%
D12*
%TO.C,D12*%
X68385686Y-84040000D03*
D10*
X70925686Y-84040000D03*
%TD*%
%TO.C,R89*%
X212265686Y-132045000D03*
X212265686Y-134585000D03*
%TD*%
D13*
%TO.C,Q52*%
X100265686Y-127390000D03*
D14*
X100265686Y-128660000D03*
X100265686Y-129930000D03*
%TD*%
D10*
%TO.C,R5*%
X100250000Y-76660000D03*
X100250000Y-79200000D03*
%TD*%
%TO.C,R184*%
X210265686Y-185135968D03*
X210265686Y-187675968D03*
%TD*%
D12*
%TO.C,D103*%
X63101372Y-144590000D03*
D10*
X65641372Y-144590000D03*
%TD*%
D12*
%TO.C,D77*%
X197685686Y-95950000D03*
D10*
X200225686Y-95950000D03*
%TD*%
D12*
%TO.C,D58*%
X154460000Y-91950000D03*
D10*
X157000000Y-91950000D03*
%TD*%
D12*
%TO.C,D148*%
X172790000Y-152090000D03*
D10*
X175330000Y-152090000D03*
%TD*%
D13*
%TO.C,Q17*%
X161324314Y-92910000D03*
D14*
X161324314Y-94180000D03*
X161324314Y-95450000D03*
%TD*%
D12*
%TO.C,D70*%
X208935686Y-95950000D03*
D10*
X211475686Y-95950000D03*
%TD*%
D12*
%TO.C,D238*%
X147101372Y-196550968D03*
D10*
X149641372Y-196550968D03*
%TD*%
D12*
%TO.C,D35*%
X129385686Y-87705000D03*
D10*
X131925686Y-87705000D03*
%TD*%
D12*
%TO.C,D278*%
X198851372Y-175840968D03*
D10*
X201391372Y-175840968D03*
%TD*%
D12*
%TO.C,D169*%
X176458629Y-66562580D03*
D10*
X178998629Y-66562580D03*
%TD*%
%TO.C,R168*%
X186465686Y-185550968D03*
X186465686Y-188090968D03*
%TD*%
D12*
%TO.C,D56*%
X111210000Y-92205000D03*
D10*
X113750000Y-92205000D03*
%TD*%
%TO.C,R180*%
X165465686Y-185510968D03*
X165465686Y-188050968D03*
%TD*%
D11*
%TO.C,D301*%
X208505686Y-180340968D03*
D10*
X205965686Y-180340968D03*
%TD*%
D12*
%TO.C,D243*%
X196901372Y-196180968D03*
D10*
X199441372Y-196180968D03*
%TD*%
%TO.C,R216*%
X160891372Y-169090968D03*
X160891372Y-171630968D03*
%TD*%
%TO.C,R147*%
X100324314Y-60040000D03*
X100324314Y-62580000D03*
%TD*%
%TO.C,R114*%
X67250000Y-60500000D03*
X67250000Y-63040000D03*
%TD*%
D13*
%TO.C,Q69*%
X178965686Y-202050968D03*
D14*
X178965686Y-203320968D03*
X178965686Y-204590968D03*
%TD*%
D10*
%TO.C,R34*%
X74250000Y-102290000D03*
X74250000Y-99750000D03*
%TD*%
%TO.C,R125*%
X114215686Y-116545000D03*
X114215686Y-119085000D03*
%TD*%
D12*
%TO.C,D184*%
X195635686Y-70545000D03*
D10*
X198175686Y-70545000D03*
%TD*%
%TO.C,R4*%
X91000000Y-77250000D03*
X91000000Y-79790000D03*
%TD*%
D18*
%TO.C,D296*%
X63500000Y-186034315D03*
D10*
X63500000Y-188574315D03*
%TD*%
%TO.C,R29*%
X170574314Y-76450000D03*
X170574314Y-78990000D03*
%TD*%
D12*
%TO.C,D216*%
X184425686Y-200840968D03*
D10*
X186965686Y-200840968D03*
%TD*%
%TO.C,R111*%
X171330000Y-157385000D03*
X171330000Y-154845000D03*
%TD*%
D12*
%TO.C,D285*%
X147601372Y-180340968D03*
D10*
X150141372Y-180340968D03*
%TD*%
%TO.C,R145*%
X58000000Y-60500000D03*
X58000000Y-63040000D03*
%TD*%
%TO.C,R69*%
X217015686Y-132045000D03*
X217015686Y-134585000D03*
%TD*%
D13*
%TO.C,Q10*%
X99750000Y-84665000D03*
D14*
X99750000Y-85935000D03*
X99750000Y-87205000D03*
%TD*%
D12*
%TO.C,D104*%
X69351372Y-144590000D03*
D10*
X71891372Y-144590000D03*
%TD*%
D12*
%TO.C,D31*%
X86500000Y-88290000D03*
D10*
X89040000Y-88290000D03*
%TD*%
%TO.C,R210*%
X33955000Y-40175686D03*
X36495000Y-40175686D03*
%TD*%
D12*
%TO.C,D73*%
X111135686Y-96705000D03*
D10*
X113675686Y-96705000D03*
%TD*%
D12*
%TO.C,D4*%
X142034314Y-92086290D03*
D10*
X144574314Y-92086290D03*
%TD*%
%TO.C,R121*%
X197500000Y-59505000D03*
X197500000Y-62045000D03*
%TD*%
%TO.C,R131*%
X137500000Y-59540000D03*
X137500000Y-62080000D03*
%TD*%
D13*
%TO.C,Q75*%
X92765686Y-174640968D03*
D14*
X92765686Y-175910968D03*
X92765686Y-177180968D03*
%TD*%
D12*
%TO.C,D232*%
X215765686Y-191680968D03*
D10*
X218305686Y-191680968D03*
%TD*%
%TO.C,R63*%
X132925686Y-133045000D03*
X132925686Y-135585000D03*
%TD*%
D13*
%TO.C,Q51*%
X100265686Y-121890000D03*
D14*
X100265686Y-123160000D03*
X100265686Y-124430000D03*
%TD*%
D12*
%TO.C,D64*%
X80460000Y-97290000D03*
D10*
X83000000Y-97290000D03*
%TD*%
D13*
%TO.C,Q36*%
X136675686Y-149570000D03*
D14*
X136675686Y-150840000D03*
X136675686Y-152110000D03*
%TD*%
D10*
%TO.C,R152*%
X188000000Y-59500000D03*
X188000000Y-62040000D03*
%TD*%
D12*
%TO.C,D157*%
X189210000Y-66045000D03*
D10*
X191750000Y-66045000D03*
%TD*%
%TO.C,R112*%
X199515686Y-158135000D03*
X199515686Y-155595000D03*
%TD*%
D12*
%TO.C,D25*%
X209300000Y-82700000D03*
D10*
X211840000Y-82700000D03*
%TD*%
D18*
%TO.C,D306*%
X50000000Y-185960001D03*
D10*
X50000000Y-188500001D03*
%TD*%
%TO.C,R83*%
X153830000Y-132545000D03*
X153830000Y-135085000D03*
%TD*%
D13*
%TO.C,Q21*%
X76215686Y-141090000D03*
D14*
X76215686Y-142360000D03*
X76215686Y-143630000D03*
%TD*%
D12*
%TO.C,D123*%
X148465686Y-147840000D03*
D10*
X151005686Y-147840000D03*
%TD*%
%TO.C,R88*%
X207515686Y-132045000D03*
X207515686Y-134585000D03*
%TD*%
D13*
%TO.C,Q13*%
X75300000Y-93840000D03*
D14*
X75300000Y-95110000D03*
X75300000Y-96380000D03*
%TD*%
D13*
%TO.C,Q45*%
X142550000Y-70595000D03*
D14*
X142550000Y-71865000D03*
X142550000Y-73135000D03*
%TD*%
D10*
%TO.C,R162*%
X97215686Y-185545968D03*
X97215686Y-188085968D03*
%TD*%
D11*
%TO.C,D209*%
X79665686Y-127750000D03*
D10*
X77125686Y-127750000D03*
%TD*%
D12*
%TO.C,D227*%
X165601372Y-192050968D03*
D10*
X168141372Y-192050968D03*
%TD*%
%TO.C,R120*%
X192750000Y-59295000D03*
X192750000Y-61835000D03*
%TD*%
D13*
%TO.C,Q70*%
X204015686Y-201640968D03*
D14*
X204015686Y-202910968D03*
X204015686Y-204180968D03*
%TD*%
D12*
%TO.C,D114*%
X172965686Y-143590000D03*
D10*
X175505686Y-143590000D03*
%TD*%
%TO.C,R193*%
X120665686Y-210585968D03*
X120665686Y-208045968D03*
%TD*%
D11*
%TO.C,D211*%
X161694314Y-127340000D03*
D10*
X159154314Y-127340000D03*
%TD*%
%TO.C,R123*%
X71665686Y-116500000D03*
X71665686Y-119040000D03*
%TD*%
%TO.C,R130*%
X95574314Y-59995000D03*
X95574314Y-62535000D03*
%TD*%
D13*
%TO.C,Q33*%
X76215686Y-150090000D03*
D14*
X76215686Y-151360000D03*
X76215686Y-152630000D03*
%TD*%
D10*
%TO.C,R146*%
X62750000Y-60500000D03*
X62750000Y-63040000D03*
%TD*%
%TO.C,R231*%
X191641372Y-169090968D03*
X191641372Y-171630968D03*
%TD*%
D13*
%TO.C,Q54*%
X140130000Y-126890000D03*
D14*
X140130000Y-128160000D03*
X140130000Y-129430000D03*
%TD*%
D12*
%TO.C,D177*%
X106210000Y-71040000D03*
D10*
X108750000Y-71040000D03*
%TD*%
D13*
%TO.C,Q76*%
X92765686Y-180140968D03*
D14*
X92765686Y-181410968D03*
X92765686Y-182680968D03*
%TD*%
D10*
%TO.C,R185*%
X214765686Y-185135968D03*
X214765686Y-187675968D03*
%TD*%
D13*
%TO.C,Q18*%
X179574314Y-92910000D03*
D14*
X179574314Y-94180000D03*
X179574314Y-95450000D03*
%TD*%
D10*
%TO.C,R148*%
X104824314Y-60040000D03*
X104824314Y-62580000D03*
%TD*%
%TO.C,R187*%
X130165686Y-210585968D03*
X130165686Y-208045968D03*
%TD*%
D12*
%TO.C,D87*%
X63101372Y-140090000D03*
D10*
X65641372Y-140090000D03*
%TD*%
D12*
%TO.C,D266*%
X209515686Y-204930968D03*
D10*
X212055686Y-204930968D03*
%TD*%
M02*
