%TF.GenerationSoftware,KiCad,Pcbnew,9.0.2*%
%TF.CreationDate,2026-05-12T21:07:25-04:00*%
%TF.ProjectId,Santas Microfactory - Scoring and Health,53616e74-6173-4204-9d69-63726f666163,rev?*%
%TF.SameCoordinates,Original*%
%TF.FileFunction,Profile,NP*%
%FSLAX46Y46*%
G04 Gerber Fmt 4.6, Leading zero omitted, Abs format (unit mm)*
G04 Created by KiCad (PCBNEW 9.0.2) date 2026-05-12 21:07:25*
%MOMM*%
%LPD*%
G01*
G04 APERTURE LIST*
%TA.AperFunction,Profile*%
%ADD10C,0.050000*%
%TD*%
%TA.AperFunction,Profile*%
%ADD11C,0.200000*%
%TD*%
%TA.AperFunction,Profile*%
%ADD12C,0.100000*%
%TD*%
G04 APERTURE END LIST*
D10*
X129400000Y-26700000D02*
X226750000Y-26750000D01*
D11*
X28750000Y-215750000D02*
X28750000Y-28750000D01*
X228750000Y-28750000D02*
X228750000Y-215750000D01*
X226750000Y-26750000D02*
G75*
G02*
X228750000Y-28750000I0J-2000000D01*
G01*
X228750000Y-215750000D02*
G75*
G02*
X226750000Y-217750000I-2000000J0D01*
G01*
X30750000Y-217750000D02*
G75*
G02*
X28750000Y-215750000I0J2000000D01*
G01*
X28750000Y-28750000D02*
G75*
G02*
X30750000Y-26750000I2000000J0D01*
G01*
X226750000Y-217750000D02*
X30750000Y-217750000D01*
D10*
X30750000Y-26750000D02*
X45100000Y-26700000D01*
D12*
%TO.C,J4*%
X45100000Y-18800000D02*
X45600000Y-18300000D01*
X45100000Y-26700000D02*
X45100000Y-18800000D01*
X115800000Y-18300000D02*
X45600000Y-18300000D01*
X116300000Y-18800000D02*
X115800000Y-18300000D01*
X116300000Y-25750000D02*
X116300000Y-18800000D01*
X118200000Y-18800000D02*
X118700000Y-18300000D01*
X118200000Y-25750000D02*
X118200000Y-18800000D01*
X128900000Y-18300000D02*
X118700000Y-18300000D01*
X129400000Y-18800000D02*
X128900000Y-18300000D01*
X129400000Y-26700000D02*
X129400000Y-18800000D01*
X118200000Y-25750000D02*
G75*
G02*
X116300000Y-25750000I-950000J0D01*
G01*
%TD*%
M02*
