M48
; DRILL file {KiCad 9.0.2} date 2026-05-12T21:07:22-0400
; FORMAT={-:-/ absolute / metric / decimal}
; #@! TF.CreationDate,2026-05-12T21:07:22-04:00
; #@! TF.GenerationSoftware,Kicad,Pcbnew,9.0.2
; #@! TF.FileFunction,Plated,1,2,PTH
FMAT,2
METRIC
; #@! TA.AperFunction,Plated,PTH,ViaDrill
T1C0.300
; #@! TA.AperFunction,Plated,PTH,ComponentDrill
T2C0.750
; #@! TA.AperFunction,Plated,PTH,ComponentDrill
T3C0.800
; #@! TA.AperFunction,Plated,PTH,ComponentDrill
T4C1.000
%
G90
G05
T1
X31.809Y-130.75
X41.5Y-132.0
X43.5Y-139.0
X46.0Y-138.25
X46.05Y-25.25
X46.75Y-204.0
X47.25Y-37.5
X47.75Y-201.0
X48.0Y-67.25
X49.25Y-117.75
X50.5Y-203.0
X57.301Y-56.45
X59.25Y-194.0
X60.5Y-94.75
X61.0Y-192.25
X66.0Y-200.25
X66.25Y-83.5
X74.75Y-193.0
X74.75Y-205.75
X75.25Y-195.25
X77.0Y-204.75
X82.5Y-183.0
X82.5Y-184.0
X83.25Y-183.0
X83.25Y-184.0
X83.25Y-192.75
X84.25Y-190.75
X91.697Y-30.803
X93.0Y-192.5
X94.77Y-25.27
X95.5Y-136.25
X95.538Y-84.962
X98.0Y-178.0
X99.5Y-184.25
X102.0Y-211.75
X102.75Y-210.75
X111.25Y-198.25
X115.413Y-25.163
X117.0Y-33.5
X118.5Y-198.0
X119.0Y-25.75
X119.25Y-19.1
X119.25Y-201.25
X120.25Y-31.75
X120.25Y-200.75
X120.75Y-24.5
X122.0Y-104.25
X127.0Y-25.0
X134.0Y-145.75
X135.25Y-164.0
X137.0Y-146.5
X137.75Y-186.742
X139.75Y-158.75
X144.5Y-183.25
X153.5Y-186.25
X159.0Y-200.55
X163.5Y-75.25
X177.5Y-164.5
X181.0Y-145.0
X181.25Y-159.0
X182.25Y-89.351
X183.0Y-99.0
X183.25Y-113.25
X183.75Y-145.0
X185.25Y-157.0
X185.25Y-159.25
X188.25Y-137.25
X224.0Y-134.15
X224.0Y-134.95
X224.0Y-135.75
X224.045Y-133.205
X224.25Y-164.25
T2
X41.5Y-37.926
X41.55Y-63.564
X42.77Y-37.926
X42.82Y-63.564
X44.04Y-37.926
X44.09Y-63.564
X50.5Y-37.926
X51.77Y-37.926
X53.04Y-37.926
X57.0Y-85.09
X57.0Y-86.36
X57.0Y-87.63
X57.716Y-141.3
X57.716Y-142.57
X57.716Y-143.84
X57.966Y-122.05
X57.966Y-123.32
X57.966Y-124.59
X57.966Y-127.55
X57.966Y-128.82
X57.966Y-130.09
X58.3Y-65.845
X58.3Y-67.115
X58.3Y-68.385
X58.3Y-71.345
X58.3Y-72.615
X58.3Y-73.885
X69.16Y-193.05
X70.43Y-193.05
X71.7Y-193.05
X75.25Y-85.04
X75.25Y-86.31
X75.25Y-87.58
X75.3Y-93.84
X75.3Y-95.11
X75.3Y-96.38
X76.216Y-141.09
X76.216Y-142.36
X76.216Y-143.63
X76.216Y-150.09
X76.216Y-151.36
X76.216Y-152.63
X92.766Y-174.641
X92.766Y-175.911
X92.766Y-177.181
X92.766Y-180.141
X92.766Y-181.411
X92.766Y-182.681
X93.25Y-84.75
X93.25Y-86.02
X93.25Y-87.29
X93.25Y-93.79
X93.25Y-95.06
X93.25Y-96.33
X94.016Y-141.14
X94.016Y-142.41
X94.016Y-143.68
X94.216Y-150.09
X94.216Y-151.36
X94.216Y-152.63
X98.216Y-193.841
X98.216Y-195.111
X98.216Y-196.381
X99.75Y-84.665
X99.75Y-85.935
X99.75Y-87.205
X100.266Y-121.89
X100.266Y-123.16
X100.266Y-124.43
X100.266Y-127.39
X100.266Y-128.66
X100.266Y-129.93
X100.624Y-65.34
X100.624Y-66.61
X100.624Y-67.88
X100.624Y-70.84
X100.624Y-72.11
X100.624Y-73.38
X100.726Y-141.14
X100.726Y-142.41
X100.726Y-143.68
X116.916Y-193.291
X116.916Y-194.561
X116.916Y-195.831
X116.966Y-202.091
X116.966Y-203.361
X116.966Y-204.631
X117.8Y-93.505
X117.8Y-94.775
X117.8Y-96.045
X118.0Y-84.205
X118.0Y-85.475
X118.0Y-86.745
X118.476Y-140.89
X118.476Y-142.16
X118.476Y-143.43
X118.476Y-149.89
X118.476Y-151.16
X118.476Y-152.43
X135.416Y-193.271
X135.416Y-194.541
X135.416Y-195.811
X135.416Y-202.291
X135.416Y-203.561
X135.416Y-204.831
X136.05Y-93.505
X136.05Y-94.775
X136.05Y-96.045
X136.25Y-84.255
X136.25Y-85.525
X136.25Y-86.795
X136.676Y-140.84
X136.676Y-142.11
X136.676Y-143.38
X136.676Y-149.57
X136.676Y-150.84
X136.676Y-152.11
X140.13Y-121.39
X140.13Y-122.66
X140.13Y-123.93
X140.13Y-126.89
X140.13Y-128.16
X140.13Y-129.43
X141.716Y-193.261
X141.716Y-194.531
X141.716Y-195.801
X142.191Y-174.391
X142.191Y-175.661
X142.191Y-176.931
X142.191Y-179.891
X142.191Y-181.161
X142.191Y-182.431
X142.5Y-65.025
X142.5Y-66.295
X142.5Y-67.565
X142.55Y-70.595
X142.55Y-71.865
X142.55Y-73.135
X142.624Y-84.25
X142.624Y-85.52
X142.624Y-86.79
X142.83Y-140.82
X142.83Y-142.09
X142.83Y-143.36
X160.216Y-193.051
X160.216Y-194.321
X160.216Y-195.591
X160.216Y-202.051
X160.216Y-203.321
X160.216Y-204.591
X161.324Y-84.0
X161.324Y-85.27
X161.324Y-86.54
X161.324Y-92.91
X161.324Y-94.18
X161.324Y-95.45
X161.58Y-139.84
X161.58Y-141.11
X161.58Y-142.38
X161.58Y-149.09
X161.58Y-150.36
X161.58Y-151.63
X178.766Y-193.101
X178.766Y-194.371
X178.766Y-195.641
X178.966Y-202.051
X178.966Y-203.321
X178.966Y-204.591
X179.574Y-83.93
X179.574Y-85.2
X179.574Y-86.47
X179.574Y-92.91
X179.574Y-94.18
X179.574Y-95.45
X179.83Y-140.09
X179.83Y-141.36
X179.83Y-142.63
X179.83Y-148.84
X179.83Y-150.11
X179.83Y-151.38
X183.55Y-64.845
X183.55Y-66.115
X183.55Y-67.385
X183.55Y-70.345
X183.55Y-71.615
X183.55Y-72.885
X184.266Y-120.645
X184.266Y-121.915
X184.266Y-123.185
X184.266Y-126.145
X184.266Y-127.415
X184.266Y-128.685
X185.316Y-192.981
X185.316Y-194.251
X185.316Y-195.521
X186.016Y-140.09
X186.016Y-141.36
X186.016Y-142.63
X186.05Y-83.95
X186.05Y-85.22
X186.05Y-86.49
X186.941Y-174.391
X186.941Y-175.661
X186.941Y-176.931
X186.941Y-179.891
X186.941Y-181.161
X186.941Y-182.431
X204.016Y-201.641
X204.016Y-202.911
X204.016Y-204.181
X204.066Y-192.661
X204.066Y-193.931
X204.066Y-195.201
X204.516Y-140.09
X204.516Y-141.36
X204.516Y-142.63
X204.55Y-83.7
X204.55Y-84.97
X204.55Y-86.24
X204.55Y-92.5
X204.55Y-93.77
X204.55Y-95.04
X204.566Y-149.14
X204.566Y-150.41
X204.566Y-151.68
X222.35Y-92.25
X222.35Y-93.52
X222.35Y-94.79
X222.55Y-83.7
X222.55Y-84.97
X222.55Y-86.24
X222.766Y-140.09
X222.766Y-141.36
X222.766Y-142.63
X222.766Y-149.05
X222.766Y-150.32
X222.766Y-151.59
X222.766Y-192.681
X222.766Y-193.951
X222.766Y-195.221
X222.766Y-201.391
X222.766Y-202.661
X222.766Y-203.931
T3
X33.705Y-64.114
X33.71Y-68.864
X33.955Y-40.176
X33.96Y-30.676
X34.0Y-35.426
X34.0Y-44.676
X34.0Y-54.75
X34.0Y-59.5
X36.245Y-64.114
X36.25Y-68.864
X36.495Y-40.176
X36.5Y-30.676
X36.54Y-35.426
X36.54Y-44.676
X36.54Y-54.75
X36.54Y-59.5
X40.25Y-67.0
X40.25Y-69.54
X40.5Y-42.5
X40.5Y-45.04
X40.5Y-48.939
X40.5Y-51.479
X40.5Y-55.364
X40.5Y-57.904
X45.0Y-42.5
X45.0Y-45.04
X45.0Y-49.114
X45.0Y-51.654
X45.0Y-55.439
X45.0Y-57.979
X45.0Y-67.0
X45.0Y-69.54
X45.409Y-185.96
X45.409Y-188.5
X49.5Y-42.5
X49.5Y-45.04
X49.676Y-82.79
X49.75Y-65.54
X49.75Y-69.79
X49.79Y-74.29
X49.79Y-78.54
X49.79Y-87.04
X50.0Y-185.96
X50.0Y-188.5
X50.851Y-128.34
X50.926Y-123.84
X52.216Y-82.79
X52.29Y-65.54
X52.29Y-69.79
X52.33Y-74.29
X52.33Y-78.54
X52.33Y-87.04
X52.966Y-116.75
X52.966Y-119.29
X53.391Y-128.34
X53.466Y-123.84
X53.5Y-60.5
X53.5Y-63.04
X54.0Y-42.426
X54.0Y-44.966
X54.619Y-191.75
X54.659Y-185.886
X54.659Y-188.426
X55.96Y-92.926
X56.136Y-97.29
X56.926Y-149.09
X56.926Y-153.59
X57.159Y-191.75
X57.466Y-133.295
X57.466Y-135.835
X57.666Y-116.75
X57.666Y-119.29
X58.0Y-60.5
X58.0Y-63.04
X58.0Y-77.25
X58.0Y-79.79
X58.5Y-92.926
X58.676Y-97.29
X59.0Y-186.034
X59.0Y-188.574
X59.466Y-149.09
X59.466Y-153.59
X62.136Y-84.04
X62.136Y-88.29
X62.166Y-116.71
X62.166Y-119.25
X62.216Y-133.3
X62.216Y-135.84
X62.25Y-92.79
X62.25Y-97.29
X62.75Y-60.5
X62.75Y-63.04
X62.75Y-77.29
X62.75Y-79.83
X63.101Y-140.09
X63.101Y-144.59
X63.101Y-149.09
X63.101Y-153.59
X63.5Y-186.034
X63.5Y-188.574
X63.505Y-192.074
X63.626Y-127.75
X63.666Y-123.25
X63.886Y-67.045
X63.886Y-71.545
X64.676Y-84.04
X64.676Y-88.29
X64.79Y-92.79
X64.79Y-97.29
X65.0Y-99.795
X65.0Y-102.335
X65.466Y-156.095
X65.466Y-158.635
X65.641Y-140.09
X65.641Y-144.59
X65.641Y-149.09
X65.641Y-153.59
X66.045Y-192.074
X66.166Y-127.75
X66.206Y-123.25
X66.426Y-67.045
X66.426Y-71.545
X66.916Y-116.71
X66.916Y-119.25
X66.966Y-133.295
X66.966Y-135.835
X67.25Y-60.5
X67.25Y-63.04
X67.5Y-77.33
X67.5Y-79.87
X68.25Y-186.21
X68.25Y-188.75
X68.25Y-198.46
X68.25Y-201.0
X68.386Y-84.04
X68.386Y-88.29
X68.386Y-92.79
X68.46Y-97.29
X69.351Y-140.09
X69.351Y-144.59
X69.426Y-149.09
X69.466Y-153.59
X69.574Y-99.79
X69.574Y-102.33
X70.126Y-127.75
X70.136Y-67.045
X70.136Y-71.545
X70.166Y-123.25
X70.216Y-156.09
X70.216Y-158.63
X70.926Y-84.04
X70.926Y-88.29
X70.926Y-92.79
X71.0Y-97.29
X71.466Y-133.34
X71.466Y-135.88
X71.666Y-116.5
X71.666Y-119.04
X71.891Y-140.09
X71.891Y-144.59
X71.966Y-149.09
X72.0Y-60.505
X72.0Y-63.045
X72.006Y-153.59
X72.25Y-77.25
X72.25Y-79.79
X72.666Y-127.75
X72.676Y-67.045
X72.676Y-71.545
X72.706Y-123.25
X72.75Y-186.21
X72.75Y-188.75
X72.75Y-198.386
X72.75Y-200.926
X74.25Y-99.75
X74.25Y-102.29
X74.966Y-156.095
X74.966Y-158.635
X76.216Y-133.295
X76.216Y-135.835
X76.416Y-116.5
X76.416Y-119.04
X76.75Y-60.5
X76.75Y-63.04
X76.75Y-77.25
X76.75Y-79.79
X76.75Y-191.5
X76.755Y-196.25
X76.755Y-201.0
X77.126Y-127.75
X77.24Y-123.25
X77.324Y-67.045
X77.324Y-71.545
X79.0Y-100.0
X79.0Y-102.54
X79.29Y-191.5
X79.295Y-196.25
X79.295Y-201.0
X79.666Y-127.75
X79.716Y-156.09
X79.716Y-158.63
X79.78Y-123.25
X79.864Y-67.045
X79.864Y-71.545
X80.25Y-83.79
X80.386Y-88.29
X80.46Y-97.29
X80.5Y-92.79
X80.966Y-133.3
X80.966Y-135.84
X80.966Y-140.09
X81.101Y-144.59
X81.101Y-153.59
X81.216Y-149.09
X81.5Y-77.25
X81.5Y-79.79
X82.79Y-83.79
X82.926Y-88.29
X83.0Y-97.29
X83.04Y-92.79
X83.506Y-140.09
X83.641Y-144.59
X83.641Y-153.59
X83.75Y-100.045
X83.75Y-102.585
X83.756Y-149.09
X84.466Y-156.095
X84.466Y-158.635
X85.716Y-133.34
X85.716Y-135.88
X86.25Y-77.25
X86.25Y-79.79
X86.289Y-192.591
X86.426Y-188.091
X86.426Y-197.091
X86.426Y-201.591
X86.426Y-206.091
X86.426Y-210.591
X86.46Y-83.79
X86.5Y-88.29
X86.636Y-92.79
X86.71Y-97.29
X87.216Y-140.09
X87.351Y-144.59
X87.351Y-153.59
X87.426Y-149.09
X88.5Y-100.045
X88.5Y-102.585
X88.829Y-192.591
X88.966Y-188.091
X88.966Y-197.091
X88.966Y-201.591
X88.966Y-206.091
X88.966Y-210.591
X89.0Y-83.79
X89.04Y-88.29
X89.176Y-92.79
X89.216Y-156.09
X89.216Y-158.63
X89.25Y-97.29
X89.756Y-140.09
X89.891Y-144.59
X89.891Y-153.59
X89.966Y-149.09
X90.466Y-133.34
X90.466Y-135.88
X91.0Y-77.25
X91.0Y-79.79
X92.466Y-185.796
X92.466Y-188.336
X92.716Y-169.346
X92.716Y-171.886
X93.101Y-128.09
X93.138Y-123.226
X93.46Y-66.79
X93.46Y-71.54
X95.216Y-116.59
X95.216Y-119.13
X95.574Y-59.995
X95.574Y-62.535
X95.641Y-128.09
X95.678Y-123.226
X96.0Y-66.79
X96.0Y-71.54
X97.216Y-185.546
X97.216Y-188.086
X97.466Y-169.351
X97.466Y-171.891
X97.601Y-201.25
X97.601Y-205.841
X98.426Y-180.641
X98.466Y-176.141
X98.71Y-92.2
X98.71Y-96.7
X99.561Y-153.34
X99.636Y-148.749
X99.926Y-133.09
X99.926Y-135.63
X99.966Y-116.55
X99.966Y-119.09
X100.141Y-201.25
X100.141Y-205.841
X100.25Y-76.66
X100.25Y-79.2
X100.324Y-60.04
X100.324Y-62.58
X100.966Y-180.641
X101.006Y-176.141
X101.25Y-92.2
X101.25Y-96.7
X101.916Y-185.541
X101.916Y-188.081
X102.101Y-153.34
X102.176Y-148.749
X102.216Y-169.391
X102.216Y-171.931
X103.666Y-192.291
X103.801Y-196.791
X103.801Y-201.291
X103.876Y-205.791
X104.676Y-133.045
X104.676Y-135.585
X104.716Y-116.55
X104.716Y-119.09
X104.716Y-176.141
X104.716Y-180.641
X104.824Y-60.04
X104.824Y-62.58
X104.886Y-83.205
X104.886Y-87.705
X104.886Y-92.205
X104.886Y-96.705
X105.0Y-76.66
X105.0Y-79.2
X105.561Y-139.84
X105.561Y-144.34
X105.636Y-148.84
X105.636Y-153.34
X105.851Y-127.59
X105.966Y-123.09
X106.206Y-192.291
X106.21Y-66.54
X106.21Y-71.04
X106.341Y-196.791
X106.341Y-201.291
X106.416Y-205.791
X106.416Y-208.296
X106.416Y-210.836
X106.666Y-185.541
X106.666Y-188.081
X106.966Y-169.391
X106.966Y-171.931
X107.256Y-176.141
X107.256Y-180.641
X107.426Y-83.205
X107.426Y-87.705
X107.426Y-92.205
X107.426Y-96.705
X107.5Y-99.21
X107.5Y-101.75
X108.101Y-139.84
X108.101Y-144.34
X108.176Y-148.84
X108.176Y-153.34
X108.176Y-155.845
X108.176Y-158.385
X108.391Y-127.59
X108.506Y-123.09
X108.75Y-66.54
X108.75Y-71.04
X109.426Y-133.045
X109.426Y-135.585
X109.466Y-116.545
X109.466Y-119.085
X109.574Y-60.0
X109.574Y-62.54
X109.75Y-76.66
X109.75Y-79.2
X110.051Y-192.291
X110.051Y-196.791
X110.051Y-201.291
X110.166Y-205.791
X111.136Y-87.705
X111.136Y-96.705
X111.166Y-208.251
X111.166Y-210.791
X111.21Y-83.205
X111.21Y-92.205
X111.416Y-185.496
X111.416Y-188.036
X111.636Y-148.84
X111.676Y-139.84
X111.676Y-144.34
X111.676Y-153.34
X111.676Y-180.641
X111.716Y-169.351
X111.716Y-171.891
X111.716Y-176.141
X112.176Y-123.09
X112.176Y-127.59
X112.25Y-99.21
X112.25Y-101.75
X112.46Y-66.54
X112.574Y-71.04
X112.591Y-192.291
X112.591Y-196.791
X112.591Y-201.291
X112.706Y-205.791
X112.926Y-155.845
X112.926Y-158.385
X113.676Y-87.705
X113.676Y-96.705
X113.75Y-83.205
X113.75Y-92.205
X113.824Y-59.995
X113.824Y-62.535
X114.176Y-133.09
X114.176Y-135.63
X114.176Y-148.84
X114.216Y-116.545
X114.216Y-119.085
X114.216Y-139.84
X114.216Y-144.34
X114.216Y-153.34
X114.216Y-180.641
X114.256Y-176.141
X114.636Y-76.66
X114.636Y-79.2
X114.716Y-123.09
X114.716Y-127.59
X115.0Y-66.54
X115.114Y-71.04
X115.916Y-208.046
X115.916Y-210.586
X116.166Y-185.541
X116.166Y-188.081
X117.0Y-99.205
X117.0Y-101.745
X117.676Y-155.8
X117.676Y-158.34
X118.574Y-59.995
X118.574Y-62.535
X118.676Y-133.05
X118.676Y-135.59
X118.966Y-116.55
X118.966Y-119.09
X119.216Y-127.59
X119.25Y-76.705
X119.25Y-79.245
X119.29Y-123.09
X119.399Y-66.54
X119.574Y-71.04
X120.666Y-208.046
X120.666Y-210.586
X120.916Y-185.496
X120.916Y-188.036
X121.75Y-99.21
X121.75Y-101.75
X121.756Y-127.59
X121.83Y-123.09
X121.939Y-66.54
X122.114Y-71.04
X122.301Y-192.291
X122.301Y-196.791
X122.301Y-201.291
X122.301Y-205.541
X122.426Y-155.59
X122.426Y-158.13
X122.96Y-83.205
X123.136Y-87.705
X123.21Y-92.205
X123.21Y-96.705
X123.426Y-133.045
X123.426Y-135.585
X123.561Y-139.84
X123.561Y-144.34
X123.561Y-148.59
X123.561Y-153.09
X124.0Y-76.665
X124.0Y-79.205
X124.841Y-192.291
X124.841Y-196.791
X124.841Y-201.291
X124.841Y-205.541
X125.416Y-208.046
X125.416Y-210.586
X125.5Y-83.205
X125.666Y-185.541
X125.666Y-188.081
X125.676Y-87.705
X125.75Y-92.205
X125.75Y-96.705
X126.101Y-139.84
X126.101Y-144.34
X126.101Y-148.59
X126.101Y-153.09
X126.5Y-99.21
X126.5Y-101.75
X127.176Y-155.55
X127.176Y-158.09
X128.176Y-133.045
X128.176Y-135.585
X128.551Y-196.791
X128.551Y-201.291
X128.626Y-192.291
X128.626Y-205.541
X128.75Y-76.66
X128.75Y-79.2
X129.25Y-83.205
X129.386Y-87.705
X129.386Y-92.205
X129.386Y-96.705
X129.811Y-153.09
X129.886Y-139.84
X129.886Y-148.59
X129.926Y-144.34
X130.166Y-208.046
X130.166Y-210.586
X130.416Y-185.496
X130.416Y-188.036
X131.091Y-196.791
X131.091Y-201.291
X131.166Y-192.291
X131.166Y-205.541
X131.25Y-99.255
X131.25Y-101.795
X131.79Y-83.205
X131.926Y-87.705
X131.926Y-92.205
X131.926Y-96.705
X131.926Y-155.59
X131.926Y-158.13
X132.351Y-153.09
X132.426Y-139.84
X132.426Y-148.59
X132.466Y-144.34
X132.926Y-133.045
X132.926Y-135.585
X133.069Y-127.177
X133.176Y-122.59
X133.5Y-76.66
X133.5Y-79.2
X135.101Y-175.663
X135.101Y-180.091
X135.216Y-116.05
X135.216Y-118.59
X135.386Y-66.54
X135.386Y-71.29
X135.609Y-127.177
X135.716Y-122.59
X137.216Y-169.091
X137.216Y-171.631
X137.5Y-59.54
X137.5Y-62.08
X137.641Y-175.663
X137.641Y-180.091
X137.926Y-66.54
X137.926Y-71.29
X139.716Y-132.59
X139.716Y-135.13
X139.83Y-116.09
X139.83Y-118.63
X140.926Y-201.091
X140.966Y-205.591
X141.716Y-185.546
X141.716Y-188.086
X141.891Y-169.136
X141.891Y-171.676
X141.96Y-96.7
X142.034Y-92.086
X142.074Y-76.405
X142.074Y-78.945
X142.176Y-147.84
X142.176Y-152.34
X142.25Y-59.75
X142.25Y-62.29
X143.466Y-201.091
X143.506Y-205.591
X144.33Y-116.045
X144.33Y-118.585
X144.33Y-132.55
X144.33Y-135.09
X144.5Y-96.7
X144.574Y-92.086
X144.716Y-147.84
X144.716Y-152.34
X145.716Y-122.84
X145.79Y-127.34
X146.466Y-185.511
X146.466Y-188.051
X146.641Y-169.091
X146.641Y-171.631
X146.824Y-76.45
X146.824Y-78.99
X147.0Y-59.75
X147.0Y-62.29
X147.101Y-196.551
X147.101Y-201.051
X147.141Y-192.051
X147.216Y-205.341
X147.601Y-180.341
X147.641Y-175.841
X147.886Y-72.295
X148.074Y-87.45
X148.21Y-82.95
X148.21Y-91.95
X148.21Y-96.7
X148.25Y-66.545
X148.256Y-122.84
X148.29Y-152.34
X148.33Y-127.34
X148.466Y-139.09
X148.466Y-143.34
X148.466Y-147.84
X149.08Y-116.05
X149.08Y-118.59
X149.08Y-132.545
X149.08Y-135.085
X149.216Y-207.641
X149.216Y-210.181
X149.641Y-196.551
X149.641Y-201.051
X149.681Y-192.051
X149.756Y-205.341
X150.141Y-180.341
X150.181Y-175.841
X150.426Y-72.295
X150.614Y-87.45
X150.75Y-82.95
X150.75Y-91.95
X150.75Y-96.7
X150.79Y-66.545
X150.824Y-99.16
X150.824Y-101.7
X150.83Y-152.34
X150.83Y-154.845
X150.83Y-157.385
X151.006Y-139.09
X151.006Y-143.34
X151.006Y-147.84
X151.216Y-185.506
X151.216Y-188.046
X151.391Y-169.046
X151.391Y-171.586
X151.5Y-59.795
X151.5Y-62.335
X151.574Y-76.41
X151.574Y-78.95
X151.966Y-122.84
X152.04Y-127.34
X153.351Y-205.551
X153.426Y-201.051
X153.466Y-192.051
X153.466Y-196.551
X153.83Y-116.09
X153.83Y-118.63
X153.83Y-132.545
X153.83Y-135.085
X153.851Y-180.341
X153.891Y-175.841
X153.966Y-207.846
X153.966Y-210.386
X154.324Y-96.7
X154.46Y-82.95
X154.46Y-87.45
X154.46Y-91.95
X154.466Y-152.34
X154.5Y-66.545
X154.5Y-72.295
X154.506Y-122.84
X154.58Y-127.34
X154.716Y-139.09
X154.716Y-143.34
X154.716Y-147.84
X155.574Y-99.205
X155.574Y-101.745
X155.891Y-205.551
X155.966Y-185.506
X155.966Y-188.046
X155.966Y-201.051
X156.006Y-192.051
X156.006Y-196.551
X156.141Y-169.091
X156.141Y-171.631
X156.25Y-59.795
X156.25Y-62.335
X156.324Y-76.45
X156.324Y-78.99
X156.391Y-180.341
X156.431Y-175.841
X156.864Y-96.7
X157.0Y-82.95
X157.0Y-87.45
X157.0Y-91.95
X157.006Y-152.34
X157.04Y-66.545
X157.04Y-72.295
X157.08Y-154.845
X157.08Y-157.385
X157.256Y-139.09
X157.256Y-143.34
X157.256Y-147.84
X158.58Y-116.045
X158.58Y-118.585
X158.58Y-132.545
X158.58Y-135.085
X158.716Y-207.891
X158.716Y-210.431
X159.04Y-122.84
X159.154Y-127.34
X160.324Y-99.2
X160.324Y-101.74
X160.716Y-185.506
X160.716Y-188.046
X160.851Y-175.841
X160.851Y-180.341
X160.891Y-169.091
X160.891Y-171.631
X161.0Y-59.505
X161.0Y-62.045
X161.074Y-76.41
X161.074Y-78.95
X161.5Y-72.295
X161.574Y-66.545
X161.58Y-122.84
X161.694Y-127.34
X161.83Y-154.84
X161.83Y-157.38
X163.33Y-132.545
X163.33Y-135.085
X163.391Y-175.841
X163.391Y-180.341
X163.466Y-207.846
X163.466Y-210.386
X164.04Y-72.295
X164.114Y-66.545
X165.074Y-99.205
X165.074Y-101.745
X165.466Y-185.511
X165.466Y-188.051
X165.601Y-192.051
X165.601Y-196.551
X165.716Y-201.051
X165.716Y-205.551
X165.824Y-76.41
X165.824Y-78.95
X166.21Y-96.2
X166.284Y-91.7
X166.324Y-82.95
X166.324Y-87.45
X166.58Y-154.845
X166.58Y-157.385
X166.716Y-139.09
X166.716Y-147.84
X166.716Y-152.09
X166.79Y-143.34
X168.08Y-132.545
X168.08Y-135.085
X168.141Y-192.051
X168.141Y-196.551
X168.256Y-201.051
X168.256Y-205.551
X168.466Y-207.846
X168.466Y-210.386
X168.75Y-96.2
X168.824Y-91.7
X168.864Y-82.95
X168.864Y-87.45
X169.256Y-139.09
X169.256Y-147.84
X169.256Y-152.09
X169.33Y-143.34
X169.824Y-99.2
X169.824Y-101.74
X170.216Y-185.551
X170.216Y-188.091
X170.574Y-76.45
X170.574Y-78.99
X171.33Y-154.845
X171.33Y-157.385
X171.851Y-192.051
X171.851Y-196.551
X171.966Y-201.051
X171.966Y-205.551
X172.46Y-91.7
X172.46Y-96.2
X172.534Y-87.45
X172.71Y-82.95
X172.79Y-147.84
X172.79Y-152.09
X172.83Y-132.545
X172.83Y-135.085
X172.966Y-139.09
X172.966Y-143.59
X173.216Y-207.846
X173.216Y-210.386
X174.391Y-192.051
X174.391Y-196.551
X174.506Y-201.051
X174.506Y-205.551
X174.574Y-99.16
X174.574Y-101.7
X174.966Y-185.511
X174.966Y-188.051
X175.0Y-91.7
X175.0Y-96.2
X175.074Y-87.45
X175.25Y-82.95
X175.324Y-76.405
X175.324Y-78.945
X175.33Y-147.84
X175.33Y-152.09
X175.506Y-139.09
X175.506Y-143.59
X176.08Y-154.845
X176.08Y-157.385
X176.459Y-66.563
X176.46Y-71.29
X176.862Y-122.03
X176.966Y-126.59
X178.5Y-59.54
X178.5Y-62.08
X178.999Y-66.563
X179.0Y-71.29
X179.216Y-115.3
X179.216Y-117.84
X179.402Y-122.03
X179.506Y-126.59
X180.216Y-175.591
X180.216Y-180.091
X182.216Y-169.091
X182.216Y-171.631
X182.756Y-175.591
X182.756Y-180.091
X183.25Y-59.5
X183.25Y-62.04
X183.3Y-76.0
X183.3Y-78.54
X183.966Y-115.3
X183.966Y-117.84
X183.966Y-132.05
X183.966Y-134.59
X184.426Y-200.841
X184.426Y-205.091
X185.101Y-148.09
X185.101Y-152.59
X185.26Y-91.336
X185.26Y-95.95
X186.466Y-185.551
X186.466Y-188.091
X186.891Y-169.091
X186.891Y-171.631
X186.966Y-200.841
X186.966Y-205.091
X187.641Y-148.09
X187.641Y-152.59
X187.8Y-91.336
X187.8Y-95.95
X188.0Y-59.5
X188.0Y-62.04
X188.05Y-75.91
X188.05Y-78.45
X188.516Y-132.09
X188.516Y-134.63
X188.716Y-115.3
X188.716Y-117.84
X189.21Y-66.045
X189.25Y-70.545
X189.601Y-126.345
X189.716Y-121.845
X190.726Y-191.681
X190.726Y-200.681
X190.766Y-196.181
X190.766Y-205.181
X191.266Y-143.59
X191.266Y-148.09
X191.266Y-152.59
X191.266Y-185.386
X191.266Y-187.926
X191.361Y-87.2
X191.401Y-139.09
X191.436Y-82.7
X191.436Y-91.45
X191.436Y-95.95
X191.641Y-169.091
X191.641Y-171.631
X191.75Y-66.045
X191.79Y-70.545
X192.141Y-126.345
X192.256Y-121.845
X192.641Y-175.841
X192.641Y-180.341
X192.75Y-59.295
X192.75Y-61.835
X192.8Y-75.91
X192.8Y-78.45
X193.266Y-132.045
X193.266Y-134.585
X193.266Y-191.681
X193.266Y-200.681
X193.306Y-196.181
X193.306Y-205.181
X193.466Y-115.345
X193.466Y-117.885
X193.766Y-207.891
X193.766Y-210.431
X193.806Y-143.59
X193.806Y-148.09
X193.806Y-152.59
X193.901Y-87.2
X193.941Y-139.09
X193.976Y-82.7
X193.976Y-91.45
X193.976Y-95.95
X194.05Y-98.41
X194.05Y-100.95
X194.766Y-155.595
X194.766Y-158.135
X195.181Y-175.841
X195.181Y-180.341
X195.5Y-66.045
X195.636Y-70.545
X196.016Y-185.136
X196.016Y-187.676
X196.101Y-121.845
X196.101Y-126.345
X196.391Y-169.051
X196.391Y-171.591
X196.901Y-196.181
X196.901Y-205.181
X196.976Y-200.681
X197.016Y-191.681
X197.5Y-59.505
X197.5Y-62.045
X197.55Y-75.905
X197.55Y-78.445
X197.651Y-143.59
X197.651Y-148.09
X197.651Y-152.59
X197.686Y-82.7
X197.686Y-87.2
X197.686Y-91.45
X197.686Y-95.95
X197.726Y-139.09
X198.016Y-132.045
X198.016Y-134.585
X198.04Y-66.045
X198.176Y-70.545
X198.216Y-115.345
X198.216Y-117.885
X198.516Y-207.891
X198.516Y-210.431
X198.641Y-121.845
X198.641Y-126.345
X198.777Y-180.341
X198.8Y-98.455
X198.8Y-100.995
X198.851Y-175.841
X199.441Y-196.181
X199.441Y-205.181
X199.516Y-155.595
X199.516Y-158.135
X199.516Y-200.681
X199.556Y-191.681
X200.191Y-143.59
X200.191Y-148.09
X200.191Y-152.59
X200.226Y-82.7
X200.226Y-87.2
X200.226Y-91.45
X200.226Y-95.95
X200.266Y-139.09
X200.766Y-185.181
X200.766Y-187.721
X201.141Y-169.046
X201.141Y-171.586
X201.317Y-180.341
X201.391Y-175.841
X202.25Y-59.505
X202.25Y-62.045
X202.3Y-76.0
X202.3Y-78.54
X202.75Y-66.045
X202.766Y-132.045
X202.766Y-134.585
X202.824Y-70.545
X202.966Y-115.345
X202.966Y-117.885
X203.176Y-121.845
X203.266Y-207.931
X203.266Y-210.471
X203.29Y-126.345
X203.55Y-98.455
X203.55Y-100.995
X204.016Y-155.595
X204.016Y-158.135
X205.29Y-66.045
X205.364Y-70.545
X205.516Y-185.181
X205.516Y-187.721
X205.716Y-121.845
X205.83Y-126.345
X205.891Y-169.296
X205.891Y-171.836
X205.966Y-175.841
X205.966Y-180.341
X207.05Y-76.0
X207.05Y-78.54
X207.516Y-132.045
X207.516Y-134.585
X208.016Y-207.936
X208.016Y-210.476
X208.3Y-98.41
X208.3Y-100.95
X208.506Y-175.841
X208.506Y-180.341
X208.766Y-155.55
X208.766Y-158.09
X208.936Y-95.95
X209.01Y-87.2
X209.01Y-91.45
X209.3Y-82.7
X209.401Y-152.59
X209.476Y-148.09
X209.476Y-200.431
X209.516Y-191.681
X209.516Y-204.931
X209.651Y-143.59
X209.651Y-196.181
X209.726Y-139.09
X210.266Y-185.136
X210.266Y-187.676
X211.476Y-95.95
X211.55Y-87.2
X211.55Y-91.45
X211.75Y-76.0
X211.75Y-78.54
X211.84Y-82.7
X211.941Y-152.59
X212.016Y-148.09
X212.016Y-200.431
X212.056Y-191.681
X212.056Y-204.931
X212.191Y-143.59
X212.191Y-196.181
X212.266Y-132.045
X212.266Y-134.585
X212.266Y-139.09
X212.766Y-207.891
X212.766Y-210.431
X213.05Y-98.41
X213.05Y-100.95
X213.266Y-155.595
X213.266Y-158.135
X214.766Y-185.136
X214.766Y-187.676
X215.436Y-95.7
X215.51Y-91.2
X215.55Y-82.7
X215.55Y-87.2
X215.651Y-200.431
X215.766Y-191.681
X215.766Y-196.181
X215.766Y-204.931
X215.901Y-148.09
X215.901Y-152.59
X215.976Y-139.09
X215.976Y-143.59
X216.55Y-75.995
X216.55Y-78.535
X217.016Y-132.045
X217.016Y-134.585
X217.516Y-207.891
X217.516Y-210.431
X217.8Y-98.455
X217.8Y-100.995
X217.976Y-95.7
X218.016Y-155.55
X218.016Y-158.09
X218.05Y-91.2
X218.09Y-82.7
X218.09Y-87.2
X218.191Y-200.431
X218.306Y-191.681
X218.306Y-196.181
X218.306Y-204.931
X218.441Y-148.09
X218.441Y-152.59
X218.516Y-139.09
X218.516Y-143.59
X219.516Y-185.141
X219.516Y-187.681
T4
X41.55Y-206.75
X44.09Y-206.75
X46.63Y-206.75
X49.17Y-206.75
X51.71Y-206.75
X54.25Y-206.75
X56.79Y-206.75
X59.33Y-206.75
X62.972Y-206.736
X65.512Y-206.736
X68.052Y-206.736
X70.592Y-206.736
M30
