%TF.GenerationSoftware,KiCad,Pcbnew,9.0.2*%
%TF.CreationDate,2026-05-12T23:12:21-04:00*%
%TF.ProjectId,Santas Microfactory - Input and Output,53616e74-6173-4204-9d69-63726f666163,rev?*%
%TF.SameCoordinates,Original*%
%TF.FileFunction,Soldermask,Top*%
%TF.FilePolarity,Negative*%
%FSLAX46Y46*%
G04 Gerber Fmt 4.6, Leading zero omitted, Abs format (unit mm)*
G04 Created by KiCad (PCBNEW 9.0.2) date 2026-05-12 23:12:21*
%MOMM*%
%LPD*%
G01*
G04 APERTURE LIST*
%ADD10R,1.800000X1.800000*%
%ADD11C,1.800000*%
%ADD12C,1.600000*%
%ADD13C,0.800000*%
%ADD14C,6.400000*%
%ADD15R,3.000000X1.800000*%
%ADD16O,3.000000X1.800000*%
%ADD17R,1.700000X1.700000*%
%ADD18C,1.700000*%
G04 APERTURE END LIST*
D10*
%TO.C,D61*%
X211535000Y-69450000D03*
D11*
X211535000Y-66910000D03*
%TD*%
D12*
%TO.C,R77*%
X226500000Y-125420000D03*
X226500000Y-135580000D03*
%TD*%
D13*
%TO.C,H3*%
X51100000Y-146500000D03*
X51802944Y-144802944D03*
X51802944Y-148197056D03*
X53500000Y-144100000D03*
D14*
X53500000Y-146500000D03*
D13*
X53500000Y-148900000D03*
X55197056Y-144802944D03*
X55197056Y-148197056D03*
X55900000Y-146500000D03*
%TD*%
D10*
%TO.C,D23*%
X146460000Y-92579999D03*
D11*
X149000000Y-92579999D03*
%TD*%
D13*
%TO.C,H2*%
X244100000Y-53500000D03*
X244802944Y-51802944D03*
X244802944Y-55197056D03*
X246500000Y-51100000D03*
D14*
X246500000Y-53500000D03*
D13*
X246500000Y-55900000D03*
X248197056Y-51802944D03*
X248197056Y-55197056D03*
X248900000Y-53500000D03*
%TD*%
D12*
%TO.C,R8*%
X200170000Y-96499999D03*
X210330000Y-96499999D03*
%TD*%
%TO.C,R71*%
X126500000Y-125420000D03*
X126500000Y-135580000D03*
%TD*%
%TO.C,R26*%
X200170000Y-105499999D03*
X210330000Y-105499999D03*
%TD*%
%TO.C,R64*%
X225761667Y-64250000D03*
X225761667Y-54090000D03*
%TD*%
D10*
%TO.C,D66*%
X235285000Y-69450000D03*
D11*
X235285000Y-66910000D03*
%TD*%
D10*
%TO.C,D69*%
X230500000Y-87540000D03*
D11*
X230500000Y-85000000D03*
%TD*%
D12*
%TO.C,R37*%
X200170000Y-93499999D03*
X210330000Y-93499999D03*
%TD*%
D15*
%TO.C,SW2*%
X63750000Y-139150000D03*
D16*
X63750000Y-134450000D03*
X63750000Y-129750000D03*
%TD*%
D10*
%TO.C,D25*%
X180710000Y-92579998D03*
D11*
X183250000Y-92579998D03*
%TD*%
D12*
%TO.C,R15*%
X131420000Y-84500000D03*
X141580000Y-84500000D03*
%TD*%
D15*
%TO.C,SW9*%
X175027778Y-139150000D03*
D16*
X175027778Y-134450000D03*
X175027778Y-129750000D03*
%TD*%
D12*
%TO.C,R5*%
X165420000Y-78500000D03*
X175580000Y-78500000D03*
%TD*%
%TO.C,R33*%
X131420000Y-93500000D03*
X141580000Y-93500000D03*
%TD*%
D10*
%TO.C,D5*%
X146460000Y-78080000D03*
D11*
X149000000Y-78080000D03*
%TD*%
D10*
%TO.C,D54*%
X149416667Y-73620000D03*
D11*
X149416667Y-71080000D03*
%TD*%
D10*
%TO.C,D71*%
X135131111Y-125000000D03*
D11*
X132591111Y-125000000D03*
%TD*%
D10*
%TO.C,D16*%
X123960000Y-89580000D03*
D11*
X126500000Y-89580000D03*
%TD*%
D10*
%TO.C,D74*%
X176297778Y-125000000D03*
D11*
X173757778Y-125000000D03*
%TD*%
D12*
%TO.C,R66*%
X235285000Y-64260000D03*
X235285000Y-54100000D03*
%TD*%
%TO.C,R1*%
X235250000Y-100660000D03*
X235250000Y-90500000D03*
%TD*%
%TO.C,R20*%
X200170000Y-102499999D03*
X210330000Y-102499999D03*
%TD*%
%TO.C,R10*%
X131420000Y-99500000D03*
X141580000Y-99500000D03*
%TD*%
%TO.C,R28*%
X131420000Y-108500000D03*
X141580000Y-108500000D03*
%TD*%
D15*
%TO.C,SW8*%
X104916667Y-139150000D03*
D16*
X104916667Y-134450000D03*
X104916667Y-129750000D03*
%TD*%
D12*
%TO.C,R30*%
X165420000Y-108499999D03*
X175580000Y-108499999D03*
%TD*%
%TO.C,R46*%
X169083333Y-68330000D03*
X169083333Y-58170000D03*
%TD*%
%TO.C,R13*%
X200170000Y-81499999D03*
X210330000Y-81499999D03*
%TD*%
D10*
%TO.C,D19*%
X180710000Y-89579999D03*
D11*
X183250000Y-89579999D03*
%TD*%
D10*
%TO.C,D34*%
X123960000Y-103829999D03*
D11*
X126500000Y-103829999D03*
%TD*%
D12*
%TO.C,R48*%
X191750000Y-68330000D03*
X191750000Y-58170000D03*
%TD*%
D10*
%TO.C,D18*%
X157960000Y-89580000D03*
D11*
X160500000Y-89580000D03*
%TD*%
D10*
%TO.C,D51*%
X115416667Y-73620000D03*
D11*
X115416667Y-71080000D03*
%TD*%
D10*
%TO.C,D75*%
X190000000Y-125000000D03*
D11*
X187460000Y-125000000D03*
%TD*%
D10*
%TO.C,D27*%
X112730000Y-100830000D03*
D11*
X115270000Y-100830000D03*
%TD*%
D10*
%TO.C,D46*%
X169083333Y-73640000D03*
D11*
X169083333Y-71100000D03*
%TD*%
D12*
%TO.C,R41*%
X112416667Y-68330000D03*
X112416667Y-58170000D03*
%TD*%
D10*
%TO.C,D60*%
X206785000Y-69450000D03*
D11*
X206785000Y-66910000D03*
%TD*%
D10*
%TO.C,D40*%
X101083333Y-73620000D03*
D11*
X101083333Y-71080000D03*
%TD*%
D10*
%TO.C,D3*%
X112730000Y-78080000D03*
D11*
X115270000Y-78080000D03*
%TD*%
D10*
%TO.C,D47*%
X180416667Y-73620000D03*
D11*
X180416667Y-71080000D03*
%TD*%
D10*
%TO.C,D4*%
X123960000Y-78080000D03*
D11*
X126500000Y-78080000D03*
%TD*%
D13*
%TO.C,H1*%
X51100000Y-53500000D03*
X51802944Y-51802944D03*
X51802944Y-55197056D03*
X53500000Y-51100000D03*
D14*
X53500000Y-53500000D03*
D13*
X53500000Y-55900000D03*
X55197056Y-51802944D03*
X55197056Y-55197056D03*
X55900000Y-53500000D03*
%TD*%
%TO.C,H4*%
X244047056Y-146447056D03*
X244750000Y-144750000D03*
X244750000Y-148144112D03*
X246447056Y-144047056D03*
D14*
X246447056Y-146447056D03*
D13*
X246447056Y-148847056D03*
X248144112Y-144750000D03*
X248144112Y-148144112D03*
X248847056Y-146447056D03*
%TD*%
D10*
%TO.C,D29*%
X146460000Y-100829999D03*
D11*
X149000000Y-100829999D03*
%TD*%
D15*
%TO.C,SW10*%
X188750000Y-139150000D03*
D16*
X188750000Y-134450000D03*
X188750000Y-129750000D03*
%TD*%
D12*
%TO.C,R75*%
X181500000Y-125420000D03*
X181500000Y-135580000D03*
%TD*%
D10*
%TO.C,D67*%
X221000000Y-87540000D03*
D11*
X221000000Y-85000000D03*
%TD*%
D10*
%TO.C,D21*%
X112730000Y-92580000D03*
D11*
X115270000Y-92580000D03*
%TD*%
D12*
%TO.C,R68*%
X225750000Y-82330000D03*
X225750000Y-72170000D03*
%TD*%
D10*
%TO.C,D44*%
X146416667Y-73620000D03*
D11*
X146416667Y-71080000D03*
%TD*%
D10*
%TO.C,D20*%
X191960000Y-89330000D03*
D11*
X194500000Y-89330000D03*
%TD*%
D12*
%TO.C,R74*%
X167750000Y-125420000D03*
X167750000Y-135580000D03*
%TD*%
%TO.C,R42*%
X123750000Y-68330000D03*
X123750000Y-58170000D03*
%TD*%
D10*
%TO.C,D6*%
X157960000Y-78080000D03*
D11*
X160500000Y-78080000D03*
%TD*%
D10*
%TO.C,D13*%
X180710000Y-81079999D03*
D11*
X183250000Y-81079999D03*
%TD*%
D12*
%TO.C,R58*%
X194750000Y-68330000D03*
X194750000Y-58170000D03*
%TD*%
%TO.C,R55*%
X160750000Y-68330000D03*
X160750000Y-58170000D03*
%TD*%
D10*
%TO.C,D24*%
X157960000Y-92580000D03*
D11*
X160500000Y-92580000D03*
%TD*%
D15*
%TO.C,SW6*%
X91194444Y-139150000D03*
D16*
X91194444Y-134450000D03*
X91194444Y-129750000D03*
%TD*%
D10*
%TO.C,D41*%
X112416667Y-73620000D03*
D11*
X112416667Y-71080000D03*
%TD*%
D12*
%TO.C,R9*%
X131420000Y-81500000D03*
X141580000Y-81500000D03*
%TD*%
%TO.C,R18*%
X165420000Y-102499999D03*
X175580000Y-102499999D03*
%TD*%
D10*
%TO.C,D32*%
X191960000Y-100580000D03*
D11*
X194500000Y-100580000D03*
%TD*%
D15*
%TO.C,SW1*%
X233750000Y-139105000D03*
D16*
X233750000Y-134405000D03*
X233750000Y-129705000D03*
%TD*%
D10*
%TO.C,D58*%
X194750000Y-73620000D03*
D11*
X194750000Y-71080000D03*
%TD*%
D12*
%TO.C,R23*%
X165420000Y-87499999D03*
X175580000Y-87499999D03*
%TD*%
D10*
%TO.C,D55*%
X160750000Y-73620000D03*
D11*
X160750000Y-71080000D03*
%TD*%
D10*
%TO.C,D7*%
X180710000Y-78080000D03*
D11*
X183250000Y-78080000D03*
%TD*%
D12*
%TO.C,R11*%
X165420000Y-81499999D03*
X175580000Y-81499999D03*
%TD*%
%TO.C,R36*%
X165420000Y-111499998D03*
X175580000Y-111499998D03*
%TD*%
%TO.C,R16*%
X131420000Y-102500000D03*
X141580000Y-102500000D03*
%TD*%
D10*
%TO.C,D1*%
X235250000Y-106020000D03*
D11*
X235250000Y-103480000D03*
%TD*%
D10*
%TO.C,D31*%
X180710000Y-100829999D03*
D11*
X183250000Y-100829999D03*
%TD*%
D12*
%TO.C,R44*%
X146416667Y-68330000D03*
X146416667Y-58170000D03*
%TD*%
D10*
%TO.C,D77*%
X235020000Y-125000000D03*
D11*
X232480000Y-125000000D03*
%TD*%
D12*
%TO.C,R4*%
X131420000Y-96500000D03*
X141580000Y-96500000D03*
%TD*%
%TO.C,R72*%
X140250000Y-125420000D03*
X140250000Y-135580000D03*
%TD*%
D10*
%TO.C,D49*%
X92750000Y-73620000D03*
D11*
X92750000Y-71080000D03*
%TD*%
D10*
%TO.C,D8*%
X191960000Y-77830000D03*
D11*
X194500000Y-77830000D03*
%TD*%
D10*
%TO.C,D68*%
X225750000Y-87540000D03*
D11*
X225750000Y-85000000D03*
%TD*%
D10*
%TO.C,D39*%
X89750000Y-73620000D03*
D11*
X89750000Y-71080000D03*
%TD*%
D12*
%TO.C,R53*%
X138083333Y-68330000D03*
X138083333Y-58170000D03*
%TD*%
%TO.C,R62*%
X216238333Y-64250000D03*
X216238333Y-54090000D03*
%TD*%
%TO.C,R63*%
X221000000Y-64250000D03*
X221000000Y-54090000D03*
%TD*%
D10*
%TO.C,D36*%
X157960000Y-103829999D03*
D11*
X160500000Y-103829999D03*
%TD*%
D10*
%TO.C,D48*%
X191750000Y-73620000D03*
D11*
X191750000Y-71080000D03*
%TD*%
D12*
%TO.C,R43*%
X135083333Y-68330000D03*
X135083333Y-58170000D03*
%TD*%
%TO.C,R7*%
X200170000Y-78500000D03*
X210330000Y-78500000D03*
%TD*%
D10*
%TO.C,D70*%
X235250000Y-87540000D03*
D11*
X235250000Y-85000000D03*
%TD*%
D10*
%TO.C,D64*%
X225785000Y-69450000D03*
D11*
X225785000Y-66910000D03*
%TD*%
D10*
%TO.C,D42*%
X123750000Y-73620000D03*
D11*
X123750000Y-71080000D03*
%TD*%
D10*
%TO.C,D65*%
X230535000Y-69450000D03*
D11*
X230535000Y-66910000D03*
%TD*%
D10*
%TO.C,D50*%
X104083333Y-73620000D03*
D11*
X104083333Y-71080000D03*
%TD*%
D10*
%TO.C,D15*%
X112730000Y-89580000D03*
D11*
X115270000Y-89580000D03*
%TD*%
D12*
%TO.C,R35*%
X165420000Y-93499999D03*
X175580000Y-93499999D03*
%TD*%
D10*
%TO.C,D57*%
X183416667Y-73620000D03*
D11*
X183416667Y-71080000D03*
%TD*%
D12*
%TO.C,R76*%
X195250000Y-125420000D03*
X195250000Y-135580000D03*
%TD*%
D15*
%TO.C,SW3*%
X133861111Y-139150000D03*
D16*
X133861111Y-134450000D03*
X133861111Y-129750000D03*
%TD*%
D12*
%TO.C,R6*%
X165420000Y-96499999D03*
X175580000Y-96499999D03*
%TD*%
%TO.C,R32*%
X200170000Y-108499999D03*
X210330000Y-108499999D03*
%TD*%
%TO.C,R17*%
X165420000Y-84499999D03*
X175580000Y-84499999D03*
%TD*%
%TO.C,R34*%
X131420000Y-111499999D03*
X141580000Y-111499999D03*
%TD*%
D10*
%TO.C,D2*%
X230500000Y-106040000D03*
D11*
X230500000Y-103500000D03*
%TD*%
D12*
%TO.C,R47*%
X180416667Y-68330000D03*
X180416667Y-58170000D03*
%TD*%
%TO.C,R69*%
X230500000Y-82330000D03*
X230500000Y-72170000D03*
%TD*%
%TO.C,R14*%
X200170000Y-99499999D03*
X210330000Y-99499999D03*
%TD*%
D15*
%TO.C,SW11*%
X202472222Y-139150000D03*
D16*
X202472222Y-134450000D03*
X202472222Y-129750000D03*
%TD*%
D12*
%TO.C,R25*%
X200170000Y-87499998D03*
X210330000Y-87499998D03*
%TD*%
%TO.C,R27*%
X131420000Y-90500000D03*
X141580000Y-90500000D03*
%TD*%
D10*
%TO.C,D17*%
X146460000Y-89579999D03*
D11*
X149000000Y-89579999D03*
%TD*%
D12*
%TO.C,R60*%
X206715000Y-64250000D03*
X206715000Y-54090000D03*
%TD*%
%TO.C,R70*%
X235250000Y-82330000D03*
X235250000Y-72170000D03*
%TD*%
D10*
%TO.C,D11*%
X146460000Y-81079999D03*
D11*
X149000000Y-81079999D03*
%TD*%
D10*
%TO.C,D37*%
X180710000Y-103829999D03*
D11*
X183250000Y-103829999D03*
%TD*%
D15*
%TO.C,SW4*%
X77472222Y-139150000D03*
D16*
X77472222Y-134450000D03*
X77472222Y-129750000D03*
%TD*%
D12*
%TO.C,R54*%
X149416667Y-68330000D03*
X149416667Y-58170000D03*
%TD*%
D10*
%TO.C,D28*%
X123960000Y-100830000D03*
D11*
X126500000Y-100830000D03*
%TD*%
D12*
%TO.C,R31*%
X200170000Y-90499999D03*
X210330000Y-90499999D03*
%TD*%
D10*
%TO.C,D72*%
X148853333Y-125000000D03*
D11*
X146313333Y-125000000D03*
%TD*%
D12*
%TO.C,R3*%
X131420000Y-78500000D03*
X141580000Y-78500000D03*
%TD*%
%TO.C,R61*%
X211476667Y-64250000D03*
X211476667Y-54090000D03*
%TD*%
D10*
%TO.C,D43*%
X135083333Y-73620000D03*
D11*
X135083333Y-71080000D03*
%TD*%
D10*
%TO.C,D10*%
X123960000Y-81080000D03*
D11*
X126500000Y-81080000D03*
%TD*%
D12*
%TO.C,R38*%
X200170000Y-111499999D03*
X210330000Y-111499999D03*
%TD*%
%TO.C,R50*%
X104083333Y-68330000D03*
X104083333Y-58170000D03*
%TD*%
%TO.C,R2*%
X230500000Y-100660000D03*
X230500000Y-90500000D03*
%TD*%
%TO.C,R73*%
X154000000Y-125420000D03*
X154000000Y-135580000D03*
%TD*%
D10*
%TO.C,D73*%
X162575555Y-125000000D03*
D11*
X160035555Y-125000000D03*
%TD*%
D12*
%TO.C,R24*%
X165420000Y-105499999D03*
X175580000Y-105499999D03*
%TD*%
D10*
%TO.C,D76*%
X203742222Y-125000000D03*
D11*
X201202222Y-125000000D03*
%TD*%
D10*
%TO.C,D53*%
X138083333Y-73620000D03*
D11*
X138083333Y-71080000D03*
%TD*%
D12*
%TO.C,R67*%
X221000000Y-82330000D03*
X221000000Y-72170000D03*
%TD*%
%TO.C,R57*%
X183416667Y-68330000D03*
X183416667Y-58170000D03*
%TD*%
D10*
%TO.C,D22*%
X123960000Y-92579999D03*
D11*
X126500000Y-92579999D03*
%TD*%
D10*
%TO.C,D9*%
X112730000Y-81080000D03*
D11*
X115270000Y-81080000D03*
%TD*%
D12*
%TO.C,R51*%
X115416667Y-68330000D03*
X115416667Y-58170000D03*
%TD*%
D10*
%TO.C,D35*%
X146460000Y-103829999D03*
D11*
X149000000Y-103829999D03*
%TD*%
D12*
%TO.C,R19*%
X200170000Y-84499999D03*
X210330000Y-84499999D03*
%TD*%
%TO.C,R40*%
X101083333Y-68330000D03*
X101083333Y-58170000D03*
%TD*%
%TO.C,R49*%
X92750000Y-68330000D03*
X92750000Y-58170000D03*
%TD*%
D15*
%TO.C,SW7*%
X161305555Y-139150000D03*
D16*
X161305555Y-134450000D03*
X161305555Y-129750000D03*
%TD*%
D10*
%TO.C,D62*%
X216285000Y-69450000D03*
D11*
X216285000Y-66910000D03*
%TD*%
D15*
%TO.C,SW5*%
X147583333Y-139150000D03*
D16*
X147583333Y-134450000D03*
X147583333Y-129750000D03*
%TD*%
D12*
%TO.C,R39*%
X89750000Y-68330000D03*
X89750000Y-58170000D03*
%TD*%
%TO.C,R56*%
X172083333Y-68330000D03*
X172083333Y-58170000D03*
%TD*%
%TO.C,R65*%
X230523333Y-64250000D03*
X230523333Y-54090000D03*
%TD*%
D10*
%TO.C,D59*%
X202000000Y-69460000D03*
D11*
X202000000Y-66920000D03*
%TD*%
D12*
%TO.C,R29*%
X165420000Y-90499999D03*
X175580000Y-90499999D03*
%TD*%
D10*
%TO.C,D33*%
X112730000Y-103830000D03*
D11*
X115270000Y-103830000D03*
%TD*%
D10*
%TO.C,D63*%
X221035000Y-69450000D03*
D11*
X221035000Y-66910000D03*
%TD*%
D10*
%TO.C,D14*%
X191960000Y-80830000D03*
D11*
X194500000Y-80830000D03*
%TD*%
D12*
%TO.C,R59*%
X202000000Y-64250000D03*
X202000000Y-54090000D03*
%TD*%
D10*
%TO.C,D26*%
X191960000Y-92330000D03*
D11*
X194500000Y-92330000D03*
%TD*%
D10*
%TO.C,D38*%
X191960000Y-103580000D03*
D11*
X194500000Y-103580000D03*
%TD*%
D12*
%TO.C,R22*%
X131420000Y-105499999D03*
X141580000Y-105499999D03*
%TD*%
%TO.C,R45*%
X157750000Y-68330000D03*
X157750000Y-58170000D03*
%TD*%
D10*
%TO.C,D56*%
X172083333Y-73620000D03*
D11*
X172083333Y-71080000D03*
%TD*%
D10*
%TO.C,D12*%
X157960000Y-81080000D03*
D11*
X160500000Y-81080000D03*
%TD*%
D10*
%TO.C,D45*%
X157750000Y-73620000D03*
D11*
X157750000Y-71080000D03*
%TD*%
D12*
%TO.C,R21*%
X131420000Y-87500000D03*
X141580000Y-87500000D03*
%TD*%
D10*
%TO.C,D52*%
X126750000Y-73620000D03*
D11*
X126750000Y-71080000D03*
%TD*%
D10*
%TO.C,D30*%
X157960000Y-100830000D03*
D11*
X160500000Y-100830000D03*
%TD*%
D12*
%TO.C,R52*%
X126750000Y-68330000D03*
X126750000Y-58170000D03*
%TD*%
%TO.C,R12*%
X165420000Y-99499999D03*
X175580000Y-99499999D03*
%TD*%
D17*
%TO.C,J9*%
X76500000Y-81250000D03*
D18*
X76500000Y-78710000D03*
X76500000Y-76170000D03*
X76500000Y-73630000D03*
X76500000Y-71090000D03*
X76500000Y-68550000D03*
X76500000Y-66010000D03*
X76500000Y-63470000D03*
X76500000Y-60930000D03*
X76500000Y-58390000D03*
%TD*%
D17*
%TO.C,J1*%
X239000000Y-84830000D03*
D18*
X239000000Y-82290000D03*
X239000000Y-79750000D03*
X239000000Y-77210000D03*
%TD*%
D17*
%TO.C,J4*%
X149875555Y-117960000D03*
D18*
X152415555Y-117960000D03*
X154955555Y-117960000D03*
X157495555Y-117960000D03*
X160035555Y-117960000D03*
X162575555Y-117960000D03*
X165115555Y-117960000D03*
X167655555Y-117960000D03*
X170195555Y-117960000D03*
X172735555Y-117960000D03*
%TD*%
D17*
%TO.C,J7*%
X154955555Y-143250000D03*
D18*
X157495555Y-143250000D03*
X160035555Y-143250000D03*
X162575555Y-143250000D03*
X165115555Y-143250000D03*
X167655555Y-143250000D03*
%TD*%
D17*
%TO.C,J6*%
X221250000Y-114200000D03*
D18*
X221250000Y-111660000D03*
X221250000Y-109120000D03*
X221250000Y-106580000D03*
X221250000Y-104040000D03*
X221250000Y-101500000D03*
X221250000Y-98960000D03*
X221250000Y-96420000D03*
X221250000Y-93880000D03*
X221250000Y-91340000D03*
%TD*%
D17*
%TO.C,J8*%
X66210000Y-81250000D03*
D18*
X66210000Y-78710000D03*
X66210000Y-76170000D03*
X66210000Y-73630000D03*
X66210000Y-71090000D03*
X66210000Y-68550000D03*
X66210000Y-66010000D03*
X66210000Y-63470000D03*
X66210000Y-60930000D03*
X66210000Y-58390000D03*
%TD*%
D17*
%TO.C,J2*%
X239000000Y-54710000D03*
D18*
X239000000Y-57250000D03*
X239000000Y-59790000D03*
X239000000Y-62330000D03*
X239000000Y-64870000D03*
X239000000Y-67410000D03*
X239000000Y-69950000D03*
X239000000Y-72490000D03*
%TD*%
D17*
%TO.C,J5*%
X225250000Y-114200000D03*
D18*
X225250000Y-111660000D03*
X225250000Y-109120000D03*
X225250000Y-106580000D03*
X225250000Y-104040000D03*
X225250000Y-101500000D03*
X225250000Y-98960000D03*
X225250000Y-96420000D03*
X225250000Y-93880000D03*
X225250000Y-91340000D03*
%TD*%
D17*
%TO.C,J3*%
X149875555Y-122120000D03*
D18*
X152415555Y-122120000D03*
X154955555Y-122120000D03*
X157495555Y-122120000D03*
X160035555Y-122120000D03*
X162575555Y-122120000D03*
X165115555Y-122120000D03*
X167655555Y-122120000D03*
X170195555Y-122120000D03*
X172735555Y-122120000D03*
%TD*%
D17*
%TO.C,J10*%
X85800000Y-121000000D03*
D18*
X88340000Y-121000000D03*
X90880000Y-121000000D03*
X93420000Y-121000000D03*
X95960000Y-121000000D03*
X98500000Y-121000000D03*
X101040000Y-121000000D03*
X103580000Y-121000000D03*
X106120000Y-121000000D03*
X108660000Y-121000000D03*
X111200000Y-121000000D03*
X113740000Y-121000000D03*
X116280000Y-121000000D03*
X118820000Y-121000000D03*
%TD*%
M02*
