M48
; DRILL file {KiCad 9.0.2} date 2026-05-12T23:12:18-0400
; FORMAT={-:-/ absolute / metric / decimal}
; #@! TF.CreationDate,2026-05-12T23:12:18-04:00
; #@! TF.GenerationSoftware,Kicad,Pcbnew,9.0.2
; #@! TF.FileFunction,Plated,1,2,PTH
FMAT,2
METRIC
; #@! TA.AperFunction,Plated,PTH,ComponentDrill
T1C0.500
; #@! TA.AperFunction,Plated,PTH,ViaDrill
T2C0.800
; #@! TA.AperFunction,Plated,PTH,ComponentDrill
T3C0.800
; #@! TA.AperFunction,Plated,PTH,ComponentDrill
T4C0.900
; #@! TA.AperFunction,Plated,PTH,ComponentDrill
T5C1.000
; #@! TA.AperFunction,Plated,PTH,ComponentDrill
T6C1.200
; #@! TA.AperFunction,Plated,PTH,ComponentDrill
T7C3.200
%
G90
G05
T1
X51.1Y-53.5
X51.1Y-146.5
X51.803Y-51.803
X51.803Y-55.197
X51.803Y-144.803
X51.803Y-148.197
X53.5Y-51.1
X53.5Y-55.9
X53.5Y-144.1
X53.5Y-148.9
X55.197Y-51.803
X55.197Y-55.197
X55.197Y-144.803
X55.197Y-148.197
X55.9Y-53.5
X55.9Y-146.5
X244.047Y-146.447
X244.1Y-53.5
X244.75Y-144.75
X244.75Y-148.144
X244.803Y-51.803
X244.803Y-55.197
X246.447Y-144.047
X246.447Y-148.847
X246.5Y-51.1
X246.5Y-55.9
X248.144Y-144.75
X248.144Y-148.144
X248.197Y-51.803
X248.197Y-55.197
X248.847Y-146.447
X248.9Y-53.5
T2
X150.429Y-112.709
X171.55Y-84.5
X171.55Y-90.5
T3
X89.75Y-58.17
X89.75Y-68.33
X92.75Y-58.17
X92.75Y-68.33
X101.083Y-58.17
X101.083Y-68.33
X104.083Y-58.17
X104.083Y-68.33
X112.417Y-58.17
X112.417Y-68.33
X115.417Y-58.17
X115.417Y-68.33
X123.75Y-58.17
X123.75Y-68.33
X126.5Y-125.42
X126.5Y-135.58
X126.75Y-58.17
X126.75Y-68.33
X131.42Y-78.5
X131.42Y-81.5
X131.42Y-84.5
X131.42Y-87.5
X131.42Y-90.5
X131.42Y-93.5
X131.42Y-96.5
X131.42Y-99.5
X131.42Y-102.5
X131.42Y-105.5
X131.42Y-108.5
X131.42Y-111.5
X135.083Y-58.17
X135.083Y-68.33
X138.083Y-58.17
X138.083Y-68.33
X140.25Y-125.42
X140.25Y-135.58
X141.58Y-78.5
X141.58Y-81.5
X141.58Y-84.5
X141.58Y-87.5
X141.58Y-90.5
X141.58Y-93.5
X141.58Y-96.5
X141.58Y-99.5
X141.58Y-102.5
X141.58Y-105.5
X141.58Y-108.5
X141.58Y-111.5
X146.417Y-58.17
X146.417Y-68.33
X149.417Y-58.17
X149.417Y-68.33
X154.0Y-125.42
X154.0Y-135.58
X157.75Y-58.17
X157.75Y-68.33
X160.75Y-58.17
X160.75Y-68.33
X165.42Y-78.5
X165.42Y-81.5
X165.42Y-84.5
X165.42Y-87.5
X165.42Y-90.5
X165.42Y-93.5
X165.42Y-96.5
X165.42Y-99.5
X165.42Y-102.5
X165.42Y-105.5
X165.42Y-108.5
X165.42Y-111.5
X167.75Y-125.42
X167.75Y-135.58
X169.083Y-58.17
X169.083Y-68.33
X172.083Y-58.17
X172.083Y-68.33
X175.58Y-78.5
X175.58Y-81.5
X175.58Y-84.5
X175.58Y-87.5
X175.58Y-90.5
X175.58Y-93.5
X175.58Y-96.5
X175.58Y-99.5
X175.58Y-102.5
X175.58Y-105.5
X175.58Y-108.5
X175.58Y-111.5
X180.417Y-58.17
X180.417Y-68.33
X181.5Y-125.42
X181.5Y-135.58
X183.417Y-58.17
X183.417Y-68.33
X191.75Y-58.17
X191.75Y-68.33
X194.75Y-58.17
X194.75Y-68.33
X195.25Y-125.42
X195.25Y-135.58
X200.17Y-78.5
X200.17Y-81.5
X200.17Y-84.5
X200.17Y-87.5
X200.17Y-90.5
X200.17Y-93.5
X200.17Y-96.5
X200.17Y-99.5
X200.17Y-102.5
X200.17Y-105.5
X200.17Y-108.5
X200.17Y-111.5
X202.0Y-54.09
X202.0Y-64.25
X206.715Y-54.09
X206.715Y-64.25
X210.33Y-78.5
X210.33Y-81.5
X210.33Y-84.5
X210.33Y-87.5
X210.33Y-90.5
X210.33Y-93.5
X210.33Y-96.5
X210.33Y-99.5
X210.33Y-102.5
X210.33Y-105.5
X210.33Y-108.5
X210.33Y-111.5
X211.477Y-54.09
X211.477Y-64.25
X216.238Y-54.09
X216.238Y-64.25
X221.0Y-54.09
X221.0Y-64.25
X221.0Y-72.17
X221.0Y-82.33
X225.75Y-72.17
X225.75Y-82.33
X225.762Y-54.09
X225.762Y-64.25
X226.5Y-125.42
X226.5Y-135.58
X230.5Y-72.17
X230.5Y-82.33
X230.5Y-90.5
X230.5Y-100.66
X230.523Y-54.09
X230.523Y-64.25
X235.25Y-72.17
X235.25Y-82.33
X235.25Y-90.5
X235.25Y-100.66
X235.285Y-54.1
X235.285Y-64.26
T4
X89.75Y-71.08
X89.75Y-73.62
X92.75Y-71.08
X92.75Y-73.62
X101.083Y-71.08
X101.083Y-73.62
X104.083Y-71.08
X104.083Y-73.62
X112.417Y-71.08
X112.417Y-73.62
X112.73Y-78.08
X112.73Y-81.08
X112.73Y-89.58
X112.73Y-92.58
X112.73Y-100.83
X112.73Y-103.83
X115.27Y-78.08
X115.27Y-81.08
X115.27Y-89.58
X115.27Y-92.58
X115.27Y-100.83
X115.27Y-103.83
X115.417Y-71.08
X115.417Y-73.62
X123.75Y-71.08
X123.75Y-73.62
X123.96Y-78.08
X123.96Y-81.08
X123.96Y-89.58
X123.96Y-92.58
X123.96Y-100.83
X123.96Y-103.83
X126.5Y-78.08
X126.5Y-81.08
X126.5Y-89.58
X126.5Y-92.58
X126.5Y-100.83
X126.5Y-103.83
X126.75Y-71.08
X126.75Y-73.62
X132.591Y-125.0
X135.083Y-71.08
X135.083Y-73.62
X135.131Y-125.0
X138.083Y-71.08
X138.083Y-73.62
X146.313Y-125.0
X146.417Y-71.08
X146.417Y-73.62
X146.46Y-78.08
X146.46Y-81.08
X146.46Y-89.58
X146.46Y-92.58
X146.46Y-100.83
X146.46Y-103.83
X148.853Y-125.0
X149.0Y-78.08
X149.0Y-81.08
X149.0Y-89.58
X149.0Y-92.58
X149.0Y-100.83
X149.0Y-103.83
X149.417Y-71.08
X149.417Y-73.62
X157.75Y-71.08
X157.75Y-73.62
X157.96Y-78.08
X157.96Y-81.08
X157.96Y-89.58
X157.96Y-92.58
X157.96Y-100.83
X157.96Y-103.83
X160.036Y-125.0
X160.5Y-78.08
X160.5Y-81.08
X160.5Y-89.58
X160.5Y-92.58
X160.5Y-100.83
X160.5Y-103.83
X160.75Y-71.08
X160.75Y-73.62
X162.576Y-125.0
X169.083Y-71.1
X169.083Y-73.64
X172.083Y-71.08
X172.083Y-73.62
X173.758Y-125.0
X176.298Y-125.0
X180.417Y-71.08
X180.417Y-73.62
X180.71Y-78.08
X180.71Y-81.08
X180.71Y-89.58
X180.71Y-92.58
X180.71Y-100.83
X180.71Y-103.83
X183.25Y-78.08
X183.25Y-81.08
X183.25Y-89.58
X183.25Y-92.58
X183.25Y-100.83
X183.25Y-103.83
X183.417Y-71.08
X183.417Y-73.62
X187.46Y-125.0
X190.0Y-125.0
X191.75Y-71.08
X191.75Y-73.62
X191.96Y-77.83
X191.96Y-80.83
X191.96Y-89.33
X191.96Y-92.33
X191.96Y-100.58
X191.96Y-103.58
X194.5Y-77.83
X194.5Y-80.83
X194.5Y-89.33
X194.5Y-92.33
X194.5Y-100.58
X194.5Y-103.58
X194.75Y-71.08
X194.75Y-73.62
X201.202Y-125.0
X202.0Y-66.92
X202.0Y-69.46
X203.742Y-125.0
X206.785Y-66.91
X206.785Y-69.45
X211.535Y-66.91
X211.535Y-69.45
X216.285Y-66.91
X216.285Y-69.45
X221.0Y-85.0
X221.0Y-87.54
X221.035Y-66.91
X221.035Y-69.45
X225.75Y-85.0
X225.75Y-87.54
X225.785Y-66.91
X225.785Y-69.45
X230.5Y-85.0
X230.5Y-87.54
X230.5Y-103.5
X230.5Y-106.04
X230.535Y-66.91
X230.535Y-69.45
X232.48Y-125.0
X235.02Y-125.0
X235.25Y-85.0
X235.25Y-87.54
X235.25Y-103.48
X235.25Y-106.02
X235.285Y-66.91
X235.285Y-69.45
T5
X66.21Y-58.39
X66.21Y-60.93
X66.21Y-63.47
X66.21Y-66.01
X66.21Y-68.55
X66.21Y-71.09
X66.21Y-73.63
X66.21Y-76.17
X66.21Y-78.71
X66.21Y-81.25
X76.5Y-58.39
X76.5Y-60.93
X76.5Y-63.47
X76.5Y-66.01
X76.5Y-68.55
X76.5Y-71.09
X76.5Y-73.63
X76.5Y-76.17
X76.5Y-78.71
X76.5Y-81.25
X85.8Y-121.0
X88.34Y-121.0
X90.88Y-121.0
X93.42Y-121.0
X95.96Y-121.0
X98.5Y-121.0
X101.04Y-121.0
X103.58Y-121.0
X106.12Y-121.0
X108.66Y-121.0
X111.2Y-121.0
X113.74Y-121.0
X116.28Y-121.0
X118.82Y-121.0
X149.876Y-117.96
X149.876Y-122.12
X152.416Y-117.96
X152.416Y-122.12
X154.956Y-117.96
X154.956Y-122.12
X154.956Y-143.25
X157.496Y-117.96
X157.496Y-122.12
X157.496Y-143.25
X160.036Y-117.96
X160.036Y-122.12
X160.036Y-143.25
X162.576Y-117.96
X162.576Y-122.12
X162.576Y-143.25
X165.116Y-117.96
X165.116Y-122.12
X165.116Y-143.25
X167.656Y-117.96
X167.656Y-122.12
X167.656Y-143.25
X170.196Y-117.96
X170.196Y-122.12
X172.736Y-117.96
X172.736Y-122.12
X221.25Y-91.34
X221.25Y-93.88
X221.25Y-96.42
X221.25Y-98.96
X221.25Y-101.5
X221.25Y-104.04
X221.25Y-106.58
X221.25Y-109.12
X221.25Y-111.66
X221.25Y-114.2
X225.25Y-91.34
X225.25Y-93.88
X225.25Y-96.42
X225.25Y-98.96
X225.25Y-101.5
X225.25Y-104.04
X225.25Y-106.58
X225.25Y-109.12
X225.25Y-111.66
X225.25Y-114.2
X239.0Y-54.71
X239.0Y-57.25
X239.0Y-59.79
X239.0Y-62.33
X239.0Y-64.87
X239.0Y-67.41
X239.0Y-69.95
X239.0Y-72.49
X239.0Y-77.21
X239.0Y-79.75
X239.0Y-82.29
X239.0Y-84.83
T7
X53.5Y-53.5
X53.5Y-146.5
X246.447Y-146.447
X246.5Y-53.5
T6
G00X63.1Y-129.75
M15
G01X64.4Y-129.75
M16
G05
G00X63.1Y-134.45
M15
G01X64.4Y-134.45
M16
G05
G00X63.1Y-139.15
M15
G01X64.4Y-139.15
M16
G05
G00X76.822Y-129.75
M15
G01X78.122Y-129.75
M16
G05
G00X76.822Y-134.45
M15
G01X78.122Y-134.45
M16
G05
G00X76.822Y-139.15
M15
G01X78.122Y-139.15
M16
G05
G00X90.544Y-129.75
M15
G01X91.844Y-129.75
M16
G05
G00X90.544Y-134.45
M15
G01X91.844Y-134.45
M16
G05
G00X90.544Y-139.15
M15
G01X91.844Y-139.15
M16
G05
G00X104.267Y-129.75
M15
G01X105.567Y-129.75
M16
G05
G00X104.267Y-134.45
M15
G01X105.567Y-134.45
M16
G05
G00X104.267Y-139.15
M15
G01X105.567Y-139.15
M16
G05
G00X133.211Y-129.75
M15
G01X134.511Y-129.75
M16
G05
G00X133.211Y-134.45
M15
G01X134.511Y-134.45
M16
G05
G00X133.211Y-139.15
M15
G01X134.511Y-139.15
M16
G05
G00X146.933Y-129.75
M15
G01X148.233Y-129.75
M16
G05
G00X146.933Y-134.45
M15
G01X148.233Y-134.45
M16
G05
G00X146.933Y-139.15
M15
G01X148.233Y-139.15
M16
G05
G00X160.656Y-129.75
M15
G01X161.956Y-129.75
M16
G05
G00X160.656Y-134.45
M15
G01X161.956Y-134.45
M16
G05
G00X160.656Y-139.15
M15
G01X161.956Y-139.15
M16
G05
G00X174.378Y-129.75
M15
G01X175.678Y-129.75
M16
G05
G00X174.378Y-134.45
M15
G01X175.678Y-134.45
M16
G05
G00X174.378Y-139.15
M15
G01X175.678Y-139.15
M16
G05
G00X188.1Y-129.75
M15
G01X189.4Y-129.75
M16
G05
G00X188.1Y-134.45
M15
G01X189.4Y-134.45
M16
G05
G00X188.1Y-139.15
M15
G01X189.4Y-139.15
M16
G05
G00X201.822Y-129.75
M15
G01X203.122Y-129.75
M16
G05
G00X201.822Y-134.45
M15
G01X203.122Y-134.45
M16
G05
G00X201.822Y-139.15
M15
G01X203.122Y-139.15
M16
G05
G00X233.1Y-129.705
M15
G01X234.4Y-129.705
M16
G05
G00X233.1Y-134.405
M15
G01X234.4Y-134.405
M16
G05
G00X233.1Y-139.105
M15
G01X234.4Y-139.105
M16
G05
M30
