%TF.GenerationSoftware,KiCad,Pcbnew,9.0.2*%
%TF.CreationDate,2026-05-12T17:34:26-04:00*%
%TF.ProjectId,Santas Microfactory - State Manager,53616e74-6173-4204-9d69-63726f666163,rev?*%
%TF.SameCoordinates,Original*%
%TF.FileFunction,Profile,NP*%
%FSLAX46Y46*%
G04 Gerber Fmt 4.6, Leading zero omitted, Abs format (unit mm)*
G04 Created by KiCad (PCBNEW 9.0.2) date 2026-05-12 17:34:26*
%MOMM*%
%LPD*%
G01*
G04 APERTURE LIST*
%TA.AperFunction,Profile*%
%ADD10C,0.200000*%
%TD*%
%TA.AperFunction,Profile*%
%ADD11C,0.050000*%
%TD*%
%TA.AperFunction,Profile*%
%ADD12C,0.100000*%
%TD*%
G04 APERTURE END LIST*
D10*
X250000000Y-61000000D02*
X250000000Y-158000000D01*
D11*
X150650000Y-58950000D02*
X248000000Y-59000000D01*
D10*
X52000000Y-160000000D02*
G75*
G02*
X50000000Y-158000000I0J2000000D01*
G01*
X250000000Y-158000000D02*
G75*
G02*
X248000000Y-160000000I-2000000J0D01*
G01*
X248000000Y-59000000D02*
G75*
G02*
X250000000Y-61000000I0J-2000000D01*
G01*
X50000000Y-61000000D02*
G75*
G02*
X52000000Y-59000000I2000000J0D01*
G01*
X248000000Y-160000000D02*
X52000000Y-160000000D01*
X50000000Y-158000000D02*
X50000000Y-61000000D01*
D11*
X52000000Y-59000000D02*
X66350000Y-58950000D01*
D12*
%TO.C,J4*%
X66350000Y-51050000D02*
X66850000Y-50550000D01*
X66350000Y-58950000D02*
X66350000Y-51050000D01*
X137050000Y-50550000D02*
X66850000Y-50550000D01*
X137550000Y-51050000D02*
X137050000Y-50550000D01*
X137550000Y-58000000D02*
X137550000Y-51050000D01*
X139450000Y-51050000D02*
X139950000Y-50550000D01*
X139450000Y-58000000D02*
X139450000Y-51050000D01*
X150150000Y-50550000D02*
X139950000Y-50550000D01*
X150650000Y-51050000D02*
X150150000Y-50550000D01*
X150650000Y-58950000D02*
X150650000Y-51050000D01*
X139450000Y-58000000D02*
G75*
G02*
X137550000Y-58000000I-950000J0D01*
G01*
%TD*%
M02*
