M48
; DRILL file {KiCad 9.0.2} date 2026-05-12T17:34:24-0400
; FORMAT={-:-/ absolute / metric / decimal}
; #@! TF.CreationDate,2026-05-12T17:34:24-04:00
; #@! TF.GenerationSoftware,Kicad,Pcbnew,9.0.2
; #@! TF.FileFunction,Plated,1,2,PTH
FMAT,2
METRIC
; #@! TA.AperFunction,Plated,PTH,ViaDrill
T1C0.300
; #@! TA.AperFunction,Plated,PTH,ComponentDrill
T2C0.750
; #@! TA.AperFunction,Plated,PTH,ComponentDrill
T3C0.800
; #@! TA.AperFunction,Plated,PTH,ComponentDrill
T4C0.800
; #@! TA.AperFunction,Plated,PTH,ComponentDrill
T5C0.900
; #@! TA.AperFunction,Plated,PTH,ComponentDrill
T6C0.900
; #@! TA.AperFunction,Plated,PTH,ComponentDrill
T7C1.000
%
G90
G05
T1
X118.0Y-58.25
X118.0Y-89.25
X122.25Y-116.75
X123.5Y-85.0
X128.37Y-59.37
X130.25Y-143.5
X131.397Y-114.897
X131.75Y-147.25
X132.0Y-58.0
X133.25Y-117.0
X133.604Y-122.104
X134.75Y-143.75
X135.7Y-146.891
X138.125Y-122.125
X138.25Y-123.25
X138.5Y-124.25
X138.75Y-63.5
X139.25Y-143.75
X139.75Y-110.25
X140.0Y-122.5
X140.75Y-58.25
X141.0Y-122.25
X143.0Y-118.75
X143.25Y-57.75
X144.951Y-59.547
X146.0Y-59.25
X147.5Y-57.75
X149.0Y-56.75
X153.47Y-124.25
X183.0Y-119.75
X185.715Y-117.215
X187.58Y-117.33
X190.5Y-111.25
X191.75Y-126.75
X192.248Y-123.25
X193.0Y-137.464
X193.75Y-122.5
X196.25Y-147.75
T2
X57.8Y-122.055
X57.8Y-123.325
X57.8Y-124.595
X57.8Y-127.805
X57.8Y-129.075
X57.8Y-130.345
X90.726Y-138.845
X90.726Y-140.115
X90.726Y-141.385
X109.426Y-139.02
X109.426Y-140.29
X109.426Y-141.56
X109.476Y-148.09
X109.476Y-149.36
X109.476Y-150.63
X119.6Y-70.54
X119.6Y-71.81
X119.6Y-73.08
X126.05Y-70.55
X126.05Y-71.82
X126.05Y-73.09
X127.726Y-148.04
X127.726Y-149.31
X127.726Y-150.58
X128.0Y-139.0
X128.0Y-140.27
X128.0Y-141.54
X134.29Y-70.5
X134.29Y-71.77
X134.29Y-73.04
X134.29Y-85.25
X134.29Y-86.52
X134.29Y-87.79
X146.2Y-138.99
X146.2Y-140.26
X146.2Y-141.53
X148.76Y-103.05
X148.76Y-104.32
X148.76Y-105.59
X154.46Y-73.25
X155.73Y-73.25
X157.0Y-73.25
X159.62Y-87.8
X160.89Y-87.8
X162.16Y-87.8
X165.55Y-139.09
X165.55Y-140.36
X165.55Y-141.63
X165.55Y-148.04
X165.55Y-149.31
X165.55Y-150.58
X167.034Y-103.0
X167.034Y-104.27
X167.034Y-105.54
X167.084Y-112.0
X167.084Y-113.27
X167.084Y-114.54
X184.05Y-148.09
X184.05Y-149.36
X184.05Y-150.63
X184.25Y-139.09
X184.25Y-140.36
X184.25Y-141.63
X186.034Y-112.25
X186.034Y-113.52
X186.034Y-114.79
X186.084Y-103.05
X186.084Y-104.32
X186.084Y-105.59
X203.914Y-139.09
X203.914Y-140.36
X203.914Y-141.63
X204.374Y-103.0
X204.374Y-104.27
X204.374Y-105.54
X210.6Y-65.513
X216.4Y-65.513
X222.914Y-139.34
X222.914Y-140.61
X222.914Y-141.88
X222.914Y-148.34
X222.914Y-149.61
X222.914Y-150.88
X223.124Y-103.55
X223.124Y-104.82
X223.124Y-106.09
X223.324Y-112.55
X223.324Y-113.82
X223.324Y-115.09
X241.954Y-139.79
X241.954Y-141.06
X241.954Y-142.33
X242.074Y-112.5
X242.074Y-113.77
X242.074Y-115.04
X242.114Y-149.04
X242.114Y-150.31
X242.114Y-151.58
X242.124Y-103.55
X242.124Y-104.82
X242.124Y-106.09
T4
X57.44Y-81.685
X57.44Y-89.305
X57.75Y-76.005
X57.75Y-78.545
X58.505Y-65.0
X59.0Y-116.715
X59.0Y-119.255
X59.98Y-81.685
X59.98Y-89.305
X61.045Y-65.0
X62.5Y-76.25
X62.5Y-78.79
X62.52Y-81.685
X62.52Y-89.305
X63.636Y-123.505
X63.636Y-128.005
X63.75Y-116.71
X63.75Y-119.25
X65.06Y-81.685
X65.06Y-89.305
X66.176Y-123.505
X66.176Y-128.005
X68.5Y-116.71
X68.5Y-119.25
X69.886Y-123.505
X69.886Y-128.005
X72.426Y-123.505
X72.426Y-128.005
X73.25Y-116.755
X73.25Y-119.295
X76.75Y-128.005
X76.79Y-151.545
X76.79Y-156.045
X76.824Y-123.505
X78.0Y-116.71
X78.0Y-119.25
X79.29Y-128.005
X79.33Y-151.545
X79.33Y-156.045
X79.364Y-123.505
X81.04Y-144.5
X81.04Y-147.04
X82.926Y-151.545
X83.04Y-156.045
X85.466Y-151.545
X85.58Y-156.045
X85.79Y-144.5
X85.79Y-147.04
X90.0Y-151.545
X90.114Y-156.045
X90.54Y-144.545
X90.54Y-147.085
X92.54Y-151.545
X92.654Y-156.045
X95.426Y-130.995
X95.426Y-133.535
X95.926Y-151.54
X96.061Y-138.04
X96.136Y-147.04
X96.311Y-142.54
X98.466Y-151.54
X98.601Y-138.04
X98.676Y-147.04
X98.851Y-142.54
X98.926Y-154.5
X98.926Y-157.04
X100.176Y-130.995
X100.176Y-133.535
X102.426Y-138.04
X102.561Y-142.54
X102.561Y-147.04
X102.636Y-151.54
X103.676Y-154.5
X103.676Y-157.04
X104.926Y-130.995
X104.926Y-133.535
X104.966Y-138.04
X105.101Y-142.54
X105.101Y-147.04
X105.176Y-151.54
X108.426Y-154.54
X108.426Y-157.08
X109.676Y-130.995
X109.676Y-133.535
X113.176Y-154.545
X113.176Y-157.085
X114.176Y-130.995
X114.176Y-133.535
X114.426Y-151.54
X114.46Y-147.04
X114.636Y-137.79
X114.636Y-142.54
X116.966Y-151.54
X117.0Y-147.04
X117.176Y-137.79
X117.176Y-142.54
X117.926Y-154.545
X117.926Y-157.085
X118.926Y-131.04
X118.926Y-133.58
X119.46Y-87.25
X119.46Y-91.75
X119.55Y-65.295
X119.55Y-67.835
X120.811Y-147.04
X120.811Y-151.54
X120.886Y-142.54
X120.96Y-137.79
X121.114Y-80.205
X121.114Y-82.745
X122.0Y-87.25
X122.0Y-91.75
X122.676Y-154.5
X122.676Y-157.04
X123.351Y-147.04
X123.351Y-151.54
X123.426Y-142.54
X123.5Y-137.79
X123.676Y-131.0
X123.676Y-133.54
X125.0Y-87.25
X125.0Y-91.75
X125.864Y-80.205
X125.864Y-82.745
X126.05Y-65.3
X126.05Y-67.84
X127.54Y-87.25
X127.54Y-91.75
X133.136Y-151.545
X133.136Y-156.045
X134.92Y-115.5
X134.92Y-119.75
X135.676Y-151.545
X135.676Y-156.045
X135.74Y-76.905
X135.74Y-79.445
X137.25Y-144.5
X137.25Y-147.04
X137.46Y-115.5
X137.46Y-119.75
X137.54Y-62.21
X137.54Y-64.75
X138.284Y-109.0
X138.284Y-111.54
X139.386Y-151.545
X139.386Y-156.045
X139.7Y-83.7
X139.74Y-88.2
X139.926Y-73.5
X140.0Y-69.0
X140.49Y-76.91
X140.49Y-79.45
X141.42Y-115.5
X141.494Y-120.0
X141.926Y-151.545
X141.926Y-156.045
X142.0Y-144.5
X142.0Y-147.04
X142.24Y-83.7
X142.28Y-88.2
X142.29Y-62.21
X142.29Y-64.75
X142.466Y-73.5
X142.54Y-69.0
X143.034Y-109.0
X143.034Y-111.54
X143.96Y-115.5
X144.034Y-120.0
X146.46Y-151.545
X146.5Y-156.045
X146.75Y-144.5
X146.75Y-147.04
X147.784Y-108.96
X147.784Y-111.5
X148.494Y-120.0
X148.609Y-115.5
X149.0Y-151.545
X149.04Y-156.045
X151.034Y-120.0
X151.149Y-115.5
X152.136Y-138.04
X152.21Y-147.04
X152.25Y-130.79
X152.25Y-133.33
X152.25Y-142.54
X152.25Y-151.54
X153.784Y-94.705
X153.784Y-97.245
X153.92Y-102.0
X154.034Y-106.5
X154.16Y-78.55
X154.17Y-111.0
X154.17Y-115.5
X154.365Y-83.05
X154.365Y-87.8
X154.37Y-67.3
X154.676Y-138.04
X154.75Y-147.04
X154.79Y-142.54
X154.79Y-151.54
X156.46Y-102.0
X156.5Y-155.04
X156.5Y-157.58
X156.574Y-106.5
X156.7Y-78.55
X156.71Y-111.0
X156.71Y-115.5
X156.905Y-83.05
X156.905Y-87.8
X156.91Y-67.3
X157.0Y-131.0
X157.0Y-133.54
X157.534Y-118.505
X157.534Y-121.045
X158.386Y-142.54
X158.46Y-147.04
X158.5Y-138.04
X158.5Y-151.54
X158.534Y-94.705
X158.534Y-97.245
X160.17Y-102.0
X160.17Y-106.5
X160.42Y-111.0
X160.67Y-115.5
X160.926Y-142.54
X161.0Y-147.04
X161.04Y-138.04
X161.04Y-151.54
X161.25Y-155.295
X161.25Y-157.835
X161.5Y-130.995
X161.5Y-133.535
X162.284Y-118.505
X162.284Y-121.045
X162.71Y-102.0
X162.71Y-106.5
X162.96Y-111.0
X163.21Y-115.5
X163.284Y-94.71
X163.284Y-97.25
X166.0Y-155.29
X166.0Y-157.83
X166.25Y-130.995
X166.25Y-133.535
X167.034Y-118.46
X167.034Y-121.0
X168.034Y-94.705
X168.034Y-97.245
X170.46Y-151.54
X170.636Y-138.04
X170.636Y-142.54
X170.636Y-147.04
X170.75Y-155.29
X170.75Y-157.83
X171.0Y-130.995
X171.0Y-133.535
X171.784Y-118.505
X171.784Y-121.045
X172.67Y-102.0
X172.67Y-106.5
X172.67Y-111.0
X172.67Y-115.5
X172.784Y-94.71
X172.784Y-97.25
X173.0Y-151.54
X173.176Y-138.04
X173.176Y-142.54
X173.176Y-147.04
X175.21Y-102.0
X175.21Y-106.5
X175.21Y-111.0
X175.21Y-115.5
X175.5Y-155.25
X175.5Y-157.79
X175.75Y-130.995
X175.75Y-133.535
X176.25Y-66.997
X176.25Y-70.497
X176.534Y-118.505
X176.534Y-121.045
X177.136Y-138.04
X177.136Y-142.54
X177.136Y-147.04
X177.136Y-151.54
X177.534Y-94.705
X177.534Y-97.245
X178.25Y-75.15
X178.25Y-77.15
X178.784Y-115.5
X178.92Y-111.0
X179.034Y-102.0
X179.17Y-106.5
X179.676Y-138.04
X179.676Y-142.54
X179.676Y-147.04
X179.676Y-151.54
X180.25Y-155.295
X180.25Y-157.835
X180.5Y-131.04
X180.5Y-133.58
X181.284Y-118.505
X181.284Y-121.045
X181.324Y-115.5
X181.46Y-111.0
X181.574Y-102.0
X181.71Y-106.5
X182.284Y-94.71
X182.284Y-97.25
X189.636Y-151.795
X189.636Y-156.295
X190.346Y-116.0
X190.46Y-120.5
X192.176Y-151.795
X192.176Y-156.295
X192.886Y-116.0
X193.0Y-120.5
X194.25Y-144.75
X194.25Y-147.29
X194.96Y-108.96
X194.96Y-111.5
X196.21Y-151.795
X196.25Y-156.295
X196.71Y-77.65
X196.71Y-116.0
X196.846Y-120.5
X197.0Y-72.224
X197.0Y-74.764
X198.25Y-65.9
X198.25Y-67.9
X198.75Y-151.795
X198.79Y-156.295
X199.0Y-144.705
X199.0Y-147.245
X199.25Y-77.65
X199.25Y-116.0
X199.386Y-120.5
X199.71Y-108.915
X199.71Y-111.455
X203.21Y-151.795
X203.324Y-156.295
X203.75Y-144.71
X203.75Y-147.25
X203.96Y-116.0
X203.96Y-120.5
X204.46Y-108.96
X204.46Y-111.5
X205.75Y-151.795
X205.864Y-156.295
X206.5Y-116.0
X206.5Y-120.5
X207.46Y-70.5
X207.614Y-130.29
X207.614Y-132.83
X209.324Y-95.5
X209.324Y-98.04
X209.324Y-138.29
X209.324Y-142.79
X209.574Y-147.29
X209.574Y-151.79
X209.96Y-102.5
X209.96Y-116.0
X210.0Y-70.5
X210.034Y-111.5
X210.074Y-107.0
X210.96Y-73.75
X211.864Y-138.29
X211.864Y-142.79
X212.114Y-130.29
X212.114Y-132.83
X212.114Y-147.29
X212.114Y-151.79
X212.5Y-102.5
X212.5Y-116.0
X212.574Y-111.5
X212.614Y-107.0
X213.114Y-155.045
X213.114Y-157.585
X213.5Y-73.75
X213.574Y-118.96
X213.574Y-121.5
X214.074Y-95.455
X214.074Y-97.995
X215.614Y-138.29
X215.75Y-142.79
X215.75Y-147.29
X215.75Y-151.79
X216.21Y-102.5
X216.21Y-111.5
X216.21Y-116.0
X216.324Y-107.0
X216.614Y-130.29
X216.614Y-132.83
X217.864Y-155.04
X217.864Y-157.58
X218.154Y-138.29
X218.29Y-142.79
X218.29Y-147.29
X218.29Y-151.79
X218.324Y-119.005
X218.324Y-121.545
X218.75Y-102.5
X218.75Y-111.5
X218.75Y-116.0
X218.824Y-95.25
X218.824Y-97.79
X218.864Y-107.0
X221.114Y-130.54
X221.114Y-133.08
X222.364Y-155.04
X222.364Y-157.58
X223.074Y-119.005
X223.074Y-121.545
X223.324Y-95.21
X223.324Y-97.75
X225.864Y-130.495
X225.864Y-133.035
X226.864Y-155.0
X226.864Y-157.54
X227.824Y-119.005
X227.824Y-121.545
X228.074Y-95.205
X228.074Y-97.745
X228.534Y-116.0
X228.574Y-111.5
X228.654Y-138.79
X228.71Y-107.0
X228.729Y-143.29
X228.824Y-147.79
X228.824Y-152.29
X229.034Y-102.5
X229.71Y-64.75
X230.614Y-130.54
X230.614Y-133.08
X231.074Y-116.0
X231.114Y-111.5
X231.194Y-138.79
X231.25Y-107.0
X231.269Y-143.29
X231.364Y-147.79
X231.364Y-152.29
X231.364Y-155.045
X231.364Y-157.585
X231.574Y-102.5
X232.25Y-64.75
X232.574Y-118.96
X232.574Y-121.5
X232.824Y-95.21
X232.824Y-97.75
X232.903Y-78.5
X234.864Y-138.79
X235.0Y-147.79
X235.0Y-152.29
X235.04Y-143.29
X235.074Y-111.5
X235.074Y-116.0
X235.114Y-130.54
X235.114Y-133.08
X235.21Y-102.5
X235.21Y-107.0
X235.864Y-155.04
X235.864Y-157.58
X236.403Y-78.5
X237.324Y-119.0
X237.324Y-121.54
X237.404Y-138.79
X237.54Y-147.79
X237.54Y-152.29
X237.574Y-95.25
X237.574Y-97.79
X237.58Y-143.29
X237.614Y-111.5
X237.614Y-116.0
X237.75Y-102.5
X237.75Y-107.0
T5
X58.665Y-60.5
X61.205Y-60.5
X229.75Y-60.5
X232.29Y-60.5
T7
X71.25Y-74.75
X71.25Y-82.25
X71.25Y-88.0
X71.25Y-95.5
X161.91Y-72.8
X161.91Y-80.3
X230.0Y-69.25
X230.0Y-71.79
X239.25Y-69.21
X239.25Y-71.75
T3
G00X209.17Y-62.132
M15
G01X209.17Y-61.533
M16
G05
G00X209.17Y-66.412
M15
G01X209.17Y-65.613
M16
G05
G00X217.83Y-62.132
M15
G01X217.83Y-61.533
M16
G05
G00X217.83Y-66.413
M15
G01X217.83Y-65.612
M16
G05
T6
G00X218.84Y-71.1
M15
G01X218.84Y-69.4
M16
G05
G00X222.4Y-66.75
M15
G01X224.6Y-66.75
M16
G05
G00X224.6Y-72.75
M15
G01X222.4Y-72.75
M16
G05
M30
