%TF.GenerationSoftware,KiCad,Pcbnew,9.0.2*%
%TF.CreationDate,2026-05-12T17:34:26-04:00*%
%TF.ProjectId,Santas Microfactory - State Manager,53616e74-6173-4204-9d69-63726f666163,rev?*%
%TF.SameCoordinates,Original*%
%TF.FileFunction,Soldermask,Top*%
%TF.FilePolarity,Negative*%
%FSLAX46Y46*%
G04 Gerber Fmt 4.6, Leading zero omitted, Abs format (unit mm)*
G04 Created by KiCad (PCBNEW 9.0.2) date 2026-05-12 17:34:26*
%MOMM*%
%LPD*%
G01*
G04 APERTURE LIST*
G04 Aperture macros list*
%AMRoundRect*
0 Rectangle with rounded corners*
0 $1 Rounding radius*
0 $2 $3 $4 $5 $6 $7 $8 $9 X,Y pos of 4 corners*
0 Add a 4 corners polygon primitive as box body*
4,1,4,$2,$3,$4,$5,$6,$7,$8,$9,$2,$3,0*
0 Add four circle primitives for the rounded corners*
1,1,$1+$1,$2,$3*
1,1,$1+$1,$4,$5*
1,1,$1+$1,$6,$7*
1,1,$1+$1,$8,$9*
0 Add four rect primitives between the rounded corners*
20,1,$1+$1,$2,$3,$4,$5,0*
20,1,$1+$1,$4,$5,$6,$7,0*
20,1,$1+$1,$6,$7,$8,$9,0*
20,1,$1+$1,$8,$9,$2,$3,0*%
G04 Aperture macros list end*
%ADD10RoundRect,0.250000X-0.550000X-0.550000X0.550000X-0.550000X0.550000X0.550000X-0.550000X0.550000X0*%
%ADD11C,1.600000*%
%ADD12R,1.500000X1.050000*%
%ADD13O,1.500000X1.050000*%
%ADD14O,3.800000X1.500000*%
%ADD15O,1.500000X3.400000*%
%ADD16RoundRect,0.250000X0.550000X0.550000X-0.550000X0.550000X-0.550000X-0.550000X0.550000X-0.550000X0*%
%ADD17RoundRect,0.250000X-0.550000X0.550000X-0.550000X-0.550000X0.550000X-0.550000X0.550000X0.550000X0*%
%ADD18C,2.000000*%
%ADD19R,3.500000X4.000000*%
%ADD20R,1.700000X1.700000*%
%ADD21C,1.700000*%
%ADD22R,1.800000X1.800000*%
%ADD23C,1.800000*%
%ADD24R,1.050000X1.500000*%
%ADD25O,1.050000X1.500000*%
%ADD26R,0.700000X4.300000*%
%ADD27R,0.700000X3.200000*%
%ADD28RoundRect,0.250000X-0.300000X2.050000X-0.300000X-2.050000X0.300000X-2.050000X0.300000X2.050000X0*%
%ADD29RoundRect,0.250002X-5.149998X4.449998X-5.149998X-4.449998X5.149998X-4.449998X5.149998X4.449998X0*%
%ADD30RoundRect,0.250000X0.550000X-0.550000X0.550000X0.550000X-0.550000X0.550000X-0.550000X-0.550000X0*%
%ADD31C,0.750000*%
%ADD32O,1.200000X2.000000*%
%ADD33O,1.200000X1.800000*%
%ADD34R,0.300000X1.300000*%
G04 APERTURE END LIST*
D10*
%TO.C,D99*%
X160670000Y-115500000D03*
D11*
X163210000Y-115500000D03*
%TD*%
D10*
%TO.C,D121*%
X139740000Y-88200000D03*
D11*
X142280000Y-88200000D03*
%TD*%
D10*
%TO.C,D53*%
X235040000Y-143290000D03*
D11*
X237580000Y-143290000D03*
%TD*%
D12*
%TO.C,Q12*%
X204374314Y-103000000D03*
D13*
X204374314Y-104270000D03*
X204374314Y-105540000D03*
%TD*%
D10*
%TO.C,D12*%
X133135686Y-156045000D03*
D11*
X135675686Y-156045000D03*
%TD*%
D10*
%TO.C,D41*%
X235210000Y-107000000D03*
D11*
X237750000Y-107000000D03*
%TD*%
%TO.C,R20*%
X209324314Y-95500000D03*
X209324314Y-98040000D03*
%TD*%
D10*
%TO.C,D117*%
X140000000Y-69000000D03*
D11*
X142540000Y-69000000D03*
%TD*%
D10*
%TO.C,D112*%
X139385686Y-156045000D03*
D11*
X141925686Y-156045000D03*
%TD*%
%TO.C,R16*%
X194250000Y-144750000D03*
X194250000Y-147290000D03*
%TD*%
%TO.C,R9*%
X237574314Y-95250000D03*
X237574314Y-97790000D03*
%TD*%
%TO.C,R1*%
X207460000Y-70500000D03*
X210000000Y-70500000D03*
%TD*%
D12*
%TO.C,Q25*%
X242114314Y-149040000D03*
D13*
X242114314Y-150310000D03*
X242114314Y-151580000D03*
%TD*%
D11*
%TO.C,R75*%
X161250000Y-157835000D03*
X161250000Y-155295000D03*
%TD*%
%TO.C,R2*%
X210960000Y-73750000D03*
X213500000Y-73750000D03*
%TD*%
%TO.C,R64*%
X108425686Y-157080000D03*
X108425686Y-154540000D03*
%TD*%
D12*
%TO.C,Q11*%
X148760000Y-103050000D03*
D13*
X148760000Y-104320000D03*
X148760000Y-105590000D03*
%TD*%
D10*
%TO.C,D29*%
X177135686Y-138040000D03*
D11*
X179675686Y-138040000D03*
%TD*%
%TO.C,R102*%
X61045000Y-65000000D03*
X58505000Y-65000000D03*
%TD*%
D14*
%TO.C,J2*%
X223500000Y-72750000D03*
X223500000Y-66750000D03*
D15*
X218840000Y-70250000D03*
%TD*%
D11*
%TO.C,R60*%
X171784314Y-121045000D03*
X171784314Y-118505000D03*
%TD*%
%TO.C,R98*%
X125864314Y-80205000D03*
X125864314Y-82745000D03*
%TD*%
D12*
%TO.C,Q32*%
X119600000Y-70540000D03*
D13*
X119600000Y-71810000D03*
X119600000Y-73080000D03*
%TD*%
D10*
%TO.C,D13*%
X189635686Y-156295000D03*
D11*
X192175686Y-156295000D03*
%TD*%
D16*
%TO.C,D60*%
X206500000Y-120500000D03*
D11*
X203960000Y-120500000D03*
%TD*%
D10*
%TO.C,D24*%
X114635686Y-137790000D03*
D11*
X117175686Y-137790000D03*
%TD*%
%TO.C,R33*%
X104925686Y-130995000D03*
X104925686Y-133535000D03*
%TD*%
D10*
%TO.C,D28*%
X170635686Y-138040000D03*
D11*
X173175686Y-138040000D03*
%TD*%
%TO.C,R68*%
X226864314Y-157540000D03*
X226864314Y-155000000D03*
%TD*%
D10*
%TO.C,D6*%
X76790000Y-151545000D03*
D11*
X79330000Y-151545000D03*
%TD*%
%TO.C,R21*%
X95425686Y-130995000D03*
X95425686Y-133535000D03*
%TD*%
%TO.C,R74*%
X113175686Y-157085000D03*
X113175686Y-154545000D03*
%TD*%
D10*
%TO.C,D34*%
X154034314Y-106500000D03*
D11*
X156574314Y-106500000D03*
%TD*%
%TO.C,R12*%
X123675686Y-131000000D03*
X123675686Y-133540000D03*
%TD*%
D12*
%TO.C,Q3*%
X223124314Y-103550000D03*
D13*
X223124314Y-104820000D03*
X223124314Y-106090000D03*
%TD*%
D12*
%TO.C,Q8*%
X184250000Y-139090000D03*
D13*
X184250000Y-140360000D03*
X184250000Y-141630000D03*
%TD*%
D11*
%TO.C,R48*%
X199000000Y-144705000D03*
X199000000Y-147245000D03*
%TD*%
D10*
%TO.C,D40*%
X228710000Y-107000000D03*
D11*
X231250000Y-107000000D03*
%TD*%
D10*
%TO.C,D35*%
X160170000Y-106500000D03*
D11*
X162710000Y-106500000D03*
%TD*%
%TO.C,R101*%
X62500000Y-76250000D03*
X62500000Y-78790000D03*
%TD*%
%TO.C,R83*%
X203750000Y-144710000D03*
X203750000Y-147250000D03*
%TD*%
D10*
%TO.C,D91*%
X95925686Y-151540000D03*
D11*
X98465686Y-151540000D03*
%TD*%
D10*
%TO.C,D95*%
X170460000Y-151540000D03*
D11*
X173000000Y-151540000D03*
%TD*%
%TO.C,R5*%
X168034314Y-94705000D03*
X168034314Y-97245000D03*
%TD*%
D10*
%TO.C,D47*%
X158385686Y-142540000D03*
D11*
X160925686Y-142540000D03*
%TD*%
%TO.C,R44*%
X147784314Y-108960000D03*
X147784314Y-111500000D03*
%TD*%
D10*
%TO.C,D64*%
X154170000Y-111000000D03*
D11*
X156710000Y-111000000D03*
%TD*%
D16*
%TO.C,D123*%
X79290000Y-128005000D03*
D11*
X76750000Y-128005000D03*
%TD*%
D10*
%TO.C,D80*%
X158460000Y-147040000D03*
D11*
X161000000Y-147040000D03*
%TD*%
D10*
%TO.C,D43*%
X102561372Y-142540000D03*
D11*
X105101372Y-142540000D03*
%TD*%
D12*
%TO.C,Q9*%
X222914314Y-139340000D03*
D13*
X222914314Y-140610000D03*
X222914314Y-141880000D03*
%TD*%
D10*
%TO.C,D49*%
X177135686Y-142540000D03*
D11*
X179675686Y-142540000D03*
%TD*%
D17*
%TO.C,C4*%
X198250000Y-65900000D03*
D11*
X198250000Y-67900000D03*
%TD*%
%TO.C,R79*%
X143034314Y-109000000D03*
X143034314Y-111540000D03*
%TD*%
D10*
%TO.C,D51*%
X215750000Y-142790000D03*
D11*
X218290000Y-142790000D03*
%TD*%
D18*
%TO.C,C6*%
X71250000Y-95500000D03*
X71250000Y-88000000D03*
%TD*%
D19*
%TO.C,L1*%
X193050000Y-65150000D03*
X183450000Y-65150000D03*
%TD*%
D11*
%TO.C,R93*%
X154370000Y-67300000D03*
X156910000Y-67300000D03*
%TD*%
D20*
%TO.C,J3*%
X239250000Y-71750000D03*
D21*
X239250000Y-69210000D03*
%TD*%
D12*
%TO.C,Q10*%
X241954314Y-139790000D03*
D13*
X241954314Y-141060000D03*
X241954314Y-142330000D03*
%TD*%
D11*
%TO.C,R58*%
X235864314Y-157580000D03*
X235864314Y-155040000D03*
%TD*%
D16*
%TO.C,D62*%
X149040000Y-156045000D03*
D11*
X146500000Y-156045000D03*
%TD*%
D10*
%TO.C,D84*%
X141420000Y-115500000D03*
D11*
X143960000Y-115500000D03*
%TD*%
D10*
%TO.C,D94*%
X152250000Y-151540000D03*
D11*
X154790000Y-151540000D03*
%TD*%
%TO.C,R51*%
X223074314Y-121545000D03*
X223074314Y-119005000D03*
%TD*%
%TO.C,R31*%
X232824314Y-95210000D03*
X232824314Y-97750000D03*
%TD*%
D10*
%TO.C,D52*%
X228728628Y-143290000D03*
D11*
X231268628Y-143290000D03*
%TD*%
%TO.C,R17*%
X221114314Y-130540000D03*
X221114314Y-133080000D03*
%TD*%
D10*
%TO.C,D125*%
X154160000Y-78550000D03*
D11*
X156700000Y-78550000D03*
%TD*%
%TO.C,R14*%
X166250000Y-130995000D03*
X166250000Y-133535000D03*
%TD*%
%TO.C,R56*%
X180250000Y-157835000D03*
X180250000Y-155295000D03*
%TD*%
D10*
%TO.C,D7*%
X133135686Y-151545000D03*
D11*
X135675686Y-151545000D03*
%TD*%
D12*
%TO.C,Q4*%
X242124314Y-103550000D03*
D13*
X242124314Y-104820000D03*
X242124314Y-106090000D03*
%TD*%
D10*
%TO.C,D98*%
X228824314Y-152290000D03*
D11*
X231364314Y-152290000D03*
%TD*%
%TO.C,R10*%
X81040000Y-144500000D03*
X81040000Y-147040000D03*
%TD*%
D10*
%TO.C,D36*%
X172670000Y-106500000D03*
D11*
X175210000Y-106500000D03*
%TD*%
D12*
%TO.C,Q15*%
X203914314Y-139090000D03*
D13*
X203914314Y-140360000D03*
X203914314Y-141630000D03*
%TD*%
D20*
%TO.C,J1*%
X230000000Y-71790000D03*
D21*
X230000000Y-69250000D03*
%TD*%
D11*
%TO.C,R91*%
X59000000Y-116715000D03*
X59000000Y-119255000D03*
%TD*%
%TO.C,R25*%
X163284314Y-94710000D03*
X163284314Y-97250000D03*
%TD*%
%TO.C,R23*%
X207614314Y-130290000D03*
X207614314Y-132830000D03*
%TD*%
%TO.C,R86*%
X135740000Y-76905000D03*
X135740000Y-79445000D03*
%TD*%
%TO.C,R39*%
X175750000Y-130995000D03*
X175750000Y-133535000D03*
%TD*%
D12*
%TO.C,Q31*%
X126050000Y-70550000D03*
D13*
X126050000Y-71820000D03*
X126050000Y-73090000D03*
%TD*%
D10*
%TO.C,D106*%
X177135686Y-151540000D03*
D11*
X179675686Y-151540000D03*
%TD*%
%TO.C,R73*%
X103675686Y-157040000D03*
X103675686Y-154500000D03*
%TD*%
D10*
%TO.C,D48*%
X170635686Y-142540000D03*
D11*
X173175686Y-142540000D03*
%TD*%
D10*
%TO.C,D39*%
X216324314Y-107000000D03*
D11*
X218864314Y-107000000D03*
%TD*%
D10*
%TO.C,D16*%
X172670000Y-102000000D03*
D11*
X175210000Y-102000000D03*
%TD*%
%TO.C,R15*%
X180500000Y-131040000D03*
X180500000Y-133580000D03*
%TD*%
D10*
%TO.C,D97*%
X209574314Y-151790000D03*
D11*
X212114314Y-151790000D03*
%TD*%
D10*
%TO.C,D22*%
X96061372Y-138040000D03*
D11*
X98601372Y-138040000D03*
%TD*%
%TO.C,R52*%
X237324314Y-121540000D03*
X237324314Y-119000000D03*
%TD*%
%TO.C,R38*%
X171000000Y-130995000D03*
X171000000Y-133535000D03*
%TD*%
%TO.C,R77*%
X217864314Y-157580000D03*
X217864314Y-155040000D03*
%TD*%
D10*
%TO.C,D87*%
X196710000Y-116000000D03*
D11*
X199250000Y-116000000D03*
%TD*%
D10*
%TO.C,D74*%
X160420000Y-111000000D03*
D11*
X162960000Y-111000000D03*
%TD*%
%TO.C,R11*%
X109675686Y-130995000D03*
X109675686Y-133535000D03*
%TD*%
%TO.C,R6*%
X182284314Y-94710000D03*
X182284314Y-97250000D03*
%TD*%
D10*
%TO.C,D110*%
X196845686Y-120500000D03*
D11*
X199385686Y-120500000D03*
%TD*%
D10*
%TO.C,D89*%
X228534314Y-116000000D03*
D11*
X231074314Y-116000000D03*
%TD*%
D10*
%TO.C,D10*%
X190460000Y-120500000D03*
D11*
X193000000Y-120500000D03*
%TD*%
%TO.C,R65*%
X156500000Y-157580000D03*
X156500000Y-155040000D03*
%TD*%
D10*
%TO.C,D33*%
X234864314Y-138790000D03*
D11*
X237404314Y-138790000D03*
%TD*%
D10*
%TO.C,D18*%
X209960000Y-102500000D03*
D11*
X212500000Y-102500000D03*
%TD*%
%TO.C,R53*%
X122675686Y-157040000D03*
X122675686Y-154500000D03*
%TD*%
%TO.C,R70*%
X176534314Y-121045000D03*
X176534314Y-118505000D03*
%TD*%
D10*
%TO.C,D67*%
X228574314Y-111500000D03*
D11*
X231114314Y-111500000D03*
%TD*%
%TO.C,R28*%
X214074314Y-95455000D03*
X214074314Y-97995000D03*
%TD*%
%TO.C,R30*%
X228074314Y-95205000D03*
X228074314Y-97745000D03*
%TD*%
D12*
%TO.C,Q18*%
X223324314Y-112550000D03*
D13*
X223324314Y-113820000D03*
X223324314Y-115090000D03*
%TD*%
D10*
%TO.C,D90*%
X82925686Y-151545000D03*
D11*
X85465686Y-151545000D03*
%TD*%
%TO.C,R95*%
X119550000Y-65295000D03*
X119550000Y-67835000D03*
%TD*%
D10*
%TO.C,D9*%
X134920000Y-119750000D03*
D11*
X137460000Y-119750000D03*
%TD*%
D22*
%TO.C,D3*%
X232290000Y-60500000D03*
D23*
X229750000Y-60500000D03*
%TD*%
D12*
%TO.C,Q16*%
X167084314Y-112000000D03*
D13*
X167084314Y-113270000D03*
X167084314Y-114540000D03*
%TD*%
D11*
%TO.C,R88*%
X137540000Y-62210000D03*
X137540000Y-64750000D03*
%TD*%
D24*
%TO.C,Q33*%
X159620000Y-87800000D03*
D25*
X160890000Y-87800000D03*
X162160000Y-87800000D03*
%TD*%
D10*
%TO.C,D101*%
X216210000Y-116000000D03*
D11*
X218750000Y-116000000D03*
%TD*%
%TO.C,R63*%
X98925686Y-157040000D03*
X98925686Y-154500000D03*
%TD*%
D10*
%TO.C,D23*%
X102425686Y-138040000D03*
D11*
X104965686Y-138040000D03*
%TD*%
D10*
%TO.C,D31*%
X215614314Y-138290000D03*
D11*
X218154314Y-138290000D03*
%TD*%
D26*
%TO.C,J4*%
X150000000Y-54000000D03*
X149000000Y-54000000D03*
X148000000Y-54000000D03*
X147000000Y-54000000D03*
X146000000Y-54000000D03*
X145000000Y-54000000D03*
X144000000Y-54000000D03*
X143000000Y-54000000D03*
X142000000Y-54000000D03*
X141000000Y-54000000D03*
X140000000Y-54000000D03*
X137000000Y-54000000D03*
X136000000Y-54000000D03*
X135000000Y-54000000D03*
X134000000Y-54000000D03*
X133000000Y-54000000D03*
X132000000Y-54000000D03*
X131000000Y-54000000D03*
X130000000Y-54000000D03*
X129000000Y-54000000D03*
X128000000Y-54000000D03*
X127000000Y-54000000D03*
X126000000Y-54000000D03*
X125000000Y-54000000D03*
X124000000Y-54000000D03*
X123000000Y-54000000D03*
X122000000Y-54000000D03*
X121000000Y-54000000D03*
X120000000Y-54000000D03*
X119000000Y-54000000D03*
X118000000Y-54000000D03*
X117000000Y-54000000D03*
X116000000Y-54000000D03*
X115000000Y-54000000D03*
X114000000Y-54000000D03*
X113000000Y-54000000D03*
X112000000Y-54000000D03*
X111000000Y-54000000D03*
X110000000Y-54000000D03*
X109000000Y-54000000D03*
X108000000Y-54000000D03*
X107000000Y-54000000D03*
X106000000Y-54000000D03*
X105000000Y-54000000D03*
X104000000Y-54000000D03*
X103000000Y-54000000D03*
X102000000Y-54000000D03*
X101000000Y-54000000D03*
X100000000Y-54000000D03*
X99000000Y-54000000D03*
X98000000Y-54000000D03*
X97000000Y-54000000D03*
X96000000Y-54000000D03*
X95000000Y-54000000D03*
X94000000Y-54000000D03*
X93000000Y-54000000D03*
X92000000Y-54000000D03*
X91000000Y-54000000D03*
X90000000Y-54000000D03*
X89000000Y-54000000D03*
X88000000Y-54000000D03*
X87000000Y-54000000D03*
X86000000Y-54000000D03*
X85000000Y-54000000D03*
X84000000Y-54000000D03*
X83000000Y-54000000D03*
X82000000Y-54000000D03*
X81000000Y-54000000D03*
X80000000Y-54000000D03*
X79000000Y-54000000D03*
X78000000Y-54000000D03*
X77000000Y-54000000D03*
X76000000Y-54000000D03*
X75000000Y-54000000D03*
X74000000Y-54000000D03*
X73000000Y-54000000D03*
X72000000Y-54000000D03*
X71000000Y-54000000D03*
X70000000Y-54000000D03*
X69000000Y-54000000D03*
D27*
X68000000Y-54550000D03*
D26*
X67000000Y-54000000D03*
%TD*%
D10*
%TO.C,D8*%
X189635686Y-151795000D03*
D11*
X192175686Y-151795000D03*
%TD*%
%TO.C,R46*%
X90540000Y-144545000D03*
X90540000Y-147085000D03*
%TD*%
D10*
%TO.C,D32*%
X228654314Y-138790000D03*
D11*
X231194314Y-138790000D03*
%TD*%
D10*
%TO.C,D71*%
X170635686Y-147040000D03*
D11*
X173175686Y-147040000D03*
%TD*%
D16*
%TO.C,C1*%
X236402651Y-78500000D03*
D11*
X232902651Y-78500000D03*
%TD*%
%TO.C,R18*%
X235114314Y-130540000D03*
X235114314Y-133080000D03*
%TD*%
D10*
%TO.C,D109*%
X141494314Y-120000000D03*
D11*
X144034314Y-120000000D03*
%TD*%
D18*
%TO.C,C5*%
X161910000Y-80300000D03*
X161910000Y-72800000D03*
%TD*%
D28*
%TO.C,U1*%
X192150000Y-73750000D03*
X190450000Y-73750000D03*
X188750000Y-73750000D03*
X187050000Y-73750000D03*
X185350000Y-73750000D03*
D29*
X188750000Y-82900000D03*
%TD*%
D10*
%TO.C,D100*%
X178784314Y-115500000D03*
D11*
X181324314Y-115500000D03*
%TD*%
D12*
%TO.C,Q27*%
X134290000Y-70500000D03*
D13*
X134290000Y-71770000D03*
X134290000Y-73040000D03*
%TD*%
D10*
%TO.C,D26*%
X152135686Y-138040000D03*
D11*
X154675686Y-138040000D03*
%TD*%
%TO.C,R54*%
X117925686Y-157085000D03*
X117925686Y-154545000D03*
%TD*%
D10*
%TO.C,D103*%
X102635686Y-151540000D03*
D11*
X105175686Y-151540000D03*
%TD*%
D10*
%TO.C,D38*%
X210074314Y-107000000D03*
D11*
X212614314Y-107000000D03*
%TD*%
%TO.C,R80*%
X199710000Y-108915000D03*
X199710000Y-111455000D03*
%TD*%
%TO.C,R72*%
X232574314Y-121500000D03*
X232574314Y-118960000D03*
%TD*%
D12*
%TO.C,Q17*%
X186034314Y-112250000D03*
D13*
X186034314Y-113520000D03*
X186034314Y-114790000D03*
%TD*%
D11*
%TO.C,R7*%
X194960000Y-108960000D03*
X194960000Y-111500000D03*
%TD*%
D12*
%TO.C,Q6*%
X128000000Y-139000000D03*
D13*
X128000000Y-140270000D03*
X128000000Y-141540000D03*
%TD*%
D30*
%TO.C,U2*%
X57440000Y-89305000D03*
D11*
X59980000Y-89305000D03*
X62520000Y-89305000D03*
X65060000Y-89305000D03*
X65060000Y-81685000D03*
X62520000Y-81685000D03*
X59980000Y-81685000D03*
X57440000Y-81685000D03*
%TD*%
D10*
%TO.C,D70*%
X152210000Y-147040000D03*
D11*
X154750000Y-147040000D03*
%TD*%
D10*
%TO.C,D105*%
X158500000Y-151540000D03*
D11*
X161040000Y-151540000D03*
%TD*%
D12*
%TO.C,Q29*%
X57800000Y-127805000D03*
D13*
X57800000Y-129075000D03*
X57800000Y-130345000D03*
%TD*%
D10*
%TO.C,D102*%
X235074314Y-116000000D03*
D11*
X237614314Y-116000000D03*
%TD*%
%TO.C,R71*%
X218324314Y-121545000D03*
X218324314Y-119005000D03*
%TD*%
D10*
%TO.C,D79*%
X120811372Y-147040000D03*
D11*
X123351372Y-147040000D03*
%TD*%
D12*
%TO.C,Q28*%
X57800000Y-122055000D03*
D13*
X57800000Y-123325000D03*
X57800000Y-124595000D03*
%TD*%
D11*
%TO.C,R13*%
X137250000Y-144500000D03*
X137250000Y-147040000D03*
%TD*%
D10*
%TO.C,D88*%
X209960000Y-116000000D03*
D11*
X212500000Y-116000000D03*
%TD*%
D10*
%TO.C,D93*%
X139385686Y-151545000D03*
D11*
X141925686Y-151545000D03*
%TD*%
D10*
%TO.C,D19*%
X216210000Y-102500000D03*
D11*
X218750000Y-102500000D03*
%TD*%
%TO.C,R62*%
X227824314Y-121545000D03*
X227824314Y-119005000D03*
%TD*%
D17*
%TO.C,C3*%
X176250000Y-66997349D03*
D11*
X176250000Y-70497349D03*
%TD*%
%TO.C,R50*%
X181284314Y-121045000D03*
X181284314Y-118505000D03*
%TD*%
D10*
%TO.C,D114*%
X63635686Y-123505000D03*
D11*
X66175686Y-123505000D03*
%TD*%
D16*
%TO.C,D128*%
X122000000Y-91750000D03*
D11*
X119460000Y-91750000D03*
%TD*%
D10*
%TO.C,D50*%
X209324314Y-142790000D03*
D11*
X211864314Y-142790000D03*
%TD*%
D10*
%TO.C,D78*%
X102561372Y-147040000D03*
D11*
X105101372Y-147040000D03*
%TD*%
D10*
%TO.C,D124*%
X125000000Y-87250000D03*
D11*
X127540000Y-87250000D03*
%TD*%
D10*
%TO.C,D111*%
X83040000Y-156045000D03*
D11*
X85580000Y-156045000D03*
%TD*%
D10*
%TO.C,D108*%
X235000000Y-152290000D03*
D11*
X237540000Y-152290000D03*
%TD*%
D30*
%TO.C,D2*%
X197000000Y-74764314D03*
D11*
X197000000Y-72224314D03*
%TD*%
D16*
%TO.C,D120*%
X79364314Y-123505000D03*
D11*
X76824314Y-123505000D03*
%TD*%
%TO.C,R84*%
X68500000Y-116710000D03*
X68500000Y-119250000D03*
%TD*%
D22*
%TO.C,D129*%
X61205000Y-60500000D03*
D23*
X58665000Y-60500000D03*
%TD*%
D11*
%TO.C,R29*%
X218824314Y-95250000D03*
X218824314Y-97790000D03*
%TD*%
D10*
%TO.C,D11*%
X76790000Y-156045000D03*
D11*
X79330000Y-156045000D03*
%TD*%
D12*
%TO.C,Q5*%
X109425686Y-139020000D03*
D13*
X109425686Y-140290000D03*
X109425686Y-141560000D03*
%TD*%
D10*
%TO.C,D44*%
X114635686Y-142540000D03*
D11*
X117175686Y-142540000D03*
%TD*%
%TO.C,R8*%
X223324314Y-95210000D03*
X223324314Y-97750000D03*
%TD*%
D12*
%TO.C,Q21*%
X127725686Y-148040000D03*
D13*
X127725686Y-149310000D03*
X127725686Y-150580000D03*
%TD*%
D10*
%TO.C,D45*%
X120885686Y-142540000D03*
D11*
X123425686Y-142540000D03*
%TD*%
%TO.C,R57*%
X222364314Y-157580000D03*
X222364314Y-155040000D03*
%TD*%
%TO.C,R41*%
X216614314Y-130290000D03*
X216614314Y-132830000D03*
%TD*%
D10*
%TO.C,D68*%
X96135686Y-147040000D03*
D11*
X98675686Y-147040000D03*
%TD*%
D16*
%TO.C,D61*%
X92654314Y-156045000D03*
D11*
X90114314Y-156045000D03*
%TD*%
%TO.C,R82*%
X142000000Y-144500000D03*
X142000000Y-147040000D03*
%TD*%
%TO.C,R36*%
X157000000Y-131000000D03*
X157000000Y-133540000D03*
%TD*%
D10*
%TO.C,D81*%
X177135686Y-147040000D03*
D11*
X179675686Y-147040000D03*
%TD*%
D12*
%TO.C,Q19*%
X242074314Y-112500000D03*
D13*
X242074314Y-113770000D03*
X242074314Y-115040000D03*
%TD*%
D16*
%TO.C,D63*%
X205864315Y-156295000D03*
D11*
X203324315Y-156295000D03*
%TD*%
D10*
%TO.C,D122*%
X139925686Y-73500000D03*
D11*
X142465686Y-73500000D03*
%TD*%
%TO.C,R34*%
X114175686Y-130995000D03*
X114175686Y-133535000D03*
%TD*%
D10*
%TO.C,D25*%
X120960000Y-137790000D03*
D11*
X123500000Y-137790000D03*
%TD*%
%TO.C,R40*%
X212114314Y-130290000D03*
X212114314Y-132830000D03*
%TD*%
D10*
%TO.C,D77*%
X235074314Y-111500000D03*
D11*
X237614314Y-111500000D03*
%TD*%
D12*
%TO.C,Q2*%
X186084314Y-103050000D03*
D13*
X186084314Y-104320000D03*
X186084314Y-105590000D03*
%TD*%
D11*
%TO.C,R19*%
X153784314Y-94705000D03*
X153784314Y-97245000D03*
%TD*%
%TO.C,R94*%
X126050000Y-65300000D03*
X126050000Y-67840000D03*
%TD*%
D16*
%TO.C,D55*%
X206500000Y-116000000D03*
D11*
X203960000Y-116000000D03*
%TD*%
D10*
%TO.C,D17*%
X179034314Y-102000000D03*
D11*
X181574314Y-102000000D03*
%TD*%
D10*
%TO.C,D104*%
X120811372Y-151540000D03*
D11*
X123351372Y-151540000D03*
%TD*%
D17*
%TO.C,C2*%
X178250000Y-75150000D03*
D11*
X178250000Y-77150000D03*
%TD*%
D12*
%TO.C,Q24*%
X222914314Y-148340000D03*
D13*
X222914314Y-149610000D03*
X222914314Y-150880000D03*
%TD*%
D16*
%TO.C,D59*%
X151034314Y-120000000D03*
D11*
X148494314Y-120000000D03*
%TD*%
%TO.C,R97*%
X154365000Y-83050000D03*
X156905000Y-83050000D03*
%TD*%
D18*
%TO.C,C7*%
X71250000Y-82250000D03*
X71250000Y-74750000D03*
%TD*%
D31*
%TO.C,P1*%
X216400000Y-65512500D03*
X210600000Y-65512500D03*
D32*
X217830000Y-66012500D03*
X209170000Y-66012500D03*
D33*
X209170000Y-61832500D03*
X217830000Y-61832500D03*
D34*
X216850000Y-66772500D03*
X216050000Y-66772500D03*
X214750000Y-66772500D03*
X213750000Y-66772500D03*
X213250000Y-66772500D03*
X212250000Y-66772500D03*
X210950000Y-66772500D03*
X210150000Y-66772500D03*
X210450000Y-66772500D03*
X211250000Y-66772500D03*
X211750000Y-66772500D03*
X212750000Y-66772500D03*
X214250000Y-66772500D03*
X215250000Y-66772500D03*
X215750000Y-66772500D03*
X216550000Y-66772500D03*
%TD*%
D11*
%TO.C,R22*%
X152250000Y-130790000D03*
X152250000Y-133330000D03*
%TD*%
D10*
%TO.C,D14*%
X153920000Y-102000000D03*
D11*
X156460000Y-102000000D03*
%TD*%
D12*
%TO.C,Q14*%
X146200000Y-138990000D03*
D13*
X146200000Y-140260000D03*
X146200000Y-141530000D03*
%TD*%
D11*
%TO.C,R99*%
X57750000Y-78545000D03*
X57750000Y-76005000D03*
%TD*%
D16*
%TO.C,D56*%
X92540000Y-151545000D03*
D11*
X90000000Y-151545000D03*
%TD*%
%TO.C,R27*%
X177534314Y-94705000D03*
X177534314Y-97245000D03*
%TD*%
%TO.C,R35*%
X118925686Y-131040000D03*
X118925686Y-133580000D03*
%TD*%
%TO.C,R92*%
X63750000Y-116710000D03*
X63750000Y-119250000D03*
%TD*%
%TO.C,R85*%
X73250000Y-116755000D03*
X73250000Y-119295000D03*
%TD*%
%TO.C,R76*%
X175500000Y-157790000D03*
X175500000Y-155250000D03*
%TD*%
%TO.C,R81*%
X85790000Y-144500000D03*
X85790000Y-147040000D03*
%TD*%
D16*
%TO.C,D1*%
X199250000Y-77650000D03*
D11*
X196710000Y-77650000D03*
%TD*%
D12*
%TO.C,Q20*%
X109475686Y-148090000D03*
D13*
X109475686Y-149360000D03*
X109475686Y-150630000D03*
%TD*%
D12*
%TO.C,Q7*%
X165550000Y-139090000D03*
D13*
X165550000Y-140360000D03*
X165550000Y-141630000D03*
%TD*%
D11*
%TO.C,R89*%
X142290000Y-62210000D03*
X142290000Y-64750000D03*
%TD*%
D10*
%TO.C,D107*%
X215750000Y-151790000D03*
D11*
X218290000Y-151790000D03*
%TD*%
%TO.C,R59*%
X157534314Y-121045000D03*
X157534314Y-118505000D03*
%TD*%
D10*
%TO.C,D96*%
X196210000Y-151795000D03*
D11*
X198750000Y-151795000D03*
%TD*%
%TO.C,R61*%
X213574314Y-121500000D03*
X213574314Y-118960000D03*
%TD*%
%TO.C,R96*%
X154365000Y-87800000D03*
X156905000Y-87800000D03*
%TD*%
%TO.C,R47*%
X146750000Y-144500000D03*
X146750000Y-147040000D03*
%TD*%
D10*
%TO.C,D75*%
X178920000Y-111000000D03*
D11*
X181460000Y-111000000D03*
%TD*%
%TO.C,R49*%
X167034314Y-121000000D03*
X167034314Y-118460000D03*
%TD*%
%TO.C,R24*%
X158534314Y-94705000D03*
X158534314Y-97245000D03*
%TD*%
D16*
%TO.C,D126*%
X122000000Y-87250000D03*
D11*
X119460000Y-87250000D03*
%TD*%
D10*
%TO.C,D86*%
X172670000Y-115500000D03*
D11*
X175210000Y-115500000D03*
%TD*%
D12*
%TO.C,Q22*%
X165550000Y-148040000D03*
D13*
X165550000Y-149310000D03*
X165550000Y-150580000D03*
%TD*%
D12*
%TO.C,Q26*%
X134290000Y-85250000D03*
D13*
X134290000Y-86520000D03*
X134290000Y-87790000D03*
%TD*%
D11*
%TO.C,R67*%
X213114314Y-157585000D03*
X213114314Y-155045000D03*
%TD*%
%TO.C,R3*%
X232250000Y-64750000D03*
X229710000Y-64750000D03*
%TD*%
D16*
%TO.C,D58*%
X205750000Y-151795000D03*
D11*
X203210000Y-151795000D03*
%TD*%
%TO.C,R37*%
X161500000Y-130995000D03*
X161500000Y-133535000D03*
%TD*%
%TO.C,R4*%
X138284314Y-109000000D03*
X138284314Y-111540000D03*
%TD*%
D10*
%TO.C,D5*%
X190345686Y-116000000D03*
D11*
X192885686Y-116000000D03*
%TD*%
D10*
%TO.C,D42*%
X96311372Y-142540000D03*
D11*
X98851372Y-142540000D03*
%TD*%
D10*
%TO.C,D73*%
X228824314Y-147790000D03*
D11*
X231364314Y-147790000D03*
%TD*%
D24*
%TO.C,Q30*%
X154460000Y-73250000D03*
D25*
X155730000Y-73250000D03*
X157000000Y-73250000D03*
%TD*%
D11*
%TO.C,R66*%
X170750000Y-157830000D03*
X170750000Y-155290000D03*
%TD*%
%TO.C,R32*%
X100175686Y-130995000D03*
X100175686Y-133535000D03*
%TD*%
D10*
%TO.C,D119*%
X69885686Y-128005000D03*
D11*
X72425686Y-128005000D03*
%TD*%
D10*
%TO.C,D115*%
X69885686Y-123505000D03*
D11*
X72425686Y-123505000D03*
%TD*%
D10*
%TO.C,D82*%
X215750000Y-147290000D03*
D11*
X218290000Y-147290000D03*
%TD*%
D10*
%TO.C,D127*%
X125000000Y-91750000D03*
D11*
X127540000Y-91750000D03*
%TD*%
D10*
%TO.C,D37*%
X179170000Y-106500000D03*
D11*
X181710000Y-106500000D03*
%TD*%
D10*
%TO.C,D27*%
X158500000Y-138040000D03*
D11*
X161040000Y-138040000D03*
%TD*%
D10*
%TO.C,D72*%
X209574314Y-147290000D03*
D11*
X212114314Y-147290000D03*
%TD*%
%TO.C,R45*%
X204460000Y-108960000D03*
X204460000Y-111500000D03*
%TD*%
D10*
%TO.C,D85*%
X154170000Y-115500000D03*
D11*
X156710000Y-115500000D03*
%TD*%
D10*
%TO.C,D76*%
X216210000Y-111500000D03*
D11*
X218750000Y-111500000D03*
%TD*%
D12*
%TO.C,Q13*%
X90725686Y-138845000D03*
D13*
X90725686Y-140115000D03*
X90725686Y-141385000D03*
%TD*%
D16*
%TO.C,D57*%
X149000000Y-151545000D03*
D11*
X146460000Y-151545000D03*
%TD*%
D10*
%TO.C,D21*%
X235210000Y-102500000D03*
D11*
X237750000Y-102500000D03*
%TD*%
D10*
%TO.C,D83*%
X235000000Y-147790000D03*
D11*
X237540000Y-147790000D03*
%TD*%
D10*
%TO.C,D92*%
X114425686Y-151540000D03*
D11*
X116965686Y-151540000D03*
%TD*%
%TO.C,R90*%
X78000000Y-116710000D03*
X78000000Y-119250000D03*
%TD*%
D10*
%TO.C,D65*%
X172670000Y-111000000D03*
D11*
X175210000Y-111000000D03*
%TD*%
%TO.C,R69*%
X162284314Y-121045000D03*
X162284314Y-118505000D03*
%TD*%
%TO.C,R87*%
X140490000Y-76910000D03*
X140490000Y-79450000D03*
%TD*%
%TO.C,R78*%
X231364314Y-157585000D03*
X231364314Y-155045000D03*
%TD*%
%TO.C,R100*%
X121114314Y-80205000D03*
X121114314Y-82745000D03*
%TD*%
D10*
%TO.C,D66*%
X210034314Y-111500000D03*
D11*
X212574314Y-111500000D03*
%TD*%
%TO.C,R42*%
X225864314Y-130495000D03*
X225864314Y-133035000D03*
%TD*%
D12*
%TO.C,Q1*%
X167034314Y-103000000D03*
D13*
X167034314Y-104270000D03*
X167034314Y-105540000D03*
%TD*%
D12*
%TO.C,Q23*%
X184050000Y-148090000D03*
D13*
X184050000Y-149360000D03*
X184050000Y-150630000D03*
%TD*%
D16*
%TO.C,D54*%
X151148628Y-115500000D03*
D11*
X148608628Y-115500000D03*
%TD*%
%TO.C,R43*%
X230614314Y-130540000D03*
X230614314Y-133080000D03*
%TD*%
D10*
%TO.C,D116*%
X139700000Y-83700000D03*
D11*
X142240000Y-83700000D03*
%TD*%
D10*
%TO.C,D113*%
X196250000Y-156295000D03*
D11*
X198790000Y-156295000D03*
%TD*%
D10*
%TO.C,D69*%
X114460000Y-147040000D03*
D11*
X117000000Y-147040000D03*
%TD*%
D10*
%TO.C,D15*%
X160170000Y-102000000D03*
D11*
X162710000Y-102000000D03*
%TD*%
D10*
%TO.C,D4*%
X134920000Y-115500000D03*
D11*
X137460000Y-115500000D03*
%TD*%
%TO.C,R26*%
X172784314Y-94710000D03*
X172784314Y-97250000D03*
%TD*%
D10*
%TO.C,D20*%
X229034314Y-102500000D03*
D11*
X231574314Y-102500000D03*
%TD*%
D10*
%TO.C,D118*%
X63635686Y-128005000D03*
D11*
X66175686Y-128005000D03*
%TD*%
D10*
%TO.C,D46*%
X152250000Y-142540000D03*
D11*
X154790000Y-142540000D03*
%TD*%
D10*
%TO.C,D30*%
X209324314Y-138290000D03*
D11*
X211864314Y-138290000D03*
%TD*%
%TO.C,R55*%
X166000000Y-157830000D03*
X166000000Y-155290000D03*
%TD*%
M02*
