%TF.GenerationSoftware,KiCad,Pcbnew,9.0.2*%
%TF.CreationDate,2026-05-12T22:16:29-04:00*%
%TF.ProjectId,Santas Microfactory - Chutes PCB 2,53616e74-6173-4204-9d69-63726f666163,rev?*%
%TF.SameCoordinates,Original*%
%TF.FileFunction,Legend,Bot*%
%TF.FilePolarity,Positive*%
%FSLAX46Y46*%
G04 Gerber Fmt 4.6, Leading zero omitted, Abs format (unit mm)*
G04 Created by KiCad (PCBNEW 9.0.2) date 2026-05-12 22:16:29*
%MOMM*%
%LPD*%
G01*
G04 APERTURE LIST*
%ADD10C,0.300000*%
%ADD11C,0.000000*%
G04 APERTURE END LIST*
D10*
X58749757Y-121178572D02*
X58678328Y-121035715D01*
X58678328Y-121035715D02*
X58678328Y-120821429D01*
X58678328Y-120821429D02*
X58749757Y-120607143D01*
X58749757Y-120607143D02*
X58892614Y-120464286D01*
X58892614Y-120464286D02*
X59035471Y-120392857D01*
X59035471Y-120392857D02*
X59321185Y-120321429D01*
X59321185Y-120321429D02*
X59535471Y-120321429D01*
X59535471Y-120321429D02*
X59821185Y-120392857D01*
X59821185Y-120392857D02*
X59964042Y-120464286D01*
X59964042Y-120464286D02*
X60106900Y-120607143D01*
X60106900Y-120607143D02*
X60178328Y-120821429D01*
X60178328Y-120821429D02*
X60178328Y-120964286D01*
X60178328Y-120964286D02*
X60106900Y-121178572D01*
X60106900Y-121178572D02*
X60035471Y-121250000D01*
X60035471Y-121250000D02*
X59535471Y-121250000D01*
X59535471Y-121250000D02*
X59535471Y-120964286D01*
X58678328Y-122107143D02*
X59035471Y-122107143D01*
X58892614Y-121750000D02*
X59035471Y-122107143D01*
X59035471Y-122107143D02*
X58892614Y-122464286D01*
X59321185Y-121892857D02*
X59035471Y-122107143D01*
X59035471Y-122107143D02*
X59321185Y-122321429D01*
X58678328Y-123250000D02*
X59035471Y-123250000D01*
X58892614Y-122892857D02*
X59035471Y-123250000D01*
X59035471Y-123250000D02*
X58892614Y-123607143D01*
X59321185Y-123035714D02*
X59035471Y-123250000D01*
X59035471Y-123250000D02*
X59321185Y-123464286D01*
X58678328Y-124392857D02*
X59035471Y-124392857D01*
X58892614Y-124035714D02*
X59035471Y-124392857D01*
X59035471Y-124392857D02*
X58892614Y-124750000D01*
X59321185Y-124178571D02*
X59035471Y-124392857D01*
X59035471Y-124392857D02*
X59321185Y-124607143D01*
D11*
%TO.C,G\u002A\u002A\u002A*%
G36*
X80036170Y-122500000D02*
G01*
X80036170Y-200591489D01*
X59500000Y-200591489D01*
X38963830Y-200591489D01*
X38963830Y-122500000D01*
X40585107Y-122500000D01*
X40585107Y-198970213D01*
X59500000Y-198970213D01*
X78414894Y-198970213D01*
X78414894Y-122500000D01*
X78414894Y-46029787D01*
X59500000Y-46029787D01*
X40585107Y-46029787D01*
X40585107Y-122500000D01*
X38963830Y-122500000D01*
X38963830Y-44408511D01*
X59500000Y-44408511D01*
X80036170Y-44408511D01*
X80036170Y-122500000D01*
G37*
G36*
X60140852Y-120612222D02*
G01*
X60964109Y-120643254D01*
X61421832Y-120726678D01*
X61619277Y-120887052D01*
X61661702Y-121148936D01*
X61631896Y-121388301D01*
X61435235Y-121583022D01*
X60945942Y-121669643D01*
X60040426Y-121689362D01*
X59322332Y-121699297D01*
X58738170Y-121764851D01*
X58478306Y-121927949D01*
X58419149Y-122229787D01*
X58448955Y-122469152D01*
X58645617Y-122663873D01*
X59134910Y-122750494D01*
X60040426Y-122770213D01*
X60758519Y-122780148D01*
X61342682Y-122845702D01*
X61602546Y-123008800D01*
X61661702Y-123310638D01*
X61644082Y-123508131D01*
X61475337Y-123729142D01*
X61021859Y-123828207D01*
X60156231Y-123851064D01*
X59418133Y-123819316D01*
X58519545Y-123599673D01*
X58028089Y-123135263D01*
X57878724Y-122384195D01*
X57878719Y-122379046D01*
X57757775Y-121842675D01*
X57338298Y-121689362D01*
X56988942Y-121778179D01*
X56797873Y-122229787D01*
X56848542Y-122543897D01*
X57068085Y-122770213D01*
X57225140Y-122871552D01*
X57338298Y-123310638D01*
X57307243Y-123672957D01*
X57109201Y-123820150D01*
X56661640Y-123513298D01*
X56426842Y-123146786D01*
X56282873Y-122390802D01*
X56354453Y-121586311D01*
X56643465Y-120994529D01*
X56675731Y-120964979D01*
X57148968Y-120760125D01*
X58015065Y-120644710D01*
X59345593Y-120608511D01*
X60140852Y-120612222D01*
G37*
G36*
X60396181Y-116324606D02*
G01*
X61148051Y-116611228D01*
X61545490Y-117241265D01*
X61661702Y-118292401D01*
X61661702Y-119527660D01*
X59770213Y-119527660D01*
X58959575Y-119527660D01*
X58814859Y-119527616D01*
X57633348Y-119518305D01*
X56884667Y-119479174D01*
X56471001Y-119390661D01*
X56294533Y-119233202D01*
X56257447Y-118987234D01*
X56265810Y-118847730D01*
X56474723Y-118531736D01*
X57068085Y-118446809D01*
X57434115Y-118429320D01*
X57795156Y-118247646D01*
X57852692Y-117906383D01*
X58419149Y-117906383D01*
X58424930Y-118031383D01*
X58555676Y-118297586D01*
X58959839Y-118418356D01*
X59770213Y-118446809D01*
X60082712Y-118444496D01*
X60748221Y-118392198D01*
X61050145Y-118230533D01*
X61121277Y-117906383D01*
X61115496Y-117781383D01*
X60984751Y-117515180D01*
X60580587Y-117394410D01*
X59770213Y-117365958D01*
X59457714Y-117368270D01*
X58792206Y-117420568D01*
X58490281Y-117582234D01*
X58419149Y-117906383D01*
X57852692Y-117906383D01*
X57878724Y-117751976D01*
X57878857Y-117726579D01*
X58090833Y-116917956D01*
X58716253Y-116441368D01*
X59770213Y-116285107D01*
X60396181Y-116324606D01*
G37*
G36*
X61548544Y-181237509D02*
G01*
X61661702Y-181676596D01*
X61750519Y-182025952D01*
X62202128Y-182217021D01*
X62551484Y-182305838D01*
X62742553Y-182757447D01*
X62653737Y-183106803D01*
X62202128Y-183297872D01*
X61852772Y-183386689D01*
X61661702Y-183838298D01*
X61611033Y-184152407D01*
X61391490Y-184378724D01*
X61234435Y-184277385D01*
X61121277Y-183838298D01*
X61120581Y-183791134D01*
X61021315Y-183476845D01*
X60658138Y-183332552D01*
X59893915Y-183297872D01*
X59560985Y-183286180D01*
X58776022Y-183166799D01*
X58282916Y-182960107D01*
X58245848Y-182924159D01*
X58003522Y-182462911D01*
X57896115Y-181868498D01*
X57939347Y-181354919D01*
X58148936Y-181136170D01*
X58305991Y-181237509D01*
X58419149Y-181676596D01*
X58424930Y-181801596D01*
X58555676Y-182067799D01*
X58959839Y-182188569D01*
X59770213Y-182217021D01*
X60082712Y-182214709D01*
X60748221Y-182162411D01*
X61050145Y-182000745D01*
X61121277Y-181676596D01*
X61171946Y-181362487D01*
X61391490Y-181136170D01*
X61548544Y-181237509D01*
G37*
G36*
X59996282Y-176820207D02*
G01*
X60771268Y-176952789D01*
X61275684Y-177198784D01*
X61455779Y-177460589D01*
X61640980Y-178218391D01*
X61580948Y-179046632D01*
X61275684Y-179669301D01*
X61201177Y-179731778D01*
X60570315Y-179966410D01*
X59770213Y-180039477D01*
X59711154Y-180044870D01*
X58867440Y-179963228D01*
X58282916Y-179717553D01*
X58048118Y-179351041D01*
X57904150Y-178595057D01*
X57918476Y-178434043D01*
X58419149Y-178434043D01*
X58424930Y-178559042D01*
X58555676Y-178825246D01*
X58959839Y-178946015D01*
X59770213Y-178974468D01*
X60082712Y-178972156D01*
X60748221Y-178919858D01*
X61050145Y-178758192D01*
X61121277Y-178434043D01*
X61115496Y-178309043D01*
X60984751Y-178042840D01*
X60580587Y-177922070D01*
X59770213Y-177893617D01*
X59457714Y-177895930D01*
X58792206Y-177948228D01*
X58490281Y-178109893D01*
X58419149Y-178434043D01*
X57918476Y-178434043D01*
X57975730Y-177790567D01*
X58264742Y-177198784D01*
X58361711Y-177123395D01*
X58967716Y-176901877D01*
X59770213Y-176812766D01*
X59996282Y-176820207D01*
G37*
G36*
X61548544Y-168267296D02*
G01*
X61661702Y-168706383D01*
X61750519Y-169055739D01*
X62202128Y-169246809D01*
X62551484Y-169335626D01*
X62742553Y-169787234D01*
X62653737Y-170136590D01*
X62202128Y-170327660D01*
X61852772Y-170416477D01*
X61661702Y-170868085D01*
X61611033Y-171182194D01*
X61391490Y-171408511D01*
X61234435Y-171307172D01*
X61121277Y-170868085D01*
X61120581Y-170820921D01*
X61021315Y-170506632D01*
X60658138Y-170362339D01*
X59893915Y-170327660D01*
X59560985Y-170315968D01*
X58776022Y-170196586D01*
X58282916Y-169989894D01*
X58245848Y-169953946D01*
X58003522Y-169492698D01*
X57896115Y-168898286D01*
X57939347Y-168384706D01*
X58148936Y-168165958D01*
X58305991Y-168267296D01*
X58419149Y-168706383D01*
X58424930Y-168831383D01*
X58555676Y-169097586D01*
X58959839Y-169218356D01*
X59770213Y-169246809D01*
X60082712Y-169244496D01*
X60748221Y-169192198D01*
X61050145Y-169030533D01*
X61121277Y-168706383D01*
X61171946Y-168392274D01*
X61391490Y-168165958D01*
X61548544Y-168267296D01*
G37*
G36*
X60714997Y-163927995D02*
G01*
X61275684Y-164228572D01*
X61455779Y-164490376D01*
X61640980Y-165248178D01*
X61580948Y-166076419D01*
X61275684Y-166699088D01*
X61201177Y-166761566D01*
X60580851Y-166992279D01*
X60570315Y-166996198D01*
X59711154Y-167074657D01*
X58867440Y-166993015D01*
X58282916Y-166747341D01*
X58048118Y-166380828D01*
X57904150Y-165624844D01*
X57975730Y-164820354D01*
X58264742Y-164228572D01*
X58607939Y-163932781D01*
X58880740Y-163918631D01*
X58959575Y-164382979D01*
X58908905Y-164697088D01*
X58689362Y-164923404D01*
X58532307Y-165024743D01*
X58419149Y-165463830D01*
X58507966Y-165813186D01*
X58959575Y-166004255D01*
X59271507Y-165943061D01*
X59454681Y-165630536D01*
X59465365Y-165463830D01*
X60040426Y-165463830D01*
X60129243Y-165813186D01*
X60580851Y-166004255D01*
X60930208Y-165915439D01*
X61121277Y-165463830D01*
X61032460Y-165114474D01*
X60580851Y-164923404D01*
X60231495Y-165012221D01*
X60040426Y-165463830D01*
X59465365Y-165463830D01*
X59500000Y-164923404D01*
X59500376Y-164804777D01*
X59548846Y-164168489D01*
X59747636Y-163898608D01*
X60194833Y-163842553D01*
X60714997Y-163927995D01*
G37*
G36*
X59433919Y-159703786D02*
G01*
X59865080Y-160255657D01*
X60040426Y-160986018D01*
X60040431Y-160991167D01*
X60161375Y-161527538D01*
X60580851Y-161680851D01*
X60930208Y-161592034D01*
X61121277Y-161140426D01*
X61070608Y-160826317D01*
X60851064Y-160600000D01*
X60694010Y-160498661D01*
X60580851Y-160059575D01*
X60619639Y-159678898D01*
X60831262Y-159557099D01*
X61275684Y-159905167D01*
X61574917Y-160422376D01*
X61655600Y-161181895D01*
X61488284Y-161942261D01*
X61115767Y-162527516D01*
X60580851Y-162761702D01*
X60106507Y-162577066D01*
X59675346Y-162025195D01*
X59500000Y-161294833D01*
X59499996Y-161289684D01*
X59379051Y-160753313D01*
X58959575Y-160600000D01*
X58610219Y-160688817D01*
X58419149Y-161140426D01*
X58469819Y-161454535D01*
X58689362Y-161680851D01*
X58846417Y-161782190D01*
X58959575Y-162221277D01*
X58928520Y-162583595D01*
X58730477Y-162730788D01*
X58282916Y-162423936D01*
X57951042Y-161854908D01*
X57890758Y-161099385D01*
X58066330Y-160339863D01*
X58436391Y-159753924D01*
X58959575Y-159519149D01*
X59433919Y-159703786D01*
G37*
G36*
X61548544Y-155297084D02*
G01*
X61661702Y-155736170D01*
X61750519Y-156085527D01*
X62202128Y-156276596D01*
X62551484Y-156365413D01*
X62742553Y-156817021D01*
X62653737Y-157166378D01*
X62202128Y-157357447D01*
X61852772Y-157446264D01*
X61661702Y-157897872D01*
X61611033Y-158211982D01*
X61391490Y-158438298D01*
X61234435Y-158336959D01*
X61121277Y-157897872D01*
X61120581Y-157850708D01*
X61021315Y-157536420D01*
X60658138Y-157392126D01*
X59893915Y-157357447D01*
X59560985Y-157345755D01*
X58776022Y-157226374D01*
X58282916Y-157019681D01*
X58245848Y-156983733D01*
X58003522Y-156522486D01*
X57896115Y-155928073D01*
X57939347Y-155414493D01*
X58148936Y-155195745D01*
X58305991Y-155297084D01*
X58419149Y-155736170D01*
X58424930Y-155861170D01*
X58555676Y-156127373D01*
X58959839Y-156248143D01*
X59770213Y-156276596D01*
X60082712Y-156274283D01*
X60748221Y-156221985D01*
X61050145Y-156060320D01*
X61121277Y-155736170D01*
X61171946Y-155422061D01*
X61391490Y-155195745D01*
X61548544Y-155297084D01*
G37*
G36*
X61548544Y-146650275D02*
G01*
X61661702Y-147089362D01*
X61750519Y-147438718D01*
X62202128Y-147629787D01*
X62551484Y-147718604D01*
X62742553Y-148170213D01*
X62653737Y-148519569D01*
X62202128Y-148710638D01*
X61852772Y-148799455D01*
X61661702Y-149251064D01*
X61611033Y-149565173D01*
X61391490Y-149791489D01*
X61234435Y-149690151D01*
X61121277Y-149251064D01*
X61120581Y-149203900D01*
X61021315Y-148889611D01*
X60658138Y-148745318D01*
X59893915Y-148710638D01*
X59560985Y-148698946D01*
X58776022Y-148579565D01*
X58282916Y-148372872D01*
X58245848Y-148336925D01*
X58003522Y-147875677D01*
X57896115Y-147281264D01*
X57939347Y-146767685D01*
X58148936Y-146548936D01*
X58305991Y-146650275D01*
X58419149Y-147089362D01*
X58424930Y-147214362D01*
X58555676Y-147480565D01*
X58959839Y-147601335D01*
X59770213Y-147629787D01*
X60082712Y-147627475D01*
X60748221Y-147575177D01*
X61050145Y-147413511D01*
X61121277Y-147089362D01*
X61171946Y-146775253D01*
X61391490Y-146548936D01*
X61548544Y-146650275D01*
G37*
G36*
X60122293Y-142257280D02*
G01*
X61020881Y-142476923D01*
X61512337Y-142941333D01*
X61661702Y-143692401D01*
X61661707Y-143697550D01*
X61782651Y-144233921D01*
X62202128Y-144387234D01*
X62551484Y-144476051D01*
X62742553Y-144927660D01*
X62719003Y-145140743D01*
X62567392Y-145318242D01*
X62184034Y-145416726D01*
X61466069Y-145459055D01*
X60310639Y-145468085D01*
X59351763Y-145462852D01*
X58553020Y-145429161D01*
X58109838Y-145343970D01*
X57919359Y-145184422D01*
X57878724Y-144927660D01*
X57908530Y-144688295D01*
X58105191Y-144493574D01*
X58594484Y-144406953D01*
X59500000Y-144387234D01*
X60218094Y-144377299D01*
X60802256Y-144311745D01*
X61062120Y-144148647D01*
X61121277Y-143846809D01*
X61091471Y-143607444D01*
X60894809Y-143412723D01*
X60405516Y-143326102D01*
X59500000Y-143306383D01*
X58781907Y-143296448D01*
X58197744Y-143230894D01*
X57937880Y-143067796D01*
X57878724Y-142765958D01*
X57896344Y-142568465D01*
X58065089Y-142347454D01*
X58518567Y-142248389D01*
X59384195Y-142225532D01*
X60122293Y-142257280D01*
G37*
G36*
X59732693Y-137909024D02*
G01*
X60712888Y-138031071D01*
X61275684Y-138288146D01*
X61455779Y-138549951D01*
X61640980Y-139307752D01*
X61580948Y-140135993D01*
X61275684Y-140758663D01*
X60932487Y-141054453D01*
X60659686Y-141068603D01*
X60580851Y-140604255D01*
X60631521Y-140290146D01*
X60851064Y-140063830D01*
X61008119Y-139962491D01*
X61121277Y-139523404D01*
X61032460Y-139174048D01*
X60580851Y-138982979D01*
X60576847Y-138982985D01*
X60159669Y-139138485D01*
X60040426Y-139677812D01*
X59912457Y-140372653D01*
X59497307Y-140920428D01*
X58959575Y-141077935D01*
X58913078Y-141091554D01*
X58282916Y-140806915D01*
X58202448Y-140712962D01*
X57978914Y-140097413D01*
X57922310Y-139523404D01*
X58419149Y-139523404D01*
X58507966Y-139872761D01*
X58959575Y-140063830D01*
X59308931Y-139975013D01*
X59500000Y-139523404D01*
X59411183Y-139174048D01*
X58959575Y-138982979D01*
X58610219Y-139071796D01*
X58419149Y-139523404D01*
X57922310Y-139523404D01*
X57889002Y-139185638D01*
X57878724Y-137902128D01*
X59384195Y-137902128D01*
X59732693Y-137909024D01*
G37*
G36*
X61548544Y-133680062D02*
G01*
X61661702Y-134119149D01*
X61750519Y-134468505D01*
X62202128Y-134659575D01*
X62551484Y-134748392D01*
X62742553Y-135200000D01*
X62653737Y-135549356D01*
X62202128Y-135740426D01*
X61852772Y-135829243D01*
X61661702Y-136280851D01*
X61611033Y-136594960D01*
X61391490Y-136821277D01*
X61234435Y-136719938D01*
X61121277Y-136280851D01*
X61120581Y-136233687D01*
X61021315Y-135919398D01*
X60658138Y-135775105D01*
X59893915Y-135740426D01*
X59560985Y-135728734D01*
X58776022Y-135609352D01*
X58282916Y-135402660D01*
X58245848Y-135366712D01*
X58003522Y-134905464D01*
X57896115Y-134311052D01*
X57939347Y-133797472D01*
X58148936Y-133578724D01*
X58305991Y-133680062D01*
X58419149Y-134119149D01*
X58424930Y-134244149D01*
X58555676Y-134510352D01*
X58959839Y-134631122D01*
X59770213Y-134659575D01*
X60082712Y-134657262D01*
X60748221Y-134604964D01*
X61050145Y-134443299D01*
X61121277Y-134119149D01*
X61171946Y-133805040D01*
X61391490Y-133578724D01*
X61548544Y-133680062D01*
G37*
G36*
X60122293Y-124963663D02*
G01*
X61020881Y-125183306D01*
X61512337Y-125647716D01*
X61661702Y-126398784D01*
X61661707Y-126403933D01*
X61782651Y-126940304D01*
X62202128Y-127093617D01*
X62551484Y-127182434D01*
X62742553Y-127634043D01*
X62719003Y-127847126D01*
X62567392Y-128024625D01*
X62184034Y-128123109D01*
X61466069Y-128165438D01*
X60310639Y-128174468D01*
X59351763Y-128169235D01*
X58553020Y-128135544D01*
X58109838Y-128050353D01*
X57919359Y-127890805D01*
X57878724Y-127634043D01*
X57908530Y-127394678D01*
X58105191Y-127199957D01*
X58594484Y-127113336D01*
X59500000Y-127093617D01*
X60218094Y-127083682D01*
X60802256Y-127018128D01*
X61062120Y-126855030D01*
X61121277Y-126553192D01*
X61091471Y-126313827D01*
X60894809Y-126119106D01*
X60405516Y-126032485D01*
X59500000Y-126012766D01*
X58781907Y-126002831D01*
X58197744Y-125937277D01*
X57937880Y-125774179D01*
X57878724Y-125472341D01*
X57896344Y-125274848D01*
X58065089Y-125053837D01*
X58518567Y-124954772D01*
X59384195Y-124931915D01*
X60122293Y-124963663D01*
G37*
G36*
X59996282Y-111969144D02*
G01*
X60771268Y-112101725D01*
X61275684Y-112347721D01*
X61455779Y-112609525D01*
X61640980Y-113367327D01*
X61580948Y-114195568D01*
X61275684Y-114818237D01*
X61201177Y-114880715D01*
X60570315Y-115115347D01*
X59770213Y-115188413D01*
X59711154Y-115193806D01*
X58867440Y-115112164D01*
X58282916Y-114866489D01*
X58048118Y-114499977D01*
X57904150Y-113743993D01*
X57918476Y-113582979D01*
X58419149Y-113582979D01*
X58424930Y-113707979D01*
X58555676Y-113974182D01*
X58959839Y-114094952D01*
X59770213Y-114123404D01*
X60082712Y-114121092D01*
X60748221Y-114068794D01*
X61050145Y-113907128D01*
X61121277Y-113582979D01*
X61115496Y-113457979D01*
X60984751Y-113191776D01*
X60580587Y-113071006D01*
X59770213Y-113042553D01*
X59457714Y-113044866D01*
X58792206Y-113097164D01*
X58490281Y-113258829D01*
X58419149Y-113582979D01*
X57918476Y-113582979D01*
X57975730Y-112939503D01*
X58264742Y-112347721D01*
X58361711Y-112272332D01*
X58967716Y-112050813D01*
X59770213Y-111961702D01*
X59996282Y-111969144D01*
G37*
G36*
X61548544Y-107739637D02*
G01*
X61661702Y-108178724D01*
X61750519Y-108528080D01*
X62202128Y-108719149D01*
X62551484Y-108807966D01*
X62742553Y-109259575D01*
X62653737Y-109608931D01*
X62202128Y-109800000D01*
X61852772Y-109888817D01*
X61661702Y-110340426D01*
X61611033Y-110654535D01*
X61391490Y-110880851D01*
X61234435Y-110779513D01*
X61121277Y-110340426D01*
X61120581Y-110293261D01*
X61021315Y-109978973D01*
X60658138Y-109834680D01*
X59893915Y-109800000D01*
X59560985Y-109788308D01*
X58776022Y-109668927D01*
X58282916Y-109462234D01*
X58245848Y-109426286D01*
X58003522Y-108965039D01*
X57896115Y-108370626D01*
X57939347Y-107857046D01*
X58148936Y-107638298D01*
X58305991Y-107739637D01*
X58419149Y-108178724D01*
X58424930Y-108303723D01*
X58555676Y-108569927D01*
X58959839Y-108690696D01*
X59770213Y-108719149D01*
X60082712Y-108716837D01*
X60748221Y-108664539D01*
X61050145Y-108502873D01*
X61121277Y-108178724D01*
X61171946Y-107864614D01*
X61391490Y-107638298D01*
X61548544Y-107739637D01*
G37*
G36*
X60122293Y-103346642D02*
G01*
X61020881Y-103566284D01*
X61512337Y-104030694D01*
X61661702Y-104781763D01*
X61661707Y-104786912D01*
X61782651Y-105323283D01*
X62202128Y-105476596D01*
X62551484Y-105565413D01*
X62742553Y-106017021D01*
X62719003Y-106230105D01*
X62567392Y-106407603D01*
X62184034Y-106506088D01*
X61466069Y-106548417D01*
X60310639Y-106557447D01*
X59351763Y-106552213D01*
X58553020Y-106518522D01*
X58109838Y-106433332D01*
X57919359Y-106273784D01*
X57878724Y-106017021D01*
X57908530Y-105777657D01*
X58105191Y-105582936D01*
X58594484Y-105496315D01*
X59500000Y-105476596D01*
X60218094Y-105466661D01*
X60802256Y-105401107D01*
X61062120Y-105238009D01*
X61121277Y-104936170D01*
X61091471Y-104696806D01*
X60894809Y-104502085D01*
X60405516Y-104415464D01*
X59500000Y-104395745D01*
X58781907Y-104385809D01*
X58197744Y-104320256D01*
X57937880Y-104157158D01*
X57878724Y-103855319D01*
X57896344Y-103657826D01*
X58065089Y-103436816D01*
X58518567Y-103337751D01*
X59384195Y-103314894D01*
X60122293Y-103346642D01*
G37*
G36*
X60714997Y-99076931D02*
G01*
X61275684Y-99377508D01*
X61455779Y-99639313D01*
X61640980Y-100397114D01*
X61580948Y-101225355D01*
X61275684Y-101848024D01*
X61201177Y-101910502D01*
X60580851Y-102141215D01*
X60570315Y-102145134D01*
X59711154Y-102223594D01*
X58867440Y-102141951D01*
X58282916Y-101896277D01*
X58048118Y-101529764D01*
X57904150Y-100773780D01*
X57975730Y-99969290D01*
X58264742Y-99377508D01*
X58607939Y-99081717D01*
X58880740Y-99067568D01*
X58959575Y-99531915D01*
X58908905Y-99846024D01*
X58689362Y-100072341D01*
X58532307Y-100173679D01*
X58419149Y-100612766D01*
X58507966Y-100962122D01*
X58959575Y-101153192D01*
X59271507Y-101091998D01*
X59454681Y-100779473D01*
X59465365Y-100612766D01*
X60040426Y-100612766D01*
X60129243Y-100962122D01*
X60580851Y-101153192D01*
X60930208Y-101064375D01*
X61121277Y-100612766D01*
X61032460Y-100263410D01*
X60580851Y-100072341D01*
X60231495Y-100161157D01*
X60040426Y-100612766D01*
X59465365Y-100612766D01*
X59500000Y-100072341D01*
X59500376Y-99953713D01*
X59548846Y-99317425D01*
X59747636Y-99047544D01*
X60194833Y-98991489D01*
X60714997Y-99076931D01*
G37*
G36*
X59433919Y-94852722D02*
G01*
X59865080Y-95404593D01*
X60040426Y-96134955D01*
X60040431Y-96140103D01*
X60161375Y-96676474D01*
X60580851Y-96829787D01*
X60930208Y-96740970D01*
X61121277Y-96289362D01*
X61070608Y-95975253D01*
X60851064Y-95748936D01*
X60694010Y-95647598D01*
X60580851Y-95208511D01*
X60619639Y-94827835D01*
X60831262Y-94706035D01*
X61275684Y-95054103D01*
X61574917Y-95571312D01*
X61655600Y-96330831D01*
X61488284Y-97091197D01*
X61115767Y-97676452D01*
X60580851Y-97910638D01*
X60106507Y-97726002D01*
X59675346Y-97174131D01*
X59500000Y-96443769D01*
X59499996Y-96438620D01*
X59379051Y-95902249D01*
X58959575Y-95748936D01*
X58610219Y-95837753D01*
X58419149Y-96289362D01*
X58469819Y-96603471D01*
X58689362Y-96829787D01*
X58846417Y-96931126D01*
X58959575Y-97370213D01*
X58928520Y-97732531D01*
X58730477Y-97879724D01*
X58282916Y-97572872D01*
X57951042Y-97003844D01*
X57890758Y-96248321D01*
X58066330Y-95488799D01*
X58436391Y-94902861D01*
X58959575Y-94668085D01*
X59433919Y-94852722D01*
G37*
G36*
X58305991Y-90446020D02*
G01*
X58419149Y-90885107D01*
X58448955Y-91124471D01*
X58645617Y-91319192D01*
X59134910Y-91405813D01*
X60040426Y-91425532D01*
X61661702Y-91425532D01*
X61661702Y-92506383D01*
X61654812Y-92748666D01*
X61560698Y-93347515D01*
X61391490Y-93587234D01*
X61234435Y-93485895D01*
X61121277Y-93046809D01*
X61115496Y-92921809D01*
X60984751Y-92655606D01*
X60580587Y-92534836D01*
X59770213Y-92506383D01*
X59457714Y-92508696D01*
X58792206Y-92560994D01*
X58490281Y-92722659D01*
X58419149Y-93046809D01*
X58368480Y-93360918D01*
X58148936Y-93587234D01*
X58026906Y-93415023D01*
X57919745Y-92829543D01*
X57878724Y-91965958D01*
X57907426Y-91233774D01*
X58005006Y-90590807D01*
X58148936Y-90344681D01*
X58305991Y-90446020D01*
G37*
G36*
X59433919Y-86205913D02*
G01*
X59865080Y-86757784D01*
X60040426Y-87488146D01*
X60040431Y-87493295D01*
X60161375Y-88029666D01*
X60580851Y-88182979D01*
X60930208Y-88094162D01*
X61121277Y-87642553D01*
X61070608Y-87328444D01*
X60851064Y-87102128D01*
X60694010Y-87000789D01*
X60580851Y-86561702D01*
X60619639Y-86181026D01*
X60831262Y-86059227D01*
X61275684Y-86407295D01*
X61574917Y-86924503D01*
X61655600Y-87684023D01*
X61488284Y-88444389D01*
X61115767Y-89029643D01*
X60580851Y-89263830D01*
X60106507Y-89079193D01*
X59675346Y-88527322D01*
X59500000Y-87796961D01*
X59499996Y-87791812D01*
X59379051Y-87255441D01*
X58959575Y-87102128D01*
X58610219Y-87190945D01*
X58419149Y-87642553D01*
X58469819Y-87956662D01*
X58689362Y-88182979D01*
X58846417Y-88284318D01*
X58959575Y-88723404D01*
X58928520Y-89085723D01*
X58730477Y-89232916D01*
X58282916Y-88926064D01*
X57951042Y-88357036D01*
X57890758Y-87601512D01*
X58066330Y-86841991D01*
X58436391Y-86256052D01*
X58959575Y-86021277D01*
X59433919Y-86205913D01*
G37*
G36*
X58768505Y-83948392D02*
G01*
X58959575Y-84400000D01*
X58870758Y-84749356D01*
X58419149Y-84940426D01*
X58069793Y-84851609D01*
X57878724Y-84400000D01*
X57967541Y-84050644D01*
X58419149Y-83859575D01*
X58768505Y-83948392D01*
G37*
G36*
X63091910Y-91514349D02*
G01*
X63282979Y-91965958D01*
X63194162Y-92315314D01*
X62742553Y-92506383D01*
X62393197Y-92417566D01*
X62202128Y-91965958D01*
X62290945Y-91616601D01*
X62742553Y-91425532D01*
X63091910Y-91514349D01*
G37*
G36*
X71389362Y-108873556D02*
G01*
X71352141Y-109537849D01*
X71082055Y-110335751D01*
X70488366Y-110757524D01*
X69497873Y-110880851D01*
X69465124Y-110880748D01*
X68422426Y-110716358D01*
X67807878Y-110231339D01*
X67606383Y-109413982D01*
X67606379Y-109408833D01*
X67572723Y-109259575D01*
X68146809Y-109259575D01*
X68152590Y-109384574D01*
X68283335Y-109650778D01*
X68687499Y-109771547D01*
X69497873Y-109800000D01*
X69810372Y-109797688D01*
X70475880Y-109745390D01*
X70777804Y-109583724D01*
X70848936Y-109259575D01*
X70843155Y-109134575D01*
X70712410Y-108868372D01*
X70308246Y-108747602D01*
X69497873Y-108719149D01*
X69185373Y-108721462D01*
X68519865Y-108773760D01*
X68217941Y-108935425D01*
X68146809Y-109259575D01*
X67572723Y-109259575D01*
X67485434Y-108872462D01*
X67065958Y-108719149D01*
X66716601Y-108807966D01*
X66525532Y-109259575D01*
X66576202Y-109573684D01*
X66795745Y-109800000D01*
X66952800Y-109901339D01*
X67065958Y-110340426D01*
X67034903Y-110702744D01*
X66836860Y-110849937D01*
X66389299Y-110543085D01*
X66154501Y-110176573D01*
X66010533Y-109420589D01*
X66082112Y-108616099D01*
X66371125Y-108024316D01*
X66403390Y-107994766D01*
X66876628Y-107789912D01*
X67742725Y-107674497D01*
X69073253Y-107638298D01*
X71389362Y-107638298D01*
X71389362Y-108873556D01*
G37*
G36*
X69868512Y-64407966D02*
G01*
X70691768Y-64438999D01*
X71149491Y-64522423D01*
X71346937Y-64682797D01*
X71389362Y-64944681D01*
X71359556Y-65184045D01*
X71162894Y-65378766D01*
X70673601Y-65465388D01*
X69768085Y-65485107D01*
X69049992Y-65495042D01*
X68465829Y-65560596D01*
X68205965Y-65723693D01*
X68146809Y-66025532D01*
X68176615Y-66264896D01*
X68373276Y-66459617D01*
X68862570Y-66546239D01*
X69768085Y-66565958D01*
X70486179Y-66575893D01*
X71070341Y-66641447D01*
X71330205Y-66804544D01*
X71389362Y-67106383D01*
X71371741Y-67303876D01*
X71202997Y-67524887D01*
X70749519Y-67623951D01*
X69883891Y-67646809D01*
X69145793Y-67615060D01*
X68247204Y-67395418D01*
X67755748Y-66931008D01*
X67606383Y-66179939D01*
X67606379Y-66174791D01*
X67485434Y-65638419D01*
X67065958Y-65485107D01*
X66716601Y-65573923D01*
X66525532Y-66025532D01*
X66576202Y-66339641D01*
X66795745Y-66565958D01*
X66952800Y-66667296D01*
X67065958Y-67106383D01*
X67034903Y-67468702D01*
X66836860Y-67615894D01*
X66389299Y-67309043D01*
X66154501Y-66942530D01*
X66010533Y-66186546D01*
X66082112Y-65382056D01*
X66371125Y-64790274D01*
X66403390Y-64760724D01*
X66876628Y-64555869D01*
X67742725Y-64440455D01*
X69073253Y-64404255D01*
X69868512Y-64407966D01*
G37*
G36*
X70384773Y-181148830D02*
G01*
X71425632Y-181262774D01*
X72063056Y-181536005D01*
X72382699Y-182017803D01*
X72470213Y-182757447D01*
X72448209Y-183178881D01*
X72250164Y-183777731D01*
X71775263Y-184144469D01*
X70937852Y-184328373D01*
X70848936Y-184331856D01*
X69652280Y-184378724D01*
X69257656Y-184377737D01*
X68367963Y-184353831D01*
X67870525Y-184275593D01*
X67653834Y-184113566D01*
X67606383Y-183838298D01*
X67614746Y-183698793D01*
X67823660Y-183382799D01*
X68417022Y-183297872D01*
X68626278Y-183292297D01*
X69100269Y-183153022D01*
X69227660Y-182757447D01*
X69768085Y-182757447D01*
X69829279Y-183069379D01*
X70141804Y-183252553D01*
X70848936Y-183297872D01*
X71472801Y-183267275D01*
X71839148Y-183111013D01*
X71929788Y-182757447D01*
X71868593Y-182445515D01*
X71556068Y-182262341D01*
X70848936Y-182217021D01*
X70225072Y-182247618D01*
X69858724Y-182403881D01*
X69768085Y-182757447D01*
X69227660Y-182757447D01*
X69219297Y-182617942D01*
X69010384Y-182301948D01*
X68417022Y-182217021D01*
X68207765Y-182211446D01*
X67733774Y-182072171D01*
X67606383Y-181676596D01*
X67610116Y-181572356D01*
X67700618Y-181337342D01*
X67996808Y-181205944D01*
X68610192Y-181148705D01*
X69652280Y-181136170D01*
X70384773Y-181148830D01*
G37*
G36*
X69206466Y-176813095D02*
G01*
X70299077Y-176905208D01*
X70965944Y-177216509D01*
X71298796Y-177827845D01*
X71389362Y-178820061D01*
X71389362Y-180055319D01*
X69497873Y-180055319D01*
X69347311Y-180055169D01*
X68412324Y-180036026D01*
X67887543Y-179961609D01*
X67657414Y-179798904D01*
X67606383Y-179514894D01*
X67636189Y-179275529D01*
X67832851Y-179080808D01*
X68322144Y-178994187D01*
X69227660Y-178974468D01*
X69945753Y-178964533D01*
X70529916Y-178898979D01*
X70789780Y-178735881D01*
X70848936Y-178434043D01*
X70819130Y-178194678D01*
X70622469Y-177999957D01*
X70133176Y-177913336D01*
X69227660Y-177893617D01*
X68509567Y-177883682D01*
X67925404Y-177818128D01*
X67665540Y-177655030D01*
X67606383Y-177353192D01*
X67624004Y-177155699D01*
X67792748Y-176934688D01*
X68246226Y-176835623D01*
X69111854Y-176812766D01*
X69206466Y-176813095D01*
G37*
G36*
X68033651Y-168267296D02*
G01*
X68146809Y-168706383D01*
X68176615Y-168945748D01*
X68373276Y-169140468D01*
X68862570Y-169227090D01*
X69768085Y-169246809D01*
X71389362Y-169246809D01*
X71389362Y-170327660D01*
X71382472Y-170569943D01*
X71288357Y-171168791D01*
X71119149Y-171408511D01*
X70962095Y-171307172D01*
X70848936Y-170868085D01*
X70843155Y-170743085D01*
X70712410Y-170476882D01*
X70308246Y-170356113D01*
X69497873Y-170327660D01*
X69185373Y-170329972D01*
X68519865Y-170382270D01*
X68217941Y-170543936D01*
X68146809Y-170868085D01*
X68096139Y-171182194D01*
X67876596Y-171408511D01*
X67754565Y-171236299D01*
X67647404Y-170650819D01*
X67606383Y-169787234D01*
X67635085Y-169055051D01*
X67732665Y-168412083D01*
X67876596Y-168165958D01*
X68033651Y-168267296D01*
G37*
G36*
X69206466Y-163842882D02*
G01*
X70299077Y-163934995D01*
X70965944Y-164246297D01*
X71298796Y-164857632D01*
X71389362Y-165849848D01*
X71389362Y-167085107D01*
X69497873Y-167085107D01*
X69347311Y-167084956D01*
X68412324Y-167065813D01*
X67887543Y-166991397D01*
X67657414Y-166828691D01*
X67606383Y-166544681D01*
X67636189Y-166305317D01*
X67832851Y-166110596D01*
X68322144Y-166023974D01*
X69227660Y-166004255D01*
X69945753Y-165994320D01*
X70529916Y-165928766D01*
X70789780Y-165765669D01*
X70848936Y-165463830D01*
X70819130Y-165224465D01*
X70622469Y-165029745D01*
X70133176Y-164943123D01*
X69227660Y-164923404D01*
X68509567Y-164913469D01*
X67925404Y-164847915D01*
X67665540Y-164684817D01*
X67606383Y-164382979D01*
X67624004Y-164185486D01*
X67792748Y-163964475D01*
X68246226Y-163865411D01*
X69111854Y-163842553D01*
X69206466Y-163842882D01*
G37*
G36*
X71276204Y-159620488D02*
G01*
X71389362Y-160059575D01*
X71478179Y-160408931D01*
X71929788Y-160600000D01*
X72279144Y-160688817D01*
X72470213Y-161140426D01*
X72381396Y-161489782D01*
X71929788Y-161680851D01*
X71580431Y-161769668D01*
X71389362Y-162221277D01*
X71338693Y-162535386D01*
X71119149Y-162761702D01*
X70962095Y-162660364D01*
X70848936Y-162221277D01*
X70848241Y-162174112D01*
X70748975Y-161859824D01*
X70385797Y-161715531D01*
X69621574Y-161680851D01*
X69288645Y-161669159D01*
X68503681Y-161549778D01*
X68010576Y-161343085D01*
X67973507Y-161307137D01*
X67731182Y-160845890D01*
X67623775Y-160251477D01*
X67667007Y-159737897D01*
X67876596Y-159519149D01*
X68033651Y-159620488D01*
X68146809Y-160059575D01*
X68152590Y-160184574D01*
X68283335Y-160450778D01*
X68687499Y-160571547D01*
X69497873Y-160600000D01*
X69810372Y-160597688D01*
X70475880Y-160545390D01*
X70777804Y-160383724D01*
X70848936Y-160059575D01*
X70899606Y-159745465D01*
X71119149Y-159519149D01*
X71276204Y-159620488D01*
G37*
G36*
X70834088Y-155426942D02*
G01*
X71246287Y-156110290D01*
X71389362Y-157203040D01*
X71389362Y-158438298D01*
X69497873Y-158438298D01*
X69347311Y-158438147D01*
X68412324Y-158419005D01*
X67887543Y-158344588D01*
X67657414Y-158181883D01*
X67606383Y-157897872D01*
X67636189Y-157658508D01*
X67832851Y-157463787D01*
X68322144Y-157377166D01*
X69227660Y-157357447D01*
X69945753Y-157347512D01*
X70529916Y-157281958D01*
X70789780Y-157118860D01*
X70848936Y-156817021D01*
X70760120Y-156467665D01*
X70308511Y-156276596D01*
X69959155Y-156187779D01*
X69768085Y-155736170D01*
X69841575Y-155421622D01*
X70192705Y-155195745D01*
X70834088Y-155426942D01*
G37*
G36*
X69648435Y-150872491D02*
G01*
X70583422Y-150891634D01*
X71108202Y-150966050D01*
X71338331Y-151128756D01*
X71389362Y-151412766D01*
X71359556Y-151652131D01*
X71162894Y-151846851D01*
X70673601Y-151933473D01*
X69768085Y-151953192D01*
X69049992Y-151963127D01*
X68465829Y-152028681D01*
X68205965Y-152191779D01*
X68146809Y-152493617D01*
X68176615Y-152732982D01*
X68373276Y-152927702D01*
X68862570Y-153014324D01*
X69768085Y-153034043D01*
X70486179Y-153043978D01*
X71070341Y-153109532D01*
X71330205Y-153272630D01*
X71389362Y-153574468D01*
X71372475Y-153768766D01*
X71205650Y-153991777D01*
X70754649Y-154091794D01*
X69891787Y-154114894D01*
X69285730Y-154088732D01*
X68483485Y-153966152D01*
X68010576Y-153777128D01*
X67930108Y-153683174D01*
X67706573Y-153067626D01*
X67616661Y-152155851D01*
X67606383Y-150872341D01*
X69497873Y-150872341D01*
X69648435Y-150872491D01*
G37*
G36*
X69161579Y-146733573D02*
G01*
X69592740Y-147285444D01*
X69768085Y-148015806D01*
X69768090Y-148020954D01*
X69889034Y-148557325D01*
X70308511Y-148710638D01*
X70657867Y-148621822D01*
X70848936Y-148170213D01*
X70798267Y-147856104D01*
X70578724Y-147629787D01*
X70421669Y-147528449D01*
X70308511Y-147089362D01*
X70347298Y-146708686D01*
X70558922Y-146586886D01*
X71003344Y-146934955D01*
X71302576Y-147452163D01*
X71383260Y-148211682D01*
X71215943Y-148972048D01*
X70843427Y-149557303D01*
X70308511Y-149791489D01*
X69834166Y-149606853D01*
X69403005Y-149054982D01*
X69227660Y-148324620D01*
X69227655Y-148319471D01*
X69106711Y-147783100D01*
X68687234Y-147629787D01*
X68337878Y-147718604D01*
X68146809Y-148170213D01*
X68197478Y-148484322D01*
X68417022Y-148710638D01*
X68574076Y-148811977D01*
X68687234Y-149251064D01*
X68656179Y-149613382D01*
X68458137Y-149760575D01*
X68010576Y-149453724D01*
X67678702Y-148884695D01*
X67618418Y-148129172D01*
X67793989Y-147369650D01*
X68164051Y-146783712D01*
X68687234Y-146548936D01*
X69161579Y-146733573D01*
G37*
G36*
X68033651Y-142326871D02*
G01*
X68146809Y-142765958D01*
X68176615Y-143005322D01*
X68373276Y-143200043D01*
X68862570Y-143286664D01*
X69768085Y-143306383D01*
X71389362Y-143306383D01*
X71389362Y-144387234D01*
X71382472Y-144629517D01*
X71288357Y-145228366D01*
X71119149Y-145468085D01*
X70962095Y-145366747D01*
X70848936Y-144927660D01*
X70843155Y-144802660D01*
X70712410Y-144536457D01*
X70308246Y-144415687D01*
X69497873Y-144387234D01*
X69185373Y-144389547D01*
X68519865Y-144441845D01*
X68217941Y-144603510D01*
X68146809Y-144927660D01*
X68096139Y-145241769D01*
X67876596Y-145468085D01*
X67754565Y-145295874D01*
X67647404Y-144710394D01*
X67606383Y-143846809D01*
X67635085Y-143114625D01*
X67732665Y-142471658D01*
X67876596Y-142225532D01*
X68033651Y-142326871D01*
G37*
G36*
X70787981Y-137907703D02*
G01*
X71261972Y-138046979D01*
X71389362Y-138442553D01*
X71380999Y-138582058D01*
X71172086Y-138898052D01*
X70578724Y-138982979D01*
X70369467Y-138988554D01*
X69895476Y-139127830D01*
X69768085Y-139523404D01*
X69776448Y-139662909D01*
X69985362Y-139978903D01*
X70578724Y-140063830D01*
X70787981Y-140069405D01*
X71261972Y-140208681D01*
X71389362Y-140604255D01*
X71380999Y-140743760D01*
X71172086Y-141059754D01*
X70578724Y-141144681D01*
X70568638Y-141144660D01*
X70002892Y-141064193D01*
X69768085Y-140874468D01*
X69666747Y-140717414D01*
X69227660Y-140604255D01*
X68913551Y-140553586D01*
X68687234Y-140334043D01*
X68585896Y-140176988D01*
X68146809Y-140063830D01*
X67797453Y-139975013D01*
X67606383Y-139523404D01*
X67695200Y-139174048D01*
X68146809Y-138982979D01*
X68460918Y-138932310D01*
X68687234Y-138712766D01*
X68788573Y-138555712D01*
X69227660Y-138442553D01*
X69541769Y-138391884D01*
X69768085Y-138172341D01*
X69768148Y-138168979D01*
X70009548Y-137980397D01*
X70578724Y-137902128D01*
X70787981Y-137907703D01*
G37*
G36*
X70442656Y-133664165D02*
G01*
X71003344Y-133964742D01*
X71183439Y-134226547D01*
X71368640Y-134984348D01*
X71308608Y-135812589D01*
X71003344Y-136435258D01*
X70928837Y-136497736D01*
X70308511Y-136728449D01*
X70297974Y-136732368D01*
X69438814Y-136810828D01*
X68595100Y-136729185D01*
X68010576Y-136483511D01*
X67775778Y-136116998D01*
X67631810Y-135361014D01*
X67703389Y-134556524D01*
X67992402Y-133964742D01*
X68335599Y-133668951D01*
X68608399Y-133654802D01*
X68687234Y-134119149D01*
X68636565Y-134433258D01*
X68417022Y-134659575D01*
X68259967Y-134760913D01*
X68146809Y-135200000D01*
X68235626Y-135549356D01*
X68687234Y-135740426D01*
X68999167Y-135679232D01*
X69182340Y-135366707D01*
X69193024Y-135200000D01*
X69768085Y-135200000D01*
X69856902Y-135549356D01*
X70308511Y-135740426D01*
X70657867Y-135651609D01*
X70848936Y-135200000D01*
X70760120Y-134850644D01*
X70308511Y-134659575D01*
X69959155Y-134748392D01*
X69768085Y-135200000D01*
X69193024Y-135200000D01*
X69227660Y-134659575D01*
X69228035Y-134540947D01*
X69276505Y-133904659D01*
X69475296Y-133634778D01*
X69922493Y-133578724D01*
X70442656Y-133664165D01*
G37*
G36*
X71276204Y-125033254D02*
G01*
X71389362Y-125472341D01*
X71478179Y-125821697D01*
X71929788Y-126012766D01*
X72279144Y-126101583D01*
X72470213Y-126553192D01*
X72381396Y-126902548D01*
X71929788Y-127093617D01*
X71580431Y-127182434D01*
X71389362Y-127634043D01*
X71338693Y-127948152D01*
X71119149Y-128174468D01*
X70962095Y-128073130D01*
X70848936Y-127634043D01*
X70848241Y-127586878D01*
X70748975Y-127272590D01*
X70385797Y-127128297D01*
X69621574Y-127093617D01*
X69288645Y-127081925D01*
X68503681Y-126962544D01*
X68010576Y-126755851D01*
X67973507Y-126719903D01*
X67731182Y-126258656D01*
X67623775Y-125664243D01*
X67667007Y-125150663D01*
X67876596Y-124931915D01*
X68033651Y-125033254D01*
X68146809Y-125472341D01*
X68152590Y-125597340D01*
X68283335Y-125863544D01*
X68687499Y-125984313D01*
X69497873Y-126012766D01*
X69810372Y-126010454D01*
X70475880Y-125958156D01*
X70777804Y-125796490D01*
X70848936Y-125472341D01*
X70899606Y-125158231D01*
X71119149Y-124931915D01*
X71276204Y-125033254D01*
G37*
G36*
X69849952Y-120640259D02*
G01*
X70748541Y-120859902D01*
X71239997Y-121324311D01*
X71389362Y-122075380D01*
X71389367Y-122080529D01*
X71510311Y-122616900D01*
X71929788Y-122770213D01*
X72279144Y-122859030D01*
X72470213Y-123310638D01*
X72446662Y-123523722D01*
X72295052Y-123701220D01*
X71911694Y-123799705D01*
X71193729Y-123842034D01*
X70038298Y-123851064D01*
X69079423Y-123845830D01*
X68280680Y-123812139D01*
X67837498Y-123726949D01*
X67647019Y-123567401D01*
X67606383Y-123310638D01*
X67636189Y-123071274D01*
X67832851Y-122876553D01*
X68322144Y-122789932D01*
X69227660Y-122770213D01*
X69945753Y-122760278D01*
X70529916Y-122694724D01*
X70789780Y-122531626D01*
X70848936Y-122229787D01*
X70819130Y-121990423D01*
X70622469Y-121795702D01*
X70133176Y-121709081D01*
X69227660Y-121689362D01*
X68509567Y-121679427D01*
X67925404Y-121613873D01*
X67665540Y-121450775D01*
X67606383Y-121148936D01*
X67624004Y-120951443D01*
X67792748Y-120730433D01*
X68246226Y-120631368D01*
X69111854Y-120608511D01*
X69849952Y-120640259D01*
G37*
G36*
X69723942Y-116292548D02*
G01*
X70498928Y-116425129D01*
X71003344Y-116671125D01*
X71183439Y-116932930D01*
X71368640Y-117690731D01*
X71308608Y-118518972D01*
X71003344Y-119141641D01*
X70928837Y-119204119D01*
X70297974Y-119438751D01*
X69497873Y-119511818D01*
X69438814Y-119517211D01*
X68595100Y-119435568D01*
X68010576Y-119189894D01*
X67775778Y-118823381D01*
X67631810Y-118067397D01*
X67646136Y-117906383D01*
X68146809Y-117906383D01*
X68152590Y-118031383D01*
X68283335Y-118297586D01*
X68687499Y-118418356D01*
X69497873Y-118446809D01*
X69810372Y-118444496D01*
X70475880Y-118392198D01*
X70777804Y-118230533D01*
X70848936Y-117906383D01*
X70843155Y-117781383D01*
X70712410Y-117515180D01*
X70308246Y-117394410D01*
X69497873Y-117365958D01*
X69185373Y-117368270D01*
X68519865Y-117420568D01*
X68217941Y-117582234D01*
X68146809Y-117906383D01*
X67646136Y-117906383D01*
X67703389Y-117262907D01*
X67992402Y-116671125D01*
X68089370Y-116595736D01*
X68695376Y-116374217D01*
X69497873Y-116285107D01*
X69723942Y-116292548D01*
G37*
G36*
X69648435Y-111961853D02*
G01*
X70583422Y-111980996D01*
X71108202Y-112055412D01*
X71338331Y-112218118D01*
X71389362Y-112502128D01*
X71359556Y-112741492D01*
X71162894Y-112936213D01*
X70673601Y-113022834D01*
X69768085Y-113042553D01*
X69049992Y-113052489D01*
X68465829Y-113118043D01*
X68205965Y-113281140D01*
X68146809Y-113582979D01*
X68176615Y-113822343D01*
X68373276Y-114017064D01*
X68862570Y-114103686D01*
X69768085Y-114123404D01*
X70486179Y-114133340D01*
X71070341Y-114198894D01*
X71330205Y-114361991D01*
X71389362Y-114663830D01*
X71372475Y-114858127D01*
X71205650Y-115081139D01*
X70754649Y-115181156D01*
X69891787Y-115204255D01*
X69285730Y-115178093D01*
X68483485Y-115055514D01*
X68010576Y-114866489D01*
X67930108Y-114772536D01*
X67706573Y-114156988D01*
X67616661Y-113245213D01*
X67606383Y-111961702D01*
X69497873Y-111961702D01*
X69648435Y-111961853D01*
G37*
G36*
X69849952Y-103346642D02*
G01*
X70748541Y-103566284D01*
X71239997Y-104030694D01*
X71389362Y-104781763D01*
X71389367Y-104786912D01*
X71510311Y-105323283D01*
X71929788Y-105476596D01*
X72279144Y-105565413D01*
X72470213Y-106017021D01*
X72446662Y-106230105D01*
X72295052Y-106407603D01*
X71911694Y-106506088D01*
X71193729Y-106548417D01*
X70038298Y-106557447D01*
X69079423Y-106552213D01*
X68280680Y-106518522D01*
X67837498Y-106433332D01*
X67647019Y-106273784D01*
X67606383Y-106017021D01*
X67636189Y-105777657D01*
X67832851Y-105582936D01*
X68322144Y-105496315D01*
X69227660Y-105476596D01*
X69945753Y-105466661D01*
X70529916Y-105401107D01*
X70789780Y-105238009D01*
X70848936Y-104936170D01*
X70819130Y-104696806D01*
X70622469Y-104502085D01*
X70133176Y-104415464D01*
X69227660Y-104395745D01*
X68509567Y-104385809D01*
X67925404Y-104320256D01*
X67665540Y-104157158D01*
X67606383Y-103855319D01*
X67624004Y-103657826D01*
X67792748Y-103436816D01*
X68246226Y-103337751D01*
X69111854Y-103314894D01*
X69849952Y-103346642D01*
G37*
G36*
X71276204Y-99092828D02*
G01*
X71389362Y-99531915D01*
X71478179Y-99881271D01*
X71929788Y-100072341D01*
X72279144Y-100161157D01*
X72470213Y-100612766D01*
X72381396Y-100962122D01*
X71929788Y-101153192D01*
X71580431Y-101242009D01*
X71389362Y-101693617D01*
X71338693Y-102007726D01*
X71119149Y-102234043D01*
X70962095Y-102132704D01*
X70848936Y-101693617D01*
X70848241Y-101646453D01*
X70748975Y-101332164D01*
X70385797Y-101187871D01*
X69621574Y-101153192D01*
X69288645Y-101141500D01*
X68503681Y-101022118D01*
X68010576Y-100815426D01*
X67973507Y-100779478D01*
X67731182Y-100318230D01*
X67623775Y-99723818D01*
X67667007Y-99210238D01*
X67876596Y-98991489D01*
X68033651Y-99092828D01*
X68146809Y-99531915D01*
X68152590Y-99656915D01*
X68283335Y-99923118D01*
X68687499Y-100043888D01*
X69497873Y-100072341D01*
X69810372Y-100070028D01*
X70475880Y-100017730D01*
X70777804Y-99856065D01*
X70848936Y-99531915D01*
X70899606Y-99217806D01*
X71119149Y-98991489D01*
X71276204Y-99092828D01*
G37*
G36*
X71276204Y-90446020D02*
G01*
X71389362Y-90885107D01*
X71478179Y-91234463D01*
X71929788Y-91425532D01*
X72279144Y-91514349D01*
X72470213Y-91965958D01*
X72381396Y-92315314D01*
X71929788Y-92506383D01*
X71580431Y-92595200D01*
X71389362Y-93046809D01*
X71338693Y-93360918D01*
X71119149Y-93587234D01*
X70962095Y-93485895D01*
X70848936Y-93046809D01*
X70848241Y-92999644D01*
X70748975Y-92685356D01*
X70385797Y-92541063D01*
X69621574Y-92506383D01*
X69288645Y-92494691D01*
X68503681Y-92375310D01*
X68010576Y-92168617D01*
X67973507Y-92132669D01*
X67731182Y-91671422D01*
X67623775Y-91077009D01*
X67667007Y-90563429D01*
X67876596Y-90344681D01*
X68033651Y-90446020D01*
X68146809Y-90885107D01*
X68152590Y-91010106D01*
X68283335Y-91276310D01*
X68687499Y-91397079D01*
X69497873Y-91425532D01*
X69810372Y-91423220D01*
X70475880Y-91370922D01*
X70777804Y-91209256D01*
X70848936Y-90885107D01*
X70899606Y-90570997D01*
X71119149Y-90344681D01*
X71276204Y-90446020D01*
G37*
G36*
X70442656Y-86106719D02*
G01*
X71003344Y-86407295D01*
X71183439Y-86669100D01*
X71368640Y-87426901D01*
X71308608Y-88255142D01*
X71003344Y-88877812D01*
X70928837Y-88940289D01*
X70308511Y-89171002D01*
X70297974Y-89174921D01*
X69438814Y-89253381D01*
X68595100Y-89171738D01*
X68010576Y-88926064D01*
X67775778Y-88559552D01*
X67631810Y-87803568D01*
X67703389Y-86999077D01*
X67992402Y-86407295D01*
X68335599Y-86111504D01*
X68608399Y-86097355D01*
X68687234Y-86561702D01*
X68636565Y-86875811D01*
X68417022Y-87102128D01*
X68259967Y-87203466D01*
X68146809Y-87642553D01*
X68235626Y-87991910D01*
X68687234Y-88182979D01*
X68999167Y-88121785D01*
X69182340Y-87809260D01*
X69193024Y-87642553D01*
X69768085Y-87642553D01*
X69856902Y-87991910D01*
X70308511Y-88182979D01*
X70657867Y-88094162D01*
X70848936Y-87642553D01*
X70760120Y-87293197D01*
X70308511Y-87102128D01*
X69959155Y-87190945D01*
X69768085Y-87642553D01*
X69193024Y-87642553D01*
X69227660Y-87102128D01*
X69228035Y-86983501D01*
X69276505Y-86347213D01*
X69475296Y-86077331D01*
X69922493Y-86021277D01*
X70442656Y-86106719D01*
G37*
G36*
X68033651Y-81799211D02*
G01*
X68146809Y-82238298D01*
X68154763Y-82380785D01*
X68263292Y-82595649D01*
X68585954Y-82715475D01*
X69231458Y-82767441D01*
X70308511Y-82778724D01*
X72470213Y-82778724D01*
X72470213Y-83859575D01*
X72463323Y-84101857D01*
X72369208Y-84700706D01*
X72200000Y-84940426D01*
X72042946Y-84839087D01*
X71929788Y-84400000D01*
X71929260Y-84356982D01*
X71862260Y-84089843D01*
X71601803Y-83939906D01*
X71032334Y-83874155D01*
X70038298Y-83859575D01*
X69887736Y-83859725D01*
X68952749Y-83878868D01*
X68427968Y-83953284D01*
X68197840Y-84115990D01*
X68146809Y-84400000D01*
X68096139Y-84714109D01*
X67876596Y-84940426D01*
X67754565Y-84768214D01*
X67647404Y-84182734D01*
X67606383Y-83319149D01*
X67635085Y-82586966D01*
X67732665Y-81943998D01*
X67876596Y-81697872D01*
X68033651Y-81799211D01*
G37*
G36*
X68033651Y-77475807D02*
G01*
X68146809Y-77914894D01*
X68154763Y-78057381D01*
X68263292Y-78272244D01*
X68585954Y-78392071D01*
X69231458Y-78444037D01*
X70308511Y-78455319D01*
X72470213Y-78455319D01*
X72470213Y-79536170D01*
X72463323Y-79778453D01*
X72369208Y-80377302D01*
X72200000Y-80617021D01*
X72042946Y-80515683D01*
X71929788Y-80076596D01*
X71929260Y-80033578D01*
X71862260Y-79766439D01*
X71601803Y-79616502D01*
X71032334Y-79550751D01*
X70038298Y-79536170D01*
X69887736Y-79536321D01*
X68952749Y-79555464D01*
X68427968Y-79629880D01*
X68197840Y-79792586D01*
X68146809Y-80076596D01*
X68096139Y-80390705D01*
X67876596Y-80617021D01*
X67754565Y-80444810D01*
X67647404Y-79859330D01*
X67606383Y-78995745D01*
X67635085Y-78263561D01*
X67732665Y-77620594D01*
X67876596Y-77374468D01*
X68033651Y-77475807D01*
G37*
G36*
X69161579Y-73235701D02*
G01*
X69592740Y-73787572D01*
X69768085Y-74517933D01*
X69768090Y-74523082D01*
X69889034Y-75059453D01*
X70308511Y-75212766D01*
X70657867Y-75123949D01*
X70848936Y-74672341D01*
X70798267Y-74358231D01*
X70578724Y-74131915D01*
X70421669Y-74030576D01*
X70308511Y-73591489D01*
X70347298Y-73210813D01*
X70558922Y-73089014D01*
X71003344Y-73437082D01*
X71302576Y-73954291D01*
X71383260Y-74713810D01*
X71215943Y-75474176D01*
X70843427Y-76059431D01*
X70308511Y-76293617D01*
X69834166Y-76108981D01*
X69403005Y-75557109D01*
X69227660Y-74826748D01*
X69227655Y-74821599D01*
X69106711Y-74285228D01*
X68687234Y-74131915D01*
X68337878Y-74220732D01*
X68146809Y-74672341D01*
X68197478Y-74986450D01*
X68417022Y-75212766D01*
X68574076Y-75314105D01*
X68687234Y-75753192D01*
X68656179Y-76115510D01*
X68458137Y-76262703D01*
X68010576Y-75955851D01*
X67678702Y-75386823D01*
X67618418Y-74631300D01*
X67793989Y-73871778D01*
X68164051Y-73285839D01*
X68687234Y-73051064D01*
X69161579Y-73235701D01*
G37*
G36*
X69723942Y-60088293D02*
G01*
X70498928Y-60220874D01*
X71003344Y-60466869D01*
X71183439Y-60728674D01*
X71368640Y-61486476D01*
X71308608Y-62314717D01*
X71003344Y-62937386D01*
X70928837Y-62999864D01*
X70297974Y-63234496D01*
X69497873Y-63307562D01*
X69438814Y-63312955D01*
X68595100Y-63231313D01*
X68010576Y-62985638D01*
X67775778Y-62619126D01*
X67631810Y-61863142D01*
X67646136Y-61702128D01*
X68146809Y-61702128D01*
X68152590Y-61827128D01*
X68283335Y-62093331D01*
X68687499Y-62214100D01*
X69497873Y-62242553D01*
X69810372Y-62240241D01*
X70475880Y-62187943D01*
X70777804Y-62026277D01*
X70848936Y-61702128D01*
X70843155Y-61577128D01*
X70712410Y-61310925D01*
X70308246Y-61190155D01*
X69497873Y-61161702D01*
X69185373Y-61164015D01*
X68519865Y-61216313D01*
X68217941Y-61377978D01*
X68146809Y-61702128D01*
X67646136Y-61702128D01*
X67703389Y-61058652D01*
X67992402Y-60466869D01*
X68089370Y-60391481D01*
X68695376Y-60169962D01*
X69497873Y-60080851D01*
X69723942Y-60088293D01*
G37*
G36*
X69648435Y-55757598D02*
G01*
X70583422Y-55776740D01*
X71108202Y-55851157D01*
X71338331Y-56013862D01*
X71389362Y-56297872D01*
X71359556Y-56537237D01*
X71162894Y-56731958D01*
X70673601Y-56818579D01*
X69768085Y-56838298D01*
X69049992Y-56848233D01*
X68465829Y-56913787D01*
X68205965Y-57076885D01*
X68146809Y-57378724D01*
X68176615Y-57618088D01*
X68373276Y-57812809D01*
X68862570Y-57899430D01*
X69768085Y-57919149D01*
X70486179Y-57929084D01*
X71070341Y-57994638D01*
X71330205Y-58157736D01*
X71389362Y-58459575D01*
X71372475Y-58653872D01*
X71205650Y-58876884D01*
X70754649Y-58976900D01*
X69891787Y-59000000D01*
X69285730Y-58973838D01*
X68483485Y-58851258D01*
X68010576Y-58662234D01*
X67930108Y-58568281D01*
X67706573Y-57952732D01*
X67616661Y-57040958D01*
X67606383Y-55757447D01*
X69497873Y-55757447D01*
X69648435Y-55757598D01*
G37*
G36*
X70195353Y-188803466D02*
G01*
X70308511Y-189242553D01*
X70359180Y-189556662D01*
X70578724Y-189782979D01*
X70643311Y-189775127D01*
X70848936Y-189512766D01*
X70856789Y-189448178D01*
X71119149Y-189242553D01*
X71276204Y-189343892D01*
X71389362Y-189782979D01*
X71338693Y-190097088D01*
X71119149Y-190323404D01*
X70962095Y-190424743D01*
X70848936Y-190863830D01*
X70899606Y-191177939D01*
X71119149Y-191404255D01*
X71276204Y-191505594D01*
X71389362Y-191944681D01*
X71338693Y-192258790D01*
X71119149Y-192485107D01*
X71054562Y-192477254D01*
X70848936Y-192214894D01*
X70841084Y-192150306D01*
X70578724Y-191944681D01*
X70421669Y-192046020D01*
X70308511Y-192485107D01*
X70257842Y-192799216D01*
X70038298Y-193025532D01*
X69881244Y-192924193D01*
X69768085Y-192485107D01*
X69717416Y-192170997D01*
X69497873Y-191944681D01*
X69433285Y-191952533D01*
X69227660Y-192214894D01*
X69219808Y-192279481D01*
X68957447Y-192485107D01*
X68800393Y-192383768D01*
X68687234Y-191944681D01*
X68737904Y-191630572D01*
X68957447Y-191404255D01*
X69114502Y-191302917D01*
X69227660Y-190863830D01*
X69176991Y-190549721D01*
X68957447Y-190323404D01*
X68800393Y-190222066D01*
X68687234Y-189782979D01*
X68737904Y-189468870D01*
X68957447Y-189242553D01*
X69022035Y-189250405D01*
X69227660Y-189512766D01*
X69235512Y-189577354D01*
X69497873Y-189782979D01*
X69654927Y-189681640D01*
X69768085Y-189242553D01*
X69818755Y-188928444D01*
X70038298Y-188702128D01*
X70195353Y-188803466D01*
G37*
G36*
X72819569Y-169335626D02*
G01*
X73010639Y-169787234D01*
X72921822Y-170136590D01*
X72470213Y-170327660D01*
X72120857Y-170238843D01*
X71929788Y-169787234D01*
X72018604Y-169437878D01*
X72470213Y-169246809D01*
X72819569Y-169335626D01*
G37*
G36*
X72819569Y-143395200D02*
G01*
X73010639Y-143846809D01*
X72921822Y-144196165D01*
X72470213Y-144387234D01*
X72120857Y-144298417D01*
X71929788Y-143846809D01*
X72018604Y-143497452D01*
X72470213Y-143306383D01*
X72819569Y-143395200D01*
G37*
%TD*%
M02*
