M48
; DRILL file {KiCad 9.0.2} date 2026-05-12T22:16:25-0400
; FORMAT={-:-/ absolute / metric / decimal}
; #@! TF.CreationDate,2026-05-12T22:16:25-04:00
; #@! TF.GenerationSoftware,Kicad,Pcbnew,9.0.2
; #@! TF.FileFunction,Plated,1,4,PTH
FMAT,2
METRIC
; #@! TA.AperFunction,Plated,PTH,ComponentDrill
T1C0.750
; #@! TA.AperFunction,Plated,PTH,ViaDrill
T2C0.800
; #@! TA.AperFunction,Plated,PTH,ComponentDrill
T3C0.800
; #@! TA.AperFunction,Plated,PTH,ComponentDrill
T4C1.000
%
G90
G05
T1
X95.05Y-165.395
X95.05Y-166.665
X95.05Y-167.935
X95.05Y-193.395
X95.05Y-194.665
X95.05Y-195.935
X95.09Y-134.138
X95.09Y-135.408
X95.09Y-136.678
X95.1Y-106.145
X95.1Y-107.415
X95.1Y-108.685
X95.35Y-47.395
X95.35Y-48.665
X95.35Y-49.935
X95.35Y-75.395
X95.35Y-76.665
X95.35Y-77.935
X113.75Y-174.055
X113.75Y-175.325
X113.75Y-176.595
X113.75Y-202.055
X113.75Y-203.325
X113.75Y-204.595
X113.79Y-142.798
X113.79Y-144.068
X113.79Y-145.338
X113.8Y-114.805
X113.8Y-116.075
X113.8Y-117.345
X113.8Y-165.075
X113.8Y-166.345
X113.8Y-167.615
X113.8Y-193.075
X113.8Y-194.345
X113.8Y-195.615
X113.84Y-133.818
X113.84Y-135.088
X113.84Y-136.358
X113.85Y-105.825
X113.85Y-107.095
X113.85Y-108.365
X114.05Y-56.055
X114.05Y-57.325
X114.05Y-58.595
X114.05Y-84.055
X114.05Y-85.325
X114.05Y-86.595
X114.1Y-47.075
X114.1Y-48.345
X114.1Y-49.615
X114.1Y-75.075
X114.1Y-76.345
X114.1Y-77.615
X132.5Y-165.095
X132.5Y-166.365
X132.5Y-167.635
X132.5Y-173.805
X132.5Y-175.075
X132.5Y-176.345
X132.5Y-193.095
X132.5Y-194.365
X132.5Y-195.635
X132.5Y-201.805
X132.5Y-203.075
X132.5Y-204.345
X132.54Y-133.838
X132.54Y-135.108
X132.54Y-136.378
X132.54Y-142.548
X132.54Y-143.818
X132.54Y-145.088
X132.55Y-105.845
X132.55Y-107.115
X132.55Y-108.385
X132.55Y-114.555
X132.55Y-115.825
X132.55Y-117.095
X132.8Y-47.095
X132.8Y-48.365
X132.8Y-49.635
X132.8Y-55.805
X132.8Y-57.075
X132.8Y-58.345
X132.8Y-75.095
X132.8Y-76.365
X132.8Y-77.635
X132.8Y-83.805
X132.8Y-85.075
X132.8Y-86.345
X137.55Y-193.395
X137.55Y-194.665
X137.55Y-195.935
X137.59Y-134.138
X137.59Y-135.408
X137.59Y-136.678
X137.6Y-106.145
X137.6Y-107.415
X137.6Y-108.685
X137.614Y-165.26
X137.614Y-166.53
X137.614Y-167.8
X137.85Y-47.395
X137.85Y-48.665
X137.85Y-49.935
X137.9Y-75.395
X137.9Y-76.665
X137.9Y-77.935
X156.25Y-202.055
X156.25Y-203.325
X156.25Y-204.595
X156.29Y-142.798
X156.29Y-144.068
X156.29Y-145.338
X156.3Y-114.805
X156.3Y-116.075
X156.3Y-117.345
X156.3Y-193.075
X156.3Y-194.345
X156.3Y-195.615
X156.314Y-173.92
X156.314Y-175.19
X156.314Y-176.46
X156.34Y-133.818
X156.34Y-135.088
X156.34Y-136.358
X156.35Y-105.825
X156.35Y-107.095
X156.35Y-108.365
X156.364Y-164.94
X156.364Y-166.21
X156.364Y-167.48
X156.55Y-56.055
X156.55Y-57.325
X156.55Y-58.595
X156.6Y-47.075
X156.6Y-48.345
X156.6Y-49.615
X156.6Y-84.055
X156.6Y-85.325
X156.6Y-86.595
X156.65Y-75.075
X156.65Y-76.345
X156.65Y-77.615
X175.0Y-193.095
X175.0Y-194.365
X175.0Y-195.635
X175.0Y-201.805
X175.0Y-203.075
X175.0Y-204.345
X175.04Y-133.838
X175.04Y-135.108
X175.04Y-136.378
X175.04Y-142.548
X175.04Y-143.818
X175.04Y-145.088
X175.05Y-105.845
X175.05Y-107.115
X175.05Y-108.385
X175.05Y-114.555
X175.05Y-115.825
X175.05Y-117.095
X175.064Y-164.96
X175.064Y-166.23
X175.064Y-167.5
X175.064Y-173.67
X175.064Y-174.94
X175.064Y-176.21
X175.3Y-47.095
X175.3Y-48.365
X175.3Y-49.635
X175.3Y-55.805
X175.3Y-57.075
X175.3Y-58.345
X175.35Y-75.095
X175.35Y-76.365
X175.35Y-77.635
X175.35Y-83.805
X175.35Y-85.075
X175.35Y-86.345
X180.05Y-165.355
X180.05Y-166.625
X180.05Y-167.895
X180.05Y-193.355
X180.05Y-194.625
X180.05Y-195.895
X180.09Y-134.138
X180.09Y-135.408
X180.09Y-136.678
X180.1Y-106.185
X180.1Y-107.455
X180.1Y-108.725
X180.35Y-47.395
X180.35Y-48.665
X180.35Y-49.935
X180.4Y-75.435
X180.4Y-76.705
X180.4Y-77.975
X198.75Y-174.015
X198.75Y-175.285
X198.75Y-176.555
X198.75Y-202.015
X198.75Y-203.285
X198.75Y-204.555
X198.79Y-142.798
X198.79Y-144.068
X198.79Y-145.338
X198.8Y-114.845
X198.8Y-116.115
X198.8Y-117.385
X198.8Y-165.035
X198.8Y-166.305
X198.8Y-167.575
X198.8Y-193.035
X198.8Y-194.305
X198.8Y-195.575
X198.84Y-133.818
X198.84Y-135.088
X198.84Y-136.358
X198.85Y-105.865
X198.85Y-107.135
X198.85Y-108.405
X199.05Y-56.055
X199.05Y-57.325
X199.05Y-58.595
X199.1Y-47.075
X199.1Y-48.345
X199.1Y-49.615
X199.1Y-84.095
X199.1Y-85.365
X199.1Y-86.635
X199.15Y-75.115
X199.15Y-76.385
X199.15Y-77.655
X217.5Y-165.055
X217.5Y-166.325
X217.5Y-167.595
X217.5Y-173.765
X217.5Y-175.035
X217.5Y-176.305
X217.5Y-193.055
X217.5Y-194.325
X217.5Y-195.595
X217.5Y-201.765
X217.5Y-203.035
X217.5Y-204.305
X217.54Y-133.838
X217.54Y-135.108
X217.54Y-136.378
X217.54Y-142.548
X217.54Y-143.818
X217.54Y-145.088
X217.55Y-105.885
X217.55Y-107.155
X217.55Y-108.425
X217.55Y-114.595
X217.55Y-115.865
X217.55Y-117.135
X217.8Y-47.095
X217.8Y-48.365
X217.8Y-49.635
X217.8Y-55.805
X217.8Y-57.075
X217.8Y-58.345
X217.85Y-75.135
X217.85Y-76.405
X217.85Y-77.675
X217.85Y-83.845
X217.85Y-85.115
X217.85Y-86.385
T2
X83.095Y-59.5
X83.095Y-118.0
X85.1Y-177.5
X94.2Y-33.403
X96.25Y-31.5
X106.5Y-30.25
X119.25Y-31.0
X121.75Y-31.25
X124.5Y-30.75
X127.75Y-32.75
X128.75Y-37.0
X133.75Y-63.85
X133.75Y-123.25
X149.247Y-207.395
X154.25Y-206.75
X181.572Y-123.25
X181.901Y-63.85
X182.75Y-128.0
X182.816Y-69.23
T3
X87.5Y-141.75
X87.5Y-146.4
X87.509Y-173.186
X87.51Y-113.595
X87.51Y-118.095
X87.51Y-177.595
X87.684Y-83.162
X87.75Y-201.0
X87.75Y-205.5
X87.76Y-87.571
X87.886Y-55.0
X87.886Y-59.455
X90.04Y-141.75
X90.04Y-146.4
X90.049Y-173.186
X90.05Y-113.595
X90.05Y-118.095
X90.05Y-177.595
X90.224Y-83.162
X90.29Y-201.0
X90.29Y-205.5
X90.3Y-87.571
X90.426Y-55.0
X90.426Y-59.455
X91.0Y-157.96
X91.0Y-160.5
X91.05Y-98.555
X91.05Y-101.095
X91.05Y-126.555
X91.05Y-129.095
X91.05Y-185.805
X91.05Y-188.345
X91.3Y-40.05
X91.3Y-42.59
X91.3Y-67.8
X91.3Y-70.34
X94.16Y-173.255
X94.16Y-177.505
X94.16Y-201.255
X94.16Y-205.505
X94.2Y-141.998
X94.2Y-146.248
X94.21Y-114.005
X94.21Y-118.255
X94.46Y-55.255
X94.46Y-59.505
X94.46Y-83.255
X94.46Y-87.505
X96.2Y-157.96
X96.2Y-160.5
X96.2Y-185.96
X96.2Y-188.5
X96.24Y-126.703
X96.24Y-129.243
X96.25Y-98.71
X96.25Y-101.25
X96.5Y-39.96
X96.5Y-42.5
X96.5Y-67.96
X96.5Y-70.5
X96.7Y-173.255
X96.7Y-177.505
X96.7Y-201.255
X96.7Y-205.505
X96.74Y-141.998
X96.74Y-146.248
X96.75Y-114.005
X96.75Y-118.255
X97.0Y-55.255
X97.0Y-59.505
X97.0Y-83.255
X97.0Y-87.505
X100.46Y-164.095
X100.46Y-173.095
X100.46Y-192.095
X100.46Y-201.095
X100.5Y-132.838
X100.5Y-141.838
X100.5Y-168.595
X100.5Y-177.595
X100.5Y-196.595
X100.5Y-205.595
X100.51Y-104.845
X100.51Y-113.845
X100.54Y-137.338
X100.54Y-146.338
X100.55Y-109.345
X100.55Y-118.345
X100.76Y-46.095
X100.76Y-55.095
X100.76Y-74.095
X100.76Y-83.095
X100.8Y-50.595
X100.8Y-59.595
X100.8Y-78.595
X100.8Y-87.595
X101.0Y-157.96
X101.0Y-160.5
X101.0Y-185.96
X101.0Y-188.5
X101.04Y-126.703
X101.04Y-129.243
X101.05Y-98.71
X101.05Y-101.25
X101.3Y-39.96
X101.3Y-42.5
X101.3Y-67.96
X101.3Y-70.5
X103.0Y-164.095
X103.0Y-173.095
X103.0Y-192.095
X103.0Y-201.095
X103.04Y-132.838
X103.04Y-141.838
X103.04Y-168.595
X103.04Y-177.595
X103.04Y-196.595
X103.04Y-205.595
X103.05Y-104.845
X103.05Y-113.845
X103.08Y-137.338
X103.08Y-146.338
X103.09Y-109.345
X103.09Y-118.345
X103.3Y-46.095
X103.3Y-55.095
X103.3Y-74.095
X103.3Y-83.095
X103.34Y-50.595
X103.34Y-59.595
X103.34Y-78.595
X103.34Y-87.595
X103.5Y-180.305
X103.5Y-182.845
X103.5Y-208.305
X103.5Y-210.845
X103.54Y-149.048
X103.54Y-151.588
X103.55Y-121.055
X103.55Y-123.595
X103.8Y-62.305
X103.8Y-64.845
X103.8Y-90.305
X103.8Y-92.845
X105.75Y-157.96
X105.75Y-160.5
X105.75Y-185.96
X105.75Y-188.5
X105.79Y-126.703
X105.79Y-129.243
X105.8Y-98.71
X105.8Y-101.25
X106.05Y-39.96
X106.05Y-42.5
X106.05Y-67.96
X106.05Y-70.5
X106.636Y-168.595
X106.636Y-177.595
X106.636Y-196.595
X106.636Y-205.595
X106.676Y-137.338
X106.676Y-146.338
X106.686Y-109.345
X106.686Y-118.345
X106.71Y-173.095
X106.71Y-201.095
X106.75Y-141.838
X106.75Y-164.095
X106.75Y-192.095
X106.76Y-113.845
X106.79Y-132.838
X106.8Y-104.845
X106.936Y-50.595
X106.936Y-59.595
X106.936Y-78.595
X106.936Y-87.595
X107.01Y-55.095
X107.01Y-83.095
X107.05Y-46.095
X107.05Y-74.095
X108.25Y-180.305
X108.25Y-182.845
X108.25Y-208.305
X108.25Y-210.845
X108.29Y-149.048
X108.29Y-151.588
X108.3Y-121.055
X108.3Y-123.595
X108.55Y-62.305
X108.55Y-64.845
X108.55Y-90.305
X108.55Y-92.845
X109.176Y-168.595
X109.176Y-177.595
X109.176Y-196.595
X109.176Y-205.595
X109.216Y-137.338
X109.216Y-146.338
X109.226Y-109.345
X109.226Y-118.345
X109.25Y-173.095
X109.25Y-201.095
X109.29Y-141.838
X109.29Y-164.095
X109.29Y-192.095
X109.3Y-113.845
X109.33Y-132.838
X109.34Y-104.845
X109.476Y-50.595
X109.476Y-59.595
X109.476Y-78.595
X109.476Y-87.595
X109.55Y-55.095
X109.55Y-83.095
X109.59Y-46.095
X109.59Y-74.095
X110.5Y-157.96
X110.5Y-160.5
X110.5Y-185.96
X110.5Y-188.5
X110.54Y-126.703
X110.54Y-129.243
X110.55Y-98.71
X110.55Y-101.25
X110.8Y-39.96
X110.8Y-42.5
X110.8Y-67.96
X110.8Y-70.5
X113.0Y-180.345
X113.0Y-182.885
X113.0Y-208.345
X113.0Y-210.885
X113.04Y-149.088
X113.04Y-151.628
X113.05Y-121.095
X113.05Y-123.635
X113.3Y-62.345
X113.3Y-64.885
X113.3Y-90.345
X113.3Y-92.885
X115.25Y-157.96
X115.25Y-160.5
X115.25Y-185.96
X115.25Y-188.5
X115.29Y-126.703
X115.29Y-129.243
X115.3Y-98.71
X115.3Y-101.25
X115.55Y-39.96
X115.55Y-42.5
X115.55Y-67.96
X115.55Y-70.5
X117.75Y-180.35
X117.75Y-182.89
X117.75Y-208.35
X117.75Y-210.89
X117.79Y-149.093
X117.79Y-151.633
X117.8Y-121.1
X117.8Y-123.64
X118.05Y-62.35
X118.05Y-64.89
X118.05Y-90.35
X118.05Y-92.89
X119.21Y-172.845
X119.21Y-200.845
X119.25Y-141.588
X119.25Y-164.095
X119.25Y-177.345
X119.25Y-192.095
X119.25Y-205.345
X119.26Y-113.595
X119.29Y-132.838
X119.29Y-146.088
X119.3Y-104.845
X119.3Y-118.095
X119.386Y-168.595
X119.386Y-196.595
X119.426Y-137.338
X119.436Y-109.345
X119.51Y-54.845
X119.51Y-82.845
X119.55Y-46.095
X119.55Y-59.345
X119.55Y-74.095
X119.55Y-87.345
X119.686Y-50.595
X119.686Y-78.595
X120.0Y-157.96
X120.0Y-160.5
X120.0Y-185.96
X120.0Y-188.5
X120.04Y-126.703
X120.04Y-129.243
X120.05Y-98.71
X120.05Y-101.25
X120.3Y-39.96
X120.3Y-42.5
X120.3Y-67.96
X120.3Y-70.5
X121.75Y-172.845
X121.75Y-200.845
X121.79Y-141.588
X121.79Y-164.095
X121.79Y-177.345
X121.79Y-192.095
X121.79Y-205.345
X121.8Y-113.595
X121.83Y-132.838
X121.83Y-146.088
X121.84Y-104.845
X121.84Y-118.095
X121.926Y-168.595
X121.926Y-196.595
X121.966Y-137.338
X121.976Y-109.345
X122.05Y-54.845
X122.05Y-82.845
X122.09Y-46.095
X122.09Y-59.345
X122.09Y-74.095
X122.09Y-87.345
X122.226Y-50.595
X122.226Y-78.595
X122.5Y-180.305
X122.5Y-182.845
X122.5Y-208.305
X122.5Y-210.845
X122.54Y-149.048
X122.54Y-151.588
X122.55Y-121.055
X122.55Y-123.595
X122.8Y-62.305
X122.8Y-64.845
X122.8Y-90.305
X122.8Y-92.845
X124.5Y-157.96
X124.5Y-160.5
X124.5Y-185.96
X124.5Y-188.5
X124.54Y-126.703
X124.54Y-129.243
X124.55Y-98.71
X124.55Y-101.25
X124.8Y-39.96
X124.8Y-42.5
X124.8Y-67.96
X124.8Y-70.5
X125.386Y-172.845
X125.386Y-200.845
X125.426Y-141.588
X125.436Y-113.595
X125.5Y-164.095
X125.5Y-168.595
X125.5Y-177.345
X125.5Y-192.095
X125.5Y-196.595
X125.5Y-205.345
X125.54Y-132.838
X125.54Y-137.338
X125.54Y-146.088
X125.55Y-104.845
X125.55Y-109.345
X125.55Y-118.095
X125.686Y-54.845
X125.686Y-82.845
X125.8Y-46.095
X125.8Y-50.595
X125.8Y-59.345
X125.8Y-74.095
X125.8Y-78.595
X125.8Y-87.345
X127.25Y-180.305
X127.25Y-182.845
X127.25Y-208.305
X127.25Y-210.845
X127.29Y-149.048
X127.29Y-151.588
X127.3Y-121.055
X127.3Y-123.595
X127.55Y-62.305
X127.55Y-64.845
X127.55Y-90.305
X127.55Y-92.845
X127.926Y-172.845
X127.926Y-200.845
X127.966Y-141.588
X127.976Y-113.595
X128.04Y-164.095
X128.04Y-168.595
X128.04Y-177.345
X128.04Y-192.095
X128.04Y-196.595
X128.04Y-205.345
X128.08Y-132.838
X128.08Y-137.338
X128.08Y-146.088
X128.09Y-104.845
X128.09Y-109.345
X128.09Y-118.095
X128.226Y-54.845
X128.226Y-82.845
X128.34Y-46.095
X128.34Y-50.595
X128.34Y-59.345
X128.34Y-74.095
X128.34Y-78.595
X128.34Y-87.345
X129.25Y-157.96
X129.25Y-160.5
X129.25Y-185.96
X129.25Y-188.5
X129.29Y-126.703
X129.29Y-129.243
X129.3Y-98.71
X129.3Y-101.25
X129.55Y-39.96
X129.55Y-42.5
X129.55Y-67.96
X129.55Y-70.5
X136.66Y-201.255
X136.66Y-205.505
X136.7Y-141.998
X136.7Y-146.248
X136.71Y-114.005
X136.71Y-118.255
X136.724Y-173.12
X136.724Y-177.37
X136.96Y-55.255
X136.96Y-59.505
X137.01Y-83.255
X137.01Y-87.505
X138.7Y-185.96
X138.7Y-188.5
X138.74Y-126.703
X138.74Y-129.243
X138.75Y-98.71
X138.75Y-101.25
X138.764Y-157.825
X138.764Y-160.365
X139.0Y-39.96
X139.0Y-42.5
X139.05Y-67.96
X139.05Y-70.5
X139.2Y-201.255
X139.2Y-205.505
X139.24Y-141.998
X139.24Y-146.248
X139.25Y-114.005
X139.25Y-118.255
X139.264Y-173.12
X139.264Y-177.37
X139.5Y-55.255
X139.5Y-59.505
X139.55Y-83.255
X139.55Y-87.505
X142.96Y-192.095
X142.96Y-201.095
X143.0Y-132.838
X143.0Y-141.838
X143.0Y-196.595
X143.0Y-205.595
X143.01Y-104.845
X143.01Y-113.845
X143.024Y-163.96
X143.024Y-172.96
X143.04Y-137.338
X143.04Y-146.338
X143.05Y-109.345
X143.05Y-118.345
X143.064Y-168.46
X143.064Y-177.46
X143.26Y-46.095
X143.26Y-55.095
X143.3Y-50.595
X143.3Y-59.595
X143.31Y-74.095
X143.31Y-83.095
X143.35Y-78.595
X143.35Y-87.595
X143.5Y-185.96
X143.5Y-188.5
X143.54Y-126.703
X143.54Y-129.243
X143.55Y-98.71
X143.55Y-101.25
X143.564Y-157.825
X143.564Y-160.365
X143.8Y-39.96
X143.8Y-42.5
X143.85Y-67.96
X143.85Y-70.5
X145.5Y-192.095
X145.5Y-201.095
X145.54Y-132.838
X145.54Y-141.838
X145.54Y-196.595
X145.54Y-205.595
X145.55Y-104.845
X145.55Y-113.845
X145.564Y-163.96
X145.564Y-172.96
X145.58Y-137.338
X145.58Y-146.338
X145.59Y-109.345
X145.59Y-118.345
X145.604Y-168.46
X145.604Y-177.46
X145.8Y-46.095
X145.8Y-55.095
X145.84Y-50.595
X145.84Y-59.595
X145.85Y-74.095
X145.85Y-83.095
X145.89Y-78.595
X145.89Y-87.595
X146.0Y-208.305
X146.0Y-210.845
X146.04Y-149.048
X146.04Y-151.588
X146.05Y-121.055
X146.05Y-123.595
X146.064Y-180.17
X146.064Y-182.71
X146.3Y-62.305
X146.3Y-64.845
X146.35Y-90.305
X146.35Y-92.845
X148.25Y-185.96
X148.25Y-188.5
X148.29Y-126.703
X148.29Y-129.243
X148.3Y-98.71
X148.3Y-101.25
X148.314Y-157.825
X148.314Y-160.365
X148.55Y-39.96
X148.55Y-42.5
X148.6Y-67.96
X148.6Y-70.5
X149.136Y-196.595
X149.136Y-205.595
X149.176Y-137.338
X149.176Y-146.338
X149.186Y-109.345
X149.186Y-118.345
X149.2Y-168.46
X149.2Y-177.46
X149.21Y-201.095
X149.25Y-141.838
X149.25Y-192.095
X149.26Y-113.845
X149.274Y-172.96
X149.29Y-132.838
X149.3Y-104.845
X149.314Y-163.96
X149.436Y-50.595
X149.436Y-59.595
X149.486Y-78.595
X149.486Y-87.595
X149.51Y-55.095
X149.55Y-46.095
X149.56Y-83.095
X149.6Y-74.095
X150.75Y-208.305
X150.75Y-210.845
X150.79Y-149.048
X150.79Y-151.588
X150.8Y-121.055
X150.8Y-123.595
X150.814Y-180.17
X150.814Y-182.71
X151.05Y-62.305
X151.05Y-64.845
X151.1Y-90.305
X151.1Y-92.845
X151.676Y-196.595
X151.676Y-205.595
X151.716Y-137.338
X151.716Y-146.338
X151.726Y-109.345
X151.726Y-118.345
X151.74Y-168.46
X151.74Y-177.46
X151.75Y-201.095
X151.79Y-141.838
X151.79Y-192.095
X151.8Y-113.845
X151.814Y-172.96
X151.83Y-132.838
X151.84Y-104.845
X151.854Y-163.96
X151.976Y-50.595
X151.976Y-59.595
X152.026Y-78.595
X152.026Y-87.595
X152.05Y-55.095
X152.09Y-46.095
X152.1Y-83.095
X152.14Y-74.095
X153.0Y-185.96
X153.0Y-188.5
X153.04Y-126.703
X153.04Y-129.243
X153.05Y-98.71
X153.05Y-101.25
X153.064Y-157.825
X153.064Y-160.365
X153.3Y-39.96
X153.3Y-42.5
X153.35Y-67.96
X153.35Y-70.5
X155.5Y-208.345
X155.5Y-210.885
X155.54Y-149.088
X155.54Y-151.628
X155.55Y-121.095
X155.55Y-123.635
X155.564Y-180.21
X155.564Y-182.75
X155.8Y-62.345
X155.8Y-64.885
X155.85Y-90.345
X155.85Y-92.885
X157.75Y-185.96
X157.75Y-188.5
X157.79Y-126.703
X157.79Y-129.243
X157.8Y-98.71
X157.8Y-101.25
X157.814Y-157.825
X157.814Y-160.365
X158.05Y-39.96
X158.05Y-42.5
X158.1Y-67.96
X158.1Y-70.5
X160.25Y-208.35
X160.25Y-210.89
X160.29Y-149.093
X160.29Y-151.633
X160.3Y-121.1
X160.3Y-123.64
X160.314Y-180.215
X160.314Y-182.755
X160.55Y-62.35
X160.55Y-64.89
X160.6Y-90.35
X160.6Y-92.89
X161.71Y-200.845
X161.75Y-141.588
X161.75Y-192.095
X161.75Y-205.345
X161.76Y-113.595
X161.774Y-172.71
X161.79Y-132.838
X161.79Y-146.088
X161.8Y-104.845
X161.8Y-118.095
X161.814Y-163.96
X161.814Y-177.21
X161.886Y-196.595
X161.926Y-137.338
X161.936Y-109.345
X161.95Y-168.46
X162.01Y-54.845
X162.05Y-46.095
X162.05Y-59.345
X162.06Y-82.845
X162.1Y-74.095
X162.1Y-87.345
X162.186Y-50.595
X162.236Y-78.595
X162.5Y-185.96
X162.5Y-188.5
X162.54Y-126.703
X162.54Y-129.243
X162.55Y-98.71
X162.55Y-101.25
X162.564Y-157.825
X162.564Y-160.365
X162.8Y-39.96
X162.8Y-42.5
X162.85Y-67.96
X162.85Y-70.5
X164.25Y-200.845
X164.29Y-141.588
X164.29Y-192.095
X164.29Y-205.345
X164.3Y-113.595
X164.314Y-172.71
X164.33Y-132.838
X164.33Y-146.088
X164.34Y-104.845
X164.34Y-118.095
X164.354Y-163.96
X164.354Y-177.21
X164.426Y-196.595
X164.466Y-137.338
X164.476Y-109.345
X164.49Y-168.46
X164.55Y-54.845
X164.59Y-46.095
X164.59Y-59.345
X164.6Y-82.845
X164.64Y-74.095
X164.64Y-87.345
X164.726Y-50.595
X164.776Y-78.595
X165.0Y-208.305
X165.0Y-210.845
X165.04Y-149.048
X165.04Y-151.588
X165.05Y-121.055
X165.05Y-123.595
X165.064Y-180.17
X165.064Y-182.71
X165.3Y-62.305
X165.3Y-64.845
X165.35Y-90.305
X165.35Y-92.845
X167.0Y-185.96
X167.0Y-188.5
X167.04Y-126.703
X167.04Y-129.243
X167.05Y-98.71
X167.05Y-101.25
X167.064Y-157.825
X167.064Y-160.365
X167.3Y-39.96
X167.3Y-42.5
X167.35Y-67.96
X167.35Y-70.5
X167.886Y-200.845
X167.926Y-141.588
X167.936Y-113.595
X167.95Y-172.71
X168.0Y-192.095
X168.0Y-196.595
X168.0Y-205.345
X168.04Y-132.838
X168.04Y-137.338
X168.04Y-146.088
X168.05Y-104.845
X168.05Y-109.345
X168.05Y-118.095
X168.064Y-163.96
X168.064Y-168.46
X168.064Y-177.21
X168.186Y-54.845
X168.236Y-82.845
X168.3Y-46.095
X168.3Y-50.595
X168.3Y-59.345
X168.35Y-74.095
X168.35Y-78.595
X168.35Y-87.345
X169.75Y-208.305
X169.75Y-210.845
X169.79Y-149.048
X169.79Y-151.588
X169.8Y-121.055
X169.8Y-123.595
X169.814Y-180.17
X169.814Y-182.71
X170.05Y-62.305
X170.05Y-64.845
X170.1Y-90.305
X170.1Y-92.845
X170.426Y-200.845
X170.466Y-141.588
X170.476Y-113.595
X170.49Y-172.71
X170.54Y-192.095
X170.54Y-196.595
X170.54Y-205.345
X170.58Y-132.838
X170.58Y-137.338
X170.58Y-146.088
X170.59Y-104.845
X170.59Y-109.345
X170.59Y-118.095
X170.604Y-163.96
X170.604Y-168.46
X170.604Y-177.21
X170.726Y-54.845
X170.776Y-82.845
X170.84Y-46.095
X170.84Y-50.595
X170.84Y-59.345
X170.89Y-74.095
X170.89Y-78.595
X170.89Y-87.345
X171.75Y-185.96
X171.75Y-188.5
X171.79Y-126.703
X171.79Y-129.243
X171.8Y-98.71
X171.8Y-101.25
X171.814Y-157.825
X171.814Y-160.365
X172.05Y-39.96
X172.05Y-42.5
X172.1Y-67.96
X172.1Y-70.5
X179.16Y-173.215
X179.16Y-177.465
X179.16Y-201.215
X179.16Y-205.465
X179.2Y-141.998
X179.2Y-146.248
X179.21Y-114.045
X179.21Y-118.295
X179.46Y-55.255
X179.46Y-59.505
X179.51Y-83.295
X179.51Y-87.545
X181.2Y-157.92
X181.2Y-160.46
X181.2Y-185.92
X181.2Y-188.46
X181.24Y-126.703
X181.24Y-129.243
X181.25Y-98.75
X181.25Y-101.29
X181.5Y-39.96
X181.5Y-42.5
X181.55Y-68.0
X181.55Y-70.54
X181.7Y-173.215
X181.7Y-177.465
X181.7Y-201.215
X181.7Y-205.465
X181.74Y-141.998
X181.74Y-146.248
X181.75Y-114.045
X181.75Y-118.295
X182.0Y-55.255
X182.0Y-59.505
X182.05Y-83.295
X182.05Y-87.545
X185.46Y-164.055
X185.46Y-173.055
X185.46Y-192.055
X185.46Y-201.055
X185.5Y-132.838
X185.5Y-141.838
X185.5Y-168.555
X185.5Y-177.555
X185.5Y-196.555
X185.5Y-205.555
X185.51Y-104.885
X185.51Y-113.885
X185.54Y-137.338
X185.54Y-146.338
X185.55Y-109.385
X185.55Y-118.385
X185.76Y-46.095
X185.76Y-55.095
X185.8Y-50.595
X185.8Y-59.595
X185.81Y-74.135
X185.81Y-83.135
X185.85Y-78.635
X185.85Y-87.635
X186.0Y-157.92
X186.0Y-160.46
X186.0Y-185.92
X186.0Y-188.46
X186.04Y-126.703
X186.04Y-129.243
X186.05Y-98.75
X186.05Y-101.29
X186.3Y-39.96
X186.3Y-42.5
X186.35Y-68.0
X186.35Y-70.54
X188.0Y-164.055
X188.0Y-173.055
X188.0Y-192.055
X188.0Y-201.055
X188.04Y-132.838
X188.04Y-141.838
X188.04Y-168.555
X188.04Y-177.555
X188.04Y-196.555
X188.04Y-205.555
X188.05Y-104.885
X188.05Y-113.885
X188.08Y-137.338
X188.08Y-146.338
X188.09Y-109.385
X188.09Y-118.385
X188.3Y-46.095
X188.3Y-55.095
X188.34Y-50.595
X188.34Y-59.595
X188.35Y-74.135
X188.35Y-83.135
X188.39Y-78.635
X188.39Y-87.635
X188.5Y-180.265
X188.5Y-182.805
X188.5Y-208.265
X188.5Y-210.805
X188.54Y-149.048
X188.54Y-151.588
X188.55Y-121.095
X188.55Y-123.635
X188.8Y-62.305
X188.8Y-64.845
X188.85Y-90.345
X188.85Y-92.885
X190.75Y-157.92
X190.75Y-160.46
X190.75Y-185.92
X190.75Y-188.46
X190.79Y-126.703
X190.79Y-129.243
X190.8Y-98.75
X190.8Y-101.29
X191.05Y-39.96
X191.05Y-42.5
X191.1Y-68.0
X191.1Y-70.54
X191.636Y-168.555
X191.636Y-177.555
X191.636Y-196.555
X191.636Y-205.555
X191.676Y-137.338
X191.676Y-146.338
X191.686Y-109.385
X191.686Y-118.385
X191.71Y-173.055
X191.71Y-201.055
X191.75Y-141.838
X191.75Y-164.055
X191.75Y-192.055
X191.76Y-113.885
X191.79Y-132.838
X191.8Y-104.885
X191.936Y-50.595
X191.936Y-59.595
X191.986Y-78.635
X191.986Y-87.635
X192.01Y-55.095
X192.05Y-46.095
X192.06Y-83.135
X192.1Y-74.135
X193.25Y-180.265
X193.25Y-182.805
X193.25Y-208.265
X193.25Y-210.805
X193.29Y-149.048
X193.29Y-151.588
X193.3Y-121.095
X193.3Y-123.635
X193.55Y-62.305
X193.55Y-64.845
X193.6Y-90.345
X193.6Y-92.885
X194.176Y-168.555
X194.176Y-177.555
X194.176Y-196.555
X194.176Y-205.555
X194.216Y-137.338
X194.216Y-146.338
X194.226Y-109.385
X194.226Y-118.385
X194.25Y-173.055
X194.25Y-201.055
X194.29Y-141.838
X194.29Y-164.055
X194.29Y-192.055
X194.3Y-113.885
X194.33Y-132.838
X194.34Y-104.885
X194.476Y-50.595
X194.476Y-59.595
X194.526Y-78.635
X194.526Y-87.635
X194.55Y-55.095
X194.59Y-46.095
X194.6Y-83.135
X194.64Y-74.135
X195.5Y-157.92
X195.5Y-160.46
X195.5Y-185.92
X195.5Y-188.46
X195.54Y-126.703
X195.54Y-129.243
X195.55Y-98.75
X195.55Y-101.29
X195.8Y-39.96
X195.8Y-42.5
X195.85Y-68.0
X195.85Y-70.54
X198.0Y-180.305
X198.0Y-182.845
X198.0Y-208.305
X198.0Y-210.845
X198.04Y-149.088
X198.04Y-151.628
X198.05Y-121.135
X198.05Y-123.675
X198.3Y-62.345
X198.3Y-64.885
X198.35Y-90.385
X198.35Y-92.925
X200.25Y-157.92
X200.25Y-160.46
X200.25Y-185.92
X200.25Y-188.46
X200.29Y-126.703
X200.29Y-129.243
X200.3Y-98.75
X200.3Y-101.29
X200.55Y-39.96
X200.55Y-42.5
X200.6Y-68.0
X200.6Y-70.54
X202.75Y-180.31
X202.75Y-182.85
X202.75Y-208.31
X202.75Y-210.85
X202.79Y-149.093
X202.79Y-151.633
X202.8Y-121.14
X202.8Y-123.68
X203.05Y-62.35
X203.05Y-64.89
X203.1Y-90.39
X203.1Y-92.93
X204.21Y-172.805
X204.21Y-200.805
X204.25Y-141.588
X204.25Y-164.055
X204.25Y-177.305
X204.25Y-192.055
X204.25Y-205.305
X204.26Y-113.635
X204.29Y-132.838
X204.29Y-146.088
X204.3Y-104.885
X204.3Y-118.135
X204.386Y-168.555
X204.386Y-196.555
X204.426Y-137.338
X204.436Y-109.385
X204.51Y-54.845
X204.55Y-46.095
X204.55Y-59.345
X204.56Y-82.885
X204.6Y-74.135
X204.6Y-87.385
X204.686Y-50.595
X204.736Y-78.635
X205.0Y-157.92
X205.0Y-160.46
X205.0Y-185.92
X205.0Y-188.46
X205.04Y-126.703
X205.04Y-129.243
X205.05Y-98.75
X205.05Y-101.29
X205.3Y-39.96
X205.3Y-42.5
X205.35Y-68.0
X205.35Y-70.54
X206.75Y-172.805
X206.75Y-200.805
X206.79Y-141.588
X206.79Y-164.055
X206.79Y-177.305
X206.79Y-192.055
X206.79Y-205.305
X206.8Y-113.635
X206.83Y-132.838
X206.83Y-146.088
X206.84Y-104.885
X206.84Y-118.135
X206.926Y-168.555
X206.926Y-196.555
X206.966Y-137.338
X206.976Y-109.385
X207.05Y-54.845
X207.09Y-46.095
X207.09Y-59.345
X207.1Y-82.885
X207.14Y-74.135
X207.14Y-87.385
X207.226Y-50.595
X207.276Y-78.635
X207.5Y-180.265
X207.5Y-182.805
X207.5Y-208.265
X207.5Y-210.805
X207.54Y-149.048
X207.54Y-151.588
X207.55Y-121.095
X207.55Y-123.635
X207.8Y-62.305
X207.8Y-64.845
X207.85Y-90.345
X207.85Y-92.885
X209.5Y-157.92
X209.5Y-160.46
X209.5Y-185.92
X209.5Y-188.46
X209.54Y-126.703
X209.54Y-129.243
X209.55Y-98.75
X209.55Y-101.29
X209.8Y-39.96
X209.8Y-42.5
X209.85Y-68.0
X209.85Y-70.54
X210.386Y-172.805
X210.386Y-200.805
X210.426Y-141.588
X210.436Y-113.635
X210.5Y-164.055
X210.5Y-168.555
X210.5Y-177.305
X210.5Y-192.055
X210.5Y-196.555
X210.5Y-205.305
X210.54Y-132.838
X210.54Y-137.338
X210.54Y-146.088
X210.55Y-104.885
X210.55Y-109.385
X210.55Y-118.135
X210.686Y-54.845
X210.736Y-82.885
X210.8Y-46.095
X210.8Y-50.595
X210.8Y-59.345
X210.85Y-74.135
X210.85Y-78.635
X210.85Y-87.385
X212.25Y-180.265
X212.25Y-182.805
X212.25Y-208.265
X212.25Y-210.805
X212.29Y-149.048
X212.29Y-151.588
X212.3Y-121.095
X212.3Y-123.635
X212.55Y-62.305
X212.55Y-64.845
X212.6Y-90.345
X212.6Y-92.885
X212.926Y-172.805
X212.926Y-200.805
X212.966Y-141.588
X212.976Y-113.635
X213.04Y-164.055
X213.04Y-168.555
X213.04Y-177.305
X213.04Y-192.055
X213.04Y-196.555
X213.04Y-205.305
X213.08Y-132.838
X213.08Y-137.338
X213.08Y-146.088
X213.09Y-104.885
X213.09Y-109.385
X213.09Y-118.135
X213.226Y-54.845
X213.276Y-82.885
X213.34Y-46.095
X213.34Y-50.595
X213.34Y-59.345
X213.39Y-74.135
X213.39Y-78.635
X213.39Y-87.385
X214.25Y-157.92
X214.25Y-160.46
X214.25Y-185.92
X214.25Y-188.46
X214.29Y-126.703
X214.29Y-129.243
X214.3Y-98.75
X214.3Y-101.29
X214.55Y-39.96
X214.55Y-42.5
X214.6Y-68.0
X214.6Y-70.54
T4
X33.5Y-212.25
X36.04Y-212.25
X38.58Y-212.25
X41.12Y-212.25
X43.66Y-212.25
X46.2Y-212.25
X48.74Y-212.25
X51.28Y-212.25
X53.82Y-212.25
X56.36Y-212.25
X61.97Y-212.0
X64.51Y-212.0
X67.05Y-212.0
X69.59Y-212.0
X72.13Y-212.0
X74.67Y-212.0
X77.21Y-212.0
X79.75Y-212.0
X82.29Y-212.0
X84.83Y-212.0
M30
